G04 EAGLE Gerber RS-274X export*
G75*
%MOMM*%
%FSLAX34Y34*%
%LPD*%
%INSlot drill/holes/outline*%
%IPPOS*%
%AMOC8*
5,1,8,0,0,1.08239X$1,22.5*%
G01*
%ADD10C,0.000000*%


D10*
X165100Y0D02*
X1257300Y0D01*
X1257300Y900000D01*
X165100Y900000D01*
X165100Y0D01*
X178850Y175000D02*
X178854Y175307D01*
X178865Y175613D01*
X178884Y175920D01*
X178910Y176225D01*
X178944Y176530D01*
X178985Y176834D01*
X179034Y177137D01*
X179090Y177439D01*
X179154Y177739D01*
X179225Y178037D01*
X179303Y178334D01*
X179388Y178629D01*
X179481Y178921D01*
X179581Y179211D01*
X179688Y179499D01*
X179802Y179784D01*
X179922Y180066D01*
X180050Y180344D01*
X180185Y180620D01*
X180326Y180892D01*
X180474Y181161D01*
X180628Y181426D01*
X180789Y181687D01*
X180957Y181945D01*
X181130Y182198D01*
X181310Y182446D01*
X181496Y182690D01*
X181687Y182930D01*
X181885Y183165D01*
X182088Y183394D01*
X182297Y183619D01*
X182511Y183839D01*
X182731Y184053D01*
X182956Y184262D01*
X183185Y184465D01*
X183420Y184663D01*
X183660Y184854D01*
X183904Y185040D01*
X184152Y185220D01*
X184405Y185393D01*
X184663Y185561D01*
X184924Y185722D01*
X185189Y185876D01*
X185458Y186024D01*
X185730Y186165D01*
X186006Y186300D01*
X186284Y186428D01*
X186566Y186548D01*
X186851Y186662D01*
X187139Y186769D01*
X187429Y186869D01*
X187721Y186962D01*
X188016Y187047D01*
X188313Y187125D01*
X188611Y187196D01*
X188911Y187260D01*
X189213Y187316D01*
X189516Y187365D01*
X189820Y187406D01*
X190125Y187440D01*
X190430Y187466D01*
X190737Y187485D01*
X191043Y187496D01*
X191350Y187500D01*
X191657Y187496D01*
X191963Y187485D01*
X192270Y187466D01*
X192575Y187440D01*
X192880Y187406D01*
X193184Y187365D01*
X193487Y187316D01*
X193789Y187260D01*
X194089Y187196D01*
X194387Y187125D01*
X194684Y187047D01*
X194979Y186962D01*
X195271Y186869D01*
X195561Y186769D01*
X195849Y186662D01*
X196134Y186548D01*
X196416Y186428D01*
X196694Y186300D01*
X196970Y186165D01*
X197242Y186024D01*
X197511Y185876D01*
X197776Y185722D01*
X198037Y185561D01*
X198295Y185393D01*
X198548Y185220D01*
X198796Y185040D01*
X199040Y184854D01*
X199280Y184663D01*
X199515Y184465D01*
X199744Y184262D01*
X199969Y184053D01*
X200189Y183839D01*
X200403Y183619D01*
X200612Y183394D01*
X200815Y183165D01*
X201013Y182930D01*
X201204Y182690D01*
X201390Y182446D01*
X201570Y182198D01*
X201743Y181945D01*
X201911Y181687D01*
X202072Y181426D01*
X202226Y181161D01*
X202374Y180892D01*
X202515Y180620D01*
X202650Y180344D01*
X202778Y180066D01*
X202898Y179784D01*
X203012Y179499D01*
X203119Y179211D01*
X203219Y178921D01*
X203312Y178629D01*
X203397Y178334D01*
X203475Y178037D01*
X203546Y177739D01*
X203610Y177439D01*
X203666Y177137D01*
X203715Y176834D01*
X203756Y176530D01*
X203790Y176225D01*
X203816Y175920D01*
X203835Y175613D01*
X203846Y175307D01*
X203850Y175000D01*
X203846Y174693D01*
X203835Y174387D01*
X203816Y174080D01*
X203790Y173775D01*
X203756Y173470D01*
X203715Y173166D01*
X203666Y172863D01*
X203610Y172561D01*
X203546Y172261D01*
X203475Y171963D01*
X203397Y171666D01*
X203312Y171371D01*
X203219Y171079D01*
X203119Y170789D01*
X203012Y170501D01*
X202898Y170216D01*
X202778Y169934D01*
X202650Y169656D01*
X202515Y169380D01*
X202374Y169108D01*
X202226Y168839D01*
X202072Y168574D01*
X201911Y168313D01*
X201743Y168055D01*
X201570Y167802D01*
X201390Y167554D01*
X201204Y167310D01*
X201013Y167070D01*
X200815Y166835D01*
X200612Y166606D01*
X200403Y166381D01*
X200189Y166161D01*
X199969Y165947D01*
X199744Y165738D01*
X199515Y165535D01*
X199280Y165337D01*
X199040Y165146D01*
X198796Y164960D01*
X198548Y164780D01*
X198295Y164607D01*
X198037Y164439D01*
X197776Y164278D01*
X197511Y164124D01*
X197242Y163976D01*
X196970Y163835D01*
X196694Y163700D01*
X196416Y163572D01*
X196134Y163452D01*
X195849Y163338D01*
X195561Y163231D01*
X195271Y163131D01*
X194979Y163038D01*
X194684Y162953D01*
X194387Y162875D01*
X194089Y162804D01*
X193789Y162740D01*
X193487Y162684D01*
X193184Y162635D01*
X192880Y162594D01*
X192575Y162560D01*
X192270Y162534D01*
X191963Y162515D01*
X191657Y162504D01*
X191350Y162500D01*
X191043Y162504D01*
X190737Y162515D01*
X190430Y162534D01*
X190125Y162560D01*
X189820Y162594D01*
X189516Y162635D01*
X189213Y162684D01*
X188911Y162740D01*
X188611Y162804D01*
X188313Y162875D01*
X188016Y162953D01*
X187721Y163038D01*
X187429Y163131D01*
X187139Y163231D01*
X186851Y163338D01*
X186566Y163452D01*
X186284Y163572D01*
X186006Y163700D01*
X185730Y163835D01*
X185458Y163976D01*
X185189Y164124D01*
X184924Y164278D01*
X184663Y164439D01*
X184405Y164607D01*
X184152Y164780D01*
X183904Y164960D01*
X183660Y165146D01*
X183420Y165337D01*
X183185Y165535D01*
X182956Y165738D01*
X182731Y165947D01*
X182511Y166161D01*
X182297Y166381D01*
X182088Y166606D01*
X181885Y166835D01*
X181687Y167070D01*
X181496Y167310D01*
X181310Y167554D01*
X181130Y167802D01*
X180957Y168055D01*
X180789Y168313D01*
X180628Y168574D01*
X180474Y168839D01*
X180326Y169108D01*
X180185Y169380D01*
X180050Y169656D01*
X179922Y169934D01*
X179802Y170216D01*
X179688Y170501D01*
X179581Y170789D01*
X179481Y171079D01*
X179388Y171371D01*
X179303Y171666D01*
X179225Y171963D01*
X179154Y172261D01*
X179090Y172561D01*
X179034Y172863D01*
X178985Y173166D01*
X178944Y173470D01*
X178910Y173775D01*
X178884Y174080D01*
X178865Y174387D01*
X178854Y174693D01*
X178850Y175000D01*
X1218850Y175000D02*
X1218854Y175307D01*
X1218865Y175613D01*
X1218884Y175920D01*
X1218910Y176225D01*
X1218944Y176530D01*
X1218985Y176834D01*
X1219034Y177137D01*
X1219090Y177439D01*
X1219154Y177739D01*
X1219225Y178037D01*
X1219303Y178334D01*
X1219388Y178629D01*
X1219481Y178921D01*
X1219581Y179211D01*
X1219688Y179499D01*
X1219802Y179784D01*
X1219922Y180066D01*
X1220050Y180344D01*
X1220185Y180620D01*
X1220326Y180892D01*
X1220474Y181161D01*
X1220628Y181426D01*
X1220789Y181687D01*
X1220957Y181945D01*
X1221130Y182198D01*
X1221310Y182446D01*
X1221496Y182690D01*
X1221687Y182930D01*
X1221885Y183165D01*
X1222088Y183394D01*
X1222297Y183619D01*
X1222511Y183839D01*
X1222731Y184053D01*
X1222956Y184262D01*
X1223185Y184465D01*
X1223420Y184663D01*
X1223660Y184854D01*
X1223904Y185040D01*
X1224152Y185220D01*
X1224405Y185393D01*
X1224663Y185561D01*
X1224924Y185722D01*
X1225189Y185876D01*
X1225458Y186024D01*
X1225730Y186165D01*
X1226006Y186300D01*
X1226284Y186428D01*
X1226566Y186548D01*
X1226851Y186662D01*
X1227139Y186769D01*
X1227429Y186869D01*
X1227721Y186962D01*
X1228016Y187047D01*
X1228313Y187125D01*
X1228611Y187196D01*
X1228911Y187260D01*
X1229213Y187316D01*
X1229516Y187365D01*
X1229820Y187406D01*
X1230125Y187440D01*
X1230430Y187466D01*
X1230737Y187485D01*
X1231043Y187496D01*
X1231350Y187500D01*
X1231657Y187496D01*
X1231963Y187485D01*
X1232270Y187466D01*
X1232575Y187440D01*
X1232880Y187406D01*
X1233184Y187365D01*
X1233487Y187316D01*
X1233789Y187260D01*
X1234089Y187196D01*
X1234387Y187125D01*
X1234684Y187047D01*
X1234979Y186962D01*
X1235271Y186869D01*
X1235561Y186769D01*
X1235849Y186662D01*
X1236134Y186548D01*
X1236416Y186428D01*
X1236694Y186300D01*
X1236970Y186165D01*
X1237242Y186024D01*
X1237511Y185876D01*
X1237776Y185722D01*
X1238037Y185561D01*
X1238295Y185393D01*
X1238548Y185220D01*
X1238796Y185040D01*
X1239040Y184854D01*
X1239280Y184663D01*
X1239515Y184465D01*
X1239744Y184262D01*
X1239969Y184053D01*
X1240189Y183839D01*
X1240403Y183619D01*
X1240612Y183394D01*
X1240815Y183165D01*
X1241013Y182930D01*
X1241204Y182690D01*
X1241390Y182446D01*
X1241570Y182198D01*
X1241743Y181945D01*
X1241911Y181687D01*
X1242072Y181426D01*
X1242226Y181161D01*
X1242374Y180892D01*
X1242515Y180620D01*
X1242650Y180344D01*
X1242778Y180066D01*
X1242898Y179784D01*
X1243012Y179499D01*
X1243119Y179211D01*
X1243219Y178921D01*
X1243312Y178629D01*
X1243397Y178334D01*
X1243475Y178037D01*
X1243546Y177739D01*
X1243610Y177439D01*
X1243666Y177137D01*
X1243715Y176834D01*
X1243756Y176530D01*
X1243790Y176225D01*
X1243816Y175920D01*
X1243835Y175613D01*
X1243846Y175307D01*
X1243850Y175000D01*
X1243846Y174693D01*
X1243835Y174387D01*
X1243816Y174080D01*
X1243790Y173775D01*
X1243756Y173470D01*
X1243715Y173166D01*
X1243666Y172863D01*
X1243610Y172561D01*
X1243546Y172261D01*
X1243475Y171963D01*
X1243397Y171666D01*
X1243312Y171371D01*
X1243219Y171079D01*
X1243119Y170789D01*
X1243012Y170501D01*
X1242898Y170216D01*
X1242778Y169934D01*
X1242650Y169656D01*
X1242515Y169380D01*
X1242374Y169108D01*
X1242226Y168839D01*
X1242072Y168574D01*
X1241911Y168313D01*
X1241743Y168055D01*
X1241570Y167802D01*
X1241390Y167554D01*
X1241204Y167310D01*
X1241013Y167070D01*
X1240815Y166835D01*
X1240612Y166606D01*
X1240403Y166381D01*
X1240189Y166161D01*
X1239969Y165947D01*
X1239744Y165738D01*
X1239515Y165535D01*
X1239280Y165337D01*
X1239040Y165146D01*
X1238796Y164960D01*
X1238548Y164780D01*
X1238295Y164607D01*
X1238037Y164439D01*
X1237776Y164278D01*
X1237511Y164124D01*
X1237242Y163976D01*
X1236970Y163835D01*
X1236694Y163700D01*
X1236416Y163572D01*
X1236134Y163452D01*
X1235849Y163338D01*
X1235561Y163231D01*
X1235271Y163131D01*
X1234979Y163038D01*
X1234684Y162953D01*
X1234387Y162875D01*
X1234089Y162804D01*
X1233789Y162740D01*
X1233487Y162684D01*
X1233184Y162635D01*
X1232880Y162594D01*
X1232575Y162560D01*
X1232270Y162534D01*
X1231963Y162515D01*
X1231657Y162504D01*
X1231350Y162500D01*
X1231043Y162504D01*
X1230737Y162515D01*
X1230430Y162534D01*
X1230125Y162560D01*
X1229820Y162594D01*
X1229516Y162635D01*
X1229213Y162684D01*
X1228911Y162740D01*
X1228611Y162804D01*
X1228313Y162875D01*
X1228016Y162953D01*
X1227721Y163038D01*
X1227429Y163131D01*
X1227139Y163231D01*
X1226851Y163338D01*
X1226566Y163452D01*
X1226284Y163572D01*
X1226006Y163700D01*
X1225730Y163835D01*
X1225458Y163976D01*
X1225189Y164124D01*
X1224924Y164278D01*
X1224663Y164439D01*
X1224405Y164607D01*
X1224152Y164780D01*
X1223904Y164960D01*
X1223660Y165146D01*
X1223420Y165337D01*
X1223185Y165535D01*
X1222956Y165738D01*
X1222731Y165947D01*
X1222511Y166161D01*
X1222297Y166381D01*
X1222088Y166606D01*
X1221885Y166835D01*
X1221687Y167070D01*
X1221496Y167310D01*
X1221310Y167554D01*
X1221130Y167802D01*
X1220957Y168055D01*
X1220789Y168313D01*
X1220628Y168574D01*
X1220474Y168839D01*
X1220326Y169108D01*
X1220185Y169380D01*
X1220050Y169656D01*
X1219922Y169934D01*
X1219802Y170216D01*
X1219688Y170501D01*
X1219581Y170789D01*
X1219481Y171079D01*
X1219388Y171371D01*
X1219303Y171666D01*
X1219225Y171963D01*
X1219154Y172261D01*
X1219090Y172561D01*
X1219034Y172863D01*
X1218985Y173166D01*
X1218944Y173470D01*
X1218910Y173775D01*
X1218884Y174080D01*
X1218865Y174387D01*
X1218854Y174693D01*
X1218850Y175000D01*
X178850Y715000D02*
X178854Y715307D01*
X178865Y715613D01*
X178884Y715920D01*
X178910Y716225D01*
X178944Y716530D01*
X178985Y716834D01*
X179034Y717137D01*
X179090Y717439D01*
X179154Y717739D01*
X179225Y718037D01*
X179303Y718334D01*
X179388Y718629D01*
X179481Y718921D01*
X179581Y719211D01*
X179688Y719499D01*
X179802Y719784D01*
X179922Y720066D01*
X180050Y720344D01*
X180185Y720620D01*
X180326Y720892D01*
X180474Y721161D01*
X180628Y721426D01*
X180789Y721687D01*
X180957Y721945D01*
X181130Y722198D01*
X181310Y722446D01*
X181496Y722690D01*
X181687Y722930D01*
X181885Y723165D01*
X182088Y723394D01*
X182297Y723619D01*
X182511Y723839D01*
X182731Y724053D01*
X182956Y724262D01*
X183185Y724465D01*
X183420Y724663D01*
X183660Y724854D01*
X183904Y725040D01*
X184152Y725220D01*
X184405Y725393D01*
X184663Y725561D01*
X184924Y725722D01*
X185189Y725876D01*
X185458Y726024D01*
X185730Y726165D01*
X186006Y726300D01*
X186284Y726428D01*
X186566Y726548D01*
X186851Y726662D01*
X187139Y726769D01*
X187429Y726869D01*
X187721Y726962D01*
X188016Y727047D01*
X188313Y727125D01*
X188611Y727196D01*
X188911Y727260D01*
X189213Y727316D01*
X189516Y727365D01*
X189820Y727406D01*
X190125Y727440D01*
X190430Y727466D01*
X190737Y727485D01*
X191043Y727496D01*
X191350Y727500D01*
X191657Y727496D01*
X191963Y727485D01*
X192270Y727466D01*
X192575Y727440D01*
X192880Y727406D01*
X193184Y727365D01*
X193487Y727316D01*
X193789Y727260D01*
X194089Y727196D01*
X194387Y727125D01*
X194684Y727047D01*
X194979Y726962D01*
X195271Y726869D01*
X195561Y726769D01*
X195849Y726662D01*
X196134Y726548D01*
X196416Y726428D01*
X196694Y726300D01*
X196970Y726165D01*
X197242Y726024D01*
X197511Y725876D01*
X197776Y725722D01*
X198037Y725561D01*
X198295Y725393D01*
X198548Y725220D01*
X198796Y725040D01*
X199040Y724854D01*
X199280Y724663D01*
X199515Y724465D01*
X199744Y724262D01*
X199969Y724053D01*
X200189Y723839D01*
X200403Y723619D01*
X200612Y723394D01*
X200815Y723165D01*
X201013Y722930D01*
X201204Y722690D01*
X201390Y722446D01*
X201570Y722198D01*
X201743Y721945D01*
X201911Y721687D01*
X202072Y721426D01*
X202226Y721161D01*
X202374Y720892D01*
X202515Y720620D01*
X202650Y720344D01*
X202778Y720066D01*
X202898Y719784D01*
X203012Y719499D01*
X203119Y719211D01*
X203219Y718921D01*
X203312Y718629D01*
X203397Y718334D01*
X203475Y718037D01*
X203546Y717739D01*
X203610Y717439D01*
X203666Y717137D01*
X203715Y716834D01*
X203756Y716530D01*
X203790Y716225D01*
X203816Y715920D01*
X203835Y715613D01*
X203846Y715307D01*
X203850Y715000D01*
X203846Y714693D01*
X203835Y714387D01*
X203816Y714080D01*
X203790Y713775D01*
X203756Y713470D01*
X203715Y713166D01*
X203666Y712863D01*
X203610Y712561D01*
X203546Y712261D01*
X203475Y711963D01*
X203397Y711666D01*
X203312Y711371D01*
X203219Y711079D01*
X203119Y710789D01*
X203012Y710501D01*
X202898Y710216D01*
X202778Y709934D01*
X202650Y709656D01*
X202515Y709380D01*
X202374Y709108D01*
X202226Y708839D01*
X202072Y708574D01*
X201911Y708313D01*
X201743Y708055D01*
X201570Y707802D01*
X201390Y707554D01*
X201204Y707310D01*
X201013Y707070D01*
X200815Y706835D01*
X200612Y706606D01*
X200403Y706381D01*
X200189Y706161D01*
X199969Y705947D01*
X199744Y705738D01*
X199515Y705535D01*
X199280Y705337D01*
X199040Y705146D01*
X198796Y704960D01*
X198548Y704780D01*
X198295Y704607D01*
X198037Y704439D01*
X197776Y704278D01*
X197511Y704124D01*
X197242Y703976D01*
X196970Y703835D01*
X196694Y703700D01*
X196416Y703572D01*
X196134Y703452D01*
X195849Y703338D01*
X195561Y703231D01*
X195271Y703131D01*
X194979Y703038D01*
X194684Y702953D01*
X194387Y702875D01*
X194089Y702804D01*
X193789Y702740D01*
X193487Y702684D01*
X193184Y702635D01*
X192880Y702594D01*
X192575Y702560D01*
X192270Y702534D01*
X191963Y702515D01*
X191657Y702504D01*
X191350Y702500D01*
X191043Y702504D01*
X190737Y702515D01*
X190430Y702534D01*
X190125Y702560D01*
X189820Y702594D01*
X189516Y702635D01*
X189213Y702684D01*
X188911Y702740D01*
X188611Y702804D01*
X188313Y702875D01*
X188016Y702953D01*
X187721Y703038D01*
X187429Y703131D01*
X187139Y703231D01*
X186851Y703338D01*
X186566Y703452D01*
X186284Y703572D01*
X186006Y703700D01*
X185730Y703835D01*
X185458Y703976D01*
X185189Y704124D01*
X184924Y704278D01*
X184663Y704439D01*
X184405Y704607D01*
X184152Y704780D01*
X183904Y704960D01*
X183660Y705146D01*
X183420Y705337D01*
X183185Y705535D01*
X182956Y705738D01*
X182731Y705947D01*
X182511Y706161D01*
X182297Y706381D01*
X182088Y706606D01*
X181885Y706835D01*
X181687Y707070D01*
X181496Y707310D01*
X181310Y707554D01*
X181130Y707802D01*
X180957Y708055D01*
X180789Y708313D01*
X180628Y708574D01*
X180474Y708839D01*
X180326Y709108D01*
X180185Y709380D01*
X180050Y709656D01*
X179922Y709934D01*
X179802Y710216D01*
X179688Y710501D01*
X179581Y710789D01*
X179481Y711079D01*
X179388Y711371D01*
X179303Y711666D01*
X179225Y711963D01*
X179154Y712261D01*
X179090Y712561D01*
X179034Y712863D01*
X178985Y713166D01*
X178944Y713470D01*
X178910Y713775D01*
X178884Y714080D01*
X178865Y714387D01*
X178854Y714693D01*
X178850Y715000D01*
X1218850Y715000D02*
X1218854Y715307D01*
X1218865Y715613D01*
X1218884Y715920D01*
X1218910Y716225D01*
X1218944Y716530D01*
X1218985Y716834D01*
X1219034Y717137D01*
X1219090Y717439D01*
X1219154Y717739D01*
X1219225Y718037D01*
X1219303Y718334D01*
X1219388Y718629D01*
X1219481Y718921D01*
X1219581Y719211D01*
X1219688Y719499D01*
X1219802Y719784D01*
X1219922Y720066D01*
X1220050Y720344D01*
X1220185Y720620D01*
X1220326Y720892D01*
X1220474Y721161D01*
X1220628Y721426D01*
X1220789Y721687D01*
X1220957Y721945D01*
X1221130Y722198D01*
X1221310Y722446D01*
X1221496Y722690D01*
X1221687Y722930D01*
X1221885Y723165D01*
X1222088Y723394D01*
X1222297Y723619D01*
X1222511Y723839D01*
X1222731Y724053D01*
X1222956Y724262D01*
X1223185Y724465D01*
X1223420Y724663D01*
X1223660Y724854D01*
X1223904Y725040D01*
X1224152Y725220D01*
X1224405Y725393D01*
X1224663Y725561D01*
X1224924Y725722D01*
X1225189Y725876D01*
X1225458Y726024D01*
X1225730Y726165D01*
X1226006Y726300D01*
X1226284Y726428D01*
X1226566Y726548D01*
X1226851Y726662D01*
X1227139Y726769D01*
X1227429Y726869D01*
X1227721Y726962D01*
X1228016Y727047D01*
X1228313Y727125D01*
X1228611Y727196D01*
X1228911Y727260D01*
X1229213Y727316D01*
X1229516Y727365D01*
X1229820Y727406D01*
X1230125Y727440D01*
X1230430Y727466D01*
X1230737Y727485D01*
X1231043Y727496D01*
X1231350Y727500D01*
X1231657Y727496D01*
X1231963Y727485D01*
X1232270Y727466D01*
X1232575Y727440D01*
X1232880Y727406D01*
X1233184Y727365D01*
X1233487Y727316D01*
X1233789Y727260D01*
X1234089Y727196D01*
X1234387Y727125D01*
X1234684Y727047D01*
X1234979Y726962D01*
X1235271Y726869D01*
X1235561Y726769D01*
X1235849Y726662D01*
X1236134Y726548D01*
X1236416Y726428D01*
X1236694Y726300D01*
X1236970Y726165D01*
X1237242Y726024D01*
X1237511Y725876D01*
X1237776Y725722D01*
X1238037Y725561D01*
X1238295Y725393D01*
X1238548Y725220D01*
X1238796Y725040D01*
X1239040Y724854D01*
X1239280Y724663D01*
X1239515Y724465D01*
X1239744Y724262D01*
X1239969Y724053D01*
X1240189Y723839D01*
X1240403Y723619D01*
X1240612Y723394D01*
X1240815Y723165D01*
X1241013Y722930D01*
X1241204Y722690D01*
X1241390Y722446D01*
X1241570Y722198D01*
X1241743Y721945D01*
X1241911Y721687D01*
X1242072Y721426D01*
X1242226Y721161D01*
X1242374Y720892D01*
X1242515Y720620D01*
X1242650Y720344D01*
X1242778Y720066D01*
X1242898Y719784D01*
X1243012Y719499D01*
X1243119Y719211D01*
X1243219Y718921D01*
X1243312Y718629D01*
X1243397Y718334D01*
X1243475Y718037D01*
X1243546Y717739D01*
X1243610Y717439D01*
X1243666Y717137D01*
X1243715Y716834D01*
X1243756Y716530D01*
X1243790Y716225D01*
X1243816Y715920D01*
X1243835Y715613D01*
X1243846Y715307D01*
X1243850Y715000D01*
X1243846Y714693D01*
X1243835Y714387D01*
X1243816Y714080D01*
X1243790Y713775D01*
X1243756Y713470D01*
X1243715Y713166D01*
X1243666Y712863D01*
X1243610Y712561D01*
X1243546Y712261D01*
X1243475Y711963D01*
X1243397Y711666D01*
X1243312Y711371D01*
X1243219Y711079D01*
X1243119Y710789D01*
X1243012Y710501D01*
X1242898Y710216D01*
X1242778Y709934D01*
X1242650Y709656D01*
X1242515Y709380D01*
X1242374Y709108D01*
X1242226Y708839D01*
X1242072Y708574D01*
X1241911Y708313D01*
X1241743Y708055D01*
X1241570Y707802D01*
X1241390Y707554D01*
X1241204Y707310D01*
X1241013Y707070D01*
X1240815Y706835D01*
X1240612Y706606D01*
X1240403Y706381D01*
X1240189Y706161D01*
X1239969Y705947D01*
X1239744Y705738D01*
X1239515Y705535D01*
X1239280Y705337D01*
X1239040Y705146D01*
X1238796Y704960D01*
X1238548Y704780D01*
X1238295Y704607D01*
X1238037Y704439D01*
X1237776Y704278D01*
X1237511Y704124D01*
X1237242Y703976D01*
X1236970Y703835D01*
X1236694Y703700D01*
X1236416Y703572D01*
X1236134Y703452D01*
X1235849Y703338D01*
X1235561Y703231D01*
X1235271Y703131D01*
X1234979Y703038D01*
X1234684Y702953D01*
X1234387Y702875D01*
X1234089Y702804D01*
X1233789Y702740D01*
X1233487Y702684D01*
X1233184Y702635D01*
X1232880Y702594D01*
X1232575Y702560D01*
X1232270Y702534D01*
X1231963Y702515D01*
X1231657Y702504D01*
X1231350Y702500D01*
X1231043Y702504D01*
X1230737Y702515D01*
X1230430Y702534D01*
X1230125Y702560D01*
X1229820Y702594D01*
X1229516Y702635D01*
X1229213Y702684D01*
X1228911Y702740D01*
X1228611Y702804D01*
X1228313Y702875D01*
X1228016Y702953D01*
X1227721Y703038D01*
X1227429Y703131D01*
X1227139Y703231D01*
X1226851Y703338D01*
X1226566Y703452D01*
X1226284Y703572D01*
X1226006Y703700D01*
X1225730Y703835D01*
X1225458Y703976D01*
X1225189Y704124D01*
X1224924Y704278D01*
X1224663Y704439D01*
X1224405Y704607D01*
X1224152Y704780D01*
X1223904Y704960D01*
X1223660Y705146D01*
X1223420Y705337D01*
X1223185Y705535D01*
X1222956Y705738D01*
X1222731Y705947D01*
X1222511Y706161D01*
X1222297Y706381D01*
X1222088Y706606D01*
X1221885Y706835D01*
X1221687Y707070D01*
X1221496Y707310D01*
X1221310Y707554D01*
X1221130Y707802D01*
X1220957Y708055D01*
X1220789Y708313D01*
X1220628Y708574D01*
X1220474Y708839D01*
X1220326Y709108D01*
X1220185Y709380D01*
X1220050Y709656D01*
X1219922Y709934D01*
X1219802Y710216D01*
X1219688Y710501D01*
X1219581Y710789D01*
X1219481Y711079D01*
X1219388Y711371D01*
X1219303Y711666D01*
X1219225Y711963D01*
X1219154Y712261D01*
X1219090Y712561D01*
X1219034Y712863D01*
X1218985Y713166D01*
X1218944Y713470D01*
X1218910Y713775D01*
X1218884Y714080D01*
X1218865Y714387D01*
X1218854Y714693D01*
X1218850Y715000D01*
X830875Y851445D02*
X830879Y851782D01*
X830892Y852120D01*
X830912Y852457D01*
X830941Y852793D01*
X830978Y853128D01*
X831024Y853463D01*
X831077Y853796D01*
X831139Y854127D01*
X831209Y854458D01*
X831287Y854786D01*
X831373Y855112D01*
X831467Y855436D01*
X831569Y855758D01*
X831679Y856077D01*
X831796Y856394D01*
X831922Y856707D01*
X832055Y857017D01*
X832195Y857324D01*
X832343Y857627D01*
X832499Y857927D01*
X832661Y858222D01*
X832831Y858514D01*
X833008Y858801D01*
X833192Y859084D01*
X833383Y859362D01*
X833581Y859636D01*
X833785Y859904D01*
X833996Y860168D01*
X834213Y860426D01*
X834437Y860679D01*
X834667Y860926D01*
X834902Y861168D01*
X835144Y861403D01*
X835391Y861633D01*
X835644Y861857D01*
X835902Y862074D01*
X836166Y862285D01*
X836434Y862489D01*
X836708Y862687D01*
X836986Y862878D01*
X837269Y863062D01*
X837556Y863239D01*
X837848Y863409D01*
X838143Y863571D01*
X838443Y863727D01*
X838746Y863875D01*
X839053Y864015D01*
X839363Y864148D01*
X839676Y864274D01*
X839993Y864391D01*
X840312Y864501D01*
X840634Y864603D01*
X840958Y864697D01*
X841284Y864783D01*
X841612Y864861D01*
X841943Y864931D01*
X842274Y864993D01*
X842607Y865046D01*
X842942Y865092D01*
X843277Y865129D01*
X843613Y865158D01*
X843950Y865178D01*
X844288Y865191D01*
X844625Y865195D01*
X844962Y865191D01*
X845300Y865178D01*
X845637Y865158D01*
X845973Y865129D01*
X846308Y865092D01*
X846643Y865046D01*
X846976Y864993D01*
X847307Y864931D01*
X847638Y864861D01*
X847966Y864783D01*
X848292Y864697D01*
X848616Y864603D01*
X848938Y864501D01*
X849257Y864391D01*
X849574Y864274D01*
X849887Y864148D01*
X850197Y864015D01*
X850504Y863875D01*
X850807Y863727D01*
X851107Y863571D01*
X851402Y863409D01*
X851694Y863239D01*
X851981Y863062D01*
X852264Y862878D01*
X852542Y862687D01*
X852816Y862489D01*
X853084Y862285D01*
X853348Y862074D01*
X853606Y861857D01*
X853859Y861633D01*
X854106Y861403D01*
X854348Y861168D01*
X854583Y860926D01*
X854813Y860679D01*
X855037Y860426D01*
X855254Y860168D01*
X855465Y859904D01*
X855669Y859636D01*
X855867Y859362D01*
X856058Y859084D01*
X856242Y858801D01*
X856419Y858514D01*
X856589Y858222D01*
X856751Y857927D01*
X856907Y857627D01*
X857055Y857324D01*
X857195Y857017D01*
X857328Y856707D01*
X857454Y856394D01*
X857571Y856077D01*
X857681Y855758D01*
X857783Y855436D01*
X857877Y855112D01*
X857963Y854786D01*
X858041Y854458D01*
X858111Y854127D01*
X858173Y853796D01*
X858226Y853463D01*
X858272Y853128D01*
X858309Y852793D01*
X858338Y852457D01*
X858358Y852120D01*
X858371Y851782D01*
X858375Y851445D01*
X858371Y851108D01*
X858358Y850770D01*
X858338Y850433D01*
X858309Y850097D01*
X858272Y849762D01*
X858226Y849427D01*
X858173Y849094D01*
X858111Y848763D01*
X858041Y848432D01*
X857963Y848104D01*
X857877Y847778D01*
X857783Y847454D01*
X857681Y847132D01*
X857571Y846813D01*
X857454Y846496D01*
X857328Y846183D01*
X857195Y845873D01*
X857055Y845566D01*
X856907Y845263D01*
X856751Y844963D01*
X856589Y844668D01*
X856419Y844376D01*
X856242Y844089D01*
X856058Y843806D01*
X855867Y843528D01*
X855669Y843254D01*
X855465Y842986D01*
X855254Y842722D01*
X855037Y842464D01*
X854813Y842211D01*
X854583Y841964D01*
X854348Y841722D01*
X854106Y841487D01*
X853859Y841257D01*
X853606Y841033D01*
X853348Y840816D01*
X853084Y840605D01*
X852816Y840401D01*
X852542Y840203D01*
X852264Y840012D01*
X851981Y839828D01*
X851694Y839651D01*
X851402Y839481D01*
X851107Y839319D01*
X850807Y839163D01*
X850504Y839015D01*
X850197Y838875D01*
X849887Y838742D01*
X849574Y838616D01*
X849257Y838499D01*
X848938Y838389D01*
X848616Y838287D01*
X848292Y838193D01*
X847966Y838107D01*
X847638Y838029D01*
X847307Y837959D01*
X846976Y837897D01*
X846643Y837844D01*
X846308Y837798D01*
X845973Y837761D01*
X845637Y837732D01*
X845300Y837712D01*
X844962Y837699D01*
X844625Y837695D01*
X844288Y837699D01*
X843950Y837712D01*
X843613Y837732D01*
X843277Y837761D01*
X842942Y837798D01*
X842607Y837844D01*
X842274Y837897D01*
X841943Y837959D01*
X841612Y838029D01*
X841284Y838107D01*
X840958Y838193D01*
X840634Y838287D01*
X840312Y838389D01*
X839993Y838499D01*
X839676Y838616D01*
X839363Y838742D01*
X839053Y838875D01*
X838746Y839015D01*
X838443Y839163D01*
X838143Y839319D01*
X837848Y839481D01*
X837556Y839651D01*
X837269Y839828D01*
X836986Y840012D01*
X836708Y840203D01*
X836434Y840401D01*
X836166Y840605D01*
X835902Y840816D01*
X835644Y841033D01*
X835391Y841257D01*
X835144Y841487D01*
X834902Y841722D01*
X834667Y841964D01*
X834437Y842211D01*
X834213Y842464D01*
X833996Y842722D01*
X833785Y842986D01*
X833581Y843254D01*
X833383Y843528D01*
X833192Y843806D01*
X833008Y844089D01*
X832831Y844376D01*
X832661Y844668D01*
X832499Y844963D01*
X832343Y845263D01*
X832195Y845566D01*
X832055Y845873D01*
X831922Y846183D01*
X831796Y846496D01*
X831679Y846813D01*
X831569Y847132D01*
X831467Y847454D01*
X831373Y847778D01*
X831287Y848104D01*
X831209Y848432D01*
X831139Y848763D01*
X831077Y849094D01*
X831024Y849427D01*
X830978Y849762D01*
X830941Y850097D01*
X830912Y850433D01*
X830892Y850770D01*
X830879Y851108D01*
X830875Y851445D01*
X830875Y271445D02*
X830879Y271782D01*
X830892Y272120D01*
X830912Y272457D01*
X830941Y272793D01*
X830978Y273128D01*
X831024Y273463D01*
X831077Y273796D01*
X831139Y274127D01*
X831209Y274458D01*
X831287Y274786D01*
X831373Y275112D01*
X831467Y275436D01*
X831569Y275758D01*
X831679Y276077D01*
X831796Y276394D01*
X831922Y276707D01*
X832055Y277017D01*
X832195Y277324D01*
X832343Y277627D01*
X832499Y277927D01*
X832661Y278222D01*
X832831Y278514D01*
X833008Y278801D01*
X833192Y279084D01*
X833383Y279362D01*
X833581Y279636D01*
X833785Y279904D01*
X833996Y280168D01*
X834213Y280426D01*
X834437Y280679D01*
X834667Y280926D01*
X834902Y281168D01*
X835144Y281403D01*
X835391Y281633D01*
X835644Y281857D01*
X835902Y282074D01*
X836166Y282285D01*
X836434Y282489D01*
X836708Y282687D01*
X836986Y282878D01*
X837269Y283062D01*
X837556Y283239D01*
X837848Y283409D01*
X838143Y283571D01*
X838443Y283727D01*
X838746Y283875D01*
X839053Y284015D01*
X839363Y284148D01*
X839676Y284274D01*
X839993Y284391D01*
X840312Y284501D01*
X840634Y284603D01*
X840958Y284697D01*
X841284Y284783D01*
X841612Y284861D01*
X841943Y284931D01*
X842274Y284993D01*
X842607Y285046D01*
X842942Y285092D01*
X843277Y285129D01*
X843613Y285158D01*
X843950Y285178D01*
X844288Y285191D01*
X844625Y285195D01*
X844962Y285191D01*
X845300Y285178D01*
X845637Y285158D01*
X845973Y285129D01*
X846308Y285092D01*
X846643Y285046D01*
X846976Y284993D01*
X847307Y284931D01*
X847638Y284861D01*
X847966Y284783D01*
X848292Y284697D01*
X848616Y284603D01*
X848938Y284501D01*
X849257Y284391D01*
X849574Y284274D01*
X849887Y284148D01*
X850197Y284015D01*
X850504Y283875D01*
X850807Y283727D01*
X851107Y283571D01*
X851402Y283409D01*
X851694Y283239D01*
X851981Y283062D01*
X852264Y282878D01*
X852542Y282687D01*
X852816Y282489D01*
X853084Y282285D01*
X853348Y282074D01*
X853606Y281857D01*
X853859Y281633D01*
X854106Y281403D01*
X854348Y281168D01*
X854583Y280926D01*
X854813Y280679D01*
X855037Y280426D01*
X855254Y280168D01*
X855465Y279904D01*
X855669Y279636D01*
X855867Y279362D01*
X856058Y279084D01*
X856242Y278801D01*
X856419Y278514D01*
X856589Y278222D01*
X856751Y277927D01*
X856907Y277627D01*
X857055Y277324D01*
X857195Y277017D01*
X857328Y276707D01*
X857454Y276394D01*
X857571Y276077D01*
X857681Y275758D01*
X857783Y275436D01*
X857877Y275112D01*
X857963Y274786D01*
X858041Y274458D01*
X858111Y274127D01*
X858173Y273796D01*
X858226Y273463D01*
X858272Y273128D01*
X858309Y272793D01*
X858338Y272457D01*
X858358Y272120D01*
X858371Y271782D01*
X858375Y271445D01*
X858371Y271108D01*
X858358Y270770D01*
X858338Y270433D01*
X858309Y270097D01*
X858272Y269762D01*
X858226Y269427D01*
X858173Y269094D01*
X858111Y268763D01*
X858041Y268432D01*
X857963Y268104D01*
X857877Y267778D01*
X857783Y267454D01*
X857681Y267132D01*
X857571Y266813D01*
X857454Y266496D01*
X857328Y266183D01*
X857195Y265873D01*
X857055Y265566D01*
X856907Y265263D01*
X856751Y264963D01*
X856589Y264668D01*
X856419Y264376D01*
X856242Y264089D01*
X856058Y263806D01*
X855867Y263528D01*
X855669Y263254D01*
X855465Y262986D01*
X855254Y262722D01*
X855037Y262464D01*
X854813Y262211D01*
X854583Y261964D01*
X854348Y261722D01*
X854106Y261487D01*
X853859Y261257D01*
X853606Y261033D01*
X853348Y260816D01*
X853084Y260605D01*
X852816Y260401D01*
X852542Y260203D01*
X852264Y260012D01*
X851981Y259828D01*
X851694Y259651D01*
X851402Y259481D01*
X851107Y259319D01*
X850807Y259163D01*
X850504Y259015D01*
X850197Y258875D01*
X849887Y258742D01*
X849574Y258616D01*
X849257Y258499D01*
X848938Y258389D01*
X848616Y258287D01*
X848292Y258193D01*
X847966Y258107D01*
X847638Y258029D01*
X847307Y257959D01*
X846976Y257897D01*
X846643Y257844D01*
X846308Y257798D01*
X845973Y257761D01*
X845637Y257732D01*
X845300Y257712D01*
X844962Y257699D01*
X844625Y257695D01*
X844288Y257699D01*
X843950Y257712D01*
X843613Y257732D01*
X843277Y257761D01*
X842942Y257798D01*
X842607Y257844D01*
X842274Y257897D01*
X841943Y257959D01*
X841612Y258029D01*
X841284Y258107D01*
X840958Y258193D01*
X840634Y258287D01*
X840312Y258389D01*
X839993Y258499D01*
X839676Y258616D01*
X839363Y258742D01*
X839053Y258875D01*
X838746Y259015D01*
X838443Y259163D01*
X838143Y259319D01*
X837848Y259481D01*
X837556Y259651D01*
X837269Y259828D01*
X836986Y260012D01*
X836708Y260203D01*
X836434Y260401D01*
X836166Y260605D01*
X835902Y260816D01*
X835644Y261033D01*
X835391Y261257D01*
X835144Y261487D01*
X834902Y261722D01*
X834667Y261964D01*
X834437Y262211D01*
X834213Y262464D01*
X833996Y262722D01*
X833785Y262986D01*
X833581Y263254D01*
X833383Y263528D01*
X833192Y263806D01*
X833008Y264089D01*
X832831Y264376D01*
X832661Y264668D01*
X832499Y264963D01*
X832343Y265263D01*
X832195Y265566D01*
X832055Y265873D01*
X831922Y266183D01*
X831796Y266496D01*
X831679Y266813D01*
X831569Y267132D01*
X831467Y267454D01*
X831373Y267778D01*
X831287Y268104D01*
X831209Y268432D01*
X831139Y268763D01*
X831077Y269094D01*
X831024Y269427D01*
X830978Y269762D01*
X830941Y270097D01*
X830912Y270433D01*
X830892Y270770D01*
X830879Y271108D01*
X830875Y271445D01*
X1060875Y851445D02*
X1060879Y851782D01*
X1060892Y852120D01*
X1060912Y852457D01*
X1060941Y852793D01*
X1060978Y853128D01*
X1061024Y853463D01*
X1061077Y853796D01*
X1061139Y854127D01*
X1061209Y854458D01*
X1061287Y854786D01*
X1061373Y855112D01*
X1061467Y855436D01*
X1061569Y855758D01*
X1061679Y856077D01*
X1061796Y856394D01*
X1061922Y856707D01*
X1062055Y857017D01*
X1062195Y857324D01*
X1062343Y857627D01*
X1062499Y857927D01*
X1062661Y858222D01*
X1062831Y858514D01*
X1063008Y858801D01*
X1063192Y859084D01*
X1063383Y859362D01*
X1063581Y859636D01*
X1063785Y859904D01*
X1063996Y860168D01*
X1064213Y860426D01*
X1064437Y860679D01*
X1064667Y860926D01*
X1064902Y861168D01*
X1065144Y861403D01*
X1065391Y861633D01*
X1065644Y861857D01*
X1065902Y862074D01*
X1066166Y862285D01*
X1066434Y862489D01*
X1066708Y862687D01*
X1066986Y862878D01*
X1067269Y863062D01*
X1067556Y863239D01*
X1067848Y863409D01*
X1068143Y863571D01*
X1068443Y863727D01*
X1068746Y863875D01*
X1069053Y864015D01*
X1069363Y864148D01*
X1069676Y864274D01*
X1069993Y864391D01*
X1070312Y864501D01*
X1070634Y864603D01*
X1070958Y864697D01*
X1071284Y864783D01*
X1071612Y864861D01*
X1071943Y864931D01*
X1072274Y864993D01*
X1072607Y865046D01*
X1072942Y865092D01*
X1073277Y865129D01*
X1073613Y865158D01*
X1073950Y865178D01*
X1074288Y865191D01*
X1074625Y865195D01*
X1074962Y865191D01*
X1075300Y865178D01*
X1075637Y865158D01*
X1075973Y865129D01*
X1076308Y865092D01*
X1076643Y865046D01*
X1076976Y864993D01*
X1077307Y864931D01*
X1077638Y864861D01*
X1077966Y864783D01*
X1078292Y864697D01*
X1078616Y864603D01*
X1078938Y864501D01*
X1079257Y864391D01*
X1079574Y864274D01*
X1079887Y864148D01*
X1080197Y864015D01*
X1080504Y863875D01*
X1080807Y863727D01*
X1081107Y863571D01*
X1081402Y863409D01*
X1081694Y863239D01*
X1081981Y863062D01*
X1082264Y862878D01*
X1082542Y862687D01*
X1082816Y862489D01*
X1083084Y862285D01*
X1083348Y862074D01*
X1083606Y861857D01*
X1083859Y861633D01*
X1084106Y861403D01*
X1084348Y861168D01*
X1084583Y860926D01*
X1084813Y860679D01*
X1085037Y860426D01*
X1085254Y860168D01*
X1085465Y859904D01*
X1085669Y859636D01*
X1085867Y859362D01*
X1086058Y859084D01*
X1086242Y858801D01*
X1086419Y858514D01*
X1086589Y858222D01*
X1086751Y857927D01*
X1086907Y857627D01*
X1087055Y857324D01*
X1087195Y857017D01*
X1087328Y856707D01*
X1087454Y856394D01*
X1087571Y856077D01*
X1087681Y855758D01*
X1087783Y855436D01*
X1087877Y855112D01*
X1087963Y854786D01*
X1088041Y854458D01*
X1088111Y854127D01*
X1088173Y853796D01*
X1088226Y853463D01*
X1088272Y853128D01*
X1088309Y852793D01*
X1088338Y852457D01*
X1088358Y852120D01*
X1088371Y851782D01*
X1088375Y851445D01*
X1088371Y851108D01*
X1088358Y850770D01*
X1088338Y850433D01*
X1088309Y850097D01*
X1088272Y849762D01*
X1088226Y849427D01*
X1088173Y849094D01*
X1088111Y848763D01*
X1088041Y848432D01*
X1087963Y848104D01*
X1087877Y847778D01*
X1087783Y847454D01*
X1087681Y847132D01*
X1087571Y846813D01*
X1087454Y846496D01*
X1087328Y846183D01*
X1087195Y845873D01*
X1087055Y845566D01*
X1086907Y845263D01*
X1086751Y844963D01*
X1086589Y844668D01*
X1086419Y844376D01*
X1086242Y844089D01*
X1086058Y843806D01*
X1085867Y843528D01*
X1085669Y843254D01*
X1085465Y842986D01*
X1085254Y842722D01*
X1085037Y842464D01*
X1084813Y842211D01*
X1084583Y841964D01*
X1084348Y841722D01*
X1084106Y841487D01*
X1083859Y841257D01*
X1083606Y841033D01*
X1083348Y840816D01*
X1083084Y840605D01*
X1082816Y840401D01*
X1082542Y840203D01*
X1082264Y840012D01*
X1081981Y839828D01*
X1081694Y839651D01*
X1081402Y839481D01*
X1081107Y839319D01*
X1080807Y839163D01*
X1080504Y839015D01*
X1080197Y838875D01*
X1079887Y838742D01*
X1079574Y838616D01*
X1079257Y838499D01*
X1078938Y838389D01*
X1078616Y838287D01*
X1078292Y838193D01*
X1077966Y838107D01*
X1077638Y838029D01*
X1077307Y837959D01*
X1076976Y837897D01*
X1076643Y837844D01*
X1076308Y837798D01*
X1075973Y837761D01*
X1075637Y837732D01*
X1075300Y837712D01*
X1074962Y837699D01*
X1074625Y837695D01*
X1074288Y837699D01*
X1073950Y837712D01*
X1073613Y837732D01*
X1073277Y837761D01*
X1072942Y837798D01*
X1072607Y837844D01*
X1072274Y837897D01*
X1071943Y837959D01*
X1071612Y838029D01*
X1071284Y838107D01*
X1070958Y838193D01*
X1070634Y838287D01*
X1070312Y838389D01*
X1069993Y838499D01*
X1069676Y838616D01*
X1069363Y838742D01*
X1069053Y838875D01*
X1068746Y839015D01*
X1068443Y839163D01*
X1068143Y839319D01*
X1067848Y839481D01*
X1067556Y839651D01*
X1067269Y839828D01*
X1066986Y840012D01*
X1066708Y840203D01*
X1066434Y840401D01*
X1066166Y840605D01*
X1065902Y840816D01*
X1065644Y841033D01*
X1065391Y841257D01*
X1065144Y841487D01*
X1064902Y841722D01*
X1064667Y841964D01*
X1064437Y842211D01*
X1064213Y842464D01*
X1063996Y842722D01*
X1063785Y842986D01*
X1063581Y843254D01*
X1063383Y843528D01*
X1063192Y843806D01*
X1063008Y844089D01*
X1062831Y844376D01*
X1062661Y844668D01*
X1062499Y844963D01*
X1062343Y845263D01*
X1062195Y845566D01*
X1062055Y845873D01*
X1061922Y846183D01*
X1061796Y846496D01*
X1061679Y846813D01*
X1061569Y847132D01*
X1061467Y847454D01*
X1061373Y847778D01*
X1061287Y848104D01*
X1061209Y848432D01*
X1061139Y848763D01*
X1061077Y849094D01*
X1061024Y849427D01*
X1060978Y849762D01*
X1060941Y850097D01*
X1060912Y850433D01*
X1060892Y850770D01*
X1060879Y851108D01*
X1060875Y851445D01*
X1060875Y271445D02*
X1060879Y271782D01*
X1060892Y272120D01*
X1060912Y272457D01*
X1060941Y272793D01*
X1060978Y273128D01*
X1061024Y273463D01*
X1061077Y273796D01*
X1061139Y274127D01*
X1061209Y274458D01*
X1061287Y274786D01*
X1061373Y275112D01*
X1061467Y275436D01*
X1061569Y275758D01*
X1061679Y276077D01*
X1061796Y276394D01*
X1061922Y276707D01*
X1062055Y277017D01*
X1062195Y277324D01*
X1062343Y277627D01*
X1062499Y277927D01*
X1062661Y278222D01*
X1062831Y278514D01*
X1063008Y278801D01*
X1063192Y279084D01*
X1063383Y279362D01*
X1063581Y279636D01*
X1063785Y279904D01*
X1063996Y280168D01*
X1064213Y280426D01*
X1064437Y280679D01*
X1064667Y280926D01*
X1064902Y281168D01*
X1065144Y281403D01*
X1065391Y281633D01*
X1065644Y281857D01*
X1065902Y282074D01*
X1066166Y282285D01*
X1066434Y282489D01*
X1066708Y282687D01*
X1066986Y282878D01*
X1067269Y283062D01*
X1067556Y283239D01*
X1067848Y283409D01*
X1068143Y283571D01*
X1068443Y283727D01*
X1068746Y283875D01*
X1069053Y284015D01*
X1069363Y284148D01*
X1069676Y284274D01*
X1069993Y284391D01*
X1070312Y284501D01*
X1070634Y284603D01*
X1070958Y284697D01*
X1071284Y284783D01*
X1071612Y284861D01*
X1071943Y284931D01*
X1072274Y284993D01*
X1072607Y285046D01*
X1072942Y285092D01*
X1073277Y285129D01*
X1073613Y285158D01*
X1073950Y285178D01*
X1074288Y285191D01*
X1074625Y285195D01*
X1074962Y285191D01*
X1075300Y285178D01*
X1075637Y285158D01*
X1075973Y285129D01*
X1076308Y285092D01*
X1076643Y285046D01*
X1076976Y284993D01*
X1077307Y284931D01*
X1077638Y284861D01*
X1077966Y284783D01*
X1078292Y284697D01*
X1078616Y284603D01*
X1078938Y284501D01*
X1079257Y284391D01*
X1079574Y284274D01*
X1079887Y284148D01*
X1080197Y284015D01*
X1080504Y283875D01*
X1080807Y283727D01*
X1081107Y283571D01*
X1081402Y283409D01*
X1081694Y283239D01*
X1081981Y283062D01*
X1082264Y282878D01*
X1082542Y282687D01*
X1082816Y282489D01*
X1083084Y282285D01*
X1083348Y282074D01*
X1083606Y281857D01*
X1083859Y281633D01*
X1084106Y281403D01*
X1084348Y281168D01*
X1084583Y280926D01*
X1084813Y280679D01*
X1085037Y280426D01*
X1085254Y280168D01*
X1085465Y279904D01*
X1085669Y279636D01*
X1085867Y279362D01*
X1086058Y279084D01*
X1086242Y278801D01*
X1086419Y278514D01*
X1086589Y278222D01*
X1086751Y277927D01*
X1086907Y277627D01*
X1087055Y277324D01*
X1087195Y277017D01*
X1087328Y276707D01*
X1087454Y276394D01*
X1087571Y276077D01*
X1087681Y275758D01*
X1087783Y275436D01*
X1087877Y275112D01*
X1087963Y274786D01*
X1088041Y274458D01*
X1088111Y274127D01*
X1088173Y273796D01*
X1088226Y273463D01*
X1088272Y273128D01*
X1088309Y272793D01*
X1088338Y272457D01*
X1088358Y272120D01*
X1088371Y271782D01*
X1088375Y271445D01*
X1088371Y271108D01*
X1088358Y270770D01*
X1088338Y270433D01*
X1088309Y270097D01*
X1088272Y269762D01*
X1088226Y269427D01*
X1088173Y269094D01*
X1088111Y268763D01*
X1088041Y268432D01*
X1087963Y268104D01*
X1087877Y267778D01*
X1087783Y267454D01*
X1087681Y267132D01*
X1087571Y266813D01*
X1087454Y266496D01*
X1087328Y266183D01*
X1087195Y265873D01*
X1087055Y265566D01*
X1086907Y265263D01*
X1086751Y264963D01*
X1086589Y264668D01*
X1086419Y264376D01*
X1086242Y264089D01*
X1086058Y263806D01*
X1085867Y263528D01*
X1085669Y263254D01*
X1085465Y262986D01*
X1085254Y262722D01*
X1085037Y262464D01*
X1084813Y262211D01*
X1084583Y261964D01*
X1084348Y261722D01*
X1084106Y261487D01*
X1083859Y261257D01*
X1083606Y261033D01*
X1083348Y260816D01*
X1083084Y260605D01*
X1082816Y260401D01*
X1082542Y260203D01*
X1082264Y260012D01*
X1081981Y259828D01*
X1081694Y259651D01*
X1081402Y259481D01*
X1081107Y259319D01*
X1080807Y259163D01*
X1080504Y259015D01*
X1080197Y258875D01*
X1079887Y258742D01*
X1079574Y258616D01*
X1079257Y258499D01*
X1078938Y258389D01*
X1078616Y258287D01*
X1078292Y258193D01*
X1077966Y258107D01*
X1077638Y258029D01*
X1077307Y257959D01*
X1076976Y257897D01*
X1076643Y257844D01*
X1076308Y257798D01*
X1075973Y257761D01*
X1075637Y257732D01*
X1075300Y257712D01*
X1074962Y257699D01*
X1074625Y257695D01*
X1074288Y257699D01*
X1073950Y257712D01*
X1073613Y257732D01*
X1073277Y257761D01*
X1072942Y257798D01*
X1072607Y257844D01*
X1072274Y257897D01*
X1071943Y257959D01*
X1071612Y258029D01*
X1071284Y258107D01*
X1070958Y258193D01*
X1070634Y258287D01*
X1070312Y258389D01*
X1069993Y258499D01*
X1069676Y258616D01*
X1069363Y258742D01*
X1069053Y258875D01*
X1068746Y259015D01*
X1068443Y259163D01*
X1068143Y259319D01*
X1067848Y259481D01*
X1067556Y259651D01*
X1067269Y259828D01*
X1066986Y260012D01*
X1066708Y260203D01*
X1066434Y260401D01*
X1066166Y260605D01*
X1065902Y260816D01*
X1065644Y261033D01*
X1065391Y261257D01*
X1065144Y261487D01*
X1064902Y261722D01*
X1064667Y261964D01*
X1064437Y262211D01*
X1064213Y262464D01*
X1063996Y262722D01*
X1063785Y262986D01*
X1063581Y263254D01*
X1063383Y263528D01*
X1063192Y263806D01*
X1063008Y264089D01*
X1062831Y264376D01*
X1062661Y264668D01*
X1062499Y264963D01*
X1062343Y265263D01*
X1062195Y265566D01*
X1062055Y265873D01*
X1061922Y266183D01*
X1061796Y266496D01*
X1061679Y266813D01*
X1061569Y267132D01*
X1061467Y267454D01*
X1061373Y267778D01*
X1061287Y268104D01*
X1061209Y268432D01*
X1061139Y268763D01*
X1061077Y269094D01*
X1061024Y269427D01*
X1060978Y269762D01*
X1060941Y270097D01*
X1060912Y270433D01*
X1060892Y270770D01*
X1060879Y271108D01*
X1060875Y271445D01*
X347600Y22225D02*
X347602Y22421D01*
X347610Y22618D01*
X347622Y22814D01*
X347639Y23009D01*
X347660Y23204D01*
X347687Y23399D01*
X347718Y23593D01*
X347754Y23786D01*
X347794Y23978D01*
X347840Y24169D01*
X347890Y24359D01*
X347944Y24547D01*
X348004Y24734D01*
X348068Y24920D01*
X348136Y25104D01*
X348209Y25286D01*
X348286Y25467D01*
X348368Y25645D01*
X348454Y25822D01*
X348545Y25996D01*
X348639Y26168D01*
X348738Y26338D01*
X348841Y26505D01*
X348948Y26670D01*
X349059Y26831D01*
X349174Y26991D01*
X349293Y27147D01*
X349416Y27300D01*
X349542Y27450D01*
X349672Y27597D01*
X349806Y27741D01*
X349943Y27882D01*
X350084Y28019D01*
X350228Y28153D01*
X350375Y28283D01*
X350525Y28409D01*
X350678Y28532D01*
X350834Y28651D01*
X350994Y28766D01*
X351155Y28877D01*
X351320Y28984D01*
X351487Y29087D01*
X351657Y29186D01*
X351829Y29280D01*
X352003Y29371D01*
X352180Y29457D01*
X352358Y29539D01*
X352539Y29616D01*
X352721Y29689D01*
X352905Y29757D01*
X353091Y29821D01*
X353278Y29881D01*
X353466Y29935D01*
X353656Y29985D01*
X353847Y30031D01*
X354039Y30071D01*
X354232Y30107D01*
X354426Y30138D01*
X354621Y30165D01*
X354816Y30186D01*
X355011Y30203D01*
X355207Y30215D01*
X355404Y30223D01*
X355600Y30225D01*
X355796Y30223D01*
X355993Y30215D01*
X356189Y30203D01*
X356384Y30186D01*
X356579Y30165D01*
X356774Y30138D01*
X356968Y30107D01*
X357161Y30071D01*
X357353Y30031D01*
X357544Y29985D01*
X357734Y29935D01*
X357922Y29881D01*
X358109Y29821D01*
X358295Y29757D01*
X358479Y29689D01*
X358661Y29616D01*
X358842Y29539D01*
X359020Y29457D01*
X359197Y29371D01*
X359371Y29280D01*
X359543Y29186D01*
X359713Y29087D01*
X359880Y28984D01*
X360045Y28877D01*
X360206Y28766D01*
X360366Y28651D01*
X360522Y28532D01*
X360675Y28409D01*
X360825Y28283D01*
X360972Y28153D01*
X361116Y28019D01*
X361257Y27882D01*
X361394Y27741D01*
X361528Y27597D01*
X361658Y27450D01*
X361784Y27300D01*
X361907Y27147D01*
X362026Y26991D01*
X362141Y26831D01*
X362252Y26670D01*
X362359Y26505D01*
X362462Y26338D01*
X362561Y26168D01*
X362655Y25996D01*
X362746Y25822D01*
X362832Y25645D01*
X362914Y25467D01*
X362991Y25286D01*
X363064Y25104D01*
X363132Y24920D01*
X363196Y24734D01*
X363256Y24547D01*
X363310Y24359D01*
X363360Y24169D01*
X363406Y23978D01*
X363446Y23786D01*
X363482Y23593D01*
X363513Y23399D01*
X363540Y23204D01*
X363561Y23009D01*
X363578Y22814D01*
X363590Y22618D01*
X363598Y22421D01*
X363600Y22225D01*
X363598Y22029D01*
X363590Y21832D01*
X363578Y21636D01*
X363561Y21441D01*
X363540Y21246D01*
X363513Y21051D01*
X363482Y20857D01*
X363446Y20664D01*
X363406Y20472D01*
X363360Y20281D01*
X363310Y20091D01*
X363256Y19903D01*
X363196Y19716D01*
X363132Y19530D01*
X363064Y19346D01*
X362991Y19164D01*
X362914Y18983D01*
X362832Y18805D01*
X362746Y18628D01*
X362655Y18454D01*
X362561Y18282D01*
X362462Y18112D01*
X362359Y17945D01*
X362252Y17780D01*
X362141Y17619D01*
X362026Y17459D01*
X361907Y17303D01*
X361784Y17150D01*
X361658Y17000D01*
X361528Y16853D01*
X361394Y16709D01*
X361257Y16568D01*
X361116Y16431D01*
X360972Y16297D01*
X360825Y16167D01*
X360675Y16041D01*
X360522Y15918D01*
X360366Y15799D01*
X360206Y15684D01*
X360045Y15573D01*
X359880Y15466D01*
X359713Y15363D01*
X359543Y15264D01*
X359371Y15170D01*
X359197Y15079D01*
X359020Y14993D01*
X358842Y14911D01*
X358661Y14834D01*
X358479Y14761D01*
X358295Y14693D01*
X358109Y14629D01*
X357922Y14569D01*
X357734Y14515D01*
X357544Y14465D01*
X357353Y14419D01*
X357161Y14379D01*
X356968Y14343D01*
X356774Y14312D01*
X356579Y14285D01*
X356384Y14264D01*
X356189Y14247D01*
X355993Y14235D01*
X355796Y14227D01*
X355600Y14225D01*
X355404Y14227D01*
X355207Y14235D01*
X355011Y14247D01*
X354816Y14264D01*
X354621Y14285D01*
X354426Y14312D01*
X354232Y14343D01*
X354039Y14379D01*
X353847Y14419D01*
X353656Y14465D01*
X353466Y14515D01*
X353278Y14569D01*
X353091Y14629D01*
X352905Y14693D01*
X352721Y14761D01*
X352539Y14834D01*
X352358Y14911D01*
X352180Y14993D01*
X352003Y15079D01*
X351829Y15170D01*
X351657Y15264D01*
X351487Y15363D01*
X351320Y15466D01*
X351155Y15573D01*
X350994Y15684D01*
X350834Y15799D01*
X350678Y15918D01*
X350525Y16041D01*
X350375Y16167D01*
X350228Y16297D01*
X350084Y16431D01*
X349943Y16568D01*
X349806Y16709D01*
X349672Y16853D01*
X349542Y17000D01*
X349416Y17150D01*
X349293Y17303D01*
X349174Y17459D01*
X349059Y17619D01*
X348948Y17780D01*
X348841Y17945D01*
X348738Y18112D01*
X348639Y18282D01*
X348545Y18454D01*
X348454Y18628D01*
X348368Y18805D01*
X348286Y18983D01*
X348209Y19164D01*
X348136Y19346D01*
X348068Y19530D01*
X348004Y19716D01*
X347944Y19903D01*
X347890Y20091D01*
X347840Y20281D01*
X347794Y20472D01*
X347754Y20664D01*
X347718Y20857D01*
X347687Y21051D01*
X347660Y21246D01*
X347639Y21441D01*
X347622Y21636D01*
X347610Y21832D01*
X347602Y22029D01*
X347600Y22225D01*
X346600Y67225D02*
X346603Y67446D01*
X346611Y67667D01*
X346624Y67887D01*
X346643Y68107D01*
X346668Y68327D01*
X346697Y68546D01*
X346733Y68764D01*
X346773Y68981D01*
X346819Y69197D01*
X346870Y69412D01*
X346926Y69625D01*
X346988Y69838D01*
X347054Y70048D01*
X347126Y70257D01*
X347203Y70464D01*
X347285Y70669D01*
X347372Y70872D01*
X347464Y71073D01*
X347561Y71272D01*
X347663Y71468D01*
X347769Y71661D01*
X347880Y71852D01*
X347996Y72040D01*
X348117Y72225D01*
X348242Y72407D01*
X348371Y72586D01*
X348505Y72762D01*
X348643Y72935D01*
X348785Y73104D01*
X348931Y73269D01*
X349082Y73431D01*
X349236Y73589D01*
X349394Y73743D01*
X349556Y73894D01*
X349721Y74040D01*
X349890Y74182D01*
X350063Y74320D01*
X350239Y74454D01*
X350418Y74583D01*
X350600Y74708D01*
X350785Y74829D01*
X350973Y74945D01*
X351164Y75056D01*
X351357Y75162D01*
X351553Y75264D01*
X351752Y75361D01*
X351953Y75453D01*
X352156Y75540D01*
X352361Y75622D01*
X352568Y75699D01*
X352777Y75771D01*
X352987Y75837D01*
X353200Y75899D01*
X353413Y75955D01*
X353628Y76006D01*
X353844Y76052D01*
X354061Y76092D01*
X354279Y76128D01*
X354498Y76157D01*
X354718Y76182D01*
X354938Y76201D01*
X355158Y76214D01*
X355379Y76222D01*
X355600Y76225D01*
X355821Y76222D01*
X356042Y76214D01*
X356262Y76201D01*
X356482Y76182D01*
X356702Y76157D01*
X356921Y76128D01*
X357139Y76092D01*
X357356Y76052D01*
X357572Y76006D01*
X357787Y75955D01*
X358000Y75899D01*
X358213Y75837D01*
X358423Y75771D01*
X358632Y75699D01*
X358839Y75622D01*
X359044Y75540D01*
X359247Y75453D01*
X359448Y75361D01*
X359647Y75264D01*
X359843Y75162D01*
X360036Y75056D01*
X360227Y74945D01*
X360415Y74829D01*
X360600Y74708D01*
X360782Y74583D01*
X360961Y74454D01*
X361137Y74320D01*
X361310Y74182D01*
X361479Y74040D01*
X361644Y73894D01*
X361806Y73743D01*
X361964Y73589D01*
X362118Y73431D01*
X362269Y73269D01*
X362415Y73104D01*
X362557Y72935D01*
X362695Y72762D01*
X362829Y72586D01*
X362958Y72407D01*
X363083Y72225D01*
X363204Y72040D01*
X363320Y71852D01*
X363431Y71661D01*
X363537Y71468D01*
X363639Y71272D01*
X363736Y71073D01*
X363828Y70872D01*
X363915Y70669D01*
X363997Y70464D01*
X364074Y70257D01*
X364146Y70048D01*
X364212Y69838D01*
X364274Y69625D01*
X364330Y69412D01*
X364381Y69197D01*
X364427Y68981D01*
X364467Y68764D01*
X364503Y68546D01*
X364532Y68327D01*
X364557Y68107D01*
X364576Y67887D01*
X364589Y67667D01*
X364597Y67446D01*
X364600Y67225D01*
X364597Y67004D01*
X364589Y66783D01*
X364576Y66563D01*
X364557Y66343D01*
X364532Y66123D01*
X364503Y65904D01*
X364467Y65686D01*
X364427Y65469D01*
X364381Y65253D01*
X364330Y65038D01*
X364274Y64825D01*
X364212Y64612D01*
X364146Y64402D01*
X364074Y64193D01*
X363997Y63986D01*
X363915Y63781D01*
X363828Y63578D01*
X363736Y63377D01*
X363639Y63178D01*
X363537Y62982D01*
X363431Y62789D01*
X363320Y62598D01*
X363204Y62410D01*
X363083Y62225D01*
X362958Y62043D01*
X362829Y61864D01*
X362695Y61688D01*
X362557Y61515D01*
X362415Y61346D01*
X362269Y61181D01*
X362118Y61019D01*
X361964Y60861D01*
X361806Y60707D01*
X361644Y60556D01*
X361479Y60410D01*
X361310Y60268D01*
X361137Y60130D01*
X360961Y59996D01*
X360782Y59867D01*
X360600Y59742D01*
X360415Y59621D01*
X360227Y59505D01*
X360036Y59394D01*
X359843Y59288D01*
X359647Y59186D01*
X359448Y59089D01*
X359247Y58997D01*
X359044Y58910D01*
X358839Y58828D01*
X358632Y58751D01*
X358423Y58679D01*
X358213Y58613D01*
X358000Y58551D01*
X357787Y58495D01*
X357572Y58444D01*
X357356Y58398D01*
X357139Y58358D01*
X356921Y58322D01*
X356702Y58293D01*
X356482Y58268D01*
X356262Y58249D01*
X356042Y58236D01*
X355821Y58228D01*
X355600Y58225D01*
X355379Y58228D01*
X355158Y58236D01*
X354938Y58249D01*
X354718Y58268D01*
X354498Y58293D01*
X354279Y58322D01*
X354061Y58358D01*
X353844Y58398D01*
X353628Y58444D01*
X353413Y58495D01*
X353200Y58551D01*
X352987Y58613D01*
X352777Y58679D01*
X352568Y58751D01*
X352361Y58828D01*
X352156Y58910D01*
X351953Y58997D01*
X351752Y59089D01*
X351553Y59186D01*
X351357Y59288D01*
X351164Y59394D01*
X350973Y59505D01*
X350785Y59621D01*
X350600Y59742D01*
X350418Y59867D01*
X350239Y59996D01*
X350063Y60130D01*
X349890Y60268D01*
X349721Y60410D01*
X349556Y60556D01*
X349394Y60707D01*
X349236Y60861D01*
X349082Y61019D01*
X348931Y61181D01*
X348785Y61346D01*
X348643Y61515D01*
X348505Y61688D01*
X348371Y61864D01*
X348242Y62043D01*
X348117Y62225D01*
X347996Y62410D01*
X347880Y62598D01*
X347769Y62789D01*
X347663Y62982D01*
X347561Y63178D01*
X347464Y63377D01*
X347372Y63578D01*
X347285Y63781D01*
X347203Y63986D01*
X347126Y64193D01*
X347054Y64402D01*
X346988Y64612D01*
X346926Y64825D01*
X346870Y65038D01*
X346819Y65253D01*
X346773Y65469D01*
X346733Y65686D01*
X346697Y65904D01*
X346668Y66123D01*
X346643Y66343D01*
X346624Y66563D01*
X346611Y66783D01*
X346603Y67004D01*
X346600Y67225D01*
X383795Y328930D02*
X383797Y329126D01*
X383805Y329323D01*
X383817Y329519D01*
X383834Y329714D01*
X383855Y329909D01*
X383882Y330104D01*
X383913Y330298D01*
X383949Y330491D01*
X383989Y330683D01*
X384035Y330874D01*
X384085Y331064D01*
X384139Y331252D01*
X384199Y331439D01*
X384263Y331625D01*
X384331Y331809D01*
X384404Y331991D01*
X384481Y332172D01*
X384563Y332350D01*
X384649Y332527D01*
X384740Y332701D01*
X384834Y332873D01*
X384933Y333043D01*
X385036Y333210D01*
X385143Y333375D01*
X385254Y333536D01*
X385369Y333696D01*
X385488Y333852D01*
X385611Y334005D01*
X385737Y334155D01*
X385867Y334302D01*
X386001Y334446D01*
X386138Y334587D01*
X386279Y334724D01*
X386423Y334858D01*
X386570Y334988D01*
X386720Y335114D01*
X386873Y335237D01*
X387029Y335356D01*
X387189Y335471D01*
X387350Y335582D01*
X387515Y335689D01*
X387682Y335792D01*
X387852Y335891D01*
X388024Y335985D01*
X388198Y336076D01*
X388375Y336162D01*
X388553Y336244D01*
X388734Y336321D01*
X388916Y336394D01*
X389100Y336462D01*
X389286Y336526D01*
X389473Y336586D01*
X389661Y336640D01*
X389851Y336690D01*
X390042Y336736D01*
X390234Y336776D01*
X390427Y336812D01*
X390621Y336843D01*
X390816Y336870D01*
X391011Y336891D01*
X391206Y336908D01*
X391402Y336920D01*
X391599Y336928D01*
X391795Y336930D01*
X391991Y336928D01*
X392188Y336920D01*
X392384Y336908D01*
X392579Y336891D01*
X392774Y336870D01*
X392969Y336843D01*
X393163Y336812D01*
X393356Y336776D01*
X393548Y336736D01*
X393739Y336690D01*
X393929Y336640D01*
X394117Y336586D01*
X394304Y336526D01*
X394490Y336462D01*
X394674Y336394D01*
X394856Y336321D01*
X395037Y336244D01*
X395215Y336162D01*
X395392Y336076D01*
X395566Y335985D01*
X395738Y335891D01*
X395908Y335792D01*
X396075Y335689D01*
X396240Y335582D01*
X396401Y335471D01*
X396561Y335356D01*
X396717Y335237D01*
X396870Y335114D01*
X397020Y334988D01*
X397167Y334858D01*
X397311Y334724D01*
X397452Y334587D01*
X397589Y334446D01*
X397723Y334302D01*
X397853Y334155D01*
X397979Y334005D01*
X398102Y333852D01*
X398221Y333696D01*
X398336Y333536D01*
X398447Y333375D01*
X398554Y333210D01*
X398657Y333043D01*
X398756Y332873D01*
X398850Y332701D01*
X398941Y332527D01*
X399027Y332350D01*
X399109Y332172D01*
X399186Y331991D01*
X399259Y331809D01*
X399327Y331625D01*
X399391Y331439D01*
X399451Y331252D01*
X399505Y331064D01*
X399555Y330874D01*
X399601Y330683D01*
X399641Y330491D01*
X399677Y330298D01*
X399708Y330104D01*
X399735Y329909D01*
X399756Y329714D01*
X399773Y329519D01*
X399785Y329323D01*
X399793Y329126D01*
X399795Y328930D01*
X399793Y328734D01*
X399785Y328537D01*
X399773Y328341D01*
X399756Y328146D01*
X399735Y327951D01*
X399708Y327756D01*
X399677Y327562D01*
X399641Y327369D01*
X399601Y327177D01*
X399555Y326986D01*
X399505Y326796D01*
X399451Y326608D01*
X399391Y326421D01*
X399327Y326235D01*
X399259Y326051D01*
X399186Y325869D01*
X399109Y325688D01*
X399027Y325510D01*
X398941Y325333D01*
X398850Y325159D01*
X398756Y324987D01*
X398657Y324817D01*
X398554Y324650D01*
X398447Y324485D01*
X398336Y324324D01*
X398221Y324164D01*
X398102Y324008D01*
X397979Y323855D01*
X397853Y323705D01*
X397723Y323558D01*
X397589Y323414D01*
X397452Y323273D01*
X397311Y323136D01*
X397167Y323002D01*
X397020Y322872D01*
X396870Y322746D01*
X396717Y322623D01*
X396561Y322504D01*
X396401Y322389D01*
X396240Y322278D01*
X396075Y322171D01*
X395908Y322068D01*
X395738Y321969D01*
X395566Y321875D01*
X395392Y321784D01*
X395215Y321698D01*
X395037Y321616D01*
X394856Y321539D01*
X394674Y321466D01*
X394490Y321398D01*
X394304Y321334D01*
X394117Y321274D01*
X393929Y321220D01*
X393739Y321170D01*
X393548Y321124D01*
X393356Y321084D01*
X393163Y321048D01*
X392969Y321017D01*
X392774Y320990D01*
X392579Y320969D01*
X392384Y320952D01*
X392188Y320940D01*
X391991Y320932D01*
X391795Y320930D01*
X391599Y320932D01*
X391402Y320940D01*
X391206Y320952D01*
X391011Y320969D01*
X390816Y320990D01*
X390621Y321017D01*
X390427Y321048D01*
X390234Y321084D01*
X390042Y321124D01*
X389851Y321170D01*
X389661Y321220D01*
X389473Y321274D01*
X389286Y321334D01*
X389100Y321398D01*
X388916Y321466D01*
X388734Y321539D01*
X388553Y321616D01*
X388375Y321698D01*
X388198Y321784D01*
X388024Y321875D01*
X387852Y321969D01*
X387682Y322068D01*
X387515Y322171D01*
X387350Y322278D01*
X387189Y322389D01*
X387029Y322504D01*
X386873Y322623D01*
X386720Y322746D01*
X386570Y322872D01*
X386423Y323002D01*
X386279Y323136D01*
X386138Y323273D01*
X386001Y323414D01*
X385867Y323558D01*
X385737Y323705D01*
X385611Y323855D01*
X385488Y324008D01*
X385369Y324164D01*
X385254Y324324D01*
X385143Y324485D01*
X385036Y324650D01*
X384933Y324817D01*
X384834Y324987D01*
X384740Y325159D01*
X384649Y325333D01*
X384563Y325510D01*
X384481Y325688D01*
X384404Y325869D01*
X384331Y326051D01*
X384263Y326235D01*
X384199Y326421D01*
X384139Y326608D01*
X384085Y326796D01*
X384035Y326986D01*
X383989Y327177D01*
X383949Y327369D01*
X383913Y327562D01*
X383882Y327756D01*
X383855Y327951D01*
X383834Y328146D01*
X383817Y328341D01*
X383805Y328537D01*
X383797Y328734D01*
X383795Y328930D01*
X636295Y328930D02*
X636297Y329078D01*
X636303Y329226D01*
X636313Y329374D01*
X636327Y329522D01*
X636345Y329669D01*
X636367Y329816D01*
X636393Y329962D01*
X636422Y330107D01*
X636456Y330252D01*
X636494Y330395D01*
X636535Y330538D01*
X636580Y330679D01*
X636630Y330819D01*
X636682Y330957D01*
X636739Y331095D01*
X636799Y331230D01*
X636863Y331364D01*
X636930Y331496D01*
X637001Y331626D01*
X637076Y331755D01*
X637154Y331881D01*
X637235Y332005D01*
X637319Y332127D01*
X637407Y332246D01*
X637498Y332363D01*
X637592Y332478D01*
X637690Y332590D01*
X637790Y332699D01*
X637893Y332806D01*
X637999Y332910D01*
X638107Y333011D01*
X638219Y333109D01*
X638333Y333204D01*
X638449Y333295D01*
X638568Y333384D01*
X638689Y333469D01*
X638813Y333551D01*
X638939Y333630D01*
X639066Y333705D01*
X639196Y333777D01*
X639328Y333846D01*
X639461Y333910D01*
X639596Y333971D01*
X639733Y334029D01*
X639871Y334083D01*
X640011Y334133D01*
X640152Y334179D01*
X640294Y334221D01*
X640437Y334260D01*
X640581Y334294D01*
X640727Y334325D01*
X640872Y334352D01*
X641019Y334375D01*
X641166Y334394D01*
X641314Y334409D01*
X641461Y334420D01*
X641610Y334427D01*
X641758Y334430D01*
X641906Y334429D01*
X642054Y334424D01*
X642202Y334415D01*
X642350Y334402D01*
X642498Y334385D01*
X642644Y334364D01*
X642791Y334339D01*
X642936Y334310D01*
X643081Y334278D01*
X643224Y334241D01*
X643367Y334201D01*
X643509Y334156D01*
X643649Y334108D01*
X643788Y334056D01*
X643925Y334001D01*
X644061Y333941D01*
X644196Y333878D01*
X644328Y333812D01*
X644459Y333742D01*
X644588Y333668D01*
X644714Y333591D01*
X644839Y333511D01*
X644961Y333427D01*
X645082Y333340D01*
X645199Y333250D01*
X645315Y333156D01*
X645427Y333060D01*
X645537Y332961D01*
X645645Y332858D01*
X645749Y332753D01*
X645851Y332645D01*
X645949Y332534D01*
X646045Y332421D01*
X646138Y332305D01*
X646227Y332187D01*
X646313Y332066D01*
X646396Y331943D01*
X646476Y331818D01*
X646552Y331691D01*
X646625Y331561D01*
X646694Y331430D01*
X646759Y331297D01*
X646822Y331163D01*
X646880Y331026D01*
X646935Y330888D01*
X646985Y330749D01*
X647033Y330608D01*
X647076Y330467D01*
X647116Y330324D01*
X647151Y330180D01*
X647183Y330035D01*
X647211Y329889D01*
X647235Y329743D01*
X647255Y329596D01*
X647271Y329448D01*
X647283Y329301D01*
X647291Y329152D01*
X647295Y329004D01*
X647295Y328856D01*
X647291Y328708D01*
X647283Y328559D01*
X647271Y328412D01*
X647255Y328264D01*
X647235Y328117D01*
X647211Y327971D01*
X647183Y327825D01*
X647151Y327680D01*
X647116Y327536D01*
X647076Y327393D01*
X647033Y327252D01*
X646985Y327111D01*
X646935Y326972D01*
X646880Y326834D01*
X646822Y326697D01*
X646759Y326563D01*
X646694Y326430D01*
X646625Y326299D01*
X646552Y326169D01*
X646476Y326042D01*
X646396Y325917D01*
X646313Y325794D01*
X646227Y325673D01*
X646138Y325555D01*
X646045Y325439D01*
X645949Y325326D01*
X645851Y325215D01*
X645749Y325107D01*
X645645Y325002D01*
X645537Y324899D01*
X645427Y324800D01*
X645315Y324704D01*
X645199Y324610D01*
X645082Y324520D01*
X644961Y324433D01*
X644839Y324349D01*
X644714Y324269D01*
X644588Y324192D01*
X644459Y324118D01*
X644328Y324048D01*
X644196Y323982D01*
X644061Y323919D01*
X643925Y323859D01*
X643788Y323804D01*
X643649Y323752D01*
X643509Y323704D01*
X643367Y323659D01*
X643224Y323619D01*
X643081Y323582D01*
X642936Y323550D01*
X642791Y323521D01*
X642644Y323496D01*
X642498Y323475D01*
X642350Y323458D01*
X642202Y323445D01*
X642054Y323436D01*
X641906Y323431D01*
X641758Y323430D01*
X641610Y323433D01*
X641461Y323440D01*
X641314Y323451D01*
X641166Y323466D01*
X641019Y323485D01*
X640872Y323508D01*
X640727Y323535D01*
X640581Y323566D01*
X640437Y323600D01*
X640294Y323639D01*
X640152Y323681D01*
X640011Y323727D01*
X639871Y323777D01*
X639733Y323831D01*
X639596Y323889D01*
X639461Y323950D01*
X639328Y324014D01*
X639196Y324083D01*
X639066Y324155D01*
X638939Y324230D01*
X638813Y324309D01*
X638689Y324391D01*
X638568Y324476D01*
X638449Y324565D01*
X638333Y324656D01*
X638219Y324751D01*
X638107Y324849D01*
X637999Y324950D01*
X637893Y325054D01*
X637790Y325161D01*
X637690Y325270D01*
X637592Y325382D01*
X637498Y325497D01*
X637407Y325614D01*
X637319Y325733D01*
X637235Y325855D01*
X637154Y325979D01*
X637076Y326105D01*
X637001Y326234D01*
X636930Y326364D01*
X636863Y326496D01*
X636799Y326630D01*
X636739Y326765D01*
X636682Y326903D01*
X636630Y327041D01*
X636580Y327181D01*
X636535Y327322D01*
X636494Y327465D01*
X636456Y327608D01*
X636422Y327753D01*
X636393Y327898D01*
X636367Y328044D01*
X636345Y328191D01*
X636327Y328338D01*
X636313Y328486D01*
X636303Y328634D01*
X636297Y328782D01*
X636295Y328930D01*
X383295Y810430D02*
X383299Y810737D01*
X383310Y811043D01*
X383329Y811350D01*
X383355Y811655D01*
X383389Y811960D01*
X383430Y812264D01*
X383479Y812567D01*
X383535Y812869D01*
X383599Y813169D01*
X383670Y813467D01*
X383748Y813764D01*
X383833Y814059D01*
X383926Y814351D01*
X384026Y814641D01*
X384133Y814929D01*
X384247Y815214D01*
X384367Y815496D01*
X384495Y815774D01*
X384630Y816050D01*
X384771Y816322D01*
X384919Y816591D01*
X385073Y816856D01*
X385234Y817117D01*
X385402Y817375D01*
X385575Y817628D01*
X385755Y817876D01*
X385941Y818120D01*
X386132Y818360D01*
X386330Y818595D01*
X386533Y818824D01*
X386742Y819049D01*
X386956Y819269D01*
X387176Y819483D01*
X387401Y819692D01*
X387630Y819895D01*
X387865Y820093D01*
X388105Y820284D01*
X388349Y820470D01*
X388597Y820650D01*
X388850Y820823D01*
X389108Y820991D01*
X389369Y821152D01*
X389634Y821306D01*
X389903Y821454D01*
X390175Y821595D01*
X390451Y821730D01*
X390729Y821858D01*
X391011Y821978D01*
X391296Y822092D01*
X391584Y822199D01*
X391874Y822299D01*
X392166Y822392D01*
X392461Y822477D01*
X392758Y822555D01*
X393056Y822626D01*
X393356Y822690D01*
X393658Y822746D01*
X393961Y822795D01*
X394265Y822836D01*
X394570Y822870D01*
X394875Y822896D01*
X395182Y822915D01*
X395488Y822926D01*
X395795Y822930D01*
X396102Y822926D01*
X396408Y822915D01*
X396715Y822896D01*
X397020Y822870D01*
X397325Y822836D01*
X397629Y822795D01*
X397932Y822746D01*
X398234Y822690D01*
X398534Y822626D01*
X398832Y822555D01*
X399129Y822477D01*
X399424Y822392D01*
X399716Y822299D01*
X400006Y822199D01*
X400294Y822092D01*
X400579Y821978D01*
X400861Y821858D01*
X401139Y821730D01*
X401415Y821595D01*
X401687Y821454D01*
X401956Y821306D01*
X402221Y821152D01*
X402482Y820991D01*
X402740Y820823D01*
X402993Y820650D01*
X403241Y820470D01*
X403485Y820284D01*
X403725Y820093D01*
X403960Y819895D01*
X404189Y819692D01*
X404414Y819483D01*
X404634Y819269D01*
X404848Y819049D01*
X405057Y818824D01*
X405260Y818595D01*
X405458Y818360D01*
X405649Y818120D01*
X405835Y817876D01*
X406015Y817628D01*
X406188Y817375D01*
X406356Y817117D01*
X406517Y816856D01*
X406671Y816591D01*
X406819Y816322D01*
X406960Y816050D01*
X407095Y815774D01*
X407223Y815496D01*
X407343Y815214D01*
X407457Y814929D01*
X407564Y814641D01*
X407664Y814351D01*
X407757Y814059D01*
X407842Y813764D01*
X407920Y813467D01*
X407991Y813169D01*
X408055Y812869D01*
X408111Y812567D01*
X408160Y812264D01*
X408201Y811960D01*
X408235Y811655D01*
X408261Y811350D01*
X408280Y811043D01*
X408291Y810737D01*
X408295Y810430D01*
X408291Y810123D01*
X408280Y809817D01*
X408261Y809510D01*
X408235Y809205D01*
X408201Y808900D01*
X408160Y808596D01*
X408111Y808293D01*
X408055Y807991D01*
X407991Y807691D01*
X407920Y807393D01*
X407842Y807096D01*
X407757Y806801D01*
X407664Y806509D01*
X407564Y806219D01*
X407457Y805931D01*
X407343Y805646D01*
X407223Y805364D01*
X407095Y805086D01*
X406960Y804810D01*
X406819Y804538D01*
X406671Y804269D01*
X406517Y804004D01*
X406356Y803743D01*
X406188Y803485D01*
X406015Y803232D01*
X405835Y802984D01*
X405649Y802740D01*
X405458Y802500D01*
X405260Y802265D01*
X405057Y802036D01*
X404848Y801811D01*
X404634Y801591D01*
X404414Y801377D01*
X404189Y801168D01*
X403960Y800965D01*
X403725Y800767D01*
X403485Y800576D01*
X403241Y800390D01*
X402993Y800210D01*
X402740Y800037D01*
X402482Y799869D01*
X402221Y799708D01*
X401956Y799554D01*
X401687Y799406D01*
X401415Y799265D01*
X401139Y799130D01*
X400861Y799002D01*
X400579Y798882D01*
X400294Y798768D01*
X400006Y798661D01*
X399716Y798561D01*
X399424Y798468D01*
X399129Y798383D01*
X398832Y798305D01*
X398534Y798234D01*
X398234Y798170D01*
X397932Y798114D01*
X397629Y798065D01*
X397325Y798024D01*
X397020Y797990D01*
X396715Y797964D01*
X396408Y797945D01*
X396102Y797934D01*
X395795Y797930D01*
X395488Y797934D01*
X395182Y797945D01*
X394875Y797964D01*
X394570Y797990D01*
X394265Y798024D01*
X393961Y798065D01*
X393658Y798114D01*
X393356Y798170D01*
X393056Y798234D01*
X392758Y798305D01*
X392461Y798383D01*
X392166Y798468D01*
X391874Y798561D01*
X391584Y798661D01*
X391296Y798768D01*
X391011Y798882D01*
X390729Y799002D01*
X390451Y799130D01*
X390175Y799265D01*
X389903Y799406D01*
X389634Y799554D01*
X389369Y799708D01*
X389108Y799869D01*
X388850Y800037D01*
X388597Y800210D01*
X388349Y800390D01*
X388105Y800576D01*
X387865Y800767D01*
X387630Y800965D01*
X387401Y801168D01*
X387176Y801377D01*
X386956Y801591D01*
X386742Y801811D01*
X386533Y802036D01*
X386330Y802265D01*
X386132Y802500D01*
X385941Y802740D01*
X385755Y802984D01*
X385575Y803232D01*
X385402Y803485D01*
X385234Y803743D01*
X385073Y804004D01*
X384919Y804269D01*
X384771Y804538D01*
X384630Y804810D01*
X384495Y805086D01*
X384367Y805364D01*
X384247Y805646D01*
X384133Y805931D01*
X384026Y806219D01*
X383926Y806509D01*
X383833Y806801D01*
X383748Y807096D01*
X383670Y807393D01*
X383599Y807691D01*
X383535Y807991D01*
X383479Y808293D01*
X383430Y808596D01*
X383389Y808900D01*
X383355Y809205D01*
X383329Y809510D01*
X383310Y809817D01*
X383299Y810123D01*
X383295Y810430D01*
X625295Y810430D02*
X625299Y810737D01*
X625310Y811043D01*
X625329Y811350D01*
X625355Y811655D01*
X625389Y811960D01*
X625430Y812264D01*
X625479Y812567D01*
X625535Y812869D01*
X625599Y813169D01*
X625670Y813467D01*
X625748Y813764D01*
X625833Y814059D01*
X625926Y814351D01*
X626026Y814641D01*
X626133Y814929D01*
X626247Y815214D01*
X626367Y815496D01*
X626495Y815774D01*
X626630Y816050D01*
X626771Y816322D01*
X626919Y816591D01*
X627073Y816856D01*
X627234Y817117D01*
X627402Y817375D01*
X627575Y817628D01*
X627755Y817876D01*
X627941Y818120D01*
X628132Y818360D01*
X628330Y818595D01*
X628533Y818824D01*
X628742Y819049D01*
X628956Y819269D01*
X629176Y819483D01*
X629401Y819692D01*
X629630Y819895D01*
X629865Y820093D01*
X630105Y820284D01*
X630349Y820470D01*
X630597Y820650D01*
X630850Y820823D01*
X631108Y820991D01*
X631369Y821152D01*
X631634Y821306D01*
X631903Y821454D01*
X632175Y821595D01*
X632451Y821730D01*
X632729Y821858D01*
X633011Y821978D01*
X633296Y822092D01*
X633584Y822199D01*
X633874Y822299D01*
X634166Y822392D01*
X634461Y822477D01*
X634758Y822555D01*
X635056Y822626D01*
X635356Y822690D01*
X635658Y822746D01*
X635961Y822795D01*
X636265Y822836D01*
X636570Y822870D01*
X636875Y822896D01*
X637182Y822915D01*
X637488Y822926D01*
X637795Y822930D01*
X638102Y822926D01*
X638408Y822915D01*
X638715Y822896D01*
X639020Y822870D01*
X639325Y822836D01*
X639629Y822795D01*
X639932Y822746D01*
X640234Y822690D01*
X640534Y822626D01*
X640832Y822555D01*
X641129Y822477D01*
X641424Y822392D01*
X641716Y822299D01*
X642006Y822199D01*
X642294Y822092D01*
X642579Y821978D01*
X642861Y821858D01*
X643139Y821730D01*
X643415Y821595D01*
X643687Y821454D01*
X643956Y821306D01*
X644221Y821152D01*
X644482Y820991D01*
X644740Y820823D01*
X644993Y820650D01*
X645241Y820470D01*
X645485Y820284D01*
X645725Y820093D01*
X645960Y819895D01*
X646189Y819692D01*
X646414Y819483D01*
X646634Y819269D01*
X646848Y819049D01*
X647057Y818824D01*
X647260Y818595D01*
X647458Y818360D01*
X647649Y818120D01*
X647835Y817876D01*
X648015Y817628D01*
X648188Y817375D01*
X648356Y817117D01*
X648517Y816856D01*
X648671Y816591D01*
X648819Y816322D01*
X648960Y816050D01*
X649095Y815774D01*
X649223Y815496D01*
X649343Y815214D01*
X649457Y814929D01*
X649564Y814641D01*
X649664Y814351D01*
X649757Y814059D01*
X649842Y813764D01*
X649920Y813467D01*
X649991Y813169D01*
X650055Y812869D01*
X650111Y812567D01*
X650160Y812264D01*
X650201Y811960D01*
X650235Y811655D01*
X650261Y811350D01*
X650280Y811043D01*
X650291Y810737D01*
X650295Y810430D01*
X650291Y810123D01*
X650280Y809817D01*
X650261Y809510D01*
X650235Y809205D01*
X650201Y808900D01*
X650160Y808596D01*
X650111Y808293D01*
X650055Y807991D01*
X649991Y807691D01*
X649920Y807393D01*
X649842Y807096D01*
X649757Y806801D01*
X649664Y806509D01*
X649564Y806219D01*
X649457Y805931D01*
X649343Y805646D01*
X649223Y805364D01*
X649095Y805086D01*
X648960Y804810D01*
X648819Y804538D01*
X648671Y804269D01*
X648517Y804004D01*
X648356Y803743D01*
X648188Y803485D01*
X648015Y803232D01*
X647835Y802984D01*
X647649Y802740D01*
X647458Y802500D01*
X647260Y802265D01*
X647057Y802036D01*
X646848Y801811D01*
X646634Y801591D01*
X646414Y801377D01*
X646189Y801168D01*
X645960Y800965D01*
X645725Y800767D01*
X645485Y800576D01*
X645241Y800390D01*
X644993Y800210D01*
X644740Y800037D01*
X644482Y799869D01*
X644221Y799708D01*
X643956Y799554D01*
X643687Y799406D01*
X643415Y799265D01*
X643139Y799130D01*
X642861Y799002D01*
X642579Y798882D01*
X642294Y798768D01*
X642006Y798661D01*
X641716Y798561D01*
X641424Y798468D01*
X641129Y798383D01*
X640832Y798305D01*
X640534Y798234D01*
X640234Y798170D01*
X639932Y798114D01*
X639629Y798065D01*
X639325Y798024D01*
X639020Y797990D01*
X638715Y797964D01*
X638408Y797945D01*
X638102Y797934D01*
X637795Y797930D01*
X637488Y797934D01*
X637182Y797945D01*
X636875Y797964D01*
X636570Y797990D01*
X636265Y798024D01*
X635961Y798065D01*
X635658Y798114D01*
X635356Y798170D01*
X635056Y798234D01*
X634758Y798305D01*
X634461Y798383D01*
X634166Y798468D01*
X633874Y798561D01*
X633584Y798661D01*
X633296Y798768D01*
X633011Y798882D01*
X632729Y799002D01*
X632451Y799130D01*
X632175Y799265D01*
X631903Y799406D01*
X631634Y799554D01*
X631369Y799708D01*
X631108Y799869D01*
X630850Y800037D01*
X630597Y800210D01*
X630349Y800390D01*
X630105Y800576D01*
X629865Y800767D01*
X629630Y800965D01*
X629401Y801168D01*
X629176Y801377D01*
X628956Y801591D01*
X628742Y801811D01*
X628533Y802036D01*
X628330Y802265D01*
X628132Y802500D01*
X627941Y802740D01*
X627755Y802984D01*
X627575Y803232D01*
X627402Y803485D01*
X627234Y803743D01*
X627073Y804004D01*
X626919Y804269D01*
X626771Y804538D01*
X626630Y804810D01*
X626495Y805086D01*
X626367Y805364D01*
X626247Y805646D01*
X626133Y805931D01*
X626026Y806219D01*
X625926Y806509D01*
X625833Y806801D01*
X625748Y807096D01*
X625670Y807393D01*
X625599Y807691D01*
X625535Y807991D01*
X625479Y808293D01*
X625430Y808596D01*
X625389Y808900D01*
X625355Y809205D01*
X625329Y809510D01*
X625310Y809817D01*
X625299Y810123D01*
X625295Y810430D01*
X987600Y78500D02*
X987605Y78893D01*
X987619Y79285D01*
X987643Y79677D01*
X987677Y80068D01*
X987720Y80459D01*
X987773Y80848D01*
X987836Y81235D01*
X987907Y81621D01*
X987989Y82006D01*
X988079Y82388D01*
X988180Y82767D01*
X988289Y83145D01*
X988408Y83519D01*
X988535Y83890D01*
X988672Y84258D01*
X988818Y84623D01*
X988973Y84984D01*
X989136Y85341D01*
X989308Y85694D01*
X989489Y86042D01*
X989679Y86386D01*
X989876Y86726D01*
X990082Y87060D01*
X990296Y87389D01*
X990519Y87713D01*
X990749Y88031D01*
X990986Y88344D01*
X991232Y88650D01*
X991485Y88951D01*
X991745Y89245D01*
X992012Y89533D01*
X992286Y89814D01*
X992567Y90088D01*
X992855Y90355D01*
X993149Y90615D01*
X993450Y90868D01*
X993756Y91114D01*
X994069Y91351D01*
X994387Y91581D01*
X994711Y91804D01*
X995040Y92018D01*
X995374Y92224D01*
X995714Y92421D01*
X996058Y92611D01*
X996406Y92792D01*
X996759Y92964D01*
X997116Y93127D01*
X997477Y93282D01*
X997842Y93428D01*
X998210Y93565D01*
X998581Y93692D01*
X998955Y93811D01*
X999333Y93920D01*
X999712Y94021D01*
X1000094Y94111D01*
X1000479Y94193D01*
X1000865Y94264D01*
X1001252Y94327D01*
X1001641Y94380D01*
X1002032Y94423D01*
X1002423Y94457D01*
X1002815Y94481D01*
X1003207Y94495D01*
X1003600Y94500D01*
X1003993Y94495D01*
X1004385Y94481D01*
X1004777Y94457D01*
X1005168Y94423D01*
X1005559Y94380D01*
X1005948Y94327D01*
X1006335Y94264D01*
X1006721Y94193D01*
X1007106Y94111D01*
X1007488Y94021D01*
X1007867Y93920D01*
X1008245Y93811D01*
X1008619Y93692D01*
X1008990Y93565D01*
X1009358Y93428D01*
X1009723Y93282D01*
X1010084Y93127D01*
X1010441Y92964D01*
X1010794Y92792D01*
X1011142Y92611D01*
X1011486Y92421D01*
X1011826Y92224D01*
X1012160Y92018D01*
X1012489Y91804D01*
X1012813Y91581D01*
X1013131Y91351D01*
X1013444Y91114D01*
X1013750Y90868D01*
X1014051Y90615D01*
X1014345Y90355D01*
X1014633Y90088D01*
X1014914Y89814D01*
X1015188Y89533D01*
X1015455Y89245D01*
X1015715Y88951D01*
X1015968Y88650D01*
X1016214Y88344D01*
X1016451Y88031D01*
X1016681Y87713D01*
X1016904Y87389D01*
X1017118Y87060D01*
X1017324Y86726D01*
X1017521Y86386D01*
X1017711Y86042D01*
X1017892Y85694D01*
X1018064Y85341D01*
X1018227Y84984D01*
X1018382Y84623D01*
X1018528Y84258D01*
X1018665Y83890D01*
X1018792Y83519D01*
X1018911Y83145D01*
X1019020Y82767D01*
X1019121Y82388D01*
X1019211Y82006D01*
X1019293Y81621D01*
X1019364Y81235D01*
X1019427Y80848D01*
X1019480Y80459D01*
X1019523Y80068D01*
X1019557Y79677D01*
X1019581Y79285D01*
X1019595Y78893D01*
X1019600Y78500D01*
X1019595Y78107D01*
X1019581Y77715D01*
X1019557Y77323D01*
X1019523Y76932D01*
X1019480Y76541D01*
X1019427Y76152D01*
X1019364Y75765D01*
X1019293Y75379D01*
X1019211Y74994D01*
X1019121Y74612D01*
X1019020Y74233D01*
X1018911Y73855D01*
X1018792Y73481D01*
X1018665Y73110D01*
X1018528Y72742D01*
X1018382Y72377D01*
X1018227Y72016D01*
X1018064Y71659D01*
X1017892Y71306D01*
X1017711Y70958D01*
X1017521Y70614D01*
X1017324Y70274D01*
X1017118Y69940D01*
X1016904Y69611D01*
X1016681Y69287D01*
X1016451Y68969D01*
X1016214Y68656D01*
X1015968Y68350D01*
X1015715Y68049D01*
X1015455Y67755D01*
X1015188Y67467D01*
X1014914Y67186D01*
X1014633Y66912D01*
X1014345Y66645D01*
X1014051Y66385D01*
X1013750Y66132D01*
X1013444Y65886D01*
X1013131Y65649D01*
X1012813Y65419D01*
X1012489Y65196D01*
X1012160Y64982D01*
X1011826Y64776D01*
X1011486Y64579D01*
X1011142Y64389D01*
X1010794Y64208D01*
X1010441Y64036D01*
X1010084Y63873D01*
X1009723Y63718D01*
X1009358Y63572D01*
X1008990Y63435D01*
X1008619Y63308D01*
X1008245Y63189D01*
X1007867Y63080D01*
X1007488Y62979D01*
X1007106Y62889D01*
X1006721Y62807D01*
X1006335Y62736D01*
X1005948Y62673D01*
X1005559Y62620D01*
X1005168Y62577D01*
X1004777Y62543D01*
X1004385Y62519D01*
X1003993Y62505D01*
X1003600Y62500D01*
X1003207Y62505D01*
X1002815Y62519D01*
X1002423Y62543D01*
X1002032Y62577D01*
X1001641Y62620D01*
X1001252Y62673D01*
X1000865Y62736D01*
X1000479Y62807D01*
X1000094Y62889D01*
X999712Y62979D01*
X999333Y63080D01*
X998955Y63189D01*
X998581Y63308D01*
X998210Y63435D01*
X997842Y63572D01*
X997477Y63718D01*
X997116Y63873D01*
X996759Y64036D01*
X996406Y64208D01*
X996058Y64389D01*
X995714Y64579D01*
X995374Y64776D01*
X995040Y64982D01*
X994711Y65196D01*
X994387Y65419D01*
X994069Y65649D01*
X993756Y65886D01*
X993450Y66132D01*
X993149Y66385D01*
X992855Y66645D01*
X992567Y66912D01*
X992286Y67186D01*
X992012Y67467D01*
X991745Y67755D01*
X991485Y68049D01*
X991232Y68350D01*
X990986Y68656D01*
X990749Y68969D01*
X990519Y69287D01*
X990296Y69611D01*
X990082Y69940D01*
X989876Y70274D01*
X989679Y70614D01*
X989489Y70958D01*
X989308Y71306D01*
X989136Y71659D01*
X988973Y72016D01*
X988818Y72377D01*
X988672Y72742D01*
X988535Y73110D01*
X988408Y73481D01*
X988289Y73855D01*
X988180Y74233D01*
X988079Y74612D01*
X987989Y74994D01*
X987907Y75379D01*
X987836Y75765D01*
X987773Y76152D01*
X987720Y76541D01*
X987677Y76932D01*
X987643Y77323D01*
X987619Y77715D01*
X987605Y78107D01*
X987600Y78500D01*
X1101900Y78500D02*
X1101905Y78893D01*
X1101919Y79285D01*
X1101943Y79677D01*
X1101977Y80068D01*
X1102020Y80459D01*
X1102073Y80848D01*
X1102136Y81235D01*
X1102207Y81621D01*
X1102289Y82006D01*
X1102379Y82388D01*
X1102480Y82767D01*
X1102589Y83145D01*
X1102708Y83519D01*
X1102835Y83890D01*
X1102972Y84258D01*
X1103118Y84623D01*
X1103273Y84984D01*
X1103436Y85341D01*
X1103608Y85694D01*
X1103789Y86042D01*
X1103979Y86386D01*
X1104176Y86726D01*
X1104382Y87060D01*
X1104596Y87389D01*
X1104819Y87713D01*
X1105049Y88031D01*
X1105286Y88344D01*
X1105532Y88650D01*
X1105785Y88951D01*
X1106045Y89245D01*
X1106312Y89533D01*
X1106586Y89814D01*
X1106867Y90088D01*
X1107155Y90355D01*
X1107449Y90615D01*
X1107750Y90868D01*
X1108056Y91114D01*
X1108369Y91351D01*
X1108687Y91581D01*
X1109011Y91804D01*
X1109340Y92018D01*
X1109674Y92224D01*
X1110014Y92421D01*
X1110358Y92611D01*
X1110706Y92792D01*
X1111059Y92964D01*
X1111416Y93127D01*
X1111777Y93282D01*
X1112142Y93428D01*
X1112510Y93565D01*
X1112881Y93692D01*
X1113255Y93811D01*
X1113633Y93920D01*
X1114012Y94021D01*
X1114394Y94111D01*
X1114779Y94193D01*
X1115165Y94264D01*
X1115552Y94327D01*
X1115941Y94380D01*
X1116332Y94423D01*
X1116723Y94457D01*
X1117115Y94481D01*
X1117507Y94495D01*
X1117900Y94500D01*
X1118293Y94495D01*
X1118685Y94481D01*
X1119077Y94457D01*
X1119468Y94423D01*
X1119859Y94380D01*
X1120248Y94327D01*
X1120635Y94264D01*
X1121021Y94193D01*
X1121406Y94111D01*
X1121788Y94021D01*
X1122167Y93920D01*
X1122545Y93811D01*
X1122919Y93692D01*
X1123290Y93565D01*
X1123658Y93428D01*
X1124023Y93282D01*
X1124384Y93127D01*
X1124741Y92964D01*
X1125094Y92792D01*
X1125442Y92611D01*
X1125786Y92421D01*
X1126126Y92224D01*
X1126460Y92018D01*
X1126789Y91804D01*
X1127113Y91581D01*
X1127431Y91351D01*
X1127744Y91114D01*
X1128050Y90868D01*
X1128351Y90615D01*
X1128645Y90355D01*
X1128933Y90088D01*
X1129214Y89814D01*
X1129488Y89533D01*
X1129755Y89245D01*
X1130015Y88951D01*
X1130268Y88650D01*
X1130514Y88344D01*
X1130751Y88031D01*
X1130981Y87713D01*
X1131204Y87389D01*
X1131418Y87060D01*
X1131624Y86726D01*
X1131821Y86386D01*
X1132011Y86042D01*
X1132192Y85694D01*
X1132364Y85341D01*
X1132527Y84984D01*
X1132682Y84623D01*
X1132828Y84258D01*
X1132965Y83890D01*
X1133092Y83519D01*
X1133211Y83145D01*
X1133320Y82767D01*
X1133421Y82388D01*
X1133511Y82006D01*
X1133593Y81621D01*
X1133664Y81235D01*
X1133727Y80848D01*
X1133780Y80459D01*
X1133823Y80068D01*
X1133857Y79677D01*
X1133881Y79285D01*
X1133895Y78893D01*
X1133900Y78500D01*
X1133895Y78107D01*
X1133881Y77715D01*
X1133857Y77323D01*
X1133823Y76932D01*
X1133780Y76541D01*
X1133727Y76152D01*
X1133664Y75765D01*
X1133593Y75379D01*
X1133511Y74994D01*
X1133421Y74612D01*
X1133320Y74233D01*
X1133211Y73855D01*
X1133092Y73481D01*
X1132965Y73110D01*
X1132828Y72742D01*
X1132682Y72377D01*
X1132527Y72016D01*
X1132364Y71659D01*
X1132192Y71306D01*
X1132011Y70958D01*
X1131821Y70614D01*
X1131624Y70274D01*
X1131418Y69940D01*
X1131204Y69611D01*
X1130981Y69287D01*
X1130751Y68969D01*
X1130514Y68656D01*
X1130268Y68350D01*
X1130015Y68049D01*
X1129755Y67755D01*
X1129488Y67467D01*
X1129214Y67186D01*
X1128933Y66912D01*
X1128645Y66645D01*
X1128351Y66385D01*
X1128050Y66132D01*
X1127744Y65886D01*
X1127431Y65649D01*
X1127113Y65419D01*
X1126789Y65196D01*
X1126460Y64982D01*
X1126126Y64776D01*
X1125786Y64579D01*
X1125442Y64389D01*
X1125094Y64208D01*
X1124741Y64036D01*
X1124384Y63873D01*
X1124023Y63718D01*
X1123658Y63572D01*
X1123290Y63435D01*
X1122919Y63308D01*
X1122545Y63189D01*
X1122167Y63080D01*
X1121788Y62979D01*
X1121406Y62889D01*
X1121021Y62807D01*
X1120635Y62736D01*
X1120248Y62673D01*
X1119859Y62620D01*
X1119468Y62577D01*
X1119077Y62543D01*
X1118685Y62519D01*
X1118293Y62505D01*
X1117900Y62500D01*
X1117507Y62505D01*
X1117115Y62519D01*
X1116723Y62543D01*
X1116332Y62577D01*
X1115941Y62620D01*
X1115552Y62673D01*
X1115165Y62736D01*
X1114779Y62807D01*
X1114394Y62889D01*
X1114012Y62979D01*
X1113633Y63080D01*
X1113255Y63189D01*
X1112881Y63308D01*
X1112510Y63435D01*
X1112142Y63572D01*
X1111777Y63718D01*
X1111416Y63873D01*
X1111059Y64036D01*
X1110706Y64208D01*
X1110358Y64389D01*
X1110014Y64579D01*
X1109674Y64776D01*
X1109340Y64982D01*
X1109011Y65196D01*
X1108687Y65419D01*
X1108369Y65649D01*
X1108056Y65886D01*
X1107750Y66132D01*
X1107449Y66385D01*
X1107155Y66645D01*
X1106867Y66912D01*
X1106586Y67186D01*
X1106312Y67467D01*
X1106045Y67755D01*
X1105785Y68049D01*
X1105532Y68350D01*
X1105286Y68656D01*
X1105049Y68969D01*
X1104819Y69287D01*
X1104596Y69611D01*
X1104382Y69940D01*
X1104176Y70274D01*
X1103979Y70614D01*
X1103789Y70958D01*
X1103608Y71306D01*
X1103436Y71659D01*
X1103273Y72016D01*
X1103118Y72377D01*
X1102972Y72742D01*
X1102835Y73110D01*
X1102708Y73481D01*
X1102589Y73855D01*
X1102480Y74233D01*
X1102379Y74612D01*
X1102289Y74994D01*
X1102207Y75379D01*
X1102136Y75765D01*
X1102073Y76152D01*
X1102020Y76541D01*
X1101977Y76932D01*
X1101943Y77323D01*
X1101919Y77715D01*
X1101905Y78107D01*
X1101900Y78500D01*
X773430Y740410D02*
X773432Y740543D01*
X773438Y740676D01*
X773448Y740808D01*
X773462Y740941D01*
X773480Y741072D01*
X773501Y741204D01*
X773527Y741334D01*
X773557Y741464D01*
X773590Y741593D01*
X773627Y741720D01*
X773669Y741847D01*
X773713Y741972D01*
X773762Y742096D01*
X773814Y742218D01*
X773870Y742339D01*
X773930Y742458D01*
X773993Y742575D01*
X774059Y742690D01*
X774129Y742803D01*
X774202Y742914D01*
X774279Y743023D01*
X774359Y743129D01*
X774442Y743233D01*
X774528Y743335D01*
X774617Y743433D01*
X774708Y743529D01*
X774803Y743623D01*
X774901Y743713D01*
X775001Y743801D01*
X775104Y743885D01*
X775209Y743967D01*
X775316Y744045D01*
X775426Y744120D01*
X775538Y744191D01*
X775653Y744259D01*
X775769Y744324D01*
X775887Y744386D01*
X776007Y744443D01*
X776128Y744497D01*
X776251Y744548D01*
X776376Y744594D01*
X776501Y744637D01*
X776629Y744677D01*
X776757Y744712D01*
X776886Y744744D01*
X777016Y744771D01*
X777147Y744795D01*
X777278Y744815D01*
X777410Y744831D01*
X777543Y744843D01*
X777676Y744851D01*
X777809Y744855D01*
X777941Y744855D01*
X778074Y744851D01*
X778207Y744843D01*
X778340Y744831D01*
X778472Y744815D01*
X778603Y744795D01*
X778734Y744771D01*
X778864Y744744D01*
X778993Y744712D01*
X779121Y744677D01*
X779249Y744637D01*
X779374Y744594D01*
X779499Y744548D01*
X779622Y744497D01*
X779743Y744443D01*
X779863Y744386D01*
X779981Y744324D01*
X780098Y744259D01*
X780212Y744191D01*
X780324Y744120D01*
X780434Y744045D01*
X780541Y743967D01*
X780646Y743885D01*
X780749Y743801D01*
X780849Y743713D01*
X780947Y743623D01*
X781042Y743529D01*
X781133Y743433D01*
X781222Y743335D01*
X781308Y743233D01*
X781391Y743129D01*
X781471Y743023D01*
X781548Y742914D01*
X781621Y742803D01*
X781691Y742690D01*
X781757Y742575D01*
X781820Y742458D01*
X781880Y742339D01*
X781936Y742218D01*
X781988Y742096D01*
X782037Y741972D01*
X782081Y741847D01*
X782123Y741720D01*
X782160Y741593D01*
X782193Y741464D01*
X782223Y741334D01*
X782249Y741204D01*
X782270Y741072D01*
X782288Y740941D01*
X782302Y740808D01*
X782312Y740676D01*
X782318Y740543D01*
X782320Y740410D01*
X782318Y740277D01*
X782312Y740144D01*
X782302Y740012D01*
X782288Y739879D01*
X782270Y739748D01*
X782249Y739616D01*
X782223Y739486D01*
X782193Y739356D01*
X782160Y739227D01*
X782123Y739100D01*
X782081Y738973D01*
X782037Y738848D01*
X781988Y738724D01*
X781936Y738602D01*
X781880Y738481D01*
X781820Y738362D01*
X781757Y738245D01*
X781691Y738130D01*
X781621Y738017D01*
X781548Y737906D01*
X781471Y737797D01*
X781391Y737691D01*
X781308Y737587D01*
X781222Y737485D01*
X781133Y737387D01*
X781042Y737291D01*
X780947Y737197D01*
X780849Y737107D01*
X780749Y737019D01*
X780646Y736935D01*
X780541Y736853D01*
X780434Y736775D01*
X780324Y736700D01*
X780212Y736629D01*
X780097Y736561D01*
X779981Y736496D01*
X779863Y736434D01*
X779743Y736377D01*
X779622Y736323D01*
X779499Y736272D01*
X779374Y736226D01*
X779249Y736183D01*
X779121Y736143D01*
X778993Y736108D01*
X778864Y736076D01*
X778734Y736049D01*
X778603Y736025D01*
X778472Y736005D01*
X778340Y735989D01*
X778207Y735977D01*
X778074Y735969D01*
X777941Y735965D01*
X777809Y735965D01*
X777676Y735969D01*
X777543Y735977D01*
X777410Y735989D01*
X777278Y736005D01*
X777147Y736025D01*
X777016Y736049D01*
X776886Y736076D01*
X776757Y736108D01*
X776629Y736143D01*
X776501Y736183D01*
X776376Y736226D01*
X776251Y736272D01*
X776128Y736323D01*
X776007Y736377D01*
X775887Y736434D01*
X775769Y736496D01*
X775652Y736561D01*
X775538Y736629D01*
X775426Y736700D01*
X775316Y736775D01*
X775209Y736853D01*
X775104Y736935D01*
X775001Y737019D01*
X774901Y737107D01*
X774803Y737197D01*
X774708Y737291D01*
X774617Y737387D01*
X774528Y737485D01*
X774442Y737587D01*
X774359Y737691D01*
X774279Y737797D01*
X774202Y737906D01*
X774129Y738017D01*
X774059Y738130D01*
X773993Y738245D01*
X773930Y738362D01*
X773870Y738481D01*
X773814Y738602D01*
X773762Y738724D01*
X773713Y738848D01*
X773669Y738973D01*
X773627Y739100D01*
X773590Y739227D01*
X773557Y739356D01*
X773527Y739486D01*
X773501Y739616D01*
X773480Y739748D01*
X773462Y739879D01*
X773448Y740012D01*
X773438Y740144D01*
X773432Y740277D01*
X773430Y740410D01*
X722630Y750570D02*
X722632Y750703D01*
X722638Y750836D01*
X722648Y750968D01*
X722662Y751101D01*
X722680Y751232D01*
X722701Y751364D01*
X722727Y751494D01*
X722757Y751624D01*
X722790Y751753D01*
X722827Y751880D01*
X722869Y752007D01*
X722913Y752132D01*
X722962Y752256D01*
X723014Y752378D01*
X723070Y752499D01*
X723130Y752618D01*
X723193Y752735D01*
X723259Y752850D01*
X723329Y752963D01*
X723402Y753074D01*
X723479Y753183D01*
X723559Y753289D01*
X723642Y753393D01*
X723728Y753495D01*
X723817Y753593D01*
X723908Y753689D01*
X724003Y753783D01*
X724101Y753873D01*
X724201Y753961D01*
X724304Y754045D01*
X724409Y754127D01*
X724516Y754205D01*
X724626Y754280D01*
X724738Y754351D01*
X724853Y754419D01*
X724969Y754484D01*
X725087Y754546D01*
X725207Y754603D01*
X725328Y754657D01*
X725451Y754708D01*
X725576Y754754D01*
X725701Y754797D01*
X725829Y754837D01*
X725957Y754872D01*
X726086Y754904D01*
X726216Y754931D01*
X726347Y754955D01*
X726478Y754975D01*
X726610Y754991D01*
X726743Y755003D01*
X726876Y755011D01*
X727009Y755015D01*
X727141Y755015D01*
X727274Y755011D01*
X727407Y755003D01*
X727540Y754991D01*
X727672Y754975D01*
X727803Y754955D01*
X727934Y754931D01*
X728064Y754904D01*
X728193Y754872D01*
X728321Y754837D01*
X728449Y754797D01*
X728574Y754754D01*
X728699Y754708D01*
X728822Y754657D01*
X728943Y754603D01*
X729063Y754546D01*
X729181Y754484D01*
X729298Y754419D01*
X729412Y754351D01*
X729524Y754280D01*
X729634Y754205D01*
X729741Y754127D01*
X729846Y754045D01*
X729949Y753961D01*
X730049Y753873D01*
X730147Y753783D01*
X730242Y753689D01*
X730333Y753593D01*
X730422Y753495D01*
X730508Y753393D01*
X730591Y753289D01*
X730671Y753183D01*
X730748Y753074D01*
X730821Y752963D01*
X730891Y752850D01*
X730957Y752735D01*
X731020Y752618D01*
X731080Y752499D01*
X731136Y752378D01*
X731188Y752256D01*
X731237Y752132D01*
X731281Y752007D01*
X731323Y751880D01*
X731360Y751753D01*
X731393Y751624D01*
X731423Y751494D01*
X731449Y751364D01*
X731470Y751232D01*
X731488Y751101D01*
X731502Y750968D01*
X731512Y750836D01*
X731518Y750703D01*
X731520Y750570D01*
X731518Y750437D01*
X731512Y750304D01*
X731502Y750172D01*
X731488Y750039D01*
X731470Y749908D01*
X731449Y749776D01*
X731423Y749646D01*
X731393Y749516D01*
X731360Y749387D01*
X731323Y749260D01*
X731281Y749133D01*
X731237Y749008D01*
X731188Y748884D01*
X731136Y748762D01*
X731080Y748641D01*
X731020Y748522D01*
X730957Y748405D01*
X730891Y748290D01*
X730821Y748177D01*
X730748Y748066D01*
X730671Y747957D01*
X730591Y747851D01*
X730508Y747747D01*
X730422Y747645D01*
X730333Y747547D01*
X730242Y747451D01*
X730147Y747357D01*
X730049Y747267D01*
X729949Y747179D01*
X729846Y747095D01*
X729741Y747013D01*
X729634Y746935D01*
X729524Y746860D01*
X729412Y746789D01*
X729297Y746721D01*
X729181Y746656D01*
X729063Y746594D01*
X728943Y746537D01*
X728822Y746483D01*
X728699Y746432D01*
X728574Y746386D01*
X728449Y746343D01*
X728321Y746303D01*
X728193Y746268D01*
X728064Y746236D01*
X727934Y746209D01*
X727803Y746185D01*
X727672Y746165D01*
X727540Y746149D01*
X727407Y746137D01*
X727274Y746129D01*
X727141Y746125D01*
X727009Y746125D01*
X726876Y746129D01*
X726743Y746137D01*
X726610Y746149D01*
X726478Y746165D01*
X726347Y746185D01*
X726216Y746209D01*
X726086Y746236D01*
X725957Y746268D01*
X725829Y746303D01*
X725701Y746343D01*
X725576Y746386D01*
X725451Y746432D01*
X725328Y746483D01*
X725207Y746537D01*
X725087Y746594D01*
X724969Y746656D01*
X724852Y746721D01*
X724738Y746789D01*
X724626Y746860D01*
X724516Y746935D01*
X724409Y747013D01*
X724304Y747095D01*
X724201Y747179D01*
X724101Y747267D01*
X724003Y747357D01*
X723908Y747451D01*
X723817Y747547D01*
X723728Y747645D01*
X723642Y747747D01*
X723559Y747851D01*
X723479Y747957D01*
X723402Y748066D01*
X723329Y748177D01*
X723259Y748290D01*
X723193Y748405D01*
X723130Y748522D01*
X723070Y748641D01*
X723014Y748762D01*
X722962Y748884D01*
X722913Y749008D01*
X722869Y749133D01*
X722827Y749260D01*
X722790Y749387D01*
X722757Y749516D01*
X722727Y749646D01*
X722701Y749776D01*
X722680Y749908D01*
X722662Y750039D01*
X722648Y750172D01*
X722638Y750304D01*
X722632Y750437D01*
X722630Y750570D01*
X722630Y730250D02*
X722632Y730383D01*
X722638Y730516D01*
X722648Y730648D01*
X722662Y730781D01*
X722680Y730912D01*
X722701Y731044D01*
X722727Y731174D01*
X722757Y731304D01*
X722790Y731433D01*
X722827Y731560D01*
X722869Y731687D01*
X722913Y731812D01*
X722962Y731936D01*
X723014Y732058D01*
X723070Y732179D01*
X723130Y732298D01*
X723193Y732415D01*
X723259Y732530D01*
X723329Y732643D01*
X723402Y732754D01*
X723479Y732863D01*
X723559Y732969D01*
X723642Y733073D01*
X723728Y733175D01*
X723817Y733273D01*
X723908Y733369D01*
X724003Y733463D01*
X724101Y733553D01*
X724201Y733641D01*
X724304Y733725D01*
X724409Y733807D01*
X724516Y733885D01*
X724626Y733960D01*
X724738Y734031D01*
X724853Y734099D01*
X724969Y734164D01*
X725087Y734226D01*
X725207Y734283D01*
X725328Y734337D01*
X725451Y734388D01*
X725576Y734434D01*
X725701Y734477D01*
X725829Y734517D01*
X725957Y734552D01*
X726086Y734584D01*
X726216Y734611D01*
X726347Y734635D01*
X726478Y734655D01*
X726610Y734671D01*
X726743Y734683D01*
X726876Y734691D01*
X727009Y734695D01*
X727141Y734695D01*
X727274Y734691D01*
X727407Y734683D01*
X727540Y734671D01*
X727672Y734655D01*
X727803Y734635D01*
X727934Y734611D01*
X728064Y734584D01*
X728193Y734552D01*
X728321Y734517D01*
X728449Y734477D01*
X728574Y734434D01*
X728699Y734388D01*
X728822Y734337D01*
X728943Y734283D01*
X729063Y734226D01*
X729181Y734164D01*
X729298Y734099D01*
X729412Y734031D01*
X729524Y733960D01*
X729634Y733885D01*
X729741Y733807D01*
X729846Y733725D01*
X729949Y733641D01*
X730049Y733553D01*
X730147Y733463D01*
X730242Y733369D01*
X730333Y733273D01*
X730422Y733175D01*
X730508Y733073D01*
X730591Y732969D01*
X730671Y732863D01*
X730748Y732754D01*
X730821Y732643D01*
X730891Y732530D01*
X730957Y732415D01*
X731020Y732298D01*
X731080Y732179D01*
X731136Y732058D01*
X731188Y731936D01*
X731237Y731812D01*
X731281Y731687D01*
X731323Y731560D01*
X731360Y731433D01*
X731393Y731304D01*
X731423Y731174D01*
X731449Y731044D01*
X731470Y730912D01*
X731488Y730781D01*
X731502Y730648D01*
X731512Y730516D01*
X731518Y730383D01*
X731520Y730250D01*
X731518Y730117D01*
X731512Y729984D01*
X731502Y729852D01*
X731488Y729719D01*
X731470Y729588D01*
X731449Y729456D01*
X731423Y729326D01*
X731393Y729196D01*
X731360Y729067D01*
X731323Y728940D01*
X731281Y728813D01*
X731237Y728688D01*
X731188Y728564D01*
X731136Y728442D01*
X731080Y728321D01*
X731020Y728202D01*
X730957Y728085D01*
X730891Y727970D01*
X730821Y727857D01*
X730748Y727746D01*
X730671Y727637D01*
X730591Y727531D01*
X730508Y727427D01*
X730422Y727325D01*
X730333Y727227D01*
X730242Y727131D01*
X730147Y727037D01*
X730049Y726947D01*
X729949Y726859D01*
X729846Y726775D01*
X729741Y726693D01*
X729634Y726615D01*
X729524Y726540D01*
X729412Y726469D01*
X729297Y726401D01*
X729181Y726336D01*
X729063Y726274D01*
X728943Y726217D01*
X728822Y726163D01*
X728699Y726112D01*
X728574Y726066D01*
X728449Y726023D01*
X728321Y725983D01*
X728193Y725948D01*
X728064Y725916D01*
X727934Y725889D01*
X727803Y725865D01*
X727672Y725845D01*
X727540Y725829D01*
X727407Y725817D01*
X727274Y725809D01*
X727141Y725805D01*
X727009Y725805D01*
X726876Y725809D01*
X726743Y725817D01*
X726610Y725829D01*
X726478Y725845D01*
X726347Y725865D01*
X726216Y725889D01*
X726086Y725916D01*
X725957Y725948D01*
X725829Y725983D01*
X725701Y726023D01*
X725576Y726066D01*
X725451Y726112D01*
X725328Y726163D01*
X725207Y726217D01*
X725087Y726274D01*
X724969Y726336D01*
X724852Y726401D01*
X724738Y726469D01*
X724626Y726540D01*
X724516Y726615D01*
X724409Y726693D01*
X724304Y726775D01*
X724201Y726859D01*
X724101Y726947D01*
X724003Y727037D01*
X723908Y727131D01*
X723817Y727227D01*
X723728Y727325D01*
X723642Y727427D01*
X723559Y727531D01*
X723479Y727637D01*
X723402Y727746D01*
X723329Y727857D01*
X723259Y727970D01*
X723193Y728085D01*
X723130Y728202D01*
X723070Y728321D01*
X723014Y728442D01*
X722962Y728564D01*
X722913Y728688D01*
X722869Y728813D01*
X722827Y728940D01*
X722790Y729067D01*
X722757Y729196D01*
X722727Y729326D01*
X722701Y729456D01*
X722680Y729588D01*
X722662Y729719D01*
X722648Y729852D01*
X722638Y729984D01*
X722632Y730117D01*
X722630Y730250D01*
X691515Y411480D02*
X691517Y411613D01*
X691523Y411746D01*
X691533Y411878D01*
X691547Y412011D01*
X691565Y412142D01*
X691586Y412274D01*
X691612Y412404D01*
X691642Y412534D01*
X691675Y412663D01*
X691712Y412790D01*
X691754Y412917D01*
X691798Y413042D01*
X691847Y413166D01*
X691899Y413288D01*
X691955Y413409D01*
X692015Y413528D01*
X692078Y413645D01*
X692144Y413760D01*
X692214Y413873D01*
X692287Y413984D01*
X692364Y414093D01*
X692444Y414199D01*
X692527Y414303D01*
X692613Y414405D01*
X692702Y414503D01*
X692793Y414599D01*
X692888Y414693D01*
X692986Y414783D01*
X693086Y414871D01*
X693189Y414955D01*
X693294Y415037D01*
X693401Y415115D01*
X693511Y415190D01*
X693623Y415261D01*
X693738Y415329D01*
X693854Y415394D01*
X693972Y415456D01*
X694092Y415513D01*
X694213Y415567D01*
X694336Y415618D01*
X694461Y415664D01*
X694586Y415707D01*
X694714Y415747D01*
X694842Y415782D01*
X694971Y415814D01*
X695101Y415841D01*
X695232Y415865D01*
X695363Y415885D01*
X695495Y415901D01*
X695628Y415913D01*
X695761Y415921D01*
X695894Y415925D01*
X696026Y415925D01*
X696159Y415921D01*
X696292Y415913D01*
X696425Y415901D01*
X696557Y415885D01*
X696688Y415865D01*
X696819Y415841D01*
X696949Y415814D01*
X697078Y415782D01*
X697206Y415747D01*
X697334Y415707D01*
X697459Y415664D01*
X697584Y415618D01*
X697707Y415567D01*
X697828Y415513D01*
X697948Y415456D01*
X698066Y415394D01*
X698183Y415329D01*
X698297Y415261D01*
X698409Y415190D01*
X698519Y415115D01*
X698626Y415037D01*
X698731Y414955D01*
X698834Y414871D01*
X698934Y414783D01*
X699032Y414693D01*
X699127Y414599D01*
X699218Y414503D01*
X699307Y414405D01*
X699393Y414303D01*
X699476Y414199D01*
X699556Y414093D01*
X699633Y413984D01*
X699706Y413873D01*
X699776Y413760D01*
X699842Y413645D01*
X699905Y413528D01*
X699965Y413409D01*
X700021Y413288D01*
X700073Y413166D01*
X700122Y413042D01*
X700166Y412917D01*
X700208Y412790D01*
X700245Y412663D01*
X700278Y412534D01*
X700308Y412404D01*
X700334Y412274D01*
X700355Y412142D01*
X700373Y412011D01*
X700387Y411878D01*
X700397Y411746D01*
X700403Y411613D01*
X700405Y411480D01*
X700403Y411347D01*
X700397Y411214D01*
X700387Y411082D01*
X700373Y410949D01*
X700355Y410818D01*
X700334Y410686D01*
X700308Y410556D01*
X700278Y410426D01*
X700245Y410297D01*
X700208Y410170D01*
X700166Y410043D01*
X700122Y409918D01*
X700073Y409794D01*
X700021Y409672D01*
X699965Y409551D01*
X699905Y409432D01*
X699842Y409315D01*
X699776Y409200D01*
X699706Y409087D01*
X699633Y408976D01*
X699556Y408867D01*
X699476Y408761D01*
X699393Y408657D01*
X699307Y408555D01*
X699218Y408457D01*
X699127Y408361D01*
X699032Y408267D01*
X698934Y408177D01*
X698834Y408089D01*
X698731Y408005D01*
X698626Y407923D01*
X698519Y407845D01*
X698409Y407770D01*
X698297Y407699D01*
X698182Y407631D01*
X698066Y407566D01*
X697948Y407504D01*
X697828Y407447D01*
X697707Y407393D01*
X697584Y407342D01*
X697459Y407296D01*
X697334Y407253D01*
X697206Y407213D01*
X697078Y407178D01*
X696949Y407146D01*
X696819Y407119D01*
X696688Y407095D01*
X696557Y407075D01*
X696425Y407059D01*
X696292Y407047D01*
X696159Y407039D01*
X696026Y407035D01*
X695894Y407035D01*
X695761Y407039D01*
X695628Y407047D01*
X695495Y407059D01*
X695363Y407075D01*
X695232Y407095D01*
X695101Y407119D01*
X694971Y407146D01*
X694842Y407178D01*
X694714Y407213D01*
X694586Y407253D01*
X694461Y407296D01*
X694336Y407342D01*
X694213Y407393D01*
X694092Y407447D01*
X693972Y407504D01*
X693854Y407566D01*
X693737Y407631D01*
X693623Y407699D01*
X693511Y407770D01*
X693401Y407845D01*
X693294Y407923D01*
X693189Y408005D01*
X693086Y408089D01*
X692986Y408177D01*
X692888Y408267D01*
X692793Y408361D01*
X692702Y408457D01*
X692613Y408555D01*
X692527Y408657D01*
X692444Y408761D01*
X692364Y408867D01*
X692287Y408976D01*
X692214Y409087D01*
X692144Y409200D01*
X692078Y409315D01*
X692015Y409432D01*
X691955Y409551D01*
X691899Y409672D01*
X691847Y409794D01*
X691798Y409918D01*
X691754Y410043D01*
X691712Y410170D01*
X691675Y410297D01*
X691642Y410426D01*
X691612Y410556D01*
X691586Y410686D01*
X691565Y410818D01*
X691547Y410949D01*
X691533Y411082D01*
X691523Y411214D01*
X691517Y411347D01*
X691515Y411480D01*
X701675Y462280D02*
X701677Y462413D01*
X701683Y462546D01*
X701693Y462678D01*
X701707Y462811D01*
X701725Y462942D01*
X701746Y463074D01*
X701772Y463204D01*
X701802Y463334D01*
X701835Y463463D01*
X701872Y463590D01*
X701914Y463717D01*
X701958Y463842D01*
X702007Y463966D01*
X702059Y464088D01*
X702115Y464209D01*
X702175Y464328D01*
X702238Y464445D01*
X702304Y464560D01*
X702374Y464673D01*
X702447Y464784D01*
X702524Y464893D01*
X702604Y464999D01*
X702687Y465103D01*
X702773Y465205D01*
X702862Y465303D01*
X702953Y465399D01*
X703048Y465493D01*
X703146Y465583D01*
X703246Y465671D01*
X703349Y465755D01*
X703454Y465837D01*
X703561Y465915D01*
X703671Y465990D01*
X703783Y466061D01*
X703898Y466129D01*
X704014Y466194D01*
X704132Y466256D01*
X704252Y466313D01*
X704373Y466367D01*
X704496Y466418D01*
X704621Y466464D01*
X704746Y466507D01*
X704874Y466547D01*
X705002Y466582D01*
X705131Y466614D01*
X705261Y466641D01*
X705392Y466665D01*
X705523Y466685D01*
X705655Y466701D01*
X705788Y466713D01*
X705921Y466721D01*
X706054Y466725D01*
X706186Y466725D01*
X706319Y466721D01*
X706452Y466713D01*
X706585Y466701D01*
X706717Y466685D01*
X706848Y466665D01*
X706979Y466641D01*
X707109Y466614D01*
X707238Y466582D01*
X707366Y466547D01*
X707494Y466507D01*
X707619Y466464D01*
X707744Y466418D01*
X707867Y466367D01*
X707988Y466313D01*
X708108Y466256D01*
X708226Y466194D01*
X708343Y466129D01*
X708457Y466061D01*
X708569Y465990D01*
X708679Y465915D01*
X708786Y465837D01*
X708891Y465755D01*
X708994Y465671D01*
X709094Y465583D01*
X709192Y465493D01*
X709287Y465399D01*
X709378Y465303D01*
X709467Y465205D01*
X709553Y465103D01*
X709636Y464999D01*
X709716Y464893D01*
X709793Y464784D01*
X709866Y464673D01*
X709936Y464560D01*
X710002Y464445D01*
X710065Y464328D01*
X710125Y464209D01*
X710181Y464088D01*
X710233Y463966D01*
X710282Y463842D01*
X710326Y463717D01*
X710368Y463590D01*
X710405Y463463D01*
X710438Y463334D01*
X710468Y463204D01*
X710494Y463074D01*
X710515Y462942D01*
X710533Y462811D01*
X710547Y462678D01*
X710557Y462546D01*
X710563Y462413D01*
X710565Y462280D01*
X710563Y462147D01*
X710557Y462014D01*
X710547Y461882D01*
X710533Y461749D01*
X710515Y461618D01*
X710494Y461486D01*
X710468Y461356D01*
X710438Y461226D01*
X710405Y461097D01*
X710368Y460970D01*
X710326Y460843D01*
X710282Y460718D01*
X710233Y460594D01*
X710181Y460472D01*
X710125Y460351D01*
X710065Y460232D01*
X710002Y460115D01*
X709936Y460000D01*
X709866Y459887D01*
X709793Y459776D01*
X709716Y459667D01*
X709636Y459561D01*
X709553Y459457D01*
X709467Y459355D01*
X709378Y459257D01*
X709287Y459161D01*
X709192Y459067D01*
X709094Y458977D01*
X708994Y458889D01*
X708891Y458805D01*
X708786Y458723D01*
X708679Y458645D01*
X708569Y458570D01*
X708457Y458499D01*
X708342Y458431D01*
X708226Y458366D01*
X708108Y458304D01*
X707988Y458247D01*
X707867Y458193D01*
X707744Y458142D01*
X707619Y458096D01*
X707494Y458053D01*
X707366Y458013D01*
X707238Y457978D01*
X707109Y457946D01*
X706979Y457919D01*
X706848Y457895D01*
X706717Y457875D01*
X706585Y457859D01*
X706452Y457847D01*
X706319Y457839D01*
X706186Y457835D01*
X706054Y457835D01*
X705921Y457839D01*
X705788Y457847D01*
X705655Y457859D01*
X705523Y457875D01*
X705392Y457895D01*
X705261Y457919D01*
X705131Y457946D01*
X705002Y457978D01*
X704874Y458013D01*
X704746Y458053D01*
X704621Y458096D01*
X704496Y458142D01*
X704373Y458193D01*
X704252Y458247D01*
X704132Y458304D01*
X704014Y458366D01*
X703897Y458431D01*
X703783Y458499D01*
X703671Y458570D01*
X703561Y458645D01*
X703454Y458723D01*
X703349Y458805D01*
X703246Y458889D01*
X703146Y458977D01*
X703048Y459067D01*
X702953Y459161D01*
X702862Y459257D01*
X702773Y459355D01*
X702687Y459457D01*
X702604Y459561D01*
X702524Y459667D01*
X702447Y459776D01*
X702374Y459887D01*
X702304Y460000D01*
X702238Y460115D01*
X702175Y460232D01*
X702115Y460351D01*
X702059Y460472D01*
X702007Y460594D01*
X701958Y460718D01*
X701914Y460843D01*
X701872Y460970D01*
X701835Y461097D01*
X701802Y461226D01*
X701772Y461356D01*
X701746Y461486D01*
X701725Y461618D01*
X701707Y461749D01*
X701693Y461882D01*
X701683Y462014D01*
X701677Y462147D01*
X701675Y462280D01*
X681355Y462280D02*
X681357Y462413D01*
X681363Y462546D01*
X681373Y462678D01*
X681387Y462811D01*
X681405Y462942D01*
X681426Y463074D01*
X681452Y463204D01*
X681482Y463334D01*
X681515Y463463D01*
X681552Y463590D01*
X681594Y463717D01*
X681638Y463842D01*
X681687Y463966D01*
X681739Y464088D01*
X681795Y464209D01*
X681855Y464328D01*
X681918Y464445D01*
X681984Y464560D01*
X682054Y464673D01*
X682127Y464784D01*
X682204Y464893D01*
X682284Y464999D01*
X682367Y465103D01*
X682453Y465205D01*
X682542Y465303D01*
X682633Y465399D01*
X682728Y465493D01*
X682826Y465583D01*
X682926Y465671D01*
X683029Y465755D01*
X683134Y465837D01*
X683241Y465915D01*
X683351Y465990D01*
X683463Y466061D01*
X683578Y466129D01*
X683694Y466194D01*
X683812Y466256D01*
X683932Y466313D01*
X684053Y466367D01*
X684176Y466418D01*
X684301Y466464D01*
X684426Y466507D01*
X684554Y466547D01*
X684682Y466582D01*
X684811Y466614D01*
X684941Y466641D01*
X685072Y466665D01*
X685203Y466685D01*
X685335Y466701D01*
X685468Y466713D01*
X685601Y466721D01*
X685734Y466725D01*
X685866Y466725D01*
X685999Y466721D01*
X686132Y466713D01*
X686265Y466701D01*
X686397Y466685D01*
X686528Y466665D01*
X686659Y466641D01*
X686789Y466614D01*
X686918Y466582D01*
X687046Y466547D01*
X687174Y466507D01*
X687299Y466464D01*
X687424Y466418D01*
X687547Y466367D01*
X687668Y466313D01*
X687788Y466256D01*
X687906Y466194D01*
X688023Y466129D01*
X688137Y466061D01*
X688249Y465990D01*
X688359Y465915D01*
X688466Y465837D01*
X688571Y465755D01*
X688674Y465671D01*
X688774Y465583D01*
X688872Y465493D01*
X688967Y465399D01*
X689058Y465303D01*
X689147Y465205D01*
X689233Y465103D01*
X689316Y464999D01*
X689396Y464893D01*
X689473Y464784D01*
X689546Y464673D01*
X689616Y464560D01*
X689682Y464445D01*
X689745Y464328D01*
X689805Y464209D01*
X689861Y464088D01*
X689913Y463966D01*
X689962Y463842D01*
X690006Y463717D01*
X690048Y463590D01*
X690085Y463463D01*
X690118Y463334D01*
X690148Y463204D01*
X690174Y463074D01*
X690195Y462942D01*
X690213Y462811D01*
X690227Y462678D01*
X690237Y462546D01*
X690243Y462413D01*
X690245Y462280D01*
X690243Y462147D01*
X690237Y462014D01*
X690227Y461882D01*
X690213Y461749D01*
X690195Y461618D01*
X690174Y461486D01*
X690148Y461356D01*
X690118Y461226D01*
X690085Y461097D01*
X690048Y460970D01*
X690006Y460843D01*
X689962Y460718D01*
X689913Y460594D01*
X689861Y460472D01*
X689805Y460351D01*
X689745Y460232D01*
X689682Y460115D01*
X689616Y460000D01*
X689546Y459887D01*
X689473Y459776D01*
X689396Y459667D01*
X689316Y459561D01*
X689233Y459457D01*
X689147Y459355D01*
X689058Y459257D01*
X688967Y459161D01*
X688872Y459067D01*
X688774Y458977D01*
X688674Y458889D01*
X688571Y458805D01*
X688466Y458723D01*
X688359Y458645D01*
X688249Y458570D01*
X688137Y458499D01*
X688022Y458431D01*
X687906Y458366D01*
X687788Y458304D01*
X687668Y458247D01*
X687547Y458193D01*
X687424Y458142D01*
X687299Y458096D01*
X687174Y458053D01*
X687046Y458013D01*
X686918Y457978D01*
X686789Y457946D01*
X686659Y457919D01*
X686528Y457895D01*
X686397Y457875D01*
X686265Y457859D01*
X686132Y457847D01*
X685999Y457839D01*
X685866Y457835D01*
X685734Y457835D01*
X685601Y457839D01*
X685468Y457847D01*
X685335Y457859D01*
X685203Y457875D01*
X685072Y457895D01*
X684941Y457919D01*
X684811Y457946D01*
X684682Y457978D01*
X684554Y458013D01*
X684426Y458053D01*
X684301Y458096D01*
X684176Y458142D01*
X684053Y458193D01*
X683932Y458247D01*
X683812Y458304D01*
X683694Y458366D01*
X683577Y458431D01*
X683463Y458499D01*
X683351Y458570D01*
X683241Y458645D01*
X683134Y458723D01*
X683029Y458805D01*
X682926Y458889D01*
X682826Y458977D01*
X682728Y459067D01*
X682633Y459161D01*
X682542Y459257D01*
X682453Y459355D01*
X682367Y459457D01*
X682284Y459561D01*
X682204Y459667D01*
X682127Y459776D01*
X682054Y459887D01*
X681984Y460000D01*
X681918Y460115D01*
X681855Y460232D01*
X681795Y460351D01*
X681739Y460472D01*
X681687Y460594D01*
X681638Y460718D01*
X681594Y460843D01*
X681552Y460970D01*
X681515Y461097D01*
X681482Y461226D01*
X681452Y461356D01*
X681426Y461486D01*
X681405Y461618D01*
X681387Y461749D01*
X681373Y461882D01*
X681363Y462014D01*
X681357Y462147D01*
X681355Y462280D01*
M02*
