M48
;GenerationSoftware,Autodesk,EAGLE,9.5.2*%
;CreationDate,2021-04-16T12:37:50Z*%
FMAT,2
ICI,OFF
METRIC,TZ,000.000
T19C0.350
T18C0.400
T17C0.500
T16C0.850
T15C0.889
T14C0.970
T13C0.991
T12C1.000
T11C1.016
T10C1.100
T9C1.295
T8C1.321
T7C1.600
T6C1.650
T5C1.800
T4C2.500
T3C2.750
T2C3.200
%
G90
M71
T2
X111790Y7850
X100360Y7850
T3
X84463Y85145
X107462Y27144
X107462Y85145
X84463Y27144
T4
X123135Y71500
X19135Y71500
X123135Y17500
X19135Y17500
X63779Y81043
X39580Y81043
T5
X35560Y6722
T6
X113655Y10845
X98455Y10845
T7
X35560Y2223
X39180Y32893
T8
X28575Y60706
X69596Y52451
X24257Y64770
X24257Y58166
X29718Y16637
T9
X55270Y5982
X62281Y5982
T10
X64179Y32893
T11
X117348Y75692
X35687Y21336
X117348Y78232
X119888Y75692
X119888Y78232
X122428Y75692
X122428Y78232
X25400Y50673
X30480Y50673
X40767Y21336
X114808Y75692
X114808Y78232
T12
X110520Y16740
X101955Y2895
X110155Y2895
X112655Y2895
X99455Y2895
X101630Y14200
X104170Y14200
X106710Y14200
X102900Y16740
X105440Y16740
X107980Y16740
X109250Y14200
T13
X61011Y3492
X56515Y3492
T14
X83193Y34555
X85733Y57414
X85733Y59954
X85733Y62494
X85733Y65034
X85733Y54874
X85733Y67575
X85733Y70115
X85733Y72655
X85733Y75195
X85733Y77735
X83193Y32014
X85733Y52334
X85733Y49794
X85733Y47254
X85733Y44714
X83193Y52334
X85733Y42175
X85733Y39635
X85733Y37095
X85733Y34555
X85733Y32014
X83193Y80275
X85733Y80275
X83193Y39635
X83193Y77735
X83193Y75195
X83193Y72655
X83193Y70115
X83193Y67575
X83193Y65034
X83193Y62494
X83193Y59954
X83193Y57414
X83193Y54874
X83193Y37095
X83193Y49794
X83193Y47254
X83193Y44714
X83193Y42165
T15
X72708Y75057
X77788Y74041
X72708Y73025
X70612Y46228
X69596Y41148
X68580Y46228
T16
X50165Y7620
X47625Y7620
X50165Y5080
X47625Y5080
T17
X22352Y72263
T18
X69977Y73660
X80772Y75438
X81407Y80010
X81026Y72136
X106426Y56642
X55372Y59182
X55245Y31877
X69850Y86360
X106426Y60960
X67056Y32131
X64516Y27559
X106426Y8890
X92202Y52324
X92456Y55626
X97790Y58166
X102997Y63119
X54356Y60452
X72771Y79121
X117348Y8001
X114046Y59690
X119761Y8255
X115443Y60325
X52705Y22860
X92075Y54483
X78740Y75692
X79756Y71882
X62230Y26797
X112903Y49149
X103378Y47117
X102489Y47117
X50165Y39624
X54356Y30988
T19
X71628Y41275
X74422Y51689
X76708Y41656
X79629Y45974
M30