M48
;GenerationSoftware,Autodesk,EAGLE,9.5.2*%
;CreationDate,2021-05-07T18:33:02Z*%
FMAT,2
ICI,OFF
METRIC,TZ,000.000
T13C0.350
T12C0.850
T11C0.889
T10C0.970
T9C0.991
T8C1.016
T7C1.100
T6C1.295
T5C1.600
T4C1.780
T3C2.500
T2C2.800
%
G90
M71
T2
X3500Y52500
X61500Y52500
X3500Y3500
X61500Y3500
T3
X7815Y43227
X7815Y19027
T4
X55359Y52519
X9639Y52519
T5
X55965Y18627
T6
X15926Y6299
X8915Y6299
T7
X55965Y43627
T8
X36830Y4445
X34290Y6985
X34290Y4445
X31750Y6985
X36830Y6985
X29210Y4445
X29210Y6985
X31750Y4445
T9
X14656Y3810
X10160Y3810
T10
X10909Y51249
X56629Y53789
X8369Y51249
X33769Y53789
X54089Y53789
X51549Y53789
X49009Y53789
X46469Y53789
X43929Y53789
X41389Y53789
X38849Y53789
X36309Y53789
X31229Y53789
X36309Y51249
X56629Y51249
X54089Y51249
X51549Y51249
X49009Y51249
X46469Y51249
X43929Y51249
X41389Y51249
X38849Y51249
X13449Y51249
X33769Y51249
X31229Y51249
X28689Y51249
X26149Y51249
X23609Y51249
X21069Y51249
X18529Y51249
X15989Y51249
X28689Y53789
X26149Y53789
X23609Y53789
X21069Y53789
X18529Y53789
X15989Y53789
X13449Y53789
X10909Y53789
X8369Y53789
T11
X9144Y9525
X10160Y14605
X11176Y9525
T12
X21590Y5080
X24130Y5080
X21590Y7620
X24130Y7620
T13
X57150Y41910
X44450Y14605
X42545Y46355
X48260Y47625
X57150Y33655
X2540Y12700
X8255Y13970
X36195Y40640
X57150Y39370
X33655Y41275
X57150Y40640
X55245Y46990
X33020Y42545
X57785Y43815
X38100Y43815
X6350Y11430
X3175Y16510
X27305Y52705
X47625Y25400
X47625Y21590
X44450Y23495
X42545Y38100
X38735Y38100
X5080Y17145
X3810Y25400
X10160Y47625
X5715Y20955
X22225Y13970
X15875Y36830
X24765Y52705
X12065Y52705
X10795Y43815
X14605Y20320
X45085Y1905
X48895Y29845
X26035Y31750
X18415Y36830
X57150Y36195
M30