M48
;GenerationSoftware,Autodesk,EAGLE,9.5.2*%
;CreationDate,2021-02-23T16:22:53Z*%
FMAT,2
ICI,OFF
METRIC,TZ,000.000
T8C0.350
T7C0.889
T6C0.950
T5C0.970
T4C1.200
T3C2.300
T2C2.800
%
G90
M71
T2
X61499Y3505
X3499Y3505
X61499Y26500
X3499Y26500
T3
X7717Y2223
X20858Y2223
X57370Y2223
X44230Y2223
T4
X35980Y1270
X28995Y1219
T5
X56790Y27622
X16150Y25082
X13610Y25082
X11070Y25082
X26310Y25082
X54250Y27622
X51710Y27622
X49170Y27622
X46640Y27622
X44090Y27622
X41550Y27622
X39010Y27622
X36470Y27622
X33930Y27622
X41550Y25082
X8530Y25082
X8530Y27622
X56790Y25082
X54250Y25082
X51710Y25082
X49170Y25082
X46630Y25082
X44090Y25082
X18690Y25082
X39010Y25082
X36470Y25082
X33930Y25082
X31390Y25082
X28850Y25082
X18690Y27622
X23770Y25082
X21230Y25082
X28850Y27622
X26310Y27622
X23770Y27622
X21230Y27622
X16150Y27622
X13610Y27622
X11070Y27622
X31390Y27622
T6
X15287Y4933
X13287Y4933
X10788Y4933
X17788Y4933
X51800Y4933
X47300Y4933
X54300Y4933
X49800Y4933
T7
X1207Y14224
X3238Y14224
X2223Y9144
T8
X32004Y8382
X29972Y18034
X32512Y5588
X36639Y17463
X15240Y8128
X36068Y18034
X36875Y14732
X36068Y14732
X4826Y18034
X6096Y15748
X59944Y14224
X30779Y18034
M30