M48
;GenerationSoftware,Autodesk,EAGLE,9.5.2*%
;CreationDate,2020-04-24T11:00:47Z*%
FMAT,2
ICI,OFF
INCH,TZ,000.000
T18C0.012
T17C0.014
T16C0.035
T15C0.035
T14C0.036
T13C0.038
T12C0.040
T11C0.040
T10C0.043
T9C0.062
T8C0.063
T7C0.071
T6C0.091
T5C0.108
T4C0.118
T3C0.128
T2C0.157
%
G90
M72
T2
X3740Y1772
X1752Y3071
T3
X2660Y995
X2160Y995
T4
X3443Y1922
T5
X2491Y2136
X208Y2136
X2491Y4065
X208Y4065
T6
X2757Y3401
X2757Y3919
T7
X1660Y897
T8
X2090Y4570
X2106Y6554
X250Y4570
X1660Y720
X266Y6554
X3830Y4570
X3846Y6554
T9
X2728Y870
X2092Y870
T10
X4799Y6554
X4814Y4570
X3074Y4570
X1219Y6554
X1234Y4570
X3059Y6554
T11
X2650Y1795
X2550Y1795
X2270Y1795
X2170Y1795
T12
X4760Y3206
X4860Y3206
X4760Y3106
X4860Y3106
X4760Y3006
X4860Y3006
X4760Y2906
X4860Y2906
X4760Y2806
X4860Y2806
X4860Y3806
X4760Y2706
X4860Y3306
X4760Y3306
X4860Y3406
X4760Y3406
X4860Y3506
X4760Y3506
X4860Y3606
X4760Y3606
X4860Y3706
X4760Y3706
X4760Y3806
X4860Y1206
X4760Y1706
X4860Y1706
X4760Y1606
X4860Y1606
X4760Y906
X4860Y1006
X4760Y1006
X4860Y1106
X4760Y1106
X4860Y906
X4760Y1206
X4860Y1306
X4760Y1306
X4860Y1406
X4760Y1406
X4860Y1506
X4760Y1506
X4860Y2706
X4760Y2106
X4760Y2606
X4860Y2606
X4760Y2506
X4860Y2506
X4760Y2406
X4860Y2406
X4760Y2306
X4860Y2306
X4760Y2206
X4860Y2206
X4860Y1806
X4860Y2106
X4760Y2006
X4860Y2006
X4760Y1906
X4860Y1906
X4760Y1806
T13
X1399Y4115
X1499Y4115
X1599Y4115
X599Y4015
X1699Y4115
X1299Y4115
X1199Y4115
X1099Y4115
X999Y4115
X899Y4115
X799Y4115
X699Y4115
X599Y4115
X499Y4115
X1900Y4115
X399Y4015
X399Y4115
X2299Y4015
X2199Y4015
X2099Y4015
X1999Y4015
X1899Y4015
X1799Y4015
X1699Y4015
X1599Y4015
X1499Y4015
X1399Y4015
X1199Y4015
X1799Y4115
X1999Y4115
X2099Y4115
X2199Y4115
X2299Y4115
X499Y4015
X699Y4015
X799Y4015
X899Y4015
X999Y4015
X1099Y4015
X1299Y4015
T14
X1073Y1687
X1173Y1687
X1273Y1687
T15
X2864Y3798
X2864Y3699
X2864Y3621
X2864Y3522
T16
X2610Y1595
X2530Y1595
X2570Y1695
X2290Y1595
X2210Y1595
X2650Y1695
X2190Y1315
X2630Y1315
X2490Y1695
T17
X4150Y4390
X4380Y4110
X2760Y4520
X4540Y1920
X3100Y2700
X3600Y3830
X910Y4810
X3520Y3800
X940Y4580
X3660Y3850
X3820Y3800
X2720Y1480
X2760Y1490
X4310Y4880
X4570Y2510
X3630Y4420
X3690Y4680
X3240Y2560
X3830Y5920
X3570Y4620
X3530Y4410
X4510Y1820
X3890Y5950
X340Y4840
X820Y4850
X1430Y5860
X500Y4910
X850Y4620
X640Y4580
X890Y4630
X4380Y2710
X190Y960
X790Y3070
X560Y3050
X50Y1020
X110Y1020
X190Y1020
X240Y1020
X240Y960
X240Y900
X190Y900
X110Y900
X50Y900
X50Y960
X110Y960
X4410Y2170
X1670Y2170
X4080Y720
X1570Y2470
X4420Y3660
X4070Y4110
X3760Y4000
X3300Y3852
X3160Y3820
X3130Y4330
X2680Y4510
X3050Y6040
X3070Y2930
X3100Y2460
X4590Y4090
X4070Y3480
X1270Y1070
X3750Y5910
X3490Y6410
X3190Y3020
X1050Y3440
X920Y3320
X1400Y3440
X1300Y3490
X1500Y3570
X1500Y3380
X4660Y2860
X4680Y4260
X3220Y3250
X4590Y2610
X4650Y4050
X4620Y2710
X4680Y2920
X4810Y4500
X140Y3430
X600Y3240
X240Y700
X240Y770
X240Y840
X190Y840
X110Y840
X50Y840
X3260Y1400
X150Y3710
X3210Y3190
X1350Y3750
X1350Y3420
X1350Y3320
X3180Y3140
X1200Y3320
X1200Y3500
X3170Y3080
X1130Y3330
X1130Y3570
X3480Y1260
X3620Y3680
X4240Y1180
X3480Y1180
X4310Y1190
X2930Y1360
X2760Y1960
X2310Y1970
X3380Y1340
X3400Y1180
X3060Y1240
T18
X3770Y1230
X3790Y1130
X3560Y3720
X4050Y3610
M30