G04 EAGLE Gerber RS-274X export*
G75*
%MOIN*%
%FSLAX34Y34*%
%LPD*%
%INBottom silk*%
%IPPOS*%
%AMOC8*
5,1,8,0,0,1.08239X$1,22.5*%
G01*
%ADD10C,0.000000*%
%ADD11C,0.015000*%
%ADD12C,0.006000*%

G36*
X48626Y68569D02*
X48626Y68569D01*
X48627Y68569D01*
X48767Y68579D01*
X48770Y68580D01*
X48773Y68580D01*
X48910Y68610D01*
X48913Y68611D01*
X48915Y68611D01*
X49047Y68660D01*
X49049Y68662D01*
X49052Y68663D01*
X49175Y68730D01*
X49177Y68732D01*
X49180Y68733D01*
X49292Y68817D01*
X49294Y68819D01*
X49296Y68821D01*
X49396Y68920D01*
X49397Y68922D01*
X49399Y68924D01*
X49483Y69037D01*
X49485Y69039D01*
X49486Y69041D01*
X49554Y69165D01*
X49555Y69167D01*
X49556Y69170D01*
X49605Y69301D01*
X49606Y69304D01*
X49607Y69306D01*
X49637Y69444D01*
X49637Y69446D01*
X49637Y69449D01*
X49647Y69589D01*
X49647Y69592D01*
X49647Y69595D01*
X49638Y69718D01*
X49637Y69721D01*
X49637Y69724D01*
X49608Y69844D01*
X49607Y69847D01*
X49606Y69850D01*
X49559Y69964D01*
X49557Y69967D01*
X49556Y69970D01*
X49491Y70075D01*
X49489Y70077D01*
X49488Y70080D01*
X49408Y70174D01*
X49405Y70176D01*
X49403Y70178D01*
X49309Y70258D01*
X49307Y70260D01*
X49304Y70262D01*
X49199Y70326D01*
X49196Y70328D01*
X49194Y70329D01*
X49080Y70377D01*
X49077Y70377D01*
X49074Y70378D01*
X48954Y70407D01*
X48951Y70408D01*
X48948Y70408D01*
X48824Y70418D01*
X48823Y70418D01*
X48821Y70418D01*
X46066Y70418D01*
X46064Y70418D01*
X46062Y70418D01*
X45939Y70408D01*
X45936Y70408D01*
X45933Y70407D01*
X45813Y70378D01*
X45810Y70377D01*
X45807Y70377D01*
X45693Y70329D01*
X45691Y70328D01*
X45688Y70326D01*
X45583Y70262D01*
X45580Y70260D01*
X45578Y70258D01*
X45484Y70178D01*
X45482Y70176D01*
X45479Y70174D01*
X45399Y70080D01*
X45398Y70077D01*
X45396Y70075D01*
X45331Y69970D01*
X45330Y69967D01*
X45328Y69964D01*
X45281Y69850D01*
X45280Y69847D01*
X45279Y69844D01*
X45250Y69724D01*
X45250Y69721D01*
X45249Y69718D01*
X45240Y69595D01*
X45240Y69592D01*
X45240Y69589D01*
X45250Y69449D01*
X45250Y69446D01*
X45250Y69444D01*
X45280Y69306D01*
X45281Y69304D01*
X45282Y69301D01*
X45331Y69170D01*
X45332Y69167D01*
X45333Y69165D01*
X45400Y69041D01*
X45402Y69039D01*
X45403Y69037D01*
X45488Y68924D01*
X45490Y68922D01*
X45491Y68920D01*
X45591Y68821D01*
X45593Y68819D01*
X45595Y68817D01*
X45707Y68733D01*
X45709Y68732D01*
X45712Y68730D01*
X45835Y68663D01*
X45838Y68662D01*
X45840Y68660D01*
X45972Y68611D01*
X45974Y68611D01*
X45977Y68610D01*
X46114Y68580D01*
X46117Y68580D01*
X46120Y68579D01*
X46260Y68569D01*
X46261Y68569D01*
X46262Y68569D01*
X48625Y68569D01*
X48626Y68569D01*
G37*
G36*
X3547Y68766D02*
X3547Y68766D01*
X3549Y68766D01*
X3672Y68776D01*
X3675Y68776D01*
X3678Y68777D01*
X3798Y68806D01*
X3799Y68806D01*
X3800Y68806D01*
X3802Y68807D01*
X3804Y68807D01*
X3918Y68855D01*
X3921Y68856D01*
X3923Y68857D01*
X4029Y68922D01*
X4031Y68924D01*
X4034Y68926D01*
X4128Y69006D01*
X4130Y69008D01*
X4132Y69010D01*
X4212Y69104D01*
X4214Y69107D01*
X4216Y69109D01*
X4280Y69214D01*
X4282Y69217D01*
X4283Y69220D01*
X4330Y69334D01*
X4331Y69337D01*
X4332Y69340D01*
X4361Y69460D01*
X4361Y69463D01*
X4362Y69466D01*
X4372Y69589D01*
X4372Y69592D01*
X4372Y69595D01*
X4362Y69718D01*
X4361Y69721D01*
X4361Y69724D01*
X4332Y69844D01*
X4331Y69847D01*
X4330Y69850D01*
X4283Y69964D01*
X4282Y69967D01*
X4280Y69970D01*
X4216Y70075D01*
X4214Y70077D01*
X4212Y70080D01*
X4132Y70174D01*
X4130Y70176D01*
X4128Y70178D01*
X4034Y70258D01*
X4031Y70260D01*
X4029Y70262D01*
X3923Y70326D01*
X3921Y70328D01*
X3918Y70329D01*
X3804Y70377D01*
X3801Y70377D01*
X3798Y70378D01*
X3678Y70407D01*
X3675Y70408D01*
X3672Y70408D01*
X3549Y70418D01*
X3547Y70418D01*
X3546Y70418D01*
X1577Y70418D01*
X1576Y70418D01*
X1574Y70418D01*
X1451Y70408D01*
X1448Y70408D01*
X1445Y70407D01*
X1325Y70378D01*
X1322Y70377D01*
X1319Y70377D01*
X1205Y70329D01*
X1202Y70328D01*
X1200Y70326D01*
X1094Y70262D01*
X1092Y70260D01*
X1089Y70258D01*
X995Y70178D01*
X993Y70176D01*
X991Y70174D01*
X911Y70080D01*
X909Y70077D01*
X907Y70075D01*
X843Y69970D01*
X842Y69967D01*
X840Y69964D01*
X793Y69850D01*
X792Y69847D01*
X791Y69844D01*
X762Y69724D01*
X762Y69721D01*
X761Y69718D01*
X751Y69595D01*
X752Y69592D01*
X751Y69589D01*
X761Y69466D01*
X762Y69463D01*
X762Y69460D01*
X791Y69340D01*
X792Y69337D01*
X793Y69334D01*
X840Y69220D01*
X842Y69217D01*
X843Y69214D01*
X907Y69109D01*
X909Y69107D01*
X911Y69104D01*
X991Y69010D01*
X993Y69008D01*
X995Y69006D01*
X1089Y68926D01*
X1092Y68924D01*
X1094Y68922D01*
X1200Y68857D01*
X1202Y68856D01*
X1205Y68855D01*
X1319Y68807D01*
X1321Y68807D01*
X1323Y68806D01*
X1324Y68806D01*
X1325Y68806D01*
X1445Y68777D01*
X1448Y68776D01*
X1451Y68776D01*
X1574Y68766D01*
X1576Y68766D01*
X1577Y68766D01*
X3546Y68766D01*
X3547Y68766D01*
G37*
D10*
X0Y5512D02*
X50197Y5512D01*
X50197Y70866D01*
X38600Y70866D01*
X11200Y70866D02*
X0Y70866D01*
X0Y5512D01*
D11*
X32946Y64517D02*
X32921Y64519D01*
X32897Y64523D01*
X32874Y64531D01*
X32852Y64542D01*
X32831Y64556D01*
X32812Y64572D01*
X32796Y64591D01*
X32782Y64611D01*
X32771Y64634D01*
X32763Y64657D01*
X32759Y64681D01*
X32757Y64706D01*
X32946Y64517D02*
X32985Y64519D01*
X33024Y64525D01*
X33062Y64534D01*
X33099Y64548D01*
X33135Y64565D01*
X33169Y64585D01*
X33200Y64608D01*
X33229Y64635D01*
X33206Y65178D02*
X33204Y65205D01*
X33198Y65231D01*
X33189Y65257D01*
X33176Y65280D01*
X33160Y65302D01*
X33141Y65321D01*
X33119Y65337D01*
X33096Y65350D01*
X33070Y65359D01*
X33044Y65365D01*
X33017Y65367D01*
X32985Y65366D01*
X32952Y65361D01*
X32921Y65354D01*
X32890Y65343D01*
X32860Y65330D01*
X32831Y65315D01*
X32805Y65296D01*
X33111Y65013D02*
X33132Y65027D01*
X33151Y65043D01*
X33167Y65062D01*
X33181Y65083D01*
X33192Y65105D01*
X33200Y65129D01*
X33204Y65153D01*
X33206Y65178D01*
X32852Y64871D02*
X32831Y64857D01*
X32812Y64841D01*
X32796Y64822D01*
X32782Y64801D01*
X32771Y64779D01*
X32763Y64755D01*
X32759Y64731D01*
X32757Y64706D01*
X32852Y64871D02*
X33111Y65013D01*
X32400Y65084D02*
X32400Y64517D01*
X32400Y65084D02*
X31975Y65084D01*
X31953Y65082D01*
X31931Y65077D01*
X31911Y65069D01*
X31892Y65057D01*
X31875Y65042D01*
X31860Y65025D01*
X31848Y65006D01*
X31840Y64986D01*
X31835Y64964D01*
X31833Y64942D01*
X31833Y64517D01*
X32116Y64517D02*
X32116Y65084D01*
X31295Y64847D02*
X31082Y64847D01*
X31295Y64847D02*
X31320Y64845D01*
X31344Y64840D01*
X31367Y64831D01*
X31388Y64818D01*
X31407Y64803D01*
X31424Y64785D01*
X31438Y64765D01*
X31449Y64742D01*
X31456Y64719D01*
X31460Y64694D01*
X31460Y64670D01*
X31456Y64645D01*
X31449Y64622D01*
X31438Y64600D01*
X31424Y64579D01*
X31407Y64561D01*
X31388Y64546D01*
X31367Y64533D01*
X31344Y64524D01*
X31320Y64519D01*
X31295Y64517D01*
X31082Y64517D01*
X31082Y64942D01*
X31084Y64964D01*
X31089Y64986D01*
X31097Y65006D01*
X31109Y65025D01*
X31124Y65042D01*
X31141Y65057D01*
X31160Y65069D01*
X31180Y65077D01*
X31202Y65082D01*
X31224Y65084D01*
X31413Y65084D01*
X30684Y65084D02*
X30684Y64517D01*
X30684Y65084D02*
X30400Y65084D01*
X30400Y64989D01*
X30210Y65084D02*
X29927Y65084D01*
X30115Y65367D02*
X30115Y64659D01*
X30116Y64659D02*
X30114Y64637D01*
X30109Y64615D01*
X30101Y64595D01*
X30089Y64576D01*
X30074Y64559D01*
X30057Y64544D01*
X30038Y64532D01*
X30018Y64524D01*
X29996Y64519D01*
X29974Y64517D01*
X29927Y64517D01*
X29145Y64517D02*
X29145Y65367D01*
X29145Y64517D02*
X28767Y64517D01*
X28469Y64706D02*
X28469Y64895D01*
X28467Y64922D01*
X28461Y64948D01*
X28452Y64974D01*
X28439Y64997D01*
X28423Y65019D01*
X28404Y65038D01*
X28382Y65054D01*
X28359Y65067D01*
X28333Y65076D01*
X28307Y65082D01*
X28280Y65084D01*
X28253Y65082D01*
X28227Y65076D01*
X28201Y65067D01*
X28178Y65054D01*
X28156Y65038D01*
X28137Y65019D01*
X28121Y64997D01*
X28108Y64974D01*
X28099Y64948D01*
X28093Y64922D01*
X28091Y64895D01*
X28092Y64895D02*
X28092Y64706D01*
X28091Y64706D02*
X28093Y64679D01*
X28099Y64653D01*
X28108Y64627D01*
X28121Y64604D01*
X28137Y64582D01*
X28156Y64563D01*
X28178Y64547D01*
X28201Y64534D01*
X28227Y64525D01*
X28253Y64519D01*
X28280Y64517D01*
X28307Y64519D01*
X28333Y64525D01*
X28359Y64534D01*
X28382Y64547D01*
X28404Y64563D01*
X28423Y64582D01*
X28439Y64604D01*
X28452Y64627D01*
X28461Y64653D01*
X28467Y64679D01*
X28469Y64706D01*
X27717Y64517D02*
X27717Y65367D01*
X27481Y65367D01*
X27451Y65365D01*
X27422Y65360D01*
X27394Y65350D01*
X27367Y65338D01*
X27342Y65322D01*
X27319Y65303D01*
X27299Y65281D01*
X27282Y65257D01*
X27267Y65231D01*
X27257Y65204D01*
X27249Y65175D01*
X27245Y65146D01*
X27245Y65116D01*
X27249Y65087D01*
X27257Y65058D01*
X27267Y65031D01*
X27282Y65005D01*
X27299Y64981D01*
X27319Y64959D01*
X27342Y64940D01*
X27367Y64924D01*
X27394Y64912D01*
X27422Y64902D01*
X27451Y64897D01*
X27481Y64895D01*
X27717Y64895D01*
X27433Y64895D02*
X27245Y64517D01*
X26746Y64847D02*
X26534Y64847D01*
X26746Y64847D02*
X26771Y64845D01*
X26795Y64840D01*
X26818Y64831D01*
X26839Y64818D01*
X26858Y64803D01*
X26875Y64785D01*
X26889Y64765D01*
X26900Y64742D01*
X26907Y64719D01*
X26911Y64694D01*
X26911Y64670D01*
X26907Y64645D01*
X26900Y64622D01*
X26889Y64600D01*
X26875Y64579D01*
X26858Y64561D01*
X26839Y64546D01*
X26818Y64533D01*
X26795Y64524D01*
X26771Y64519D01*
X26746Y64517D01*
X26534Y64517D01*
X26534Y64942D01*
X26536Y64964D01*
X26541Y64986D01*
X26549Y65006D01*
X26561Y65025D01*
X26576Y65042D01*
X26593Y65057D01*
X26612Y65069D01*
X26632Y65077D01*
X26654Y65082D01*
X26676Y65084D01*
X26864Y65084D01*
X25364Y64989D02*
X25222Y64989D01*
X25222Y64517D01*
X25505Y64517D01*
X25532Y64519D01*
X25558Y64525D01*
X25584Y64534D01*
X25607Y64547D01*
X25629Y64563D01*
X25648Y64582D01*
X25664Y64604D01*
X25677Y64627D01*
X25686Y64653D01*
X25692Y64679D01*
X25694Y64706D01*
X25694Y65178D01*
X25692Y65205D01*
X25686Y65231D01*
X25677Y65257D01*
X25664Y65280D01*
X25648Y65302D01*
X25629Y65321D01*
X25607Y65337D01*
X25584Y65350D01*
X25558Y65359D01*
X25532Y65365D01*
X25505Y65367D01*
X25222Y65367D01*
X24691Y64847D02*
X24479Y64847D01*
X24691Y64847D02*
X24716Y64845D01*
X24740Y64840D01*
X24763Y64831D01*
X24784Y64818D01*
X24803Y64803D01*
X24820Y64785D01*
X24834Y64765D01*
X24845Y64742D01*
X24852Y64719D01*
X24856Y64694D01*
X24856Y64670D01*
X24852Y64645D01*
X24845Y64622D01*
X24834Y64600D01*
X24820Y64579D01*
X24803Y64561D01*
X24784Y64546D01*
X24763Y64533D01*
X24740Y64524D01*
X24716Y64519D01*
X24691Y64517D01*
X24479Y64517D01*
X24479Y64942D01*
X24481Y64964D01*
X24486Y64986D01*
X24494Y65006D01*
X24506Y65025D01*
X24521Y65042D01*
X24538Y65057D01*
X24557Y65069D01*
X24577Y65077D01*
X24599Y65082D01*
X24621Y65084D01*
X24809Y65084D01*
X24182Y65084D02*
X23899Y65084D01*
X24087Y65367D02*
X24087Y64659D01*
X24088Y64659D02*
X24086Y64637D01*
X24081Y64615D01*
X24073Y64595D01*
X24061Y64576D01*
X24046Y64559D01*
X24029Y64544D01*
X24010Y64532D01*
X23990Y64524D01*
X23968Y64519D01*
X23946Y64517D01*
X23899Y64517D01*
X23450Y64517D02*
X23214Y64517D01*
X23450Y64517D02*
X23472Y64519D01*
X23494Y64524D01*
X23514Y64532D01*
X23533Y64544D01*
X23550Y64559D01*
X23565Y64576D01*
X23577Y64595D01*
X23585Y64615D01*
X23590Y64637D01*
X23592Y64659D01*
X23592Y64895D01*
X23590Y64922D01*
X23584Y64948D01*
X23575Y64974D01*
X23562Y64997D01*
X23546Y65019D01*
X23527Y65038D01*
X23505Y65054D01*
X23482Y65067D01*
X23456Y65076D01*
X23430Y65082D01*
X23403Y65084D01*
X23376Y65082D01*
X23350Y65076D01*
X23324Y65067D01*
X23301Y65054D01*
X23279Y65038D01*
X23260Y65019D01*
X23244Y64997D01*
X23231Y64974D01*
X23222Y64948D01*
X23216Y64922D01*
X23214Y64895D01*
X23214Y64800D01*
X23592Y64800D01*
X22892Y65084D02*
X22750Y64517D01*
X22609Y64895D01*
X22467Y64517D01*
X22325Y65084D01*
X21842Y64847D02*
X21629Y64847D01*
X21842Y64847D02*
X21867Y64845D01*
X21891Y64840D01*
X21914Y64831D01*
X21935Y64818D01*
X21954Y64803D01*
X21971Y64785D01*
X21985Y64765D01*
X21996Y64742D01*
X22003Y64719D01*
X22007Y64694D01*
X22007Y64670D01*
X22003Y64645D01*
X21996Y64622D01*
X21985Y64600D01*
X21971Y64579D01*
X21954Y64561D01*
X21935Y64546D01*
X21914Y64533D01*
X21891Y64524D01*
X21867Y64519D01*
X21842Y64517D01*
X21629Y64517D01*
X21629Y64942D01*
X21631Y64964D01*
X21636Y64986D01*
X21644Y65006D01*
X21656Y65025D01*
X21671Y65042D01*
X21688Y65057D01*
X21707Y65069D01*
X21727Y65077D01*
X21749Y65082D01*
X21771Y65084D01*
X21960Y65084D01*
X21291Y64234D02*
X21196Y64234D01*
X20913Y65084D01*
X21291Y65084D02*
X21102Y64517D01*
X33229Y63867D02*
X33229Y63017D01*
X33229Y63584D02*
X32993Y63584D01*
X32971Y63582D01*
X32949Y63577D01*
X32929Y63569D01*
X32910Y63557D01*
X32893Y63542D01*
X32878Y63525D01*
X32866Y63506D01*
X32858Y63486D01*
X32853Y63464D01*
X32851Y63442D01*
X32852Y63442D02*
X32852Y63017D01*
X32559Y63584D02*
X32275Y63584D01*
X32464Y63867D02*
X32464Y63159D01*
X32465Y63159D02*
X32463Y63137D01*
X32458Y63115D01*
X32450Y63095D01*
X32438Y63076D01*
X32423Y63059D01*
X32406Y63044D01*
X32387Y63032D01*
X32367Y63024D01*
X32345Y63019D01*
X32323Y63017D01*
X32275Y63017D01*
X32038Y63584D02*
X31755Y63584D01*
X31944Y63867D02*
X31944Y63159D01*
X31942Y63137D01*
X31937Y63115D01*
X31929Y63095D01*
X31917Y63076D01*
X31902Y63059D01*
X31885Y63044D01*
X31866Y63032D01*
X31846Y63024D01*
X31824Y63019D01*
X31802Y63017D01*
X31755Y63017D01*
X31417Y62734D02*
X31417Y63584D01*
X31181Y63584D01*
X31159Y63582D01*
X31137Y63577D01*
X31117Y63569D01*
X31098Y63557D01*
X31081Y63542D01*
X31066Y63525D01*
X31054Y63506D01*
X31046Y63486D01*
X31041Y63464D01*
X31039Y63442D01*
X31039Y63159D01*
X31041Y63137D01*
X31046Y63115D01*
X31054Y63095D01*
X31066Y63076D01*
X31081Y63059D01*
X31098Y63044D01*
X31117Y63032D01*
X31137Y63024D01*
X31159Y63019D01*
X31181Y63017D01*
X31417Y63017D01*
X30638Y63347D02*
X30402Y63253D01*
X30637Y63348D02*
X30656Y63357D01*
X30673Y63370D01*
X30688Y63385D01*
X30699Y63403D01*
X30708Y63422D01*
X30713Y63443D01*
X30714Y63464D01*
X30712Y63485D01*
X30706Y63505D01*
X30696Y63524D01*
X30684Y63541D01*
X30669Y63556D01*
X30651Y63568D01*
X30632Y63576D01*
X30611Y63581D01*
X30590Y63583D01*
X30547Y63581D01*
X30503Y63575D01*
X30460Y63565D01*
X30419Y63552D01*
X30378Y63536D01*
X30402Y63252D02*
X30383Y63243D01*
X30366Y63230D01*
X30351Y63215D01*
X30340Y63197D01*
X30331Y63178D01*
X30326Y63157D01*
X30325Y63136D01*
X30327Y63115D01*
X30333Y63095D01*
X30343Y63076D01*
X30355Y63059D01*
X30370Y63044D01*
X30388Y63032D01*
X30407Y63024D01*
X30428Y63019D01*
X30449Y63017D01*
X30448Y63017D02*
X30501Y63020D01*
X30554Y63026D01*
X30606Y63035D01*
X30658Y63048D01*
X30708Y63064D01*
X29995Y63088D02*
X29995Y63135D01*
X29948Y63135D01*
X29948Y63088D01*
X29995Y63088D01*
X29995Y63465D02*
X29995Y63513D01*
X29948Y63513D01*
X29948Y63465D01*
X29995Y63465D01*
X29640Y62922D02*
X29262Y63961D01*
X28605Y63961D02*
X28982Y62922D01*
X28270Y63017D02*
X28270Y63584D01*
X28034Y63584D01*
X28012Y63582D01*
X27990Y63577D01*
X27970Y63569D01*
X27951Y63557D01*
X27934Y63542D01*
X27919Y63525D01*
X27907Y63506D01*
X27899Y63486D01*
X27894Y63464D01*
X27892Y63442D01*
X27892Y63017D01*
X27388Y63017D02*
X27152Y63017D01*
X27388Y63017D02*
X27410Y63019D01*
X27432Y63024D01*
X27452Y63032D01*
X27471Y63044D01*
X27488Y63059D01*
X27503Y63076D01*
X27515Y63095D01*
X27523Y63115D01*
X27528Y63137D01*
X27530Y63159D01*
X27530Y63395D01*
X27528Y63422D01*
X27522Y63448D01*
X27513Y63474D01*
X27500Y63497D01*
X27484Y63519D01*
X27465Y63538D01*
X27443Y63554D01*
X27420Y63567D01*
X27394Y63576D01*
X27368Y63582D01*
X27341Y63584D01*
X27314Y63582D01*
X27288Y63576D01*
X27262Y63567D01*
X27239Y63554D01*
X27217Y63538D01*
X27198Y63519D01*
X27182Y63497D01*
X27169Y63474D01*
X27160Y63448D01*
X27154Y63422D01*
X27152Y63395D01*
X27152Y63300D01*
X27530Y63300D01*
X26786Y63017D02*
X26786Y63867D01*
X26786Y63017D02*
X26550Y63017D01*
X26528Y63019D01*
X26506Y63024D01*
X26486Y63032D01*
X26467Y63044D01*
X26450Y63059D01*
X26435Y63076D01*
X26423Y63095D01*
X26415Y63115D01*
X26410Y63137D01*
X26408Y63159D01*
X26408Y63442D01*
X26410Y63464D01*
X26415Y63486D01*
X26423Y63506D01*
X26435Y63525D01*
X26450Y63542D01*
X26467Y63557D01*
X26486Y63569D01*
X26506Y63577D01*
X26528Y63582D01*
X26550Y63584D01*
X26786Y63584D01*
X26045Y63584D02*
X26045Y63017D01*
X26045Y63584D02*
X25762Y63584D01*
X25762Y63489D01*
X25341Y63347D02*
X25129Y63347D01*
X25341Y63347D02*
X25366Y63345D01*
X25390Y63340D01*
X25413Y63331D01*
X25434Y63318D01*
X25453Y63303D01*
X25470Y63285D01*
X25484Y63265D01*
X25495Y63242D01*
X25502Y63219D01*
X25506Y63194D01*
X25506Y63170D01*
X25502Y63145D01*
X25495Y63122D01*
X25484Y63100D01*
X25470Y63079D01*
X25453Y63061D01*
X25434Y63046D01*
X25413Y63033D01*
X25390Y63024D01*
X25366Y63019D01*
X25341Y63017D01*
X25129Y63017D01*
X25129Y63442D01*
X25131Y63464D01*
X25136Y63486D01*
X25144Y63506D01*
X25156Y63525D01*
X25171Y63542D01*
X25188Y63557D01*
X25207Y63569D01*
X25227Y63577D01*
X25249Y63582D01*
X25271Y63584D01*
X25459Y63584D01*
X24789Y63064D02*
X24789Y63017D01*
X24789Y63064D02*
X24742Y63064D01*
X24742Y63017D01*
X24789Y63017D01*
X24437Y63017D02*
X24437Y63584D01*
X24460Y63820D02*
X24460Y63867D01*
X24413Y63867D01*
X24413Y63820D01*
X24460Y63820D01*
X24105Y63395D02*
X24105Y63206D01*
X24105Y63395D02*
X24103Y63422D01*
X24097Y63448D01*
X24088Y63474D01*
X24075Y63497D01*
X24059Y63519D01*
X24040Y63538D01*
X24018Y63554D01*
X23995Y63567D01*
X23969Y63576D01*
X23943Y63582D01*
X23916Y63584D01*
X23889Y63582D01*
X23863Y63576D01*
X23837Y63567D01*
X23814Y63554D01*
X23792Y63538D01*
X23773Y63519D01*
X23757Y63497D01*
X23744Y63474D01*
X23735Y63448D01*
X23729Y63422D01*
X23727Y63395D01*
X23727Y63206D01*
X23729Y63179D01*
X23735Y63153D01*
X23744Y63127D01*
X23757Y63104D01*
X23773Y63082D01*
X23792Y63063D01*
X23814Y63047D01*
X23837Y63034D01*
X23863Y63025D01*
X23889Y63019D01*
X23916Y63017D01*
X23943Y63019D01*
X23969Y63025D01*
X23995Y63034D01*
X24018Y63047D01*
X24040Y63063D01*
X24059Y63082D01*
X24075Y63104D01*
X24088Y63127D01*
X24097Y63153D01*
X24103Y63179D01*
X24105Y63206D01*
X23420Y62922D02*
X23042Y63961D01*
X22738Y63584D02*
X22738Y63017D01*
X22762Y63820D02*
X22762Y63867D01*
X22714Y63867D01*
X22714Y63820D01*
X22762Y63820D01*
X22406Y63395D02*
X22406Y63206D01*
X22406Y63395D02*
X22404Y63422D01*
X22398Y63448D01*
X22389Y63474D01*
X22376Y63497D01*
X22360Y63519D01*
X22341Y63538D01*
X22319Y63554D01*
X22296Y63567D01*
X22270Y63576D01*
X22244Y63582D01*
X22217Y63584D01*
X22190Y63582D01*
X22164Y63576D01*
X22138Y63567D01*
X22115Y63554D01*
X22093Y63538D01*
X22074Y63519D01*
X22058Y63497D01*
X22045Y63474D01*
X22036Y63448D01*
X22030Y63422D01*
X22028Y63395D01*
X22029Y63395D02*
X22029Y63206D01*
X22028Y63206D02*
X22030Y63179D01*
X22036Y63153D01*
X22045Y63127D01*
X22058Y63104D01*
X22074Y63082D01*
X22093Y63063D01*
X22115Y63047D01*
X22138Y63034D01*
X22164Y63025D01*
X22190Y63019D01*
X22217Y63017D01*
X22244Y63019D01*
X22270Y63025D01*
X22296Y63034D01*
X22319Y63047D01*
X22341Y63063D01*
X22360Y63082D01*
X22376Y63104D01*
X22389Y63127D01*
X22398Y63153D01*
X22404Y63179D01*
X22406Y63206D01*
X21763Y63584D02*
X21480Y63584D01*
X21669Y63867D02*
X21669Y63159D01*
X21667Y63137D01*
X21662Y63115D01*
X21654Y63095D01*
X21642Y63076D01*
X21627Y63059D01*
X21610Y63044D01*
X21591Y63032D01*
X21571Y63024D01*
X21549Y63019D01*
X21527Y63017D01*
X21480Y63017D01*
D12*
X33499Y61932D02*
X33499Y61292D01*
X33499Y61932D02*
X33321Y61932D01*
X33296Y61930D01*
X33271Y61925D01*
X33247Y61916D01*
X33225Y61904D01*
X33204Y61889D01*
X33186Y61871D01*
X33171Y61850D01*
X33159Y61828D01*
X33150Y61804D01*
X33145Y61779D01*
X33143Y61754D01*
X33144Y61754D02*
X33144Y61469D01*
X33143Y61469D02*
X33145Y61444D01*
X33150Y61419D01*
X33159Y61395D01*
X33171Y61373D01*
X33186Y61352D01*
X33204Y61334D01*
X33225Y61319D01*
X33247Y61307D01*
X33271Y61298D01*
X33296Y61293D01*
X33321Y61291D01*
X33321Y61292D02*
X33499Y61292D01*
X32762Y61292D02*
X32584Y61292D01*
X32762Y61291D02*
X32781Y61293D01*
X32799Y61297D01*
X32816Y61305D01*
X32831Y61316D01*
X32844Y61329D01*
X32855Y61345D01*
X32863Y61361D01*
X32867Y61379D01*
X32869Y61398D01*
X32869Y61576D01*
X32868Y61576D02*
X32866Y61598D01*
X32861Y61620D01*
X32853Y61640D01*
X32841Y61659D01*
X32826Y61676D01*
X32809Y61691D01*
X32790Y61703D01*
X32770Y61711D01*
X32748Y61716D01*
X32726Y61718D01*
X32704Y61716D01*
X32682Y61711D01*
X32662Y61703D01*
X32643Y61691D01*
X32626Y61676D01*
X32611Y61659D01*
X32599Y61640D01*
X32591Y61620D01*
X32586Y61598D01*
X32584Y61576D01*
X32584Y61505D01*
X32869Y61505D01*
X32282Y61540D02*
X32104Y61469D01*
X32282Y61541D02*
X32298Y61549D01*
X32313Y61560D01*
X32324Y61574D01*
X32333Y61590D01*
X32338Y61608D01*
X32340Y61626D01*
X32338Y61644D01*
X32333Y61661D01*
X32324Y61677D01*
X32313Y61691D01*
X32298Y61703D01*
X32282Y61711D01*
X32265Y61716D01*
X32247Y61718D01*
X32246Y61719D02*
X32213Y61717D01*
X32181Y61713D01*
X32148Y61705D01*
X32117Y61696D01*
X32086Y61683D01*
X32104Y61469D02*
X32088Y61461D01*
X32073Y61450D01*
X32062Y61436D01*
X32053Y61420D01*
X32048Y61402D01*
X32046Y61384D01*
X32048Y61366D01*
X32053Y61349D01*
X32062Y61333D01*
X32073Y61319D01*
X32088Y61307D01*
X32104Y61299D01*
X32121Y61294D01*
X32139Y61292D01*
X32140Y61291D02*
X32179Y61293D01*
X32219Y61297D01*
X32258Y61305D01*
X32297Y61314D01*
X32335Y61327D01*
X31803Y61292D02*
X31803Y61718D01*
X31821Y61896D02*
X31821Y61932D01*
X31786Y61932D01*
X31786Y61896D01*
X31821Y61896D01*
X31452Y61292D02*
X31274Y61292D01*
X31452Y61291D02*
X31471Y61293D01*
X31489Y61297D01*
X31506Y61305D01*
X31521Y61316D01*
X31534Y61329D01*
X31545Y61345D01*
X31553Y61361D01*
X31557Y61379D01*
X31559Y61398D01*
X31559Y61612D01*
X31557Y61631D01*
X31553Y61649D01*
X31545Y61666D01*
X31534Y61681D01*
X31521Y61694D01*
X31506Y61705D01*
X31489Y61713D01*
X31471Y61717D01*
X31452Y61719D01*
X31452Y61718D02*
X31274Y61718D01*
X31274Y61185D01*
X31276Y61166D01*
X31280Y61148D01*
X31288Y61132D01*
X31299Y61116D01*
X31312Y61103D01*
X31328Y61092D01*
X31344Y61084D01*
X31362Y61080D01*
X31381Y61078D01*
X31523Y61078D01*
X30981Y61292D02*
X30981Y61718D01*
X30804Y61718D01*
X30804Y61719D02*
X30785Y61717D01*
X30767Y61713D01*
X30751Y61705D01*
X30735Y61694D01*
X30722Y61681D01*
X30711Y61666D01*
X30703Y61649D01*
X30699Y61631D01*
X30697Y61612D01*
X30697Y61292D01*
X30321Y61292D02*
X30143Y61292D01*
X30321Y61291D02*
X30340Y61293D01*
X30358Y61297D01*
X30375Y61305D01*
X30390Y61316D01*
X30403Y61329D01*
X30414Y61345D01*
X30422Y61361D01*
X30426Y61379D01*
X30428Y61398D01*
X30428Y61576D01*
X30427Y61576D02*
X30425Y61598D01*
X30420Y61620D01*
X30412Y61640D01*
X30400Y61659D01*
X30385Y61676D01*
X30368Y61691D01*
X30349Y61703D01*
X30329Y61711D01*
X30307Y61716D01*
X30285Y61718D01*
X30263Y61716D01*
X30241Y61711D01*
X30221Y61703D01*
X30202Y61691D01*
X30185Y61676D01*
X30170Y61659D01*
X30158Y61640D01*
X30150Y61620D01*
X30145Y61598D01*
X30143Y61576D01*
X30143Y61505D01*
X30428Y61505D01*
X29613Y61292D02*
X29613Y61932D01*
X29613Y61292D02*
X29790Y61292D01*
X29790Y61291D02*
X29809Y61293D01*
X29827Y61297D01*
X29844Y61305D01*
X29859Y61316D01*
X29872Y61329D01*
X29883Y61345D01*
X29891Y61361D01*
X29895Y61379D01*
X29897Y61398D01*
X29897Y61612D01*
X29895Y61631D01*
X29891Y61649D01*
X29883Y61666D01*
X29872Y61681D01*
X29859Y61694D01*
X29844Y61705D01*
X29827Y61713D01*
X29809Y61717D01*
X29790Y61719D01*
X29790Y61718D02*
X29613Y61718D01*
X29014Y61718D02*
X29014Y61292D01*
X29031Y61896D02*
X29031Y61932D01*
X28996Y61932D01*
X28996Y61896D01*
X29031Y61896D01*
X28745Y61718D02*
X28745Y61292D01*
X28745Y61718D02*
X28568Y61718D01*
X28568Y61719D02*
X28549Y61717D01*
X28531Y61713D01*
X28515Y61705D01*
X28499Y61694D01*
X28486Y61681D01*
X28475Y61666D01*
X28467Y61649D01*
X28463Y61631D01*
X28461Y61612D01*
X28461Y61292D01*
X27914Y61718D02*
X27701Y61718D01*
X27843Y61932D02*
X27843Y61398D01*
X27844Y61398D02*
X27842Y61379D01*
X27838Y61361D01*
X27830Y61345D01*
X27819Y61329D01*
X27806Y61316D01*
X27791Y61305D01*
X27774Y61297D01*
X27756Y61293D01*
X27737Y61291D01*
X27737Y61292D02*
X27701Y61292D01*
X27453Y61292D02*
X27453Y61932D01*
X27453Y61718D02*
X27275Y61718D01*
X27275Y61719D02*
X27256Y61717D01*
X27238Y61713D01*
X27222Y61705D01*
X27206Y61694D01*
X27193Y61681D01*
X27182Y61666D01*
X27174Y61649D01*
X27170Y61631D01*
X27168Y61612D01*
X27169Y61612D02*
X27169Y61292D01*
X26793Y61292D02*
X26615Y61292D01*
X26793Y61291D02*
X26812Y61293D01*
X26830Y61297D01*
X26847Y61305D01*
X26862Y61316D01*
X26875Y61329D01*
X26886Y61345D01*
X26894Y61361D01*
X26898Y61379D01*
X26900Y61398D01*
X26899Y61398D02*
X26899Y61576D01*
X26897Y61598D01*
X26892Y61620D01*
X26884Y61640D01*
X26872Y61659D01*
X26857Y61676D01*
X26840Y61691D01*
X26821Y61703D01*
X26801Y61711D01*
X26779Y61716D01*
X26757Y61718D01*
X26735Y61716D01*
X26713Y61711D01*
X26693Y61703D01*
X26674Y61691D01*
X26657Y61676D01*
X26642Y61659D01*
X26630Y61640D01*
X26622Y61620D01*
X26617Y61598D01*
X26615Y61576D01*
X26615Y61505D01*
X26899Y61505D01*
X26012Y61469D02*
X26012Y61932D01*
X26012Y61469D02*
X26010Y61444D01*
X26005Y61419D01*
X25996Y61395D01*
X25984Y61373D01*
X25969Y61352D01*
X25951Y61334D01*
X25930Y61319D01*
X25908Y61307D01*
X25884Y61298D01*
X25859Y61293D01*
X25834Y61291D01*
X25809Y61293D01*
X25784Y61298D01*
X25760Y61307D01*
X25738Y61319D01*
X25717Y61334D01*
X25699Y61352D01*
X25684Y61373D01*
X25672Y61395D01*
X25663Y61419D01*
X25658Y61444D01*
X25656Y61469D01*
X25656Y61932D01*
X25361Y61718D02*
X25361Y61292D01*
X25361Y61718D02*
X25183Y61718D01*
X25183Y61719D02*
X25164Y61717D01*
X25146Y61713D01*
X25130Y61705D01*
X25114Y61694D01*
X25101Y61681D01*
X25090Y61666D01*
X25082Y61649D01*
X25078Y61631D01*
X25076Y61612D01*
X25076Y61292D01*
X24808Y61292D02*
X24808Y61718D01*
X24826Y61896D02*
X24826Y61932D01*
X24790Y61932D01*
X24790Y61896D01*
X24826Y61896D01*
X24612Y61718D02*
X24398Y61718D01*
X24541Y61932D02*
X24541Y61398D01*
X24539Y61379D01*
X24535Y61361D01*
X24527Y61345D01*
X24516Y61329D01*
X24503Y61316D01*
X24488Y61305D01*
X24471Y61297D01*
X24453Y61293D01*
X24434Y61291D01*
X24434Y61292D02*
X24398Y61292D01*
X24064Y61292D02*
X23887Y61292D01*
X24064Y61291D02*
X24083Y61293D01*
X24101Y61297D01*
X24118Y61305D01*
X24133Y61316D01*
X24146Y61329D01*
X24157Y61345D01*
X24165Y61361D01*
X24169Y61379D01*
X24171Y61398D01*
X24171Y61576D01*
X24169Y61598D01*
X24164Y61620D01*
X24156Y61640D01*
X24144Y61659D01*
X24129Y61676D01*
X24112Y61691D01*
X24093Y61703D01*
X24073Y61711D01*
X24051Y61716D01*
X24029Y61718D01*
X24007Y61716D01*
X23985Y61711D01*
X23965Y61703D01*
X23946Y61691D01*
X23929Y61676D01*
X23914Y61659D01*
X23902Y61640D01*
X23894Y61620D01*
X23889Y61598D01*
X23887Y61576D01*
X23887Y61505D01*
X24171Y61505D01*
X23356Y61292D02*
X23356Y61932D01*
X23356Y61292D02*
X23534Y61292D01*
X23534Y61291D02*
X23553Y61293D01*
X23571Y61297D01*
X23588Y61305D01*
X23603Y61316D01*
X23616Y61329D01*
X23627Y61345D01*
X23635Y61361D01*
X23639Y61379D01*
X23641Y61398D01*
X23641Y61612D01*
X23639Y61631D01*
X23635Y61649D01*
X23627Y61666D01*
X23616Y61681D01*
X23603Y61694D01*
X23588Y61705D01*
X23571Y61713D01*
X23553Y61717D01*
X23534Y61719D01*
X23534Y61718D02*
X23356Y61718D01*
X22721Y61932D02*
X22721Y61292D01*
X22721Y61540D02*
X22366Y61932D01*
X22579Y61683D02*
X22366Y61292D01*
X22142Y61292D02*
X22142Y61718D01*
X22159Y61896D02*
X22159Y61932D01*
X22124Y61932D01*
X22124Y61896D01*
X22159Y61896D01*
X21873Y61718D02*
X21873Y61292D01*
X21873Y61718D02*
X21696Y61718D01*
X21696Y61719D02*
X21677Y61717D01*
X21659Y61713D01*
X21643Y61705D01*
X21627Y61694D01*
X21614Y61681D01*
X21603Y61666D01*
X21595Y61649D01*
X21591Y61631D01*
X21589Y61612D01*
X21589Y61292D01*
X21216Y61292D02*
X21038Y61292D01*
X21216Y61291D02*
X21235Y61293D01*
X21253Y61297D01*
X21270Y61305D01*
X21285Y61316D01*
X21298Y61329D01*
X21309Y61345D01*
X21317Y61361D01*
X21321Y61379D01*
X21323Y61398D01*
X21323Y61612D01*
X21321Y61631D01*
X21317Y61649D01*
X21309Y61666D01*
X21298Y61681D01*
X21285Y61694D01*
X21270Y61705D01*
X21253Y61713D01*
X21235Y61717D01*
X21216Y61719D01*
X21216Y61718D02*
X21038Y61718D01*
X21038Y61185D01*
X21040Y61166D01*
X21044Y61148D01*
X21052Y61132D01*
X21063Y61116D01*
X21076Y61103D01*
X21092Y61092D01*
X21108Y61084D01*
X21126Y61080D01*
X21145Y61078D01*
X21287Y61078D01*
X20484Y61292D02*
X20484Y61932D01*
X20484Y61292D02*
X20662Y61292D01*
X20662Y61291D02*
X20681Y61293D01*
X20699Y61297D01*
X20716Y61305D01*
X20731Y61316D01*
X20744Y61329D01*
X20755Y61345D01*
X20763Y61361D01*
X20767Y61379D01*
X20769Y61398D01*
X20769Y61612D01*
X20767Y61631D01*
X20763Y61649D01*
X20755Y61666D01*
X20744Y61681D01*
X20731Y61694D01*
X20716Y61705D01*
X20699Y61713D01*
X20681Y61717D01*
X20662Y61719D01*
X20662Y61718D02*
X20484Y61718D01*
X20212Y61576D02*
X20212Y61434D01*
X20212Y61576D02*
X20210Y61598D01*
X20205Y61620D01*
X20197Y61640D01*
X20185Y61659D01*
X20170Y61676D01*
X20153Y61691D01*
X20134Y61703D01*
X20114Y61711D01*
X20092Y61716D01*
X20070Y61718D01*
X20048Y61716D01*
X20026Y61711D01*
X20006Y61703D01*
X19987Y61691D01*
X19970Y61676D01*
X19955Y61659D01*
X19943Y61640D01*
X19935Y61620D01*
X19930Y61598D01*
X19928Y61576D01*
X19927Y61576D02*
X19927Y61434D01*
X19928Y61434D02*
X19930Y61412D01*
X19935Y61390D01*
X19943Y61370D01*
X19955Y61351D01*
X19970Y61334D01*
X19987Y61319D01*
X20006Y61307D01*
X20026Y61299D01*
X20048Y61294D01*
X20070Y61292D01*
X20092Y61294D01*
X20114Y61299D01*
X20134Y61307D01*
X20153Y61319D01*
X20170Y61334D01*
X20185Y61351D01*
X20197Y61370D01*
X20205Y61390D01*
X20210Y61412D01*
X20212Y61434D01*
X19647Y61292D02*
X19647Y61718D01*
X19327Y61718D01*
X19327Y61719D02*
X19308Y61717D01*
X19290Y61713D01*
X19274Y61705D01*
X19258Y61694D01*
X19245Y61681D01*
X19234Y61666D01*
X19226Y61649D01*
X19222Y61631D01*
X19220Y61612D01*
X19220Y61292D01*
X19434Y61292D02*
X19434Y61718D01*
D10*
X16733Y30709D02*
X16735Y30765D01*
X16741Y30820D01*
X16751Y30874D01*
X16764Y30928D01*
X16782Y30981D01*
X16803Y31032D01*
X16827Y31082D01*
X16855Y31130D01*
X16887Y31176D01*
X16921Y31220D01*
X16959Y31261D01*
X16999Y31299D01*
X17042Y31334D01*
X17087Y31366D01*
X17135Y31395D01*
X17184Y31421D01*
X17235Y31443D01*
X17287Y31461D01*
X17341Y31475D01*
X17396Y31486D01*
X17451Y31493D01*
X17506Y31496D01*
X17562Y31495D01*
X17617Y31490D01*
X17672Y31481D01*
X17726Y31469D01*
X17779Y31452D01*
X17831Y31432D01*
X17881Y31408D01*
X17929Y31381D01*
X17976Y31351D01*
X18020Y31317D01*
X18062Y31280D01*
X18100Y31240D01*
X18137Y31198D01*
X18170Y31153D01*
X18199Y31107D01*
X18226Y31058D01*
X18248Y31007D01*
X18268Y30955D01*
X18283Y30901D01*
X18295Y30847D01*
X18303Y30792D01*
X18307Y30737D01*
X18307Y30681D01*
X18303Y30626D01*
X18295Y30571D01*
X18283Y30517D01*
X18268Y30463D01*
X18248Y30411D01*
X18226Y30360D01*
X18199Y30311D01*
X18170Y30265D01*
X18137Y30220D01*
X18100Y30178D01*
X18062Y30138D01*
X18020Y30101D01*
X17976Y30067D01*
X17929Y30037D01*
X17881Y30010D01*
X17831Y29986D01*
X17779Y29966D01*
X17726Y29949D01*
X17672Y29937D01*
X17617Y29928D01*
X17562Y29923D01*
X17506Y29922D01*
X17451Y29925D01*
X17396Y29932D01*
X17341Y29943D01*
X17287Y29957D01*
X17235Y29975D01*
X17184Y29997D01*
X17135Y30023D01*
X17087Y30052D01*
X17042Y30084D01*
X16999Y30119D01*
X16959Y30157D01*
X16921Y30198D01*
X16887Y30242D01*
X16855Y30288D01*
X16827Y30336D01*
X16803Y30386D01*
X16782Y30437D01*
X16764Y30490D01*
X16751Y30544D01*
X16741Y30598D01*
X16735Y30653D01*
X16733Y30709D01*
X11200Y68400D02*
X11200Y70866D01*
X11200Y68400D02*
X38600Y68400D01*
X38600Y70866D01*
X36615Y17717D02*
X36617Y17773D01*
X36623Y17828D01*
X36633Y17882D01*
X36646Y17936D01*
X36664Y17989D01*
X36685Y18040D01*
X36709Y18090D01*
X36737Y18138D01*
X36769Y18184D01*
X36803Y18228D01*
X36841Y18269D01*
X36881Y18307D01*
X36924Y18342D01*
X36969Y18374D01*
X37017Y18403D01*
X37066Y18429D01*
X37117Y18451D01*
X37169Y18469D01*
X37223Y18483D01*
X37278Y18494D01*
X37333Y18501D01*
X37388Y18504D01*
X37444Y18503D01*
X37499Y18498D01*
X37554Y18489D01*
X37608Y18477D01*
X37661Y18460D01*
X37713Y18440D01*
X37763Y18416D01*
X37811Y18389D01*
X37858Y18359D01*
X37902Y18325D01*
X37944Y18288D01*
X37982Y18248D01*
X38019Y18206D01*
X38052Y18161D01*
X38081Y18115D01*
X38108Y18066D01*
X38130Y18015D01*
X38150Y17963D01*
X38165Y17909D01*
X38177Y17855D01*
X38185Y17800D01*
X38189Y17745D01*
X38189Y17689D01*
X38185Y17634D01*
X38177Y17579D01*
X38165Y17525D01*
X38150Y17471D01*
X38130Y17419D01*
X38108Y17368D01*
X38081Y17319D01*
X38052Y17273D01*
X38019Y17228D01*
X37982Y17186D01*
X37944Y17146D01*
X37902Y17109D01*
X37858Y17075D01*
X37811Y17045D01*
X37763Y17018D01*
X37713Y16994D01*
X37661Y16974D01*
X37608Y16957D01*
X37554Y16945D01*
X37499Y16936D01*
X37444Y16931D01*
X37388Y16930D01*
X37333Y16933D01*
X37278Y16940D01*
X37223Y16951D01*
X37169Y16965D01*
X37117Y16983D01*
X37066Y17005D01*
X37017Y17031D01*
X36969Y17060D01*
X36924Y17092D01*
X36881Y17127D01*
X36841Y17165D01*
X36803Y17206D01*
X36769Y17250D01*
X36737Y17296D01*
X36709Y17344D01*
X36685Y17394D01*
X36664Y17445D01*
X36646Y17498D01*
X36633Y17552D01*
X36623Y17606D01*
X36617Y17661D01*
X36615Y17717D01*
X20585Y45700D02*
X20587Y45735D01*
X20593Y45770D01*
X20603Y45804D01*
X20616Y45837D01*
X20633Y45868D01*
X20654Y45896D01*
X20677Y45923D01*
X20704Y45946D01*
X20732Y45967D01*
X20763Y45984D01*
X20796Y45997D01*
X20830Y46007D01*
X20865Y46013D01*
X20900Y46015D01*
X20935Y46013D01*
X20970Y46007D01*
X21004Y45997D01*
X21037Y45984D01*
X21068Y45967D01*
X21096Y45946D01*
X21123Y45923D01*
X21146Y45896D01*
X21167Y45868D01*
X21184Y45837D01*
X21197Y45804D01*
X21207Y45770D01*
X21213Y45735D01*
X21215Y45700D01*
X21213Y45665D01*
X21207Y45630D01*
X21197Y45596D01*
X21184Y45563D01*
X21167Y45532D01*
X21146Y45504D01*
X21123Y45477D01*
X21096Y45454D01*
X21068Y45433D01*
X21037Y45416D01*
X21004Y45403D01*
X20970Y45393D01*
X20935Y45387D01*
X20900Y45385D01*
X20865Y45387D01*
X20830Y45393D01*
X20796Y45403D01*
X20763Y45416D01*
X20732Y45433D01*
X20704Y45454D01*
X20677Y45477D01*
X20654Y45504D01*
X20633Y45532D01*
X20616Y45563D01*
X20603Y45596D01*
X20593Y45630D01*
X20587Y45665D01*
X20585Y45700D01*
X30526Y45700D02*
X30528Y45729D01*
X30534Y45757D01*
X30543Y45785D01*
X30556Y45811D01*
X30573Y45834D01*
X30592Y45856D01*
X30614Y45875D01*
X30639Y45890D01*
X30665Y45903D01*
X30693Y45911D01*
X30721Y45916D01*
X30750Y45917D01*
X30779Y45914D01*
X30807Y45907D01*
X30834Y45897D01*
X30860Y45883D01*
X30883Y45866D01*
X30904Y45846D01*
X30922Y45823D01*
X30937Y45798D01*
X30948Y45771D01*
X30956Y45743D01*
X30960Y45714D01*
X30960Y45686D01*
X30956Y45657D01*
X30948Y45629D01*
X30937Y45602D01*
X30922Y45577D01*
X30904Y45554D01*
X30883Y45534D01*
X30860Y45517D01*
X30834Y45503D01*
X30807Y45493D01*
X30779Y45486D01*
X30750Y45483D01*
X30721Y45484D01*
X30693Y45489D01*
X30665Y45497D01*
X30639Y45510D01*
X30614Y45525D01*
X30592Y45544D01*
X30573Y45566D01*
X30556Y45589D01*
X30543Y45615D01*
X30534Y45643D01*
X30528Y45671D01*
X30526Y45700D01*
X20742Y65543D02*
X20744Y65578D01*
X20750Y65613D01*
X20760Y65647D01*
X20773Y65680D01*
X20790Y65711D01*
X20811Y65739D01*
X20834Y65766D01*
X20861Y65789D01*
X20889Y65810D01*
X20920Y65827D01*
X20953Y65840D01*
X20987Y65850D01*
X21022Y65856D01*
X21057Y65858D01*
X21092Y65856D01*
X21127Y65850D01*
X21161Y65840D01*
X21194Y65827D01*
X21225Y65810D01*
X21253Y65789D01*
X21280Y65766D01*
X21303Y65739D01*
X21324Y65711D01*
X21341Y65680D01*
X21354Y65647D01*
X21364Y65613D01*
X21370Y65578D01*
X21372Y65543D01*
X21370Y65508D01*
X21364Y65473D01*
X21354Y65439D01*
X21341Y65406D01*
X21324Y65375D01*
X21303Y65347D01*
X21280Y65320D01*
X21253Y65297D01*
X21225Y65276D01*
X21194Y65259D01*
X21161Y65246D01*
X21127Y65236D01*
X21092Y65230D01*
X21057Y65228D01*
X21022Y65230D01*
X20987Y65236D01*
X20953Y65246D01*
X20920Y65259D01*
X20889Y65276D01*
X20861Y65297D01*
X20834Y65320D01*
X20811Y65347D01*
X20790Y65375D01*
X20773Y65406D01*
X20760Y65439D01*
X20750Y65473D01*
X20744Y65508D01*
X20742Y65543D01*
X30368Y65543D02*
X30370Y65572D01*
X30376Y65600D01*
X30385Y65628D01*
X30398Y65654D01*
X30415Y65677D01*
X30434Y65699D01*
X30456Y65718D01*
X30481Y65733D01*
X30507Y65746D01*
X30535Y65754D01*
X30563Y65759D01*
X30592Y65760D01*
X30621Y65757D01*
X30649Y65750D01*
X30676Y65740D01*
X30702Y65726D01*
X30725Y65709D01*
X30746Y65689D01*
X30764Y65666D01*
X30779Y65641D01*
X30790Y65614D01*
X30798Y65586D01*
X30802Y65557D01*
X30802Y65529D01*
X30798Y65500D01*
X30790Y65472D01*
X30779Y65445D01*
X30764Y65420D01*
X30746Y65397D01*
X30725Y65377D01*
X30702Y65360D01*
X30676Y65346D01*
X30649Y65336D01*
X30621Y65329D01*
X30592Y65326D01*
X30563Y65327D01*
X30535Y65332D01*
X30507Y65340D01*
X30481Y65353D01*
X30456Y65368D01*
X30434Y65387D01*
X30415Y65409D01*
X30398Y65432D01*
X30385Y65458D01*
X30376Y65486D01*
X30370Y65514D01*
X30368Y65543D01*
X2185Y45700D02*
X2187Y45735D01*
X2193Y45770D01*
X2203Y45804D01*
X2216Y45837D01*
X2233Y45868D01*
X2254Y45896D01*
X2277Y45923D01*
X2304Y45946D01*
X2332Y45967D01*
X2363Y45984D01*
X2396Y45997D01*
X2430Y46007D01*
X2465Y46013D01*
X2500Y46015D01*
X2535Y46013D01*
X2570Y46007D01*
X2604Y45997D01*
X2637Y45984D01*
X2668Y45967D01*
X2696Y45946D01*
X2723Y45923D01*
X2746Y45896D01*
X2767Y45868D01*
X2784Y45837D01*
X2797Y45804D01*
X2807Y45770D01*
X2813Y45735D01*
X2815Y45700D01*
X2813Y45665D01*
X2807Y45630D01*
X2797Y45596D01*
X2784Y45563D01*
X2767Y45532D01*
X2746Y45504D01*
X2723Y45477D01*
X2696Y45454D01*
X2668Y45433D01*
X2637Y45416D01*
X2604Y45403D01*
X2570Y45393D01*
X2535Y45387D01*
X2500Y45385D01*
X2465Y45387D01*
X2430Y45393D01*
X2396Y45403D01*
X2363Y45416D01*
X2332Y45433D01*
X2304Y45454D01*
X2277Y45477D01*
X2254Y45504D01*
X2233Y45532D01*
X2216Y45563D01*
X2203Y45596D01*
X2193Y45630D01*
X2187Y45665D01*
X2185Y45700D01*
X12126Y45700D02*
X12128Y45729D01*
X12134Y45757D01*
X12143Y45785D01*
X12156Y45811D01*
X12173Y45834D01*
X12192Y45856D01*
X12214Y45875D01*
X12239Y45890D01*
X12265Y45903D01*
X12293Y45911D01*
X12321Y45916D01*
X12350Y45917D01*
X12379Y45914D01*
X12407Y45907D01*
X12434Y45897D01*
X12460Y45883D01*
X12483Y45866D01*
X12504Y45846D01*
X12522Y45823D01*
X12537Y45798D01*
X12548Y45771D01*
X12556Y45743D01*
X12560Y45714D01*
X12560Y45686D01*
X12556Y45657D01*
X12548Y45629D01*
X12537Y45602D01*
X12522Y45577D01*
X12504Y45554D01*
X12483Y45534D01*
X12460Y45517D01*
X12434Y45503D01*
X12407Y45493D01*
X12379Y45486D01*
X12350Y45483D01*
X12321Y45484D01*
X12293Y45489D01*
X12265Y45497D01*
X12239Y45510D01*
X12214Y45525D01*
X12192Y45544D01*
X12173Y45566D01*
X12156Y45589D01*
X12143Y45615D01*
X12134Y45643D01*
X12128Y45671D01*
X12126Y45700D01*
X2342Y65543D02*
X2344Y65578D01*
X2350Y65613D01*
X2360Y65647D01*
X2373Y65680D01*
X2390Y65711D01*
X2411Y65739D01*
X2434Y65766D01*
X2461Y65789D01*
X2489Y65810D01*
X2520Y65827D01*
X2553Y65840D01*
X2587Y65850D01*
X2622Y65856D01*
X2657Y65858D01*
X2692Y65856D01*
X2727Y65850D01*
X2761Y65840D01*
X2794Y65827D01*
X2825Y65810D01*
X2853Y65789D01*
X2880Y65766D01*
X2903Y65739D01*
X2924Y65711D01*
X2941Y65680D01*
X2954Y65647D01*
X2964Y65613D01*
X2970Y65578D01*
X2972Y65543D01*
X2970Y65508D01*
X2964Y65473D01*
X2954Y65439D01*
X2941Y65406D01*
X2924Y65375D01*
X2903Y65347D01*
X2880Y65320D01*
X2853Y65297D01*
X2825Y65276D01*
X2794Y65259D01*
X2761Y65246D01*
X2727Y65236D01*
X2692Y65230D01*
X2657Y65228D01*
X2622Y65230D01*
X2587Y65236D01*
X2553Y65246D01*
X2520Y65259D01*
X2489Y65276D01*
X2461Y65297D01*
X2434Y65320D01*
X2411Y65347D01*
X2390Y65375D01*
X2373Y65406D01*
X2360Y65439D01*
X2350Y65473D01*
X2344Y65508D01*
X2342Y65543D01*
X11968Y65543D02*
X11970Y65572D01*
X11976Y65600D01*
X11985Y65628D01*
X11998Y65654D01*
X12015Y65677D01*
X12034Y65699D01*
X12056Y65718D01*
X12081Y65733D01*
X12107Y65746D01*
X12135Y65754D01*
X12163Y65759D01*
X12192Y65760D01*
X12221Y65757D01*
X12249Y65750D01*
X12276Y65740D01*
X12302Y65726D01*
X12325Y65709D01*
X12346Y65689D01*
X12364Y65666D01*
X12379Y65641D01*
X12390Y65614D01*
X12398Y65586D01*
X12402Y65557D01*
X12402Y65529D01*
X12398Y65500D01*
X12390Y65472D01*
X12379Y65445D01*
X12364Y65420D01*
X12346Y65397D01*
X12325Y65377D01*
X12302Y65360D01*
X12276Y65346D01*
X12249Y65336D01*
X12221Y65329D01*
X12192Y65326D01*
X12163Y65327D01*
X12135Y65332D01*
X12107Y65340D01*
X12081Y65353D01*
X12056Y65368D01*
X12034Y65387D01*
X12015Y65409D01*
X11998Y65432D01*
X11985Y65458D01*
X11976Y65486D01*
X11970Y65514D01*
X11968Y65543D01*
X37985Y45700D02*
X37987Y45735D01*
X37993Y45770D01*
X38003Y45804D01*
X38016Y45837D01*
X38033Y45868D01*
X38054Y45896D01*
X38077Y45923D01*
X38104Y45946D01*
X38132Y45967D01*
X38163Y45984D01*
X38196Y45997D01*
X38230Y46007D01*
X38265Y46013D01*
X38300Y46015D01*
X38335Y46013D01*
X38370Y46007D01*
X38404Y45997D01*
X38437Y45984D01*
X38468Y45967D01*
X38496Y45946D01*
X38523Y45923D01*
X38546Y45896D01*
X38567Y45868D01*
X38584Y45837D01*
X38597Y45804D01*
X38607Y45770D01*
X38613Y45735D01*
X38615Y45700D01*
X38613Y45665D01*
X38607Y45630D01*
X38597Y45596D01*
X38584Y45563D01*
X38567Y45532D01*
X38546Y45504D01*
X38523Y45477D01*
X38496Y45454D01*
X38468Y45433D01*
X38437Y45416D01*
X38404Y45403D01*
X38370Y45393D01*
X38335Y45387D01*
X38300Y45385D01*
X38265Y45387D01*
X38230Y45393D01*
X38196Y45403D01*
X38163Y45416D01*
X38132Y45433D01*
X38104Y45454D01*
X38077Y45477D01*
X38054Y45504D01*
X38033Y45532D01*
X38016Y45563D01*
X38003Y45596D01*
X37993Y45630D01*
X37987Y45665D01*
X37985Y45700D01*
X47926Y45700D02*
X47928Y45729D01*
X47934Y45757D01*
X47943Y45785D01*
X47956Y45811D01*
X47973Y45834D01*
X47992Y45856D01*
X48014Y45875D01*
X48039Y45890D01*
X48065Y45903D01*
X48093Y45911D01*
X48121Y45916D01*
X48150Y45917D01*
X48179Y45914D01*
X48207Y45907D01*
X48234Y45897D01*
X48260Y45883D01*
X48283Y45866D01*
X48304Y45846D01*
X48322Y45823D01*
X48337Y45798D01*
X48348Y45771D01*
X48356Y45743D01*
X48360Y45714D01*
X48360Y45686D01*
X48356Y45657D01*
X48348Y45629D01*
X48337Y45602D01*
X48322Y45577D01*
X48304Y45554D01*
X48283Y45534D01*
X48260Y45517D01*
X48234Y45503D01*
X48207Y45493D01*
X48179Y45486D01*
X48150Y45483D01*
X48121Y45484D01*
X48093Y45489D01*
X48065Y45497D01*
X48039Y45510D01*
X48014Y45525D01*
X47992Y45544D01*
X47973Y45566D01*
X47956Y45589D01*
X47943Y45615D01*
X47934Y45643D01*
X47928Y45671D01*
X47926Y45700D01*
X38142Y65543D02*
X38144Y65578D01*
X38150Y65613D01*
X38160Y65647D01*
X38173Y65680D01*
X38190Y65711D01*
X38211Y65739D01*
X38234Y65766D01*
X38261Y65789D01*
X38289Y65810D01*
X38320Y65827D01*
X38353Y65840D01*
X38387Y65850D01*
X38422Y65856D01*
X38457Y65858D01*
X38492Y65856D01*
X38527Y65850D01*
X38561Y65840D01*
X38594Y65827D01*
X38625Y65810D01*
X38653Y65789D01*
X38680Y65766D01*
X38703Y65739D01*
X38724Y65711D01*
X38741Y65680D01*
X38754Y65647D01*
X38764Y65613D01*
X38770Y65578D01*
X38772Y65543D01*
X38770Y65508D01*
X38764Y65473D01*
X38754Y65439D01*
X38741Y65406D01*
X38724Y65375D01*
X38703Y65347D01*
X38680Y65320D01*
X38653Y65297D01*
X38625Y65276D01*
X38594Y65259D01*
X38561Y65246D01*
X38527Y65236D01*
X38492Y65230D01*
X38457Y65228D01*
X38422Y65230D01*
X38387Y65236D01*
X38353Y65246D01*
X38320Y65259D01*
X38289Y65276D01*
X38261Y65297D01*
X38234Y65320D01*
X38211Y65347D01*
X38190Y65375D01*
X38173Y65406D01*
X38160Y65439D01*
X38150Y65473D01*
X38144Y65508D01*
X38142Y65543D01*
X47768Y65543D02*
X47770Y65572D01*
X47776Y65600D01*
X47785Y65628D01*
X47798Y65654D01*
X47815Y65677D01*
X47834Y65699D01*
X47856Y65718D01*
X47881Y65733D01*
X47907Y65746D01*
X47935Y65754D01*
X47963Y65759D01*
X47992Y65760D01*
X48021Y65757D01*
X48049Y65750D01*
X48076Y65740D01*
X48102Y65726D01*
X48125Y65709D01*
X48146Y65689D01*
X48164Y65666D01*
X48179Y65641D01*
X48190Y65614D01*
X48198Y65586D01*
X48202Y65557D01*
X48202Y65529D01*
X48198Y65500D01*
X48190Y65472D01*
X48179Y65445D01*
X48164Y65420D01*
X48146Y65397D01*
X48125Y65377D01*
X48102Y65360D01*
X48076Y65346D01*
X48049Y65336D01*
X48021Y65329D01*
X47992Y65326D01*
X47963Y65327D01*
X47935Y65332D01*
X47907Y65340D01*
X47881Y65353D01*
X47856Y65368D01*
X47834Y65387D01*
X47815Y65409D01*
X47798Y65432D01*
X47785Y65458D01*
X47776Y65486D01*
X47770Y65514D01*
X47768Y65543D01*
X20960Y9950D02*
X20962Y10000D01*
X20968Y10050D01*
X20978Y10099D01*
X20991Y10148D01*
X21009Y10195D01*
X21030Y10241D01*
X21054Y10284D01*
X21082Y10326D01*
X21113Y10366D01*
X21147Y10403D01*
X21184Y10437D01*
X21224Y10468D01*
X21266Y10496D01*
X21309Y10520D01*
X21355Y10541D01*
X21402Y10559D01*
X21451Y10572D01*
X21500Y10582D01*
X21550Y10588D01*
X21600Y10590D01*
X21650Y10588D01*
X21700Y10582D01*
X21749Y10572D01*
X21798Y10559D01*
X21845Y10541D01*
X21891Y10520D01*
X21934Y10496D01*
X21976Y10468D01*
X22016Y10437D01*
X22053Y10403D01*
X22087Y10366D01*
X22118Y10326D01*
X22146Y10284D01*
X22170Y10241D01*
X22191Y10195D01*
X22209Y10148D01*
X22222Y10099D01*
X22232Y10050D01*
X22238Y10000D01*
X22240Y9950D01*
X22238Y9900D01*
X22232Y9850D01*
X22222Y9801D01*
X22209Y9752D01*
X22191Y9705D01*
X22170Y9659D01*
X22146Y9616D01*
X22118Y9574D01*
X22087Y9534D01*
X22053Y9497D01*
X22016Y9463D01*
X21976Y9432D01*
X21934Y9404D01*
X21891Y9380D01*
X21845Y9359D01*
X21798Y9341D01*
X21749Y9328D01*
X21700Y9318D01*
X21650Y9312D01*
X21600Y9310D01*
X21550Y9312D01*
X21500Y9318D01*
X21451Y9328D01*
X21402Y9341D01*
X21355Y9359D01*
X21309Y9380D01*
X21266Y9404D01*
X21224Y9432D01*
X21184Y9463D01*
X21147Y9497D01*
X21113Y9534D01*
X21082Y9574D01*
X21054Y9616D01*
X21030Y9659D01*
X21009Y9705D01*
X20991Y9752D01*
X20978Y9801D01*
X20968Y9850D01*
X20962Y9900D01*
X20960Y9950D01*
X25960Y9950D02*
X25962Y10000D01*
X25968Y10050D01*
X25978Y10099D01*
X25991Y10148D01*
X26009Y10195D01*
X26030Y10241D01*
X26054Y10284D01*
X26082Y10326D01*
X26113Y10366D01*
X26147Y10403D01*
X26184Y10437D01*
X26224Y10468D01*
X26266Y10496D01*
X26309Y10520D01*
X26355Y10541D01*
X26402Y10559D01*
X26451Y10572D01*
X26500Y10582D01*
X26550Y10588D01*
X26600Y10590D01*
X26650Y10588D01*
X26700Y10582D01*
X26749Y10572D01*
X26798Y10559D01*
X26845Y10541D01*
X26891Y10520D01*
X26934Y10496D01*
X26976Y10468D01*
X27016Y10437D01*
X27053Y10403D01*
X27087Y10366D01*
X27118Y10326D01*
X27146Y10284D01*
X27170Y10241D01*
X27191Y10195D01*
X27209Y10148D01*
X27222Y10099D01*
X27232Y10050D01*
X27238Y10000D01*
X27240Y9950D01*
X27238Y9900D01*
X27232Y9850D01*
X27222Y9801D01*
X27209Y9752D01*
X27191Y9705D01*
X27170Y9659D01*
X27146Y9616D01*
X27118Y9574D01*
X27087Y9534D01*
X27053Y9497D01*
X27016Y9463D01*
X26976Y9432D01*
X26934Y9404D01*
X26891Y9380D01*
X26845Y9359D01*
X26798Y9341D01*
X26749Y9328D01*
X26700Y9318D01*
X26650Y9312D01*
X26600Y9310D01*
X26550Y9312D01*
X26500Y9318D01*
X26451Y9328D01*
X26402Y9341D01*
X26355Y9359D01*
X26309Y9380D01*
X26266Y9404D01*
X26224Y9432D01*
X26184Y9463D01*
X26147Y9497D01*
X26113Y9534D01*
X26082Y9574D01*
X26054Y9616D01*
X26030Y9659D01*
X26009Y9705D01*
X25991Y9752D01*
X25978Y9801D01*
X25968Y9850D01*
X25962Y9900D01*
X25960Y9950D01*
X1535Y40647D02*
X1537Y40693D01*
X1543Y40738D01*
X1552Y40783D01*
X1566Y40827D01*
X1583Y40870D01*
X1604Y40911D01*
X1628Y40950D01*
X1655Y40987D01*
X1685Y41021D01*
X1719Y41053D01*
X1754Y41082D01*
X1792Y41108D01*
X1832Y41130D01*
X1874Y41149D01*
X1918Y41164D01*
X1962Y41176D01*
X2007Y41184D01*
X2053Y41188D01*
X2099Y41188D01*
X2145Y41184D01*
X2190Y41176D01*
X2234Y41164D01*
X2278Y41149D01*
X2320Y41130D01*
X2360Y41108D01*
X2398Y41082D01*
X2433Y41053D01*
X2467Y41021D01*
X2497Y40987D01*
X2524Y40950D01*
X2548Y40911D01*
X2569Y40870D01*
X2586Y40827D01*
X2600Y40783D01*
X2609Y40738D01*
X2615Y40693D01*
X2617Y40647D01*
X2615Y40601D01*
X2609Y40556D01*
X2600Y40511D01*
X2586Y40467D01*
X2569Y40424D01*
X2548Y40383D01*
X2524Y40344D01*
X2497Y40307D01*
X2467Y40273D01*
X2433Y40241D01*
X2398Y40212D01*
X2360Y40186D01*
X2320Y40164D01*
X2278Y40145D01*
X2234Y40130D01*
X2190Y40118D01*
X2145Y40110D01*
X2099Y40106D01*
X2053Y40106D01*
X2007Y40110D01*
X1962Y40118D01*
X1918Y40130D01*
X1874Y40145D01*
X1832Y40164D01*
X1792Y40186D01*
X1754Y40212D01*
X1719Y40241D01*
X1685Y40273D01*
X1655Y40307D01*
X1628Y40344D01*
X1604Y40383D01*
X1583Y40424D01*
X1566Y40467D01*
X1552Y40511D01*
X1543Y40556D01*
X1537Y40601D01*
X1535Y40647D01*
X24369Y40647D02*
X24371Y40693D01*
X24377Y40738D01*
X24386Y40783D01*
X24400Y40827D01*
X24417Y40870D01*
X24438Y40911D01*
X24462Y40950D01*
X24489Y40987D01*
X24519Y41021D01*
X24553Y41053D01*
X24588Y41082D01*
X24626Y41108D01*
X24666Y41130D01*
X24708Y41149D01*
X24752Y41164D01*
X24796Y41176D01*
X24841Y41184D01*
X24887Y41188D01*
X24933Y41188D01*
X24979Y41184D01*
X25024Y41176D01*
X25068Y41164D01*
X25112Y41149D01*
X25154Y41130D01*
X25194Y41108D01*
X25232Y41082D01*
X25267Y41053D01*
X25301Y41021D01*
X25331Y40987D01*
X25358Y40950D01*
X25382Y40911D01*
X25403Y40870D01*
X25420Y40827D01*
X25434Y40783D01*
X25443Y40738D01*
X25449Y40693D01*
X25451Y40647D01*
X25449Y40601D01*
X25443Y40556D01*
X25434Y40511D01*
X25420Y40467D01*
X25403Y40424D01*
X25382Y40383D01*
X25358Y40344D01*
X25331Y40307D01*
X25301Y40273D01*
X25267Y40241D01*
X25232Y40212D01*
X25194Y40186D01*
X25154Y40164D01*
X25112Y40145D01*
X25068Y40130D01*
X25024Y40118D01*
X24979Y40110D01*
X24933Y40106D01*
X24887Y40106D01*
X24841Y40110D01*
X24796Y40118D01*
X24752Y40130D01*
X24708Y40145D01*
X24666Y40164D01*
X24626Y40186D01*
X24588Y40212D01*
X24553Y40241D01*
X24519Y40273D01*
X24489Y40307D01*
X24462Y40344D01*
X24438Y40383D01*
X24417Y40424D01*
X24400Y40467D01*
X24386Y40511D01*
X24377Y40556D01*
X24371Y40601D01*
X24369Y40647D01*
X1535Y21356D02*
X1537Y21402D01*
X1543Y21447D01*
X1552Y21492D01*
X1566Y21536D01*
X1583Y21579D01*
X1604Y21620D01*
X1628Y21659D01*
X1655Y21696D01*
X1685Y21730D01*
X1719Y21762D01*
X1754Y21791D01*
X1792Y21817D01*
X1832Y21839D01*
X1874Y21858D01*
X1918Y21873D01*
X1962Y21885D01*
X2007Y21893D01*
X2053Y21897D01*
X2099Y21897D01*
X2145Y21893D01*
X2190Y21885D01*
X2234Y21873D01*
X2278Y21858D01*
X2320Y21839D01*
X2360Y21817D01*
X2398Y21791D01*
X2433Y21762D01*
X2467Y21730D01*
X2497Y21696D01*
X2524Y21659D01*
X2548Y21620D01*
X2569Y21579D01*
X2586Y21536D01*
X2600Y21492D01*
X2609Y21447D01*
X2615Y21402D01*
X2617Y21356D01*
X2615Y21310D01*
X2609Y21265D01*
X2600Y21220D01*
X2586Y21176D01*
X2569Y21133D01*
X2548Y21092D01*
X2524Y21053D01*
X2497Y21016D01*
X2467Y20982D01*
X2433Y20950D01*
X2398Y20921D01*
X2360Y20895D01*
X2320Y20873D01*
X2278Y20854D01*
X2234Y20839D01*
X2190Y20827D01*
X2145Y20819D01*
X2099Y20815D01*
X2053Y20815D01*
X2007Y20819D01*
X1962Y20827D01*
X1918Y20839D01*
X1874Y20854D01*
X1832Y20873D01*
X1792Y20895D01*
X1754Y20921D01*
X1719Y20950D01*
X1685Y20982D01*
X1655Y21016D01*
X1628Y21053D01*
X1604Y21092D01*
X1583Y21133D01*
X1566Y21176D01*
X1552Y21220D01*
X1543Y21265D01*
X1537Y21310D01*
X1535Y21356D01*
X24369Y21356D02*
X24371Y21402D01*
X24377Y21447D01*
X24386Y21492D01*
X24400Y21536D01*
X24417Y21579D01*
X24438Y21620D01*
X24462Y21659D01*
X24489Y21696D01*
X24519Y21730D01*
X24553Y21762D01*
X24588Y21791D01*
X24626Y21817D01*
X24666Y21839D01*
X24708Y21858D01*
X24752Y21873D01*
X24796Y21885D01*
X24841Y21893D01*
X24887Y21897D01*
X24933Y21897D01*
X24979Y21893D01*
X25024Y21885D01*
X25068Y21873D01*
X25112Y21858D01*
X25154Y21839D01*
X25194Y21817D01*
X25232Y21791D01*
X25267Y21762D01*
X25301Y21730D01*
X25331Y21696D01*
X25358Y21659D01*
X25382Y21620D01*
X25403Y21579D01*
X25420Y21536D01*
X25434Y21492D01*
X25443Y21447D01*
X25449Y21402D01*
X25451Y21356D01*
X25449Y21310D01*
X25443Y21265D01*
X25434Y21220D01*
X25420Y21176D01*
X25403Y21133D01*
X25382Y21092D01*
X25358Y21053D01*
X25331Y21016D01*
X25301Y20982D01*
X25267Y20950D01*
X25232Y20921D01*
X25194Y20895D01*
X25154Y20873D01*
X25112Y20854D01*
X25068Y20839D01*
X25024Y20827D01*
X24979Y20819D01*
X24933Y20815D01*
X24887Y20815D01*
X24841Y20819D01*
X24796Y20827D01*
X24752Y20839D01*
X24708Y20854D01*
X24666Y20873D01*
X24626Y20895D01*
X24588Y20921D01*
X24553Y20950D01*
X24519Y20982D01*
X24489Y21016D01*
X24462Y21053D01*
X24438Y21092D01*
X24417Y21133D01*
X24400Y21176D01*
X24386Y21220D01*
X24377Y21265D01*
X24371Y21310D01*
X24369Y21356D01*
X33839Y19218D02*
X33841Y19266D01*
X33847Y19314D01*
X33857Y19361D01*
X33870Y19407D01*
X33888Y19452D01*
X33908Y19496D01*
X33933Y19538D01*
X33961Y19577D01*
X33991Y19614D01*
X34025Y19648D01*
X34062Y19680D01*
X34100Y19709D01*
X34141Y19734D01*
X34184Y19756D01*
X34229Y19774D01*
X34275Y19788D01*
X34322Y19799D01*
X34370Y19806D01*
X34418Y19809D01*
X34466Y19808D01*
X34514Y19803D01*
X34562Y19794D01*
X34608Y19782D01*
X34653Y19765D01*
X34697Y19745D01*
X34739Y19722D01*
X34779Y19695D01*
X34817Y19665D01*
X34852Y19632D01*
X34884Y19596D01*
X34914Y19558D01*
X34940Y19517D01*
X34962Y19474D01*
X34982Y19430D01*
X34997Y19385D01*
X35009Y19338D01*
X35017Y19290D01*
X35021Y19242D01*
X35021Y19194D01*
X35017Y19146D01*
X35009Y19098D01*
X34997Y19051D01*
X34982Y19006D01*
X34962Y18962D01*
X34940Y18919D01*
X34914Y18878D01*
X34884Y18840D01*
X34852Y18804D01*
X34817Y18771D01*
X34779Y18741D01*
X34739Y18714D01*
X34697Y18691D01*
X34653Y18671D01*
X34608Y18654D01*
X34562Y18642D01*
X34514Y18633D01*
X34466Y18628D01*
X34418Y18627D01*
X34370Y18630D01*
X34322Y18637D01*
X34275Y18648D01*
X34229Y18662D01*
X34184Y18680D01*
X34141Y18702D01*
X34100Y18727D01*
X34062Y18756D01*
X34025Y18788D01*
X33991Y18822D01*
X33961Y18859D01*
X33933Y18898D01*
X33908Y18940D01*
X33888Y18984D01*
X33870Y19029D01*
X33857Y19075D01*
X33847Y19122D01*
X33841Y19170D01*
X33839Y19218D01*
X16285Y7200D02*
X16287Y7235D01*
X16293Y7270D01*
X16303Y7304D01*
X16316Y7337D01*
X16333Y7368D01*
X16354Y7396D01*
X16377Y7423D01*
X16404Y7446D01*
X16432Y7467D01*
X16463Y7484D01*
X16496Y7497D01*
X16530Y7507D01*
X16565Y7513D01*
X16600Y7515D01*
X16635Y7513D01*
X16670Y7507D01*
X16704Y7497D01*
X16737Y7484D01*
X16768Y7467D01*
X16796Y7446D01*
X16823Y7423D01*
X16846Y7396D01*
X16867Y7368D01*
X16884Y7337D01*
X16897Y7304D01*
X16907Y7270D01*
X16913Y7235D01*
X16915Y7200D01*
X16913Y7165D01*
X16907Y7130D01*
X16897Y7096D01*
X16884Y7063D01*
X16867Y7032D01*
X16846Y7004D01*
X16823Y6977D01*
X16796Y6954D01*
X16768Y6933D01*
X16737Y6916D01*
X16704Y6903D01*
X16670Y6893D01*
X16635Y6887D01*
X16600Y6885D01*
X16565Y6887D01*
X16530Y6893D01*
X16496Y6903D01*
X16463Y6916D01*
X16432Y6933D01*
X16404Y6954D01*
X16377Y6977D01*
X16354Y7004D01*
X16333Y7032D01*
X16316Y7063D01*
X16303Y7096D01*
X16293Y7130D01*
X16287Y7165D01*
X16285Y7200D01*
X16246Y8972D02*
X16248Y9009D01*
X16254Y9046D01*
X16263Y9081D01*
X16277Y9116D01*
X16293Y9149D01*
X16314Y9180D01*
X16337Y9209D01*
X16363Y9235D01*
X16392Y9258D01*
X16423Y9279D01*
X16456Y9295D01*
X16491Y9309D01*
X16526Y9318D01*
X16563Y9324D01*
X16600Y9326D01*
X16637Y9324D01*
X16674Y9318D01*
X16709Y9309D01*
X16744Y9295D01*
X16777Y9279D01*
X16808Y9258D01*
X16837Y9235D01*
X16863Y9209D01*
X16886Y9180D01*
X16907Y9149D01*
X16923Y9116D01*
X16937Y9081D01*
X16946Y9046D01*
X16952Y9009D01*
X16954Y8972D01*
X16952Y8935D01*
X16946Y8898D01*
X16937Y8863D01*
X16923Y8828D01*
X16907Y8795D01*
X16886Y8764D01*
X16863Y8735D01*
X16837Y8709D01*
X16808Y8686D01*
X16777Y8665D01*
X16744Y8649D01*
X16709Y8635D01*
X16674Y8626D01*
X16637Y8620D01*
X16600Y8618D01*
X16563Y8620D01*
X16526Y8626D01*
X16491Y8635D01*
X16456Y8649D01*
X16423Y8665D01*
X16392Y8686D01*
X16363Y8709D01*
X16337Y8735D01*
X16314Y8764D01*
X16293Y8795D01*
X16277Y8828D01*
X16263Y8863D01*
X16254Y8898D01*
X16248Y8935D01*
X16246Y8972D01*
M02*
