M48
;GenerationSoftware,Autodesk,EAGLE,9.5.2*%
;CreationDate,2021-01-25T18:34:33Z*%
FMAT,2
ICI,OFF
METRIC,TZ,000.000
T19C0.350
T18C0.850
T17C0.900
T16C0.991
T15C1.000
T14C1.016
T13C1.100
T12C1.270
T11C1.295
T10C1.600
T9C1.650
T8C1.778
T7C1.800
T6C2.300
T5C2.500
T4C3.000
T3C3.200
T2C3.500
%
G90
M71
T2
X104711Y111760
T3
X99725Y7850
X111155Y7850
T4
X134049Y118237
X99305Y56730
X104076Y118237
X134049Y100203
X104076Y100203
T5
X18500Y121500
X122500Y121500
X122500Y17500
X18500Y17500
T6
X18970Y60105
X18970Y73245
X18970Y85505
X18970Y98645
T7
X34925Y6722
T8
X84445Y7947
X84445Y2848
X89545Y2848
X89545Y7947
X73035Y7947
X73035Y2848
X67935Y2848
X67935Y7947
T9
X113020Y10845
X97820Y10845
T10
X93980Y105410
X43580Y105810
X34925Y2223
T11
X54635Y5982
X61646Y5982
T12
X86995Y5398
X70485Y5398
T13
X43580Y130010
X93980Y130410
T14
X74295Y92710
X71755Y92710
X74295Y90170
X86995Y92710
X71755Y90170
X69215Y92710
X69215Y90170
X66675Y92710
X66675Y90170
X64135Y92710
X64135Y90170
X61595Y92710
X94615Y90170
X112395Y90170
X109855Y92710
X109855Y90170
X107315Y92710
X107315Y90170
X104775Y92710
X104775Y90170
X102235Y92710
X102235Y90170
X99695Y92710
X99695Y90170
X97155Y92710
X97155Y90170
X94615Y92710
X76835Y90170
X92075Y92710
X92075Y90170
X89535Y92710
X89535Y90170
X112395Y92710
X86995Y90170
X84455Y92710
X84455Y90170
X81915Y92710
X81915Y90170
X79375Y92710
X79375Y90170
X76835Y92710
X122555Y90170
X121920Y34925
X121920Y37465
X124460Y34925
X124460Y37465
X127000Y34925
X127000Y37465
X61595Y90170
X125095Y92710
X125095Y90170
X122555Y92710
X120015Y92710
X120015Y90170
X117475Y90170
X59055Y92710
X59055Y90170
X56515Y92710
X56515Y90170
X53975Y92710
X53975Y90170
X51435Y92710
X51435Y90170
X114935Y90170
X114935Y92710
X117475Y92710
T15
X134938Y111760
X134938Y109220
X134938Y106680
X134938Y104140
X134938Y114300
X101320Y2895
X109520Y2895
X112020Y2895
X98820Y2895
X100995Y14200
X103535Y14200
X106075Y14200
X102265Y16740
X104805Y16740
X107345Y16740
X108615Y14200
X109885Y16740
T16
X55880Y3492
X60376Y3492
T17
X21680Y88575
X21680Y91075
X21680Y93075
X21680Y70175
X21680Y67675
X21680Y65675
X21680Y63175
X21680Y95575
T18
X46990Y5080
X49530Y5080
X46990Y7620
X49530Y7620
T19
X92392Y126365
X13970Y47625
X102235Y29845
X93662Y122872
X96202Y123190
X95885Y117157
X100647Y109220
X87947Y107315
X108902Y33020
X105092Y40323
X108902Y38735
X50165Y84455
X13970Y46355
X13970Y45085
X13970Y43815
X13970Y25400
X13970Y26670
X13970Y27940
X13970Y29210
X102870Y22225
X107950Y119697
X100330Y118745
X59690Y55245
X57150Y78105
X23495Y92710
X46990Y67310
X46990Y66503
X95250Y38100
X50584Y66040
X93980Y39370
X49776Y66040
X103505Y30480
X99060Y37465
X109220Y36830
X95250Y16510
X100965Y33020
X104775Y26670
X87947Y119697
X86360Y117475
X100965Y129540
X95250Y128905
X103505Y127635
X100330Y132715
X103187Y103505
X111125Y114617
X100012Y115252
X58420Y14605
X60960Y55245
X104140Y121920
X25400Y34925
X27940Y55245
M30