M48
;GenerationSoftware,Autodesk,EAGLE,9.5.2*%
;CreationDate,2020-06-09T15:14:33Z*%
FMAT,2
ICI,OFF
INCH,TZ,000.000
T9C0.012
T8C0.014
T7C0.036
T6C0.040
T5C0.043
T4C0.047
T3C0.063
T2C0.118
%
G90
M72
T2
X2206Y423
T3
X3204Y1250
T4
X337Y59
X62Y57
T5
X574Y1250
T6
X1222Y1741
X1022Y1741
X1222Y1841
X1322Y1741
X1322Y1841
X1422Y1741
X1422Y1841
X1522Y1741
X1522Y1841
X1622Y1741
X1622Y1841
X1722Y1741
X1722Y1841
X1822Y1741
X1122Y1841
X1122Y1741
X1022Y1841
X1922Y1741
X922Y1841
X922Y1741
X822Y1841
X822Y1741
X722Y1841
X722Y1741
X622Y1841
X622Y1741
X522Y1841
X522Y1741
X2622Y1741
X3443Y1343
X3443Y1243
X3222Y1841
X3222Y1741
X3122Y1841
X3122Y1741
X3022Y1841
X3022Y1741
X2922Y1841
X2922Y1741
X2822Y1841
X2822Y1741
X2722Y1841
X2722Y1741
X2622Y1841
X1822Y1841
X2522Y1841
X2522Y1741
X2422Y1841
X2422Y1741
X2322Y1841
X2322Y1741
X2222Y1841
X2222Y1741
X2122Y1841
X2122Y1741
X2022Y1841
X2022Y1741
X1922Y1841
X422Y1841
X422Y1741
X322Y1841
X322Y1741
T7
X3400Y950
X3400Y850
X3400Y750
T8
X1175Y1275
X2250Y975
X1075Y1300
X1975Y1000
X2000Y850
X2050Y825
X2075Y900
X2125Y900
X2175Y975
X2225Y925
X3075Y175
X1250Y1225
X2175Y1275
X3310Y270
X2300Y300
X100Y240
X400Y200
X2870Y590
X523Y1523
X2460Y180
X2770Y170
X725Y950
X2325Y975
X2820Y310
X2960Y610
X3050Y650
X2780Y370
X2720Y770
X2950Y800
X2742Y710
X2960Y720
X2300Y925
X2350Y900
X2400Y975
X2425Y900
X2700Y840
X2475Y975
X2850Y900
X2780Y870
X2690Y900
T9
X-250Y1043
X730Y807
X-419Y364
X-31Y1372
X-515Y992
X163Y1771
X-204Y457
X-304Y1408
X1960Y1313
X2066Y1280
X853Y1613
X47Y445
X47Y475
X182Y645
X918Y1180
X152Y659
X888Y1180
M30