G04 EAGLE Gerber RS-274X export*
G75*
%MOIN*%
%FSLAX34Y34*%
%LPD*%
%INTop solder paste for stencil*%
%IPPOS*%
%AMOC8*
5,1,8,0,0,1.08239X$1,22.5*%
G01*
%ADD10C,0.000000*%
%ADD11R,0.013780X0.078740*%
%ADD12R,0.177165X0.181102*%
%ADD13R,0.013780X0.055118*%
%ADD14R,0.060866X0.074803*%
%ADD15R,0.074803X0.074803*%
%ADD16C,0.074803*%
%ADD17R,0.011811X0.037402*%
%ADD18R,0.039370X0.043307*%
%ADD19R,0.020079X0.015748*%
%ADD20R,0.015748X0.020079*%
%ADD21R,0.043307X0.039370*%
%ADD22R,0.031496X0.031496*%
%ADD23R,0.140000X0.055118*%
%ADD24R,0.098425X0.066929*%
%ADD25R,0.009843X0.039370*%
%ADD26R,0.062992X0.070866*%
%ADD27R,0.059055X0.051181*%
%ADD28R,0.141732X0.059055*%
%ADD29R,0.033465X0.043307*%
%ADD30R,0.029528X0.043307*%
%ADD31R,0.061024X0.053150*%
%ADD32R,0.046063X0.070866*%
%ADD33R,0.074803X0.053150*%
%ADD34R,0.047244X0.039370*%


D10*
X-5906Y0D02*
X35433Y0D01*
X35433Y19685D01*
X-5906Y19685D01*
X-5906Y0D01*
X21473Y4233D02*
X21475Y4281D01*
X21481Y4329D01*
X21491Y4376D01*
X21504Y4422D01*
X21522Y4467D01*
X21542Y4511D01*
X21567Y4553D01*
X21595Y4592D01*
X21625Y4629D01*
X21659Y4663D01*
X21696Y4695D01*
X21734Y4724D01*
X21775Y4749D01*
X21818Y4771D01*
X21863Y4789D01*
X21909Y4803D01*
X21956Y4814D01*
X22004Y4821D01*
X22052Y4824D01*
X22100Y4823D01*
X22148Y4818D01*
X22196Y4809D01*
X22242Y4797D01*
X22287Y4780D01*
X22331Y4760D01*
X22373Y4737D01*
X22413Y4710D01*
X22451Y4680D01*
X22486Y4647D01*
X22518Y4611D01*
X22548Y4573D01*
X22574Y4532D01*
X22596Y4489D01*
X22616Y4445D01*
X22631Y4400D01*
X22643Y4353D01*
X22651Y4305D01*
X22655Y4257D01*
X22655Y4209D01*
X22651Y4161D01*
X22643Y4113D01*
X22631Y4066D01*
X22616Y4021D01*
X22596Y3977D01*
X22574Y3934D01*
X22548Y3893D01*
X22518Y3855D01*
X22486Y3819D01*
X22451Y3786D01*
X22413Y3756D01*
X22373Y3729D01*
X22331Y3706D01*
X22287Y3686D01*
X22242Y3669D01*
X22196Y3657D01*
X22148Y3648D01*
X22100Y3643D01*
X22052Y3642D01*
X22004Y3645D01*
X21956Y3652D01*
X21909Y3663D01*
X21863Y3677D01*
X21818Y3695D01*
X21775Y3717D01*
X21734Y3742D01*
X21696Y3771D01*
X21659Y3803D01*
X21625Y3837D01*
X21595Y3874D01*
X21567Y3913D01*
X21542Y3955D01*
X21522Y3999D01*
X21504Y4044D01*
X21491Y4090D01*
X21481Y4137D01*
X21475Y4185D01*
X21473Y4233D01*
D11*
X31354Y14114D03*
X31236Y10886D03*
X31118Y14114D03*
X31000Y10886D03*
X30882Y14114D03*
X30764Y10886D03*
X30646Y14114D03*
X30528Y10886D03*
X30409Y14114D03*
X30291Y10886D03*
X30173Y14114D03*
X30055Y10886D03*
X29937Y14114D03*
X29819Y10886D03*
X29701Y14114D03*
X29583Y10886D03*
X29465Y14114D03*
X29346Y10886D03*
X29228Y14114D03*
X29110Y10886D03*
X28992Y14114D03*
X28874Y10886D03*
X28756Y14114D03*
X28638Y10886D03*
X28520Y14114D03*
X28402Y10886D03*
X28283Y14114D03*
X28165Y10886D03*
X28047Y14114D03*
X27929Y10886D03*
X27811Y14114D03*
X27693Y10886D03*
X27575Y14114D03*
X27457Y10886D03*
X27339Y14114D03*
X27220Y10886D03*
X27102Y14114D03*
X26984Y10886D03*
X26866Y14114D03*
X26748Y10886D03*
X25213Y14114D03*
X25094Y10886D03*
X24976Y14114D03*
X24858Y10886D03*
X24740Y14114D03*
X24622Y10886D03*
X24504Y14114D03*
X24386Y10886D03*
X24268Y14114D03*
X24150Y10886D03*
X24031Y14114D03*
X23913Y10886D03*
X23795Y14114D03*
X23677Y10886D03*
X23559Y14114D03*
X23441Y10886D03*
X23323Y14114D03*
X23205Y10886D03*
X23087Y14114D03*
X22969Y10886D03*
X22850Y14114D03*
X22732Y10886D03*
X22614Y14114D03*
X22496Y10886D03*
X22378Y14114D03*
X22260Y10886D03*
X22142Y14114D03*
X22024Y10886D03*
X21906Y14114D03*
X21787Y10886D03*
X21669Y14114D03*
X21551Y10886D03*
X21433Y14114D03*
X21315Y10886D03*
X21197Y14114D03*
X21079Y10886D03*
X20961Y14114D03*
X20843Y10886D03*
X20724Y14114D03*
X20606Y10886D03*
X20488Y14114D03*
X20370Y10886D03*
X20252Y14114D03*
X20134Y10886D03*
X20016Y14114D03*
X19898Y10886D03*
X19780Y14114D03*
X19661Y10886D03*
X19543Y14114D03*
X19425Y10886D03*
X19307Y14114D03*
X19189Y10886D03*
X19071Y14114D03*
X18953Y10886D03*
X18835Y14114D03*
X18717Y10886D03*
X18598Y14114D03*
X18480Y10886D03*
X18362Y14114D03*
X18244Y10886D03*
X18126Y14114D03*
X18008Y10886D03*
X17890Y14114D03*
X17772Y10886D03*
X17654Y14114D03*
X17535Y10886D03*
X17417Y14114D03*
X17299Y10886D03*
X17181Y14114D03*
X17063Y10886D03*
X16945Y14114D03*
X16827Y10886D03*
X16709Y14114D03*
X16591Y10886D03*
X16472Y14114D03*
X16354Y10886D03*
X16236Y14114D03*
X16118Y10886D03*
X16000Y14114D03*
X15882Y10886D03*
X15764Y14114D03*
X15646Y10886D03*
X15528Y14114D03*
X15409Y10886D03*
X15291Y14114D03*
X15173Y10886D03*
X15055Y14114D03*
X14937Y10886D03*
X14819Y14114D03*
X14701Y10886D03*
X14583Y14114D03*
X14465Y10886D03*
X14346Y14114D03*
X14228Y10886D03*
X14110Y14114D03*
X13992Y10886D03*
X13874Y14114D03*
X13756Y10886D03*
X13638Y14114D03*
X13520Y10886D03*
X13402Y14114D03*
X13283Y10886D03*
X13165Y14114D03*
X13047Y10886D03*
X12929Y14114D03*
X12811Y10886D03*
X12693Y14114D03*
X12575Y10886D03*
X12457Y14114D03*
X12339Y10886D03*
X12220Y14114D03*
X12102Y10886D03*
X11984Y14114D03*
X11866Y10886D03*
X11748Y14114D03*
X11630Y10886D03*
X11512Y14114D03*
X11394Y10886D03*
X11276Y14114D03*
X11157Y10886D03*
X11039Y14114D03*
X10921Y10886D03*
X10803Y14114D03*
X10685Y10886D03*
X10567Y14114D03*
X10449Y10886D03*
X10331Y14114D03*
X10213Y10886D03*
X10094Y14114D03*
X9976Y10886D03*
X9858Y14114D03*
X9740Y10886D03*
X9622Y14114D03*
X9504Y10886D03*
X9386Y14114D03*
X9268Y10886D03*
X9150Y14114D03*
X9031Y10886D03*
X8913Y14114D03*
X8795Y10886D03*
X8677Y14114D03*
X8559Y10886D03*
X8441Y14114D03*
X8323Y10886D03*
X8205Y14114D03*
X8087Y10886D03*
X7969Y14114D03*
X7850Y10886D03*
X7732Y14114D03*
X7614Y10886D03*
X7496Y14114D03*
X7378Y10886D03*
X7260Y14114D03*
X7142Y10886D03*
X7024Y14114D03*
X6906Y10886D03*
X6787Y14114D03*
X6669Y10886D03*
X6551Y14114D03*
X6433Y10886D03*
D12*
X31709Y7776D03*
X6079Y7776D03*
D10*
X31728Y12500D02*
X31730Y12535D01*
X31736Y12570D01*
X31746Y12604D01*
X31759Y12637D01*
X31776Y12668D01*
X31797Y12696D01*
X31820Y12723D01*
X31847Y12746D01*
X31875Y12767D01*
X31906Y12784D01*
X31939Y12797D01*
X31973Y12807D01*
X32008Y12813D01*
X32043Y12815D01*
X32078Y12813D01*
X32113Y12807D01*
X32147Y12797D01*
X32180Y12784D01*
X32211Y12767D01*
X32239Y12746D01*
X32266Y12723D01*
X32289Y12696D01*
X32310Y12668D01*
X32327Y12637D01*
X32340Y12604D01*
X32350Y12570D01*
X32356Y12535D01*
X32358Y12500D01*
X32356Y12465D01*
X32350Y12430D01*
X32340Y12396D01*
X32327Y12363D01*
X32310Y12332D01*
X32289Y12304D01*
X32266Y12277D01*
X32239Y12254D01*
X32211Y12233D01*
X32180Y12216D01*
X32147Y12203D01*
X32113Y12193D01*
X32078Y12187D01*
X32043Y12185D01*
X32008Y12187D01*
X31973Y12193D01*
X31939Y12203D01*
X31906Y12216D01*
X31875Y12233D01*
X31847Y12254D01*
X31820Y12277D01*
X31797Y12304D01*
X31776Y12332D01*
X31759Y12363D01*
X31746Y12396D01*
X31736Y12430D01*
X31730Y12465D01*
X31728Y12500D01*
X5527Y12500D02*
X5529Y12529D01*
X5535Y12557D01*
X5544Y12585D01*
X5557Y12611D01*
X5574Y12634D01*
X5593Y12656D01*
X5615Y12675D01*
X5640Y12690D01*
X5666Y12703D01*
X5694Y12711D01*
X5722Y12716D01*
X5751Y12717D01*
X5780Y12714D01*
X5808Y12707D01*
X5835Y12697D01*
X5861Y12683D01*
X5884Y12666D01*
X5905Y12646D01*
X5923Y12623D01*
X5938Y12598D01*
X5949Y12571D01*
X5957Y12543D01*
X5961Y12514D01*
X5961Y12486D01*
X5957Y12457D01*
X5949Y12429D01*
X5938Y12402D01*
X5923Y12377D01*
X5905Y12354D01*
X5884Y12334D01*
X5861Y12317D01*
X5835Y12303D01*
X5808Y12293D01*
X5780Y12286D01*
X5751Y12283D01*
X5722Y12284D01*
X5694Y12289D01*
X5666Y12297D01*
X5640Y12310D01*
X5615Y12325D01*
X5593Y12344D01*
X5574Y12366D01*
X5557Y12389D01*
X5544Y12415D01*
X5535Y12443D01*
X5529Y12471D01*
X5527Y12500D01*
D13*
X1488Y1634D03*
X2512Y1634D03*
X1744Y1634D03*
X2000Y1634D03*
X2256Y1634D03*
D14*
X720Y1471D03*
X3270Y1491D03*
D15*
X1530Y591D03*
X2460Y591D03*
D16*
X620Y571D03*
X3370Y601D03*
D17*
X2144Y5435D03*
X1947Y5435D03*
X1750Y5435D03*
X1553Y5435D03*
X1356Y5435D03*
X1356Y3565D03*
X1553Y3565D03*
X1750Y3565D03*
X1947Y3565D03*
X2144Y3565D03*
D18*
X3165Y6500D03*
X3835Y6500D03*
D19*
X4006Y5053D03*
X4006Y5447D03*
X3494Y5250D03*
D18*
X3415Y3500D03*
X4085Y3500D03*
D20*
X34303Y5244D03*
X34697Y5244D03*
X34500Y5756D03*
D19*
X33744Y2697D03*
X33744Y2303D03*
X34256Y2500D03*
D18*
X33665Y1000D03*
X34335Y1000D03*
D21*
X34000Y4335D03*
X34000Y3665D03*
X22050Y2165D03*
X22050Y2835D03*
D22*
X35000Y4295D03*
X35000Y3705D03*
D23*
X-3277Y18146D03*
X-1187Y18146D03*
D21*
X3409Y14831D03*
X2740Y14831D03*
D24*
X-3260Y8906D03*
D25*
X-2817Y9575D03*
X-2994Y9575D03*
X-3171Y9575D03*
X-3348Y9575D03*
X-3526Y9575D03*
X-3703Y9575D03*
X-3703Y8236D03*
X-3526Y8236D03*
X-3348Y8236D03*
X-3171Y8236D03*
X-2994Y8236D03*
X-2817Y8236D03*
D18*
X-571Y6783D03*
X-1240Y6783D03*
X-3760Y10795D03*
X-4429Y10795D03*
D21*
X-2035Y5295D03*
X-2035Y5965D03*
D26*
X-1835Y16236D03*
X-2937Y16236D03*
D27*
X-1067Y8575D03*
X-1067Y9323D03*
X-5059Y8209D03*
X-5059Y8957D03*
X-5189Y4673D03*
X-5189Y5421D03*
X-1429Y12996D03*
X-1429Y12248D03*
D28*
X-3535Y5833D03*
X-3535Y4632D03*
X-2996Y12045D03*
X-2996Y13246D03*
D21*
X-1240Y5575D03*
X-571Y5575D03*
D22*
X-4189Y2264D03*
X-4189Y2854D03*
D21*
X-4205Y539D03*
X-4205Y1209D03*
D29*
X28955Y642D03*
X28522Y642D03*
X28089Y642D03*
X27656Y642D03*
X27222Y642D03*
X26789Y642D03*
X26356Y642D03*
D30*
X25943Y642D03*
D31*
X29923Y691D03*
D32*
X25467Y780D03*
D33*
X26264Y4904D03*
X28614Y4904D03*
D34*
X29992Y4520D03*
X29992Y3063D03*
D21*
X24516Y1335D03*
X23846Y1335D03*
X34774Y15337D03*
X34105Y15337D03*
D18*
X32413Y15306D03*
X33082Y15306D03*
M02*
