G04 EAGLE Gerber RS-274X export*
G75*
%MOIN*%
%FSLAX34Y34*%
%LPD*%
%INTop solder mask*%
%IPPOS*%
%AMOC8*
5,1,8,0,0,1.08239X$1,22.5*%
G01*
%ADD10C,0.000000*%
%ADD11C,0.122110*%
%ADD12C,0.003000*%
%ADD13R,0.017780X0.082740*%
%ADD14R,0.181165X0.185102*%
%ADD15C,0.066992*%
%ADD16C,0.047307*%
%ADD17P,0.069273X8X22.500000*%
%ADD18R,0.017780X0.059118*%
%ADD19R,0.064866X0.078803*%
%ADD20R,0.078803X0.078803*%
%ADD21C,0.074866*%
%ADD22C,0.078803*%
%ADD23R,0.015748X0.043307*%
%ADD24R,0.043370X0.047307*%
%ADD25R,0.024079X0.019748*%
%ADD26C,0.054000*%
%ADD27R,0.019748X0.024079*%
%ADD28R,0.047307X0.043370*%
%ADD29R,0.035496X0.035496*%
%ADD30C,0.060000*%
%ADD31C,0.064000*%
%ADD32R,0.144000X0.059118*%
%ADD33R,0.102425X0.070929*%
%ADD34R,0.013843X0.043370*%
%ADD35R,0.066992X0.074866*%
%ADD36R,0.063055X0.055181*%
%ADD37R,0.145732X0.063055*%
%ADD38R,0.037465X0.047307*%
%ADD39R,0.033528X0.047307*%
%ADD40R,0.065024X0.057150*%
%ADD41R,0.050063X0.074866*%
%ADD42R,0.078803X0.057150*%
%ADD43R,0.051244X0.043370*%


D10*
X-5906Y0D02*
X35433Y0D01*
X35433Y19685D01*
X-5906Y19685D01*
X-5906Y0D01*
X21473Y4233D02*
X21475Y4281D01*
X21481Y4329D01*
X21491Y4376D01*
X21504Y4422D01*
X21522Y4467D01*
X21542Y4511D01*
X21567Y4553D01*
X21595Y4592D01*
X21625Y4629D01*
X21659Y4663D01*
X21696Y4695D01*
X21734Y4724D01*
X21775Y4749D01*
X21818Y4771D01*
X21863Y4789D01*
X21909Y4803D01*
X21956Y4814D01*
X22004Y4821D01*
X22052Y4824D01*
X22100Y4823D01*
X22148Y4818D01*
X22196Y4809D01*
X22242Y4797D01*
X22287Y4780D01*
X22331Y4760D01*
X22373Y4737D01*
X22413Y4710D01*
X22451Y4680D01*
X22486Y4647D01*
X22518Y4611D01*
X22548Y4573D01*
X22574Y4532D01*
X22596Y4489D01*
X22616Y4445D01*
X22631Y4400D01*
X22643Y4353D01*
X22651Y4305D01*
X22655Y4257D01*
X22655Y4209D01*
X22651Y4161D01*
X22643Y4113D01*
X22631Y4066D01*
X22616Y4021D01*
X22596Y3977D01*
X22574Y3934D01*
X22548Y3893D01*
X22518Y3855D01*
X22486Y3819D01*
X22451Y3786D01*
X22413Y3756D01*
X22373Y3729D01*
X22331Y3706D01*
X22287Y3686D01*
X22242Y3669D01*
X22196Y3657D01*
X22148Y3648D01*
X22100Y3643D01*
X22052Y3642D01*
X22004Y3645D01*
X21956Y3652D01*
X21909Y3663D01*
X21863Y3677D01*
X21818Y3695D01*
X21775Y3717D01*
X21734Y3742D01*
X21696Y3771D01*
X21659Y3803D01*
X21625Y3837D01*
X21595Y3874D01*
X21567Y3913D01*
X21542Y3955D01*
X21522Y3999D01*
X21504Y4044D01*
X21491Y4090D01*
X21481Y4137D01*
X21475Y4185D01*
X21473Y4233D01*
D11*
X22064Y4233D03*
D12*
X16020Y845D02*
X16020Y555D01*
X16100Y845D02*
X15939Y845D01*
X15825Y845D02*
X15825Y555D01*
X15825Y748D02*
X15745Y748D01*
X15733Y746D01*
X15721Y742D01*
X15711Y734D01*
X15703Y724D01*
X15699Y712D01*
X15697Y700D01*
X15696Y700D02*
X15696Y555D01*
X15518Y555D02*
X15437Y555D01*
X15518Y555D02*
X15530Y557D01*
X15542Y561D01*
X15552Y569D01*
X15560Y579D01*
X15564Y591D01*
X15566Y603D01*
X15566Y684D01*
X15564Y698D01*
X15560Y712D01*
X15552Y724D01*
X15542Y734D01*
X15530Y742D01*
X15516Y746D01*
X15502Y748D01*
X15488Y746D01*
X15474Y742D01*
X15462Y734D01*
X15452Y724D01*
X15444Y712D01*
X15440Y698D01*
X15438Y684D01*
X15437Y684D02*
X15437Y652D01*
X15566Y652D01*
X15096Y555D02*
X15032Y555D01*
X15096Y555D02*
X15110Y557D01*
X15124Y561D01*
X15136Y569D01*
X15146Y579D01*
X15154Y591D01*
X15158Y605D01*
X15160Y619D01*
X15161Y619D02*
X15161Y781D01*
X15160Y781D02*
X15158Y795D01*
X15154Y809D01*
X15146Y821D01*
X15136Y831D01*
X15124Y839D01*
X15110Y843D01*
X15096Y845D01*
X15032Y845D01*
X14868Y668D02*
X14796Y668D01*
X14868Y667D02*
X14881Y665D01*
X14894Y661D01*
X14905Y653D01*
X14914Y643D01*
X14920Y631D01*
X14924Y618D01*
X14924Y604D01*
X14920Y591D01*
X14914Y579D01*
X14905Y569D01*
X14894Y561D01*
X14881Y557D01*
X14868Y555D01*
X14796Y555D01*
X14796Y700D01*
X14798Y712D01*
X14802Y724D01*
X14810Y734D01*
X14820Y742D01*
X14832Y746D01*
X14844Y748D01*
X14908Y748D01*
X14650Y845D02*
X14650Y555D01*
X14650Y652D02*
X14521Y748D01*
X14594Y692D02*
X14521Y555D01*
X14366Y555D02*
X14285Y555D01*
X14366Y555D02*
X14378Y557D01*
X14390Y561D01*
X14400Y569D01*
X14408Y579D01*
X14412Y591D01*
X14414Y603D01*
X14414Y684D01*
X14412Y698D01*
X14408Y712D01*
X14400Y724D01*
X14390Y734D01*
X14378Y742D01*
X14364Y746D01*
X14350Y748D01*
X14336Y746D01*
X14322Y742D01*
X14310Y734D01*
X14300Y724D01*
X14292Y712D01*
X14288Y698D01*
X14286Y684D01*
X14285Y684D02*
X14285Y652D01*
X14414Y652D01*
X13985Y555D02*
X13985Y845D01*
X14017Y555D02*
X13953Y555D01*
X13953Y845D02*
X14017Y845D01*
X13814Y668D02*
X13733Y636D01*
X13814Y668D02*
X13824Y674D01*
X13832Y682D01*
X13837Y692D01*
X13840Y704D01*
X13839Y715D01*
X13835Y726D01*
X13829Y736D01*
X13820Y743D01*
X13809Y748D01*
X13797Y749D01*
X13797Y748D02*
X13773Y746D01*
X13748Y741D01*
X13725Y732D01*
X13733Y636D02*
X13723Y630D01*
X13715Y622D01*
X13710Y612D01*
X13707Y600D01*
X13708Y589D01*
X13712Y578D01*
X13718Y568D01*
X13727Y561D01*
X13738Y556D01*
X13750Y555D01*
X13749Y555D02*
X13779Y557D01*
X13809Y563D01*
X13837Y571D01*
X13448Y555D02*
X13351Y845D01*
X13254Y555D01*
X13279Y628D02*
X13424Y628D01*
X12980Y555D02*
X12980Y845D01*
X12980Y555D02*
X12851Y555D01*
X12746Y555D02*
X12746Y748D01*
X12754Y829D02*
X12754Y845D01*
X12738Y845D01*
X12738Y829D01*
X12754Y829D01*
X12580Y555D02*
X12500Y555D01*
X12580Y555D02*
X12592Y557D01*
X12604Y561D01*
X12614Y569D01*
X12622Y579D01*
X12626Y591D01*
X12628Y603D01*
X12628Y684D01*
X12626Y698D01*
X12622Y712D01*
X12614Y724D01*
X12604Y734D01*
X12592Y742D01*
X12578Y746D01*
X12564Y748D01*
X12550Y746D01*
X12536Y742D01*
X12524Y734D01*
X12514Y724D01*
X12506Y712D01*
X12502Y698D01*
X12500Y684D01*
X12500Y652D01*
X12628Y652D01*
D13*
X31354Y14114D03*
X31236Y10886D03*
X31118Y14114D03*
X31000Y10886D03*
X30882Y14114D03*
X30764Y10886D03*
X30646Y14114D03*
X30528Y10886D03*
X30409Y14114D03*
X30291Y10886D03*
X30173Y14114D03*
X30055Y10886D03*
X29937Y14114D03*
X29819Y10886D03*
X29701Y14114D03*
X29583Y10886D03*
X29465Y14114D03*
X29346Y10886D03*
X29228Y14114D03*
X29110Y10886D03*
X28992Y14114D03*
X28874Y10886D03*
X28756Y14114D03*
X28638Y10886D03*
X28520Y14114D03*
X28402Y10886D03*
X28283Y14114D03*
X28165Y10886D03*
X28047Y14114D03*
X27929Y10886D03*
X27811Y14114D03*
X27693Y10886D03*
X27575Y14114D03*
X27457Y10886D03*
X27339Y14114D03*
X27220Y10886D03*
X27102Y14114D03*
X26984Y10886D03*
X26866Y14114D03*
X26748Y10886D03*
X25213Y14114D03*
X25094Y10886D03*
X24976Y14114D03*
X24858Y10886D03*
X24740Y14114D03*
X24622Y10886D03*
X24504Y14114D03*
X24386Y10886D03*
X24268Y14114D03*
X24150Y10886D03*
X24031Y14114D03*
X23913Y10886D03*
X23795Y14114D03*
X23677Y10886D03*
X23559Y14114D03*
X23441Y10886D03*
X23323Y14114D03*
X23205Y10886D03*
X23087Y14114D03*
X22969Y10886D03*
X22850Y14114D03*
X22732Y10886D03*
X22614Y14114D03*
X22496Y10886D03*
X22378Y14114D03*
X22260Y10886D03*
X22142Y14114D03*
X22024Y10886D03*
X21906Y14114D03*
X21787Y10886D03*
X21669Y14114D03*
X21551Y10886D03*
X21433Y14114D03*
X21315Y10886D03*
X21197Y14114D03*
X21079Y10886D03*
X20961Y14114D03*
X20843Y10886D03*
X20724Y14114D03*
X20606Y10886D03*
X20488Y14114D03*
X20370Y10886D03*
X20252Y14114D03*
X20134Y10886D03*
X20016Y14114D03*
X19898Y10886D03*
X19780Y14114D03*
X19661Y10886D03*
X19543Y14114D03*
X19425Y10886D03*
X19307Y14114D03*
X19189Y10886D03*
X19071Y14114D03*
X18953Y10886D03*
X18835Y14114D03*
X18717Y10886D03*
X18598Y14114D03*
X18480Y10886D03*
X18362Y14114D03*
X18244Y10886D03*
X18126Y14114D03*
X18008Y10886D03*
X17890Y14114D03*
X17772Y10886D03*
X17654Y14114D03*
X17535Y10886D03*
X17417Y14114D03*
X17299Y10886D03*
X17181Y14114D03*
X17063Y10886D03*
X16945Y14114D03*
X16827Y10886D03*
X16709Y14114D03*
X16591Y10886D03*
X16472Y14114D03*
X16354Y10886D03*
X16236Y14114D03*
X16118Y10886D03*
X16000Y14114D03*
X15882Y10886D03*
X15764Y14114D03*
X15646Y10886D03*
X15528Y14114D03*
X15409Y10886D03*
X15291Y14114D03*
X15173Y10886D03*
X15055Y14114D03*
X14937Y10886D03*
X14819Y14114D03*
X14701Y10886D03*
X14583Y14114D03*
X14465Y10886D03*
X14346Y14114D03*
X14228Y10886D03*
X14110Y14114D03*
X13992Y10886D03*
X13874Y14114D03*
X13756Y10886D03*
X13638Y14114D03*
X13520Y10886D03*
X13402Y14114D03*
X13283Y10886D03*
X13165Y14114D03*
X13047Y10886D03*
X12929Y14114D03*
X12811Y10886D03*
X12693Y14114D03*
X12575Y10886D03*
X12457Y14114D03*
X12339Y10886D03*
X12220Y14114D03*
X12102Y10886D03*
X11984Y14114D03*
X11866Y10886D03*
X11748Y14114D03*
X11630Y10886D03*
X11512Y14114D03*
X11394Y10886D03*
X11276Y14114D03*
X11157Y10886D03*
X11039Y14114D03*
X10921Y10886D03*
X10803Y14114D03*
X10685Y10886D03*
X10567Y14114D03*
X10449Y10886D03*
X10331Y14114D03*
X10213Y10886D03*
X10094Y14114D03*
X9976Y10886D03*
X9858Y14114D03*
X9740Y10886D03*
X9622Y14114D03*
X9504Y10886D03*
X9386Y14114D03*
X9268Y10886D03*
X9150Y14114D03*
X9031Y10886D03*
X8913Y14114D03*
X8795Y10886D03*
X8677Y14114D03*
X8559Y10886D03*
X8441Y14114D03*
X8323Y10886D03*
X8205Y14114D03*
X8087Y10886D03*
X7969Y14114D03*
X7850Y10886D03*
X7732Y14114D03*
X7614Y10886D03*
X7496Y14114D03*
X7378Y10886D03*
X7260Y14114D03*
X7142Y10886D03*
X7024Y14114D03*
X6906Y10886D03*
X6787Y14114D03*
X6669Y10886D03*
X6551Y14114D03*
X6433Y10886D03*
D14*
X31709Y7776D03*
X6079Y7776D03*
D10*
X31728Y12500D02*
X31730Y12535D01*
X31736Y12570D01*
X31746Y12604D01*
X31759Y12637D01*
X31776Y12668D01*
X31797Y12696D01*
X31820Y12723D01*
X31847Y12746D01*
X31875Y12767D01*
X31906Y12784D01*
X31939Y12797D01*
X31973Y12807D01*
X32008Y12813D01*
X32043Y12815D01*
X32078Y12813D01*
X32113Y12807D01*
X32147Y12797D01*
X32180Y12784D01*
X32211Y12767D01*
X32239Y12746D01*
X32266Y12723D01*
X32289Y12696D01*
X32310Y12668D01*
X32327Y12637D01*
X32340Y12604D01*
X32350Y12570D01*
X32356Y12535D01*
X32358Y12500D01*
X32356Y12465D01*
X32350Y12430D01*
X32340Y12396D01*
X32327Y12363D01*
X32310Y12332D01*
X32289Y12304D01*
X32266Y12277D01*
X32239Y12254D01*
X32211Y12233D01*
X32180Y12216D01*
X32147Y12203D01*
X32113Y12193D01*
X32078Y12187D01*
X32043Y12185D01*
X32008Y12187D01*
X31973Y12193D01*
X31939Y12203D01*
X31906Y12216D01*
X31875Y12233D01*
X31847Y12254D01*
X31820Y12277D01*
X31797Y12304D01*
X31776Y12332D01*
X31759Y12363D01*
X31746Y12396D01*
X31736Y12430D01*
X31730Y12465D01*
X31728Y12500D01*
D15*
X32043Y12500D03*
D10*
X5527Y12500D02*
X5529Y12529D01*
X5535Y12557D01*
X5544Y12585D01*
X5557Y12611D01*
X5574Y12634D01*
X5593Y12656D01*
X5615Y12675D01*
X5640Y12690D01*
X5666Y12703D01*
X5694Y12711D01*
X5722Y12716D01*
X5751Y12717D01*
X5780Y12714D01*
X5808Y12707D01*
X5835Y12697D01*
X5861Y12683D01*
X5884Y12666D01*
X5905Y12646D01*
X5923Y12623D01*
X5938Y12598D01*
X5949Y12571D01*
X5957Y12543D01*
X5961Y12514D01*
X5961Y12486D01*
X5957Y12457D01*
X5949Y12429D01*
X5938Y12402D01*
X5923Y12377D01*
X5905Y12354D01*
X5884Y12334D01*
X5861Y12317D01*
X5835Y12303D01*
X5808Y12293D01*
X5780Y12286D01*
X5751Y12283D01*
X5722Y12284D01*
X5694Y12289D01*
X5666Y12297D01*
X5640Y12310D01*
X5615Y12325D01*
X5593Y12344D01*
X5574Y12366D01*
X5557Y12389D01*
X5544Y12415D01*
X5535Y12443D01*
X5529Y12471D01*
X5527Y12500D01*
D16*
X5744Y12500D03*
D17*
X3217Y17413D03*
X3217Y18413D03*
X4217Y17413D03*
X4217Y18413D03*
X5217Y17413D03*
X5217Y18413D03*
X6217Y17413D03*
X6217Y18413D03*
X7217Y17413D03*
X7217Y18413D03*
X8217Y17413D03*
X8217Y18413D03*
X9217Y17413D03*
X9217Y18413D03*
X10217Y17413D03*
X10217Y18413D03*
X11217Y17413D03*
X11217Y18413D03*
X12217Y17413D03*
X12217Y18413D03*
X13217Y17413D03*
X13217Y18413D03*
X14217Y17413D03*
X14217Y18413D03*
X15217Y17413D03*
X15217Y18413D03*
X16217Y17413D03*
X16217Y18413D03*
X17217Y17413D03*
X17217Y18413D03*
X18217Y17413D03*
X18217Y18413D03*
X19217Y17413D03*
X19217Y18413D03*
X20217Y17413D03*
X20217Y18413D03*
X21217Y17413D03*
X21217Y18413D03*
X22217Y17413D03*
X22217Y18413D03*
X23217Y17413D03*
X23217Y18413D03*
X24217Y17413D03*
X24217Y18413D03*
X25217Y17413D03*
X25217Y18413D03*
X26217Y17413D03*
X26217Y18413D03*
X27217Y17413D03*
X27217Y18413D03*
X28217Y17413D03*
X28217Y18413D03*
X29217Y17413D03*
X29217Y18413D03*
X30217Y17413D03*
X30217Y18413D03*
X31217Y17413D03*
X31217Y18413D03*
X32217Y17413D03*
X32217Y18413D03*
D18*
X1488Y1634D03*
X2512Y1634D03*
X1744Y1634D03*
X2000Y1634D03*
X2256Y1634D03*
D19*
X720Y1471D03*
X3270Y1491D03*
D20*
X1530Y591D03*
X2460Y591D03*
D21*
X620Y571D03*
X3370Y591D03*
D22*
X620Y571D03*
X3370Y601D03*
D23*
X2144Y5445D03*
X1947Y5445D03*
X1750Y5445D03*
X1553Y5445D03*
X1356Y5445D03*
X1356Y3555D03*
X1553Y3555D03*
X1750Y3555D03*
X1947Y3555D03*
X2144Y3555D03*
D24*
X3165Y6500D03*
X3835Y6500D03*
D25*
X4006Y5053D03*
X4006Y5447D03*
X3494Y5250D03*
D24*
X3415Y3500D03*
X4085Y3500D03*
D26*
X500Y7517D03*
D27*
X34303Y5244D03*
X34697Y5244D03*
X34500Y5756D03*
D25*
X33744Y2697D03*
X33744Y2303D03*
X34256Y2500D03*
D24*
X33665Y1000D03*
X34335Y1000D03*
D28*
X34000Y4335D03*
X34000Y3665D03*
X22050Y2165D03*
X22050Y2835D03*
D29*
X35000Y4295D03*
X35000Y3705D03*
D26*
X35000Y2500D03*
D30*
X34280Y7500D02*
X33720Y7500D01*
X33720Y8500D02*
X34280Y8500D01*
X34280Y9500D02*
X33720Y9500D01*
D26*
X5233Y16215D03*
X6333Y16249D03*
D31*
X34130Y12432D02*
X34730Y12432D01*
X34730Y13432D02*
X34130Y13432D01*
D32*
X-3277Y18146D03*
X-1187Y18146D03*
D28*
X3409Y14831D03*
X2740Y14831D03*
D33*
X-3260Y8906D03*
D34*
X-2817Y9575D03*
X-2994Y9575D03*
X-3171Y9575D03*
X-3348Y9575D03*
X-3526Y9575D03*
X-3703Y9575D03*
X-3703Y8236D03*
X-3526Y8236D03*
X-3348Y8236D03*
X-3171Y8236D03*
X-2994Y8236D03*
X-2817Y8236D03*
D24*
X-571Y6783D03*
X-1240Y6783D03*
X-3760Y10795D03*
X-4429Y10795D03*
D28*
X-2035Y5295D03*
X-2035Y5965D03*
D35*
X-1835Y16236D03*
X-2937Y16236D03*
D36*
X-1067Y8575D03*
X-1067Y9323D03*
X-5059Y8209D03*
X-5059Y8957D03*
X-5189Y4673D03*
X-5189Y5421D03*
X-1429Y12996D03*
X-1429Y12248D03*
D37*
X-3535Y5833D03*
X-3535Y4632D03*
X-2996Y12045D03*
X-2996Y13246D03*
D28*
X-1240Y5575D03*
X-571Y5575D03*
D29*
X-4189Y2264D03*
X-4189Y2854D03*
D28*
X-4205Y539D03*
X-4205Y1209D03*
D26*
X-5398Y2827D03*
X1874Y11953D03*
D38*
X28955Y642D03*
X28522Y642D03*
X28089Y642D03*
X27656Y642D03*
X27222Y642D03*
X26789Y642D03*
X26356Y642D03*
D39*
X25943Y642D03*
D40*
X29923Y691D03*
D41*
X25467Y780D03*
D42*
X26264Y4904D03*
X28614Y4904D03*
D43*
X29992Y4520D03*
X29992Y3063D03*
D28*
X24516Y1335D03*
X23846Y1335D03*
X34774Y15337D03*
X34105Y15337D03*
D24*
X32413Y15306D03*
X33082Y15306D03*
M02*
