G04 EAGLE Gerber RS-274X export*
G75*
%MOIN*%
%FSLAX34Y34*%
%LPD*%
%INBottom copper*%
%IPPOS*%
%AMOC8*
5,1,8,0,0,1.08239X$1,22.5*%
G01*
%ADD10C,0.000000*%
%ADD11P,0.064943X8X22.500000*%
%ADD12C,0.070866*%
%ADD13C,0.056000*%
%ADD14C,0.060000*%
%ADD15C,0.025780*%
%ADD16C,0.010000*%
%ADD17C,0.007000*%
%ADD18C,0.024000*%
%ADD19C,0.012000*%
%ADD20C,0.006000*%
%ADD21C,0.012000*%
%ADD22C,0.016000*%
%ADD23C,0.008000*%
%ADD24C,0.007874*%
%ADD25C,0.006000*%

G36*
X420Y101D02*
X420Y101D01*
X423Y101D01*
X425Y102D01*
X427Y102D01*
X430Y104D01*
X432Y105D01*
X434Y106D01*
X436Y107D01*
X438Y109D01*
X440Y111D01*
X441Y112D01*
X442Y114D01*
X443Y116D01*
X445Y119D01*
X445Y121D01*
X446Y123D01*
X446Y125D01*
X447Y128D01*
X447Y130D01*
X447Y132D01*
X446Y135D01*
X446Y137D01*
X445Y139D01*
X445Y141D01*
X443Y144D01*
X442Y146D01*
X441Y148D01*
X440Y149D01*
X438Y151D01*
X436Y153D01*
X433Y155D01*
X432Y155D01*
X432Y156D01*
X431Y156D01*
X381Y181D01*
X324Y223D01*
X273Y274D01*
X231Y332D01*
X198Y396D01*
X176Y464D01*
X169Y511D01*
X590Y511D01*
X591Y511D01*
X592Y511D01*
X596Y512D01*
X599Y513D01*
X600Y513D01*
X601Y514D01*
X605Y516D01*
X608Y517D01*
X609Y518D01*
X609Y519D01*
X612Y522D01*
X614Y524D01*
X615Y525D01*
X615Y526D01*
X617Y530D01*
X618Y533D01*
X618Y534D01*
X619Y535D01*
X619Y541D01*
X619Y571D01*
X621Y571D01*
X621Y541D01*
X621Y540D01*
X621Y538D01*
X622Y535D01*
X622Y531D01*
X623Y530D01*
X623Y529D01*
X625Y526D01*
X627Y523D01*
X628Y522D01*
X628Y521D01*
X631Y519D01*
X634Y516D01*
X635Y516D01*
X636Y515D01*
X639Y514D01*
X643Y512D01*
X644Y512D01*
X645Y512D01*
X650Y511D01*
X1071Y511D01*
X1064Y464D01*
X1042Y396D01*
X1009Y332D01*
X967Y274D01*
X916Y223D01*
X859Y181D01*
X809Y156D01*
X807Y154D01*
X804Y153D01*
X803Y152D01*
X801Y150D01*
X800Y148D01*
X798Y146D01*
X797Y144D01*
X796Y143D01*
X795Y140D01*
X794Y137D01*
X794Y135D01*
X793Y133D01*
X793Y131D01*
X793Y128D01*
X794Y126D01*
X794Y124D01*
X795Y121D01*
X795Y119D01*
X796Y117D01*
X797Y115D01*
X799Y113D01*
X800Y111D01*
X802Y109D01*
X803Y108D01*
X806Y106D01*
X808Y105D01*
X810Y104D01*
X812Y103D01*
X814Y102D01*
X817Y101D01*
X820Y101D01*
X821Y101D01*
X822Y101D01*
X3220Y101D01*
X3221Y101D01*
X3225Y102D01*
X3230Y102D01*
X3234Y105D01*
X3238Y107D01*
X3241Y110D01*
X3244Y114D01*
X3245Y114D01*
X3247Y118D01*
X3248Y123D01*
X3249Y123D01*
X3249Y128D01*
X3249Y132D01*
X3249Y133D01*
X3248Y137D01*
X3247Y141D01*
X3247Y142D01*
X3244Y146D01*
X3242Y149D01*
X3242Y150D01*
X3238Y153D01*
X3234Y155D01*
X3234Y156D01*
X3229Y158D01*
X3195Y169D01*
X3131Y201D01*
X3074Y243D01*
X3023Y294D01*
X2981Y352D01*
X2948Y416D01*
X2926Y484D01*
X2919Y531D01*
X3340Y531D01*
X3341Y531D01*
X3342Y531D01*
X3346Y532D01*
X3349Y533D01*
X3350Y533D01*
X3351Y534D01*
X3355Y536D01*
X3358Y537D01*
X3359Y538D01*
X3359Y539D01*
X3362Y542D01*
X3364Y544D01*
X3365Y545D01*
X3365Y546D01*
X3367Y550D01*
X3368Y553D01*
X3368Y554D01*
X3369Y555D01*
X3369Y561D01*
X3369Y591D01*
X3400Y591D01*
X3401Y591D01*
X3402Y591D01*
X3406Y592D01*
X3409Y593D01*
X3410Y593D01*
X3411Y594D01*
X3415Y596D01*
X3418Y597D01*
X3419Y598D01*
X3419Y599D01*
X3422Y602D01*
X3424Y604D01*
X3425Y605D01*
X3425Y606D01*
X3427Y610D01*
X3428Y613D01*
X3428Y614D01*
X3429Y615D01*
X3429Y621D01*
X3429Y1042D01*
X3477Y1034D01*
X3545Y1012D01*
X3609Y980D01*
X3666Y938D01*
X3717Y887D01*
X3759Y829D01*
X3792Y765D01*
X3814Y697D01*
X3821Y651D01*
X3822Y649D01*
X3822Y647D01*
X3823Y645D01*
X3823Y644D01*
X3824Y642D01*
X3826Y640D01*
X3827Y638D01*
X3829Y637D01*
X3830Y635D01*
X3832Y633D01*
X3834Y632D01*
X3836Y631D01*
X3838Y629D01*
X3840Y629D01*
X3843Y628D01*
X3845Y627D01*
X3847Y627D01*
X3850Y627D01*
X3852Y627D01*
X3854Y627D01*
X3857Y628D01*
X3859Y628D01*
X3861Y629D01*
X3863Y630D01*
X3865Y631D01*
X3867Y633D01*
X3869Y634D01*
X3871Y636D01*
X3873Y637D01*
X3874Y640D01*
X3875Y642D01*
X3876Y644D01*
X3877Y646D01*
X3878Y648D01*
X3878Y649D01*
X3879Y651D01*
X3879Y655D01*
X3879Y656D01*
X3879Y1840D01*
X3879Y1844D01*
X3878Y1848D01*
X3878Y1849D01*
X3878Y1850D01*
X3876Y1853D01*
X3874Y1857D01*
X3873Y1858D01*
X3873Y1859D01*
X3871Y1861D01*
X3861Y1871D01*
X3858Y1873D01*
X3855Y1875D01*
X3854Y1876D01*
X3853Y1876D01*
X3850Y1877D01*
X3846Y1879D01*
X3845Y1879D01*
X3844Y1879D01*
X3843Y1879D01*
X3840Y1879D01*
X1350Y1879D01*
X1027Y2202D01*
X1024Y2204D01*
X1021Y2207D01*
X1020Y2207D01*
X1016Y2208D01*
X1012Y2210D01*
X1011Y2210D01*
X1010Y2210D01*
X1007Y2210D01*
X921Y2210D01*
X810Y2321D01*
X810Y2479D01*
X921Y2590D01*
X1079Y2590D01*
X1190Y2479D01*
X1190Y2393D01*
X1190Y2389D01*
X1191Y2385D01*
X1191Y2384D01*
X1193Y2380D01*
X1195Y2377D01*
X1195Y2376D01*
X1196Y2375D01*
X1198Y2373D01*
X1441Y2129D01*
X1445Y2127D01*
X1448Y2125D01*
X1449Y2124D01*
X1453Y2123D01*
X1457Y2121D01*
X1458Y2121D01*
X1459Y2121D01*
X1462Y2121D01*
X3840Y2121D01*
X3844Y2121D01*
X3848Y2122D01*
X3849Y2122D01*
X3850Y2122D01*
X3853Y2124D01*
X3857Y2126D01*
X3858Y2127D01*
X3859Y2127D01*
X3861Y2129D01*
X3921Y2190D01*
X4079Y2190D01*
X4190Y2079D01*
X4190Y1921D01*
X4129Y1861D01*
X4127Y1858D01*
X4125Y1855D01*
X4124Y1854D01*
X4124Y1853D01*
X4123Y1850D01*
X4121Y1846D01*
X4121Y1845D01*
X4121Y1844D01*
X4121Y1843D01*
X4121Y1840D01*
X4121Y528D01*
X4121Y524D01*
X4122Y520D01*
X4122Y519D01*
X4124Y515D01*
X4126Y512D01*
X4127Y511D01*
X4127Y510D01*
X4129Y508D01*
X4274Y363D01*
X4278Y360D01*
X4281Y358D01*
X4282Y357D01*
X4286Y356D01*
X4290Y355D01*
X4291Y354D01*
X4292Y354D01*
X4295Y354D01*
X31668Y354D01*
X31672Y355D01*
X31676Y355D01*
X31677Y355D01*
X31677Y356D01*
X31681Y358D01*
X31685Y359D01*
X31685Y360D01*
X31686Y360D01*
X31686Y361D01*
X31689Y363D01*
X32697Y1371D01*
X34600Y1371D01*
X34601Y1371D01*
X34602Y1371D01*
X34606Y1372D01*
X34609Y1372D01*
X34610Y1373D01*
X34611Y1373D01*
X34615Y1375D01*
X34618Y1377D01*
X34619Y1378D01*
X34622Y1381D01*
X34624Y1384D01*
X34625Y1385D01*
X34625Y1386D01*
X34627Y1389D01*
X34628Y1393D01*
X34628Y1394D01*
X34629Y1395D01*
X34629Y1400D01*
X34629Y7243D01*
X34629Y7244D01*
X34628Y7248D01*
X34628Y7252D01*
X34627Y7253D01*
X34625Y7257D01*
X34623Y7261D01*
X34619Y7264D01*
X34616Y7267D01*
X34615Y7268D01*
X34611Y7269D01*
X34607Y7271D01*
X34602Y7272D01*
X34598Y7272D01*
X34597Y7272D01*
X34593Y7271D01*
X34589Y7270D01*
X34588Y7270D01*
X34584Y7267D01*
X34581Y7265D01*
X34580Y7264D01*
X34576Y7260D01*
X34570Y7252D01*
X34528Y7210D01*
X34480Y7174D01*
X34426Y7147D01*
X34369Y7129D01*
X34310Y7119D01*
X34059Y7119D01*
X34059Y7470D01*
X34059Y7471D01*
X34059Y7472D01*
X34058Y7476D01*
X34058Y7479D01*
X34057Y7480D01*
X34057Y7481D01*
X34055Y7485D01*
X34053Y7488D01*
X34052Y7489D01*
X34049Y7492D01*
X34046Y7494D01*
X34045Y7495D01*
X34044Y7495D01*
X34041Y7497D01*
X34037Y7498D01*
X34036Y7498D01*
X34035Y7499D01*
X34030Y7499D01*
X33999Y7499D01*
X33999Y7501D01*
X34030Y7501D01*
X34031Y7501D01*
X34032Y7501D01*
X34036Y7502D01*
X34039Y7502D01*
X34040Y7503D01*
X34041Y7503D01*
X34045Y7505D01*
X34048Y7507D01*
X34049Y7508D01*
X34052Y7511D01*
X34054Y7514D01*
X34055Y7515D01*
X34055Y7516D01*
X34057Y7519D01*
X34058Y7523D01*
X34058Y7524D01*
X34059Y7525D01*
X34059Y7530D01*
X34059Y7881D01*
X34310Y7881D01*
X34369Y7871D01*
X34426Y7853D01*
X34480Y7826D01*
X34528Y7790D01*
X34570Y7748D01*
X34576Y7740D01*
X34577Y7740D01*
X34577Y7739D01*
X34580Y7736D01*
X34583Y7733D01*
X34584Y7733D01*
X34588Y7731D01*
X34592Y7729D01*
X34593Y7729D01*
X34597Y7728D01*
X34601Y7728D01*
X34602Y7728D01*
X34606Y7729D01*
X34611Y7730D01*
X34615Y7732D01*
X34619Y7735D01*
X34622Y7739D01*
X34625Y7742D01*
X34625Y7743D01*
X34627Y7747D01*
X34629Y7751D01*
X34629Y7752D01*
X34629Y7757D01*
X34629Y8306D01*
X34629Y8310D01*
X34628Y8313D01*
X34628Y8314D01*
X34628Y8315D01*
X34626Y8319D01*
X34624Y8322D01*
X34624Y8323D01*
X34623Y8324D01*
X34620Y8326D01*
X34618Y8329D01*
X34617Y8329D01*
X34616Y8330D01*
X34613Y8332D01*
X34609Y8333D01*
X34608Y8334D01*
X34607Y8334D01*
X34604Y8334D01*
X34600Y8335D01*
X34599Y8335D01*
X34598Y8335D01*
X34594Y8334D01*
X34590Y8333D01*
X34589Y8333D01*
X34585Y8331D01*
X34582Y8329D01*
X34581Y8328D01*
X34578Y8325D01*
X34575Y8322D01*
X34575Y8321D01*
X34575Y8320D01*
X34574Y8319D01*
X34573Y8317D01*
X34569Y8307D01*
X34473Y8211D01*
X34348Y8159D01*
X33652Y8159D01*
X33527Y8211D01*
X33431Y8307D01*
X33379Y8432D01*
X33379Y8568D01*
X33431Y8693D01*
X33527Y8789D01*
X33652Y8841D01*
X34348Y8841D01*
X34452Y8798D01*
X34456Y8797D01*
X34460Y8796D01*
X34461Y8796D01*
X34461Y8795D01*
X34465Y8796D01*
X34469Y8796D01*
X34470Y8796D01*
X34471Y8796D01*
X34474Y8798D01*
X34478Y8799D01*
X34479Y8800D01*
X34480Y8800D01*
X34482Y8803D01*
X34485Y8805D01*
X34486Y8806D01*
X34487Y8807D01*
X34488Y8810D01*
X34490Y8814D01*
X34491Y8814D01*
X34491Y8815D01*
X34492Y8819D01*
X34493Y8823D01*
X34492Y8824D01*
X34493Y8825D01*
X34492Y8829D01*
X34491Y8832D01*
X34491Y8833D01*
X34491Y8834D01*
X34489Y8838D01*
X34487Y8841D01*
X34487Y8842D01*
X34486Y8843D01*
X34484Y8845D01*
X34179Y9151D01*
X34175Y9153D01*
X34172Y9155D01*
X34171Y9156D01*
X34167Y9157D01*
X34163Y9159D01*
X34162Y9159D01*
X34161Y9159D01*
X34158Y9159D01*
X33652Y9159D01*
X33527Y9211D01*
X33431Y9307D01*
X33379Y9432D01*
X33379Y9568D01*
X33431Y9693D01*
X33527Y9789D01*
X33652Y9841D01*
X33830Y9841D01*
X33831Y9841D01*
X33832Y9841D01*
X33836Y9842D01*
X33839Y9842D01*
X33840Y9843D01*
X33841Y9843D01*
X33845Y9845D01*
X33848Y9847D01*
X33849Y9848D01*
X33852Y9851D01*
X33854Y9854D01*
X33855Y9855D01*
X33855Y9856D01*
X33857Y9859D01*
X33858Y9863D01*
X33858Y9864D01*
X33859Y9865D01*
X33859Y9870D01*
X33859Y12060D01*
X33905Y12106D01*
X33905Y12107D01*
X33906Y12107D01*
X33908Y12111D01*
X33910Y12114D01*
X33910Y12115D01*
X33911Y12115D01*
X33912Y12119D01*
X33913Y12123D01*
X33913Y12124D01*
X33913Y12125D01*
X33913Y12129D01*
X33913Y12132D01*
X33912Y12133D01*
X33912Y12134D01*
X33911Y12138D01*
X33909Y12141D01*
X33908Y12142D01*
X33908Y12143D01*
X33905Y12147D01*
X33824Y12228D01*
X33769Y12360D01*
X33769Y12504D01*
X33824Y12636D01*
X33926Y12738D01*
X34058Y12793D01*
X34802Y12793D01*
X34934Y12738D01*
X35036Y12636D01*
X35091Y12504D01*
X35091Y12360D01*
X35036Y12228D01*
X34934Y12126D01*
X34802Y12071D01*
X34280Y12071D01*
X34276Y12071D01*
X34272Y12070D01*
X34271Y12070D01*
X34267Y12068D01*
X34264Y12066D01*
X34263Y12065D01*
X34262Y12065D01*
X34260Y12063D01*
X34149Y11952D01*
X34147Y11949D01*
X34145Y11946D01*
X34144Y11945D01*
X34143Y11941D01*
X34141Y11937D01*
X34141Y11936D01*
X34141Y11935D01*
X34141Y11932D01*
X34141Y9870D01*
X34141Y9869D01*
X34141Y9868D01*
X34142Y9864D01*
X34142Y9861D01*
X34143Y9860D01*
X34143Y9859D01*
X34145Y9855D01*
X34147Y9852D01*
X34148Y9851D01*
X34151Y9848D01*
X34154Y9846D01*
X34155Y9845D01*
X34156Y9845D01*
X34159Y9843D01*
X34163Y9842D01*
X34164Y9842D01*
X34165Y9841D01*
X34170Y9841D01*
X34348Y9841D01*
X34473Y9789D01*
X34569Y9693D01*
X34621Y9568D01*
X34621Y9432D01*
X34569Y9307D01*
X34487Y9225D01*
X34486Y9224D01*
X34484Y9220D01*
X34481Y9217D01*
X34481Y9216D01*
X34481Y9215D01*
X34480Y9212D01*
X34479Y9208D01*
X34479Y9207D01*
X34478Y9206D01*
X34479Y9202D01*
X34479Y9199D01*
X34479Y9198D01*
X34480Y9197D01*
X34481Y9193D01*
X34482Y9190D01*
X34483Y9189D01*
X34484Y9188D01*
X34487Y9184D01*
X34871Y8800D01*
X34871Y1200D01*
X34800Y1129D01*
X32809Y1129D01*
X32805Y1129D01*
X32801Y1128D01*
X32800Y1128D01*
X32796Y1126D01*
X32792Y1124D01*
X32792Y1123D01*
X32791Y1123D01*
X32788Y1121D01*
X31818Y151D01*
X31817Y148D01*
X31815Y146D01*
X31814Y144D01*
X31813Y143D01*
X31812Y140D01*
X31811Y137D01*
X31811Y136D01*
X31810Y134D01*
X31810Y131D01*
X31810Y128D01*
X31810Y126D01*
X31810Y124D01*
X31811Y121D01*
X31812Y119D01*
X31813Y117D01*
X31814Y115D01*
X31816Y113D01*
X31817Y111D01*
X31819Y109D01*
X31820Y108D01*
X31822Y106D01*
X31825Y105D01*
X31826Y104D01*
X31828Y103D01*
X31831Y102D01*
X31834Y101D01*
X31837Y101D01*
X31838Y101D01*
X31839Y101D01*
X35303Y101D01*
X35304Y101D01*
X35305Y101D01*
X35309Y102D01*
X35313Y102D01*
X35313Y103D01*
X35314Y103D01*
X35318Y105D01*
X35321Y107D01*
X35322Y108D01*
X35323Y108D01*
X35325Y111D01*
X35327Y114D01*
X35328Y115D01*
X35329Y116D01*
X35330Y119D01*
X35331Y123D01*
X35331Y124D01*
X35332Y125D01*
X35332Y130D01*
X35332Y19555D01*
X35332Y19556D01*
X35332Y19557D01*
X35331Y19561D01*
X35331Y19564D01*
X35330Y19565D01*
X35330Y19566D01*
X35328Y19570D01*
X35326Y19573D01*
X35325Y19574D01*
X35325Y19575D01*
X35322Y19577D01*
X35319Y19579D01*
X35318Y19580D01*
X35317Y19581D01*
X35314Y19582D01*
X35310Y19583D01*
X35309Y19583D01*
X35308Y19584D01*
X35303Y19584D01*
X-5776Y19584D01*
X-5777Y19584D01*
X-5778Y19584D01*
X-5781Y19583D01*
X-5785Y19583D01*
X-5786Y19582D01*
X-5787Y19582D01*
X-5790Y19580D01*
X-5793Y19578D01*
X-5794Y19577D01*
X-5795Y19577D01*
X-5797Y19574D01*
X-5800Y19571D01*
X-5800Y19570D01*
X-5801Y19569D01*
X-5802Y19566D01*
X-5804Y19562D01*
X-5804Y19561D01*
X-5804Y19560D01*
X-5805Y19555D01*
X-5805Y130D01*
X-5805Y129D01*
X-5805Y128D01*
X-5804Y124D01*
X-5803Y121D01*
X-5803Y120D01*
X-5802Y119D01*
X-5800Y115D01*
X-5799Y112D01*
X-5798Y111D01*
X-5797Y111D01*
X-5794Y108D01*
X-5792Y106D01*
X-5791Y105D01*
X-5790Y105D01*
X-5786Y103D01*
X-5783Y102D01*
X-5782Y102D01*
X-5781Y101D01*
X-5776Y101D01*
X418Y101D01*
X420Y101D01*
G37*
%LPC*%
G36*
X23421Y8810D02*
X23421Y8810D01*
X23310Y8921D01*
X23310Y9079D01*
X23401Y9169D01*
X23403Y9172D01*
X23405Y9175D01*
X23406Y9176D01*
X23406Y9177D01*
X23407Y9180D01*
X23409Y9184D01*
X23409Y9185D01*
X23409Y9186D01*
X23409Y9187D01*
X23409Y9190D01*
X23409Y9570D01*
X23409Y9573D01*
X23409Y9576D01*
X23408Y9578D01*
X23408Y9580D01*
X23406Y9582D01*
X23405Y9585D01*
X23404Y9587D01*
X23403Y9588D01*
X23401Y9590D01*
X23399Y9593D01*
X23398Y9594D01*
X23396Y9595D01*
X23393Y9596D01*
X23391Y9598D01*
X23389Y9598D01*
X23387Y9599D01*
X23385Y9599D01*
X23382Y9600D01*
X23380Y9599D01*
X23378Y9600D01*
X23375Y9599D01*
X23372Y9599D01*
X23370Y9598D01*
X23369Y9597D01*
X23366Y9596D01*
X23363Y9595D01*
X23361Y9593D01*
X23361Y9592D01*
X23360Y9592D01*
X23359Y9591D01*
X23329Y9560D01*
X23171Y9560D01*
X23141Y9591D01*
X23138Y9593D01*
X23136Y9595D01*
X23134Y9596D01*
X23133Y9597D01*
X23130Y9598D01*
X23127Y9599D01*
X23126Y9599D01*
X23124Y9599D01*
X23121Y9599D01*
X23118Y9600D01*
X23116Y9599D01*
X23114Y9599D01*
X23111Y9598D01*
X23109Y9597D01*
X23107Y9596D01*
X23105Y9596D01*
X23103Y9594D01*
X23101Y9592D01*
X23099Y9591D01*
X23098Y9590D01*
X23096Y9587D01*
X23095Y9585D01*
X23094Y9583D01*
X23093Y9581D01*
X23092Y9579D01*
X23091Y9576D01*
X23091Y9573D01*
X23091Y9572D01*
X23091Y9570D01*
X23091Y9440D01*
X23091Y9436D01*
X23092Y9432D01*
X23092Y9431D01*
X23092Y9430D01*
X23094Y9427D01*
X23096Y9423D01*
X23097Y9422D01*
X23097Y9421D01*
X23099Y9419D01*
X23190Y9329D01*
X23190Y9171D01*
X23079Y9060D01*
X22921Y9060D01*
X22810Y9171D01*
X22810Y9329D01*
X22901Y9419D01*
X22903Y9422D01*
X22905Y9425D01*
X22906Y9426D01*
X22906Y9427D01*
X22907Y9430D01*
X22909Y9434D01*
X22909Y9435D01*
X22909Y9436D01*
X22909Y9437D01*
X22909Y9440D01*
X22909Y14200D01*
X22909Y14201D01*
X22909Y14202D01*
X22909Y14204D01*
X22908Y14208D01*
X22908Y14209D01*
X22908Y14210D01*
X22906Y14213D01*
X22904Y14217D01*
X22903Y14218D01*
X22903Y14219D01*
X22901Y14221D01*
X22641Y14481D01*
X22638Y14483D01*
X22636Y14485D01*
X22634Y14485D01*
X22633Y14487D01*
X22630Y14487D01*
X22627Y14489D01*
X22626Y14489D01*
X22624Y14489D01*
X22621Y14489D01*
X22618Y14489D01*
X22616Y14489D01*
X22614Y14489D01*
X22611Y14488D01*
X22609Y14487D01*
X22607Y14486D01*
X22605Y14486D01*
X22603Y14484D01*
X22601Y14482D01*
X22599Y14481D01*
X22598Y14479D01*
X22596Y14477D01*
X22595Y14475D01*
X22594Y14473D01*
X22593Y14471D01*
X22592Y14468D01*
X22591Y14466D01*
X22591Y14463D01*
X22591Y14462D01*
X22591Y14461D01*
X22591Y14460D01*
X22591Y9940D01*
X22591Y9936D01*
X22592Y9932D01*
X22592Y9931D01*
X22592Y9930D01*
X22594Y9927D01*
X22596Y9923D01*
X22597Y9922D01*
X22597Y9921D01*
X22599Y9919D01*
X22690Y9829D01*
X22690Y9671D01*
X22579Y9560D01*
X22421Y9560D01*
X22391Y9591D01*
X22388Y9593D01*
X22386Y9595D01*
X22384Y9596D01*
X22383Y9597D01*
X22380Y9598D01*
X22377Y9599D01*
X22376Y9599D01*
X22374Y9599D01*
X22371Y9599D01*
X22368Y9600D01*
X22366Y9599D01*
X22364Y9599D01*
X22361Y9598D01*
X22359Y9597D01*
X22357Y9596D01*
X22355Y9596D01*
X22353Y9594D01*
X22351Y9592D01*
X22349Y9591D01*
X22348Y9590D01*
X22346Y9587D01*
X22345Y9585D01*
X22344Y9583D01*
X22343Y9581D01*
X22342Y9579D01*
X22341Y9576D01*
X22341Y9573D01*
X22341Y9572D01*
X22341Y9570D01*
X22341Y9440D01*
X22341Y9436D01*
X22342Y9432D01*
X22342Y9431D01*
X22342Y9430D01*
X22344Y9427D01*
X22346Y9423D01*
X22347Y9422D01*
X22347Y9421D01*
X22349Y9419D01*
X22440Y9329D01*
X22440Y9171D01*
X22329Y9060D01*
X22171Y9060D01*
X22060Y9171D01*
X22060Y9329D01*
X22151Y9419D01*
X22153Y9422D01*
X22155Y9425D01*
X22156Y9426D01*
X22156Y9427D01*
X22157Y9430D01*
X22159Y9434D01*
X22159Y9435D01*
X22159Y9436D01*
X22159Y9437D01*
X22159Y9440D01*
X22159Y14450D01*
X22159Y14454D01*
X22158Y14458D01*
X22158Y14459D01*
X22158Y14460D01*
X22156Y14463D01*
X22154Y14467D01*
X22153Y14468D01*
X22153Y14469D01*
X22151Y14471D01*
X22141Y14481D01*
X22138Y14483D01*
X22136Y14485D01*
X22134Y14485D01*
X22133Y14487D01*
X22130Y14487D01*
X22127Y14489D01*
X22126Y14489D01*
X22124Y14489D01*
X22121Y14489D01*
X22118Y14489D01*
X22116Y14489D01*
X22114Y14489D01*
X22111Y14488D01*
X22109Y14487D01*
X22107Y14486D01*
X22105Y14486D01*
X22103Y14484D01*
X22101Y14482D01*
X22099Y14481D01*
X22098Y14479D01*
X22096Y14477D01*
X22095Y14475D01*
X22094Y14473D01*
X22093Y14471D01*
X22092Y14468D01*
X22091Y14466D01*
X22091Y14463D01*
X22091Y14462D01*
X22091Y14461D01*
X22091Y14460D01*
X22091Y12962D01*
X21948Y12820D01*
X21946Y12817D01*
X21943Y12814D01*
X21943Y12813D01*
X21943Y12812D01*
X21942Y12808D01*
X21940Y12805D01*
X21940Y12803D01*
X21940Y12802D01*
X21940Y12799D01*
X21940Y12671D01*
X21829Y12560D01*
X21671Y12560D01*
X21560Y12671D01*
X21560Y12829D01*
X21671Y12940D01*
X21799Y12940D01*
X21803Y12940D01*
X21807Y12941D01*
X21808Y12941D01*
X21809Y12941D01*
X21812Y12943D01*
X21816Y12945D01*
X21817Y12945D01*
X21817Y12946D01*
X21818Y12946D01*
X21820Y12948D01*
X21901Y13029D01*
X21903Y13032D01*
X21905Y13035D01*
X21906Y13036D01*
X21906Y13037D01*
X21907Y13041D01*
X21909Y13044D01*
X21909Y13045D01*
X21909Y13046D01*
X21909Y13047D01*
X21909Y13050D01*
X21909Y14450D01*
X21909Y14454D01*
X21908Y14458D01*
X21908Y14459D01*
X21908Y14460D01*
X21906Y14463D01*
X21904Y14467D01*
X21903Y14468D01*
X21903Y14469D01*
X21901Y14471D01*
X20971Y15401D01*
X20968Y15403D01*
X20965Y15405D01*
X20964Y15406D01*
X20963Y15406D01*
X20959Y15407D01*
X20956Y15409D01*
X20955Y15409D01*
X20954Y15409D01*
X20953Y15409D01*
X20950Y15409D01*
X19212Y15409D01*
X18471Y16151D01*
X18468Y16153D01*
X18465Y16155D01*
X18464Y16156D01*
X18463Y16156D01*
X18459Y16157D01*
X18456Y16159D01*
X18455Y16159D01*
X18454Y16159D01*
X18453Y16159D01*
X18450Y16159D01*
X17712Y16159D01*
X17471Y16401D01*
X17468Y16403D01*
X17465Y16405D01*
X17464Y16406D01*
X17463Y16406D01*
X17459Y16407D01*
X17456Y16409D01*
X17455Y16409D01*
X17454Y16409D01*
X17453Y16409D01*
X17450Y16409D01*
X16212Y16409D01*
X16151Y16471D01*
X15721Y16901D01*
X15659Y16962D01*
X15659Y18200D01*
X15659Y18204D01*
X15658Y18208D01*
X15658Y18209D01*
X15658Y18210D01*
X15656Y18213D01*
X15654Y18217D01*
X15653Y18218D01*
X15653Y18219D01*
X15651Y18221D01*
X15613Y18258D01*
X15612Y18259D01*
X15612Y18260D01*
X15608Y18262D01*
X15605Y18264D01*
X15604Y18264D01*
X15603Y18265D01*
X15600Y18266D01*
X15596Y18267D01*
X15595Y18267D01*
X15594Y18267D01*
X15590Y18267D01*
X15587Y18266D01*
X15586Y18266D01*
X15585Y18266D01*
X15581Y18264D01*
X15578Y18263D01*
X15577Y18262D01*
X15576Y18262D01*
X15572Y18258D01*
X15366Y18053D01*
X15067Y18053D01*
X14856Y18264D01*
X14856Y18563D01*
X15067Y18774D01*
X15366Y18774D01*
X15577Y18563D01*
X15577Y18533D01*
X15577Y18532D01*
X15577Y18531D01*
X15578Y18528D01*
X15579Y18524D01*
X15579Y18523D01*
X15580Y18522D01*
X15582Y18519D01*
X15583Y18516D01*
X15584Y18515D01*
X15585Y18514D01*
X15588Y18512D01*
X15590Y18509D01*
X15591Y18509D01*
X15592Y18508D01*
X15596Y18507D01*
X15599Y18505D01*
X15600Y18505D01*
X15601Y18505D01*
X15607Y18504D01*
X15624Y18504D01*
X15779Y18349D01*
X15806Y18322D01*
X15808Y18321D01*
X15810Y18319D01*
X15812Y18318D01*
X15814Y18317D01*
X15816Y18316D01*
X15819Y18315D01*
X15821Y18315D01*
X15823Y18314D01*
X15826Y18314D01*
X15829Y18314D01*
X15830Y18314D01*
X15832Y18315D01*
X15835Y18316D01*
X15838Y18316D01*
X15840Y18317D01*
X15841Y18318D01*
X15844Y18320D01*
X15846Y18321D01*
X15847Y18323D01*
X15849Y18324D01*
X15850Y18327D01*
X15852Y18329D01*
X15853Y18331D01*
X15854Y18332D01*
X15854Y18335D01*
X15855Y18338D01*
X15856Y18341D01*
X15856Y18342D01*
X15856Y18343D01*
X15856Y18563D01*
X16067Y18774D01*
X16366Y18774D01*
X16577Y18563D01*
X16577Y18264D01*
X16366Y18053D01*
X16067Y18053D01*
X15891Y18229D01*
X15888Y18231D01*
X15886Y18233D01*
X15884Y18234D01*
X15883Y18235D01*
X15880Y18235D01*
X15877Y18237D01*
X15876Y18237D01*
X15874Y18237D01*
X15871Y18237D01*
X15868Y18238D01*
X15866Y18237D01*
X15864Y18237D01*
X15861Y18236D01*
X15859Y18235D01*
X15857Y18234D01*
X15855Y18234D01*
X15853Y18232D01*
X15851Y18230D01*
X15849Y18229D01*
X15848Y18228D01*
X15846Y18225D01*
X15845Y18223D01*
X15844Y18221D01*
X15843Y18219D01*
X15842Y18217D01*
X15841Y18214D01*
X15841Y18211D01*
X15841Y18210D01*
X15841Y18208D01*
X15841Y17618D01*
X15841Y17616D01*
X15841Y17613D01*
X15842Y17611D01*
X15842Y17609D01*
X15844Y17606D01*
X15845Y17604D01*
X15846Y17602D01*
X15847Y17601D01*
X15849Y17599D01*
X15851Y17596D01*
X15852Y17595D01*
X15854Y17594D01*
X15857Y17593D01*
X15859Y17591D01*
X15861Y17591D01*
X15863Y17590D01*
X15865Y17590D01*
X15868Y17589D01*
X15870Y17589D01*
X15872Y17589D01*
X15875Y17590D01*
X15878Y17590D01*
X15880Y17591D01*
X15881Y17591D01*
X15884Y17593D01*
X15887Y17594D01*
X15889Y17596D01*
X15889Y17597D01*
X15890Y17597D01*
X15891Y17598D01*
X16067Y17774D01*
X16366Y17774D01*
X16577Y17563D01*
X16577Y17264D01*
X16556Y17243D01*
X16556Y17242D01*
X16555Y17242D01*
X16553Y17238D01*
X16551Y17235D01*
X16551Y17234D01*
X16550Y17233D01*
X16549Y17230D01*
X16548Y17226D01*
X16548Y17225D01*
X16548Y17224D01*
X16548Y17220D01*
X16548Y17217D01*
X16549Y17216D01*
X16549Y17215D01*
X16551Y17211D01*
X16552Y17208D01*
X16553Y17207D01*
X16553Y17206D01*
X16556Y17202D01*
X16909Y16849D01*
X16912Y16847D01*
X16915Y16845D01*
X16916Y16844D01*
X16917Y16844D01*
X16921Y16843D01*
X16924Y16841D01*
X16925Y16841D01*
X16926Y16841D01*
X16927Y16841D01*
X16930Y16841D01*
X17538Y16841D01*
X17779Y16599D01*
X17782Y16597D01*
X17785Y16595D01*
X17786Y16594D01*
X17787Y16594D01*
X17791Y16593D01*
X17794Y16591D01*
X17795Y16591D01*
X17796Y16591D01*
X17797Y16591D01*
X17800Y16591D01*
X18460Y16591D01*
X18463Y16591D01*
X18466Y16591D01*
X18468Y16592D01*
X18470Y16592D01*
X18472Y16594D01*
X18475Y16595D01*
X18476Y16596D01*
X18478Y16597D01*
X18480Y16599D01*
X18482Y16601D01*
X18483Y16602D01*
X18485Y16604D01*
X18486Y16607D01*
X18487Y16609D01*
X18488Y16611D01*
X18489Y16613D01*
X18489Y16615D01*
X18490Y16618D01*
X18489Y16620D01*
X18489Y16622D01*
X18489Y16625D01*
X18488Y16628D01*
X18488Y16630D01*
X18487Y16631D01*
X18486Y16634D01*
X18484Y16637D01*
X18483Y16639D01*
X18482Y16639D01*
X18482Y16640D01*
X18481Y16641D01*
X18471Y16651D01*
X18468Y16653D01*
X18465Y16655D01*
X18464Y16656D01*
X18463Y16656D01*
X18459Y16657D01*
X18456Y16659D01*
X18455Y16659D01*
X18454Y16659D01*
X18453Y16659D01*
X18450Y16659D01*
X17842Y16659D01*
X17781Y16721D01*
X17428Y17073D01*
X17427Y17074D01*
X17427Y17075D01*
X17423Y17077D01*
X17420Y17079D01*
X17419Y17079D01*
X17418Y17080D01*
X17415Y17081D01*
X17411Y17082D01*
X17410Y17082D01*
X17409Y17082D01*
X17405Y17082D01*
X17402Y17081D01*
X17401Y17081D01*
X17400Y17081D01*
X17396Y17079D01*
X17393Y17078D01*
X17392Y17077D01*
X17391Y17077D01*
X17387Y17073D01*
X17366Y17053D01*
X17067Y17053D01*
X16856Y17264D01*
X16856Y17563D01*
X17067Y17774D01*
X17366Y17774D01*
X17577Y17563D01*
X17577Y17264D01*
X17556Y17243D01*
X17556Y17242D01*
X17555Y17242D01*
X17553Y17238D01*
X17551Y17235D01*
X17551Y17234D01*
X17550Y17233D01*
X17549Y17230D01*
X17548Y17226D01*
X17548Y17225D01*
X17548Y17224D01*
X17548Y17220D01*
X17548Y17217D01*
X17549Y17216D01*
X17549Y17215D01*
X17551Y17211D01*
X17552Y17208D01*
X17553Y17207D01*
X17553Y17206D01*
X17556Y17202D01*
X17909Y16849D01*
X17912Y16847D01*
X17915Y16845D01*
X17916Y16844D01*
X17917Y16844D01*
X17921Y16843D01*
X17924Y16841D01*
X17925Y16841D01*
X17926Y16841D01*
X17927Y16841D01*
X17930Y16841D01*
X18538Y16841D01*
X19279Y16099D01*
X19282Y16097D01*
X19285Y16095D01*
X19286Y16094D01*
X19287Y16094D01*
X19291Y16093D01*
X19294Y16091D01*
X19295Y16091D01*
X19296Y16091D01*
X19297Y16091D01*
X19300Y16091D01*
X20960Y16091D01*
X20963Y16091D01*
X20966Y16091D01*
X20968Y16092D01*
X20970Y16092D01*
X20972Y16094D01*
X20975Y16095D01*
X20976Y16096D01*
X20978Y16097D01*
X20980Y16099D01*
X20982Y16101D01*
X20983Y16102D01*
X20985Y16104D01*
X20986Y16107D01*
X20987Y16109D01*
X20988Y16111D01*
X20989Y16113D01*
X20989Y16115D01*
X20990Y16118D01*
X20989Y16120D01*
X20989Y16122D01*
X20989Y16125D01*
X20988Y16128D01*
X20988Y16130D01*
X20987Y16131D01*
X20986Y16134D01*
X20984Y16137D01*
X20983Y16139D01*
X20982Y16139D01*
X20982Y16140D01*
X20981Y16141D01*
X20971Y16151D01*
X20968Y16153D01*
X20965Y16155D01*
X20964Y16156D01*
X20963Y16156D01*
X20959Y16157D01*
X20956Y16159D01*
X20955Y16159D01*
X20954Y16159D01*
X20953Y16159D01*
X20950Y16159D01*
X19342Y16159D01*
X19281Y16221D01*
X18428Y17073D01*
X18427Y17074D01*
X18427Y17075D01*
X18423Y17077D01*
X18420Y17079D01*
X18419Y17079D01*
X18418Y17080D01*
X18415Y17081D01*
X18411Y17082D01*
X18410Y17082D01*
X18409Y17082D01*
X18405Y17082D01*
X18402Y17081D01*
X18401Y17081D01*
X18400Y17081D01*
X18396Y17079D01*
X18393Y17078D01*
X18392Y17077D01*
X18391Y17077D01*
X18387Y17073D01*
X18366Y17053D01*
X18067Y17053D01*
X17856Y17264D01*
X17856Y17563D01*
X18067Y17774D01*
X18366Y17774D01*
X18577Y17563D01*
X18577Y17264D01*
X18556Y17243D01*
X18556Y17242D01*
X18555Y17242D01*
X18553Y17238D01*
X18551Y17235D01*
X18551Y17234D01*
X18550Y17233D01*
X18549Y17230D01*
X18548Y17226D01*
X18548Y17225D01*
X18548Y17224D01*
X18548Y17220D01*
X18548Y17217D01*
X18549Y17216D01*
X18549Y17215D01*
X18551Y17211D01*
X18552Y17208D01*
X18553Y17207D01*
X18553Y17206D01*
X18556Y17202D01*
X19409Y16349D01*
X19412Y16347D01*
X19415Y16345D01*
X19416Y16344D01*
X19417Y16344D01*
X19421Y16343D01*
X19424Y16341D01*
X19425Y16341D01*
X19426Y16341D01*
X19427Y16341D01*
X19430Y16341D01*
X21038Y16341D01*
X23091Y14288D01*
X23091Y9930D01*
X23091Y9927D01*
X23091Y9924D01*
X23092Y9922D01*
X23092Y9920D01*
X23094Y9918D01*
X23095Y9915D01*
X23096Y9913D01*
X23097Y9912D01*
X23099Y9910D01*
X23101Y9907D01*
X23102Y9906D01*
X23104Y9905D01*
X23107Y9904D01*
X23109Y9902D01*
X23111Y9902D01*
X23113Y9901D01*
X23115Y9901D01*
X23118Y9900D01*
X23120Y9901D01*
X23122Y9900D01*
X23125Y9901D01*
X23128Y9901D01*
X23130Y9902D01*
X23131Y9903D01*
X23134Y9904D01*
X23137Y9905D01*
X23139Y9907D01*
X23139Y9908D01*
X23140Y9908D01*
X23141Y9909D01*
X23151Y9919D01*
X23153Y9922D01*
X23155Y9925D01*
X23156Y9926D01*
X23156Y9927D01*
X23157Y9930D01*
X23159Y9934D01*
X23159Y9935D01*
X23159Y9936D01*
X23159Y9937D01*
X23159Y9940D01*
X23159Y14450D01*
X23159Y14454D01*
X23158Y14458D01*
X23158Y14459D01*
X23158Y14460D01*
X23156Y14463D01*
X23154Y14467D01*
X23153Y14468D01*
X23153Y14469D01*
X23151Y14471D01*
X21221Y16401D01*
X21218Y16403D01*
X21215Y16405D01*
X21214Y16406D01*
X21213Y16406D01*
X21209Y16407D01*
X21206Y16409D01*
X21205Y16409D01*
X21204Y16409D01*
X21203Y16409D01*
X21200Y16409D01*
X20092Y16409D01*
X20031Y16471D01*
X19428Y17073D01*
X19427Y17074D01*
X19427Y17075D01*
X19423Y17077D01*
X19420Y17079D01*
X19419Y17079D01*
X19418Y17080D01*
X19415Y17081D01*
X19411Y17082D01*
X19410Y17082D01*
X19409Y17082D01*
X19405Y17082D01*
X19402Y17081D01*
X19401Y17081D01*
X19400Y17081D01*
X19396Y17079D01*
X19393Y17078D01*
X19392Y17077D01*
X19391Y17077D01*
X19387Y17073D01*
X19366Y17053D01*
X19067Y17053D01*
X18856Y17264D01*
X18856Y17563D01*
X19067Y17774D01*
X19366Y17774D01*
X19577Y17563D01*
X19577Y17264D01*
X19556Y17243D01*
X19556Y17242D01*
X19555Y17242D01*
X19553Y17238D01*
X19551Y17235D01*
X19551Y17234D01*
X19550Y17233D01*
X19549Y17230D01*
X19548Y17226D01*
X19548Y17225D01*
X19548Y17224D01*
X19548Y17220D01*
X19548Y17217D01*
X19549Y17216D01*
X19549Y17215D01*
X19551Y17211D01*
X19552Y17208D01*
X19553Y17207D01*
X19553Y17206D01*
X19556Y17202D01*
X20159Y16599D01*
X20162Y16597D01*
X20165Y16595D01*
X20166Y16594D01*
X20167Y16594D01*
X20171Y16593D01*
X20174Y16591D01*
X20175Y16591D01*
X20176Y16591D01*
X20177Y16591D01*
X20180Y16591D01*
X21288Y16591D01*
X23341Y14538D01*
X23341Y9940D01*
X23341Y9936D01*
X23342Y9932D01*
X23342Y9931D01*
X23342Y9930D01*
X23344Y9927D01*
X23346Y9923D01*
X23347Y9922D01*
X23347Y9921D01*
X23349Y9919D01*
X23359Y9909D01*
X23362Y9907D01*
X23364Y9905D01*
X23366Y9904D01*
X23367Y9903D01*
X23370Y9902D01*
X23373Y9901D01*
X23374Y9901D01*
X23376Y9901D01*
X23379Y9901D01*
X23382Y9900D01*
X23384Y9901D01*
X23386Y9901D01*
X23389Y9902D01*
X23391Y9903D01*
X23393Y9904D01*
X23395Y9904D01*
X23397Y9906D01*
X23399Y9908D01*
X23401Y9909D01*
X23402Y9910D01*
X23404Y9913D01*
X23405Y9915D01*
X23406Y9917D01*
X23407Y9919D01*
X23408Y9921D01*
X23409Y9924D01*
X23409Y9927D01*
X23409Y9928D01*
X23409Y9930D01*
X23409Y14700D01*
X23409Y14704D01*
X23408Y14708D01*
X23408Y14709D01*
X23408Y14710D01*
X23406Y14713D01*
X23404Y14717D01*
X23403Y14718D01*
X23403Y14719D01*
X23401Y14721D01*
X21471Y16651D01*
X21468Y16653D01*
X21465Y16655D01*
X21464Y16656D01*
X21463Y16656D01*
X21459Y16657D01*
X21456Y16659D01*
X21455Y16659D01*
X21454Y16659D01*
X21453Y16659D01*
X21450Y16659D01*
X20842Y16659D01*
X20781Y16721D01*
X20428Y17073D01*
X20427Y17074D01*
X20427Y17075D01*
X20423Y17077D01*
X20420Y17079D01*
X20419Y17079D01*
X20418Y17080D01*
X20415Y17081D01*
X20411Y17082D01*
X20410Y17082D01*
X20409Y17082D01*
X20405Y17082D01*
X20402Y17081D01*
X20401Y17081D01*
X20400Y17081D01*
X20396Y17079D01*
X20393Y17078D01*
X20392Y17077D01*
X20391Y17077D01*
X20387Y17073D01*
X20366Y17053D01*
X20067Y17053D01*
X19856Y17264D01*
X19856Y17563D01*
X20067Y17774D01*
X20366Y17774D01*
X20577Y17563D01*
X20577Y17264D01*
X20556Y17243D01*
X20556Y17242D01*
X20555Y17242D01*
X20553Y17238D01*
X20551Y17235D01*
X20551Y17234D01*
X20550Y17233D01*
X20549Y17230D01*
X20548Y17226D01*
X20548Y17225D01*
X20548Y17224D01*
X20548Y17220D01*
X20548Y17217D01*
X20549Y17216D01*
X20549Y17215D01*
X20551Y17211D01*
X20552Y17208D01*
X20553Y17207D01*
X20553Y17206D01*
X20556Y17202D01*
X20909Y16849D01*
X20912Y16847D01*
X20915Y16845D01*
X20916Y16844D01*
X20917Y16844D01*
X20921Y16843D01*
X20924Y16841D01*
X20925Y16841D01*
X20926Y16841D01*
X20927Y16841D01*
X20930Y16841D01*
X21538Y16841D01*
X23591Y14788D01*
X23591Y9190D01*
X23591Y9186D01*
X23592Y9182D01*
X23592Y9181D01*
X23592Y9180D01*
X23594Y9177D01*
X23596Y9173D01*
X23597Y9172D01*
X23597Y9171D01*
X23599Y9169D01*
X23690Y9079D01*
X23690Y8921D01*
X23579Y8810D01*
X23421Y8810D01*
G37*
%LPD*%
%LPC*%
G36*
X7150Y1079D02*
X7150Y1079D01*
X5459Y2771D01*
X5455Y2773D01*
X5452Y2775D01*
X5451Y2776D01*
X5447Y2777D01*
X5443Y2779D01*
X5442Y2779D01*
X5441Y2779D01*
X5438Y2779D01*
X-150Y2779D01*
X-229Y2859D01*
X-879Y3508D01*
X-882Y3511D01*
X-886Y3513D01*
X-886Y3514D01*
X-887Y3514D01*
X-891Y3515D01*
X-895Y3517D01*
X-896Y3517D01*
X-897Y3517D01*
X-900Y3517D01*
X-4038Y3517D01*
X-4042Y3516D01*
X-4046Y3516D01*
X-4047Y3516D01*
X-4047Y3515D01*
X-4051Y3514D01*
X-4055Y3512D01*
X-4055Y3511D01*
X-4056Y3511D01*
X-4056Y3510D01*
X-4059Y3508D01*
X-4110Y3457D01*
X-4260Y3457D01*
X-4366Y3563D01*
X-4366Y3713D01*
X-4260Y3819D01*
X-4110Y3819D01*
X-4059Y3767D01*
X-4056Y3765D01*
X-4052Y3762D01*
X-4051Y3762D01*
X-4047Y3760D01*
X-4043Y3759D01*
X-4042Y3759D01*
X-4041Y3759D01*
X-4038Y3759D01*
X-2424Y3759D01*
X-2420Y3759D01*
X-2416Y3760D01*
X-2415Y3760D01*
X-2411Y3762D01*
X-2408Y3764D01*
X-2407Y3764D01*
X-2406Y3765D01*
X-2404Y3767D01*
X-2101Y4070D01*
X-1924Y4070D01*
X-1920Y4070D01*
X-1916Y4071D01*
X-1915Y4071D01*
X-1911Y4073D01*
X-1908Y4075D01*
X-1907Y4075D01*
X-1906Y4076D01*
X-1904Y4078D01*
X-1393Y4589D01*
X-1391Y4592D01*
X-1388Y4595D01*
X-1388Y4596D01*
X-1386Y4600D01*
X-1385Y4604D01*
X-1385Y4605D01*
X-1385Y4606D01*
X-1385Y4609D01*
X-1385Y12711D01*
X-494Y13602D01*
X-493Y13603D01*
X-492Y13604D01*
X-490Y13607D01*
X-488Y13610D01*
X-488Y13611D01*
X-487Y13612D01*
X-486Y13616D01*
X-485Y13619D01*
X-485Y13620D01*
X-485Y13621D01*
X-486Y13625D01*
X-486Y13629D01*
X-486Y13630D01*
X-486Y13631D01*
X-488Y13634D01*
X-489Y13638D01*
X-490Y13638D01*
X-490Y13639D01*
X-494Y13644D01*
X-496Y13646D01*
X-496Y13795D01*
X-390Y13901D01*
X-240Y13901D01*
X-134Y13795D01*
X-134Y13646D01*
X-186Y13594D01*
X-188Y13591D01*
X-190Y13588D01*
X-191Y13587D01*
X-191Y13586D01*
X-192Y13583D01*
X-194Y13579D01*
X-194Y13578D01*
X-194Y13577D01*
X-194Y13576D01*
X-194Y13573D01*
X-194Y13560D01*
X-1134Y12620D01*
X-1137Y12617D01*
X-1139Y12614D01*
X-1140Y12613D01*
X-1140Y12612D01*
X-1141Y12608D01*
X-1143Y12605D01*
X-1143Y12604D01*
X-1143Y12603D01*
X-1143Y12602D01*
X-1143Y12599D01*
X-1143Y4497D01*
X-1812Y3828D01*
X-1989Y3828D01*
X-1993Y3827D01*
X-1997Y3827D01*
X-1998Y3827D01*
X-2002Y3825D01*
X-2006Y3823D01*
X-2006Y3822D01*
X-2007Y3822D01*
X-2007Y3821D01*
X-2010Y3820D01*
X-2021Y3808D01*
X-2022Y3806D01*
X-2024Y3804D01*
X-2025Y3802D01*
X-2026Y3801D01*
X-2027Y3798D01*
X-2028Y3795D01*
X-2029Y3793D01*
X-2029Y3792D01*
X-2029Y3789D01*
X-2029Y3786D01*
X-2029Y3784D01*
X-2029Y3782D01*
X-2028Y3779D01*
X-2027Y3776D01*
X-2026Y3775D01*
X-2025Y3773D01*
X-2023Y3771D01*
X-2022Y3768D01*
X-2020Y3767D01*
X-2019Y3766D01*
X-2017Y3764D01*
X-2014Y3762D01*
X-2013Y3762D01*
X-2011Y3761D01*
X-2008Y3760D01*
X-2005Y3759D01*
X-2003Y3759D01*
X-2002Y3759D01*
X-2001Y3759D01*
X-2000Y3759D01*
X-788Y3759D01*
X-708Y3679D01*
X-59Y3029D01*
X-55Y3027D01*
X-52Y3025D01*
X-51Y3024D01*
X-47Y3023D01*
X-43Y3021D01*
X-42Y3021D01*
X-41Y3021D01*
X-38Y3021D01*
X5550Y3021D01*
X7241Y1329D01*
X7245Y1327D01*
X7248Y1325D01*
X7249Y1324D01*
X7253Y1323D01*
X7257Y1321D01*
X7258Y1321D01*
X7259Y1321D01*
X7262Y1321D01*
X24138Y1321D01*
X24142Y1321D01*
X24146Y1322D01*
X24147Y1322D01*
X24151Y1324D01*
X24154Y1326D01*
X24155Y1327D01*
X24156Y1327D01*
X24159Y1329D01*
X24460Y1631D01*
X24461Y1632D01*
X24462Y1634D01*
X24463Y1635D01*
X24464Y1636D01*
X24465Y1638D01*
X24466Y1639D01*
X24466Y1640D01*
X24467Y1643D01*
X24467Y1644D01*
X24468Y1648D01*
X24468Y1649D01*
X24468Y1650D01*
X24468Y1653D01*
X24468Y1657D01*
X24467Y1658D01*
X24467Y1659D01*
X24466Y1663D01*
X24464Y1666D01*
X24464Y1667D01*
X24463Y1668D01*
X24460Y1672D01*
X24410Y1721D01*
X24410Y1879D01*
X24471Y1939D01*
X24473Y1942D01*
X24475Y1945D01*
X24476Y1946D01*
X24476Y1947D01*
X24477Y1950D01*
X24479Y1954D01*
X24479Y1955D01*
X24479Y1956D01*
X24479Y1957D01*
X24479Y1960D01*
X24479Y2150D01*
X24700Y2371D01*
X25330Y2371D01*
X25333Y2371D01*
X25336Y2371D01*
X25338Y2372D01*
X25340Y2372D01*
X25342Y2374D01*
X25345Y2375D01*
X25346Y2376D01*
X25348Y2377D01*
X25350Y2379D01*
X25352Y2381D01*
X25353Y2382D01*
X25355Y2384D01*
X25356Y2387D01*
X25357Y2389D01*
X25358Y2391D01*
X25359Y2393D01*
X25359Y2395D01*
X25359Y2398D01*
X25359Y2400D01*
X25359Y2402D01*
X25359Y2405D01*
X25358Y2408D01*
X25358Y2410D01*
X25357Y2411D01*
X25356Y2414D01*
X25354Y2417D01*
X25353Y2419D01*
X25352Y2419D01*
X25352Y2420D01*
X25351Y2421D01*
X25301Y2471D01*
X24871Y2901D01*
X24868Y2903D01*
X24865Y2905D01*
X24864Y2906D01*
X24863Y2906D01*
X24859Y2907D01*
X24856Y2909D01*
X24855Y2909D01*
X24854Y2909D01*
X24853Y2909D01*
X24850Y2909D01*
X23190Y2909D01*
X23186Y2909D01*
X23182Y2908D01*
X23181Y2908D01*
X23180Y2908D01*
X23177Y2906D01*
X23173Y2904D01*
X23172Y2903D01*
X23171Y2903D01*
X23171Y2902D01*
X23169Y2901D01*
X23079Y2810D01*
X22921Y2810D01*
X22810Y2921D01*
X22810Y3079D01*
X22921Y3190D01*
X23079Y3190D01*
X23169Y3099D01*
X23172Y3097D01*
X23175Y3095D01*
X23176Y3094D01*
X23177Y3094D01*
X23180Y3093D01*
X23184Y3091D01*
X23185Y3091D01*
X23186Y3091D01*
X23187Y3091D01*
X23190Y3091D01*
X24938Y3091D01*
X25429Y2599D01*
X25432Y2597D01*
X25435Y2595D01*
X25436Y2594D01*
X25437Y2594D01*
X25441Y2593D01*
X25444Y2591D01*
X25445Y2591D01*
X25446Y2591D01*
X25447Y2591D01*
X25450Y2591D01*
X32881Y2591D01*
X32882Y2591D01*
X32883Y2591D01*
X32887Y2592D01*
X32891Y2592D01*
X32891Y2593D01*
X32893Y2593D01*
X32896Y2595D01*
X32899Y2597D01*
X32900Y2598D01*
X32901Y2598D01*
X32903Y2601D01*
X32905Y2604D01*
X32906Y2605D01*
X32907Y2606D01*
X32908Y2609D01*
X32909Y2613D01*
X32909Y2614D01*
X32910Y2615D01*
X32910Y2620D01*
X32910Y2779D01*
X33021Y2890D01*
X33179Y2890D01*
X33290Y2779D01*
X33290Y2621D01*
X33179Y2510D01*
X33151Y2510D01*
X33147Y2510D01*
X33143Y2509D01*
X33142Y2509D01*
X33141Y2509D01*
X33138Y2507D01*
X33134Y2505D01*
X33133Y2505D01*
X33133Y2504D01*
X33132Y2504D01*
X33130Y2502D01*
X33038Y2409D01*
X30568Y2409D01*
X30565Y2409D01*
X30562Y2409D01*
X30560Y2408D01*
X30559Y2408D01*
X30556Y2406D01*
X30553Y2405D01*
X30552Y2404D01*
X30550Y2403D01*
X30548Y2401D01*
X30546Y2399D01*
X30545Y2398D01*
X30544Y2396D01*
X30542Y2393D01*
X30541Y2391D01*
X30540Y2389D01*
X30540Y2387D01*
X30539Y2385D01*
X30539Y2382D01*
X30539Y2380D01*
X30539Y2378D01*
X30539Y2375D01*
X30540Y2372D01*
X30541Y2370D01*
X30541Y2369D01*
X30543Y2366D01*
X30544Y2363D01*
X30546Y2361D01*
X30547Y2360D01*
X30547Y2359D01*
X30861Y2046D01*
X30861Y1920D01*
X30861Y1916D01*
X30862Y1912D01*
X30862Y1911D01*
X30862Y1910D01*
X30864Y1907D01*
X30866Y1903D01*
X30867Y1902D01*
X30867Y1901D01*
X30869Y1899D01*
X30940Y1829D01*
X30940Y1671D01*
X30829Y1560D01*
X30671Y1560D01*
X30560Y1671D01*
X30560Y1829D01*
X30631Y1899D01*
X30633Y1902D01*
X30635Y1905D01*
X30636Y1906D01*
X30636Y1907D01*
X30637Y1910D01*
X30639Y1914D01*
X30639Y1915D01*
X30639Y1916D01*
X30639Y1917D01*
X30639Y1920D01*
X30639Y1942D01*
X30639Y1946D01*
X30638Y1950D01*
X30638Y1951D01*
X30636Y1955D01*
X30634Y1959D01*
X30633Y1959D01*
X30633Y1960D01*
X30631Y1963D01*
X30463Y2131D01*
X30459Y2133D01*
X30456Y2135D01*
X30456Y2136D01*
X30455Y2136D01*
X30451Y2137D01*
X30447Y2139D01*
X30446Y2139D01*
X30445Y2139D01*
X30442Y2139D01*
X27820Y2139D01*
X27819Y2139D01*
X27818Y2139D01*
X27814Y2138D01*
X27811Y2138D01*
X27810Y2137D01*
X27809Y2137D01*
X27805Y2135D01*
X27802Y2133D01*
X27801Y2132D01*
X27798Y2129D01*
X27796Y2126D01*
X27795Y2125D01*
X27795Y2124D01*
X27793Y2121D01*
X27792Y2117D01*
X27792Y2116D01*
X27791Y2115D01*
X27791Y2110D01*
X27791Y1890D01*
X27791Y1886D01*
X27792Y1882D01*
X27792Y1881D01*
X27792Y1880D01*
X27794Y1877D01*
X27796Y1873D01*
X27797Y1872D01*
X27797Y1871D01*
X27799Y1869D01*
X27890Y1779D01*
X27890Y1621D01*
X27779Y1510D01*
X27621Y1510D01*
X27510Y1621D01*
X27510Y1779D01*
X27601Y1869D01*
X27603Y1872D01*
X27605Y1875D01*
X27606Y1876D01*
X27606Y1877D01*
X27607Y1880D01*
X27609Y1884D01*
X27609Y1885D01*
X27609Y1886D01*
X27609Y1887D01*
X27609Y1890D01*
X27609Y2100D01*
X27609Y2104D01*
X27608Y2108D01*
X27608Y2109D01*
X27608Y2110D01*
X27606Y2113D01*
X27604Y2117D01*
X27603Y2118D01*
X27603Y2119D01*
X27601Y2121D01*
X27591Y2131D01*
X27588Y2133D01*
X27585Y2135D01*
X27584Y2136D01*
X27583Y2136D01*
X27579Y2137D01*
X27576Y2139D01*
X27575Y2139D01*
X27574Y2139D01*
X27573Y2139D01*
X27570Y2139D01*
X26572Y2139D01*
X26568Y2139D01*
X26564Y2138D01*
X26563Y2138D01*
X26559Y2136D01*
X26556Y2134D01*
X26555Y2133D01*
X26554Y2133D01*
X26551Y2131D01*
X26550Y2129D01*
X24812Y2129D01*
X24808Y2129D01*
X24804Y2128D01*
X24803Y2128D01*
X24799Y2126D01*
X24796Y2124D01*
X24795Y2123D01*
X24794Y2123D01*
X24791Y2121D01*
X24729Y2059D01*
X24727Y2055D01*
X24725Y2052D01*
X24724Y2051D01*
X24723Y2047D01*
X24721Y2043D01*
X24721Y2042D01*
X24721Y2041D01*
X24721Y2038D01*
X24721Y1960D01*
X24721Y1956D01*
X24722Y1952D01*
X24722Y1951D01*
X24722Y1950D01*
X24724Y1947D01*
X24726Y1943D01*
X24727Y1942D01*
X24727Y1941D01*
X24729Y1939D01*
X24790Y1879D01*
X24790Y1721D01*
X24729Y1661D01*
X24727Y1658D01*
X24725Y1655D01*
X24724Y1654D01*
X24724Y1653D01*
X24723Y1650D01*
X24721Y1646D01*
X24721Y1645D01*
X24721Y1644D01*
X24721Y1643D01*
X24721Y1640D01*
X24721Y1550D01*
X24329Y1159D01*
X24250Y1079D01*
X7150Y1079D01*
G37*
%LPD*%
%LPC*%
G36*
X20421Y8060D02*
X20421Y8060D01*
X20310Y8171D01*
X20310Y8329D01*
X20401Y8419D01*
X20403Y8422D01*
X20405Y8425D01*
X20406Y8426D01*
X20406Y8427D01*
X20407Y8430D01*
X20409Y8434D01*
X20409Y8435D01*
X20409Y8436D01*
X20409Y8437D01*
X20409Y8440D01*
X20409Y10880D01*
X20409Y10881D01*
X20409Y10882D01*
X20408Y10886D01*
X20408Y10889D01*
X20407Y10890D01*
X20407Y10891D01*
X20405Y10895D01*
X20403Y10898D01*
X20402Y10899D01*
X20399Y10902D01*
X20396Y10904D01*
X20395Y10905D01*
X20394Y10905D01*
X20391Y10907D01*
X20387Y10908D01*
X20386Y10908D01*
X20385Y10909D01*
X20380Y10909D01*
X12712Y10909D01*
X12126Y11496D01*
X12126Y17023D01*
X12126Y17024D01*
X12126Y17025D01*
X12125Y17029D01*
X12124Y17033D01*
X12124Y17034D01*
X12123Y17035D01*
X12121Y17038D01*
X12120Y17041D01*
X12119Y17042D01*
X12118Y17043D01*
X12115Y17045D01*
X12113Y17048D01*
X12112Y17048D01*
X12111Y17049D01*
X12107Y17050D01*
X12104Y17052D01*
X12103Y17052D01*
X12102Y17052D01*
X12097Y17053D01*
X12067Y17053D01*
X11891Y17229D01*
X11888Y17231D01*
X11886Y17233D01*
X11884Y17234D01*
X11883Y17235D01*
X11880Y17235D01*
X11877Y17237D01*
X11876Y17237D01*
X11874Y17237D01*
X11871Y17237D01*
X11868Y17238D01*
X11866Y17237D01*
X11864Y17237D01*
X11861Y17236D01*
X11859Y17235D01*
X11857Y17234D01*
X11855Y17234D01*
X11853Y17232D01*
X11851Y17230D01*
X11849Y17229D01*
X11848Y17228D01*
X11846Y17225D01*
X11845Y17223D01*
X11844Y17221D01*
X11843Y17219D01*
X11842Y17217D01*
X11841Y17214D01*
X11841Y17211D01*
X11841Y17210D01*
X11841Y17208D01*
X11841Y12940D01*
X11841Y12936D01*
X11842Y12932D01*
X11842Y12931D01*
X11842Y12930D01*
X11844Y12927D01*
X11846Y12923D01*
X11847Y12922D01*
X11847Y12921D01*
X11849Y12919D01*
X11940Y12829D01*
X11940Y12671D01*
X11829Y12560D01*
X11671Y12560D01*
X11560Y12671D01*
X11560Y12829D01*
X11651Y12919D01*
X11653Y12922D01*
X11655Y12925D01*
X11656Y12926D01*
X11656Y12927D01*
X11657Y12930D01*
X11659Y12934D01*
X11659Y12935D01*
X11659Y12936D01*
X11659Y12937D01*
X11659Y12940D01*
X11659Y17984D01*
X11877Y18202D01*
X11877Y18203D01*
X11878Y18203D01*
X11880Y18207D01*
X11882Y18210D01*
X11882Y18211D01*
X11883Y18211D01*
X11884Y18215D01*
X11885Y18219D01*
X11885Y18220D01*
X11885Y18221D01*
X11885Y18225D01*
X11885Y18228D01*
X11884Y18229D01*
X11884Y18230D01*
X11883Y18234D01*
X11881Y18237D01*
X11880Y18238D01*
X11880Y18239D01*
X11877Y18243D01*
X11856Y18264D01*
X11856Y18563D01*
X12067Y18774D01*
X12366Y18774D01*
X12577Y18563D01*
X12577Y18264D01*
X12366Y18053D01*
X12067Y18053D01*
X12046Y18073D01*
X12045Y18074D01*
X12045Y18075D01*
X12042Y18077D01*
X12039Y18079D01*
X12038Y18079D01*
X12037Y18080D01*
X12033Y18081D01*
X12029Y18082D01*
X12028Y18082D01*
X12027Y18082D01*
X12024Y18082D01*
X12020Y18081D01*
X12019Y18081D01*
X12018Y18081D01*
X12014Y18079D01*
X12011Y18078D01*
X12010Y18077D01*
X12009Y18077D01*
X12005Y18073D01*
X11849Y17918D01*
X11847Y17915D01*
X11845Y17912D01*
X11844Y17911D01*
X11844Y17910D01*
X11843Y17906D01*
X11841Y17903D01*
X11841Y17901D01*
X11841Y17900D01*
X11841Y17897D01*
X11841Y17618D01*
X11841Y17616D01*
X11841Y17613D01*
X11842Y17611D01*
X11842Y17609D01*
X11844Y17606D01*
X11845Y17604D01*
X11846Y17602D01*
X11847Y17601D01*
X11849Y17599D01*
X11851Y17596D01*
X11852Y17595D01*
X11854Y17594D01*
X11857Y17593D01*
X11859Y17591D01*
X11861Y17591D01*
X11863Y17590D01*
X11865Y17590D01*
X11868Y17589D01*
X11870Y17589D01*
X11872Y17589D01*
X11875Y17590D01*
X11878Y17590D01*
X11880Y17591D01*
X11881Y17591D01*
X11884Y17593D01*
X11887Y17594D01*
X11889Y17596D01*
X11889Y17597D01*
X11890Y17597D01*
X11891Y17598D01*
X12067Y17774D01*
X12366Y17774D01*
X12577Y17563D01*
X12577Y17264D01*
X12366Y17053D01*
X12337Y17053D01*
X12335Y17052D01*
X12334Y17053D01*
X12331Y17052D01*
X12327Y17051D01*
X12326Y17051D01*
X12325Y17050D01*
X12322Y17048D01*
X12319Y17047D01*
X12318Y17046D01*
X12317Y17045D01*
X12315Y17042D01*
X12312Y17040D01*
X12312Y17039D01*
X12311Y17038D01*
X12310Y17034D01*
X12308Y17031D01*
X12308Y17030D01*
X12308Y17029D01*
X12307Y17023D01*
X12307Y12396D01*
X12308Y12393D01*
X12308Y12390D01*
X12309Y12389D01*
X12309Y12387D01*
X12310Y12384D01*
X12311Y12381D01*
X12312Y12380D01*
X12313Y12378D01*
X12316Y12376D01*
X12317Y12374D01*
X12319Y12373D01*
X12320Y12372D01*
X12323Y12371D01*
X12326Y12369D01*
X12327Y12369D01*
X12329Y12368D01*
X12332Y12368D01*
X12335Y12367D01*
X12337Y12367D01*
X12339Y12367D01*
X12341Y12368D01*
X12344Y12368D01*
X12346Y12369D01*
X12348Y12369D01*
X12350Y12371D01*
X12353Y12372D01*
X12355Y12374D01*
X12356Y12374D01*
X12356Y12375D01*
X12357Y12375D01*
X12401Y12419D01*
X12403Y12422D01*
X12405Y12425D01*
X12406Y12426D01*
X12406Y12427D01*
X12407Y12430D01*
X12409Y12434D01*
X12409Y12435D01*
X12409Y12436D01*
X12409Y12437D01*
X12409Y12440D01*
X12409Y13038D01*
X12651Y13279D01*
X12653Y13282D01*
X12655Y13285D01*
X12656Y13286D01*
X12656Y13287D01*
X12657Y13291D01*
X12659Y13294D01*
X12659Y13295D01*
X12659Y13296D01*
X12659Y13297D01*
X12659Y13300D01*
X12659Y17984D01*
X12877Y18202D01*
X12877Y18203D01*
X12878Y18203D01*
X12880Y18207D01*
X12882Y18210D01*
X12882Y18211D01*
X12883Y18211D01*
X12884Y18215D01*
X12885Y18219D01*
X12885Y18220D01*
X12885Y18221D01*
X12885Y18225D01*
X12885Y18228D01*
X12884Y18229D01*
X12884Y18230D01*
X12883Y18234D01*
X12881Y18237D01*
X12880Y18238D01*
X12880Y18239D01*
X12877Y18243D01*
X12856Y18264D01*
X12856Y18563D01*
X13067Y18774D01*
X13366Y18774D01*
X13577Y18563D01*
X13577Y18264D01*
X13366Y18053D01*
X13067Y18053D01*
X13046Y18073D01*
X13045Y18074D01*
X13045Y18075D01*
X13042Y18077D01*
X13039Y18079D01*
X13038Y18079D01*
X13037Y18080D01*
X13033Y18081D01*
X13029Y18082D01*
X13028Y18082D01*
X13027Y18082D01*
X13024Y18082D01*
X13020Y18081D01*
X13019Y18081D01*
X13018Y18081D01*
X13014Y18079D01*
X13011Y18078D01*
X13010Y18077D01*
X13009Y18077D01*
X13005Y18073D01*
X12849Y17918D01*
X12847Y17915D01*
X12845Y17912D01*
X12844Y17911D01*
X12844Y17910D01*
X12843Y17906D01*
X12841Y17903D01*
X12841Y17901D01*
X12841Y17900D01*
X12841Y17897D01*
X12841Y17618D01*
X12841Y17616D01*
X12841Y17613D01*
X12842Y17611D01*
X12842Y17609D01*
X12844Y17606D01*
X12845Y17604D01*
X12846Y17602D01*
X12847Y17601D01*
X12849Y17599D01*
X12851Y17596D01*
X12852Y17595D01*
X12854Y17594D01*
X12857Y17593D01*
X12859Y17591D01*
X12861Y17591D01*
X12863Y17590D01*
X12865Y17590D01*
X12868Y17589D01*
X12870Y17589D01*
X12872Y17589D01*
X12875Y17590D01*
X12878Y17590D01*
X12880Y17591D01*
X12881Y17591D01*
X12884Y17593D01*
X12887Y17594D01*
X12889Y17596D01*
X12889Y17597D01*
X12890Y17597D01*
X12891Y17598D01*
X13067Y17774D01*
X13366Y17774D01*
X13577Y17563D01*
X13577Y17264D01*
X13366Y17053D01*
X13337Y17053D01*
X13335Y17052D01*
X13334Y17053D01*
X13331Y17052D01*
X13327Y17051D01*
X13326Y17051D01*
X13325Y17050D01*
X13322Y17048D01*
X13319Y17047D01*
X13318Y17046D01*
X13317Y17045D01*
X13315Y17042D01*
X13312Y17040D01*
X13312Y17039D01*
X13311Y17038D01*
X13310Y17034D01*
X13308Y17031D01*
X13308Y17030D01*
X13308Y17029D01*
X13307Y17023D01*
X13307Y11583D01*
X13308Y11579D01*
X13308Y11575D01*
X13309Y11575D01*
X13309Y11574D01*
X13311Y11570D01*
X13312Y11567D01*
X13313Y11566D01*
X13313Y11565D01*
X13314Y11565D01*
X13316Y11562D01*
X13529Y11349D01*
X13532Y11347D01*
X13535Y11345D01*
X13536Y11344D01*
X13537Y11344D01*
X13541Y11343D01*
X13544Y11341D01*
X13545Y11341D01*
X13546Y11341D01*
X13547Y11341D01*
X13550Y11341D01*
X20788Y11341D01*
X20841Y11288D01*
X20841Y9190D01*
X20841Y9186D01*
X20842Y9182D01*
X20842Y9181D01*
X20842Y9180D01*
X20844Y9177D01*
X20846Y9173D01*
X20847Y9172D01*
X20847Y9171D01*
X20849Y9169D01*
X20940Y9079D01*
X20940Y8921D01*
X20829Y8810D01*
X20671Y8810D01*
X20641Y8841D01*
X20638Y8843D01*
X20636Y8845D01*
X20634Y8846D01*
X20633Y8847D01*
X20630Y8848D01*
X20627Y8849D01*
X20626Y8849D01*
X20624Y8849D01*
X20621Y8849D01*
X20618Y8850D01*
X20616Y8849D01*
X20614Y8849D01*
X20611Y8848D01*
X20609Y8847D01*
X20607Y8846D01*
X20605Y8846D01*
X20603Y8844D01*
X20601Y8842D01*
X20599Y8841D01*
X20598Y8840D01*
X20596Y8837D01*
X20595Y8835D01*
X20594Y8833D01*
X20593Y8831D01*
X20592Y8829D01*
X20591Y8826D01*
X20591Y8823D01*
X20591Y8822D01*
X20591Y8820D01*
X20591Y8440D01*
X20591Y8436D01*
X20592Y8432D01*
X20592Y8431D01*
X20592Y8430D01*
X20594Y8427D01*
X20596Y8423D01*
X20597Y8422D01*
X20597Y8421D01*
X20599Y8419D01*
X20690Y8329D01*
X20690Y8171D01*
X20579Y8060D01*
X20421Y8060D01*
G37*
%LPD*%
%LPC*%
G36*
X27721Y3510D02*
X27721Y3510D01*
X27610Y3621D01*
X27610Y3779D01*
X27701Y3869D01*
X27703Y3872D01*
X27705Y3875D01*
X27706Y3876D01*
X27706Y3877D01*
X27707Y3880D01*
X27709Y3884D01*
X27709Y3885D01*
X27709Y3886D01*
X27709Y3887D01*
X27709Y3890D01*
X27709Y5538D01*
X28701Y6529D01*
X28703Y6532D01*
X28705Y6534D01*
X28705Y6536D01*
X28707Y6537D01*
X28707Y6540D01*
X28709Y6543D01*
X28709Y6544D01*
X28709Y6546D01*
X28709Y6549D01*
X28709Y6552D01*
X28709Y6554D01*
X28709Y6556D01*
X28708Y6559D01*
X28707Y6561D01*
X28706Y6563D01*
X28706Y6565D01*
X28704Y6567D01*
X28702Y6569D01*
X28701Y6571D01*
X28699Y6572D01*
X28697Y6574D01*
X28695Y6575D01*
X28693Y6576D01*
X28691Y6577D01*
X28688Y6578D01*
X28686Y6579D01*
X28683Y6579D01*
X28682Y6579D01*
X28681Y6579D01*
X28680Y6579D01*
X28062Y6579D01*
X28058Y6579D01*
X28054Y6578D01*
X28053Y6578D01*
X28049Y6576D01*
X28046Y6574D01*
X28045Y6573D01*
X28044Y6573D01*
X28041Y6571D01*
X27550Y6079D01*
X20250Y6079D01*
X20226Y6103D01*
X20223Y6106D01*
X20220Y6108D01*
X20219Y6108D01*
X20218Y6109D01*
X20214Y6110D01*
X20211Y6111D01*
X20209Y6112D01*
X20208Y6112D01*
X20205Y6112D01*
X12715Y6112D01*
X9512Y9316D01*
X9512Y15136D01*
X9512Y15137D01*
X9511Y15138D01*
X9511Y15140D01*
X9511Y15144D01*
X9510Y15145D01*
X9510Y15146D01*
X9508Y15149D01*
X9507Y15153D01*
X9506Y15154D01*
X9505Y15155D01*
X9503Y15157D01*
X9458Y15202D01*
X9454Y15205D01*
X9451Y15207D01*
X9451Y15208D01*
X9450Y15208D01*
X9446Y15209D01*
X9442Y15211D01*
X9441Y15211D01*
X9440Y15211D01*
X9437Y15211D01*
X5452Y15211D01*
X5451Y15211D01*
X5450Y15211D01*
X5446Y15210D01*
X5442Y15209D01*
X5441Y15209D01*
X5440Y15209D01*
X5437Y15207D01*
X5434Y15205D01*
X5433Y15204D01*
X5432Y15204D01*
X5430Y15201D01*
X5427Y15198D01*
X5427Y15197D01*
X5426Y15196D01*
X5425Y15193D01*
X5423Y15189D01*
X5423Y15188D01*
X5423Y15187D01*
X5422Y15182D01*
X5422Y15153D01*
X5311Y15042D01*
X5154Y15042D01*
X5043Y15153D01*
X5043Y15310D01*
X5154Y15421D01*
X5240Y15421D01*
X5243Y15422D01*
X5247Y15423D01*
X5248Y15423D01*
X5249Y15423D01*
X5253Y15425D01*
X5256Y15427D01*
X5257Y15427D01*
X5257Y15428D01*
X5258Y15428D01*
X5260Y15430D01*
X5283Y15453D01*
X9549Y15453D01*
X9753Y15248D01*
X9753Y9428D01*
X9754Y9424D01*
X9754Y9420D01*
X9755Y9419D01*
X9755Y9418D01*
X9757Y9415D01*
X9758Y9411D01*
X9759Y9410D01*
X9760Y9409D01*
X9762Y9407D01*
X12807Y6362D01*
X12810Y6360D01*
X12813Y6357D01*
X12814Y6357D01*
X12815Y6356D01*
X12818Y6355D01*
X12822Y6354D01*
X12823Y6354D01*
X12824Y6354D01*
X12825Y6354D01*
X12828Y6353D01*
X20317Y6353D01*
X20341Y6329D01*
X20345Y6327D01*
X20348Y6325D01*
X20349Y6324D01*
X20353Y6323D01*
X20357Y6321D01*
X20358Y6321D01*
X20359Y6321D01*
X20362Y6321D01*
X27438Y6321D01*
X27442Y6321D01*
X27446Y6322D01*
X27447Y6322D01*
X27451Y6324D01*
X27454Y6326D01*
X27455Y6327D01*
X27456Y6327D01*
X27459Y6329D01*
X27950Y6821D01*
X29738Y6821D01*
X29742Y6821D01*
X29746Y6822D01*
X29747Y6822D01*
X29751Y6824D01*
X29754Y6826D01*
X29755Y6827D01*
X29756Y6827D01*
X29759Y6829D01*
X30050Y7121D01*
X30738Y7121D01*
X30742Y7121D01*
X30746Y7122D01*
X30747Y7122D01*
X30751Y7124D01*
X30754Y7126D01*
X30755Y7127D01*
X30756Y7127D01*
X30759Y7129D01*
X31271Y7641D01*
X31273Y7645D01*
X31275Y7648D01*
X31276Y7649D01*
X31277Y7653D01*
X31279Y7657D01*
X31279Y7658D01*
X31279Y7659D01*
X31279Y7662D01*
X31279Y8620D01*
X32701Y10041D01*
X32703Y10045D01*
X32706Y10048D01*
X32706Y10049D01*
X32707Y10053D01*
X32709Y10057D01*
X32709Y10058D01*
X32709Y10059D01*
X32709Y10062D01*
X32709Y12782D01*
X33381Y13453D01*
X33383Y13457D01*
X33386Y13460D01*
X33386Y13461D01*
X33387Y13465D01*
X33389Y13469D01*
X33389Y13470D01*
X33389Y13471D01*
X33389Y13474D01*
X33389Y13490D01*
X33472Y13573D01*
X33778Y13573D01*
X33783Y13574D01*
X33788Y13574D01*
X33792Y13577D01*
X33796Y13579D01*
X33799Y13582D01*
X33803Y13586D01*
X33805Y13591D01*
X33824Y13636D01*
X33926Y13738D01*
X34058Y13793D01*
X34802Y13793D01*
X34934Y13738D01*
X35036Y13636D01*
X35091Y13504D01*
X35091Y13360D01*
X35036Y13228D01*
X34934Y13126D01*
X34802Y13071D01*
X34058Y13071D01*
X33926Y13126D01*
X33824Y13228D01*
X33805Y13273D01*
X33803Y13277D01*
X33800Y13281D01*
X33800Y13282D01*
X33796Y13284D01*
X33793Y13287D01*
X33793Y13288D01*
X33788Y13289D01*
X33784Y13291D01*
X33778Y13291D01*
X33572Y13291D01*
X33568Y13291D01*
X33564Y13290D01*
X33563Y13290D01*
X33559Y13288D01*
X33556Y13286D01*
X33555Y13285D01*
X33554Y13285D01*
X33551Y13283D01*
X32959Y12691D01*
X32957Y12687D01*
X32955Y12684D01*
X32954Y12684D01*
X32954Y12683D01*
X32953Y12679D01*
X32951Y12675D01*
X32951Y12674D01*
X32951Y12673D01*
X32951Y12670D01*
X32951Y9950D01*
X31529Y8528D01*
X31527Y8525D01*
X31525Y8522D01*
X31524Y8521D01*
X31523Y8517D01*
X31521Y8513D01*
X31521Y8512D01*
X31521Y8511D01*
X31521Y8508D01*
X31521Y7550D01*
X30850Y6879D01*
X30162Y6879D01*
X30158Y6879D01*
X30154Y6878D01*
X30153Y6878D01*
X30149Y6876D01*
X30146Y6874D01*
X30145Y6873D01*
X30144Y6873D01*
X30141Y6871D01*
X29911Y6641D01*
X29910Y6638D01*
X29908Y6636D01*
X29907Y6634D01*
X29906Y6633D01*
X29905Y6630D01*
X29904Y6627D01*
X29904Y6626D01*
X29903Y6624D01*
X29903Y6621D01*
X29903Y6618D01*
X29903Y6616D01*
X29903Y6614D01*
X29905Y6611D01*
X29905Y6609D01*
X29906Y6607D01*
X29907Y6605D01*
X29909Y6603D01*
X29910Y6601D01*
X29912Y6599D01*
X29913Y6598D01*
X29915Y6596D01*
X29918Y6595D01*
X29920Y6594D01*
X29921Y6593D01*
X29924Y6592D01*
X29927Y6591D01*
X29930Y6591D01*
X29931Y6591D01*
X29932Y6591D01*
X30310Y6591D01*
X30314Y6591D01*
X30318Y6592D01*
X30319Y6592D01*
X30320Y6592D01*
X30323Y6594D01*
X30327Y6596D01*
X30328Y6597D01*
X30329Y6597D01*
X30331Y6599D01*
X30421Y6690D01*
X30579Y6690D01*
X30690Y6579D01*
X30690Y6421D01*
X30579Y6310D01*
X30421Y6310D01*
X30331Y6401D01*
X30328Y6403D01*
X30325Y6405D01*
X30324Y6406D01*
X30323Y6406D01*
X30320Y6407D01*
X30316Y6409D01*
X30315Y6409D01*
X30314Y6409D01*
X30313Y6409D01*
X30310Y6409D01*
X28850Y6409D01*
X28846Y6409D01*
X28842Y6408D01*
X28841Y6408D01*
X28840Y6408D01*
X28837Y6406D01*
X28833Y6404D01*
X28832Y6403D01*
X28831Y6403D01*
X28829Y6401D01*
X27899Y5471D01*
X27897Y5468D01*
X27895Y5465D01*
X27894Y5464D01*
X27894Y5463D01*
X27893Y5459D01*
X27891Y5456D01*
X27891Y5455D01*
X27891Y5454D01*
X27891Y5453D01*
X27891Y5450D01*
X27891Y3890D01*
X27891Y3886D01*
X27892Y3882D01*
X27892Y3881D01*
X27892Y3880D01*
X27894Y3877D01*
X27896Y3873D01*
X27897Y3872D01*
X27897Y3871D01*
X27899Y3869D01*
X27990Y3779D01*
X27990Y3621D01*
X27879Y3510D01*
X27721Y3510D01*
G37*
%LPD*%
%LPC*%
G36*
X392Y4269D02*
X392Y4269D01*
X286Y4375D01*
X286Y4410D01*
X286Y4411D01*
X286Y4412D01*
X285Y4415D01*
X284Y4419D01*
X284Y4420D01*
X284Y4421D01*
X282Y4424D01*
X280Y4427D01*
X279Y4428D01*
X278Y4429D01*
X276Y4431D01*
X273Y4434D01*
X272Y4434D01*
X271Y4435D01*
X267Y4436D01*
X264Y4438D01*
X263Y4438D01*
X262Y4438D01*
X257Y4439D01*
X195Y4439D01*
X139Y4495D01*
X139Y14465D01*
X1900Y16226D01*
X5321Y16226D01*
X5325Y16226D01*
X5329Y16227D01*
X5330Y16227D01*
X5334Y16229D01*
X5337Y16231D01*
X5338Y16232D01*
X5339Y16232D01*
X5339Y16233D01*
X5341Y16234D01*
X5530Y16423D01*
X5532Y16426D01*
X5535Y16429D01*
X5535Y16430D01*
X5536Y16431D01*
X5537Y16435D01*
X5538Y16438D01*
X5538Y16439D01*
X5538Y16440D01*
X5538Y16441D01*
X5539Y16444D01*
X5539Y16613D01*
X5538Y16617D01*
X5538Y16621D01*
X5537Y16622D01*
X5537Y16623D01*
X5535Y16626D01*
X5534Y16630D01*
X5533Y16631D01*
X5532Y16632D01*
X5530Y16634D01*
X5120Y17044D01*
X5117Y17046D01*
X5114Y17049D01*
X5113Y17049D01*
X5112Y17050D01*
X5108Y17051D01*
X5105Y17052D01*
X5104Y17052D01*
X5103Y17052D01*
X5102Y17052D01*
X5099Y17053D01*
X5067Y17053D01*
X4856Y17264D01*
X4856Y17563D01*
X5067Y17774D01*
X5366Y17774D01*
X5577Y17563D01*
X5577Y17264D01*
X5395Y17081D01*
X5394Y17081D01*
X5393Y17080D01*
X5391Y17077D01*
X5389Y17074D01*
X5389Y17073D01*
X5388Y17072D01*
X5388Y17068D01*
X5386Y17065D01*
X5386Y17063D01*
X5386Y17062D01*
X5387Y17059D01*
X5387Y17055D01*
X5387Y17054D01*
X5387Y17053D01*
X5389Y17050D01*
X5390Y17046D01*
X5391Y17045D01*
X5391Y17044D01*
X5395Y17040D01*
X5695Y16739D01*
X5696Y16739D01*
X5697Y16738D01*
X5700Y16736D01*
X5703Y16734D01*
X5704Y16734D01*
X5705Y16733D01*
X5709Y16732D01*
X5712Y16731D01*
X5713Y16731D01*
X5714Y16731D01*
X5718Y16731D01*
X5722Y16731D01*
X5723Y16732D01*
X5724Y16732D01*
X5727Y16734D01*
X5731Y16735D01*
X5732Y16736D01*
X5733Y16736D01*
X5737Y16739D01*
X6038Y17041D01*
X6039Y17042D01*
X6041Y17045D01*
X6043Y17048D01*
X6044Y17049D01*
X6044Y17050D01*
X6045Y17054D01*
X6046Y17057D01*
X6046Y17059D01*
X6046Y17060D01*
X6046Y17063D01*
X6046Y17067D01*
X6045Y17068D01*
X6045Y17069D01*
X6044Y17072D01*
X6042Y17076D01*
X6042Y17077D01*
X6041Y17078D01*
X6038Y17082D01*
X5856Y17264D01*
X5856Y17563D01*
X6067Y17774D01*
X6366Y17774D01*
X6577Y17563D01*
X6577Y17264D01*
X6366Y17053D01*
X6333Y17053D01*
X6329Y17052D01*
X6325Y17052D01*
X6324Y17051D01*
X6323Y17051D01*
X6320Y17049D01*
X6316Y17048D01*
X6316Y17047D01*
X6315Y17047D01*
X6314Y17046D01*
X6312Y17044D01*
X5869Y16601D01*
X5866Y16597D01*
X5864Y16594D01*
X5864Y16593D01*
X5863Y16593D01*
X5862Y16589D01*
X5861Y16585D01*
X5861Y16584D01*
X5860Y16584D01*
X5860Y16583D01*
X5860Y16580D01*
X5860Y16298D01*
X5466Y15904D01*
X2045Y15904D01*
X2041Y15904D01*
X2037Y15903D01*
X2036Y15903D01*
X2032Y15901D01*
X2029Y15899D01*
X2028Y15898D01*
X2027Y15898D01*
X2024Y15896D01*
X469Y14341D01*
X467Y14337D01*
X464Y14334D01*
X464Y14333D01*
X463Y14329D01*
X461Y14325D01*
X461Y14324D01*
X461Y14323D01*
X461Y14320D01*
X461Y4960D01*
X461Y4958D01*
X461Y4957D01*
X462Y4954D01*
X462Y4950D01*
X463Y4949D01*
X463Y4948D01*
X465Y4945D01*
X467Y4942D01*
X468Y4941D01*
X468Y4940D01*
X471Y4938D01*
X474Y4935D01*
X475Y4935D01*
X476Y4934D01*
X479Y4933D01*
X483Y4931D01*
X484Y4931D01*
X485Y4931D01*
X490Y4930D01*
X541Y4930D01*
X647Y4824D01*
X647Y4675D01*
X593Y4620D01*
X592Y4619D01*
X591Y4619D01*
X590Y4615D01*
X587Y4612D01*
X587Y4611D01*
X586Y4611D01*
X586Y4607D01*
X585Y4603D01*
X585Y4602D01*
X584Y4601D01*
X585Y4597D01*
X585Y4594D01*
X585Y4593D01*
X585Y4592D01*
X587Y4588D01*
X588Y4585D01*
X589Y4584D01*
X589Y4583D01*
X593Y4579D01*
X647Y4524D01*
X647Y4375D01*
X541Y4269D01*
X392Y4269D01*
G37*
%LPD*%
%LPC*%
G36*
X19921Y8310D02*
X19921Y8310D01*
X19810Y8421D01*
X19810Y8579D01*
X19921Y8690D01*
X20049Y8690D01*
X20053Y8690D01*
X20057Y8691D01*
X20058Y8691D01*
X20059Y8691D01*
X20062Y8693D01*
X20066Y8695D01*
X20067Y8695D01*
X20067Y8696D01*
X20068Y8696D01*
X20070Y8698D01*
X20151Y8779D01*
X20153Y8782D01*
X20155Y8785D01*
X20156Y8786D01*
X20156Y8787D01*
X20157Y8791D01*
X20159Y8794D01*
X20159Y8795D01*
X20159Y8796D01*
X20159Y8797D01*
X20159Y8800D01*
X20159Y10630D01*
X20159Y10631D01*
X20159Y10632D01*
X20158Y10636D01*
X20158Y10639D01*
X20157Y10640D01*
X20157Y10641D01*
X20155Y10645D01*
X20153Y10648D01*
X20152Y10649D01*
X20149Y10652D01*
X20146Y10654D01*
X20145Y10655D01*
X20144Y10655D01*
X20141Y10657D01*
X20137Y10658D01*
X20136Y10658D01*
X20135Y10659D01*
X20130Y10659D01*
X12212Y10659D01*
X11126Y11746D01*
X11126Y17023D01*
X11126Y17024D01*
X11126Y17025D01*
X11125Y17029D01*
X11124Y17033D01*
X11124Y17034D01*
X11123Y17035D01*
X11121Y17038D01*
X11120Y17041D01*
X11119Y17042D01*
X11118Y17043D01*
X11115Y17045D01*
X11113Y17048D01*
X11112Y17048D01*
X11111Y17049D01*
X11107Y17050D01*
X11104Y17052D01*
X11103Y17052D01*
X11102Y17052D01*
X11097Y17053D01*
X11067Y17053D01*
X10891Y17229D01*
X10888Y17231D01*
X10886Y17233D01*
X10884Y17234D01*
X10883Y17235D01*
X10880Y17235D01*
X10877Y17237D01*
X10876Y17237D01*
X10874Y17237D01*
X10871Y17237D01*
X10868Y17238D01*
X10866Y17237D01*
X10864Y17237D01*
X10861Y17236D01*
X10859Y17235D01*
X10857Y17234D01*
X10855Y17234D01*
X10853Y17232D01*
X10851Y17230D01*
X10849Y17229D01*
X10848Y17228D01*
X10846Y17225D01*
X10845Y17223D01*
X10844Y17221D01*
X10843Y17219D01*
X10842Y17217D01*
X10841Y17214D01*
X10841Y17211D01*
X10841Y17210D01*
X10841Y17208D01*
X10841Y13190D01*
X10841Y13186D01*
X10842Y13182D01*
X10842Y13181D01*
X10842Y13180D01*
X10844Y13177D01*
X10846Y13173D01*
X10847Y13172D01*
X10847Y13171D01*
X10849Y13169D01*
X10940Y13079D01*
X10940Y12921D01*
X10829Y12810D01*
X10671Y12810D01*
X10560Y12921D01*
X10560Y13079D01*
X10651Y13169D01*
X10653Y13172D01*
X10655Y13175D01*
X10656Y13176D01*
X10656Y13177D01*
X10657Y13180D01*
X10659Y13184D01*
X10659Y13185D01*
X10659Y13186D01*
X10659Y13187D01*
X10659Y13190D01*
X10659Y18038D01*
X10850Y18228D01*
X10851Y18229D01*
X10851Y18230D01*
X10853Y18233D01*
X10856Y18236D01*
X10856Y18237D01*
X10856Y18238D01*
X10857Y18242D01*
X10858Y18245D01*
X10858Y18246D01*
X10859Y18247D01*
X10858Y18251D01*
X10858Y18255D01*
X10858Y18256D01*
X10858Y18257D01*
X10856Y18260D01*
X10856Y18261D01*
X10856Y18563D01*
X11067Y18774D01*
X11366Y18774D01*
X11577Y18563D01*
X11577Y18264D01*
X11366Y18053D01*
X11067Y18053D01*
X11020Y18100D01*
X11019Y18101D01*
X11018Y18101D01*
X11015Y18103D01*
X11012Y18106D01*
X11011Y18106D01*
X11010Y18106D01*
X11006Y18107D01*
X11003Y18108D01*
X11002Y18108D01*
X11001Y18109D01*
X10997Y18108D01*
X10993Y18108D01*
X10992Y18108D01*
X10991Y18108D01*
X10988Y18106D01*
X10984Y18105D01*
X10983Y18104D01*
X10983Y18103D01*
X10978Y18100D01*
X10849Y17971D01*
X10847Y17968D01*
X10845Y17965D01*
X10844Y17964D01*
X10844Y17963D01*
X10843Y17959D01*
X10841Y17956D01*
X10841Y17955D01*
X10841Y17954D01*
X10841Y17953D01*
X10841Y17950D01*
X10841Y17618D01*
X10841Y17616D01*
X10841Y17613D01*
X10842Y17611D01*
X10842Y17609D01*
X10844Y17606D01*
X10845Y17604D01*
X10846Y17602D01*
X10847Y17601D01*
X10849Y17599D01*
X10851Y17596D01*
X10852Y17595D01*
X10854Y17594D01*
X10857Y17593D01*
X10859Y17591D01*
X10861Y17591D01*
X10863Y17590D01*
X10865Y17590D01*
X10868Y17589D01*
X10870Y17589D01*
X10872Y17589D01*
X10875Y17590D01*
X10878Y17590D01*
X10880Y17591D01*
X10881Y17591D01*
X10884Y17593D01*
X10887Y17594D01*
X10889Y17596D01*
X10889Y17597D01*
X10890Y17597D01*
X10891Y17598D01*
X11067Y17774D01*
X11366Y17774D01*
X11577Y17563D01*
X11577Y17264D01*
X11366Y17053D01*
X11337Y17053D01*
X11335Y17052D01*
X11334Y17053D01*
X11331Y17052D01*
X11327Y17051D01*
X11326Y17051D01*
X11325Y17050D01*
X11322Y17048D01*
X11319Y17047D01*
X11318Y17046D01*
X11317Y17045D01*
X11315Y17042D01*
X11312Y17040D01*
X11312Y17039D01*
X11311Y17038D01*
X11310Y17034D01*
X11308Y17031D01*
X11308Y17030D01*
X11308Y17029D01*
X11307Y17023D01*
X11307Y11833D01*
X11308Y11829D01*
X11308Y11825D01*
X11309Y11825D01*
X11309Y11824D01*
X11311Y11820D01*
X11312Y11817D01*
X11313Y11816D01*
X11313Y11815D01*
X11314Y11815D01*
X11316Y11812D01*
X12279Y10849D01*
X12282Y10847D01*
X12285Y10845D01*
X12286Y10844D01*
X12287Y10844D01*
X12291Y10843D01*
X12294Y10841D01*
X12295Y10841D01*
X12296Y10841D01*
X12297Y10841D01*
X12300Y10841D01*
X20288Y10841D01*
X20341Y10788D01*
X20341Y8712D01*
X20198Y8570D01*
X20196Y8567D01*
X20193Y8564D01*
X20193Y8563D01*
X20193Y8562D01*
X20192Y8558D01*
X20190Y8555D01*
X20190Y8553D01*
X20190Y8552D01*
X20190Y8549D01*
X20190Y8421D01*
X20079Y8310D01*
X19921Y8310D01*
G37*
%LPD*%
%LPC*%
G36*
X1742Y6269D02*
X1742Y6269D01*
X1636Y6374D01*
X1636Y6382D01*
X1636Y6383D01*
X1636Y6384D01*
X1635Y6388D01*
X1634Y6392D01*
X1634Y6393D01*
X1633Y6394D01*
X1631Y6397D01*
X1630Y6400D01*
X1629Y6401D01*
X1628Y6402D01*
X1625Y6404D01*
X1623Y6407D01*
X1622Y6407D01*
X1621Y6408D01*
X1617Y6409D01*
X1614Y6410D01*
X1613Y6411D01*
X1612Y6411D01*
X1606Y6411D01*
X1448Y6411D01*
X1342Y6517D01*
X1342Y6667D01*
X1448Y6773D01*
X1598Y6773D01*
X1618Y6753D01*
X1619Y6752D01*
X1619Y6751D01*
X1623Y6749D01*
X1626Y6747D01*
X1627Y6747D01*
X1628Y6746D01*
X1631Y6746D01*
X1635Y6744D01*
X1636Y6745D01*
X1637Y6744D01*
X1641Y6745D01*
X1644Y6745D01*
X1645Y6745D01*
X1646Y6745D01*
X1650Y6747D01*
X1653Y6748D01*
X1654Y6749D01*
X1655Y6749D01*
X1659Y6753D01*
X1667Y6760D01*
X6721Y6760D01*
X6725Y6761D01*
X6728Y6761D01*
X6729Y6762D01*
X6730Y6762D01*
X6734Y6764D01*
X6737Y6765D01*
X6738Y6766D01*
X6739Y6767D01*
X6741Y6769D01*
X8778Y8805D01*
X8780Y8809D01*
X8783Y8812D01*
X8783Y8813D01*
X8784Y8813D01*
X8785Y8817D01*
X8786Y8821D01*
X8786Y8822D01*
X8786Y8823D01*
X8787Y8826D01*
X8787Y11627D01*
X8786Y11631D01*
X8786Y11635D01*
X8785Y11635D01*
X8785Y11636D01*
X8783Y11640D01*
X8782Y11643D01*
X8781Y11644D01*
X8781Y11645D01*
X8780Y11645D01*
X8778Y11648D01*
X8702Y11724D01*
X8702Y11874D01*
X8808Y11980D01*
X8957Y11980D01*
X9012Y11925D01*
X9013Y11925D01*
X9013Y11924D01*
X9016Y11922D01*
X9020Y11920D01*
X9021Y11919D01*
X9025Y11918D01*
X9029Y11917D01*
X9030Y11917D01*
X9031Y11917D01*
X9034Y11917D01*
X9038Y11917D01*
X9039Y11918D01*
X9040Y11918D01*
X9044Y11919D01*
X9047Y11921D01*
X9048Y11921D01*
X9049Y11922D01*
X9053Y11925D01*
X9108Y11980D01*
X9257Y11980D01*
X9363Y11874D01*
X9363Y11724D01*
X9287Y11648D01*
X9284Y11644D01*
X9282Y11641D01*
X9282Y11640D01*
X9281Y11640D01*
X9280Y11636D01*
X9279Y11632D01*
X9279Y11631D01*
X9278Y11631D01*
X9278Y11630D01*
X9278Y11627D01*
X9278Y8851D01*
X6866Y6439D01*
X2026Y6439D01*
X2025Y6438D01*
X2024Y6439D01*
X2021Y6438D01*
X2017Y6437D01*
X2016Y6437D01*
X2015Y6436D01*
X2012Y6434D01*
X2009Y6433D01*
X2008Y6432D01*
X2007Y6431D01*
X2005Y6428D01*
X2002Y6425D01*
X2001Y6424D01*
X2000Y6420D01*
X1998Y6417D01*
X1998Y6416D01*
X1998Y6415D01*
X1997Y6409D01*
X1997Y6374D01*
X1891Y6269D01*
X1742Y6269D01*
G37*
%LPD*%
%LPC*%
G36*
X24171Y8810D02*
X24171Y8810D01*
X24060Y8921D01*
X24060Y9079D01*
X24151Y9169D01*
X24153Y9172D01*
X24155Y9175D01*
X24156Y9176D01*
X24156Y9177D01*
X24157Y9180D01*
X24159Y9184D01*
X24159Y9185D01*
X24159Y9186D01*
X24159Y9187D01*
X24159Y9190D01*
X24159Y9570D01*
X24159Y9573D01*
X24159Y9576D01*
X24158Y9578D01*
X24158Y9580D01*
X24156Y9582D01*
X24155Y9585D01*
X24154Y9587D01*
X24153Y9588D01*
X24151Y9590D01*
X24149Y9593D01*
X24148Y9594D01*
X24146Y9595D01*
X24143Y9596D01*
X24141Y9598D01*
X24139Y9598D01*
X24137Y9599D01*
X24135Y9599D01*
X24132Y9600D01*
X24130Y9599D01*
X24128Y9600D01*
X24125Y9599D01*
X24122Y9599D01*
X24120Y9598D01*
X24119Y9597D01*
X24116Y9596D01*
X24113Y9595D01*
X24111Y9593D01*
X24111Y9592D01*
X24110Y9592D01*
X24109Y9591D01*
X24079Y9560D01*
X23921Y9560D01*
X23810Y9671D01*
X23810Y9829D01*
X23901Y9919D01*
X23903Y9922D01*
X23905Y9925D01*
X23906Y9926D01*
X23906Y9927D01*
X23907Y9930D01*
X23909Y9934D01*
X23909Y9935D01*
X23909Y9936D01*
X23909Y9937D01*
X23909Y9940D01*
X23909Y14580D01*
X23909Y14581D01*
X23909Y14583D01*
X23909Y14584D01*
X23908Y14588D01*
X23908Y14589D01*
X23908Y14590D01*
X23906Y14593D01*
X23904Y14597D01*
X23903Y14598D01*
X23903Y14599D01*
X23901Y14601D01*
X21428Y17073D01*
X21427Y17074D01*
X21427Y17075D01*
X21423Y17077D01*
X21420Y17079D01*
X21419Y17079D01*
X21418Y17080D01*
X21415Y17081D01*
X21411Y17082D01*
X21410Y17082D01*
X21409Y17082D01*
X21405Y17082D01*
X21402Y17081D01*
X21401Y17081D01*
X21400Y17081D01*
X21396Y17079D01*
X21393Y17078D01*
X21392Y17077D01*
X21391Y17077D01*
X21387Y17073D01*
X21366Y17053D01*
X21067Y17053D01*
X20856Y17264D01*
X20856Y17563D01*
X21067Y17774D01*
X21366Y17774D01*
X21577Y17563D01*
X21577Y17264D01*
X21556Y17243D01*
X21556Y17242D01*
X21555Y17242D01*
X21553Y17238D01*
X21551Y17235D01*
X21551Y17234D01*
X21550Y17233D01*
X21549Y17230D01*
X21548Y17226D01*
X21548Y17225D01*
X21548Y17224D01*
X21548Y17220D01*
X21548Y17217D01*
X21549Y17216D01*
X21549Y17215D01*
X21551Y17211D01*
X21552Y17208D01*
X21553Y17207D01*
X21553Y17206D01*
X21556Y17202D01*
X24029Y14729D01*
X24091Y14668D01*
X24091Y9940D01*
X24091Y9936D01*
X24092Y9932D01*
X24092Y9931D01*
X24092Y9930D01*
X24094Y9927D01*
X24096Y9923D01*
X24097Y9922D01*
X24097Y9921D01*
X24099Y9919D01*
X24109Y9909D01*
X24112Y9907D01*
X24114Y9905D01*
X24116Y9904D01*
X24117Y9903D01*
X24120Y9902D01*
X24123Y9901D01*
X24124Y9901D01*
X24126Y9901D01*
X24129Y9901D01*
X24132Y9900D01*
X24134Y9901D01*
X24136Y9901D01*
X24139Y9902D01*
X24141Y9903D01*
X24143Y9904D01*
X24145Y9904D01*
X24147Y9906D01*
X24149Y9908D01*
X24151Y9909D01*
X24152Y9910D01*
X24154Y9913D01*
X24155Y9915D01*
X24156Y9917D01*
X24157Y9919D01*
X24158Y9921D01*
X24159Y9924D01*
X24159Y9927D01*
X24159Y9928D01*
X24159Y9930D01*
X24159Y15330D01*
X24159Y15334D01*
X24158Y15338D01*
X24158Y15339D01*
X24158Y15340D01*
X24156Y15343D01*
X24154Y15347D01*
X24153Y15348D01*
X24153Y15349D01*
X24151Y15351D01*
X22428Y17073D01*
X22427Y17074D01*
X22427Y17075D01*
X22423Y17077D01*
X22420Y17079D01*
X22419Y17079D01*
X22418Y17080D01*
X22415Y17081D01*
X22411Y17082D01*
X22410Y17082D01*
X22409Y17082D01*
X22405Y17082D01*
X22402Y17081D01*
X22401Y17081D01*
X22400Y17081D01*
X22396Y17079D01*
X22393Y17078D01*
X22392Y17077D01*
X22391Y17077D01*
X22387Y17073D01*
X22366Y17053D01*
X22067Y17053D01*
X21856Y17264D01*
X21856Y17563D01*
X22067Y17774D01*
X22366Y17774D01*
X22577Y17563D01*
X22577Y17264D01*
X22556Y17243D01*
X22556Y17242D01*
X22555Y17242D01*
X22553Y17238D01*
X22551Y17235D01*
X22551Y17234D01*
X22550Y17233D01*
X22549Y17230D01*
X22548Y17226D01*
X22548Y17225D01*
X22548Y17224D01*
X22548Y17220D01*
X22548Y17217D01*
X22549Y17216D01*
X22549Y17215D01*
X22551Y17211D01*
X22552Y17208D01*
X22553Y17207D01*
X22553Y17206D01*
X22556Y17202D01*
X24279Y15479D01*
X24341Y15418D01*
X24341Y9190D01*
X24341Y9186D01*
X24342Y9182D01*
X24342Y9181D01*
X24342Y9180D01*
X24344Y9177D01*
X24346Y9173D01*
X24347Y9172D01*
X24347Y9171D01*
X24349Y9169D01*
X24440Y9079D01*
X24440Y8921D01*
X24329Y8810D01*
X24171Y8810D01*
G37*
%LPD*%
%LPC*%
G36*
X21171Y8810D02*
X21171Y8810D01*
X21060Y8921D01*
X21060Y9079D01*
X21151Y9169D01*
X21153Y9172D01*
X21155Y9175D01*
X21156Y9176D01*
X21156Y9177D01*
X21157Y9180D01*
X21159Y9184D01*
X21159Y9185D01*
X21159Y9186D01*
X21159Y9187D01*
X21159Y9190D01*
X21159Y11380D01*
X21159Y11381D01*
X21159Y11382D01*
X21158Y11386D01*
X21158Y11389D01*
X21157Y11390D01*
X21157Y11391D01*
X21155Y11395D01*
X21153Y11398D01*
X21152Y11399D01*
X21149Y11402D01*
X21146Y11404D01*
X21145Y11405D01*
X21144Y11405D01*
X21141Y11407D01*
X21137Y11408D01*
X21136Y11408D01*
X21135Y11409D01*
X21130Y11409D01*
X13962Y11409D01*
X13901Y11471D01*
X13721Y11651D01*
X13659Y11712D01*
X13659Y16984D01*
X13721Y17046D01*
X13877Y17202D01*
X13877Y17203D01*
X13878Y17203D01*
X13880Y17207D01*
X13882Y17210D01*
X13882Y17211D01*
X13883Y17211D01*
X13884Y17215D01*
X13885Y17219D01*
X13885Y17220D01*
X13885Y17221D01*
X13885Y17225D01*
X13885Y17228D01*
X13884Y17229D01*
X13884Y17230D01*
X13883Y17234D01*
X13881Y17237D01*
X13880Y17238D01*
X13880Y17239D01*
X13877Y17243D01*
X13856Y17264D01*
X13856Y17563D01*
X14067Y17774D01*
X14366Y17774D01*
X14577Y17563D01*
X14577Y17264D01*
X14366Y17053D01*
X14067Y17053D01*
X14046Y17073D01*
X14045Y17074D01*
X14045Y17075D01*
X14042Y17077D01*
X14039Y17079D01*
X14038Y17079D01*
X14037Y17080D01*
X14033Y17081D01*
X14029Y17082D01*
X14028Y17082D01*
X14027Y17082D01*
X14024Y17082D01*
X14020Y17081D01*
X14019Y17081D01*
X14018Y17081D01*
X14014Y17079D01*
X14011Y17078D01*
X14010Y17077D01*
X14009Y17077D01*
X14005Y17073D01*
X13849Y16918D01*
X13847Y16915D01*
X13845Y16912D01*
X13844Y16911D01*
X13844Y16910D01*
X13843Y16906D01*
X13841Y16903D01*
X13841Y16901D01*
X13841Y16900D01*
X13841Y16897D01*
X13841Y11800D01*
X13841Y11799D01*
X13841Y11798D01*
X13841Y11797D01*
X13841Y11796D01*
X13842Y11792D01*
X13842Y11791D01*
X13842Y11790D01*
X13844Y11787D01*
X13846Y11783D01*
X13847Y11782D01*
X13847Y11781D01*
X13849Y11779D01*
X14029Y11599D01*
X14032Y11597D01*
X14035Y11595D01*
X14036Y11594D01*
X14037Y11594D01*
X14041Y11593D01*
X14044Y11591D01*
X14045Y11591D01*
X14046Y11591D01*
X14047Y11591D01*
X14050Y11591D01*
X21288Y11591D01*
X21341Y11538D01*
X21341Y9190D01*
X21341Y9186D01*
X21342Y9182D01*
X21342Y9181D01*
X21342Y9180D01*
X21344Y9177D01*
X21346Y9173D01*
X21347Y9172D01*
X21347Y9171D01*
X21349Y9169D01*
X21440Y9079D01*
X21440Y8921D01*
X21329Y8810D01*
X21171Y8810D01*
G37*
%LPD*%
%LPC*%
G36*
X21671Y9560D02*
X21671Y9560D01*
X21560Y9671D01*
X21560Y9829D01*
X21651Y9919D01*
X21653Y9922D01*
X21655Y9925D01*
X21656Y9926D01*
X21656Y9927D01*
X21657Y9930D01*
X21659Y9934D01*
X21659Y9935D01*
X21659Y9936D01*
X21659Y9937D01*
X21659Y9940D01*
X21659Y11630D01*
X21659Y11631D01*
X21659Y11632D01*
X21658Y11636D01*
X21658Y11639D01*
X21657Y11640D01*
X21657Y11641D01*
X21655Y11645D01*
X21653Y11648D01*
X21652Y11649D01*
X21649Y11652D01*
X21646Y11654D01*
X21645Y11655D01*
X21644Y11655D01*
X21641Y11657D01*
X21637Y11658D01*
X21636Y11658D01*
X21635Y11659D01*
X21630Y11659D01*
X14462Y11659D01*
X14159Y11962D01*
X14159Y16538D01*
X14212Y16591D01*
X14950Y16591D01*
X14954Y16591D01*
X14958Y16592D01*
X14959Y16592D01*
X14960Y16592D01*
X14963Y16594D01*
X14967Y16596D01*
X14968Y16597D01*
X14969Y16597D01*
X14971Y16599D01*
X15117Y16746D01*
X15120Y16749D01*
X15122Y16752D01*
X15122Y16753D01*
X15123Y16753D01*
X15124Y16757D01*
X15125Y16761D01*
X15125Y16762D01*
X15126Y16762D01*
X15126Y16763D01*
X15126Y16766D01*
X15126Y17023D01*
X15126Y17024D01*
X15126Y17025D01*
X15125Y17029D01*
X15124Y17033D01*
X15124Y17034D01*
X15123Y17035D01*
X15121Y17038D01*
X15120Y17041D01*
X15119Y17042D01*
X15118Y17043D01*
X15115Y17045D01*
X15113Y17048D01*
X15112Y17048D01*
X15111Y17049D01*
X15107Y17050D01*
X15104Y17052D01*
X15103Y17052D01*
X15102Y17052D01*
X15097Y17053D01*
X15067Y17053D01*
X14856Y17264D01*
X14856Y17563D01*
X15067Y17774D01*
X15366Y17774D01*
X15577Y17563D01*
X15577Y17264D01*
X15366Y17053D01*
X15337Y17053D01*
X15335Y17052D01*
X15334Y17053D01*
X15331Y17052D01*
X15327Y17051D01*
X15326Y17051D01*
X15325Y17050D01*
X15322Y17048D01*
X15319Y17047D01*
X15318Y17046D01*
X15317Y17045D01*
X15315Y17042D01*
X15312Y17040D01*
X15312Y17039D01*
X15311Y17038D01*
X15310Y17034D01*
X15308Y17031D01*
X15308Y17030D01*
X15308Y17029D01*
X15307Y17023D01*
X15307Y16679D01*
X15038Y16409D01*
X14370Y16409D01*
X14369Y16409D01*
X14368Y16409D01*
X14364Y16408D01*
X14361Y16408D01*
X14360Y16407D01*
X14359Y16407D01*
X14355Y16405D01*
X14352Y16403D01*
X14351Y16402D01*
X14348Y16399D01*
X14346Y16396D01*
X14345Y16395D01*
X14345Y16394D01*
X14343Y16391D01*
X14342Y16387D01*
X14342Y16386D01*
X14341Y16385D01*
X14341Y16380D01*
X14341Y12050D01*
X14341Y12046D01*
X14342Y12042D01*
X14342Y12041D01*
X14342Y12040D01*
X14344Y12037D01*
X14346Y12033D01*
X14347Y12032D01*
X14347Y12031D01*
X14349Y12029D01*
X14529Y11849D01*
X14532Y11847D01*
X14535Y11845D01*
X14536Y11844D01*
X14537Y11844D01*
X14541Y11843D01*
X14544Y11841D01*
X14545Y11841D01*
X14546Y11841D01*
X14547Y11841D01*
X14550Y11841D01*
X21788Y11841D01*
X21841Y11788D01*
X21841Y9940D01*
X21841Y9936D01*
X21842Y9932D01*
X21842Y9931D01*
X21842Y9930D01*
X21844Y9927D01*
X21846Y9923D01*
X21847Y9922D01*
X21847Y9921D01*
X21849Y9919D01*
X21940Y9829D01*
X21940Y9671D01*
X21829Y9560D01*
X21671Y9560D01*
G37*
%LPD*%
%LPC*%
G36*
X19671Y9810D02*
X19671Y9810D01*
X19581Y9901D01*
X19578Y9903D01*
X19575Y9905D01*
X19574Y9906D01*
X19573Y9906D01*
X19570Y9907D01*
X19566Y9909D01*
X19565Y9909D01*
X19564Y9909D01*
X19563Y9909D01*
X19560Y9909D01*
X12212Y9909D01*
X10126Y11996D01*
X10126Y17023D01*
X10126Y17024D01*
X10126Y17025D01*
X10125Y17029D01*
X10124Y17033D01*
X10124Y17034D01*
X10123Y17035D01*
X10121Y17038D01*
X10120Y17041D01*
X10119Y17042D01*
X10118Y17043D01*
X10115Y17045D01*
X10113Y17048D01*
X10112Y17048D01*
X10111Y17049D01*
X10107Y17050D01*
X10104Y17052D01*
X10103Y17052D01*
X10102Y17052D01*
X10097Y17053D01*
X10067Y17053D01*
X9856Y17264D01*
X9856Y17563D01*
X10067Y17774D01*
X10366Y17774D01*
X10577Y17563D01*
X10577Y17264D01*
X10366Y17053D01*
X10337Y17053D01*
X10335Y17052D01*
X10334Y17053D01*
X10331Y17052D01*
X10327Y17051D01*
X10326Y17051D01*
X10325Y17050D01*
X10322Y17048D01*
X10319Y17047D01*
X10318Y17046D01*
X10317Y17045D01*
X10315Y17042D01*
X10312Y17040D01*
X10312Y17039D01*
X10311Y17038D01*
X10310Y17034D01*
X10308Y17031D01*
X10308Y17030D01*
X10308Y17029D01*
X10307Y17023D01*
X10307Y12083D01*
X10308Y12079D01*
X10308Y12075D01*
X10309Y12075D01*
X10309Y12074D01*
X10311Y12070D01*
X10312Y12067D01*
X10313Y12066D01*
X10313Y12065D01*
X10314Y12065D01*
X10316Y12062D01*
X12279Y10099D01*
X12282Y10097D01*
X12285Y10095D01*
X12286Y10094D01*
X12287Y10094D01*
X12291Y10093D01*
X12294Y10091D01*
X12295Y10091D01*
X12296Y10091D01*
X12297Y10091D01*
X12300Y10091D01*
X19560Y10091D01*
X19564Y10091D01*
X19568Y10092D01*
X19569Y10092D01*
X19570Y10092D01*
X19573Y10094D01*
X19577Y10096D01*
X19578Y10097D01*
X19579Y10097D01*
X19581Y10099D01*
X19671Y10190D01*
X19829Y10190D01*
X19940Y10079D01*
X19940Y9921D01*
X19829Y9810D01*
X19671Y9810D01*
G37*
%LPD*%
%LPC*%
G36*
X-5224Y9737D02*
X-5224Y9737D01*
X-5330Y9842D01*
X-5330Y9992D01*
X-5259Y10064D01*
X-5257Y10067D01*
X-5254Y10070D01*
X-5254Y10071D01*
X-5253Y10071D01*
X-5252Y10075D01*
X-5251Y10079D01*
X-5251Y10080D01*
X-5251Y10081D01*
X-5250Y10084D01*
X-5250Y14176D01*
X-4183Y15242D01*
X-1026Y15242D01*
X-1022Y15243D01*
X-1018Y15244D01*
X-1017Y15244D01*
X-1013Y15246D01*
X-1010Y15248D01*
X-1009Y15248D01*
X-1008Y15249D01*
X-1006Y15251D01*
X1320Y17576D01*
X1322Y17580D01*
X1325Y17583D01*
X1325Y17584D01*
X1327Y17588D01*
X1328Y17592D01*
X1328Y17593D01*
X1328Y17594D01*
X1328Y17597D01*
X1328Y17750D01*
X1387Y17809D01*
X1467Y17809D01*
X1471Y17810D01*
X1475Y17810D01*
X1475Y17811D01*
X1476Y17811D01*
X1480Y17813D01*
X1483Y17815D01*
X1484Y17815D01*
X1485Y17815D01*
X1485Y17816D01*
X1488Y17818D01*
X1559Y17889D01*
X1709Y17889D01*
X1815Y17784D01*
X1815Y17634D01*
X1709Y17528D01*
X1559Y17528D01*
X1558Y17528D01*
X1557Y17528D01*
X1553Y17527D01*
X1550Y17526D01*
X1549Y17526D01*
X1548Y17526D01*
X1545Y17524D01*
X1541Y17522D01*
X1541Y17521D01*
X1540Y17520D01*
X1537Y17518D01*
X1535Y17515D01*
X1534Y17514D01*
X1534Y17513D01*
X1532Y17510D01*
X1531Y17506D01*
X1531Y17505D01*
X1530Y17504D01*
X1530Y17502D01*
X1462Y17434D01*
X-931Y15041D01*
X-4088Y15041D01*
X-4092Y15040D01*
X-4096Y15040D01*
X-4097Y15039D01*
X-4101Y15038D01*
X-4104Y15036D01*
X-4105Y15035D01*
X-4106Y15035D01*
X-4106Y15034D01*
X-4109Y15032D01*
X-5040Y14101D01*
X-5043Y14097D01*
X-5045Y14094D01*
X-5046Y14093D01*
X-5047Y14089D01*
X-5048Y14085D01*
X-5048Y14084D01*
X-5049Y14084D01*
X-5049Y14083D01*
X-5049Y14080D01*
X-5049Y10663D01*
X-5048Y10659D01*
X-5048Y10655D01*
X-5047Y10655D01*
X-5047Y10654D01*
X-5045Y10650D01*
X-5044Y10647D01*
X-5043Y10646D01*
X-5043Y10645D01*
X-5042Y10645D01*
X-5040Y10643D01*
X-4987Y10589D01*
X-4984Y10587D01*
X-4980Y10584D01*
X-4979Y10583D01*
X-4975Y10582D01*
X-4971Y10581D01*
X-4970Y10581D01*
X-4969Y10581D01*
X-4966Y10580D01*
X-2620Y10580D01*
X-2616Y10581D01*
X-2613Y10582D01*
X-2612Y10582D01*
X-2611Y10582D01*
X-2607Y10584D01*
X-2604Y10586D01*
X-2603Y10586D01*
X-2603Y10587D01*
X-2602Y10587D01*
X-2600Y10589D01*
X-2579Y10610D01*
X-2429Y10610D01*
X-2323Y10504D01*
X-2323Y10354D01*
X-2429Y10248D01*
X-2579Y10248D01*
X-2685Y10355D01*
X-2686Y10357D01*
X-2686Y10360D01*
X-2687Y10361D01*
X-2687Y10362D01*
X-2689Y10366D01*
X-2691Y10369D01*
X-2692Y10370D01*
X-2695Y10373D01*
X-2698Y10375D01*
X-2699Y10376D01*
X-2700Y10376D01*
X-2703Y10378D01*
X-2707Y10379D01*
X-2708Y10379D01*
X-2709Y10380D01*
X-2714Y10380D01*
X-5020Y10380D01*
X-5021Y10380D01*
X-5022Y10380D01*
X-5025Y10379D01*
X-5029Y10379D01*
X-5030Y10378D01*
X-5031Y10378D01*
X-5034Y10376D01*
X-5037Y10374D01*
X-5038Y10373D01*
X-5039Y10373D01*
X-5041Y10370D01*
X-5044Y10367D01*
X-5044Y10366D01*
X-5045Y10365D01*
X-5046Y10362D01*
X-5048Y10358D01*
X-5048Y10357D01*
X-5048Y10356D01*
X-5049Y10351D01*
X-5049Y10084D01*
X-5048Y10080D01*
X-5048Y10076D01*
X-5047Y10076D01*
X-5047Y10075D01*
X-5045Y10071D01*
X-5044Y10068D01*
X-5043Y10067D01*
X-5043Y10066D01*
X-5042Y10066D01*
X-5040Y10064D01*
X-4969Y9992D01*
X-4969Y9842D01*
X-5075Y9737D01*
X-5224Y9737D01*
G37*
%LPD*%
%LPC*%
G36*
X26921Y8210D02*
X26921Y8210D01*
X26810Y8321D01*
X26810Y8479D01*
X26921Y8590D01*
X27049Y8590D01*
X27053Y8590D01*
X27057Y8591D01*
X27058Y8591D01*
X27059Y8591D01*
X27062Y8593D01*
X27066Y8595D01*
X27067Y8595D01*
X27067Y8596D01*
X27068Y8596D01*
X27070Y8598D01*
X27401Y8929D01*
X27403Y8932D01*
X27405Y8935D01*
X27406Y8936D01*
X27406Y8937D01*
X27407Y8941D01*
X27409Y8944D01*
X27409Y8945D01*
X27409Y8946D01*
X27409Y8947D01*
X27409Y8950D01*
X27409Y14950D01*
X27409Y14954D01*
X27408Y14958D01*
X27408Y14959D01*
X27408Y14960D01*
X27406Y14963D01*
X27404Y14967D01*
X27403Y14968D01*
X27403Y14969D01*
X27401Y14971D01*
X25721Y16651D01*
X25718Y16653D01*
X25715Y16655D01*
X25714Y16656D01*
X25713Y16656D01*
X25709Y16657D01*
X25706Y16659D01*
X25705Y16659D01*
X25704Y16659D01*
X25703Y16659D01*
X25700Y16659D01*
X25212Y16659D01*
X25126Y16746D01*
X25126Y17023D01*
X25126Y17024D01*
X25126Y17025D01*
X25125Y17029D01*
X25124Y17033D01*
X25124Y17034D01*
X25123Y17035D01*
X25121Y17038D01*
X25120Y17041D01*
X25119Y17042D01*
X25118Y17043D01*
X25115Y17045D01*
X25113Y17048D01*
X25112Y17048D01*
X25111Y17049D01*
X25107Y17050D01*
X25104Y17052D01*
X25103Y17052D01*
X25102Y17052D01*
X25097Y17053D01*
X25067Y17053D01*
X24856Y17264D01*
X24856Y17563D01*
X25067Y17774D01*
X25366Y17774D01*
X25577Y17563D01*
X25577Y17264D01*
X25366Y17053D01*
X25337Y17053D01*
X25335Y17052D01*
X25334Y17053D01*
X25331Y17052D01*
X25327Y17051D01*
X25326Y17051D01*
X25325Y17050D01*
X25322Y17048D01*
X25319Y17047D01*
X25318Y17046D01*
X25317Y17045D01*
X25315Y17042D01*
X25312Y17040D01*
X25312Y17039D01*
X25311Y17038D01*
X25310Y17034D01*
X25308Y17031D01*
X25308Y17030D01*
X25308Y17029D01*
X25307Y17023D01*
X25307Y16870D01*
X25307Y16869D01*
X25307Y16868D01*
X25308Y16864D01*
X25309Y16861D01*
X25309Y16860D01*
X25310Y16859D01*
X25312Y16855D01*
X25313Y16852D01*
X25314Y16851D01*
X25315Y16851D01*
X25318Y16848D01*
X25320Y16846D01*
X25321Y16845D01*
X25322Y16845D01*
X25326Y16843D01*
X25329Y16842D01*
X25330Y16842D01*
X25331Y16841D01*
X25337Y16841D01*
X25788Y16841D01*
X25849Y16779D01*
X27529Y15099D01*
X27591Y15038D01*
X27591Y8862D01*
X27198Y8470D01*
X27196Y8467D01*
X27193Y8464D01*
X27193Y8463D01*
X27193Y8462D01*
X27192Y8458D01*
X27190Y8455D01*
X27190Y8453D01*
X27190Y8452D01*
X27190Y8449D01*
X27190Y8321D01*
X27079Y8210D01*
X26921Y8210D01*
G37*
%LPD*%
%LPC*%
G36*
X26821Y8810D02*
X26821Y8810D01*
X26710Y8921D01*
X26710Y9079D01*
X26821Y9190D01*
X26949Y9190D01*
X26953Y9190D01*
X26957Y9191D01*
X26958Y9191D01*
X26959Y9191D01*
X26962Y9193D01*
X26966Y9195D01*
X26967Y9195D01*
X26967Y9196D01*
X26968Y9196D01*
X26970Y9198D01*
X27151Y9379D01*
X27153Y9382D01*
X27155Y9385D01*
X27156Y9386D01*
X27156Y9387D01*
X27157Y9391D01*
X27159Y9394D01*
X27159Y9395D01*
X27159Y9396D01*
X27159Y9397D01*
X27159Y9400D01*
X27159Y14700D01*
X27159Y14704D01*
X27158Y14708D01*
X27158Y14709D01*
X27158Y14710D01*
X27156Y14713D01*
X27154Y14717D01*
X27153Y14718D01*
X27153Y14719D01*
X27151Y14721D01*
X25471Y16401D01*
X25468Y16403D01*
X25465Y16405D01*
X25464Y16406D01*
X25463Y16406D01*
X25459Y16407D01*
X25456Y16409D01*
X25455Y16409D01*
X25454Y16409D01*
X25453Y16409D01*
X25450Y16409D01*
X24462Y16409D01*
X24159Y16712D01*
X24159Y17023D01*
X24159Y17024D01*
X24159Y17025D01*
X24158Y17029D01*
X24158Y17033D01*
X24157Y17034D01*
X24157Y17035D01*
X24155Y17038D01*
X24153Y17041D01*
X24152Y17042D01*
X24152Y17043D01*
X24149Y17045D01*
X24146Y17048D01*
X24145Y17048D01*
X24144Y17049D01*
X24141Y17050D01*
X24137Y17052D01*
X24136Y17052D01*
X24135Y17052D01*
X24130Y17053D01*
X24067Y17053D01*
X23856Y17264D01*
X23856Y17563D01*
X24067Y17774D01*
X24366Y17774D01*
X24577Y17563D01*
X24577Y17264D01*
X24365Y17052D01*
X24364Y17052D01*
X24361Y17051D01*
X24360Y17051D01*
X24359Y17050D01*
X24355Y17048D01*
X24352Y17047D01*
X24351Y17046D01*
X24351Y17045D01*
X24348Y17042D01*
X24346Y17040D01*
X24345Y17039D01*
X24345Y17038D01*
X24343Y17034D01*
X24342Y17031D01*
X24342Y17030D01*
X24341Y17029D01*
X24341Y17023D01*
X24341Y16800D01*
X24341Y16796D01*
X24342Y16792D01*
X24342Y16791D01*
X24342Y16790D01*
X24344Y16787D01*
X24346Y16783D01*
X24347Y16782D01*
X24347Y16781D01*
X24349Y16779D01*
X24529Y16599D01*
X24532Y16597D01*
X24535Y16595D01*
X24536Y16594D01*
X24537Y16594D01*
X24541Y16593D01*
X24544Y16591D01*
X24545Y16591D01*
X24546Y16591D01*
X24547Y16591D01*
X24550Y16591D01*
X25538Y16591D01*
X27341Y14788D01*
X27341Y9312D01*
X27098Y9070D01*
X27096Y9067D01*
X27093Y9064D01*
X27093Y9063D01*
X27093Y9062D01*
X27092Y9058D01*
X27090Y9055D01*
X27090Y9053D01*
X27090Y9052D01*
X27090Y9049D01*
X27090Y8921D01*
X26979Y8810D01*
X26821Y8810D01*
G37*
%LPD*%
%LPC*%
G36*
X-2116Y4392D02*
X-2116Y4392D01*
X-2222Y4498D01*
X-2222Y4648D01*
X-2151Y4719D01*
X-2148Y4722D01*
X-2146Y4725D01*
X-2146Y4726D01*
X-2145Y4727D01*
X-2144Y4731D01*
X-2143Y4734D01*
X-2142Y4736D01*
X-2142Y4737D01*
X-2142Y4740D01*
X-2142Y13724D01*
X-2143Y13728D01*
X-2143Y13732D01*
X-2144Y13732D01*
X-2144Y13733D01*
X-2146Y13737D01*
X-2147Y13740D01*
X-2148Y13741D01*
X-2148Y13742D01*
X-2149Y13742D01*
X-2151Y13744D01*
X-2380Y13973D01*
X-2383Y13976D01*
X-2386Y13978D01*
X-2387Y13978D01*
X-2387Y13979D01*
X-2391Y13980D01*
X-2395Y13981D01*
X-2396Y13982D01*
X-2397Y13982D01*
X-2400Y13982D01*
X-2876Y13982D01*
X-2880Y13981D01*
X-2884Y13981D01*
X-2885Y13980D01*
X-2886Y13980D01*
X-2889Y13978D01*
X-2893Y13977D01*
X-2894Y13976D01*
X-2895Y13975D01*
X-2897Y13973D01*
X-2968Y13902D01*
X-3118Y13902D01*
X-3224Y14008D01*
X-3224Y14158D01*
X-3118Y14263D01*
X-2968Y14263D01*
X-2897Y14192D01*
X-2894Y14190D01*
X-2891Y14187D01*
X-2890Y14187D01*
X-2889Y14186D01*
X-2885Y14185D01*
X-2882Y14184D01*
X-2881Y14184D01*
X-2880Y14184D01*
X-2879Y14184D01*
X-2876Y14183D01*
X-2305Y14183D01*
X-1941Y13819D01*
X-1941Y4740D01*
X-1940Y4736D01*
X-1940Y4732D01*
X-1939Y4731D01*
X-1939Y4730D01*
X-1937Y4727D01*
X-1935Y4723D01*
X-1935Y4722D01*
X-1934Y4722D01*
X-1934Y4721D01*
X-1932Y4719D01*
X-1861Y4648D01*
X-1861Y4498D01*
X-1966Y4392D01*
X-2116Y4392D01*
G37*
%LPD*%
%LPC*%
G36*
X27721Y8510D02*
X27721Y8510D01*
X27610Y8621D01*
X27610Y8779D01*
X27721Y8890D01*
X27849Y8890D01*
X27853Y8890D01*
X27857Y8891D01*
X27858Y8891D01*
X27859Y8891D01*
X27862Y8893D01*
X27866Y8895D01*
X27867Y8895D01*
X27867Y8896D01*
X27868Y8896D01*
X27870Y8898D01*
X27901Y8929D01*
X27903Y8932D01*
X27905Y8935D01*
X27906Y8936D01*
X27906Y8937D01*
X27907Y8941D01*
X27909Y8944D01*
X27909Y8945D01*
X27909Y8946D01*
X27909Y8947D01*
X27909Y8950D01*
X27909Y14950D01*
X27909Y14954D01*
X27908Y14958D01*
X27908Y14959D01*
X27908Y14960D01*
X27906Y14963D01*
X27904Y14967D01*
X27903Y14968D01*
X27903Y14969D01*
X27901Y14971D01*
X26126Y16746D01*
X26126Y17023D01*
X26126Y17024D01*
X26126Y17025D01*
X26125Y17029D01*
X26124Y17033D01*
X26124Y17034D01*
X26123Y17035D01*
X26121Y17038D01*
X26120Y17041D01*
X26119Y17042D01*
X26118Y17043D01*
X26115Y17045D01*
X26113Y17048D01*
X26112Y17048D01*
X26111Y17049D01*
X26107Y17050D01*
X26104Y17052D01*
X26103Y17052D01*
X26102Y17052D01*
X26097Y17053D01*
X26067Y17053D01*
X25856Y17264D01*
X25856Y17563D01*
X26067Y17774D01*
X26366Y17774D01*
X26577Y17563D01*
X26577Y17264D01*
X26366Y17053D01*
X26337Y17053D01*
X26335Y17052D01*
X26334Y17053D01*
X26331Y17052D01*
X26327Y17051D01*
X26326Y17051D01*
X26325Y17050D01*
X26322Y17048D01*
X26319Y17047D01*
X26318Y17046D01*
X26317Y17045D01*
X26315Y17042D01*
X26312Y17040D01*
X26312Y17039D01*
X26311Y17038D01*
X26310Y17034D01*
X26308Y17031D01*
X26308Y17030D01*
X26308Y17029D01*
X26307Y17023D01*
X26307Y16833D01*
X26308Y16829D01*
X26308Y16825D01*
X26309Y16825D01*
X26309Y16824D01*
X26311Y16820D01*
X26312Y16817D01*
X26313Y16816D01*
X26313Y16815D01*
X26314Y16815D01*
X26316Y16812D01*
X28091Y15038D01*
X28091Y8862D01*
X27998Y8770D01*
X27996Y8767D01*
X27993Y8764D01*
X27993Y8763D01*
X27993Y8762D01*
X27992Y8758D01*
X27990Y8755D01*
X27990Y8753D01*
X27990Y8752D01*
X27990Y8749D01*
X27990Y8621D01*
X27879Y8510D01*
X27721Y8510D01*
G37*
%LPD*%
%LPC*%
G36*
X28421Y8810D02*
X28421Y8810D01*
X28310Y8921D01*
X28310Y8999D01*
X28310Y9003D01*
X28309Y9007D01*
X28309Y9008D01*
X28309Y9009D01*
X28307Y9012D01*
X28305Y9016D01*
X28305Y9017D01*
X28304Y9017D01*
X28304Y9018D01*
X28302Y9020D01*
X28159Y9162D01*
X28159Y15100D01*
X28159Y15104D01*
X28158Y15108D01*
X28158Y15109D01*
X28158Y15110D01*
X28156Y15113D01*
X28154Y15117D01*
X28153Y15118D01*
X28153Y15119D01*
X28151Y15121D01*
X27126Y16146D01*
X27126Y17023D01*
X27126Y17024D01*
X27126Y17025D01*
X27125Y17029D01*
X27124Y17033D01*
X27124Y17034D01*
X27123Y17035D01*
X27121Y17038D01*
X27120Y17041D01*
X27119Y17042D01*
X27118Y17043D01*
X27115Y17045D01*
X27113Y17048D01*
X27112Y17048D01*
X27111Y17049D01*
X27107Y17050D01*
X27104Y17052D01*
X27103Y17052D01*
X27102Y17052D01*
X27097Y17053D01*
X27067Y17053D01*
X26856Y17264D01*
X26856Y17563D01*
X27067Y17774D01*
X27366Y17774D01*
X27577Y17563D01*
X27577Y17264D01*
X27366Y17053D01*
X27337Y17053D01*
X27335Y17052D01*
X27334Y17053D01*
X27331Y17052D01*
X27327Y17051D01*
X27326Y17051D01*
X27325Y17050D01*
X27322Y17048D01*
X27319Y17047D01*
X27318Y17046D01*
X27317Y17045D01*
X27315Y17042D01*
X27312Y17040D01*
X27312Y17039D01*
X27311Y17038D01*
X27310Y17034D01*
X27308Y17031D01*
X27308Y17030D01*
X27308Y17029D01*
X27307Y17023D01*
X27307Y16233D01*
X27308Y16229D01*
X27308Y16225D01*
X27309Y16225D01*
X27309Y16224D01*
X27311Y16220D01*
X27312Y16217D01*
X27313Y16216D01*
X27313Y16215D01*
X27314Y16215D01*
X27316Y16212D01*
X28341Y15188D01*
X28341Y9250D01*
X28341Y9246D01*
X28342Y9242D01*
X28342Y9241D01*
X28342Y9240D01*
X28344Y9237D01*
X28346Y9233D01*
X28347Y9232D01*
X28347Y9231D01*
X28349Y9229D01*
X28384Y9194D01*
X28385Y9193D01*
X28386Y9193D01*
X28389Y9191D01*
X28392Y9188D01*
X28393Y9188D01*
X28394Y9188D01*
X28398Y9187D01*
X28401Y9186D01*
X28402Y9186D01*
X28403Y9185D01*
X28407Y9186D01*
X28411Y9186D01*
X28412Y9186D01*
X28413Y9186D01*
X28416Y9188D01*
X28420Y9189D01*
X28420Y9190D01*
X28579Y9190D01*
X28690Y9079D01*
X28690Y8921D01*
X28579Y8810D01*
X28421Y8810D01*
G37*
%LPD*%
%LPC*%
G36*
X21654Y3523D02*
X21654Y3523D01*
X21401Y3751D01*
X21262Y4062D01*
X21262Y4403D01*
X21401Y4715D01*
X21654Y4943D01*
X21979Y5049D01*
X22318Y5013D01*
X22613Y4842D01*
X22814Y4567D01*
X22885Y4233D01*
X22814Y3899D01*
X22613Y3623D01*
X22318Y3453D01*
X21979Y3417D01*
X21654Y3523D01*
G37*
%LPD*%
%LPC*%
G36*
X24671Y9560D02*
X24671Y9560D01*
X24560Y9671D01*
X24560Y9829D01*
X24651Y9919D01*
X24653Y9922D01*
X24655Y9925D01*
X24656Y9926D01*
X24656Y9927D01*
X24657Y9930D01*
X24659Y9934D01*
X24659Y9935D01*
X24659Y9936D01*
X24659Y9937D01*
X24659Y9940D01*
X24659Y15450D01*
X24659Y15454D01*
X24658Y15458D01*
X24658Y15459D01*
X24658Y15460D01*
X24656Y15463D01*
X24654Y15467D01*
X24653Y15468D01*
X24653Y15469D01*
X24651Y15471D01*
X23909Y16212D01*
X23909Y16580D01*
X23909Y16584D01*
X23908Y16588D01*
X23908Y16589D01*
X23908Y16590D01*
X23906Y16593D01*
X23904Y16597D01*
X23903Y16598D01*
X23903Y16599D01*
X23901Y16601D01*
X23428Y17073D01*
X23427Y17074D01*
X23427Y17075D01*
X23423Y17077D01*
X23420Y17079D01*
X23419Y17079D01*
X23418Y17080D01*
X23415Y17081D01*
X23411Y17082D01*
X23410Y17082D01*
X23409Y17082D01*
X23405Y17082D01*
X23402Y17081D01*
X23401Y17081D01*
X23400Y17081D01*
X23396Y17079D01*
X23393Y17078D01*
X23392Y17077D01*
X23391Y17077D01*
X23387Y17073D01*
X23366Y17053D01*
X23067Y17053D01*
X22856Y17264D01*
X22856Y17563D01*
X23067Y17774D01*
X23366Y17774D01*
X23577Y17563D01*
X23577Y17264D01*
X23556Y17243D01*
X23556Y17242D01*
X23555Y17242D01*
X23553Y17238D01*
X23551Y17235D01*
X23551Y17234D01*
X23550Y17233D01*
X23549Y17230D01*
X23548Y17226D01*
X23548Y17225D01*
X23548Y17224D01*
X23548Y17220D01*
X23548Y17217D01*
X23549Y17216D01*
X23549Y17215D01*
X23551Y17211D01*
X23552Y17208D01*
X23553Y17207D01*
X23553Y17206D01*
X23556Y17202D01*
X24029Y16729D01*
X24091Y16668D01*
X24091Y16300D01*
X24091Y16296D01*
X24092Y16292D01*
X24092Y16291D01*
X24092Y16290D01*
X24094Y16287D01*
X24096Y16283D01*
X24097Y16282D01*
X24097Y16281D01*
X24099Y16279D01*
X24841Y15538D01*
X24841Y9940D01*
X24841Y9936D01*
X24842Y9932D01*
X24842Y9931D01*
X24842Y9930D01*
X24844Y9927D01*
X24846Y9923D01*
X24847Y9922D01*
X24847Y9921D01*
X24849Y9919D01*
X24940Y9829D01*
X24940Y9671D01*
X24829Y9560D01*
X24671Y9560D01*
G37*
%LPD*%
%LPC*%
G36*
X28121Y2910D02*
X28121Y2910D01*
X28010Y3021D01*
X28010Y3179D01*
X28121Y3290D01*
X28279Y3290D01*
X28299Y3269D01*
X28300Y3268D01*
X28301Y3268D01*
X28304Y3266D01*
X28307Y3263D01*
X28308Y3263D01*
X28309Y3263D01*
X28313Y3262D01*
X28316Y3261D01*
X28317Y3261D01*
X28318Y3260D01*
X28322Y3261D01*
X28326Y3261D01*
X28327Y3261D01*
X28328Y3261D01*
X28331Y3263D01*
X28335Y3264D01*
X28335Y3265D01*
X28336Y3266D01*
X28341Y3269D01*
X29201Y4129D01*
X29203Y4132D01*
X29205Y4135D01*
X29206Y4136D01*
X29206Y4137D01*
X29207Y4141D01*
X29209Y4144D01*
X29209Y4145D01*
X29209Y4146D01*
X29209Y4147D01*
X29209Y4150D01*
X29209Y5038D01*
X29501Y5329D01*
X29503Y5332D01*
X29505Y5335D01*
X29506Y5336D01*
X29506Y5337D01*
X29507Y5341D01*
X29509Y5344D01*
X29509Y5345D01*
X29509Y5346D01*
X29509Y5347D01*
X29509Y5350D01*
X29509Y5910D01*
X29509Y5914D01*
X29508Y5918D01*
X29508Y5919D01*
X29508Y5920D01*
X29506Y5923D01*
X29504Y5927D01*
X29503Y5928D01*
X29503Y5929D01*
X29501Y5931D01*
X29410Y6021D01*
X29410Y6179D01*
X29521Y6290D01*
X29679Y6290D01*
X29790Y6179D01*
X29790Y6021D01*
X29699Y5931D01*
X29697Y5928D01*
X29695Y5925D01*
X29694Y5924D01*
X29694Y5923D01*
X29693Y5920D01*
X29691Y5916D01*
X29691Y5915D01*
X29691Y5914D01*
X29691Y5913D01*
X29691Y5910D01*
X29691Y5262D01*
X29399Y4971D01*
X29397Y4968D01*
X29395Y4965D01*
X29394Y4964D01*
X29394Y4963D01*
X29393Y4959D01*
X29391Y4956D01*
X29391Y4955D01*
X29391Y4954D01*
X29391Y4953D01*
X29391Y4950D01*
X29391Y4062D01*
X28398Y3070D01*
X28396Y3067D01*
X28393Y3064D01*
X28393Y3063D01*
X28393Y3062D01*
X28392Y3058D01*
X28390Y3055D01*
X28390Y3053D01*
X28390Y3052D01*
X28390Y3049D01*
X28390Y3021D01*
X28279Y2910D01*
X28121Y2910D01*
G37*
%LPD*%
%LPC*%
G36*
X27121Y7510D02*
X27121Y7510D01*
X27010Y7621D01*
X27010Y7779D01*
X27121Y7890D01*
X27249Y7890D01*
X27253Y7890D01*
X27257Y7891D01*
X29250Y7891D01*
X29254Y7891D01*
X29258Y7892D01*
X29259Y7892D01*
X29260Y7892D01*
X29263Y7894D01*
X29267Y7896D01*
X29268Y7897D01*
X29269Y7897D01*
X29271Y7899D01*
X29302Y7930D01*
X29304Y7933D01*
X29307Y7936D01*
X29307Y7937D01*
X29307Y7938D01*
X29308Y7942D01*
X29310Y7945D01*
X29310Y7947D01*
X29310Y7948D01*
X29310Y7951D01*
X29310Y8079D01*
X29421Y8190D01*
X29579Y8190D01*
X29690Y8079D01*
X29690Y7921D01*
X29579Y7810D01*
X29451Y7810D01*
X29447Y7810D01*
X29443Y7809D01*
X29442Y7809D01*
X29441Y7809D01*
X29438Y7807D01*
X29434Y7805D01*
X29433Y7805D01*
X29433Y7804D01*
X29432Y7804D01*
X29430Y7802D01*
X29338Y7709D01*
X27419Y7709D01*
X27418Y7709D01*
X27417Y7709D01*
X27413Y7708D01*
X27409Y7708D01*
X27409Y7707D01*
X27407Y7707D01*
X27404Y7705D01*
X27401Y7703D01*
X27400Y7702D01*
X27399Y7702D01*
X27397Y7699D01*
X27395Y7696D01*
X27394Y7695D01*
X27393Y7694D01*
X27392Y7691D01*
X27391Y7687D01*
X27391Y7686D01*
X27390Y7685D01*
X27390Y7680D01*
X27390Y7621D01*
X27279Y7510D01*
X27121Y7510D01*
G37*
%LPD*%
%LPC*%
G36*
X27340Y6910D02*
X27340Y6910D01*
X27229Y7021D01*
X27229Y7179D01*
X27340Y7290D01*
X27468Y7290D01*
X27472Y7290D01*
X27476Y7291D01*
X27477Y7291D01*
X27478Y7291D01*
X27481Y7293D01*
X27485Y7295D01*
X27486Y7296D01*
X27487Y7296D01*
X27489Y7298D01*
X27581Y7391D01*
X27938Y7391D01*
X28029Y7299D01*
X28032Y7297D01*
X28035Y7295D01*
X28036Y7294D01*
X28037Y7294D01*
X28041Y7293D01*
X28044Y7291D01*
X28045Y7291D01*
X28046Y7291D01*
X28047Y7291D01*
X28050Y7291D01*
X29410Y7291D01*
X29414Y7291D01*
X29418Y7292D01*
X29419Y7292D01*
X29420Y7292D01*
X29423Y7294D01*
X29427Y7296D01*
X29428Y7297D01*
X29429Y7297D01*
X29431Y7299D01*
X29521Y7390D01*
X29679Y7390D01*
X29790Y7279D01*
X29790Y7121D01*
X29679Y7010D01*
X29521Y7010D01*
X29431Y7101D01*
X29428Y7103D01*
X29425Y7105D01*
X29424Y7106D01*
X29423Y7106D01*
X29420Y7107D01*
X29416Y7109D01*
X29415Y7109D01*
X29414Y7109D01*
X29413Y7109D01*
X29410Y7109D01*
X27962Y7109D01*
X27871Y7201D01*
X27868Y7203D01*
X27865Y7205D01*
X27864Y7206D01*
X27863Y7206D01*
X27859Y7207D01*
X27856Y7209D01*
X27855Y7209D01*
X27854Y7209D01*
X27853Y7209D01*
X27850Y7209D01*
X27669Y7209D01*
X27665Y7209D01*
X27661Y7208D01*
X27660Y7208D01*
X27659Y7208D01*
X27656Y7206D01*
X27652Y7204D01*
X27651Y7203D01*
X27650Y7203D01*
X27648Y7201D01*
X27617Y7170D01*
X27615Y7167D01*
X27614Y7166D01*
X27614Y7165D01*
X27612Y7164D01*
X27612Y7163D01*
X27612Y7162D01*
X27610Y7158D01*
X27609Y7155D01*
X27609Y7153D01*
X27609Y7152D01*
X27609Y7149D01*
X27609Y7021D01*
X27497Y6910D01*
X27340Y6910D01*
G37*
%LPD*%
%LPC*%
G36*
X31961Y12084D02*
X31961Y12084D01*
X31808Y12148D01*
X31691Y12265D01*
X31628Y12417D01*
X31628Y12583D01*
X31691Y12735D01*
X31808Y12852D01*
X31961Y12916D01*
X32126Y12916D01*
X32279Y12852D01*
X32396Y12735D01*
X32459Y12583D01*
X32459Y12417D01*
X32396Y12265D01*
X32279Y12148D01*
X32126Y12084D01*
X31961Y12084D01*
G37*
%LPD*%
%LPC*%
G36*
X7224Y7885D02*
X7224Y7885D01*
X7119Y7991D01*
X7119Y8141D01*
X7195Y8217D01*
X7197Y8220D01*
X7200Y8223D01*
X7200Y8224D01*
X7201Y8225D01*
X7202Y8229D01*
X7203Y8232D01*
X7203Y8234D01*
X7203Y8235D01*
X7204Y8238D01*
X7204Y9281D01*
X7203Y9282D01*
X7203Y9283D01*
X7203Y9287D01*
X7202Y9291D01*
X7201Y9291D01*
X7201Y9293D01*
X7199Y9296D01*
X7197Y9299D01*
X7197Y9300D01*
X7196Y9301D01*
X7193Y9303D01*
X7190Y9305D01*
X7189Y9306D01*
X7189Y9307D01*
X7185Y9308D01*
X7182Y9309D01*
X7181Y9309D01*
X7180Y9310D01*
X7174Y9310D01*
X7171Y9310D01*
X7060Y9421D01*
X7060Y9579D01*
X7171Y9690D01*
X7329Y9690D01*
X7440Y9579D01*
X7440Y9421D01*
X7404Y9385D01*
X7401Y9382D01*
X7399Y9379D01*
X7399Y9378D01*
X7398Y9378D01*
X7397Y9374D01*
X7396Y9370D01*
X7395Y9369D01*
X7395Y9368D01*
X7395Y9365D01*
X7395Y8238D01*
X7396Y8234D01*
X7396Y8230D01*
X7396Y8229D01*
X7397Y8228D01*
X7398Y8225D01*
X7400Y8221D01*
X7401Y8220D01*
X7402Y8219D01*
X7404Y8217D01*
X7480Y8141D01*
X7480Y7991D01*
X7374Y7885D01*
X7224Y7885D01*
G37*
%LPD*%
%LPC*%
G36*
X24067Y18053D02*
X24067Y18053D01*
X23856Y18264D01*
X23856Y18563D01*
X24067Y18774D01*
X24366Y18774D01*
X24577Y18563D01*
X24577Y18264D01*
X24366Y18053D01*
X24067Y18053D01*
G37*
%LPD*%
%LPC*%
G36*
X8067Y18053D02*
X8067Y18053D01*
X7856Y18264D01*
X7856Y18563D01*
X8067Y18774D01*
X8366Y18774D01*
X8577Y18563D01*
X8577Y18264D01*
X8366Y18053D01*
X8067Y18053D01*
G37*
%LPD*%
%LPC*%
G36*
X23067Y18053D02*
X23067Y18053D01*
X22856Y18264D01*
X22856Y18563D01*
X23067Y18774D01*
X23366Y18774D01*
X23577Y18563D01*
X23577Y18264D01*
X23366Y18053D01*
X23067Y18053D01*
G37*
%LPD*%
%LPC*%
G36*
X22067Y18053D02*
X22067Y18053D01*
X21856Y18264D01*
X21856Y18563D01*
X22067Y18774D01*
X22366Y18774D01*
X22577Y18563D01*
X22577Y18264D01*
X22366Y18053D01*
X22067Y18053D01*
G37*
%LPD*%
%LPC*%
G36*
X21067Y18053D02*
X21067Y18053D01*
X20856Y18264D01*
X20856Y18563D01*
X21067Y18774D01*
X21366Y18774D01*
X21577Y18563D01*
X21577Y18264D01*
X21366Y18053D01*
X21067Y18053D01*
G37*
%LPD*%
%LPC*%
G36*
X20067Y18053D02*
X20067Y18053D01*
X19856Y18264D01*
X19856Y18563D01*
X20067Y18774D01*
X20366Y18774D01*
X20577Y18563D01*
X20577Y18264D01*
X20366Y18053D01*
X20067Y18053D01*
G37*
%LPD*%
%LPC*%
G36*
X28067Y18053D02*
X28067Y18053D01*
X27856Y18264D01*
X27856Y18563D01*
X28067Y18774D01*
X28366Y18774D01*
X28577Y18563D01*
X28577Y18264D01*
X28366Y18053D01*
X28067Y18053D01*
G37*
%LPD*%
%LPC*%
G36*
X17067Y18053D02*
X17067Y18053D01*
X16856Y18264D01*
X16856Y18563D01*
X17067Y18774D01*
X17366Y18774D01*
X17577Y18563D01*
X17577Y18264D01*
X17366Y18053D01*
X17067Y18053D01*
G37*
%LPD*%
%LPC*%
G36*
X31067Y17053D02*
X31067Y17053D01*
X30856Y17264D01*
X30856Y17563D01*
X31067Y17774D01*
X31366Y17774D01*
X31577Y17563D01*
X31577Y17264D01*
X31366Y17053D01*
X31067Y17053D01*
G37*
%LPD*%
%LPC*%
G36*
X9067Y17053D02*
X9067Y17053D01*
X8856Y17264D01*
X8856Y17563D01*
X9067Y17774D01*
X9366Y17774D01*
X9577Y17563D01*
X9577Y17264D01*
X9366Y17053D01*
X9067Y17053D01*
G37*
%LPD*%
%LPC*%
G36*
X28067Y17053D02*
X28067Y17053D01*
X27856Y17264D01*
X27856Y17563D01*
X28067Y17774D01*
X28366Y17774D01*
X28577Y17563D01*
X28577Y17264D01*
X28366Y17053D01*
X28067Y17053D01*
G37*
%LPD*%
%LPC*%
G36*
X18067Y18053D02*
X18067Y18053D01*
X17856Y18264D01*
X17856Y18563D01*
X18067Y18774D01*
X18366Y18774D01*
X18577Y18563D01*
X18577Y18264D01*
X18366Y18053D01*
X18067Y18053D01*
G37*
%LPD*%
%LPC*%
G36*
X8067Y17053D02*
X8067Y17053D01*
X7856Y17264D01*
X7856Y17563D01*
X8067Y17774D01*
X8366Y17774D01*
X8577Y17563D01*
X8577Y17264D01*
X8366Y17053D01*
X8067Y17053D01*
G37*
%LPD*%
%LPC*%
G36*
X7067Y17053D02*
X7067Y17053D01*
X6856Y17264D01*
X6856Y17563D01*
X7067Y17774D01*
X7366Y17774D01*
X7577Y17563D01*
X7577Y17264D01*
X7366Y17053D01*
X7067Y17053D01*
G37*
%LPD*%
%LPC*%
G36*
X19067Y18053D02*
X19067Y18053D01*
X18856Y18264D01*
X18856Y18563D01*
X19067Y18774D01*
X19366Y18774D01*
X19577Y18563D01*
X19577Y18264D01*
X19366Y18053D01*
X19067Y18053D01*
G37*
%LPD*%
%LPC*%
G36*
X29067Y17053D02*
X29067Y17053D01*
X28856Y17264D01*
X28856Y17563D01*
X29067Y17774D01*
X29366Y17774D01*
X29577Y17563D01*
X29577Y17264D01*
X29366Y17053D01*
X29067Y17053D01*
G37*
%LPD*%
%LPC*%
G36*
X30067Y17053D02*
X30067Y17053D01*
X29856Y17264D01*
X29856Y17563D01*
X30067Y17774D01*
X30366Y17774D01*
X30577Y17563D01*
X30577Y17264D01*
X30366Y17053D01*
X30067Y17053D01*
G37*
%LPD*%
%LPC*%
G36*
X3067Y17053D02*
X3067Y17053D01*
X2856Y17264D01*
X2856Y17563D01*
X3067Y17774D01*
X3366Y17774D01*
X3577Y17563D01*
X3577Y17264D01*
X3366Y17053D01*
X3067Y17053D01*
G37*
%LPD*%
%LPC*%
G36*
X26067Y18053D02*
X26067Y18053D01*
X25856Y18264D01*
X25856Y18563D01*
X26067Y18774D01*
X26366Y18774D01*
X26577Y18563D01*
X26577Y18264D01*
X26366Y18053D01*
X26067Y18053D01*
G37*
%LPD*%
%LPC*%
G36*
X29067Y18053D02*
X29067Y18053D01*
X28856Y18264D01*
X28856Y18563D01*
X29067Y18774D01*
X29366Y18774D01*
X29577Y18563D01*
X29577Y18264D01*
X29366Y18053D01*
X29067Y18053D01*
G37*
%LPD*%
%LPC*%
G36*
X30067Y18053D02*
X30067Y18053D01*
X29856Y18264D01*
X29856Y18563D01*
X30067Y18774D01*
X30366Y18774D01*
X30577Y18563D01*
X30577Y18264D01*
X30366Y18053D01*
X30067Y18053D01*
G37*
%LPD*%
%LPC*%
G36*
X10067Y18053D02*
X10067Y18053D01*
X9856Y18264D01*
X9856Y18563D01*
X10067Y18774D01*
X10366Y18774D01*
X10577Y18563D01*
X10577Y18264D01*
X10366Y18053D01*
X10067Y18053D01*
G37*
%LPD*%
%LPC*%
G36*
X9067Y18053D02*
X9067Y18053D01*
X8856Y18264D01*
X8856Y18563D01*
X9067Y18774D01*
X9366Y18774D01*
X9577Y18563D01*
X9577Y18264D01*
X9366Y18053D01*
X9067Y18053D01*
G37*
%LPD*%
%LPC*%
G36*
X7067Y18053D02*
X7067Y18053D01*
X6856Y18264D01*
X6856Y18563D01*
X7067Y18774D01*
X7366Y18774D01*
X7577Y18563D01*
X7577Y18264D01*
X7366Y18053D01*
X7067Y18053D01*
G37*
%LPD*%
%LPC*%
G36*
X6067Y18053D02*
X6067Y18053D01*
X5856Y18264D01*
X5856Y18563D01*
X6067Y18774D01*
X6366Y18774D01*
X6577Y18563D01*
X6577Y18264D01*
X6366Y18053D01*
X6067Y18053D01*
G37*
%LPD*%
%LPC*%
G36*
X5067Y18053D02*
X5067Y18053D01*
X4856Y18264D01*
X4856Y18563D01*
X5067Y18774D01*
X5366Y18774D01*
X5577Y18563D01*
X5577Y18264D01*
X5366Y18053D01*
X5067Y18053D01*
G37*
%LPD*%
%LPC*%
G36*
X3067Y18053D02*
X3067Y18053D01*
X2856Y18264D01*
X2856Y18563D01*
X3067Y18774D01*
X3366Y18774D01*
X3577Y18563D01*
X3577Y18264D01*
X3366Y18053D01*
X3067Y18053D01*
G37*
%LPD*%
%LPC*%
G36*
X14067Y18053D02*
X14067Y18053D01*
X13856Y18264D01*
X13856Y18563D01*
X14067Y18774D01*
X14366Y18774D01*
X14577Y18563D01*
X14577Y18264D01*
X14366Y18053D01*
X14067Y18053D01*
G37*
%LPD*%
%LPC*%
G36*
X31067Y18053D02*
X31067Y18053D01*
X30856Y18264D01*
X30856Y18563D01*
X31067Y18774D01*
X31366Y18774D01*
X31577Y18563D01*
X31577Y18264D01*
X31366Y18053D01*
X31067Y18053D01*
G37*
%LPD*%
%LPC*%
G36*
X27067Y18053D02*
X27067Y18053D01*
X26856Y18264D01*
X26856Y18563D01*
X27067Y18774D01*
X27366Y18774D01*
X27577Y18563D01*
X27577Y18264D01*
X27366Y18053D01*
X27067Y18053D01*
G37*
%LPD*%
%LPC*%
G36*
X25067Y18053D02*
X25067Y18053D01*
X24856Y18264D01*
X24856Y18563D01*
X25067Y18774D01*
X25366Y18774D01*
X25577Y18563D01*
X25577Y18264D01*
X25366Y18053D01*
X25067Y18053D01*
G37*
%LPD*%
%LPC*%
G36*
X5681Y12183D02*
X5681Y12183D01*
X5564Y12231D01*
X5475Y12320D01*
X5427Y12437D01*
X5427Y12563D01*
X5475Y12680D01*
X5564Y12769D01*
X5681Y12817D01*
X5807Y12817D01*
X5924Y12769D01*
X6013Y12680D01*
X6061Y12563D01*
X6061Y12437D01*
X6013Y12320D01*
X5924Y12231D01*
X5807Y12183D01*
X5681Y12183D01*
G37*
%LPD*%
%LPC*%
G36*
X33690Y7119D02*
X33690Y7119D01*
X33631Y7129D01*
X33574Y7147D01*
X33520Y7174D01*
X33472Y7210D01*
X33430Y7252D01*
X33394Y7300D01*
X33367Y7354D01*
X33349Y7411D01*
X33344Y7441D01*
X33941Y7441D01*
X33941Y7119D01*
X33690Y7119D01*
G37*
%LPD*%
%LPC*%
G36*
X33344Y7559D02*
X33344Y7559D01*
X33349Y7589D01*
X33367Y7646D01*
X33394Y7700D01*
X33430Y7748D01*
X33472Y7790D01*
X33520Y7826D01*
X33574Y7853D01*
X33631Y7871D01*
X33690Y7881D01*
X33941Y7881D01*
X33941Y7559D01*
X33344Y7559D01*
G37*
%LPD*%
%LPC*%
G36*
X2919Y650D02*
X2919Y650D01*
X2926Y697D01*
X2948Y765D01*
X2981Y829D01*
X3023Y887D01*
X3074Y938D01*
X3131Y980D01*
X3195Y1012D01*
X3263Y1034D01*
X3311Y1042D01*
X3311Y650D01*
X2919Y650D01*
G37*
%LPD*%
%LPC*%
G36*
X169Y630D02*
X169Y630D01*
X176Y677D01*
X198Y745D01*
X231Y809D01*
X273Y867D01*
X324Y918D01*
X381Y960D01*
X445Y992D01*
X513Y1014D01*
X561Y1022D01*
X561Y630D01*
X169Y630D01*
G37*
%LPD*%
%LPC*%
G36*
X679Y630D02*
X679Y630D01*
X679Y1022D01*
X727Y1014D01*
X795Y992D01*
X859Y960D01*
X916Y918D01*
X967Y867D01*
X1009Y809D01*
X1042Y745D01*
X1064Y677D01*
X1071Y630D01*
X679Y630D01*
G37*
%LPD*%
%LPC*%
G36*
X3816Y17473D02*
X3816Y17473D01*
X3816Y17579D01*
X4051Y17814D01*
X4157Y17814D01*
X4157Y17473D01*
X3816Y17473D01*
G37*
%LPD*%
%LPC*%
G36*
X3816Y18473D02*
X3816Y18473D01*
X3816Y18579D01*
X4051Y18814D01*
X4157Y18814D01*
X4157Y18473D01*
X3816Y18473D01*
G37*
%LPD*%
%LPC*%
G36*
X31816Y18473D02*
X31816Y18473D01*
X31816Y18579D01*
X32051Y18814D01*
X32157Y18814D01*
X32157Y18473D01*
X31816Y18473D01*
G37*
%LPD*%
%LPC*%
G36*
X31816Y17473D02*
X31816Y17473D01*
X31816Y17579D01*
X32051Y17814D01*
X32157Y17814D01*
X32157Y17473D01*
X31816Y17473D01*
G37*
%LPD*%
%LPC*%
G36*
X4276Y18473D02*
X4276Y18473D01*
X4276Y18814D01*
X4383Y18814D01*
X4617Y18579D01*
X4617Y18473D01*
X4276Y18473D01*
G37*
%LPD*%
%LPC*%
G36*
X32276Y18473D02*
X32276Y18473D01*
X32276Y18814D01*
X32383Y18814D01*
X32617Y18579D01*
X32617Y18473D01*
X32276Y18473D01*
G37*
%LPD*%
%LPC*%
G36*
X32276Y17473D02*
X32276Y17473D01*
X32276Y17814D01*
X32383Y17814D01*
X32617Y17579D01*
X32617Y17473D01*
X32276Y17473D01*
G37*
%LPD*%
%LPC*%
G36*
X4276Y17473D02*
X4276Y17473D01*
X4276Y17814D01*
X4383Y17814D01*
X4617Y17579D01*
X4617Y17473D01*
X4276Y17473D01*
G37*
%LPD*%
%LPC*%
G36*
X32051Y17013D02*
X32051Y17013D01*
X31816Y17247D01*
X31816Y17354D01*
X32157Y17354D01*
X32157Y17013D01*
X32051Y17013D01*
G37*
%LPD*%
%LPC*%
G36*
X4051Y17013D02*
X4051Y17013D01*
X3816Y17247D01*
X3816Y17354D01*
X4157Y17354D01*
X4157Y17013D01*
X4051Y17013D01*
G37*
%LPD*%
%LPC*%
G36*
X4051Y18013D02*
X4051Y18013D01*
X3816Y18247D01*
X3816Y18354D01*
X4157Y18354D01*
X4157Y18013D01*
X4051Y18013D01*
G37*
%LPD*%
%LPC*%
G36*
X32051Y18013D02*
X32051Y18013D01*
X31816Y18247D01*
X31816Y18354D01*
X32157Y18354D01*
X32157Y18013D01*
X32051Y18013D01*
G37*
%LPD*%
%LPC*%
G36*
X4276Y18013D02*
X4276Y18013D01*
X4276Y18354D01*
X4617Y18354D01*
X4617Y18247D01*
X4383Y18013D01*
X4276Y18013D01*
G37*
%LPD*%
%LPC*%
G36*
X32276Y18013D02*
X32276Y18013D01*
X32276Y18354D01*
X32617Y18354D01*
X32617Y18247D01*
X32383Y18013D01*
X32276Y18013D01*
G37*
%LPD*%
%LPC*%
G36*
X32276Y17013D02*
X32276Y17013D01*
X32276Y17354D01*
X32617Y17354D01*
X32617Y17247D01*
X32383Y17013D01*
X32276Y17013D01*
G37*
%LPD*%
%LPC*%
G36*
X4276Y17013D02*
X4276Y17013D01*
X4276Y17354D01*
X4617Y17354D01*
X4617Y17247D01*
X4383Y17013D01*
X4276Y17013D01*
G37*
%LPD*%
%LPC*%
G36*
X32216Y18413D02*
X32216Y18413D01*
X32216Y18414D01*
X32217Y18414D01*
X32217Y18413D01*
X32216Y18413D01*
G37*
%LPD*%
%LPC*%
G36*
X4216Y18413D02*
X4216Y18413D01*
X4216Y18414D01*
X4217Y18414D01*
X4217Y18413D01*
X4216Y18413D01*
G37*
%LPD*%
%LPC*%
G36*
X32216Y17413D02*
X32216Y17413D01*
X32216Y17414D01*
X32217Y17414D01*
X32217Y17413D01*
X32216Y17413D01*
G37*
%LPD*%
%LPC*%
G36*
X4216Y17413D02*
X4216Y17413D01*
X4216Y17414D01*
X4217Y17414D01*
X4217Y17413D01*
X4216Y17413D01*
G37*
%LPD*%
D10*
X-5906Y0D02*
X35433Y0D01*
X35433Y19685D01*
X-5906Y19685D01*
X-5906Y0D01*
X21473Y4233D02*
X21475Y4281D01*
X21481Y4329D01*
X21491Y4376D01*
X21504Y4422D01*
X21522Y4467D01*
X21542Y4511D01*
X21567Y4553D01*
X21595Y4592D01*
X21625Y4629D01*
X21659Y4663D01*
X21696Y4695D01*
X21734Y4724D01*
X21775Y4749D01*
X21818Y4771D01*
X21863Y4789D01*
X21909Y4803D01*
X21956Y4814D01*
X22004Y4821D01*
X22052Y4824D01*
X22100Y4823D01*
X22148Y4818D01*
X22196Y4809D01*
X22242Y4797D01*
X22287Y4780D01*
X22331Y4760D01*
X22373Y4737D01*
X22413Y4710D01*
X22451Y4680D01*
X22486Y4647D01*
X22518Y4611D01*
X22548Y4573D01*
X22574Y4532D01*
X22596Y4489D01*
X22616Y4445D01*
X22631Y4400D01*
X22643Y4353D01*
X22651Y4305D01*
X22655Y4257D01*
X22655Y4209D01*
X22651Y4161D01*
X22643Y4113D01*
X22631Y4066D01*
X22616Y4021D01*
X22596Y3977D01*
X22574Y3934D01*
X22548Y3893D01*
X22518Y3855D01*
X22486Y3819D01*
X22451Y3786D01*
X22413Y3756D01*
X22373Y3729D01*
X22331Y3706D01*
X22287Y3686D01*
X22242Y3669D01*
X22196Y3657D01*
X22148Y3648D01*
X22100Y3643D01*
X22052Y3642D01*
X22004Y3645D01*
X21956Y3652D01*
X21909Y3663D01*
X21863Y3677D01*
X21818Y3695D01*
X21775Y3717D01*
X21734Y3742D01*
X21696Y3771D01*
X21659Y3803D01*
X21625Y3837D01*
X21595Y3874D01*
X21567Y3913D01*
X21542Y3955D01*
X21522Y3999D01*
X21504Y4044D01*
X21491Y4090D01*
X21481Y4137D01*
X21475Y4185D01*
X21473Y4233D01*
X31728Y12500D02*
X31730Y12535D01*
X31736Y12570D01*
X31746Y12604D01*
X31759Y12637D01*
X31776Y12668D01*
X31797Y12696D01*
X31820Y12723D01*
X31847Y12746D01*
X31875Y12767D01*
X31906Y12784D01*
X31939Y12797D01*
X31973Y12807D01*
X32008Y12813D01*
X32043Y12815D01*
X32078Y12813D01*
X32113Y12807D01*
X32147Y12797D01*
X32180Y12784D01*
X32211Y12767D01*
X32239Y12746D01*
X32266Y12723D01*
X32289Y12696D01*
X32310Y12668D01*
X32327Y12637D01*
X32340Y12604D01*
X32350Y12570D01*
X32356Y12535D01*
X32358Y12500D01*
X32356Y12465D01*
X32350Y12430D01*
X32340Y12396D01*
X32327Y12363D01*
X32310Y12332D01*
X32289Y12304D01*
X32266Y12277D01*
X32239Y12254D01*
X32211Y12233D01*
X32180Y12216D01*
X32147Y12203D01*
X32113Y12193D01*
X32078Y12187D01*
X32043Y12185D01*
X32008Y12187D01*
X31973Y12193D01*
X31939Y12203D01*
X31906Y12216D01*
X31875Y12233D01*
X31847Y12254D01*
X31820Y12277D01*
X31797Y12304D01*
X31776Y12332D01*
X31759Y12363D01*
X31746Y12396D01*
X31736Y12430D01*
X31730Y12465D01*
X31728Y12500D01*
X5527Y12500D02*
X5529Y12529D01*
X5535Y12557D01*
X5544Y12585D01*
X5557Y12611D01*
X5574Y12634D01*
X5593Y12656D01*
X5615Y12675D01*
X5640Y12690D01*
X5666Y12703D01*
X5694Y12711D01*
X5722Y12716D01*
X5751Y12717D01*
X5780Y12714D01*
X5808Y12707D01*
X5835Y12697D01*
X5861Y12683D01*
X5884Y12666D01*
X5905Y12646D01*
X5923Y12623D01*
X5938Y12598D01*
X5949Y12571D01*
X5957Y12543D01*
X5961Y12514D01*
X5961Y12486D01*
X5957Y12457D01*
X5949Y12429D01*
X5938Y12402D01*
X5923Y12377D01*
X5905Y12354D01*
X5884Y12334D01*
X5861Y12317D01*
X5835Y12303D01*
X5808Y12293D01*
X5780Y12286D01*
X5751Y12283D01*
X5722Y12284D01*
X5694Y12289D01*
X5666Y12297D01*
X5640Y12310D01*
X5615Y12325D01*
X5593Y12344D01*
X5574Y12366D01*
X5557Y12389D01*
X5544Y12415D01*
X5535Y12443D01*
X5529Y12471D01*
X5527Y12500D01*
D11*
X3217Y17413D03*
X3217Y18413D03*
X4217Y17413D03*
X4217Y18413D03*
X5217Y17413D03*
X5217Y18413D03*
X6217Y17413D03*
X6217Y18413D03*
X7217Y17413D03*
X7217Y18413D03*
X8217Y17413D03*
X8217Y18413D03*
X9217Y17413D03*
X9217Y18413D03*
X10217Y17413D03*
X10217Y18413D03*
X11217Y17413D03*
X11217Y18413D03*
X12217Y17413D03*
X12217Y18413D03*
X13217Y17413D03*
X13217Y18413D03*
X14217Y17413D03*
X14217Y18413D03*
X15217Y17413D03*
X15217Y18413D03*
X16217Y17413D03*
X16217Y18413D03*
X17217Y17413D03*
X17217Y18413D03*
X18217Y17413D03*
X18217Y18413D03*
X19217Y17413D03*
X19217Y18413D03*
X20217Y17413D03*
X20217Y18413D03*
X21217Y17413D03*
X21217Y18413D03*
X22217Y17413D03*
X22217Y18413D03*
X23217Y17413D03*
X23217Y18413D03*
X24217Y17413D03*
X24217Y18413D03*
X25217Y17413D03*
X25217Y18413D03*
X26217Y17413D03*
X26217Y18413D03*
X27217Y17413D03*
X27217Y18413D03*
X28217Y17413D03*
X28217Y18413D03*
X29217Y17413D03*
X29217Y18413D03*
X30217Y17413D03*
X30217Y18413D03*
X31217Y17413D03*
X31217Y18413D03*
X32217Y17413D03*
X32217Y18413D03*
D12*
X620Y571D03*
X3370Y591D03*
D13*
X33720Y7500D02*
X34280Y7500D01*
X34280Y8500D02*
X33720Y8500D01*
X33720Y9500D02*
X34280Y9500D01*
D14*
X34130Y12432D02*
X34730Y12432D01*
X34730Y13432D02*
X34130Y13432D01*
D15*
X7250Y9500D03*
D16*
X27600Y2250D02*
X30500Y2250D01*
X27600Y2250D02*
X26500Y2250D01*
D15*
X30750Y1750D03*
D16*
X30750Y2000D01*
X30500Y2250D01*
D17*
X7299Y9451D02*
X7250Y9500D01*
D18*
X7299Y8066D03*
D17*
X7299Y9451D01*
D18*
X-4185Y3638D03*
D19*
X-2362Y3638D01*
X-2051Y3949D02*
X-1862Y3949D01*
X-1264Y4547D01*
X-315Y13610D02*
X-315Y13720D01*
D18*
X-315Y13720D03*
D19*
X-2051Y3949D02*
X-2362Y3638D01*
X-1264Y4547D02*
X-1264Y12661D01*
X-315Y13610D01*
D15*
X27700Y1700D03*
D20*
X27700Y2150D01*
X27600Y2250D01*
D15*
X24600Y1800D03*
D19*
X24750Y2250D02*
X26500Y2250D01*
X24750Y2250D02*
X24600Y2100D01*
X24600Y1800D01*
X-838Y3638D02*
X-2362Y3638D01*
X5500Y2900D02*
X7200Y1200D01*
X24200Y1200D01*
X24600Y1600D02*
X24600Y1800D01*
X-100Y2900D02*
X-838Y3638D01*
X-100Y2900D02*
X3500Y2900D01*
X5500Y2900D01*
X24200Y1200D02*
X24600Y1600D01*
D21*
X3500Y2900D03*
D22*
X33530Y13432D02*
X34430Y13432D01*
D19*
X33530Y13432D02*
X32830Y12732D01*
X32830Y10000D01*
X9632Y9366D02*
X9632Y15198D01*
X9499Y15332D01*
D16*
X5333Y15332D02*
X5233Y15232D01*
D15*
X5233Y15232D03*
D19*
X9632Y9366D02*
X12765Y6233D01*
X9499Y15332D02*
X5333Y15332D01*
D18*
X-5150Y9917D03*
D23*
X-5150Y10610D01*
X-5150Y14134D01*
X-4142Y15142D01*
X-972Y15142D01*
X1429Y17543D01*
X1429Y17709D01*
X1634Y17709D01*
D18*
X1634Y17709D03*
D24*
X-5150Y10610D02*
X-5020Y10480D01*
X-2535Y10480D01*
X-2504Y10449D01*
X-2504Y10429D01*
D18*
X-2504Y10429D03*
D19*
X31400Y8570D02*
X32830Y10000D01*
X31400Y8570D02*
X31400Y7600D01*
X30800Y7000D01*
X28000Y6700D02*
X27500Y6200D01*
X20300Y6200D01*
X30100Y7000D02*
X30800Y7000D01*
X30100Y7000D02*
X29800Y6700D01*
X28000Y6700D01*
X20300Y6200D02*
X20267Y6233D01*
X12765Y6233D01*
D18*
X-2041Y4573D03*
D23*
X-2041Y13778D01*
X-2346Y14083D02*
X-3043Y14083D01*
D18*
X-3043Y14083D03*
D23*
X-2346Y14083D02*
X-2041Y13778D01*
D18*
X19598Y13132D03*
X20665Y12799D03*
X8532Y16132D03*
D15*
X28700Y5900D03*
D19*
X34000Y9500D02*
X34750Y8750D01*
X34750Y1250D01*
D15*
X4000Y2000D03*
D22*
X34000Y9500D02*
X34000Y12002D01*
X34430Y12432D01*
D19*
X4000Y2000D02*
X4000Y466D01*
X32747Y1250D02*
X34750Y1250D01*
X4233Y233D02*
X4000Y466D01*
X4233Y233D02*
X31730Y233D01*
X32747Y1250D01*
X4000Y2000D02*
X1400Y2000D01*
D15*
X1000Y2400D03*
D19*
X1400Y2000D01*
D15*
X23000Y3000D03*
D20*
X24900Y3000D01*
X25400Y2500D01*
X33000Y2500D01*
X33100Y2600D01*
X33100Y2700D01*
D15*
X33100Y2700D03*
D20*
X15587Y18413D02*
X15217Y18413D01*
X15587Y18413D02*
X15750Y18250D01*
X15750Y17000D01*
X17500Y16500D02*
X17750Y16250D01*
X18500Y16250D01*
X19250Y15500D01*
X21000Y15500D01*
X22000Y13000D02*
X21750Y12750D01*
D15*
X21750Y12750D03*
D20*
X16250Y16500D02*
X15750Y17000D01*
X16250Y16500D02*
X17500Y16500D01*
X21000Y15500D02*
X22000Y14500D01*
X22000Y13000D01*
X12750Y13250D02*
X12750Y17947D01*
X13217Y18413D01*
D15*
X12500Y12250D03*
D20*
X12500Y13000D01*
X12750Y13250D01*
D15*
X11750Y12750D03*
D20*
X11750Y17947D01*
X12217Y18413D01*
D15*
X10750Y13000D03*
D20*
X10750Y18000D01*
X11163Y18413D01*
X11217Y18413D01*
X10217Y17413D02*
X10217Y12033D01*
X12250Y10000D01*
D15*
X19750Y10000D03*
D20*
X12250Y10000D01*
X11217Y11783D02*
X11217Y17413D01*
X11217Y11783D02*
X12250Y10750D01*
X20250Y10750D01*
D15*
X20000Y8500D03*
D20*
X20250Y8750D01*
X20250Y10750D01*
X12217Y11533D02*
X12217Y17413D01*
X12217Y11533D02*
X12750Y11000D01*
X20500Y11000D01*
D15*
X20500Y8250D03*
D20*
X20500Y11000D01*
X13217Y12500D02*
X13217Y17413D01*
X13217Y12500D02*
X13217Y11533D01*
X20750Y11250D02*
X20750Y9000D01*
X13500Y11250D02*
X13217Y11533D01*
X13500Y11250D02*
X20750Y11250D01*
D15*
X20750Y9000D03*
D25*
X13217Y12500D03*
D20*
X13750Y16947D02*
X14217Y17413D01*
X13750Y11750D02*
X14000Y11500D01*
X21250Y11500D01*
X21250Y9000D01*
X13750Y11750D02*
X13750Y16947D01*
D15*
X21250Y9000D03*
D20*
X15217Y16717D02*
X15217Y17413D01*
X15217Y16717D02*
X15000Y16500D01*
X14250Y16500D01*
X14250Y12000D01*
X14500Y11750D01*
X21750Y11750D01*
D15*
X21750Y9750D03*
D20*
X21750Y11750D01*
X16880Y16750D02*
X16217Y17413D01*
X17500Y16750D02*
X17750Y16500D01*
X18500Y16500D01*
X19250Y15750D01*
X21000Y15750D01*
X22250Y14500D01*
X17500Y16750D02*
X16880Y16750D01*
D15*
X22250Y9250D03*
D20*
X22250Y14500D01*
X17880Y16750D02*
X17217Y17413D01*
X18500Y16750D02*
X19250Y16000D01*
X21000Y16000D01*
X22500Y14500D01*
X22500Y9750D01*
X18500Y16750D02*
X17880Y16750D01*
D15*
X22500Y9750D03*
D20*
X19380Y16250D02*
X18217Y17413D01*
X19380Y16250D02*
X21000Y16250D01*
X23000Y14250D01*
D15*
X23000Y9250D03*
D20*
X23000Y14250D01*
X20130Y16500D02*
X19217Y17413D01*
X20130Y16500D02*
X21250Y16500D01*
X23250Y14500D01*
X23250Y9750D01*
D15*
X23250Y9750D03*
D20*
X20880Y16750D02*
X20217Y17413D01*
X20880Y16750D02*
X21500Y16750D01*
X23500Y14750D01*
D15*
X23500Y9000D03*
D20*
X23500Y14750D01*
X24000Y14630D02*
X21217Y17413D01*
X24000Y14630D02*
X24000Y9750D01*
D15*
X24000Y9750D03*
D20*
X24250Y15380D02*
X22217Y17413D01*
X24250Y15380D02*
X24250Y9000D01*
D15*
X24250Y9000D03*
D20*
X24000Y16630D02*
X23217Y17413D01*
X24000Y16630D02*
X24000Y16250D01*
X24750Y15500D02*
X24750Y9750D01*
X24750Y15500D02*
X24000Y16250D01*
D15*
X24750Y9750D03*
D20*
X28250Y9200D02*
X28250Y15150D01*
X27217Y16183D02*
X27217Y17413D01*
X27217Y16183D02*
X28250Y15150D01*
X28250Y9200D02*
X28450Y9000D01*
X28500Y9000D01*
D15*
X28500Y9000D03*
D20*
X26217Y16783D02*
X26217Y17413D01*
X26217Y16783D02*
X28000Y15000D01*
D15*
X27800Y8700D03*
D20*
X28000Y8900D01*
X28000Y15000D01*
X25750Y16750D02*
X25250Y16750D01*
X25217Y16783D01*
X25217Y17413D01*
X25750Y16750D02*
X27500Y15000D01*
D15*
X27000Y8400D03*
D20*
X27500Y8900D01*
X27500Y15000D01*
X24250Y17380D02*
X24217Y17413D01*
X24250Y17380D02*
X24250Y16750D01*
X24500Y16500D01*
X25500Y16500D01*
X27250Y14750D01*
D15*
X26900Y9000D03*
D20*
X27250Y9350D01*
X27250Y14750D01*
D18*
X8882Y11799D03*
D17*
X8882Y8774D01*
X6772Y6664D01*
X1706Y6664D01*
X1601Y6560D01*
D18*
X1523Y6592D03*
D17*
X1601Y6560D01*
D18*
X9182Y11799D03*
D17*
X9182Y8891D01*
X6826Y6534D01*
D18*
X1816Y6449D03*
D17*
X1901Y6534D02*
X6826Y6534D01*
X1901Y6534D02*
X1816Y6449D01*
D18*
X467Y4750D03*
D17*
X467Y4665D01*
X365Y4665D01*
X365Y14372D01*
X1993Y16000D01*
X5426Y16000D01*
X5764Y16338D01*
X5764Y16632D01*
X6217Y17084D01*
X6217Y17413D01*
D18*
X467Y4450D03*
D17*
X467Y4535D01*
X235Y4535D01*
X235Y14425D01*
X1940Y16130D01*
X5373Y16130D01*
X5634Y16392D01*
X5634Y16665D01*
X5217Y17083D02*
X5217Y17413D01*
X5217Y17083D02*
X5634Y16665D01*
D15*
X29600Y7200D03*
D20*
X28000Y7200D01*
X27900Y7300D01*
X27619Y7300D01*
X27419Y7100D01*
D15*
X27419Y7100D03*
X29500Y8000D03*
D20*
X29300Y7800D01*
X27300Y7800D01*
X27200Y7700D01*
D15*
X27200Y7700D03*
X27800Y3700D03*
D20*
X27800Y5500D01*
D15*
X30500Y6500D03*
D20*
X28800Y6500D02*
X27800Y5500D01*
X28800Y6500D02*
X30500Y6500D01*
D15*
X29600Y6100D03*
D20*
X29600Y5300D01*
X28300Y3100D02*
X28200Y3100D01*
D15*
X28200Y3100D03*
D20*
X29300Y5000D02*
X29600Y5300D01*
X29300Y5000D02*
X29300Y4100D01*
X28300Y3100D01*
M02*
