G04 EAGLE Gerber RS-274X export*
G75*
%MOIN*%
%FSLAX34Y34*%
%LPD*%
%INBottom solder paste for stencil*%
%IPPOS*%
%AMOC8*
5,1,8,0,0,1.08239X$1,22.5*%
G01*
%ADD10C,0.000000*%


D10*
X-5906Y0D02*
X35433Y0D01*
X35433Y19685D01*
X-5906Y19685D01*
X-5906Y0D01*
X21473Y4233D02*
X21475Y4281D01*
X21481Y4329D01*
X21491Y4376D01*
X21504Y4422D01*
X21522Y4467D01*
X21542Y4511D01*
X21567Y4553D01*
X21595Y4592D01*
X21625Y4629D01*
X21659Y4663D01*
X21696Y4695D01*
X21734Y4724D01*
X21775Y4749D01*
X21818Y4771D01*
X21863Y4789D01*
X21909Y4803D01*
X21956Y4814D01*
X22004Y4821D01*
X22052Y4824D01*
X22100Y4823D01*
X22148Y4818D01*
X22196Y4809D01*
X22242Y4797D01*
X22287Y4780D01*
X22331Y4760D01*
X22373Y4737D01*
X22413Y4710D01*
X22451Y4680D01*
X22486Y4647D01*
X22518Y4611D01*
X22548Y4573D01*
X22574Y4532D01*
X22596Y4489D01*
X22616Y4445D01*
X22631Y4400D01*
X22643Y4353D01*
X22651Y4305D01*
X22655Y4257D01*
X22655Y4209D01*
X22651Y4161D01*
X22643Y4113D01*
X22631Y4066D01*
X22616Y4021D01*
X22596Y3977D01*
X22574Y3934D01*
X22548Y3893D01*
X22518Y3855D01*
X22486Y3819D01*
X22451Y3786D01*
X22413Y3756D01*
X22373Y3729D01*
X22331Y3706D01*
X22287Y3686D01*
X22242Y3669D01*
X22196Y3657D01*
X22148Y3648D01*
X22100Y3643D01*
X22052Y3642D01*
X22004Y3645D01*
X21956Y3652D01*
X21909Y3663D01*
X21863Y3677D01*
X21818Y3695D01*
X21775Y3717D01*
X21734Y3742D01*
X21696Y3771D01*
X21659Y3803D01*
X21625Y3837D01*
X21595Y3874D01*
X21567Y3913D01*
X21542Y3955D01*
X21522Y3999D01*
X21504Y4044D01*
X21491Y4090D01*
X21481Y4137D01*
X21475Y4185D01*
X21473Y4233D01*
X31728Y12500D02*
X31730Y12535D01*
X31736Y12570D01*
X31746Y12604D01*
X31759Y12637D01*
X31776Y12668D01*
X31797Y12696D01*
X31820Y12723D01*
X31847Y12746D01*
X31875Y12767D01*
X31906Y12784D01*
X31939Y12797D01*
X31973Y12807D01*
X32008Y12813D01*
X32043Y12815D01*
X32078Y12813D01*
X32113Y12807D01*
X32147Y12797D01*
X32180Y12784D01*
X32211Y12767D01*
X32239Y12746D01*
X32266Y12723D01*
X32289Y12696D01*
X32310Y12668D01*
X32327Y12637D01*
X32340Y12604D01*
X32350Y12570D01*
X32356Y12535D01*
X32358Y12500D01*
X32356Y12465D01*
X32350Y12430D01*
X32340Y12396D01*
X32327Y12363D01*
X32310Y12332D01*
X32289Y12304D01*
X32266Y12277D01*
X32239Y12254D01*
X32211Y12233D01*
X32180Y12216D01*
X32147Y12203D01*
X32113Y12193D01*
X32078Y12187D01*
X32043Y12185D01*
X32008Y12187D01*
X31973Y12193D01*
X31939Y12203D01*
X31906Y12216D01*
X31875Y12233D01*
X31847Y12254D01*
X31820Y12277D01*
X31797Y12304D01*
X31776Y12332D01*
X31759Y12363D01*
X31746Y12396D01*
X31736Y12430D01*
X31730Y12465D01*
X31728Y12500D01*
X5527Y12500D02*
X5529Y12529D01*
X5535Y12557D01*
X5544Y12585D01*
X5557Y12611D01*
X5574Y12634D01*
X5593Y12656D01*
X5615Y12675D01*
X5640Y12690D01*
X5666Y12703D01*
X5694Y12711D01*
X5722Y12716D01*
X5751Y12717D01*
X5780Y12714D01*
X5808Y12707D01*
X5835Y12697D01*
X5861Y12683D01*
X5884Y12666D01*
X5905Y12646D01*
X5923Y12623D01*
X5938Y12598D01*
X5949Y12571D01*
X5957Y12543D01*
X5961Y12514D01*
X5961Y12486D01*
X5957Y12457D01*
X5949Y12429D01*
X5938Y12402D01*
X5923Y12377D01*
X5905Y12354D01*
X5884Y12334D01*
X5861Y12317D01*
X5835Y12303D01*
X5808Y12293D01*
X5780Y12286D01*
X5751Y12283D01*
X5722Y12284D01*
X5694Y12289D01*
X5666Y12297D01*
X5640Y12310D01*
X5615Y12325D01*
X5593Y12344D01*
X5574Y12366D01*
X5557Y12389D01*
X5544Y12415D01*
X5535Y12443D01*
X5529Y12471D01*
X5527Y12500D01*
M02*
