G04 EAGLE Gerber RS-274X export*
G75*
%MOMM*%
%FSLAX34Y34*%
%LPD*%
%INTop silk*%
%IPPOS*%
%AMOC8*
5,1,8,0,0,1.08239X$1,22.5*%
G01*
%ADD10C,0.000000*%
%ADD11C,0.101600*%
%ADD12C,0.152400*%
%ADD13C,0.076200*%


D10*
X15240Y15240D02*
X152400Y15240D01*
X152400Y195580D01*
X15240Y195580D01*
X15240Y15240D01*
X21850Y165000D02*
X21854Y165337D01*
X21867Y165675D01*
X21887Y166012D01*
X21916Y166348D01*
X21953Y166683D01*
X21999Y167018D01*
X22052Y167351D01*
X22114Y167682D01*
X22184Y168013D01*
X22262Y168341D01*
X22348Y168667D01*
X22442Y168991D01*
X22544Y169313D01*
X22654Y169632D01*
X22771Y169949D01*
X22897Y170262D01*
X23030Y170572D01*
X23170Y170879D01*
X23318Y171182D01*
X23474Y171482D01*
X23636Y171777D01*
X23806Y172069D01*
X23983Y172356D01*
X24167Y172639D01*
X24358Y172917D01*
X24556Y173191D01*
X24760Y173459D01*
X24971Y173723D01*
X25188Y173981D01*
X25412Y174234D01*
X25642Y174481D01*
X25877Y174723D01*
X26119Y174958D01*
X26366Y175188D01*
X26619Y175412D01*
X26877Y175629D01*
X27141Y175840D01*
X27409Y176044D01*
X27683Y176242D01*
X27961Y176433D01*
X28244Y176617D01*
X28531Y176794D01*
X28823Y176964D01*
X29118Y177126D01*
X29418Y177282D01*
X29721Y177430D01*
X30028Y177570D01*
X30338Y177703D01*
X30651Y177829D01*
X30968Y177946D01*
X31287Y178056D01*
X31609Y178158D01*
X31933Y178252D01*
X32259Y178338D01*
X32587Y178416D01*
X32918Y178486D01*
X33249Y178548D01*
X33582Y178601D01*
X33917Y178647D01*
X34252Y178684D01*
X34588Y178713D01*
X34925Y178733D01*
X35263Y178746D01*
X35600Y178750D01*
X35937Y178746D01*
X36275Y178733D01*
X36612Y178713D01*
X36948Y178684D01*
X37283Y178647D01*
X37618Y178601D01*
X37951Y178548D01*
X38282Y178486D01*
X38613Y178416D01*
X38941Y178338D01*
X39267Y178252D01*
X39591Y178158D01*
X39913Y178056D01*
X40232Y177946D01*
X40549Y177829D01*
X40862Y177703D01*
X41172Y177570D01*
X41479Y177430D01*
X41782Y177282D01*
X42082Y177126D01*
X42377Y176964D01*
X42669Y176794D01*
X42956Y176617D01*
X43239Y176433D01*
X43517Y176242D01*
X43791Y176044D01*
X44059Y175840D01*
X44323Y175629D01*
X44581Y175412D01*
X44834Y175188D01*
X45081Y174958D01*
X45323Y174723D01*
X45558Y174481D01*
X45788Y174234D01*
X46012Y173981D01*
X46229Y173723D01*
X46440Y173459D01*
X46644Y173191D01*
X46842Y172917D01*
X47033Y172639D01*
X47217Y172356D01*
X47394Y172069D01*
X47564Y171777D01*
X47726Y171482D01*
X47882Y171182D01*
X48030Y170879D01*
X48170Y170572D01*
X48303Y170262D01*
X48429Y169949D01*
X48546Y169632D01*
X48656Y169313D01*
X48758Y168991D01*
X48852Y168667D01*
X48938Y168341D01*
X49016Y168013D01*
X49086Y167682D01*
X49148Y167351D01*
X49201Y167018D01*
X49247Y166683D01*
X49284Y166348D01*
X49313Y166012D01*
X49333Y165675D01*
X49346Y165337D01*
X49350Y165000D01*
X49346Y164663D01*
X49333Y164325D01*
X49313Y163988D01*
X49284Y163652D01*
X49247Y163317D01*
X49201Y162982D01*
X49148Y162649D01*
X49086Y162318D01*
X49016Y161987D01*
X48938Y161659D01*
X48852Y161333D01*
X48758Y161009D01*
X48656Y160687D01*
X48546Y160368D01*
X48429Y160051D01*
X48303Y159738D01*
X48170Y159428D01*
X48030Y159121D01*
X47882Y158818D01*
X47726Y158518D01*
X47564Y158223D01*
X47394Y157931D01*
X47217Y157644D01*
X47033Y157361D01*
X46842Y157083D01*
X46644Y156809D01*
X46440Y156541D01*
X46229Y156277D01*
X46012Y156019D01*
X45788Y155766D01*
X45558Y155519D01*
X45323Y155277D01*
X45081Y155042D01*
X44834Y154812D01*
X44581Y154588D01*
X44323Y154371D01*
X44059Y154160D01*
X43791Y153956D01*
X43517Y153758D01*
X43239Y153567D01*
X42956Y153383D01*
X42669Y153206D01*
X42377Y153036D01*
X42082Y152874D01*
X41782Y152718D01*
X41479Y152570D01*
X41172Y152430D01*
X40862Y152297D01*
X40549Y152171D01*
X40232Y152054D01*
X39913Y151944D01*
X39591Y151842D01*
X39267Y151748D01*
X38941Y151662D01*
X38613Y151584D01*
X38282Y151514D01*
X37951Y151452D01*
X37618Y151399D01*
X37283Y151353D01*
X36948Y151316D01*
X36612Y151287D01*
X36275Y151267D01*
X35937Y151254D01*
X35600Y151250D01*
X35263Y151254D01*
X34925Y151267D01*
X34588Y151287D01*
X34252Y151316D01*
X33917Y151353D01*
X33582Y151399D01*
X33249Y151452D01*
X32918Y151514D01*
X32587Y151584D01*
X32259Y151662D01*
X31933Y151748D01*
X31609Y151842D01*
X31287Y151944D01*
X30968Y152054D01*
X30651Y152171D01*
X30338Y152297D01*
X30028Y152430D01*
X29721Y152570D01*
X29418Y152718D01*
X29118Y152874D01*
X28823Y153036D01*
X28531Y153206D01*
X28244Y153383D01*
X27961Y153567D01*
X27683Y153758D01*
X27409Y153956D01*
X27141Y154160D01*
X26877Y154371D01*
X26619Y154588D01*
X26366Y154812D01*
X26119Y155042D01*
X25877Y155277D01*
X25642Y155519D01*
X25412Y155766D01*
X25188Y156019D01*
X24971Y156277D01*
X24760Y156541D01*
X24556Y156809D01*
X24358Y157083D01*
X24167Y157361D01*
X23983Y157644D01*
X23806Y157931D01*
X23636Y158223D01*
X23474Y158518D01*
X23318Y158818D01*
X23170Y159121D01*
X23030Y159428D01*
X22897Y159738D01*
X22771Y160051D01*
X22654Y160368D01*
X22544Y160687D01*
X22442Y161009D01*
X22348Y161333D01*
X22262Y161659D01*
X22184Y161987D01*
X22114Y162318D01*
X22052Y162649D01*
X21999Y162982D01*
X21953Y163317D01*
X21916Y163652D01*
X21887Y163988D01*
X21867Y164325D01*
X21854Y164663D01*
X21850Y165000D01*
D11*
X51308Y136652D02*
X51308Y124968D01*
X57799Y124968D02*
X51308Y136652D01*
X57799Y136652D02*
X57799Y124968D01*
X63523Y124968D02*
X68715Y124968D01*
X63523Y124968D02*
X63523Y136652D01*
X68715Y136652D01*
X67417Y131459D02*
X63523Y131459D01*
X73575Y131459D02*
X76821Y131459D01*
X76821Y131460D02*
X76934Y131458D01*
X77047Y131452D01*
X77160Y131442D01*
X77273Y131428D01*
X77385Y131411D01*
X77496Y131389D01*
X77606Y131364D01*
X77716Y131334D01*
X77824Y131301D01*
X77931Y131264D01*
X78037Y131224D01*
X78141Y131179D01*
X78244Y131131D01*
X78345Y131080D01*
X78444Y131025D01*
X78541Y130967D01*
X78636Y130905D01*
X78729Y130840D01*
X78819Y130772D01*
X78907Y130701D01*
X78993Y130626D01*
X79076Y130549D01*
X79156Y130469D01*
X79233Y130386D01*
X79308Y130300D01*
X79379Y130212D01*
X79447Y130122D01*
X79512Y130029D01*
X79574Y129934D01*
X79632Y129837D01*
X79687Y129738D01*
X79738Y129637D01*
X79786Y129534D01*
X79831Y129430D01*
X79871Y129324D01*
X79908Y129217D01*
X79941Y129109D01*
X79971Y128999D01*
X79996Y128889D01*
X80018Y128778D01*
X80035Y128666D01*
X80049Y128553D01*
X80059Y128440D01*
X80065Y128327D01*
X80067Y128214D01*
X80065Y128101D01*
X80059Y127988D01*
X80049Y127875D01*
X80035Y127762D01*
X80018Y127650D01*
X79996Y127539D01*
X79971Y127429D01*
X79941Y127319D01*
X79908Y127211D01*
X79871Y127104D01*
X79831Y126998D01*
X79786Y126894D01*
X79738Y126791D01*
X79687Y126690D01*
X79632Y126591D01*
X79574Y126494D01*
X79512Y126399D01*
X79447Y126306D01*
X79379Y126216D01*
X79308Y126128D01*
X79233Y126042D01*
X79156Y125959D01*
X79076Y125879D01*
X78993Y125802D01*
X78907Y125727D01*
X78819Y125656D01*
X78729Y125588D01*
X78636Y125523D01*
X78541Y125461D01*
X78444Y125403D01*
X78345Y125348D01*
X78244Y125297D01*
X78141Y125249D01*
X78037Y125204D01*
X77931Y125164D01*
X77824Y125127D01*
X77716Y125094D01*
X77606Y125064D01*
X77496Y125039D01*
X77385Y125017D01*
X77273Y125000D01*
X77160Y124986D01*
X77047Y124976D01*
X76934Y124970D01*
X76821Y124968D01*
X73575Y124968D01*
X73575Y136652D01*
X76821Y136652D01*
X76922Y136650D01*
X77022Y136644D01*
X77122Y136634D01*
X77222Y136621D01*
X77321Y136603D01*
X77420Y136582D01*
X77517Y136557D01*
X77614Y136528D01*
X77709Y136495D01*
X77803Y136459D01*
X77895Y136419D01*
X77986Y136376D01*
X78075Y136329D01*
X78162Y136279D01*
X78248Y136225D01*
X78331Y136168D01*
X78411Y136108D01*
X78490Y136045D01*
X78566Y135978D01*
X78639Y135909D01*
X78709Y135837D01*
X78777Y135763D01*
X78842Y135686D01*
X78903Y135606D01*
X78962Y135524D01*
X79017Y135440D01*
X79069Y135354D01*
X79118Y135266D01*
X79163Y135176D01*
X79205Y135084D01*
X79243Y134991D01*
X79277Y134896D01*
X79308Y134801D01*
X79335Y134704D01*
X79358Y134606D01*
X79378Y134507D01*
X79393Y134407D01*
X79405Y134307D01*
X79413Y134207D01*
X79417Y134106D01*
X79417Y134006D01*
X79413Y133905D01*
X79405Y133805D01*
X79393Y133705D01*
X79378Y133605D01*
X79358Y133506D01*
X79335Y133408D01*
X79308Y133311D01*
X79277Y133216D01*
X79243Y133121D01*
X79205Y133028D01*
X79163Y132936D01*
X79118Y132846D01*
X79069Y132758D01*
X79017Y132672D01*
X78962Y132588D01*
X78903Y132506D01*
X78842Y132426D01*
X78777Y132349D01*
X78709Y132275D01*
X78639Y132203D01*
X78566Y132134D01*
X78490Y132067D01*
X78411Y132004D01*
X78331Y131944D01*
X78248Y131887D01*
X78162Y131833D01*
X78075Y131783D01*
X77986Y131736D01*
X77895Y131693D01*
X77803Y131653D01*
X77709Y131617D01*
X77614Y131584D01*
X77517Y131555D01*
X77420Y131530D01*
X77321Y131509D01*
X77222Y131491D01*
X77122Y131478D01*
X77022Y131468D01*
X76922Y131462D01*
X76821Y131460D01*
X84910Y136652D02*
X84910Y124968D01*
X84910Y136652D02*
X88155Y136652D01*
X88268Y136650D01*
X88381Y136644D01*
X88494Y136634D01*
X88607Y136620D01*
X88719Y136603D01*
X88830Y136581D01*
X88940Y136556D01*
X89050Y136526D01*
X89158Y136493D01*
X89265Y136456D01*
X89371Y136416D01*
X89475Y136371D01*
X89578Y136323D01*
X89679Y136272D01*
X89778Y136217D01*
X89875Y136159D01*
X89970Y136097D01*
X90063Y136032D01*
X90153Y135964D01*
X90241Y135893D01*
X90327Y135818D01*
X90410Y135741D01*
X90490Y135661D01*
X90567Y135578D01*
X90642Y135492D01*
X90713Y135404D01*
X90781Y135314D01*
X90846Y135221D01*
X90908Y135126D01*
X90966Y135029D01*
X91021Y134930D01*
X91072Y134829D01*
X91120Y134726D01*
X91165Y134622D01*
X91205Y134516D01*
X91242Y134409D01*
X91275Y134301D01*
X91305Y134191D01*
X91330Y134081D01*
X91352Y133970D01*
X91369Y133858D01*
X91383Y133745D01*
X91393Y133632D01*
X91399Y133519D01*
X91401Y133406D01*
X91399Y133293D01*
X91393Y133180D01*
X91383Y133067D01*
X91369Y132954D01*
X91352Y132842D01*
X91330Y132731D01*
X91305Y132621D01*
X91275Y132511D01*
X91242Y132403D01*
X91205Y132296D01*
X91165Y132190D01*
X91120Y132086D01*
X91072Y131983D01*
X91021Y131882D01*
X90966Y131783D01*
X90908Y131686D01*
X90846Y131591D01*
X90781Y131498D01*
X90713Y131408D01*
X90642Y131320D01*
X90567Y131234D01*
X90490Y131151D01*
X90410Y131071D01*
X90327Y130994D01*
X90241Y130919D01*
X90153Y130848D01*
X90063Y130780D01*
X89970Y130715D01*
X89875Y130653D01*
X89778Y130595D01*
X89679Y130540D01*
X89578Y130489D01*
X89475Y130441D01*
X89371Y130396D01*
X89265Y130356D01*
X89158Y130319D01*
X89050Y130286D01*
X88940Y130256D01*
X88830Y130231D01*
X88719Y130209D01*
X88607Y130192D01*
X88494Y130178D01*
X88381Y130168D01*
X88268Y130162D01*
X88155Y130160D01*
X88155Y130161D02*
X84910Y130161D01*
X88804Y130161D02*
X91401Y124968D01*
X95617Y124968D02*
X99511Y136652D01*
X103406Y124968D01*
X102432Y127889D02*
X96590Y127889D01*
X114196Y124968D02*
X114196Y136652D01*
X114196Y124968D02*
X119388Y124968D01*
X126181Y124968D02*
X126181Y136652D01*
X122936Y136652D02*
X129427Y136652D01*
X133985Y136652D02*
X133985Y124968D01*
X133985Y136652D02*
X137230Y136652D01*
X137343Y136650D01*
X137456Y136644D01*
X137569Y136634D01*
X137682Y136620D01*
X137794Y136603D01*
X137905Y136581D01*
X138015Y136556D01*
X138125Y136526D01*
X138233Y136493D01*
X138340Y136456D01*
X138446Y136416D01*
X138550Y136371D01*
X138653Y136323D01*
X138754Y136272D01*
X138853Y136217D01*
X138950Y136159D01*
X139045Y136097D01*
X139138Y136032D01*
X139228Y135964D01*
X139316Y135893D01*
X139402Y135818D01*
X139485Y135741D01*
X139565Y135661D01*
X139642Y135578D01*
X139717Y135492D01*
X139788Y135404D01*
X139856Y135314D01*
X139921Y135221D01*
X139983Y135126D01*
X140041Y135029D01*
X140096Y134930D01*
X140147Y134829D01*
X140195Y134726D01*
X140240Y134622D01*
X140280Y134516D01*
X140317Y134409D01*
X140350Y134301D01*
X140380Y134191D01*
X140405Y134081D01*
X140427Y133970D01*
X140444Y133858D01*
X140458Y133745D01*
X140468Y133632D01*
X140474Y133519D01*
X140476Y133406D01*
X140476Y128214D01*
X140474Y128101D01*
X140468Y127988D01*
X140458Y127875D01*
X140444Y127762D01*
X140427Y127650D01*
X140405Y127539D01*
X140380Y127429D01*
X140350Y127319D01*
X140317Y127211D01*
X140280Y127104D01*
X140240Y126998D01*
X140195Y126894D01*
X140147Y126791D01*
X140096Y126690D01*
X140041Y126591D01*
X139983Y126494D01*
X139921Y126399D01*
X139856Y126306D01*
X139788Y126216D01*
X139717Y126128D01*
X139642Y126042D01*
X139565Y125959D01*
X139485Y125879D01*
X139402Y125802D01*
X139316Y125727D01*
X139228Y125656D01*
X139138Y125588D01*
X139045Y125523D01*
X138950Y125461D01*
X138853Y125403D01*
X138754Y125348D01*
X138653Y125297D01*
X138550Y125249D01*
X138446Y125204D01*
X138340Y125164D01*
X138233Y125127D01*
X138125Y125094D01*
X138015Y125064D01*
X137905Y125039D01*
X137794Y125017D01*
X137682Y125000D01*
X137569Y124986D01*
X137456Y124976D01*
X137343Y124970D01*
X137230Y124968D01*
X133985Y124968D01*
X56501Y105918D02*
X51308Y105918D01*
X51308Y117602D01*
X56501Y117602D01*
X55203Y112409D02*
X51308Y112409D01*
X63374Y105918D02*
X65970Y105918D01*
X63374Y105918D02*
X63275Y105920D01*
X63175Y105926D01*
X63076Y105935D01*
X62978Y105948D01*
X62880Y105965D01*
X62782Y105986D01*
X62686Y106011D01*
X62591Y106039D01*
X62497Y106071D01*
X62404Y106106D01*
X62312Y106145D01*
X62222Y106188D01*
X62134Y106233D01*
X62047Y106283D01*
X61963Y106335D01*
X61880Y106391D01*
X61800Y106449D01*
X61722Y106511D01*
X61647Y106576D01*
X61574Y106644D01*
X61504Y106714D01*
X61436Y106787D01*
X61371Y106862D01*
X61309Y106940D01*
X61251Y107020D01*
X61195Y107103D01*
X61143Y107187D01*
X61093Y107274D01*
X61048Y107362D01*
X61005Y107452D01*
X60966Y107544D01*
X60931Y107637D01*
X60899Y107731D01*
X60871Y107826D01*
X60846Y107922D01*
X60825Y108020D01*
X60808Y108118D01*
X60795Y108216D01*
X60786Y108315D01*
X60780Y108415D01*
X60778Y108514D01*
X60777Y108514D02*
X60777Y115006D01*
X60778Y115006D02*
X60780Y115105D01*
X60786Y115205D01*
X60795Y115304D01*
X60808Y115402D01*
X60825Y115500D01*
X60846Y115598D01*
X60871Y115694D01*
X60899Y115789D01*
X60931Y115883D01*
X60966Y115976D01*
X61005Y116068D01*
X61048Y116158D01*
X61093Y116246D01*
X61143Y116333D01*
X61195Y116417D01*
X61251Y116500D01*
X61309Y116580D01*
X61371Y116658D01*
X61436Y116733D01*
X61504Y116806D01*
X61574Y116876D01*
X61647Y116944D01*
X61722Y117009D01*
X61800Y117071D01*
X61880Y117129D01*
X61963Y117185D01*
X62047Y117237D01*
X62134Y117287D01*
X62222Y117332D01*
X62312Y117375D01*
X62404Y117414D01*
X62496Y117449D01*
X62591Y117481D01*
X62686Y117509D01*
X62782Y117534D01*
X62880Y117555D01*
X62978Y117572D01*
X63076Y117585D01*
X63175Y117594D01*
X63275Y117600D01*
X63374Y117602D01*
X65970Y117602D01*
X72899Y105918D02*
X75495Y105918D01*
X72899Y105918D02*
X72800Y105920D01*
X72700Y105926D01*
X72601Y105935D01*
X72503Y105948D01*
X72405Y105965D01*
X72307Y105986D01*
X72211Y106011D01*
X72116Y106039D01*
X72022Y106071D01*
X71929Y106106D01*
X71837Y106145D01*
X71747Y106188D01*
X71659Y106233D01*
X71572Y106283D01*
X71488Y106335D01*
X71405Y106391D01*
X71325Y106449D01*
X71247Y106511D01*
X71172Y106576D01*
X71099Y106644D01*
X71029Y106714D01*
X70961Y106787D01*
X70896Y106862D01*
X70834Y106940D01*
X70776Y107020D01*
X70720Y107103D01*
X70668Y107187D01*
X70618Y107274D01*
X70573Y107362D01*
X70530Y107452D01*
X70491Y107544D01*
X70456Y107637D01*
X70424Y107731D01*
X70396Y107826D01*
X70371Y107922D01*
X70350Y108020D01*
X70333Y108118D01*
X70320Y108216D01*
X70311Y108315D01*
X70305Y108415D01*
X70303Y108514D01*
X70302Y108514D02*
X70302Y115006D01*
X70303Y115006D02*
X70305Y115105D01*
X70311Y115205D01*
X70320Y115304D01*
X70333Y115402D01*
X70350Y115500D01*
X70371Y115598D01*
X70396Y115694D01*
X70424Y115789D01*
X70456Y115883D01*
X70491Y115976D01*
X70530Y116068D01*
X70573Y116158D01*
X70618Y116246D01*
X70668Y116333D01*
X70720Y116417D01*
X70776Y116500D01*
X70834Y116580D01*
X70896Y116658D01*
X70961Y116733D01*
X71029Y116806D01*
X71099Y116876D01*
X71172Y116944D01*
X71247Y117009D01*
X71325Y117071D01*
X71405Y117129D01*
X71488Y117185D01*
X71572Y117237D01*
X71659Y117287D01*
X71747Y117332D01*
X71837Y117375D01*
X71929Y117414D01*
X72021Y117449D01*
X72116Y117481D01*
X72211Y117509D01*
X72307Y117534D01*
X72405Y117555D01*
X72503Y117572D01*
X72601Y117585D01*
X72700Y117594D01*
X72800Y117600D01*
X72899Y117602D01*
X75495Y117602D01*
X86507Y117602D02*
X86507Y105918D01*
X86507Y110462D02*
X92998Y117602D01*
X89103Y113058D02*
X92998Y105918D01*
X97790Y105918D02*
X102983Y105918D01*
X97790Y105918D02*
X97790Y117602D01*
X102983Y117602D01*
X101685Y112409D02*
X97790Y112409D01*
X106643Y117602D02*
X110538Y112085D01*
X114433Y117602D01*
X110538Y112085D02*
X110538Y105918D01*
X53904Y99850D02*
X53735Y99643D01*
X53571Y99432D01*
X53412Y99217D01*
X53258Y98999D01*
X53109Y98776D01*
X52966Y98551D01*
X52828Y98322D01*
X52696Y98089D01*
X52570Y97854D01*
X52449Y97615D01*
X52334Y97374D01*
X52224Y97130D01*
X52121Y96883D01*
X52024Y96634D01*
X51932Y96383D01*
X51847Y96130D01*
X51768Y95874D01*
X51695Y95617D01*
X51628Y95358D01*
X51567Y95098D01*
X51513Y94836D01*
X51465Y94573D01*
X51424Y94309D01*
X51388Y94044D01*
X51359Y93778D01*
X51337Y93511D01*
X51321Y93245D01*
X51311Y92977D01*
X51308Y92710D01*
X51311Y92443D01*
X51321Y92175D01*
X51337Y91909D01*
X51359Y91642D01*
X51388Y91376D01*
X51424Y91111D01*
X51465Y90847D01*
X51513Y90584D01*
X51567Y90322D01*
X51628Y90062D01*
X51695Y89803D01*
X51768Y89546D01*
X51847Y89291D01*
X51932Y89037D01*
X52024Y88786D01*
X52121Y88537D01*
X52224Y88290D01*
X52334Y88046D01*
X52449Y87805D01*
X52570Y87566D01*
X52696Y87331D01*
X52828Y87098D01*
X52966Y86869D01*
X53109Y86644D01*
X53258Y86421D01*
X53412Y86203D01*
X53571Y85988D01*
X53735Y85777D01*
X53904Y85570D01*
X61038Y86868D02*
X63635Y86868D01*
X61038Y86868D02*
X60939Y86870D01*
X60839Y86876D01*
X60740Y86885D01*
X60642Y86898D01*
X60544Y86915D01*
X60446Y86936D01*
X60350Y86961D01*
X60255Y86989D01*
X60161Y87021D01*
X60068Y87056D01*
X59976Y87095D01*
X59886Y87138D01*
X59798Y87183D01*
X59711Y87233D01*
X59627Y87285D01*
X59544Y87341D01*
X59464Y87399D01*
X59386Y87461D01*
X59311Y87526D01*
X59238Y87594D01*
X59168Y87664D01*
X59100Y87737D01*
X59035Y87812D01*
X58973Y87890D01*
X58915Y87970D01*
X58859Y88053D01*
X58807Y88137D01*
X58757Y88224D01*
X58712Y88312D01*
X58669Y88402D01*
X58630Y88494D01*
X58595Y88587D01*
X58563Y88681D01*
X58535Y88776D01*
X58510Y88872D01*
X58489Y88970D01*
X58472Y89068D01*
X58459Y89166D01*
X58450Y89265D01*
X58444Y89365D01*
X58442Y89464D01*
X58442Y95956D01*
X58444Y96055D01*
X58450Y96155D01*
X58459Y96254D01*
X58472Y96352D01*
X58489Y96450D01*
X58510Y96548D01*
X58535Y96644D01*
X58563Y96739D01*
X58595Y96833D01*
X58630Y96926D01*
X58669Y97018D01*
X58712Y97108D01*
X58757Y97196D01*
X58807Y97283D01*
X58859Y97367D01*
X58915Y97450D01*
X58973Y97530D01*
X59035Y97608D01*
X59100Y97683D01*
X59168Y97756D01*
X59238Y97826D01*
X59311Y97894D01*
X59386Y97959D01*
X59464Y98021D01*
X59544Y98079D01*
X59627Y98135D01*
X59711Y98187D01*
X59798Y98237D01*
X59886Y98282D01*
X59976Y98325D01*
X60068Y98364D01*
X60160Y98399D01*
X60255Y98431D01*
X60350Y98459D01*
X60446Y98484D01*
X60544Y98505D01*
X60642Y98522D01*
X60740Y98535D01*
X60839Y98544D01*
X60939Y98550D01*
X61038Y98552D01*
X63635Y98552D01*
X70228Y92710D02*
X70225Y92443D01*
X70215Y92175D01*
X70199Y91909D01*
X70177Y91642D01*
X70148Y91376D01*
X70112Y91111D01*
X70071Y90847D01*
X70023Y90584D01*
X69969Y90322D01*
X69908Y90062D01*
X69841Y89803D01*
X69768Y89546D01*
X69689Y89291D01*
X69604Y89037D01*
X69512Y88786D01*
X69415Y88537D01*
X69312Y88290D01*
X69202Y88046D01*
X69087Y87805D01*
X68966Y87566D01*
X68840Y87331D01*
X68708Y87098D01*
X68570Y86869D01*
X68427Y86644D01*
X68278Y86421D01*
X68124Y86203D01*
X67965Y85988D01*
X67801Y85777D01*
X67632Y85570D01*
X70229Y92710D02*
X70226Y92977D01*
X70216Y93245D01*
X70200Y93511D01*
X70178Y93778D01*
X70149Y94044D01*
X70113Y94309D01*
X70072Y94573D01*
X70024Y94836D01*
X69970Y95098D01*
X69909Y95358D01*
X69842Y95617D01*
X69769Y95874D01*
X69690Y96130D01*
X69605Y96383D01*
X69513Y96634D01*
X69416Y96883D01*
X69313Y97130D01*
X69203Y97374D01*
X69088Y97615D01*
X68967Y97854D01*
X68841Y98089D01*
X68709Y98322D01*
X68571Y98551D01*
X68428Y98776D01*
X68279Y98999D01*
X68125Y99217D01*
X67966Y99432D01*
X67802Y99643D01*
X67633Y99850D01*
X84905Y98552D02*
X85012Y98550D01*
X85118Y98544D01*
X85224Y98534D01*
X85330Y98521D01*
X85436Y98503D01*
X85540Y98482D01*
X85644Y98457D01*
X85747Y98428D01*
X85848Y98396D01*
X85948Y98359D01*
X86047Y98319D01*
X86145Y98276D01*
X86241Y98229D01*
X86335Y98178D01*
X86427Y98124D01*
X86517Y98067D01*
X86605Y98007D01*
X86690Y97943D01*
X86773Y97876D01*
X86854Y97806D01*
X86932Y97734D01*
X87008Y97658D01*
X87080Y97580D01*
X87150Y97499D01*
X87217Y97416D01*
X87281Y97331D01*
X87341Y97243D01*
X87398Y97153D01*
X87452Y97061D01*
X87503Y96967D01*
X87550Y96871D01*
X87593Y96773D01*
X87633Y96674D01*
X87670Y96574D01*
X87702Y96473D01*
X87731Y96370D01*
X87756Y96266D01*
X87777Y96162D01*
X87795Y96056D01*
X87808Y95950D01*
X87818Y95844D01*
X87824Y95738D01*
X87826Y95631D01*
X84905Y98552D02*
X84784Y98550D01*
X84663Y98544D01*
X84543Y98534D01*
X84422Y98521D01*
X84303Y98503D01*
X84183Y98482D01*
X84065Y98457D01*
X83948Y98428D01*
X83831Y98395D01*
X83716Y98359D01*
X83602Y98318D01*
X83489Y98275D01*
X83377Y98227D01*
X83268Y98176D01*
X83160Y98121D01*
X83053Y98063D01*
X82949Y98002D01*
X82847Y97937D01*
X82747Y97869D01*
X82649Y97798D01*
X82553Y97724D01*
X82460Y97647D01*
X82370Y97566D01*
X82282Y97483D01*
X82197Y97397D01*
X82114Y97308D01*
X82035Y97217D01*
X81958Y97123D01*
X81885Y97027D01*
X81815Y96929D01*
X81748Y96828D01*
X81684Y96725D01*
X81624Y96620D01*
X81567Y96513D01*
X81513Y96405D01*
X81463Y96295D01*
X81417Y96183D01*
X81374Y96070D01*
X81335Y95955D01*
X86853Y93359D02*
X86932Y93436D01*
X87008Y93517D01*
X87081Y93600D01*
X87151Y93685D01*
X87218Y93773D01*
X87282Y93863D01*
X87342Y93955D01*
X87399Y94050D01*
X87453Y94146D01*
X87504Y94244D01*
X87551Y94344D01*
X87595Y94446D01*
X87635Y94549D01*
X87671Y94653D01*
X87703Y94759D01*
X87732Y94865D01*
X87757Y94973D01*
X87779Y95081D01*
X87796Y95191D01*
X87810Y95300D01*
X87819Y95410D01*
X87825Y95521D01*
X87827Y95631D01*
X86853Y93359D02*
X81335Y86868D01*
X87826Y86868D01*
X92766Y92710D02*
X92769Y92940D01*
X92777Y93170D01*
X92791Y93399D01*
X92810Y93628D01*
X92835Y93857D01*
X92865Y94084D01*
X92900Y94312D01*
X92941Y94538D01*
X92987Y94763D01*
X93039Y94987D01*
X93096Y95209D01*
X93158Y95431D01*
X93226Y95650D01*
X93299Y95868D01*
X93377Y96085D01*
X93460Y96299D01*
X93548Y96511D01*
X93641Y96721D01*
X93740Y96929D01*
X93739Y96929D02*
X93772Y97019D01*
X93808Y97108D01*
X93848Y97196D01*
X93892Y97281D01*
X93939Y97365D01*
X93989Y97447D01*
X94043Y97527D01*
X94099Y97604D01*
X94159Y97680D01*
X94222Y97753D01*
X94287Y97823D01*
X94356Y97891D01*
X94427Y97955D01*
X94500Y98017D01*
X94576Y98076D01*
X94654Y98132D01*
X94735Y98185D01*
X94817Y98234D01*
X94901Y98280D01*
X94988Y98323D01*
X95075Y98362D01*
X95165Y98398D01*
X95255Y98430D01*
X95347Y98458D01*
X95440Y98483D01*
X95534Y98504D01*
X95628Y98521D01*
X95723Y98535D01*
X95819Y98544D01*
X95915Y98550D01*
X96011Y98552D01*
X96107Y98550D01*
X96203Y98544D01*
X96299Y98535D01*
X96394Y98521D01*
X96488Y98504D01*
X96582Y98483D01*
X96675Y98458D01*
X96767Y98430D01*
X96857Y98398D01*
X96947Y98362D01*
X97034Y98323D01*
X97121Y98280D01*
X97205Y98234D01*
X97287Y98185D01*
X97368Y98132D01*
X97446Y98076D01*
X97522Y98017D01*
X97595Y97955D01*
X97666Y97891D01*
X97735Y97823D01*
X97800Y97753D01*
X97863Y97680D01*
X97923Y97604D01*
X97979Y97527D01*
X98033Y97447D01*
X98083Y97365D01*
X98130Y97281D01*
X98174Y97196D01*
X98214Y97108D01*
X98250Y97019D01*
X98283Y96929D01*
X98382Y96722D01*
X98475Y96512D01*
X98563Y96299D01*
X98646Y96085D01*
X98724Y95869D01*
X98797Y95651D01*
X98865Y95431D01*
X98927Y95210D01*
X98984Y94987D01*
X99036Y94763D01*
X99082Y94538D01*
X99123Y94312D01*
X99158Y94085D01*
X99188Y93857D01*
X99213Y93628D01*
X99232Y93399D01*
X99246Y93170D01*
X99254Y92940D01*
X99257Y92710D01*
X92765Y92710D02*
X92768Y92480D01*
X92776Y92250D01*
X92790Y92021D01*
X92809Y91792D01*
X92834Y91563D01*
X92864Y91335D01*
X92899Y91108D01*
X92940Y90882D01*
X92986Y90657D01*
X93038Y90433D01*
X93095Y90210D01*
X93157Y89989D01*
X93225Y89769D01*
X93298Y89551D01*
X93376Y89335D01*
X93459Y89121D01*
X93547Y88909D01*
X93640Y88698D01*
X93739Y88491D01*
X93772Y88401D01*
X93808Y88312D01*
X93849Y88224D01*
X93892Y88139D01*
X93939Y88055D01*
X93989Y87973D01*
X94043Y87893D01*
X94099Y87816D01*
X94159Y87740D01*
X94222Y87667D01*
X94287Y87597D01*
X94356Y87529D01*
X94427Y87465D01*
X94500Y87403D01*
X94576Y87344D01*
X94654Y87288D01*
X94735Y87235D01*
X94817Y87186D01*
X94901Y87140D01*
X94988Y87097D01*
X95075Y87058D01*
X95165Y87022D01*
X95255Y86990D01*
X95347Y86962D01*
X95440Y86937D01*
X95534Y86916D01*
X95628Y86899D01*
X95723Y86885D01*
X95819Y86876D01*
X95915Y86870D01*
X96011Y86868D01*
X98283Y88491D02*
X98382Y88698D01*
X98475Y88909D01*
X98563Y89121D01*
X98646Y89335D01*
X98724Y89551D01*
X98797Y89769D01*
X98865Y89989D01*
X98927Y90210D01*
X98984Y90433D01*
X99036Y90657D01*
X99082Y90882D01*
X99123Y91108D01*
X99158Y91335D01*
X99188Y91563D01*
X99213Y91792D01*
X99232Y92021D01*
X99246Y92250D01*
X99254Y92480D01*
X99257Y92710D01*
X98283Y88491D02*
X98250Y88401D01*
X98214Y88312D01*
X98174Y88224D01*
X98130Y88139D01*
X98083Y88055D01*
X98033Y87973D01*
X97979Y87893D01*
X97923Y87816D01*
X97863Y87740D01*
X97800Y87667D01*
X97735Y87597D01*
X97666Y87529D01*
X97595Y87465D01*
X97522Y87403D01*
X97446Y87344D01*
X97368Y87288D01*
X97287Y87235D01*
X97205Y87186D01*
X97121Y87140D01*
X97034Y87097D01*
X96947Y87058D01*
X96857Y87022D01*
X96767Y86990D01*
X96675Y86962D01*
X96582Y86937D01*
X96488Y86916D01*
X96394Y86899D01*
X96299Y86885D01*
X96203Y86876D01*
X96107Y86870D01*
X96011Y86868D01*
X93414Y89464D02*
X98607Y95956D01*
X107765Y98552D02*
X107872Y98550D01*
X107978Y98544D01*
X108084Y98534D01*
X108190Y98521D01*
X108296Y98503D01*
X108400Y98482D01*
X108504Y98457D01*
X108607Y98428D01*
X108708Y98396D01*
X108808Y98359D01*
X108907Y98319D01*
X109005Y98276D01*
X109101Y98229D01*
X109195Y98178D01*
X109287Y98124D01*
X109377Y98067D01*
X109465Y98007D01*
X109550Y97943D01*
X109633Y97876D01*
X109714Y97806D01*
X109792Y97734D01*
X109868Y97658D01*
X109940Y97580D01*
X110010Y97499D01*
X110077Y97416D01*
X110141Y97331D01*
X110201Y97243D01*
X110258Y97153D01*
X110312Y97061D01*
X110363Y96967D01*
X110410Y96871D01*
X110453Y96773D01*
X110493Y96674D01*
X110530Y96574D01*
X110562Y96473D01*
X110591Y96370D01*
X110616Y96266D01*
X110637Y96162D01*
X110655Y96056D01*
X110668Y95950D01*
X110678Y95844D01*
X110684Y95738D01*
X110686Y95631D01*
X107765Y98552D02*
X107644Y98550D01*
X107523Y98544D01*
X107403Y98534D01*
X107282Y98521D01*
X107163Y98503D01*
X107043Y98482D01*
X106925Y98457D01*
X106808Y98428D01*
X106691Y98395D01*
X106576Y98359D01*
X106462Y98318D01*
X106349Y98275D01*
X106237Y98227D01*
X106128Y98176D01*
X106020Y98121D01*
X105913Y98063D01*
X105809Y98002D01*
X105707Y97937D01*
X105607Y97869D01*
X105509Y97798D01*
X105413Y97724D01*
X105320Y97647D01*
X105230Y97566D01*
X105142Y97483D01*
X105057Y97397D01*
X104974Y97308D01*
X104895Y97217D01*
X104818Y97123D01*
X104745Y97027D01*
X104675Y96929D01*
X104608Y96828D01*
X104544Y96725D01*
X104484Y96620D01*
X104427Y96513D01*
X104373Y96405D01*
X104323Y96295D01*
X104277Y96183D01*
X104234Y96070D01*
X104195Y95955D01*
X109713Y93359D02*
X109792Y93436D01*
X109868Y93517D01*
X109941Y93600D01*
X110011Y93685D01*
X110078Y93773D01*
X110142Y93863D01*
X110202Y93955D01*
X110259Y94050D01*
X110313Y94146D01*
X110364Y94244D01*
X110411Y94344D01*
X110455Y94446D01*
X110495Y94549D01*
X110531Y94653D01*
X110563Y94759D01*
X110592Y94865D01*
X110617Y94973D01*
X110639Y95081D01*
X110656Y95191D01*
X110670Y95300D01*
X110679Y95410D01*
X110685Y95521D01*
X110687Y95631D01*
X109713Y93359D02*
X104195Y86868D01*
X110686Y86868D01*
X115625Y95956D02*
X118871Y98552D01*
X118871Y86868D01*
X122116Y86868D02*
X115625Y86868D01*
D12*
X77661Y139700D02*
X71311Y146050D01*
X90361Y139700D02*
X96711Y146050D01*
X103061Y139700D01*
X115761Y139700D02*
X122111Y146050D01*
X71311Y146050D02*
X71311Y184150D01*
X77661Y190500D01*
X90361Y190500D01*
X96711Y184150D01*
X103061Y190500D01*
X115761Y190500D01*
X122111Y184150D01*
X96711Y184150D02*
X96711Y146050D01*
X122111Y146050D02*
X122111Y184150D01*
X115761Y139700D02*
X103061Y139700D01*
X90361Y139700D02*
X77661Y139700D01*
X122111Y146050D02*
X128461Y139700D01*
X141161Y139700D02*
X147511Y146050D01*
X122111Y184150D02*
X128461Y190500D01*
X141161Y190500D01*
X147511Y184150D01*
X147511Y146050D01*
X141161Y139700D02*
X128461Y139700D01*
D13*
X67437Y168127D02*
X61708Y168127D01*
X61630Y168125D01*
X61552Y168120D01*
X61475Y168110D01*
X61398Y168097D01*
X61322Y168081D01*
X61247Y168061D01*
X61173Y168037D01*
X61100Y168010D01*
X61028Y167979D01*
X60958Y167945D01*
X60890Y167908D01*
X60823Y167867D01*
X60758Y167823D01*
X60696Y167777D01*
X60636Y167727D01*
X60578Y167675D01*
X60523Y167620D01*
X60471Y167562D01*
X60421Y167502D01*
X60375Y167440D01*
X60331Y167375D01*
X60290Y167309D01*
X60253Y167240D01*
X60219Y167170D01*
X60188Y167098D01*
X60161Y167025D01*
X60137Y166951D01*
X60117Y166876D01*
X60101Y166800D01*
X60088Y166723D01*
X60078Y166646D01*
X60073Y166568D01*
X60071Y166490D01*
X60071Y165672D01*
X60071Y171923D02*
X67437Y171923D01*
X67437Y173969D01*
X67435Y174058D01*
X67429Y174147D01*
X67419Y174236D01*
X67406Y174324D01*
X67389Y174412D01*
X67367Y174499D01*
X67342Y174584D01*
X67314Y174669D01*
X67281Y174752D01*
X67245Y174834D01*
X67206Y174914D01*
X67163Y174992D01*
X67117Y175068D01*
X67067Y175143D01*
X67014Y175215D01*
X66958Y175284D01*
X66899Y175351D01*
X66838Y175416D01*
X66773Y175477D01*
X66706Y175536D01*
X66637Y175592D01*
X66565Y175645D01*
X66490Y175695D01*
X66414Y175741D01*
X66336Y175784D01*
X66256Y175823D01*
X66174Y175859D01*
X66091Y175892D01*
X66006Y175920D01*
X65921Y175945D01*
X65834Y175967D01*
X65746Y175984D01*
X65658Y175997D01*
X65569Y176007D01*
X65480Y176013D01*
X65391Y176015D01*
X65302Y176013D01*
X65213Y176007D01*
X65124Y175997D01*
X65036Y175984D01*
X64948Y175967D01*
X64861Y175945D01*
X64776Y175920D01*
X64691Y175892D01*
X64608Y175859D01*
X64526Y175823D01*
X64446Y175784D01*
X64368Y175741D01*
X64292Y175695D01*
X64217Y175645D01*
X64145Y175592D01*
X64076Y175536D01*
X64009Y175477D01*
X63944Y175416D01*
X63883Y175351D01*
X63824Y175284D01*
X63768Y175215D01*
X63715Y175143D01*
X63665Y175068D01*
X63619Y174992D01*
X63576Y174914D01*
X63537Y174834D01*
X63501Y174752D01*
X63468Y174669D01*
X63440Y174584D01*
X63415Y174499D01*
X63393Y174412D01*
X63376Y174324D01*
X63363Y174236D01*
X63353Y174147D01*
X63347Y174058D01*
X63345Y173969D01*
X63345Y171923D01*
X65800Y178877D02*
X67437Y180923D01*
X60071Y180923D01*
X60071Y178877D02*
X60071Y182969D01*
D10*
X109855Y45720D02*
X109857Y45853D01*
X109863Y45986D01*
X109873Y46118D01*
X109887Y46251D01*
X109905Y46382D01*
X109926Y46514D01*
X109952Y46644D01*
X109982Y46774D01*
X110015Y46903D01*
X110052Y47030D01*
X110094Y47157D01*
X110138Y47282D01*
X110187Y47406D01*
X110239Y47528D01*
X110295Y47649D01*
X110355Y47768D01*
X110418Y47885D01*
X110484Y48000D01*
X110554Y48113D01*
X110627Y48224D01*
X110704Y48333D01*
X110784Y48439D01*
X110867Y48543D01*
X110953Y48645D01*
X111042Y48743D01*
X111133Y48839D01*
X111228Y48933D01*
X111326Y49023D01*
X111426Y49111D01*
X111529Y49195D01*
X111634Y49277D01*
X111741Y49355D01*
X111851Y49430D01*
X111963Y49501D01*
X112078Y49569D01*
X112194Y49634D01*
X112312Y49696D01*
X112432Y49753D01*
X112553Y49807D01*
X112676Y49858D01*
X112801Y49904D01*
X112926Y49947D01*
X113054Y49987D01*
X113182Y50022D01*
X113311Y50054D01*
X113441Y50081D01*
X113572Y50105D01*
X113703Y50125D01*
X113835Y50141D01*
X113968Y50153D01*
X114101Y50161D01*
X114234Y50165D01*
X114366Y50165D01*
X114499Y50161D01*
X114632Y50153D01*
X114765Y50141D01*
X114897Y50125D01*
X115028Y50105D01*
X115159Y50081D01*
X115289Y50054D01*
X115418Y50022D01*
X115546Y49987D01*
X115674Y49947D01*
X115799Y49904D01*
X115924Y49858D01*
X116047Y49807D01*
X116168Y49753D01*
X116288Y49696D01*
X116406Y49634D01*
X116523Y49569D01*
X116637Y49501D01*
X116749Y49430D01*
X116859Y49355D01*
X116966Y49277D01*
X117071Y49195D01*
X117174Y49111D01*
X117274Y49023D01*
X117372Y48933D01*
X117467Y48839D01*
X117558Y48743D01*
X117647Y48645D01*
X117733Y48543D01*
X117816Y48439D01*
X117896Y48333D01*
X117973Y48224D01*
X118046Y48113D01*
X118116Y48000D01*
X118182Y47885D01*
X118245Y47768D01*
X118305Y47649D01*
X118361Y47528D01*
X118413Y47406D01*
X118462Y47282D01*
X118506Y47157D01*
X118548Y47030D01*
X118585Y46903D01*
X118618Y46774D01*
X118648Y46644D01*
X118674Y46514D01*
X118695Y46382D01*
X118713Y46251D01*
X118727Y46118D01*
X118737Y45986D01*
X118743Y45853D01*
X118745Y45720D01*
X118743Y45587D01*
X118737Y45454D01*
X118727Y45322D01*
X118713Y45189D01*
X118695Y45058D01*
X118674Y44926D01*
X118648Y44796D01*
X118618Y44666D01*
X118585Y44537D01*
X118548Y44410D01*
X118506Y44283D01*
X118462Y44158D01*
X118413Y44034D01*
X118361Y43912D01*
X118305Y43791D01*
X118245Y43672D01*
X118182Y43555D01*
X118116Y43440D01*
X118046Y43327D01*
X117973Y43216D01*
X117896Y43107D01*
X117816Y43001D01*
X117733Y42897D01*
X117647Y42795D01*
X117558Y42697D01*
X117467Y42601D01*
X117372Y42507D01*
X117274Y42417D01*
X117174Y42329D01*
X117071Y42245D01*
X116966Y42163D01*
X116859Y42085D01*
X116749Y42010D01*
X116637Y41939D01*
X116522Y41871D01*
X116406Y41806D01*
X116288Y41744D01*
X116168Y41687D01*
X116047Y41633D01*
X115924Y41582D01*
X115799Y41536D01*
X115674Y41493D01*
X115546Y41453D01*
X115418Y41418D01*
X115289Y41386D01*
X115159Y41359D01*
X115028Y41335D01*
X114897Y41315D01*
X114765Y41299D01*
X114632Y41287D01*
X114499Y41279D01*
X114366Y41275D01*
X114234Y41275D01*
X114101Y41279D01*
X113968Y41287D01*
X113835Y41299D01*
X113703Y41315D01*
X113572Y41335D01*
X113441Y41359D01*
X113311Y41386D01*
X113182Y41418D01*
X113054Y41453D01*
X112926Y41493D01*
X112801Y41536D01*
X112676Y41582D01*
X112553Y41633D01*
X112432Y41687D01*
X112312Y41744D01*
X112194Y41806D01*
X112077Y41871D01*
X111963Y41939D01*
X111851Y42010D01*
X111741Y42085D01*
X111634Y42163D01*
X111529Y42245D01*
X111426Y42329D01*
X111326Y42417D01*
X111228Y42507D01*
X111133Y42601D01*
X111042Y42697D01*
X110953Y42795D01*
X110867Y42897D01*
X110784Y43001D01*
X110704Y43107D01*
X110627Y43216D01*
X110554Y43327D01*
X110484Y43440D01*
X110418Y43555D01*
X110355Y43672D01*
X110295Y43791D01*
X110239Y43912D01*
X110187Y44034D01*
X110138Y44158D01*
X110094Y44283D01*
X110052Y44410D01*
X110015Y44537D01*
X109982Y44666D01*
X109952Y44796D01*
X109926Y44926D01*
X109905Y45058D01*
X109887Y45189D01*
X109873Y45322D01*
X109863Y45454D01*
X109857Y45587D01*
X109855Y45720D01*
X59055Y35560D02*
X59057Y35693D01*
X59063Y35826D01*
X59073Y35958D01*
X59087Y36091D01*
X59105Y36222D01*
X59126Y36354D01*
X59152Y36484D01*
X59182Y36614D01*
X59215Y36743D01*
X59252Y36870D01*
X59294Y36997D01*
X59338Y37122D01*
X59387Y37246D01*
X59439Y37368D01*
X59495Y37489D01*
X59555Y37608D01*
X59618Y37725D01*
X59684Y37840D01*
X59754Y37953D01*
X59827Y38064D01*
X59904Y38173D01*
X59984Y38279D01*
X60067Y38383D01*
X60153Y38485D01*
X60242Y38583D01*
X60333Y38679D01*
X60428Y38773D01*
X60526Y38863D01*
X60626Y38951D01*
X60729Y39035D01*
X60834Y39117D01*
X60941Y39195D01*
X61051Y39270D01*
X61163Y39341D01*
X61278Y39409D01*
X61394Y39474D01*
X61512Y39536D01*
X61632Y39593D01*
X61753Y39647D01*
X61876Y39698D01*
X62001Y39744D01*
X62126Y39787D01*
X62254Y39827D01*
X62382Y39862D01*
X62511Y39894D01*
X62641Y39921D01*
X62772Y39945D01*
X62903Y39965D01*
X63035Y39981D01*
X63168Y39993D01*
X63301Y40001D01*
X63434Y40005D01*
X63566Y40005D01*
X63699Y40001D01*
X63832Y39993D01*
X63965Y39981D01*
X64097Y39965D01*
X64228Y39945D01*
X64359Y39921D01*
X64489Y39894D01*
X64618Y39862D01*
X64746Y39827D01*
X64874Y39787D01*
X64999Y39744D01*
X65124Y39698D01*
X65247Y39647D01*
X65368Y39593D01*
X65488Y39536D01*
X65606Y39474D01*
X65723Y39409D01*
X65837Y39341D01*
X65949Y39270D01*
X66059Y39195D01*
X66166Y39117D01*
X66271Y39035D01*
X66374Y38951D01*
X66474Y38863D01*
X66572Y38773D01*
X66667Y38679D01*
X66758Y38583D01*
X66847Y38485D01*
X66933Y38383D01*
X67016Y38279D01*
X67096Y38173D01*
X67173Y38064D01*
X67246Y37953D01*
X67316Y37840D01*
X67382Y37725D01*
X67445Y37608D01*
X67505Y37489D01*
X67561Y37368D01*
X67613Y37246D01*
X67662Y37122D01*
X67706Y36997D01*
X67748Y36870D01*
X67785Y36743D01*
X67818Y36614D01*
X67848Y36484D01*
X67874Y36354D01*
X67895Y36222D01*
X67913Y36091D01*
X67927Y35958D01*
X67937Y35826D01*
X67943Y35693D01*
X67945Y35560D01*
X67943Y35427D01*
X67937Y35294D01*
X67927Y35162D01*
X67913Y35029D01*
X67895Y34898D01*
X67874Y34766D01*
X67848Y34636D01*
X67818Y34506D01*
X67785Y34377D01*
X67748Y34250D01*
X67706Y34123D01*
X67662Y33998D01*
X67613Y33874D01*
X67561Y33752D01*
X67505Y33631D01*
X67445Y33512D01*
X67382Y33395D01*
X67316Y33280D01*
X67246Y33167D01*
X67173Y33056D01*
X67096Y32947D01*
X67016Y32841D01*
X66933Y32737D01*
X66847Y32635D01*
X66758Y32537D01*
X66667Y32441D01*
X66572Y32347D01*
X66474Y32257D01*
X66374Y32169D01*
X66271Y32085D01*
X66166Y32003D01*
X66059Y31925D01*
X65949Y31850D01*
X65837Y31779D01*
X65722Y31711D01*
X65606Y31646D01*
X65488Y31584D01*
X65368Y31527D01*
X65247Y31473D01*
X65124Y31422D01*
X64999Y31376D01*
X64874Y31333D01*
X64746Y31293D01*
X64618Y31258D01*
X64489Y31226D01*
X64359Y31199D01*
X64228Y31175D01*
X64097Y31155D01*
X63965Y31139D01*
X63832Y31127D01*
X63699Y31119D01*
X63566Y31115D01*
X63434Y31115D01*
X63301Y31119D01*
X63168Y31127D01*
X63035Y31139D01*
X62903Y31155D01*
X62772Y31175D01*
X62641Y31199D01*
X62511Y31226D01*
X62382Y31258D01*
X62254Y31293D01*
X62126Y31333D01*
X62001Y31376D01*
X61876Y31422D01*
X61753Y31473D01*
X61632Y31527D01*
X61512Y31584D01*
X61394Y31646D01*
X61277Y31711D01*
X61163Y31779D01*
X61051Y31850D01*
X60941Y31925D01*
X60834Y32003D01*
X60729Y32085D01*
X60626Y32169D01*
X60526Y32257D01*
X60428Y32347D01*
X60333Y32441D01*
X60242Y32537D01*
X60153Y32635D01*
X60067Y32737D01*
X59984Y32841D01*
X59904Y32947D01*
X59827Y33056D01*
X59754Y33167D01*
X59684Y33280D01*
X59618Y33395D01*
X59555Y33512D01*
X59495Y33631D01*
X59439Y33752D01*
X59387Y33874D01*
X59338Y33998D01*
X59294Y34123D01*
X59252Y34250D01*
X59215Y34377D01*
X59182Y34506D01*
X59152Y34636D01*
X59126Y34766D01*
X59105Y34898D01*
X59087Y35029D01*
X59073Y35162D01*
X59063Y35294D01*
X59057Y35427D01*
X59055Y35560D01*
X59055Y55880D02*
X59057Y56013D01*
X59063Y56146D01*
X59073Y56278D01*
X59087Y56411D01*
X59105Y56542D01*
X59126Y56674D01*
X59152Y56804D01*
X59182Y56934D01*
X59215Y57063D01*
X59252Y57190D01*
X59294Y57317D01*
X59338Y57442D01*
X59387Y57566D01*
X59439Y57688D01*
X59495Y57809D01*
X59555Y57928D01*
X59618Y58045D01*
X59684Y58160D01*
X59754Y58273D01*
X59827Y58384D01*
X59904Y58493D01*
X59984Y58599D01*
X60067Y58703D01*
X60153Y58805D01*
X60242Y58903D01*
X60333Y58999D01*
X60428Y59093D01*
X60526Y59183D01*
X60626Y59271D01*
X60729Y59355D01*
X60834Y59437D01*
X60941Y59515D01*
X61051Y59590D01*
X61163Y59661D01*
X61278Y59729D01*
X61394Y59794D01*
X61512Y59856D01*
X61632Y59913D01*
X61753Y59967D01*
X61876Y60018D01*
X62001Y60064D01*
X62126Y60107D01*
X62254Y60147D01*
X62382Y60182D01*
X62511Y60214D01*
X62641Y60241D01*
X62772Y60265D01*
X62903Y60285D01*
X63035Y60301D01*
X63168Y60313D01*
X63301Y60321D01*
X63434Y60325D01*
X63566Y60325D01*
X63699Y60321D01*
X63832Y60313D01*
X63965Y60301D01*
X64097Y60285D01*
X64228Y60265D01*
X64359Y60241D01*
X64489Y60214D01*
X64618Y60182D01*
X64746Y60147D01*
X64874Y60107D01*
X64999Y60064D01*
X65124Y60018D01*
X65247Y59967D01*
X65368Y59913D01*
X65488Y59856D01*
X65606Y59794D01*
X65723Y59729D01*
X65837Y59661D01*
X65949Y59590D01*
X66059Y59515D01*
X66166Y59437D01*
X66271Y59355D01*
X66374Y59271D01*
X66474Y59183D01*
X66572Y59093D01*
X66667Y58999D01*
X66758Y58903D01*
X66847Y58805D01*
X66933Y58703D01*
X67016Y58599D01*
X67096Y58493D01*
X67173Y58384D01*
X67246Y58273D01*
X67316Y58160D01*
X67382Y58045D01*
X67445Y57928D01*
X67505Y57809D01*
X67561Y57688D01*
X67613Y57566D01*
X67662Y57442D01*
X67706Y57317D01*
X67748Y57190D01*
X67785Y57063D01*
X67818Y56934D01*
X67848Y56804D01*
X67874Y56674D01*
X67895Y56542D01*
X67913Y56411D01*
X67927Y56278D01*
X67937Y56146D01*
X67943Y56013D01*
X67945Y55880D01*
X67943Y55747D01*
X67937Y55614D01*
X67927Y55482D01*
X67913Y55349D01*
X67895Y55218D01*
X67874Y55086D01*
X67848Y54956D01*
X67818Y54826D01*
X67785Y54697D01*
X67748Y54570D01*
X67706Y54443D01*
X67662Y54318D01*
X67613Y54194D01*
X67561Y54072D01*
X67505Y53951D01*
X67445Y53832D01*
X67382Y53715D01*
X67316Y53600D01*
X67246Y53487D01*
X67173Y53376D01*
X67096Y53267D01*
X67016Y53161D01*
X66933Y53057D01*
X66847Y52955D01*
X66758Y52857D01*
X66667Y52761D01*
X66572Y52667D01*
X66474Y52577D01*
X66374Y52489D01*
X66271Y52405D01*
X66166Y52323D01*
X66059Y52245D01*
X65949Y52170D01*
X65837Y52099D01*
X65722Y52031D01*
X65606Y51966D01*
X65488Y51904D01*
X65368Y51847D01*
X65247Y51793D01*
X65124Y51742D01*
X64999Y51696D01*
X64874Y51653D01*
X64746Y51613D01*
X64618Y51578D01*
X64489Y51546D01*
X64359Y51519D01*
X64228Y51495D01*
X64097Y51475D01*
X63965Y51459D01*
X63832Y51447D01*
X63699Y51439D01*
X63566Y51435D01*
X63434Y51435D01*
X63301Y51439D01*
X63168Y51447D01*
X63035Y51459D01*
X62903Y51475D01*
X62772Y51495D01*
X62641Y51519D01*
X62511Y51546D01*
X62382Y51578D01*
X62254Y51613D01*
X62126Y51653D01*
X62001Y51696D01*
X61876Y51742D01*
X61753Y51793D01*
X61632Y51847D01*
X61512Y51904D01*
X61394Y51966D01*
X61277Y52031D01*
X61163Y52099D01*
X61051Y52170D01*
X60941Y52245D01*
X60834Y52323D01*
X60729Y52405D01*
X60626Y52489D01*
X60526Y52577D01*
X60428Y52667D01*
X60333Y52761D01*
X60242Y52857D01*
X60153Y52955D01*
X60067Y53057D01*
X59984Y53161D01*
X59904Y53267D01*
X59827Y53376D01*
X59754Y53487D01*
X59684Y53600D01*
X59618Y53715D01*
X59555Y53832D01*
X59495Y53951D01*
X59439Y54072D01*
X59387Y54194D01*
X59338Y54318D01*
X59294Y54443D01*
X59252Y54570D01*
X59215Y54697D01*
X59182Y54826D01*
X59152Y54956D01*
X59126Y55086D01*
X59105Y55218D01*
X59087Y55349D01*
X59073Y55482D01*
X59063Y55614D01*
X59057Y55747D01*
X59055Y55880D01*
M02*
