G04 EAGLE Gerber RS-274X export*
G75*
%MOMM*%
%FSLAX34Y34*%
%LPD*%
%INTop solder paste for stencil*%
%IPPOS*%
%AMOC8*
5,1,8,0,0,1.08239X$1,22.5*%
G01*
%ADD10C,0.000000*%


D10*
X15240Y15240D02*
X152400Y15240D01*
X152400Y195580D01*
X15240Y195580D01*
X15240Y15240D01*
X21850Y165000D02*
X21854Y165337D01*
X21867Y165675D01*
X21887Y166012D01*
X21916Y166348D01*
X21953Y166683D01*
X21999Y167018D01*
X22052Y167351D01*
X22114Y167682D01*
X22184Y168013D01*
X22262Y168341D01*
X22348Y168667D01*
X22442Y168991D01*
X22544Y169313D01*
X22654Y169632D01*
X22771Y169949D01*
X22897Y170262D01*
X23030Y170572D01*
X23170Y170879D01*
X23318Y171182D01*
X23474Y171482D01*
X23636Y171777D01*
X23806Y172069D01*
X23983Y172356D01*
X24167Y172639D01*
X24358Y172917D01*
X24556Y173191D01*
X24760Y173459D01*
X24971Y173723D01*
X25188Y173981D01*
X25412Y174234D01*
X25642Y174481D01*
X25877Y174723D01*
X26119Y174958D01*
X26366Y175188D01*
X26619Y175412D01*
X26877Y175629D01*
X27141Y175840D01*
X27409Y176044D01*
X27683Y176242D01*
X27961Y176433D01*
X28244Y176617D01*
X28531Y176794D01*
X28823Y176964D01*
X29118Y177126D01*
X29418Y177282D01*
X29721Y177430D01*
X30028Y177570D01*
X30338Y177703D01*
X30651Y177829D01*
X30968Y177946D01*
X31287Y178056D01*
X31609Y178158D01*
X31933Y178252D01*
X32259Y178338D01*
X32587Y178416D01*
X32918Y178486D01*
X33249Y178548D01*
X33582Y178601D01*
X33917Y178647D01*
X34252Y178684D01*
X34588Y178713D01*
X34925Y178733D01*
X35263Y178746D01*
X35600Y178750D01*
X35937Y178746D01*
X36275Y178733D01*
X36612Y178713D01*
X36948Y178684D01*
X37283Y178647D01*
X37618Y178601D01*
X37951Y178548D01*
X38282Y178486D01*
X38613Y178416D01*
X38941Y178338D01*
X39267Y178252D01*
X39591Y178158D01*
X39913Y178056D01*
X40232Y177946D01*
X40549Y177829D01*
X40862Y177703D01*
X41172Y177570D01*
X41479Y177430D01*
X41782Y177282D01*
X42082Y177126D01*
X42377Y176964D01*
X42669Y176794D01*
X42956Y176617D01*
X43239Y176433D01*
X43517Y176242D01*
X43791Y176044D01*
X44059Y175840D01*
X44323Y175629D01*
X44581Y175412D01*
X44834Y175188D01*
X45081Y174958D01*
X45323Y174723D01*
X45558Y174481D01*
X45788Y174234D01*
X46012Y173981D01*
X46229Y173723D01*
X46440Y173459D01*
X46644Y173191D01*
X46842Y172917D01*
X47033Y172639D01*
X47217Y172356D01*
X47394Y172069D01*
X47564Y171777D01*
X47726Y171482D01*
X47882Y171182D01*
X48030Y170879D01*
X48170Y170572D01*
X48303Y170262D01*
X48429Y169949D01*
X48546Y169632D01*
X48656Y169313D01*
X48758Y168991D01*
X48852Y168667D01*
X48938Y168341D01*
X49016Y168013D01*
X49086Y167682D01*
X49148Y167351D01*
X49201Y167018D01*
X49247Y166683D01*
X49284Y166348D01*
X49313Y166012D01*
X49333Y165675D01*
X49346Y165337D01*
X49350Y165000D01*
X49346Y164663D01*
X49333Y164325D01*
X49313Y163988D01*
X49284Y163652D01*
X49247Y163317D01*
X49201Y162982D01*
X49148Y162649D01*
X49086Y162318D01*
X49016Y161987D01*
X48938Y161659D01*
X48852Y161333D01*
X48758Y161009D01*
X48656Y160687D01*
X48546Y160368D01*
X48429Y160051D01*
X48303Y159738D01*
X48170Y159428D01*
X48030Y159121D01*
X47882Y158818D01*
X47726Y158518D01*
X47564Y158223D01*
X47394Y157931D01*
X47217Y157644D01*
X47033Y157361D01*
X46842Y157083D01*
X46644Y156809D01*
X46440Y156541D01*
X46229Y156277D01*
X46012Y156019D01*
X45788Y155766D01*
X45558Y155519D01*
X45323Y155277D01*
X45081Y155042D01*
X44834Y154812D01*
X44581Y154588D01*
X44323Y154371D01*
X44059Y154160D01*
X43791Y153956D01*
X43517Y153758D01*
X43239Y153567D01*
X42956Y153383D01*
X42669Y153206D01*
X42377Y153036D01*
X42082Y152874D01*
X41782Y152718D01*
X41479Y152570D01*
X41172Y152430D01*
X40862Y152297D01*
X40549Y152171D01*
X40232Y152054D01*
X39913Y151944D01*
X39591Y151842D01*
X39267Y151748D01*
X38941Y151662D01*
X38613Y151584D01*
X38282Y151514D01*
X37951Y151452D01*
X37618Y151399D01*
X37283Y151353D01*
X36948Y151316D01*
X36612Y151287D01*
X36275Y151267D01*
X35937Y151254D01*
X35600Y151250D01*
X35263Y151254D01*
X34925Y151267D01*
X34588Y151287D01*
X34252Y151316D01*
X33917Y151353D01*
X33582Y151399D01*
X33249Y151452D01*
X32918Y151514D01*
X32587Y151584D01*
X32259Y151662D01*
X31933Y151748D01*
X31609Y151842D01*
X31287Y151944D01*
X30968Y152054D01*
X30651Y152171D01*
X30338Y152297D01*
X30028Y152430D01*
X29721Y152570D01*
X29418Y152718D01*
X29118Y152874D01*
X28823Y153036D01*
X28531Y153206D01*
X28244Y153383D01*
X27961Y153567D01*
X27683Y153758D01*
X27409Y153956D01*
X27141Y154160D01*
X26877Y154371D01*
X26619Y154588D01*
X26366Y154812D01*
X26119Y155042D01*
X25877Y155277D01*
X25642Y155519D01*
X25412Y155766D01*
X25188Y156019D01*
X24971Y156277D01*
X24760Y156541D01*
X24556Y156809D01*
X24358Y157083D01*
X24167Y157361D01*
X23983Y157644D01*
X23806Y157931D01*
X23636Y158223D01*
X23474Y158518D01*
X23318Y158818D01*
X23170Y159121D01*
X23030Y159428D01*
X22897Y159738D01*
X22771Y160051D01*
X22654Y160368D01*
X22544Y160687D01*
X22442Y161009D01*
X22348Y161333D01*
X22262Y161659D01*
X22184Y161987D01*
X22114Y162318D01*
X22052Y162649D01*
X21999Y162982D01*
X21953Y163317D01*
X21916Y163652D01*
X21887Y163988D01*
X21867Y164325D01*
X21854Y164663D01*
X21850Y165000D01*
X109855Y45720D02*
X109857Y45853D01*
X109863Y45986D01*
X109873Y46118D01*
X109887Y46251D01*
X109905Y46382D01*
X109926Y46514D01*
X109952Y46644D01*
X109982Y46774D01*
X110015Y46903D01*
X110052Y47030D01*
X110094Y47157D01*
X110138Y47282D01*
X110187Y47406D01*
X110239Y47528D01*
X110295Y47649D01*
X110355Y47768D01*
X110418Y47885D01*
X110484Y48000D01*
X110554Y48113D01*
X110627Y48224D01*
X110704Y48333D01*
X110784Y48439D01*
X110867Y48543D01*
X110953Y48645D01*
X111042Y48743D01*
X111133Y48839D01*
X111228Y48933D01*
X111326Y49023D01*
X111426Y49111D01*
X111529Y49195D01*
X111634Y49277D01*
X111741Y49355D01*
X111851Y49430D01*
X111963Y49501D01*
X112078Y49569D01*
X112194Y49634D01*
X112312Y49696D01*
X112432Y49753D01*
X112553Y49807D01*
X112676Y49858D01*
X112801Y49904D01*
X112926Y49947D01*
X113054Y49987D01*
X113182Y50022D01*
X113311Y50054D01*
X113441Y50081D01*
X113572Y50105D01*
X113703Y50125D01*
X113835Y50141D01*
X113968Y50153D01*
X114101Y50161D01*
X114234Y50165D01*
X114366Y50165D01*
X114499Y50161D01*
X114632Y50153D01*
X114765Y50141D01*
X114897Y50125D01*
X115028Y50105D01*
X115159Y50081D01*
X115289Y50054D01*
X115418Y50022D01*
X115546Y49987D01*
X115674Y49947D01*
X115799Y49904D01*
X115924Y49858D01*
X116047Y49807D01*
X116168Y49753D01*
X116288Y49696D01*
X116406Y49634D01*
X116523Y49569D01*
X116637Y49501D01*
X116749Y49430D01*
X116859Y49355D01*
X116966Y49277D01*
X117071Y49195D01*
X117174Y49111D01*
X117274Y49023D01*
X117372Y48933D01*
X117467Y48839D01*
X117558Y48743D01*
X117647Y48645D01*
X117733Y48543D01*
X117816Y48439D01*
X117896Y48333D01*
X117973Y48224D01*
X118046Y48113D01*
X118116Y48000D01*
X118182Y47885D01*
X118245Y47768D01*
X118305Y47649D01*
X118361Y47528D01*
X118413Y47406D01*
X118462Y47282D01*
X118506Y47157D01*
X118548Y47030D01*
X118585Y46903D01*
X118618Y46774D01*
X118648Y46644D01*
X118674Y46514D01*
X118695Y46382D01*
X118713Y46251D01*
X118727Y46118D01*
X118737Y45986D01*
X118743Y45853D01*
X118745Y45720D01*
X118743Y45587D01*
X118737Y45454D01*
X118727Y45322D01*
X118713Y45189D01*
X118695Y45058D01*
X118674Y44926D01*
X118648Y44796D01*
X118618Y44666D01*
X118585Y44537D01*
X118548Y44410D01*
X118506Y44283D01*
X118462Y44158D01*
X118413Y44034D01*
X118361Y43912D01*
X118305Y43791D01*
X118245Y43672D01*
X118182Y43555D01*
X118116Y43440D01*
X118046Y43327D01*
X117973Y43216D01*
X117896Y43107D01*
X117816Y43001D01*
X117733Y42897D01*
X117647Y42795D01*
X117558Y42697D01*
X117467Y42601D01*
X117372Y42507D01*
X117274Y42417D01*
X117174Y42329D01*
X117071Y42245D01*
X116966Y42163D01*
X116859Y42085D01*
X116749Y42010D01*
X116637Y41939D01*
X116522Y41871D01*
X116406Y41806D01*
X116288Y41744D01*
X116168Y41687D01*
X116047Y41633D01*
X115924Y41582D01*
X115799Y41536D01*
X115674Y41493D01*
X115546Y41453D01*
X115418Y41418D01*
X115289Y41386D01*
X115159Y41359D01*
X115028Y41335D01*
X114897Y41315D01*
X114765Y41299D01*
X114632Y41287D01*
X114499Y41279D01*
X114366Y41275D01*
X114234Y41275D01*
X114101Y41279D01*
X113968Y41287D01*
X113835Y41299D01*
X113703Y41315D01*
X113572Y41335D01*
X113441Y41359D01*
X113311Y41386D01*
X113182Y41418D01*
X113054Y41453D01*
X112926Y41493D01*
X112801Y41536D01*
X112676Y41582D01*
X112553Y41633D01*
X112432Y41687D01*
X112312Y41744D01*
X112194Y41806D01*
X112077Y41871D01*
X111963Y41939D01*
X111851Y42010D01*
X111741Y42085D01*
X111634Y42163D01*
X111529Y42245D01*
X111426Y42329D01*
X111326Y42417D01*
X111228Y42507D01*
X111133Y42601D01*
X111042Y42697D01*
X110953Y42795D01*
X110867Y42897D01*
X110784Y43001D01*
X110704Y43107D01*
X110627Y43216D01*
X110554Y43327D01*
X110484Y43440D01*
X110418Y43555D01*
X110355Y43672D01*
X110295Y43791D01*
X110239Y43912D01*
X110187Y44034D01*
X110138Y44158D01*
X110094Y44283D01*
X110052Y44410D01*
X110015Y44537D01*
X109982Y44666D01*
X109952Y44796D01*
X109926Y44926D01*
X109905Y45058D01*
X109887Y45189D01*
X109873Y45322D01*
X109863Y45454D01*
X109857Y45587D01*
X109855Y45720D01*
X59055Y35560D02*
X59057Y35693D01*
X59063Y35826D01*
X59073Y35958D01*
X59087Y36091D01*
X59105Y36222D01*
X59126Y36354D01*
X59152Y36484D01*
X59182Y36614D01*
X59215Y36743D01*
X59252Y36870D01*
X59294Y36997D01*
X59338Y37122D01*
X59387Y37246D01*
X59439Y37368D01*
X59495Y37489D01*
X59555Y37608D01*
X59618Y37725D01*
X59684Y37840D01*
X59754Y37953D01*
X59827Y38064D01*
X59904Y38173D01*
X59984Y38279D01*
X60067Y38383D01*
X60153Y38485D01*
X60242Y38583D01*
X60333Y38679D01*
X60428Y38773D01*
X60526Y38863D01*
X60626Y38951D01*
X60729Y39035D01*
X60834Y39117D01*
X60941Y39195D01*
X61051Y39270D01*
X61163Y39341D01*
X61278Y39409D01*
X61394Y39474D01*
X61512Y39536D01*
X61632Y39593D01*
X61753Y39647D01*
X61876Y39698D01*
X62001Y39744D01*
X62126Y39787D01*
X62254Y39827D01*
X62382Y39862D01*
X62511Y39894D01*
X62641Y39921D01*
X62772Y39945D01*
X62903Y39965D01*
X63035Y39981D01*
X63168Y39993D01*
X63301Y40001D01*
X63434Y40005D01*
X63566Y40005D01*
X63699Y40001D01*
X63832Y39993D01*
X63965Y39981D01*
X64097Y39965D01*
X64228Y39945D01*
X64359Y39921D01*
X64489Y39894D01*
X64618Y39862D01*
X64746Y39827D01*
X64874Y39787D01*
X64999Y39744D01*
X65124Y39698D01*
X65247Y39647D01*
X65368Y39593D01*
X65488Y39536D01*
X65606Y39474D01*
X65723Y39409D01*
X65837Y39341D01*
X65949Y39270D01*
X66059Y39195D01*
X66166Y39117D01*
X66271Y39035D01*
X66374Y38951D01*
X66474Y38863D01*
X66572Y38773D01*
X66667Y38679D01*
X66758Y38583D01*
X66847Y38485D01*
X66933Y38383D01*
X67016Y38279D01*
X67096Y38173D01*
X67173Y38064D01*
X67246Y37953D01*
X67316Y37840D01*
X67382Y37725D01*
X67445Y37608D01*
X67505Y37489D01*
X67561Y37368D01*
X67613Y37246D01*
X67662Y37122D01*
X67706Y36997D01*
X67748Y36870D01*
X67785Y36743D01*
X67818Y36614D01*
X67848Y36484D01*
X67874Y36354D01*
X67895Y36222D01*
X67913Y36091D01*
X67927Y35958D01*
X67937Y35826D01*
X67943Y35693D01*
X67945Y35560D01*
X67943Y35427D01*
X67937Y35294D01*
X67927Y35162D01*
X67913Y35029D01*
X67895Y34898D01*
X67874Y34766D01*
X67848Y34636D01*
X67818Y34506D01*
X67785Y34377D01*
X67748Y34250D01*
X67706Y34123D01*
X67662Y33998D01*
X67613Y33874D01*
X67561Y33752D01*
X67505Y33631D01*
X67445Y33512D01*
X67382Y33395D01*
X67316Y33280D01*
X67246Y33167D01*
X67173Y33056D01*
X67096Y32947D01*
X67016Y32841D01*
X66933Y32737D01*
X66847Y32635D01*
X66758Y32537D01*
X66667Y32441D01*
X66572Y32347D01*
X66474Y32257D01*
X66374Y32169D01*
X66271Y32085D01*
X66166Y32003D01*
X66059Y31925D01*
X65949Y31850D01*
X65837Y31779D01*
X65722Y31711D01*
X65606Y31646D01*
X65488Y31584D01*
X65368Y31527D01*
X65247Y31473D01*
X65124Y31422D01*
X64999Y31376D01*
X64874Y31333D01*
X64746Y31293D01*
X64618Y31258D01*
X64489Y31226D01*
X64359Y31199D01*
X64228Y31175D01*
X64097Y31155D01*
X63965Y31139D01*
X63832Y31127D01*
X63699Y31119D01*
X63566Y31115D01*
X63434Y31115D01*
X63301Y31119D01*
X63168Y31127D01*
X63035Y31139D01*
X62903Y31155D01*
X62772Y31175D01*
X62641Y31199D01*
X62511Y31226D01*
X62382Y31258D01*
X62254Y31293D01*
X62126Y31333D01*
X62001Y31376D01*
X61876Y31422D01*
X61753Y31473D01*
X61632Y31527D01*
X61512Y31584D01*
X61394Y31646D01*
X61277Y31711D01*
X61163Y31779D01*
X61051Y31850D01*
X60941Y31925D01*
X60834Y32003D01*
X60729Y32085D01*
X60626Y32169D01*
X60526Y32257D01*
X60428Y32347D01*
X60333Y32441D01*
X60242Y32537D01*
X60153Y32635D01*
X60067Y32737D01*
X59984Y32841D01*
X59904Y32947D01*
X59827Y33056D01*
X59754Y33167D01*
X59684Y33280D01*
X59618Y33395D01*
X59555Y33512D01*
X59495Y33631D01*
X59439Y33752D01*
X59387Y33874D01*
X59338Y33998D01*
X59294Y34123D01*
X59252Y34250D01*
X59215Y34377D01*
X59182Y34506D01*
X59152Y34636D01*
X59126Y34766D01*
X59105Y34898D01*
X59087Y35029D01*
X59073Y35162D01*
X59063Y35294D01*
X59057Y35427D01*
X59055Y35560D01*
X59055Y55880D02*
X59057Y56013D01*
X59063Y56146D01*
X59073Y56278D01*
X59087Y56411D01*
X59105Y56542D01*
X59126Y56674D01*
X59152Y56804D01*
X59182Y56934D01*
X59215Y57063D01*
X59252Y57190D01*
X59294Y57317D01*
X59338Y57442D01*
X59387Y57566D01*
X59439Y57688D01*
X59495Y57809D01*
X59555Y57928D01*
X59618Y58045D01*
X59684Y58160D01*
X59754Y58273D01*
X59827Y58384D01*
X59904Y58493D01*
X59984Y58599D01*
X60067Y58703D01*
X60153Y58805D01*
X60242Y58903D01*
X60333Y58999D01*
X60428Y59093D01*
X60526Y59183D01*
X60626Y59271D01*
X60729Y59355D01*
X60834Y59437D01*
X60941Y59515D01*
X61051Y59590D01*
X61163Y59661D01*
X61278Y59729D01*
X61394Y59794D01*
X61512Y59856D01*
X61632Y59913D01*
X61753Y59967D01*
X61876Y60018D01*
X62001Y60064D01*
X62126Y60107D01*
X62254Y60147D01*
X62382Y60182D01*
X62511Y60214D01*
X62641Y60241D01*
X62772Y60265D01*
X62903Y60285D01*
X63035Y60301D01*
X63168Y60313D01*
X63301Y60321D01*
X63434Y60325D01*
X63566Y60325D01*
X63699Y60321D01*
X63832Y60313D01*
X63965Y60301D01*
X64097Y60285D01*
X64228Y60265D01*
X64359Y60241D01*
X64489Y60214D01*
X64618Y60182D01*
X64746Y60147D01*
X64874Y60107D01*
X64999Y60064D01*
X65124Y60018D01*
X65247Y59967D01*
X65368Y59913D01*
X65488Y59856D01*
X65606Y59794D01*
X65723Y59729D01*
X65837Y59661D01*
X65949Y59590D01*
X66059Y59515D01*
X66166Y59437D01*
X66271Y59355D01*
X66374Y59271D01*
X66474Y59183D01*
X66572Y59093D01*
X66667Y58999D01*
X66758Y58903D01*
X66847Y58805D01*
X66933Y58703D01*
X67016Y58599D01*
X67096Y58493D01*
X67173Y58384D01*
X67246Y58273D01*
X67316Y58160D01*
X67382Y58045D01*
X67445Y57928D01*
X67505Y57809D01*
X67561Y57688D01*
X67613Y57566D01*
X67662Y57442D01*
X67706Y57317D01*
X67748Y57190D01*
X67785Y57063D01*
X67818Y56934D01*
X67848Y56804D01*
X67874Y56674D01*
X67895Y56542D01*
X67913Y56411D01*
X67927Y56278D01*
X67937Y56146D01*
X67943Y56013D01*
X67945Y55880D01*
X67943Y55747D01*
X67937Y55614D01*
X67927Y55482D01*
X67913Y55349D01*
X67895Y55218D01*
X67874Y55086D01*
X67848Y54956D01*
X67818Y54826D01*
X67785Y54697D01*
X67748Y54570D01*
X67706Y54443D01*
X67662Y54318D01*
X67613Y54194D01*
X67561Y54072D01*
X67505Y53951D01*
X67445Y53832D01*
X67382Y53715D01*
X67316Y53600D01*
X67246Y53487D01*
X67173Y53376D01*
X67096Y53267D01*
X67016Y53161D01*
X66933Y53057D01*
X66847Y52955D01*
X66758Y52857D01*
X66667Y52761D01*
X66572Y52667D01*
X66474Y52577D01*
X66374Y52489D01*
X66271Y52405D01*
X66166Y52323D01*
X66059Y52245D01*
X65949Y52170D01*
X65837Y52099D01*
X65722Y52031D01*
X65606Y51966D01*
X65488Y51904D01*
X65368Y51847D01*
X65247Y51793D01*
X65124Y51742D01*
X64999Y51696D01*
X64874Y51653D01*
X64746Y51613D01*
X64618Y51578D01*
X64489Y51546D01*
X64359Y51519D01*
X64228Y51495D01*
X64097Y51475D01*
X63965Y51459D01*
X63832Y51447D01*
X63699Y51439D01*
X63566Y51435D01*
X63434Y51435D01*
X63301Y51439D01*
X63168Y51447D01*
X63035Y51459D01*
X62903Y51475D01*
X62772Y51495D01*
X62641Y51519D01*
X62511Y51546D01*
X62382Y51578D01*
X62254Y51613D01*
X62126Y51653D01*
X62001Y51696D01*
X61876Y51742D01*
X61753Y51793D01*
X61632Y51847D01*
X61512Y51904D01*
X61394Y51966D01*
X61277Y52031D01*
X61163Y52099D01*
X61051Y52170D01*
X60941Y52245D01*
X60834Y52323D01*
X60729Y52405D01*
X60626Y52489D01*
X60526Y52577D01*
X60428Y52667D01*
X60333Y52761D01*
X60242Y52857D01*
X60153Y52955D01*
X60067Y53057D01*
X59984Y53161D01*
X59904Y53267D01*
X59827Y53376D01*
X59754Y53487D01*
X59684Y53600D01*
X59618Y53715D01*
X59555Y53832D01*
X59495Y53951D01*
X59439Y54072D01*
X59387Y54194D01*
X59338Y54318D01*
X59294Y54443D01*
X59252Y54570D01*
X59215Y54697D01*
X59182Y54826D01*
X59152Y54956D01*
X59126Y55086D01*
X59105Y55218D01*
X59087Y55349D01*
X59073Y55482D01*
X59063Y55614D01*
X59057Y55747D01*
X59055Y55880D01*
M02*
