G04 EAGLE Gerber RS-274X export*
G75*
%MOMM*%
%FSLAX34Y34*%
%LPD*%
%INBottom silk*%
%IPPOS*%
%AMOC8*
5,1,8,0,0,1.08239X$1,22.5*%
G01*
%ADD10C,0.000000*%
%ADD11C,0.076200*%
%ADD12C,0.203200*%
%ADD13C,0.101600*%

G36*
X140090Y69600D02*
X140090Y69600D01*
X140092Y69602D01*
X140093Y69601D01*
X140764Y69836D01*
X140765Y69837D01*
X140766Y69837D01*
X141368Y70215D01*
X141369Y70217D01*
X141371Y70217D01*
X141873Y70719D01*
X141873Y70721D01*
X141875Y70722D01*
X142253Y71324D01*
X142253Y71325D01*
X142254Y71326D01*
X142489Y71997D01*
X142489Y71999D01*
X142490Y72000D01*
X142524Y72300D01*
X142524Y72301D01*
X142525Y72312D01*
X142561Y72635D01*
X142563Y72647D01*
X142569Y72706D01*
X142569Y72707D01*
X142568Y72708D01*
X142569Y72709D01*
X142490Y73415D01*
X142488Y73417D01*
X142489Y73418D01*
X142254Y74089D01*
X142253Y74090D01*
X142253Y74091D01*
X141875Y74693D01*
X141873Y74694D01*
X141873Y74696D01*
X141371Y75198D01*
X141369Y75198D01*
X141368Y75200D01*
X140766Y75578D01*
X140765Y75578D01*
X140764Y75579D01*
X140093Y75814D01*
X140091Y75814D01*
X140090Y75815D01*
X139384Y75894D01*
X139382Y75893D01*
X139381Y75894D01*
X138675Y75815D01*
X138673Y75813D01*
X138672Y75814D01*
X138001Y75579D01*
X138000Y75578D01*
X137999Y75578D01*
X137397Y75200D01*
X137396Y75198D01*
X137394Y75198D01*
X136892Y74696D01*
X136892Y74694D01*
X136890Y74693D01*
X136512Y74091D01*
X136512Y74090D01*
X136511Y74089D01*
X136276Y73418D01*
X136277Y73416D01*
X136275Y73415D01*
X136262Y73294D01*
X136260Y73282D01*
X136224Y72960D01*
X136223Y72948D01*
X136196Y72709D01*
X136197Y72707D01*
X136196Y72706D01*
X136275Y72000D01*
X136277Y71998D01*
X136276Y71997D01*
X136511Y71326D01*
X136512Y71325D01*
X136512Y71324D01*
X136890Y70722D01*
X136892Y70721D01*
X136892Y70719D01*
X137394Y70217D01*
X137396Y70217D01*
X137397Y70215D01*
X137999Y69837D01*
X138000Y69837D01*
X138001Y69836D01*
X138672Y69601D01*
X138674Y69602D01*
X138675Y69600D01*
X139381Y69521D01*
X139383Y69522D01*
X139384Y69521D01*
X140090Y69600D01*
G37*
D10*
X15240Y15240D02*
X152400Y15240D01*
X152400Y195580D01*
X15240Y195580D01*
X15240Y15240D01*
X21850Y165000D02*
X21854Y165337D01*
X21867Y165675D01*
X21887Y166012D01*
X21916Y166348D01*
X21953Y166683D01*
X21999Y167018D01*
X22052Y167351D01*
X22114Y167682D01*
X22184Y168013D01*
X22262Y168341D01*
X22348Y168667D01*
X22442Y168991D01*
X22544Y169313D01*
X22654Y169632D01*
X22771Y169949D01*
X22897Y170262D01*
X23030Y170572D01*
X23170Y170879D01*
X23318Y171182D01*
X23474Y171482D01*
X23636Y171777D01*
X23806Y172069D01*
X23983Y172356D01*
X24167Y172639D01*
X24358Y172917D01*
X24556Y173191D01*
X24760Y173459D01*
X24971Y173723D01*
X25188Y173981D01*
X25412Y174234D01*
X25642Y174481D01*
X25877Y174723D01*
X26119Y174958D01*
X26366Y175188D01*
X26619Y175412D01*
X26877Y175629D01*
X27141Y175840D01*
X27409Y176044D01*
X27683Y176242D01*
X27961Y176433D01*
X28244Y176617D01*
X28531Y176794D01*
X28823Y176964D01*
X29118Y177126D01*
X29418Y177282D01*
X29721Y177430D01*
X30028Y177570D01*
X30338Y177703D01*
X30651Y177829D01*
X30968Y177946D01*
X31287Y178056D01*
X31609Y178158D01*
X31933Y178252D01*
X32259Y178338D01*
X32587Y178416D01*
X32918Y178486D01*
X33249Y178548D01*
X33582Y178601D01*
X33917Y178647D01*
X34252Y178684D01*
X34588Y178713D01*
X34925Y178733D01*
X35263Y178746D01*
X35600Y178750D01*
X35937Y178746D01*
X36275Y178733D01*
X36612Y178713D01*
X36948Y178684D01*
X37283Y178647D01*
X37618Y178601D01*
X37951Y178548D01*
X38282Y178486D01*
X38613Y178416D01*
X38941Y178338D01*
X39267Y178252D01*
X39591Y178158D01*
X39913Y178056D01*
X40232Y177946D01*
X40549Y177829D01*
X40862Y177703D01*
X41172Y177570D01*
X41479Y177430D01*
X41782Y177282D01*
X42082Y177126D01*
X42377Y176964D01*
X42669Y176794D01*
X42956Y176617D01*
X43239Y176433D01*
X43517Y176242D01*
X43791Y176044D01*
X44059Y175840D01*
X44323Y175629D01*
X44581Y175412D01*
X44834Y175188D01*
X45081Y174958D01*
X45323Y174723D01*
X45558Y174481D01*
X45788Y174234D01*
X46012Y173981D01*
X46229Y173723D01*
X46440Y173459D01*
X46644Y173191D01*
X46842Y172917D01*
X47033Y172639D01*
X47217Y172356D01*
X47394Y172069D01*
X47564Y171777D01*
X47726Y171482D01*
X47882Y171182D01*
X48030Y170879D01*
X48170Y170572D01*
X48303Y170262D01*
X48429Y169949D01*
X48546Y169632D01*
X48656Y169313D01*
X48758Y168991D01*
X48852Y168667D01*
X48938Y168341D01*
X49016Y168013D01*
X49086Y167682D01*
X49148Y167351D01*
X49201Y167018D01*
X49247Y166683D01*
X49284Y166348D01*
X49313Y166012D01*
X49333Y165675D01*
X49346Y165337D01*
X49350Y165000D01*
X49346Y164663D01*
X49333Y164325D01*
X49313Y163988D01*
X49284Y163652D01*
X49247Y163317D01*
X49201Y162982D01*
X49148Y162649D01*
X49086Y162318D01*
X49016Y161987D01*
X48938Y161659D01*
X48852Y161333D01*
X48758Y161009D01*
X48656Y160687D01*
X48546Y160368D01*
X48429Y160051D01*
X48303Y159738D01*
X48170Y159428D01*
X48030Y159121D01*
X47882Y158818D01*
X47726Y158518D01*
X47564Y158223D01*
X47394Y157931D01*
X47217Y157644D01*
X47033Y157361D01*
X46842Y157083D01*
X46644Y156809D01*
X46440Y156541D01*
X46229Y156277D01*
X46012Y156019D01*
X45788Y155766D01*
X45558Y155519D01*
X45323Y155277D01*
X45081Y155042D01*
X44834Y154812D01*
X44581Y154588D01*
X44323Y154371D01*
X44059Y154160D01*
X43791Y153956D01*
X43517Y153758D01*
X43239Y153567D01*
X42956Y153383D01*
X42669Y153206D01*
X42377Y153036D01*
X42082Y152874D01*
X41782Y152718D01*
X41479Y152570D01*
X41172Y152430D01*
X40862Y152297D01*
X40549Y152171D01*
X40232Y152054D01*
X39913Y151944D01*
X39591Y151842D01*
X39267Y151748D01*
X38941Y151662D01*
X38613Y151584D01*
X38282Y151514D01*
X37951Y151452D01*
X37618Y151399D01*
X37283Y151353D01*
X36948Y151316D01*
X36612Y151287D01*
X36275Y151267D01*
X35937Y151254D01*
X35600Y151250D01*
X35263Y151254D01*
X34925Y151267D01*
X34588Y151287D01*
X34252Y151316D01*
X33917Y151353D01*
X33582Y151399D01*
X33249Y151452D01*
X32918Y151514D01*
X32587Y151584D01*
X32259Y151662D01*
X31933Y151748D01*
X31609Y151842D01*
X31287Y151944D01*
X30968Y152054D01*
X30651Y152171D01*
X30338Y152297D01*
X30028Y152430D01*
X29721Y152570D01*
X29418Y152718D01*
X29118Y152874D01*
X28823Y153036D01*
X28531Y153206D01*
X28244Y153383D01*
X27961Y153567D01*
X27683Y153758D01*
X27409Y153956D01*
X27141Y154160D01*
X26877Y154371D01*
X26619Y154588D01*
X26366Y154812D01*
X26119Y155042D01*
X25877Y155277D01*
X25642Y155519D01*
X25412Y155766D01*
X25188Y156019D01*
X24971Y156277D01*
X24760Y156541D01*
X24556Y156809D01*
X24358Y157083D01*
X24167Y157361D01*
X23983Y157644D01*
X23806Y157931D01*
X23636Y158223D01*
X23474Y158518D01*
X23318Y158818D01*
X23170Y159121D01*
X23030Y159428D01*
X22897Y159738D01*
X22771Y160051D01*
X22654Y160368D01*
X22544Y160687D01*
X22442Y161009D01*
X22348Y161333D01*
X22262Y161659D01*
X22184Y161987D01*
X22114Y162318D01*
X22052Y162649D01*
X21999Y162982D01*
X21953Y163317D01*
X21916Y163652D01*
X21887Y163988D01*
X21867Y164325D01*
X21854Y164663D01*
X21850Y165000D01*
D11*
X39069Y59563D02*
X40705Y59563D01*
X40783Y59565D01*
X40861Y59570D01*
X40938Y59580D01*
X41015Y59593D01*
X41091Y59609D01*
X41166Y59629D01*
X41240Y59653D01*
X41313Y59680D01*
X41385Y59711D01*
X41455Y59745D01*
X41524Y59782D01*
X41590Y59823D01*
X41655Y59867D01*
X41717Y59913D01*
X41777Y59963D01*
X41835Y60015D01*
X41890Y60070D01*
X41942Y60128D01*
X41992Y60188D01*
X42038Y60250D01*
X42082Y60315D01*
X42123Y60382D01*
X42160Y60450D01*
X42194Y60520D01*
X42225Y60592D01*
X42252Y60665D01*
X42276Y60739D01*
X42296Y60814D01*
X42312Y60890D01*
X42325Y60967D01*
X42335Y61044D01*
X42340Y61122D01*
X42342Y61200D01*
X42342Y65292D01*
X42340Y65370D01*
X42335Y65448D01*
X42325Y65525D01*
X42312Y65602D01*
X42296Y65678D01*
X42276Y65753D01*
X42252Y65827D01*
X42225Y65900D01*
X42194Y65972D01*
X42160Y66042D01*
X42123Y66111D01*
X42082Y66177D01*
X42038Y66242D01*
X41992Y66304D01*
X41942Y66364D01*
X41890Y66422D01*
X41835Y66477D01*
X41777Y66529D01*
X41717Y66579D01*
X41655Y66625D01*
X41590Y66669D01*
X41524Y66710D01*
X41455Y66747D01*
X41385Y66781D01*
X41313Y66812D01*
X41240Y66839D01*
X41166Y66863D01*
X41091Y66883D01*
X41015Y66899D01*
X40938Y66912D01*
X40861Y66922D01*
X40783Y66927D01*
X40705Y66929D01*
X39069Y66929D01*
X36223Y65292D02*
X34177Y66929D01*
X34177Y59563D01*
X36223Y59563D02*
X32131Y59563D01*
D12*
X85852Y115983D02*
X132588Y115983D01*
X82042Y80867D02*
X82026Y80754D01*
X82015Y80640D01*
X82008Y80526D01*
X82004Y80412D01*
X82005Y80297D01*
X82009Y80183D01*
X82017Y80069D01*
X82029Y79955D01*
X82045Y79842D01*
X82065Y79730D01*
X82089Y79618D01*
X82116Y79507D01*
X82148Y79397D01*
X82183Y79288D01*
X82221Y79180D01*
X82264Y79074D01*
X82310Y78970D01*
X82359Y78866D01*
X82412Y78765D01*
X82468Y78666D01*
X82528Y78568D01*
X82591Y78473D01*
X82658Y78380D01*
X82727Y78289D01*
X82799Y78201D01*
X82875Y78115D01*
X82953Y78031D01*
X83034Y77951D01*
X83118Y77873D01*
X83205Y77798D01*
X83294Y77727D01*
X83385Y77658D01*
X83479Y77592D01*
X83574Y77530D01*
X83672Y77471D01*
X83772Y77415D01*
X83874Y77363D01*
X83977Y77314D01*
X84082Y77269D01*
X84189Y77228D01*
X84297Y77190D01*
X84406Y77155D01*
X84516Y77125D01*
X84627Y77098D01*
X84739Y77076D01*
X84852Y77057D01*
X132588Y115983D02*
X132718Y115966D01*
X132847Y115945D01*
X132976Y115920D01*
X133104Y115892D01*
X133231Y115859D01*
X133357Y115823D01*
X133482Y115782D01*
X133605Y115738D01*
X133727Y115691D01*
X133848Y115639D01*
X133967Y115585D01*
X134084Y115526D01*
X134199Y115464D01*
X134313Y115399D01*
X134425Y115330D01*
X134534Y115257D01*
X134641Y115182D01*
X134746Y115103D01*
X134848Y115021D01*
X134948Y114936D01*
X135045Y114849D01*
X135140Y114758D01*
X135232Y114664D01*
X135321Y114568D01*
X135407Y114469D01*
X135489Y114368D01*
X135569Y114264D01*
X135646Y114157D01*
X135719Y114049D01*
X135789Y113938D01*
X135856Y113825D01*
X135919Y113710D01*
X135979Y113594D01*
X136035Y113475D01*
X136088Y113355D01*
X136137Y113234D01*
X136182Y113111D01*
X136224Y112986D01*
X136262Y112861D01*
X136295Y112734D01*
X136326Y112607D01*
X136352Y112478D01*
X136374Y112349D01*
X136393Y112219D01*
X136407Y112089D01*
X136418Y111958D01*
X136424Y111827D01*
X136427Y111696D01*
X136426Y111565D01*
X136420Y111434D01*
X136411Y111304D01*
X136398Y111173D01*
X85852Y115983D02*
X85730Y115981D01*
X85608Y115975D01*
X85486Y115965D01*
X85365Y115952D01*
X85244Y115934D01*
X85124Y115913D01*
X85004Y115888D01*
X84885Y115859D01*
X84768Y115826D01*
X84651Y115789D01*
X84536Y115749D01*
X84422Y115705D01*
X84310Y115657D01*
X84199Y115606D01*
X84090Y115551D01*
X83982Y115493D01*
X83877Y115431D01*
X83773Y115366D01*
X83672Y115298D01*
X83573Y115227D01*
X83476Y115152D01*
X83382Y115074D01*
X83290Y114994D01*
X83201Y114910D01*
X83115Y114824D01*
X83031Y114735D01*
X82951Y114643D01*
X82873Y114549D01*
X82798Y114452D01*
X82727Y114353D01*
X82659Y114252D01*
X82594Y114148D01*
X82532Y114043D01*
X82474Y113935D01*
X82419Y113826D01*
X82368Y113715D01*
X82320Y113603D01*
X82276Y113489D01*
X82236Y113374D01*
X82199Y113257D01*
X82166Y113140D01*
X82137Y113021D01*
X82112Y112901D01*
X82091Y112781D01*
X82073Y112660D01*
X82060Y112539D01*
X82050Y112417D01*
X82044Y112295D01*
X82042Y112173D01*
X132587Y77057D02*
X132701Y77042D01*
X132815Y77030D01*
X132929Y77023D01*
X133043Y77019D01*
X133157Y77020D01*
X133272Y77024D01*
X133386Y77032D01*
X133499Y77044D01*
X133612Y77060D01*
X133725Y77080D01*
X133837Y77104D01*
X133948Y77131D01*
X134058Y77162D01*
X134167Y77197D01*
X134274Y77236D01*
X134381Y77278D01*
X134485Y77324D01*
X134588Y77374D01*
X134690Y77427D01*
X134789Y77483D01*
X134887Y77543D01*
X134982Y77606D01*
X135075Y77672D01*
X135166Y77742D01*
X135254Y77814D01*
X135340Y77890D01*
X135423Y77968D01*
X135504Y78049D01*
X135582Y78133D01*
X135656Y78219D01*
X135728Y78308D01*
X135797Y78400D01*
X135863Y78493D01*
X135925Y78589D01*
X135984Y78687D01*
X136040Y78787D01*
X136092Y78889D01*
X136140Y78992D01*
X136186Y79097D01*
X136227Y79204D01*
X136265Y79312D01*
X136299Y79421D01*
X136329Y79531D01*
X136356Y79642D01*
X136379Y79754D01*
X136398Y79867D01*
X132588Y77057D02*
X84852Y77057D01*
X82042Y80867D02*
X82042Y112173D01*
X135890Y102616D02*
X135732Y102614D01*
X135573Y102608D01*
X135415Y102598D01*
X135258Y102584D01*
X135100Y102567D01*
X134944Y102545D01*
X134787Y102520D01*
X134632Y102490D01*
X134477Y102457D01*
X134323Y102420D01*
X134170Y102379D01*
X134018Y102334D01*
X133868Y102285D01*
X133718Y102233D01*
X133570Y102177D01*
X133423Y102117D01*
X133278Y102054D01*
X133135Y101987D01*
X132993Y101917D01*
X132853Y101843D01*
X132715Y101765D01*
X132579Y101684D01*
X132445Y101600D01*
X132313Y101513D01*
X132183Y101422D01*
X132056Y101328D01*
X131931Y101231D01*
X131808Y101130D01*
X131688Y101027D01*
X131571Y100921D01*
X131456Y100812D01*
X131344Y100700D01*
X131235Y100585D01*
X131129Y100468D01*
X131026Y100348D01*
X130925Y100225D01*
X130828Y100100D01*
X130734Y99973D01*
X130643Y99843D01*
X130556Y99711D01*
X130472Y99577D01*
X130391Y99441D01*
X130313Y99303D01*
X130239Y99163D01*
X130169Y99021D01*
X130102Y98878D01*
X130039Y98733D01*
X129979Y98586D01*
X129923Y98438D01*
X129871Y98288D01*
X129822Y98138D01*
X129777Y97986D01*
X129736Y97833D01*
X129699Y97679D01*
X129666Y97524D01*
X129636Y97369D01*
X129611Y97212D01*
X129589Y97056D01*
X129572Y96898D01*
X129558Y96741D01*
X129548Y96583D01*
X129542Y96424D01*
X129540Y96266D01*
X129542Y96108D01*
X129548Y95949D01*
X129558Y95791D01*
X129572Y95634D01*
X129589Y95476D01*
X129611Y95320D01*
X129636Y95163D01*
X129666Y95008D01*
X129699Y94853D01*
X129736Y94699D01*
X129777Y94546D01*
X129822Y94394D01*
X129871Y94244D01*
X129923Y94094D01*
X129979Y93946D01*
X130039Y93799D01*
X130102Y93654D01*
X130169Y93511D01*
X130239Y93369D01*
X130313Y93229D01*
X130391Y93091D01*
X130472Y92955D01*
X130556Y92821D01*
X130643Y92689D01*
X130734Y92559D01*
X130828Y92432D01*
X130925Y92307D01*
X131026Y92184D01*
X131129Y92064D01*
X131235Y91947D01*
X131344Y91832D01*
X131456Y91720D01*
X131571Y91611D01*
X131688Y91505D01*
X131808Y91402D01*
X131931Y91301D01*
X132056Y91204D01*
X132183Y91110D01*
X132313Y91019D01*
X132445Y90932D01*
X132579Y90848D01*
X132715Y90767D01*
X132853Y90689D01*
X132993Y90615D01*
X133135Y90545D01*
X133278Y90478D01*
X133423Y90415D01*
X133570Y90355D01*
X133718Y90299D01*
X133868Y90247D01*
X134018Y90198D01*
X134170Y90153D01*
X134323Y90112D01*
X134477Y90075D01*
X134632Y90042D01*
X134787Y90012D01*
X134944Y89987D01*
X135100Y89965D01*
X135258Y89948D01*
X135415Y89934D01*
X135573Y89924D01*
X135732Y89918D01*
X135890Y89916D01*
X136398Y102616D02*
X136398Y111046D01*
X136398Y89916D02*
X136398Y79867D01*
D11*
X141351Y88187D02*
X141351Y90558D01*
X141351Y88187D02*
X146685Y88187D01*
X146685Y90558D01*
X144314Y89965D02*
X144314Y88187D01*
X141351Y93910D02*
X141351Y95096D01*
X141351Y93910D02*
X141353Y93844D01*
X141358Y93777D01*
X141368Y93712D01*
X141381Y93646D01*
X141397Y93582D01*
X141417Y93519D01*
X141441Y93457D01*
X141468Y93396D01*
X141499Y93337D01*
X141533Y93280D01*
X141570Y93224D01*
X141610Y93171D01*
X141652Y93120D01*
X141698Y93072D01*
X141746Y93026D01*
X141797Y92984D01*
X141850Y92944D01*
X141906Y92907D01*
X141963Y92873D01*
X142022Y92842D01*
X142083Y92815D01*
X142145Y92791D01*
X142208Y92771D01*
X142272Y92755D01*
X142338Y92742D01*
X142403Y92732D01*
X142470Y92727D01*
X142536Y92725D01*
X145500Y92725D01*
X145566Y92727D01*
X145633Y92732D01*
X145698Y92742D01*
X145764Y92755D01*
X145828Y92771D01*
X145891Y92791D01*
X145953Y92815D01*
X146014Y92842D01*
X146073Y92873D01*
X146130Y92907D01*
X146186Y92944D01*
X146239Y92984D01*
X146290Y93026D01*
X146338Y93072D01*
X146384Y93120D01*
X146426Y93171D01*
X146466Y93224D01*
X146503Y93280D01*
X146537Y93337D01*
X146568Y93396D01*
X146595Y93456D01*
X146618Y93519D01*
X146639Y93582D01*
X146655Y93646D01*
X146668Y93711D01*
X146678Y93777D01*
X146683Y93844D01*
X146685Y93910D01*
X146685Y95096D01*
X141351Y98482D02*
X141351Y99668D01*
X141351Y98482D02*
X141353Y98416D01*
X141358Y98349D01*
X141368Y98284D01*
X141381Y98218D01*
X141397Y98154D01*
X141417Y98091D01*
X141441Y98029D01*
X141468Y97968D01*
X141499Y97909D01*
X141533Y97852D01*
X141570Y97796D01*
X141610Y97743D01*
X141652Y97692D01*
X141698Y97644D01*
X141746Y97598D01*
X141797Y97556D01*
X141850Y97516D01*
X141906Y97479D01*
X141963Y97445D01*
X142022Y97414D01*
X142083Y97387D01*
X142145Y97363D01*
X142208Y97343D01*
X142272Y97327D01*
X142338Y97314D01*
X142403Y97304D01*
X142470Y97299D01*
X142536Y97297D01*
X145500Y97297D01*
X145566Y97299D01*
X145633Y97304D01*
X145698Y97314D01*
X145764Y97327D01*
X145828Y97343D01*
X145891Y97363D01*
X145953Y97387D01*
X146014Y97414D01*
X146073Y97445D01*
X146130Y97479D01*
X146186Y97516D01*
X146239Y97556D01*
X146290Y97598D01*
X146338Y97644D01*
X146384Y97692D01*
X146426Y97743D01*
X146466Y97796D01*
X146503Y97852D01*
X146537Y97909D01*
X146568Y97968D01*
X146595Y98028D01*
X146618Y98091D01*
X146639Y98154D01*
X146655Y98218D01*
X146668Y98283D01*
X146678Y98349D01*
X146683Y98416D01*
X146685Y98482D01*
X146685Y99668D01*
X145500Y101889D02*
X146685Y103371D01*
X141351Y103371D01*
X141351Y101889D02*
X141351Y104853D01*
D13*
X66802Y95758D02*
X55118Y95758D01*
X66802Y95758D02*
X66802Y99004D01*
X66800Y99117D01*
X66794Y99230D01*
X66784Y99343D01*
X66770Y99456D01*
X66753Y99568D01*
X66731Y99679D01*
X66706Y99789D01*
X66676Y99899D01*
X66643Y100007D01*
X66606Y100114D01*
X66566Y100220D01*
X66521Y100324D01*
X66473Y100427D01*
X66422Y100528D01*
X66367Y100627D01*
X66309Y100724D01*
X66247Y100819D01*
X66182Y100912D01*
X66114Y101002D01*
X66043Y101090D01*
X65968Y101176D01*
X65891Y101259D01*
X65811Y101339D01*
X65728Y101416D01*
X65642Y101491D01*
X65554Y101562D01*
X65464Y101630D01*
X65371Y101695D01*
X65276Y101757D01*
X65179Y101815D01*
X65080Y101870D01*
X64979Y101921D01*
X64876Y101969D01*
X64772Y102014D01*
X64666Y102054D01*
X64559Y102091D01*
X64451Y102124D01*
X64341Y102154D01*
X64231Y102179D01*
X64120Y102201D01*
X64008Y102218D01*
X63895Y102232D01*
X63782Y102242D01*
X63669Y102248D01*
X63556Y102250D01*
X63443Y102248D01*
X63330Y102242D01*
X63217Y102232D01*
X63104Y102218D01*
X62992Y102201D01*
X62881Y102179D01*
X62771Y102154D01*
X62661Y102124D01*
X62553Y102091D01*
X62446Y102054D01*
X62340Y102014D01*
X62236Y101969D01*
X62133Y101921D01*
X62032Y101870D01*
X61933Y101815D01*
X61836Y101757D01*
X61741Y101695D01*
X61648Y101630D01*
X61558Y101562D01*
X61470Y101491D01*
X61384Y101416D01*
X61301Y101339D01*
X61221Y101259D01*
X61144Y101176D01*
X61069Y101090D01*
X60998Y101002D01*
X60930Y100912D01*
X60865Y100819D01*
X60803Y100724D01*
X60745Y100627D01*
X60690Y100528D01*
X60639Y100427D01*
X60591Y100324D01*
X60546Y100220D01*
X60506Y100114D01*
X60469Y100007D01*
X60436Y99899D01*
X60406Y99789D01*
X60381Y99679D01*
X60359Y99568D01*
X60342Y99456D01*
X60328Y99343D01*
X60318Y99230D01*
X60312Y99117D01*
X60310Y99004D01*
X60311Y99004D02*
X60311Y95758D01*
X60311Y99653D02*
X55118Y102249D01*
X64206Y107114D02*
X66802Y110360D01*
X55118Y110360D01*
X55118Y113605D02*
X55118Y107114D01*
X43942Y136398D02*
X43942Y148082D01*
X40696Y148082D01*
X40583Y148080D01*
X40470Y148074D01*
X40357Y148064D01*
X40244Y148050D01*
X40132Y148033D01*
X40021Y148011D01*
X39911Y147986D01*
X39801Y147956D01*
X39693Y147923D01*
X39586Y147886D01*
X39480Y147846D01*
X39376Y147801D01*
X39273Y147753D01*
X39172Y147702D01*
X39073Y147647D01*
X38976Y147589D01*
X38881Y147527D01*
X38788Y147462D01*
X38698Y147394D01*
X38610Y147323D01*
X38524Y147248D01*
X38441Y147171D01*
X38361Y147091D01*
X38284Y147008D01*
X38209Y146922D01*
X38138Y146834D01*
X38070Y146744D01*
X38005Y146651D01*
X37943Y146556D01*
X37885Y146459D01*
X37830Y146360D01*
X37779Y146259D01*
X37731Y146156D01*
X37686Y146052D01*
X37646Y145946D01*
X37609Y145839D01*
X37576Y145731D01*
X37546Y145621D01*
X37521Y145511D01*
X37499Y145400D01*
X37482Y145288D01*
X37468Y145175D01*
X37458Y145062D01*
X37452Y144949D01*
X37450Y144836D01*
X37452Y144723D01*
X37458Y144610D01*
X37468Y144497D01*
X37482Y144384D01*
X37499Y144272D01*
X37521Y144161D01*
X37546Y144051D01*
X37576Y143941D01*
X37609Y143833D01*
X37646Y143726D01*
X37686Y143620D01*
X37731Y143516D01*
X37779Y143413D01*
X37830Y143312D01*
X37885Y143213D01*
X37943Y143116D01*
X38005Y143021D01*
X38070Y142928D01*
X38138Y142838D01*
X38209Y142750D01*
X38284Y142664D01*
X38361Y142581D01*
X38441Y142501D01*
X38524Y142424D01*
X38610Y142349D01*
X38698Y142278D01*
X38788Y142210D01*
X38881Y142145D01*
X38976Y142083D01*
X39073Y142025D01*
X39172Y141970D01*
X39273Y141919D01*
X39376Y141871D01*
X39480Y141826D01*
X39586Y141786D01*
X39693Y141749D01*
X39801Y141716D01*
X39911Y141686D01*
X40021Y141661D01*
X40132Y141639D01*
X40244Y141622D01*
X40357Y141608D01*
X40470Y141598D01*
X40583Y141592D01*
X40696Y141590D01*
X40696Y141591D02*
X43942Y141591D01*
X40047Y141591D02*
X37451Y136398D01*
X26095Y145161D02*
X26097Y145268D01*
X26103Y145374D01*
X26113Y145480D01*
X26126Y145586D01*
X26144Y145692D01*
X26165Y145796D01*
X26190Y145900D01*
X26219Y146003D01*
X26251Y146104D01*
X26288Y146204D01*
X26328Y146303D01*
X26371Y146401D01*
X26418Y146497D01*
X26469Y146591D01*
X26523Y146683D01*
X26580Y146773D01*
X26640Y146861D01*
X26704Y146946D01*
X26771Y147029D01*
X26841Y147110D01*
X26913Y147188D01*
X26989Y147264D01*
X27067Y147336D01*
X27148Y147406D01*
X27231Y147473D01*
X27316Y147537D01*
X27404Y147597D01*
X27494Y147654D01*
X27586Y147708D01*
X27680Y147759D01*
X27776Y147806D01*
X27874Y147849D01*
X27973Y147889D01*
X28073Y147926D01*
X28174Y147958D01*
X28277Y147987D01*
X28381Y148012D01*
X28485Y148033D01*
X28591Y148051D01*
X28697Y148064D01*
X28803Y148074D01*
X28909Y148080D01*
X29016Y148082D01*
X29137Y148080D01*
X29258Y148074D01*
X29378Y148064D01*
X29499Y148051D01*
X29618Y148033D01*
X29738Y148012D01*
X29856Y147987D01*
X29973Y147958D01*
X30090Y147925D01*
X30205Y147889D01*
X30319Y147848D01*
X30432Y147805D01*
X30544Y147757D01*
X30653Y147706D01*
X30761Y147651D01*
X30868Y147593D01*
X30972Y147532D01*
X31074Y147467D01*
X31174Y147399D01*
X31272Y147328D01*
X31368Y147254D01*
X31461Y147177D01*
X31551Y147096D01*
X31639Y147013D01*
X31724Y146927D01*
X31807Y146838D01*
X31886Y146747D01*
X31963Y146653D01*
X32036Y146557D01*
X32106Y146459D01*
X32173Y146358D01*
X32237Y146255D01*
X32298Y146150D01*
X32355Y146043D01*
X32408Y145935D01*
X32458Y145825D01*
X32504Y145713D01*
X32547Y145600D01*
X32586Y145485D01*
X27069Y142889D02*
X26990Y142967D01*
X26914Y143047D01*
X26841Y143130D01*
X26771Y143216D01*
X26704Y143303D01*
X26640Y143394D01*
X26580Y143486D01*
X26522Y143580D01*
X26468Y143677D01*
X26418Y143775D01*
X26371Y143875D01*
X26327Y143976D01*
X26287Y144079D01*
X26251Y144184D01*
X26219Y144289D01*
X26190Y144396D01*
X26165Y144503D01*
X26143Y144612D01*
X26126Y144721D01*
X26112Y144830D01*
X26103Y144940D01*
X26097Y145051D01*
X26095Y145161D01*
X27068Y142889D02*
X32586Y136398D01*
X26095Y136398D01*
D10*
X109855Y45720D02*
X109857Y45853D01*
X109863Y45986D01*
X109873Y46118D01*
X109887Y46251D01*
X109905Y46382D01*
X109926Y46514D01*
X109952Y46644D01*
X109982Y46774D01*
X110015Y46903D01*
X110052Y47030D01*
X110094Y47157D01*
X110138Y47282D01*
X110187Y47406D01*
X110239Y47528D01*
X110295Y47649D01*
X110355Y47768D01*
X110418Y47885D01*
X110484Y48000D01*
X110554Y48113D01*
X110627Y48224D01*
X110704Y48333D01*
X110784Y48439D01*
X110867Y48543D01*
X110953Y48645D01*
X111042Y48743D01*
X111133Y48839D01*
X111228Y48933D01*
X111326Y49023D01*
X111426Y49111D01*
X111529Y49195D01*
X111634Y49277D01*
X111741Y49355D01*
X111851Y49430D01*
X111963Y49501D01*
X112078Y49569D01*
X112194Y49634D01*
X112312Y49696D01*
X112432Y49753D01*
X112553Y49807D01*
X112676Y49858D01*
X112801Y49904D01*
X112926Y49947D01*
X113054Y49987D01*
X113182Y50022D01*
X113311Y50054D01*
X113441Y50081D01*
X113572Y50105D01*
X113703Y50125D01*
X113835Y50141D01*
X113968Y50153D01*
X114101Y50161D01*
X114234Y50165D01*
X114366Y50165D01*
X114499Y50161D01*
X114632Y50153D01*
X114765Y50141D01*
X114897Y50125D01*
X115028Y50105D01*
X115159Y50081D01*
X115289Y50054D01*
X115418Y50022D01*
X115546Y49987D01*
X115674Y49947D01*
X115799Y49904D01*
X115924Y49858D01*
X116047Y49807D01*
X116168Y49753D01*
X116288Y49696D01*
X116406Y49634D01*
X116523Y49569D01*
X116637Y49501D01*
X116749Y49430D01*
X116859Y49355D01*
X116966Y49277D01*
X117071Y49195D01*
X117174Y49111D01*
X117274Y49023D01*
X117372Y48933D01*
X117467Y48839D01*
X117558Y48743D01*
X117647Y48645D01*
X117733Y48543D01*
X117816Y48439D01*
X117896Y48333D01*
X117973Y48224D01*
X118046Y48113D01*
X118116Y48000D01*
X118182Y47885D01*
X118245Y47768D01*
X118305Y47649D01*
X118361Y47528D01*
X118413Y47406D01*
X118462Y47282D01*
X118506Y47157D01*
X118548Y47030D01*
X118585Y46903D01*
X118618Y46774D01*
X118648Y46644D01*
X118674Y46514D01*
X118695Y46382D01*
X118713Y46251D01*
X118727Y46118D01*
X118737Y45986D01*
X118743Y45853D01*
X118745Y45720D01*
X118743Y45587D01*
X118737Y45454D01*
X118727Y45322D01*
X118713Y45189D01*
X118695Y45058D01*
X118674Y44926D01*
X118648Y44796D01*
X118618Y44666D01*
X118585Y44537D01*
X118548Y44410D01*
X118506Y44283D01*
X118462Y44158D01*
X118413Y44034D01*
X118361Y43912D01*
X118305Y43791D01*
X118245Y43672D01*
X118182Y43555D01*
X118116Y43440D01*
X118046Y43327D01*
X117973Y43216D01*
X117896Y43107D01*
X117816Y43001D01*
X117733Y42897D01*
X117647Y42795D01*
X117558Y42697D01*
X117467Y42601D01*
X117372Y42507D01*
X117274Y42417D01*
X117174Y42329D01*
X117071Y42245D01*
X116966Y42163D01*
X116859Y42085D01*
X116749Y42010D01*
X116637Y41939D01*
X116522Y41871D01*
X116406Y41806D01*
X116288Y41744D01*
X116168Y41687D01*
X116047Y41633D01*
X115924Y41582D01*
X115799Y41536D01*
X115674Y41493D01*
X115546Y41453D01*
X115418Y41418D01*
X115289Y41386D01*
X115159Y41359D01*
X115028Y41335D01*
X114897Y41315D01*
X114765Y41299D01*
X114632Y41287D01*
X114499Y41279D01*
X114366Y41275D01*
X114234Y41275D01*
X114101Y41279D01*
X113968Y41287D01*
X113835Y41299D01*
X113703Y41315D01*
X113572Y41335D01*
X113441Y41359D01*
X113311Y41386D01*
X113182Y41418D01*
X113054Y41453D01*
X112926Y41493D01*
X112801Y41536D01*
X112676Y41582D01*
X112553Y41633D01*
X112432Y41687D01*
X112312Y41744D01*
X112194Y41806D01*
X112077Y41871D01*
X111963Y41939D01*
X111851Y42010D01*
X111741Y42085D01*
X111634Y42163D01*
X111529Y42245D01*
X111426Y42329D01*
X111326Y42417D01*
X111228Y42507D01*
X111133Y42601D01*
X111042Y42697D01*
X110953Y42795D01*
X110867Y42897D01*
X110784Y43001D01*
X110704Y43107D01*
X110627Y43216D01*
X110554Y43327D01*
X110484Y43440D01*
X110418Y43555D01*
X110355Y43672D01*
X110295Y43791D01*
X110239Y43912D01*
X110187Y44034D01*
X110138Y44158D01*
X110094Y44283D01*
X110052Y44410D01*
X110015Y44537D01*
X109982Y44666D01*
X109952Y44796D01*
X109926Y44926D01*
X109905Y45058D01*
X109887Y45189D01*
X109873Y45322D01*
X109863Y45454D01*
X109857Y45587D01*
X109855Y45720D01*
X59055Y35560D02*
X59057Y35693D01*
X59063Y35826D01*
X59073Y35958D01*
X59087Y36091D01*
X59105Y36222D01*
X59126Y36354D01*
X59152Y36484D01*
X59182Y36614D01*
X59215Y36743D01*
X59252Y36870D01*
X59294Y36997D01*
X59338Y37122D01*
X59387Y37246D01*
X59439Y37368D01*
X59495Y37489D01*
X59555Y37608D01*
X59618Y37725D01*
X59684Y37840D01*
X59754Y37953D01*
X59827Y38064D01*
X59904Y38173D01*
X59984Y38279D01*
X60067Y38383D01*
X60153Y38485D01*
X60242Y38583D01*
X60333Y38679D01*
X60428Y38773D01*
X60526Y38863D01*
X60626Y38951D01*
X60729Y39035D01*
X60834Y39117D01*
X60941Y39195D01*
X61051Y39270D01*
X61163Y39341D01*
X61278Y39409D01*
X61394Y39474D01*
X61512Y39536D01*
X61632Y39593D01*
X61753Y39647D01*
X61876Y39698D01*
X62001Y39744D01*
X62126Y39787D01*
X62254Y39827D01*
X62382Y39862D01*
X62511Y39894D01*
X62641Y39921D01*
X62772Y39945D01*
X62903Y39965D01*
X63035Y39981D01*
X63168Y39993D01*
X63301Y40001D01*
X63434Y40005D01*
X63566Y40005D01*
X63699Y40001D01*
X63832Y39993D01*
X63965Y39981D01*
X64097Y39965D01*
X64228Y39945D01*
X64359Y39921D01*
X64489Y39894D01*
X64618Y39862D01*
X64746Y39827D01*
X64874Y39787D01*
X64999Y39744D01*
X65124Y39698D01*
X65247Y39647D01*
X65368Y39593D01*
X65488Y39536D01*
X65606Y39474D01*
X65723Y39409D01*
X65837Y39341D01*
X65949Y39270D01*
X66059Y39195D01*
X66166Y39117D01*
X66271Y39035D01*
X66374Y38951D01*
X66474Y38863D01*
X66572Y38773D01*
X66667Y38679D01*
X66758Y38583D01*
X66847Y38485D01*
X66933Y38383D01*
X67016Y38279D01*
X67096Y38173D01*
X67173Y38064D01*
X67246Y37953D01*
X67316Y37840D01*
X67382Y37725D01*
X67445Y37608D01*
X67505Y37489D01*
X67561Y37368D01*
X67613Y37246D01*
X67662Y37122D01*
X67706Y36997D01*
X67748Y36870D01*
X67785Y36743D01*
X67818Y36614D01*
X67848Y36484D01*
X67874Y36354D01*
X67895Y36222D01*
X67913Y36091D01*
X67927Y35958D01*
X67937Y35826D01*
X67943Y35693D01*
X67945Y35560D01*
X67943Y35427D01*
X67937Y35294D01*
X67927Y35162D01*
X67913Y35029D01*
X67895Y34898D01*
X67874Y34766D01*
X67848Y34636D01*
X67818Y34506D01*
X67785Y34377D01*
X67748Y34250D01*
X67706Y34123D01*
X67662Y33998D01*
X67613Y33874D01*
X67561Y33752D01*
X67505Y33631D01*
X67445Y33512D01*
X67382Y33395D01*
X67316Y33280D01*
X67246Y33167D01*
X67173Y33056D01*
X67096Y32947D01*
X67016Y32841D01*
X66933Y32737D01*
X66847Y32635D01*
X66758Y32537D01*
X66667Y32441D01*
X66572Y32347D01*
X66474Y32257D01*
X66374Y32169D01*
X66271Y32085D01*
X66166Y32003D01*
X66059Y31925D01*
X65949Y31850D01*
X65837Y31779D01*
X65722Y31711D01*
X65606Y31646D01*
X65488Y31584D01*
X65368Y31527D01*
X65247Y31473D01*
X65124Y31422D01*
X64999Y31376D01*
X64874Y31333D01*
X64746Y31293D01*
X64618Y31258D01*
X64489Y31226D01*
X64359Y31199D01*
X64228Y31175D01*
X64097Y31155D01*
X63965Y31139D01*
X63832Y31127D01*
X63699Y31119D01*
X63566Y31115D01*
X63434Y31115D01*
X63301Y31119D01*
X63168Y31127D01*
X63035Y31139D01*
X62903Y31155D01*
X62772Y31175D01*
X62641Y31199D01*
X62511Y31226D01*
X62382Y31258D01*
X62254Y31293D01*
X62126Y31333D01*
X62001Y31376D01*
X61876Y31422D01*
X61753Y31473D01*
X61632Y31527D01*
X61512Y31584D01*
X61394Y31646D01*
X61277Y31711D01*
X61163Y31779D01*
X61051Y31850D01*
X60941Y31925D01*
X60834Y32003D01*
X60729Y32085D01*
X60626Y32169D01*
X60526Y32257D01*
X60428Y32347D01*
X60333Y32441D01*
X60242Y32537D01*
X60153Y32635D01*
X60067Y32737D01*
X59984Y32841D01*
X59904Y32947D01*
X59827Y33056D01*
X59754Y33167D01*
X59684Y33280D01*
X59618Y33395D01*
X59555Y33512D01*
X59495Y33631D01*
X59439Y33752D01*
X59387Y33874D01*
X59338Y33998D01*
X59294Y34123D01*
X59252Y34250D01*
X59215Y34377D01*
X59182Y34506D01*
X59152Y34636D01*
X59126Y34766D01*
X59105Y34898D01*
X59087Y35029D01*
X59073Y35162D01*
X59063Y35294D01*
X59057Y35427D01*
X59055Y35560D01*
X59055Y55880D02*
X59057Y56013D01*
X59063Y56146D01*
X59073Y56278D01*
X59087Y56411D01*
X59105Y56542D01*
X59126Y56674D01*
X59152Y56804D01*
X59182Y56934D01*
X59215Y57063D01*
X59252Y57190D01*
X59294Y57317D01*
X59338Y57442D01*
X59387Y57566D01*
X59439Y57688D01*
X59495Y57809D01*
X59555Y57928D01*
X59618Y58045D01*
X59684Y58160D01*
X59754Y58273D01*
X59827Y58384D01*
X59904Y58493D01*
X59984Y58599D01*
X60067Y58703D01*
X60153Y58805D01*
X60242Y58903D01*
X60333Y58999D01*
X60428Y59093D01*
X60526Y59183D01*
X60626Y59271D01*
X60729Y59355D01*
X60834Y59437D01*
X60941Y59515D01*
X61051Y59590D01*
X61163Y59661D01*
X61278Y59729D01*
X61394Y59794D01*
X61512Y59856D01*
X61632Y59913D01*
X61753Y59967D01*
X61876Y60018D01*
X62001Y60064D01*
X62126Y60107D01*
X62254Y60147D01*
X62382Y60182D01*
X62511Y60214D01*
X62641Y60241D01*
X62772Y60265D01*
X62903Y60285D01*
X63035Y60301D01*
X63168Y60313D01*
X63301Y60321D01*
X63434Y60325D01*
X63566Y60325D01*
X63699Y60321D01*
X63832Y60313D01*
X63965Y60301D01*
X64097Y60285D01*
X64228Y60265D01*
X64359Y60241D01*
X64489Y60214D01*
X64618Y60182D01*
X64746Y60147D01*
X64874Y60107D01*
X64999Y60064D01*
X65124Y60018D01*
X65247Y59967D01*
X65368Y59913D01*
X65488Y59856D01*
X65606Y59794D01*
X65723Y59729D01*
X65837Y59661D01*
X65949Y59590D01*
X66059Y59515D01*
X66166Y59437D01*
X66271Y59355D01*
X66374Y59271D01*
X66474Y59183D01*
X66572Y59093D01*
X66667Y58999D01*
X66758Y58903D01*
X66847Y58805D01*
X66933Y58703D01*
X67016Y58599D01*
X67096Y58493D01*
X67173Y58384D01*
X67246Y58273D01*
X67316Y58160D01*
X67382Y58045D01*
X67445Y57928D01*
X67505Y57809D01*
X67561Y57688D01*
X67613Y57566D01*
X67662Y57442D01*
X67706Y57317D01*
X67748Y57190D01*
X67785Y57063D01*
X67818Y56934D01*
X67848Y56804D01*
X67874Y56674D01*
X67895Y56542D01*
X67913Y56411D01*
X67927Y56278D01*
X67937Y56146D01*
X67943Y56013D01*
X67945Y55880D01*
X67943Y55747D01*
X67937Y55614D01*
X67927Y55482D01*
X67913Y55349D01*
X67895Y55218D01*
X67874Y55086D01*
X67848Y54956D01*
X67818Y54826D01*
X67785Y54697D01*
X67748Y54570D01*
X67706Y54443D01*
X67662Y54318D01*
X67613Y54194D01*
X67561Y54072D01*
X67505Y53951D01*
X67445Y53832D01*
X67382Y53715D01*
X67316Y53600D01*
X67246Y53487D01*
X67173Y53376D01*
X67096Y53267D01*
X67016Y53161D01*
X66933Y53057D01*
X66847Y52955D01*
X66758Y52857D01*
X66667Y52761D01*
X66572Y52667D01*
X66474Y52577D01*
X66374Y52489D01*
X66271Y52405D01*
X66166Y52323D01*
X66059Y52245D01*
X65949Y52170D01*
X65837Y52099D01*
X65722Y52031D01*
X65606Y51966D01*
X65488Y51904D01*
X65368Y51847D01*
X65247Y51793D01*
X65124Y51742D01*
X64999Y51696D01*
X64874Y51653D01*
X64746Y51613D01*
X64618Y51578D01*
X64489Y51546D01*
X64359Y51519D01*
X64228Y51495D01*
X64097Y51475D01*
X63965Y51459D01*
X63832Y51447D01*
X63699Y51439D01*
X63566Y51435D01*
X63434Y51435D01*
X63301Y51439D01*
X63168Y51447D01*
X63035Y51459D01*
X62903Y51475D01*
X62772Y51495D01*
X62641Y51519D01*
X62511Y51546D01*
X62382Y51578D01*
X62254Y51613D01*
X62126Y51653D01*
X62001Y51696D01*
X61876Y51742D01*
X61753Y51793D01*
X61632Y51847D01*
X61512Y51904D01*
X61394Y51966D01*
X61277Y52031D01*
X61163Y52099D01*
X61051Y52170D01*
X60941Y52245D01*
X60834Y52323D01*
X60729Y52405D01*
X60626Y52489D01*
X60526Y52577D01*
X60428Y52667D01*
X60333Y52761D01*
X60242Y52857D01*
X60153Y52955D01*
X60067Y53057D01*
X59984Y53161D01*
X59904Y53267D01*
X59827Y53376D01*
X59754Y53487D01*
X59684Y53600D01*
X59618Y53715D01*
X59555Y53832D01*
X59495Y53951D01*
X59439Y54072D01*
X59387Y54194D01*
X59338Y54318D01*
X59294Y54443D01*
X59252Y54570D01*
X59215Y54697D01*
X59182Y54826D01*
X59152Y54956D01*
X59126Y55086D01*
X59105Y55218D01*
X59087Y55349D01*
X59073Y55482D01*
X59063Y55614D01*
X59057Y55747D01*
X59055Y55880D01*
D13*
X47752Y42338D02*
X38664Y42338D01*
X38664Y42337D02*
X38565Y42335D01*
X38465Y42329D01*
X38366Y42320D01*
X38268Y42307D01*
X38170Y42290D01*
X38072Y42269D01*
X37976Y42244D01*
X37881Y42216D01*
X37787Y42184D01*
X37694Y42149D01*
X37602Y42110D01*
X37512Y42067D01*
X37424Y42022D01*
X37337Y41972D01*
X37253Y41920D01*
X37170Y41864D01*
X37090Y41806D01*
X37012Y41744D01*
X36937Y41679D01*
X36864Y41611D01*
X36794Y41541D01*
X36726Y41468D01*
X36661Y41393D01*
X36599Y41315D01*
X36541Y41235D01*
X36485Y41152D01*
X36433Y41068D01*
X36383Y40981D01*
X36338Y40893D01*
X36295Y40803D01*
X36256Y40711D01*
X36221Y40618D01*
X36189Y40524D01*
X36161Y40429D01*
X36136Y40333D01*
X36115Y40235D01*
X36098Y40137D01*
X36085Y40039D01*
X36076Y39940D01*
X36070Y39840D01*
X36068Y39741D01*
X36068Y38443D01*
X45156Y47611D02*
X47752Y50856D01*
X36068Y50856D01*
X36068Y47611D02*
X36068Y54102D01*
M02*
