G04 EAGLE Gerber RS-274X export*
G75*
%MOMM*%
%FSLAX34Y34*%
%LPD*%
%INBottom copper*%
%IPPOS*%
%AMOC8*
5,1,8,0,0,1.08239X$1,22.5*%
G01*
%ADD10C,0.000000*%
%ADD11C,1.381000*%
%ADD12C,1.498600*%
%ADD13C,1.803400*%
%ADD14R,1.879600X1.879600*%
%ADD15C,1.879600*%
%ADD16P,1.640903X8X22.500000*%
%ADD17P,0.757673X8X22.500000*%
%ADD18C,0.203200*%
%ADD19C,0.406400*%
%ADD20C,0.152400*%

G36*
X736635Y2004D02*
X736635Y2004D01*
X736680Y2002D01*
X746328Y2381D01*
X746413Y2393D01*
X746566Y2405D01*
X757052Y4066D01*
X757073Y4071D01*
X757080Y4072D01*
X757105Y4080D01*
X757175Y4098D01*
X757299Y4121D01*
X757369Y4149D01*
X757442Y4168D01*
X757555Y4223D01*
X757673Y4270D01*
X757736Y4311D01*
X757803Y4345D01*
X757904Y4422D01*
X758010Y4491D01*
X758063Y4544D01*
X758123Y4589D01*
X758206Y4684D01*
X758296Y4773D01*
X758339Y4836D01*
X758388Y4892D01*
X758451Y5002D01*
X758522Y5107D01*
X758551Y5176D01*
X758588Y5242D01*
X758628Y5362D01*
X758677Y5478D01*
X758692Y5552D01*
X758716Y5624D01*
X758731Y5749D01*
X758756Y5873D01*
X758756Y5949D01*
X758765Y6023D01*
X758756Y6149D01*
X758756Y6276D01*
X758741Y6350D01*
X758735Y6425D01*
X758701Y6547D01*
X758676Y6670D01*
X758646Y6740D01*
X758626Y6812D01*
X758568Y6925D01*
X758520Y7041D01*
X758477Y7104D01*
X758443Y7171D01*
X758364Y7270D01*
X758293Y7374D01*
X758239Y7427D01*
X758193Y7486D01*
X758096Y7568D01*
X758006Y7656D01*
X757943Y7697D01*
X757885Y7746D01*
X757774Y7807D01*
X757668Y7876D01*
X757587Y7910D01*
X757532Y7940D01*
X757467Y7960D01*
X755743Y8839D01*
X754222Y9944D01*
X752894Y11272D01*
X751789Y12793D01*
X751110Y14126D01*
X751082Y14169D01*
X751061Y14216D01*
X750974Y14338D01*
X750892Y14465D01*
X750857Y14501D01*
X750827Y14543D01*
X750717Y14646D01*
X750612Y14754D01*
X750570Y14783D01*
X750533Y14818D01*
X750405Y14897D01*
X750281Y14982D01*
X750234Y15003D01*
X750190Y15029D01*
X750049Y15082D01*
X749911Y15141D01*
X749861Y15151D01*
X749813Y15169D01*
X749664Y15193D01*
X749517Y15223D01*
X749466Y15224D01*
X749415Y15232D01*
X749264Y15225D01*
X749114Y15226D01*
X749064Y15217D01*
X749013Y15215D01*
X748866Y15178D01*
X748719Y15150D01*
X748672Y15131D01*
X748622Y15118D01*
X748486Y15054D01*
X748346Y14997D01*
X748304Y14969D01*
X748257Y14947D01*
X748137Y14857D01*
X748011Y14774D01*
X747975Y14737D01*
X747934Y14707D01*
X747833Y14596D01*
X747727Y14489D01*
X747699Y14446D01*
X747664Y14408D01*
X747543Y14212D01*
X747504Y14153D01*
X747499Y14140D01*
X747490Y14126D01*
X746811Y12793D01*
X745706Y11272D01*
X744378Y9944D01*
X742857Y8839D01*
X741183Y7986D01*
X739396Y7405D01*
X739139Y7365D01*
X739139Y16511D01*
X761492Y16511D01*
X761510Y16512D01*
X761527Y16511D01*
X761710Y16532D01*
X761892Y16551D01*
X761909Y16556D01*
X761927Y16558D01*
X762005Y16583D01*
X762142Y16544D01*
X762160Y16542D01*
X762177Y16538D01*
X762508Y16511D01*
X773685Y16511D01*
X773645Y16254D01*
X773064Y14467D01*
X772211Y12793D01*
X771106Y11272D01*
X771025Y11191D01*
X770944Y11093D01*
X770857Y11001D01*
X770817Y10937D01*
X770769Y10879D01*
X770710Y10767D01*
X770643Y10661D01*
X770616Y10590D01*
X770581Y10523D01*
X770545Y10402D01*
X770500Y10284D01*
X770487Y10210D01*
X770466Y10138D01*
X770455Y10012D01*
X770434Y9887D01*
X770436Y9812D01*
X770430Y9737D01*
X770443Y9611D01*
X770447Y9485D01*
X770465Y9411D01*
X770473Y9336D01*
X770511Y9216D01*
X770540Y9093D01*
X770572Y9024D01*
X770594Y8952D01*
X770656Y8842D01*
X770708Y8727D01*
X770753Y8666D01*
X770789Y8600D01*
X770871Y8504D01*
X770945Y8402D01*
X771001Y8351D01*
X771050Y8293D01*
X771149Y8215D01*
X771242Y8129D01*
X771306Y8090D01*
X771366Y8043D01*
X771478Y7986D01*
X771586Y7921D01*
X771657Y7895D01*
X771724Y7861D01*
X771846Y7827D01*
X771965Y7784D01*
X772040Y7773D01*
X772112Y7753D01*
X772239Y7744D01*
X772363Y7725D01*
X772439Y7729D01*
X772514Y7724D01*
X772639Y7739D01*
X772765Y7746D01*
X772851Y7766D01*
X772913Y7774D01*
X772983Y7797D01*
X773088Y7822D01*
X784286Y11461D01*
X784325Y11478D01*
X784580Y11583D01*
X801773Y20343D01*
X801808Y20365D01*
X802045Y20509D01*
X817655Y31851D01*
X817687Y31879D01*
X817898Y32058D01*
X831542Y45702D01*
X831569Y45736D01*
X831749Y45945D01*
X843091Y61555D01*
X843113Y61593D01*
X843257Y61827D01*
X852017Y79020D01*
X852033Y79059D01*
X852139Y79314D01*
X858102Y97666D01*
X858111Y97708D01*
X858177Y97976D01*
X861195Y117034D01*
X861200Y117121D01*
X861219Y117272D01*
X861598Y126920D01*
X861596Y126955D01*
X861599Y127000D01*
X861599Y431537D01*
X861591Y431617D01*
X861579Y431823D01*
X860228Y441317D01*
X860208Y441401D01*
X860181Y441552D01*
X855183Y460359D01*
X855169Y460396D01*
X855076Y460662D01*
X847183Y478449D01*
X847163Y478483D01*
X847030Y478731D01*
X836438Y495055D01*
X836413Y495086D01*
X836243Y495310D01*
X823216Y509766D01*
X823187Y509792D01*
X822983Y509986D01*
X807845Y522214D01*
X807812Y522235D01*
X807580Y522395D01*
X790707Y532089D01*
X790671Y532106D01*
X790418Y532227D01*
X785609Y534057D01*
X780271Y536088D01*
X774933Y538119D01*
X772230Y539148D01*
X772193Y539158D01*
X771922Y539238D01*
X768599Y539931D01*
X768587Y539932D01*
X768576Y539936D01*
X768387Y539954D01*
X768199Y539974D01*
X768187Y539973D01*
X768175Y539974D01*
X767986Y539954D01*
X767798Y539937D01*
X767786Y539933D01*
X767775Y539932D01*
X767593Y539876D01*
X767412Y539821D01*
X767401Y539816D01*
X767390Y539812D01*
X767224Y539721D01*
X767056Y539632D01*
X767047Y539625D01*
X767037Y539619D01*
X766892Y539497D01*
X766745Y539377D01*
X766738Y539368D01*
X766729Y539360D01*
X766611Y539212D01*
X766491Y539065D01*
X766485Y539054D01*
X766478Y539045D01*
X766391Y538877D01*
X766303Y538709D01*
X766299Y538697D01*
X766294Y538687D01*
X766242Y538505D01*
X766189Y538323D01*
X766188Y538311D01*
X766184Y538300D01*
X766170Y538112D01*
X766153Y537922D01*
X766154Y537910D01*
X766153Y537898D01*
X766176Y537711D01*
X766197Y537521D01*
X766200Y537510D01*
X766202Y537499D01*
X766261Y537319D01*
X766319Y537138D01*
X766325Y537127D01*
X766328Y537116D01*
X766422Y536952D01*
X766514Y536786D01*
X766522Y536777D01*
X766528Y536767D01*
X766652Y536624D01*
X766775Y536479D01*
X766785Y536472D01*
X766792Y536463D01*
X766942Y536348D01*
X767092Y536230D01*
X767102Y536225D01*
X767111Y536218D01*
X767407Y536066D01*
X767890Y535866D01*
X770816Y532940D01*
X772399Y529118D01*
X772399Y524982D01*
X770816Y521160D01*
X767890Y518234D01*
X766794Y517780D01*
X764068Y516651D01*
X759932Y516651D01*
X756110Y518234D01*
X753184Y521160D01*
X751601Y524982D01*
X751601Y529118D01*
X753184Y532940D01*
X756110Y535866D01*
X757345Y536377D01*
X757345Y536378D01*
X759932Y537449D01*
X760816Y537449D01*
X761010Y537468D01*
X761202Y537486D01*
X761209Y537488D01*
X761217Y537489D01*
X761403Y537546D01*
X761588Y537601D01*
X761594Y537605D01*
X761601Y537607D01*
X761772Y537699D01*
X761943Y537790D01*
X761949Y537795D01*
X761956Y537799D01*
X762103Y537922D01*
X762255Y538046D01*
X762259Y538052D01*
X762265Y538056D01*
X762385Y538206D01*
X762509Y538358D01*
X762513Y538364D01*
X762517Y538370D01*
X762606Y538541D01*
X762697Y538714D01*
X762699Y538721D01*
X762703Y538727D01*
X762756Y538914D01*
X762811Y539100D01*
X762812Y539107D01*
X762814Y539114D01*
X762830Y539308D01*
X762847Y539501D01*
X762846Y539508D01*
X762847Y539516D01*
X762824Y539707D01*
X762803Y539901D01*
X762801Y539908D01*
X762800Y539915D01*
X762740Y540100D01*
X762681Y540285D01*
X762677Y540291D01*
X762675Y540298D01*
X762579Y540469D01*
X762486Y540637D01*
X762481Y540642D01*
X762477Y540649D01*
X762350Y540797D01*
X762225Y540943D01*
X762219Y540948D01*
X762214Y540953D01*
X762062Y541072D01*
X761908Y541193D01*
X761902Y541196D01*
X761896Y541200D01*
X761723Y541286D01*
X761549Y541374D01*
X761541Y541377D01*
X761535Y541380D01*
X761490Y541392D01*
X761231Y541468D01*
X752873Y543212D01*
X752787Y543222D01*
X752635Y543247D01*
X742987Y544092D01*
X742915Y544091D01*
X742810Y544099D01*
X61182Y544099D01*
X61164Y544097D01*
X61146Y544099D01*
X60964Y544078D01*
X60781Y544059D01*
X60764Y544054D01*
X60747Y544052D01*
X60572Y543995D01*
X60396Y543941D01*
X60381Y543933D01*
X60364Y543927D01*
X60204Y543837D01*
X60042Y543749D01*
X60029Y543738D01*
X60013Y543729D01*
X59874Y543609D01*
X59733Y543492D01*
X59722Y543478D01*
X59708Y543466D01*
X59596Y543321D01*
X59481Y543178D01*
X59473Y543162D01*
X59462Y543148D01*
X59380Y542983D01*
X59295Y542821D01*
X59290Y542804D01*
X59282Y542788D01*
X59235Y542609D01*
X59184Y542434D01*
X59182Y542416D01*
X59178Y542399D01*
X59151Y542068D01*
X59151Y391382D01*
X59153Y391364D01*
X59151Y391346D01*
X59172Y391164D01*
X59191Y390981D01*
X59196Y390964D01*
X59198Y390947D01*
X59255Y390772D01*
X59309Y390596D01*
X59317Y390581D01*
X59323Y390564D01*
X59413Y390404D01*
X59501Y390242D01*
X59512Y390229D01*
X59521Y390213D01*
X59641Y390074D01*
X59758Y389933D01*
X59772Y389922D01*
X59784Y389908D01*
X59929Y389796D01*
X60072Y389681D01*
X60088Y389673D01*
X60102Y389662D01*
X60267Y389580D01*
X60429Y389495D01*
X60446Y389490D01*
X60462Y389482D01*
X60641Y389435D01*
X60816Y389384D01*
X60834Y389382D01*
X60851Y389378D01*
X61182Y389351D01*
X204029Y389351D01*
X205201Y388179D01*
X205201Y208721D01*
X204029Y207549D01*
X4032Y207549D01*
X4014Y207547D01*
X3996Y207549D01*
X3814Y207528D01*
X3631Y207509D01*
X3614Y207504D01*
X3597Y207502D01*
X3422Y207445D01*
X3246Y207391D01*
X3231Y207383D01*
X3214Y207377D01*
X3054Y207287D01*
X2892Y207199D01*
X2879Y207188D01*
X2863Y207179D01*
X2724Y207059D01*
X2583Y206942D01*
X2572Y206928D01*
X2558Y206916D01*
X2446Y206771D01*
X2331Y206628D01*
X2323Y206612D01*
X2312Y206598D01*
X2230Y206433D01*
X2145Y206271D01*
X2140Y206254D01*
X2132Y206238D01*
X2085Y206059D01*
X2034Y205884D01*
X2032Y205866D01*
X2028Y205849D01*
X2001Y205518D01*
X2001Y63647D01*
X2009Y63567D01*
X2011Y63443D01*
X2668Y56914D01*
X2675Y56877D01*
X2725Y56598D01*
X6097Y43840D01*
X6114Y43794D01*
X6124Y43747D01*
X6216Y43521D01*
X6238Y43462D01*
X6244Y43453D01*
X6249Y43440D01*
X12216Y31669D01*
X12242Y31629D01*
X12262Y31585D01*
X12399Y31384D01*
X12433Y31330D01*
X12441Y31322D01*
X12449Y31311D01*
X20747Y21049D01*
X20781Y21015D01*
X20809Y20976D01*
X20910Y20880D01*
X20944Y20840D01*
X20984Y20809D01*
X20985Y20808D01*
X21030Y20763D01*
X21039Y20756D01*
X21049Y20747D01*
X31311Y12449D01*
X31351Y12422D01*
X31387Y12390D01*
X31594Y12263D01*
X31647Y12228D01*
X31658Y12224D01*
X31669Y12216D01*
X43440Y6249D01*
X43485Y6232D01*
X43527Y6208D01*
X43756Y6127D01*
X43816Y6104D01*
X43827Y6102D01*
X43840Y6097D01*
X56598Y2725D01*
X56636Y2719D01*
X56914Y2668D01*
X63443Y2011D01*
X63523Y2011D01*
X63646Y2001D01*
X736600Y2001D01*
X736635Y2004D01*
G37*
%LPC*%
G36*
X556732Y8651D02*
X556732Y8651D01*
X552910Y10234D01*
X549984Y13160D01*
X548401Y16982D01*
X548401Y21118D01*
X549984Y24940D01*
X552910Y27866D01*
X556732Y29449D01*
X560868Y29449D01*
X563488Y28364D01*
X563510Y28357D01*
X563529Y28347D01*
X563702Y28299D01*
X563874Y28247D01*
X563896Y28245D01*
X563917Y28239D01*
X564096Y28226D01*
X564274Y28209D01*
X564296Y28211D01*
X564319Y28210D01*
X564497Y28232D01*
X564675Y28251D01*
X564696Y28257D01*
X564718Y28260D01*
X564889Y28317D01*
X565059Y28370D01*
X565079Y28381D01*
X565100Y28388D01*
X565255Y28478D01*
X565412Y28564D01*
X565430Y28578D01*
X565449Y28589D01*
X565702Y28804D01*
X568888Y31990D01*
X568905Y32011D01*
X568926Y32029D01*
X569032Y32166D01*
X569143Y32302D01*
X569156Y32326D01*
X569172Y32347D01*
X569250Y32503D01*
X569332Y32658D01*
X569340Y32683D01*
X569352Y32707D01*
X569397Y32876D01*
X569447Y33044D01*
X569449Y33070D01*
X569456Y33096D01*
X569483Y33427D01*
X569483Y35523D01*
X569482Y35532D01*
X569483Y35541D01*
X569462Y35733D01*
X569443Y35924D01*
X569441Y35933D01*
X569440Y35941D01*
X569382Y36124D01*
X569325Y36309D01*
X569321Y36317D01*
X569318Y36325D01*
X569226Y36492D01*
X569133Y36663D01*
X569128Y36670D01*
X569123Y36678D01*
X568998Y36825D01*
X568876Y36972D01*
X568869Y36978D01*
X568863Y36985D01*
X568711Y37105D01*
X568562Y37225D01*
X568554Y37229D01*
X568547Y37234D01*
X568375Y37322D01*
X568205Y37410D01*
X568196Y37413D01*
X568188Y37417D01*
X568002Y37468D01*
X567818Y37521D01*
X567809Y37522D01*
X567800Y37525D01*
X567608Y37539D01*
X567416Y37554D01*
X567408Y37553D01*
X567399Y37554D01*
X567206Y37530D01*
X567017Y37507D01*
X567008Y37505D01*
X566999Y37504D01*
X566816Y37442D01*
X566634Y37383D01*
X566626Y37378D01*
X566618Y37375D01*
X566452Y37280D01*
X566283Y37185D01*
X566276Y37179D01*
X566269Y37174D01*
X566016Y36960D01*
X564690Y35634D01*
X561572Y34343D01*
X560868Y34051D01*
X556732Y34051D01*
X552910Y35634D01*
X549984Y38560D01*
X548401Y42382D01*
X548401Y46518D01*
X550011Y50406D01*
X550093Y50506D01*
X550106Y50529D01*
X550122Y50551D01*
X550200Y50707D01*
X550282Y50861D01*
X550290Y50887D01*
X550302Y50911D01*
X550347Y51080D01*
X550397Y51247D01*
X550399Y51274D01*
X550406Y51300D01*
X550433Y51631D01*
X550433Y144373D01*
X550431Y144400D01*
X550433Y144427D01*
X550411Y144600D01*
X550393Y144774D01*
X550386Y144799D01*
X550382Y144826D01*
X550327Y144992D01*
X550275Y145159D01*
X550262Y145182D01*
X550254Y145208D01*
X550167Y145359D01*
X550083Y145513D01*
X550066Y145533D01*
X550053Y145557D01*
X549838Y145810D01*
X539510Y156138D01*
X539489Y156155D01*
X539471Y156176D01*
X539333Y156283D01*
X539198Y156393D01*
X539174Y156406D01*
X539153Y156422D01*
X538996Y156500D01*
X538842Y156582D01*
X538817Y156590D01*
X538793Y156602D01*
X538623Y156647D01*
X538456Y156697D01*
X538430Y156699D01*
X538404Y156706D01*
X538073Y156733D01*
X530473Y156733D01*
X530464Y156732D01*
X530455Y156733D01*
X530265Y156713D01*
X530072Y156693D01*
X530063Y156691D01*
X530055Y156690D01*
X529871Y156632D01*
X529687Y156575D01*
X529679Y156571D01*
X529671Y156568D01*
X529502Y156475D01*
X529333Y156383D01*
X529326Y156378D01*
X529318Y156373D01*
X529172Y156249D01*
X529024Y156126D01*
X529018Y156119D01*
X529011Y156113D01*
X528892Y155962D01*
X528772Y155812D01*
X528767Y155804D01*
X528762Y155797D01*
X528673Y155623D01*
X528586Y155455D01*
X528584Y155446D01*
X528579Y155438D01*
X528527Y155251D01*
X528475Y155068D01*
X528474Y155059D01*
X528471Y155050D01*
X528457Y154858D01*
X528442Y154666D01*
X528443Y154658D01*
X528442Y154649D01*
X528466Y154457D01*
X528489Y154267D01*
X528491Y154258D01*
X528493Y154249D01*
X528554Y154067D01*
X528613Y153884D01*
X528618Y153876D01*
X528621Y153868D01*
X528717Y153700D01*
X528811Y153533D01*
X528817Y153526D01*
X528822Y153519D01*
X529036Y153266D01*
X529662Y152640D01*
X535417Y146885D01*
X535417Y56227D01*
X535419Y56205D01*
X535417Y56183D01*
X535439Y56006D01*
X535457Y55827D01*
X535463Y55805D01*
X535466Y55783D01*
X535522Y55613D01*
X535575Y55442D01*
X535585Y55422D01*
X535592Y55401D01*
X535681Y55245D01*
X535767Y55088D01*
X535781Y55071D01*
X535792Y55051D01*
X535910Y54916D01*
X536024Y54779D01*
X536042Y54765D01*
X536056Y54748D01*
X536198Y54638D01*
X536338Y54526D01*
X536358Y54516D01*
X536376Y54502D01*
X536671Y54351D01*
X539290Y53266D01*
X542216Y50340D01*
X543799Y46518D01*
X543799Y42382D01*
X542216Y38560D01*
X539290Y35634D01*
X536172Y34343D01*
X535468Y34051D01*
X531332Y34051D01*
X527510Y35634D01*
X524584Y38560D01*
X523001Y42382D01*
X523001Y46518D01*
X524584Y50340D01*
X527510Y53266D01*
X530129Y54351D01*
X530149Y54361D01*
X530170Y54368D01*
X530327Y54457D01*
X530484Y54541D01*
X530501Y54555D01*
X530521Y54566D01*
X530657Y54683D01*
X530795Y54797D01*
X530809Y54815D01*
X530826Y54829D01*
X530935Y54971D01*
X531048Y55110D01*
X531059Y55130D01*
X531072Y55147D01*
X531152Y55308D01*
X531235Y55467D01*
X531242Y55488D01*
X531252Y55508D01*
X531298Y55682D01*
X531348Y55853D01*
X531350Y55875D01*
X531356Y55897D01*
X531383Y56227D01*
X531383Y144373D01*
X531381Y144400D01*
X531383Y144427D01*
X531361Y144600D01*
X531343Y144774D01*
X531336Y144799D01*
X531332Y144826D01*
X531277Y144992D01*
X531225Y145159D01*
X531212Y145182D01*
X531204Y145208D01*
X531117Y145359D01*
X531033Y145513D01*
X531016Y145533D01*
X531003Y145557D01*
X530788Y145810D01*
X526810Y149788D01*
X526789Y149805D01*
X526771Y149826D01*
X526633Y149933D01*
X526498Y150043D01*
X526474Y150056D01*
X526453Y150072D01*
X526296Y150150D01*
X526142Y150232D01*
X526117Y150240D01*
X526093Y150252D01*
X525923Y150297D01*
X525756Y150347D01*
X525730Y150349D01*
X525704Y150356D01*
X525373Y150383D01*
X354765Y150383D01*
X317260Y187888D01*
X317239Y187905D01*
X317221Y187926D01*
X317083Y188033D01*
X316948Y188143D01*
X316924Y188156D01*
X316903Y188172D01*
X316746Y188250D01*
X316592Y188332D01*
X316567Y188340D01*
X316543Y188352D01*
X316373Y188397D01*
X316206Y188447D01*
X316180Y188449D01*
X316154Y188456D01*
X315823Y188483D01*
X290940Y188483D01*
X290913Y188481D01*
X290886Y188483D01*
X290712Y188461D01*
X290539Y188443D01*
X290514Y188436D01*
X290487Y188432D01*
X290321Y188377D01*
X290154Y188325D01*
X290131Y188312D01*
X290105Y188304D01*
X289954Y188217D01*
X289800Y188133D01*
X289780Y188116D01*
X289756Y188103D01*
X289503Y187888D01*
X287614Y185999D01*
X283886Y185999D01*
X281249Y188636D01*
X281249Y192364D01*
X284299Y195414D01*
X284310Y195427D01*
X284324Y195439D01*
X284438Y195583D01*
X284554Y195725D01*
X284562Y195741D01*
X284573Y195755D01*
X284657Y195919D01*
X284742Y196081D01*
X284747Y196098D01*
X284756Y196114D01*
X284805Y196291D01*
X284857Y196467D01*
X284859Y196485D01*
X284864Y196502D01*
X284877Y196685D01*
X284894Y196868D01*
X284892Y196886D01*
X284893Y196903D01*
X284870Y197085D01*
X284850Y197268D01*
X284845Y197285D01*
X284843Y197303D01*
X284784Y197476D01*
X284729Y197652D01*
X284720Y197668D01*
X284714Y197684D01*
X284622Y197844D01*
X284534Y198004D01*
X284522Y198018D01*
X284513Y198033D01*
X284299Y198286D01*
X281249Y201336D01*
X281249Y205064D01*
X283886Y207701D01*
X287614Y207701D01*
X289503Y205812D01*
X289524Y205795D01*
X289542Y205774D01*
X289679Y205667D01*
X289815Y205557D01*
X289838Y205544D01*
X289860Y205528D01*
X290017Y205450D01*
X290171Y205368D01*
X290196Y205360D01*
X290220Y205348D01*
X290390Y205303D01*
X290556Y205253D01*
X290583Y205251D01*
X290609Y205244D01*
X290940Y205217D01*
X324685Y205217D01*
X326462Y203440D01*
X328582Y201320D01*
X328589Y201315D01*
X328594Y201308D01*
X328744Y201188D01*
X328893Y201065D01*
X328901Y201061D01*
X328908Y201056D01*
X329078Y200967D01*
X329249Y200877D01*
X329258Y200874D01*
X329265Y200870D01*
X329450Y200817D01*
X329635Y200762D01*
X329644Y200761D01*
X329652Y200759D01*
X329843Y200743D01*
X330036Y200725D01*
X330045Y200726D01*
X330054Y200726D01*
X330243Y200748D01*
X330436Y200769D01*
X330445Y200772D01*
X330453Y200773D01*
X330635Y200832D01*
X330820Y200890D01*
X330828Y200895D01*
X330836Y200897D01*
X331003Y200992D01*
X331172Y201085D01*
X331179Y201091D01*
X331187Y201095D01*
X331332Y201221D01*
X331479Y201346D01*
X331485Y201353D01*
X331492Y201359D01*
X331609Y201510D01*
X331729Y201662D01*
X331733Y201670D01*
X331738Y201677D01*
X331824Y201849D01*
X331911Y202021D01*
X331914Y202029D01*
X331918Y202037D01*
X331968Y202223D01*
X332019Y202408D01*
X332020Y202417D01*
X332022Y202426D01*
X332049Y202757D01*
X332049Y205064D01*
X334686Y207701D01*
X338414Y207701D01*
X340303Y205812D01*
X340324Y205795D01*
X340342Y205774D01*
X340479Y205667D01*
X340615Y205557D01*
X340638Y205544D01*
X340660Y205528D01*
X340817Y205450D01*
X340971Y205368D01*
X340996Y205360D01*
X341020Y205348D01*
X341190Y205303D01*
X341356Y205253D01*
X341383Y205251D01*
X341409Y205244D01*
X341740Y205217D01*
X343735Y205217D01*
X381240Y167712D01*
X381261Y167695D01*
X381279Y167674D01*
X381417Y167567D01*
X381552Y167457D01*
X381576Y167444D01*
X381597Y167428D01*
X381754Y167350D01*
X381908Y167268D01*
X381933Y167260D01*
X381957Y167248D01*
X382127Y167203D01*
X382294Y167153D01*
X382320Y167151D01*
X382346Y167144D01*
X382677Y167117D01*
X383927Y167117D01*
X383936Y167118D01*
X383945Y167117D01*
X384138Y167138D01*
X384328Y167157D01*
X384336Y167159D01*
X384345Y167160D01*
X384530Y167219D01*
X384713Y167275D01*
X384721Y167279D01*
X384729Y167282D01*
X384898Y167375D01*
X385067Y167467D01*
X385074Y167472D01*
X385082Y167477D01*
X385229Y167601D01*
X385376Y167724D01*
X385382Y167731D01*
X385389Y167737D01*
X385508Y167889D01*
X385628Y168038D01*
X385633Y168046D01*
X385638Y168053D01*
X385726Y168226D01*
X385814Y168395D01*
X385816Y168404D01*
X385821Y168412D01*
X385872Y168598D01*
X385925Y168782D01*
X385926Y168791D01*
X385929Y168800D01*
X385943Y168993D01*
X385958Y169184D01*
X385957Y169192D01*
X385958Y169201D01*
X385934Y169394D01*
X385911Y169583D01*
X385909Y169592D01*
X385907Y169601D01*
X385846Y169783D01*
X385787Y169966D01*
X385782Y169974D01*
X385779Y169982D01*
X385683Y170149D01*
X385589Y170317D01*
X385583Y170324D01*
X385578Y170331D01*
X385364Y170584D01*
X342660Y213288D01*
X342639Y213305D01*
X342621Y213326D01*
X342483Y213433D01*
X342348Y213543D01*
X342324Y213556D01*
X342303Y213572D01*
X342146Y213650D01*
X341992Y213732D01*
X341967Y213740D01*
X341943Y213752D01*
X341773Y213797D01*
X341606Y213847D01*
X341580Y213849D01*
X341554Y213856D01*
X341223Y213883D01*
X335390Y213883D01*
X335363Y213881D01*
X335336Y213883D01*
X335162Y213861D01*
X334989Y213843D01*
X334964Y213836D01*
X334937Y213832D01*
X334771Y213777D01*
X334604Y213725D01*
X334581Y213712D01*
X334555Y213704D01*
X334404Y213617D01*
X334250Y213533D01*
X334230Y213516D01*
X334206Y213503D01*
X333953Y213288D01*
X332064Y211399D01*
X328336Y211399D01*
X325699Y214036D01*
X325699Y217764D01*
X328336Y220401D01*
X332064Y220401D01*
X333953Y218512D01*
X333974Y218495D01*
X333992Y218474D01*
X334129Y218367D01*
X334265Y218257D01*
X334288Y218244D01*
X334310Y218228D01*
X334467Y218150D01*
X334621Y218068D01*
X334646Y218060D01*
X334670Y218048D01*
X334840Y218003D01*
X335006Y217953D01*
X335033Y217951D01*
X335059Y217944D01*
X335390Y217917D01*
X343735Y217917D01*
X387590Y174062D01*
X387611Y174045D01*
X387629Y174024D01*
X387767Y173917D01*
X387902Y173807D01*
X387926Y173794D01*
X387947Y173778D01*
X388104Y173700D01*
X388258Y173618D01*
X388283Y173610D01*
X388307Y173598D01*
X388477Y173553D01*
X388644Y173503D01*
X388670Y173501D01*
X388696Y173494D01*
X389027Y173467D01*
X553285Y173467D01*
X579867Y146885D01*
X579867Y90577D01*
X579869Y90550D01*
X579867Y90523D01*
X579889Y90350D01*
X579907Y90176D01*
X579914Y90151D01*
X579918Y90124D01*
X579973Y89958D01*
X580025Y89791D01*
X580038Y89768D01*
X580046Y89742D01*
X580133Y89591D01*
X580217Y89437D01*
X580234Y89417D01*
X580247Y89393D01*
X580462Y89140D01*
X595282Y74320D01*
X595289Y74315D01*
X595294Y74308D01*
X595444Y74188D01*
X595593Y74065D01*
X595601Y74061D01*
X595608Y74056D01*
X595778Y73967D01*
X595949Y73877D01*
X595958Y73874D01*
X595965Y73870D01*
X596150Y73817D01*
X596335Y73762D01*
X596344Y73761D01*
X596352Y73759D01*
X596544Y73743D01*
X596736Y73725D01*
X596745Y73726D01*
X596754Y73726D01*
X596943Y73748D01*
X597136Y73769D01*
X597145Y73772D01*
X597153Y73773D01*
X597335Y73832D01*
X597520Y73890D01*
X597528Y73895D01*
X597536Y73897D01*
X597705Y73993D01*
X597872Y74085D01*
X597879Y74091D01*
X597887Y74095D01*
X598033Y74221D01*
X598179Y74346D01*
X598185Y74353D01*
X598192Y74359D01*
X598309Y74510D01*
X598429Y74662D01*
X598433Y74670D01*
X598438Y74677D01*
X598524Y74849D01*
X598611Y75021D01*
X598614Y75029D01*
X598618Y75037D01*
X598668Y75223D01*
X598719Y75408D01*
X598720Y75417D01*
X598722Y75426D01*
X598749Y75757D01*
X598749Y78064D01*
X600638Y79953D01*
X600655Y79974D01*
X600676Y79992D01*
X600783Y80129D01*
X600893Y80265D01*
X600906Y80288D01*
X600922Y80310D01*
X601000Y80467D01*
X601082Y80621D01*
X601090Y80646D01*
X601102Y80670D01*
X601147Y80840D01*
X601197Y81006D01*
X601199Y81033D01*
X601206Y81059D01*
X601233Y81390D01*
X601233Y96410D01*
X601231Y96437D01*
X601233Y96464D01*
X601211Y96638D01*
X601193Y96811D01*
X601186Y96836D01*
X601182Y96863D01*
X601127Y97029D01*
X601075Y97196D01*
X601062Y97219D01*
X601054Y97245D01*
X600967Y97396D01*
X600883Y97550D01*
X600866Y97570D01*
X600853Y97594D01*
X600638Y97847D01*
X598749Y99736D01*
X598749Y103464D01*
X601386Y106101D01*
X605114Y106101D01*
X607751Y103464D01*
X607751Y99736D01*
X605862Y97847D01*
X605845Y97826D01*
X605824Y97808D01*
X605717Y97671D01*
X605607Y97535D01*
X605594Y97512D01*
X605578Y97490D01*
X605500Y97333D01*
X605418Y97179D01*
X605410Y97154D01*
X605398Y97130D01*
X605353Y96960D01*
X605303Y96794D01*
X605301Y96767D01*
X605294Y96741D01*
X605267Y96410D01*
X605267Y81390D01*
X605269Y81363D01*
X605267Y81336D01*
X605289Y81162D01*
X605307Y80989D01*
X605314Y80964D01*
X605318Y80937D01*
X605373Y80771D01*
X605425Y80604D01*
X605438Y80581D01*
X605446Y80555D01*
X605533Y80404D01*
X605617Y80250D01*
X605634Y80230D01*
X605647Y80206D01*
X605862Y79953D01*
X607751Y78064D01*
X607751Y74336D01*
X605114Y71699D01*
X600948Y71699D01*
X600930Y71697D01*
X600912Y71699D01*
X600730Y71678D01*
X600547Y71659D01*
X600530Y71654D01*
X600513Y71652D01*
X600338Y71595D01*
X600162Y71541D01*
X600147Y71533D01*
X600130Y71527D01*
X599970Y71437D01*
X599808Y71349D01*
X599795Y71338D01*
X599779Y71329D01*
X599640Y71209D01*
X599499Y71092D01*
X599488Y71078D01*
X599474Y71066D01*
X599362Y70921D01*
X599247Y70778D01*
X599239Y70762D01*
X599228Y70748D01*
X599146Y70583D01*
X599061Y70421D01*
X599056Y70404D01*
X599048Y70388D01*
X599001Y70209D01*
X598950Y70034D01*
X598948Y70016D01*
X598944Y69999D01*
X598917Y69668D01*
X598917Y53377D01*
X598918Y53368D01*
X598917Y53359D01*
X598938Y53165D01*
X598957Y52976D01*
X598959Y52967D01*
X598960Y52959D01*
X599018Y52776D01*
X599075Y52591D01*
X599079Y52583D01*
X599082Y52575D01*
X599175Y52406D01*
X599267Y52237D01*
X599272Y52230D01*
X599277Y52222D01*
X599402Y52075D01*
X599524Y51928D01*
X599531Y51922D01*
X599537Y51915D01*
X599689Y51795D01*
X599838Y51675D01*
X599846Y51671D01*
X599853Y51666D01*
X600025Y51578D01*
X600195Y51490D01*
X600204Y51487D01*
X600212Y51483D01*
X600398Y51432D01*
X600582Y51379D01*
X600591Y51378D01*
X600600Y51375D01*
X600792Y51361D01*
X600984Y51346D01*
X600992Y51347D01*
X601001Y51346D01*
X601194Y51370D01*
X601383Y51393D01*
X601392Y51395D01*
X601401Y51396D01*
X601584Y51458D01*
X601766Y51517D01*
X601774Y51522D01*
X601782Y51525D01*
X601948Y51620D01*
X602117Y51715D01*
X602124Y51721D01*
X602131Y51726D01*
X602384Y51940D01*
X603710Y53266D01*
X607532Y54849D01*
X611668Y54849D01*
X615490Y53266D01*
X618416Y50340D01*
X619999Y46518D01*
X619999Y42382D01*
X618416Y38560D01*
X615490Y35634D01*
X612372Y34343D01*
X611668Y34051D01*
X607532Y34051D01*
X603710Y35634D01*
X602384Y36960D01*
X602377Y36965D01*
X602372Y36972D01*
X602221Y37093D01*
X602073Y37215D01*
X602065Y37219D01*
X602058Y37225D01*
X601888Y37313D01*
X601717Y37403D01*
X601708Y37406D01*
X601701Y37410D01*
X601516Y37463D01*
X601331Y37518D01*
X601322Y37519D01*
X601314Y37521D01*
X601123Y37537D01*
X600930Y37555D01*
X600921Y37554D01*
X600912Y37554D01*
X600723Y37532D01*
X600530Y37511D01*
X600521Y37508D01*
X600513Y37507D01*
X600331Y37448D01*
X600146Y37390D01*
X600138Y37385D01*
X600130Y37383D01*
X599963Y37288D01*
X599794Y37195D01*
X599787Y37189D01*
X599779Y37185D01*
X599634Y37060D01*
X599487Y36934D01*
X599481Y36927D01*
X599474Y36922D01*
X599358Y36771D01*
X599237Y36618D01*
X599233Y36610D01*
X599228Y36603D01*
X599142Y36432D01*
X599055Y36259D01*
X599052Y36251D01*
X599048Y36243D01*
X598998Y36057D01*
X598947Y35872D01*
X598946Y35863D01*
X598944Y35854D01*
X598917Y35523D01*
X598917Y30915D01*
X597140Y29138D01*
X593954Y25952D01*
X593940Y25935D01*
X593923Y25920D01*
X593812Y25779D01*
X593699Y25640D01*
X593688Y25621D01*
X593675Y25603D01*
X593594Y25442D01*
X593510Y25285D01*
X593504Y25263D01*
X593494Y25243D01*
X593446Y25070D01*
X593395Y24899D01*
X593393Y24876D01*
X593388Y24855D01*
X593375Y24676D01*
X593359Y24498D01*
X593361Y24476D01*
X593360Y24453D01*
X593383Y24276D01*
X593402Y24097D01*
X593409Y24076D01*
X593412Y24054D01*
X593514Y23738D01*
X594599Y21118D01*
X594599Y16982D01*
X593016Y13160D01*
X590090Y10234D01*
X586268Y8651D01*
X582132Y8651D01*
X578310Y10234D01*
X575384Y13160D01*
X573801Y16982D01*
X573801Y21118D01*
X575384Y24940D01*
X578310Y27866D01*
X582132Y29449D01*
X586268Y29449D01*
X588888Y28364D01*
X588910Y28357D01*
X588929Y28347D01*
X589102Y28299D01*
X589274Y28247D01*
X589296Y28245D01*
X589317Y28239D01*
X589496Y28226D01*
X589674Y28209D01*
X589696Y28211D01*
X589719Y28210D01*
X589897Y28232D01*
X590075Y28251D01*
X590096Y28257D01*
X590118Y28260D01*
X590289Y28317D01*
X590459Y28370D01*
X590479Y28381D01*
X590500Y28388D01*
X590655Y28478D01*
X590812Y28564D01*
X590830Y28578D01*
X590849Y28589D01*
X591102Y28804D01*
X594288Y31990D01*
X594305Y32011D01*
X594326Y32029D01*
X594432Y32166D01*
X594543Y32302D01*
X594556Y32326D01*
X594572Y32347D01*
X594650Y32503D01*
X594732Y32658D01*
X594740Y32683D01*
X594752Y32707D01*
X594797Y32876D01*
X594847Y33044D01*
X594849Y33070D01*
X594856Y33096D01*
X594883Y33427D01*
X594883Y35523D01*
X594882Y35532D01*
X594883Y35541D01*
X594862Y35733D01*
X594843Y35924D01*
X594841Y35933D01*
X594840Y35941D01*
X594782Y36124D01*
X594725Y36309D01*
X594721Y36317D01*
X594718Y36325D01*
X594626Y36492D01*
X594533Y36663D01*
X594528Y36670D01*
X594523Y36678D01*
X594398Y36825D01*
X594276Y36972D01*
X594269Y36978D01*
X594263Y36985D01*
X594111Y37105D01*
X593962Y37225D01*
X593954Y37229D01*
X593947Y37234D01*
X593775Y37322D01*
X593605Y37410D01*
X593596Y37413D01*
X593588Y37417D01*
X593402Y37468D01*
X593218Y37521D01*
X593209Y37522D01*
X593200Y37525D01*
X593008Y37539D01*
X592816Y37554D01*
X592808Y37553D01*
X592799Y37554D01*
X592606Y37530D01*
X592417Y37507D01*
X592408Y37505D01*
X592399Y37504D01*
X592216Y37442D01*
X592034Y37383D01*
X592026Y37378D01*
X592018Y37375D01*
X591852Y37280D01*
X591683Y37185D01*
X591676Y37179D01*
X591669Y37174D01*
X591416Y36960D01*
X590090Y35634D01*
X586972Y34343D01*
X586268Y34051D01*
X582132Y34051D01*
X578310Y35634D01*
X576984Y36960D01*
X576977Y36965D01*
X576972Y36972D01*
X576821Y37093D01*
X576673Y37215D01*
X576665Y37219D01*
X576658Y37225D01*
X576488Y37313D01*
X576317Y37403D01*
X576308Y37406D01*
X576301Y37410D01*
X576116Y37463D01*
X575931Y37518D01*
X575922Y37519D01*
X575914Y37521D01*
X575723Y37537D01*
X575530Y37555D01*
X575521Y37554D01*
X575512Y37554D01*
X575323Y37532D01*
X575130Y37511D01*
X575121Y37508D01*
X575113Y37507D01*
X574931Y37448D01*
X574746Y37390D01*
X574738Y37385D01*
X574730Y37383D01*
X574563Y37288D01*
X574394Y37195D01*
X574387Y37189D01*
X574379Y37185D01*
X574234Y37060D01*
X574087Y36934D01*
X574081Y36927D01*
X574074Y36922D01*
X573958Y36771D01*
X573837Y36618D01*
X573833Y36610D01*
X573828Y36603D01*
X573742Y36432D01*
X573655Y36259D01*
X573652Y36251D01*
X573648Y36243D01*
X573598Y36057D01*
X573547Y35872D01*
X573546Y35863D01*
X573544Y35854D01*
X573517Y35523D01*
X573517Y30915D01*
X571740Y29138D01*
X568554Y25952D01*
X568540Y25935D01*
X568523Y25920D01*
X568412Y25779D01*
X568299Y25640D01*
X568288Y25621D01*
X568275Y25603D01*
X568194Y25442D01*
X568110Y25285D01*
X568104Y25263D01*
X568094Y25243D01*
X568046Y25070D01*
X567995Y24899D01*
X567993Y24876D01*
X567988Y24855D01*
X567975Y24676D01*
X567959Y24498D01*
X567961Y24476D01*
X567960Y24453D01*
X567983Y24276D01*
X568002Y24097D01*
X568009Y24076D01*
X568012Y24054D01*
X568114Y23738D01*
X569199Y21118D01*
X569199Y16982D01*
X567616Y13160D01*
X564690Y10234D01*
X560868Y8651D01*
X556732Y8651D01*
G37*
%LPD*%
%LPC*%
G36*
X251932Y8651D02*
X251932Y8651D01*
X248110Y10234D01*
X245184Y13160D01*
X243601Y16982D01*
X243601Y21118D01*
X245184Y24940D01*
X248110Y27866D01*
X249713Y28530D01*
X249733Y28540D01*
X249754Y28547D01*
X249910Y28635D01*
X250068Y28720D01*
X250085Y28734D01*
X250105Y28745D01*
X250240Y28862D01*
X250379Y28977D01*
X250393Y28994D01*
X250410Y29008D01*
X250519Y29150D01*
X250632Y29289D01*
X250643Y29309D01*
X250656Y29327D01*
X250736Y29487D01*
X250819Y29646D01*
X250826Y29667D01*
X250836Y29687D01*
X250882Y29861D01*
X250932Y30032D01*
X250934Y30054D01*
X250940Y30076D01*
X250967Y30407D01*
X250967Y33093D01*
X250965Y33116D01*
X250967Y33138D01*
X250945Y33315D01*
X250927Y33494D01*
X250921Y33515D01*
X250918Y33538D01*
X250862Y33707D01*
X250809Y33879D01*
X250799Y33899D01*
X250792Y33920D01*
X250703Y34076D01*
X250617Y34233D01*
X250603Y34250D01*
X250592Y34270D01*
X250474Y34405D01*
X250360Y34542D01*
X250342Y34556D01*
X250328Y34573D01*
X250186Y34682D01*
X250046Y34795D01*
X250026Y34805D01*
X250008Y34818D01*
X249713Y34970D01*
X248110Y35634D01*
X245184Y38560D01*
X243601Y42382D01*
X243601Y46518D01*
X245184Y50340D01*
X248110Y53266D01*
X249180Y53709D01*
X249192Y53715D01*
X249205Y53719D01*
X249369Y53810D01*
X249535Y53899D01*
X249545Y53908D01*
X249557Y53914D01*
X249700Y54035D01*
X249845Y54156D01*
X249854Y54166D01*
X249864Y54175D01*
X249981Y54322D01*
X250099Y54468D01*
X250105Y54480D01*
X250114Y54491D01*
X250199Y54659D01*
X250286Y54825D01*
X250290Y54838D01*
X250296Y54850D01*
X250347Y55031D01*
X250399Y55211D01*
X250400Y55225D01*
X250404Y55237D01*
X250418Y55426D01*
X250434Y55612D01*
X250432Y55626D01*
X250433Y55639D01*
X250410Y55826D01*
X250389Y56012D01*
X250385Y56025D01*
X250383Y56038D01*
X250323Y56216D01*
X250266Y56396D01*
X250259Y56407D01*
X250255Y56420D01*
X250161Y56583D01*
X250069Y56747D01*
X250061Y56757D01*
X250054Y56769D01*
X249839Y57022D01*
X215239Y91622D01*
X212867Y93994D01*
X212867Y404302D01*
X212865Y404329D01*
X212867Y404356D01*
X212845Y404530D01*
X212827Y404703D01*
X212820Y404729D01*
X212816Y404755D01*
X212761Y404921D01*
X212709Y405088D01*
X212696Y405112D01*
X212688Y405137D01*
X212601Y405289D01*
X212517Y405442D01*
X212500Y405462D01*
X212487Y405486D01*
X212272Y405739D01*
X206517Y411494D01*
X206517Y414926D01*
X206515Y414953D01*
X206517Y414980D01*
X206495Y415154D01*
X206477Y415327D01*
X206470Y415353D01*
X206466Y415379D01*
X206410Y415545D01*
X206359Y415712D01*
X206346Y415736D01*
X206338Y415761D01*
X206251Y415912D01*
X206167Y416066D01*
X206150Y416087D01*
X206137Y416110D01*
X205922Y416363D01*
X205049Y417236D01*
X205049Y420964D01*
X207686Y423601D01*
X211414Y423601D01*
X214051Y420964D01*
X214051Y417236D01*
X213178Y416363D01*
X213161Y416342D01*
X213140Y416325D01*
X213033Y416186D01*
X212923Y416051D01*
X212910Y416028D01*
X212894Y416006D01*
X212816Y415850D01*
X212734Y415696D01*
X212726Y415670D01*
X212714Y415646D01*
X212669Y415477D01*
X212619Y415310D01*
X212617Y415283D01*
X212610Y415257D01*
X212583Y414926D01*
X212583Y414848D01*
X212585Y414821D01*
X212583Y414794D01*
X212605Y414620D01*
X212623Y414447D01*
X212630Y414421D01*
X212634Y414395D01*
X212689Y414229D01*
X212741Y414062D01*
X212754Y414038D01*
X212762Y414013D01*
X212849Y413861D01*
X212933Y413708D01*
X212950Y413688D01*
X212963Y413664D01*
X213178Y413411D01*
X218933Y407656D01*
X218933Y175889D01*
X218934Y175880D01*
X218933Y175871D01*
X218954Y175678D01*
X218973Y175488D01*
X218975Y175480D01*
X218976Y175471D01*
X219035Y175284D01*
X219091Y175103D01*
X219095Y175095D01*
X219098Y175087D01*
X219191Y174918D01*
X219283Y174749D01*
X219288Y174742D01*
X219293Y174734D01*
X219417Y174587D01*
X219540Y174440D01*
X219547Y174434D01*
X219553Y174427D01*
X219705Y174308D01*
X219854Y174188D01*
X219862Y174183D01*
X219869Y174178D01*
X220042Y174090D01*
X220211Y174002D01*
X220220Y174000D01*
X220228Y173995D01*
X220414Y173944D01*
X220598Y173891D01*
X220607Y173890D01*
X220616Y173887D01*
X220809Y173873D01*
X221000Y173858D01*
X221008Y173859D01*
X221017Y173858D01*
X221210Y173882D01*
X221399Y173905D01*
X221408Y173907D01*
X221417Y173909D01*
X221599Y173970D01*
X221782Y174029D01*
X221790Y174034D01*
X221798Y174037D01*
X221965Y174133D01*
X222133Y174227D01*
X222140Y174233D01*
X222147Y174238D01*
X222400Y174452D01*
X225730Y177782D01*
X225741Y177796D01*
X225755Y177808D01*
X225869Y177952D01*
X225985Y178094D01*
X225994Y178109D01*
X226005Y178124D01*
X226088Y178288D01*
X226174Y178449D01*
X226179Y178467D01*
X226187Y178482D01*
X226236Y178660D01*
X226289Y178835D01*
X226290Y178853D01*
X226295Y178870D01*
X226308Y179053D01*
X226325Y179236D01*
X226323Y179254D01*
X226324Y179272D01*
X226302Y179453D01*
X226282Y179637D01*
X226276Y179654D01*
X226274Y179671D01*
X226216Y179845D01*
X226160Y180020D01*
X226151Y180036D01*
X226146Y180053D01*
X226054Y180212D01*
X225965Y180373D01*
X225954Y180386D01*
X225945Y180402D01*
X225730Y180655D01*
X224099Y182286D01*
X224099Y186014D01*
X226736Y188651D01*
X230464Y188651D01*
X233101Y186014D01*
X233101Y182286D01*
X231212Y180397D01*
X231195Y180376D01*
X231174Y180358D01*
X231067Y180221D01*
X230957Y180085D01*
X230944Y180062D01*
X230928Y180040D01*
X230850Y179883D01*
X230768Y179729D01*
X230760Y179704D01*
X230748Y179680D01*
X230703Y179510D01*
X230653Y179344D01*
X230651Y179317D01*
X230644Y179291D01*
X230617Y178960D01*
X230617Y176965D01*
X228841Y175189D01*
X228840Y175188D01*
X224862Y171210D01*
X224845Y171189D01*
X224824Y171171D01*
X224717Y171033D01*
X224607Y170898D01*
X224594Y170874D01*
X224578Y170853D01*
X224500Y170696D01*
X224418Y170542D01*
X224410Y170517D01*
X224398Y170493D01*
X224353Y170323D01*
X224303Y170156D01*
X224301Y170130D01*
X224294Y170104D01*
X224267Y169773D01*
X224267Y103277D01*
X224269Y103250D01*
X224267Y103223D01*
X224289Y103050D01*
X224307Y102876D01*
X224314Y102851D01*
X224318Y102824D01*
X224373Y102658D01*
X224425Y102491D01*
X224438Y102468D01*
X224446Y102442D01*
X224533Y102291D01*
X224617Y102137D01*
X224634Y102117D01*
X224647Y102093D01*
X224862Y101840D01*
X260590Y66112D01*
X260611Y66095D01*
X260629Y66074D01*
X260767Y65967D01*
X260902Y65857D01*
X260926Y65844D01*
X260947Y65828D01*
X261104Y65750D01*
X261258Y65668D01*
X261283Y65660D01*
X261307Y65648D01*
X261477Y65603D01*
X261644Y65553D01*
X261670Y65551D01*
X261696Y65544D01*
X262027Y65517D01*
X311985Y65517D01*
X319517Y57985D01*
X319517Y53377D01*
X319518Y53368D01*
X319517Y53359D01*
X319538Y53165D01*
X319557Y52976D01*
X319559Y52967D01*
X319560Y52959D01*
X319618Y52776D01*
X319675Y52591D01*
X319679Y52583D01*
X319682Y52575D01*
X319775Y52406D01*
X319867Y52237D01*
X319872Y52230D01*
X319877Y52222D01*
X320002Y52075D01*
X320124Y51928D01*
X320131Y51922D01*
X320137Y51915D01*
X320289Y51795D01*
X320438Y51675D01*
X320446Y51671D01*
X320453Y51666D01*
X320625Y51578D01*
X320795Y51490D01*
X320804Y51487D01*
X320812Y51483D01*
X320998Y51432D01*
X321182Y51379D01*
X321191Y51378D01*
X321200Y51375D01*
X321392Y51361D01*
X321584Y51346D01*
X321592Y51347D01*
X321601Y51346D01*
X321794Y51370D01*
X321983Y51393D01*
X321992Y51395D01*
X322001Y51396D01*
X322184Y51458D01*
X322366Y51517D01*
X322374Y51522D01*
X322382Y51525D01*
X322548Y51620D01*
X322717Y51715D01*
X322724Y51721D01*
X322731Y51726D01*
X322984Y51940D01*
X324310Y53266D01*
X328132Y54849D01*
X332268Y54849D01*
X336090Y53266D01*
X339016Y50340D01*
X340599Y46518D01*
X340599Y42382D01*
X339016Y38560D01*
X337690Y37234D01*
X337685Y37227D01*
X337678Y37222D01*
X337557Y37071D01*
X337435Y36923D01*
X337431Y36915D01*
X337425Y36908D01*
X337337Y36738D01*
X337247Y36567D01*
X337244Y36558D01*
X337240Y36551D01*
X337187Y36366D01*
X337132Y36181D01*
X337131Y36172D01*
X337129Y36164D01*
X337113Y35973D01*
X337095Y35780D01*
X337096Y35771D01*
X337096Y35762D01*
X337118Y35573D01*
X337139Y35380D01*
X337142Y35371D01*
X337143Y35363D01*
X337202Y35181D01*
X337260Y34996D01*
X337265Y34988D01*
X337267Y34980D01*
X337362Y34813D01*
X337455Y34644D01*
X337461Y34637D01*
X337465Y34629D01*
X337590Y34484D01*
X337716Y34337D01*
X337723Y34331D01*
X337728Y34324D01*
X337879Y34208D01*
X338032Y34087D01*
X338040Y34083D01*
X338047Y34078D01*
X338218Y33992D01*
X338391Y33905D01*
X338399Y33902D01*
X338407Y33898D01*
X338593Y33848D01*
X338778Y33797D01*
X338787Y33796D01*
X338796Y33794D01*
X339127Y33767D01*
X343735Y33767D01*
X345512Y31990D01*
X348698Y28804D01*
X348715Y28790D01*
X348730Y28773D01*
X348871Y28662D01*
X349010Y28549D01*
X349029Y28538D01*
X349047Y28525D01*
X349208Y28444D01*
X349365Y28360D01*
X349387Y28354D01*
X349407Y28344D01*
X349580Y28296D01*
X349751Y28245D01*
X349774Y28243D01*
X349795Y28238D01*
X349974Y28225D01*
X350152Y28209D01*
X350174Y28211D01*
X350197Y28210D01*
X350374Y28233D01*
X350553Y28252D01*
X350574Y28259D01*
X350596Y28262D01*
X350912Y28364D01*
X353532Y29449D01*
X357668Y29449D01*
X361490Y27866D01*
X364416Y24940D01*
X365999Y21118D01*
X365999Y16982D01*
X364416Y13160D01*
X361490Y10234D01*
X357668Y8651D01*
X353532Y8651D01*
X349710Y10234D01*
X346784Y13160D01*
X345201Y16982D01*
X345201Y21118D01*
X346286Y23738D01*
X346293Y23760D01*
X346303Y23779D01*
X346351Y23952D01*
X346403Y24124D01*
X346405Y24146D01*
X346411Y24167D01*
X346424Y24346D01*
X346441Y24524D01*
X346439Y24546D01*
X346440Y24569D01*
X346418Y24747D01*
X346399Y24925D01*
X346393Y24946D01*
X346390Y24968D01*
X346333Y25139D01*
X346280Y25309D01*
X346269Y25329D01*
X346262Y25350D01*
X346172Y25505D01*
X346086Y25662D01*
X346072Y25680D01*
X346061Y25699D01*
X345846Y25952D01*
X342660Y29138D01*
X342639Y29155D01*
X342621Y29176D01*
X342484Y29282D01*
X342348Y29393D01*
X342324Y29406D01*
X342303Y29422D01*
X342147Y29500D01*
X341992Y29582D01*
X341967Y29590D01*
X341943Y29602D01*
X341774Y29647D01*
X341606Y29697D01*
X341580Y29699D01*
X341554Y29706D01*
X341223Y29733D01*
X339127Y29733D01*
X339118Y29732D01*
X339109Y29733D01*
X338917Y29712D01*
X338726Y29693D01*
X338717Y29691D01*
X338709Y29690D01*
X338526Y29632D01*
X338341Y29575D01*
X338333Y29571D01*
X338325Y29568D01*
X338156Y29475D01*
X337987Y29383D01*
X337980Y29378D01*
X337972Y29373D01*
X337825Y29248D01*
X337678Y29126D01*
X337672Y29119D01*
X337665Y29113D01*
X337545Y28961D01*
X337425Y28812D01*
X337421Y28804D01*
X337416Y28797D01*
X337328Y28624D01*
X337240Y28455D01*
X337237Y28446D01*
X337233Y28438D01*
X337182Y28252D01*
X337129Y28068D01*
X337128Y28059D01*
X337125Y28050D01*
X337111Y27858D01*
X337096Y27666D01*
X337097Y27658D01*
X337096Y27649D01*
X337120Y27456D01*
X337143Y27267D01*
X337145Y27258D01*
X337146Y27249D01*
X337208Y27066D01*
X337267Y26884D01*
X337272Y26876D01*
X337275Y26868D01*
X337370Y26702D01*
X337465Y26533D01*
X337471Y26526D01*
X337476Y26519D01*
X337690Y26266D01*
X339016Y24940D01*
X340599Y21118D01*
X340599Y16982D01*
X339016Y13160D01*
X336090Y10234D01*
X332268Y8651D01*
X328132Y8651D01*
X324310Y10234D01*
X321384Y13160D01*
X319801Y16982D01*
X319801Y21118D01*
X321384Y24940D01*
X322710Y26266D01*
X322715Y26273D01*
X322722Y26278D01*
X322843Y26429D01*
X322965Y26577D01*
X322969Y26585D01*
X322975Y26592D01*
X323063Y26762D01*
X323153Y26933D01*
X323156Y26942D01*
X323160Y26949D01*
X323213Y27134D01*
X323268Y27319D01*
X323269Y27328D01*
X323271Y27336D01*
X323287Y27527D01*
X323305Y27720D01*
X323304Y27729D01*
X323304Y27738D01*
X323282Y27927D01*
X323261Y28120D01*
X323258Y28129D01*
X323257Y28137D01*
X323198Y28318D01*
X323140Y28504D01*
X323135Y28512D01*
X323133Y28520D01*
X323038Y28687D01*
X322945Y28856D01*
X322939Y28863D01*
X322935Y28871D01*
X322810Y29016D01*
X322684Y29163D01*
X322677Y29169D01*
X322672Y29176D01*
X322521Y29292D01*
X322368Y29413D01*
X322360Y29417D01*
X322353Y29422D01*
X322182Y29508D01*
X322009Y29595D01*
X322001Y29598D01*
X321993Y29602D01*
X321807Y29652D01*
X321622Y29703D01*
X321613Y29704D01*
X321604Y29706D01*
X321273Y29733D01*
X316665Y29733D01*
X315483Y30915D01*
X315483Y35523D01*
X315482Y35532D01*
X315483Y35541D01*
X315462Y35733D01*
X315443Y35924D01*
X315441Y35933D01*
X315440Y35941D01*
X315382Y36124D01*
X315325Y36309D01*
X315321Y36317D01*
X315318Y36325D01*
X315226Y36492D01*
X315133Y36663D01*
X315128Y36670D01*
X315123Y36678D01*
X314998Y36825D01*
X314876Y36972D01*
X314869Y36978D01*
X314863Y36985D01*
X314711Y37105D01*
X314562Y37225D01*
X314554Y37229D01*
X314547Y37234D01*
X314375Y37322D01*
X314205Y37410D01*
X314196Y37413D01*
X314188Y37417D01*
X314002Y37468D01*
X313818Y37521D01*
X313809Y37522D01*
X313800Y37525D01*
X313608Y37539D01*
X313416Y37554D01*
X313408Y37553D01*
X313399Y37554D01*
X313206Y37530D01*
X313017Y37507D01*
X313008Y37505D01*
X312999Y37504D01*
X312816Y37442D01*
X312634Y37383D01*
X312626Y37378D01*
X312618Y37375D01*
X312452Y37280D01*
X312283Y37185D01*
X312276Y37179D01*
X312269Y37174D01*
X312016Y36960D01*
X310690Y35634D01*
X307572Y34343D01*
X306868Y34051D01*
X302732Y34051D01*
X298910Y35634D01*
X295984Y38560D01*
X294401Y42382D01*
X294401Y46518D01*
X295984Y50340D01*
X298910Y53266D01*
X302732Y54849D01*
X306868Y54849D01*
X310690Y53266D01*
X312016Y51940D01*
X312023Y51935D01*
X312028Y51928D01*
X312179Y51807D01*
X312327Y51685D01*
X312335Y51681D01*
X312342Y51675D01*
X312512Y51587D01*
X312683Y51497D01*
X312692Y51494D01*
X312699Y51490D01*
X312884Y51437D01*
X313069Y51382D01*
X313078Y51381D01*
X313086Y51379D01*
X313277Y51363D01*
X313470Y51345D01*
X313479Y51346D01*
X313488Y51346D01*
X313677Y51368D01*
X313870Y51389D01*
X313879Y51392D01*
X313887Y51393D01*
X314069Y51452D01*
X314254Y51510D01*
X314262Y51515D01*
X314270Y51517D01*
X314437Y51612D01*
X314606Y51705D01*
X314613Y51711D01*
X314621Y51715D01*
X314766Y51840D01*
X314913Y51966D01*
X314919Y51973D01*
X314926Y51978D01*
X315042Y52129D01*
X315163Y52282D01*
X315167Y52290D01*
X315172Y52297D01*
X315258Y52468D01*
X315345Y52641D01*
X315348Y52649D01*
X315352Y52657D01*
X315402Y52843D01*
X315453Y53028D01*
X315454Y53037D01*
X315456Y53046D01*
X315483Y53377D01*
X315483Y55473D01*
X315481Y55500D01*
X315483Y55527D01*
X315461Y55700D01*
X315443Y55874D01*
X315436Y55899D01*
X315432Y55926D01*
X315377Y56092D01*
X315325Y56259D01*
X315312Y56282D01*
X315304Y56308D01*
X315217Y56459D01*
X315133Y56613D01*
X315116Y56633D01*
X315103Y56657D01*
X314888Y56910D01*
X310910Y60888D01*
X310889Y60905D01*
X310871Y60926D01*
X310733Y61033D01*
X310598Y61143D01*
X310574Y61156D01*
X310553Y61172D01*
X310396Y61250D01*
X310242Y61332D01*
X310217Y61340D01*
X310193Y61352D01*
X310023Y61397D01*
X309856Y61447D01*
X309830Y61449D01*
X309804Y61456D01*
X309473Y61483D01*
X258860Y61483D01*
X258850Y61482D01*
X258842Y61483D01*
X258650Y61462D01*
X258459Y61443D01*
X258450Y61441D01*
X258441Y61440D01*
X258257Y61381D01*
X258074Y61325D01*
X258066Y61321D01*
X258057Y61318D01*
X257889Y61225D01*
X257720Y61133D01*
X257713Y61128D01*
X257705Y61123D01*
X257558Y60999D01*
X257411Y60876D01*
X257405Y60869D01*
X257398Y60863D01*
X257278Y60711D01*
X257158Y60562D01*
X257154Y60554D01*
X257149Y60547D01*
X257061Y60374D01*
X256973Y60205D01*
X256970Y60196D01*
X256966Y60188D01*
X256914Y60001D01*
X256861Y59818D01*
X256861Y59809D01*
X256858Y59800D01*
X256844Y59609D01*
X256829Y59416D01*
X256830Y59407D01*
X256829Y59399D01*
X256853Y59206D01*
X256875Y59017D01*
X256878Y59008D01*
X256879Y58999D01*
X256941Y58817D01*
X257000Y58634D01*
X257005Y58626D01*
X257008Y58617D01*
X257033Y58574D01*
X257033Y55807D01*
X257035Y55784D01*
X257033Y55762D01*
X257055Y55585D01*
X257073Y55406D01*
X257079Y55385D01*
X257082Y55362D01*
X257138Y55193D01*
X257191Y55021D01*
X257201Y55001D01*
X257208Y54980D01*
X257297Y54824D01*
X257383Y54667D01*
X257397Y54650D01*
X257408Y54630D01*
X257526Y54495D01*
X257640Y54358D01*
X257658Y54344D01*
X257672Y54327D01*
X257814Y54218D01*
X257954Y54105D01*
X257974Y54095D01*
X257992Y54082D01*
X258287Y53930D01*
X259890Y53266D01*
X262816Y50340D01*
X264399Y46518D01*
X264399Y42382D01*
X262816Y38560D01*
X259890Y35634D01*
X258287Y34970D01*
X258267Y34960D01*
X258246Y34953D01*
X258090Y34865D01*
X257932Y34780D01*
X257915Y34766D01*
X257895Y34755D01*
X257760Y34638D01*
X257621Y34523D01*
X257607Y34506D01*
X257590Y34492D01*
X257481Y34350D01*
X257368Y34211D01*
X257357Y34191D01*
X257344Y34173D01*
X257264Y34013D01*
X257181Y33854D01*
X257174Y33833D01*
X257164Y33813D01*
X257117Y33638D01*
X257068Y33468D01*
X257066Y33446D01*
X257060Y33424D01*
X257033Y33093D01*
X257033Y30407D01*
X257033Y30403D01*
X257034Y30398D01*
X257035Y30384D01*
X257033Y30362D01*
X257055Y30185D01*
X257073Y30006D01*
X257079Y29985D01*
X257082Y29962D01*
X257138Y29793D01*
X257191Y29621D01*
X257201Y29601D01*
X257208Y29580D01*
X257297Y29424D01*
X257383Y29267D01*
X257397Y29250D01*
X257408Y29230D01*
X257526Y29095D01*
X257640Y28958D01*
X257658Y28944D01*
X257672Y28927D01*
X257814Y28818D01*
X257954Y28705D01*
X257974Y28695D01*
X257992Y28682D01*
X258287Y28530D01*
X259890Y27866D01*
X262816Y24940D01*
X264399Y21118D01*
X264399Y16982D01*
X262816Y13160D01*
X259890Y10234D01*
X256068Y8651D01*
X251932Y8651D01*
G37*
%LPD*%
%LPC*%
G36*
X739396Y112069D02*
X739396Y112069D01*
X734369Y117096D01*
X734369Y124204D01*
X739422Y129257D01*
X739557Y129271D01*
X739574Y129276D01*
X739591Y129278D01*
X739766Y129335D01*
X739942Y129389D01*
X739957Y129397D01*
X739974Y129403D01*
X740134Y129493D01*
X740296Y129581D01*
X740309Y129592D01*
X740325Y129601D01*
X740464Y129721D01*
X740605Y129838D01*
X740616Y129852D01*
X740630Y129864D01*
X740742Y130009D01*
X740857Y130152D01*
X740865Y130168D01*
X740876Y130182D01*
X740958Y130347D01*
X741043Y130509D01*
X741048Y130526D01*
X741056Y130542D01*
X741103Y130720D01*
X741154Y130896D01*
X741156Y130914D01*
X741160Y130931D01*
X741187Y131262D01*
X741187Y131778D01*
X741185Y131805D01*
X741187Y131832D01*
X741165Y132006D01*
X741147Y132179D01*
X741140Y132205D01*
X741136Y132231D01*
X741081Y132397D01*
X741029Y132564D01*
X741016Y132588D01*
X741008Y132613D01*
X740921Y132765D01*
X740837Y132918D01*
X740820Y132939D01*
X740807Y132962D01*
X740592Y133215D01*
X717415Y156392D01*
X715787Y158020D01*
X715787Y483330D01*
X717415Y484957D01*
X717415Y484958D01*
X721542Y489085D01*
X721559Y489106D01*
X721580Y489123D01*
X721686Y489260D01*
X721797Y489397D01*
X721810Y489420D01*
X721826Y489441D01*
X721904Y489597D01*
X721986Y489752D01*
X721994Y489778D01*
X722006Y489802D01*
X722051Y489971D01*
X722101Y490138D01*
X722103Y490165D01*
X722110Y490191D01*
X722137Y490522D01*
X722137Y492977D01*
X722136Y492986D01*
X722137Y492995D01*
X722116Y493186D01*
X722097Y493378D01*
X722095Y493387D01*
X722094Y493395D01*
X722036Y493578D01*
X721979Y493763D01*
X721975Y493771D01*
X721972Y493779D01*
X721879Y493948D01*
X721787Y494117D01*
X721782Y494124D01*
X721777Y494132D01*
X721652Y494279D01*
X721530Y494426D01*
X721523Y494432D01*
X721517Y494439D01*
X721365Y494559D01*
X721216Y494679D01*
X721208Y494683D01*
X721201Y494688D01*
X721030Y494775D01*
X720859Y494864D01*
X720850Y494867D01*
X720842Y494871D01*
X720656Y494922D01*
X720472Y494975D01*
X720463Y494976D01*
X720454Y494979D01*
X720262Y494993D01*
X720070Y495008D01*
X720062Y495007D01*
X720053Y495008D01*
X719860Y494984D01*
X719671Y494961D01*
X719662Y494959D01*
X719653Y494958D01*
X719470Y494896D01*
X719288Y494837D01*
X719280Y494832D01*
X719272Y494829D01*
X719106Y494734D01*
X718937Y494639D01*
X718930Y494633D01*
X718923Y494628D01*
X718670Y494414D01*
X717090Y492834D01*
X713565Y491374D01*
X713268Y491251D01*
X709132Y491251D01*
X705310Y492834D01*
X702384Y495760D01*
X700801Y499582D01*
X700801Y503718D01*
X702384Y507540D01*
X705310Y510466D01*
X709132Y512049D01*
X713268Y512049D01*
X717090Y510466D01*
X718670Y508886D01*
X718677Y508881D01*
X718682Y508874D01*
X718832Y508753D01*
X718981Y508631D01*
X718989Y508627D01*
X718996Y508621D01*
X719166Y508533D01*
X719337Y508443D01*
X719346Y508440D01*
X719353Y508436D01*
X719538Y508383D01*
X719723Y508328D01*
X719732Y508327D01*
X719740Y508325D01*
X719931Y508309D01*
X720124Y508291D01*
X720133Y508292D01*
X720142Y508292D01*
X720331Y508314D01*
X720524Y508335D01*
X720533Y508338D01*
X720541Y508339D01*
X720723Y508398D01*
X720908Y508456D01*
X720916Y508461D01*
X720924Y508463D01*
X721091Y508558D01*
X721260Y508651D01*
X721267Y508657D01*
X721275Y508661D01*
X721420Y508786D01*
X721567Y508912D01*
X721573Y508919D01*
X721580Y508924D01*
X721696Y509074D01*
X721817Y509228D01*
X721821Y509236D01*
X721826Y509243D01*
X721912Y509414D01*
X721999Y509587D01*
X722002Y509595D01*
X722006Y509603D01*
X722056Y509789D01*
X722107Y509974D01*
X722108Y509983D01*
X722110Y509992D01*
X722137Y510323D01*
X722137Y518377D01*
X722136Y518386D01*
X722137Y518395D01*
X722116Y518587D01*
X722097Y518778D01*
X722095Y518787D01*
X722094Y518795D01*
X722036Y518978D01*
X721979Y519163D01*
X721975Y519171D01*
X721972Y519179D01*
X721879Y519348D01*
X721787Y519517D01*
X721782Y519524D01*
X721777Y519532D01*
X721652Y519679D01*
X721530Y519826D01*
X721523Y519832D01*
X721517Y519839D01*
X721365Y519959D01*
X721216Y520079D01*
X721208Y520083D01*
X721201Y520088D01*
X721029Y520176D01*
X720859Y520264D01*
X720850Y520267D01*
X720842Y520271D01*
X720656Y520322D01*
X720472Y520375D01*
X720463Y520376D01*
X720454Y520379D01*
X720262Y520393D01*
X720070Y520408D01*
X720062Y520407D01*
X720053Y520408D01*
X719860Y520384D01*
X719671Y520361D01*
X719662Y520359D01*
X719653Y520358D01*
X719470Y520296D01*
X719288Y520237D01*
X719280Y520232D01*
X719272Y520229D01*
X719106Y520134D01*
X718937Y520039D01*
X718930Y520033D01*
X718923Y520028D01*
X718670Y519814D01*
X717090Y518234D01*
X715994Y517780D01*
X713268Y516651D01*
X709132Y516651D01*
X705310Y518234D01*
X702384Y521160D01*
X700801Y524982D01*
X700801Y529118D01*
X702384Y532940D01*
X705310Y535866D01*
X706545Y536377D01*
X706545Y536378D01*
X709132Y537449D01*
X713268Y537449D01*
X717090Y535866D01*
X720016Y532940D01*
X721599Y529118D01*
X721599Y525795D01*
X721600Y525786D01*
X721599Y525778D01*
X721619Y525587D01*
X721639Y525395D01*
X721641Y525386D01*
X721642Y525377D01*
X721700Y525194D01*
X721757Y525010D01*
X721761Y525002D01*
X721764Y524994D01*
X721857Y524825D01*
X721949Y524656D01*
X721954Y524649D01*
X721959Y524641D01*
X722084Y524494D01*
X722206Y524347D01*
X722213Y524341D01*
X722219Y524334D01*
X722371Y524214D01*
X722520Y524094D01*
X722528Y524090D01*
X722535Y524085D01*
X722709Y523996D01*
X722877Y523909D01*
X722886Y523906D01*
X722894Y523902D01*
X723080Y523850D01*
X723264Y523797D01*
X723273Y523797D01*
X723282Y523794D01*
X723474Y523780D01*
X723666Y523765D01*
X723674Y523766D01*
X723683Y523765D01*
X723875Y523789D01*
X724065Y523811D01*
X724074Y523814D01*
X724083Y523815D01*
X724265Y523877D01*
X724448Y523936D01*
X724456Y523941D01*
X724464Y523944D01*
X724632Y524040D01*
X724799Y524134D01*
X724806Y524140D01*
X724813Y524144D01*
X725066Y524359D01*
X725606Y524899D01*
X725623Y524920D01*
X725644Y524937D01*
X725751Y525076D01*
X725861Y525211D01*
X725874Y525234D01*
X725890Y525255D01*
X725968Y525412D01*
X726050Y525566D01*
X726058Y525592D01*
X726070Y525616D01*
X726115Y525785D01*
X726165Y525952D01*
X726167Y525979D01*
X726174Y526005D01*
X726201Y526336D01*
X726201Y529118D01*
X727784Y532940D01*
X730710Y535866D01*
X731945Y536377D01*
X731945Y536378D01*
X734532Y537449D01*
X738668Y537449D01*
X742490Y535866D01*
X745416Y532940D01*
X746999Y529118D01*
X746999Y524982D01*
X745416Y521160D01*
X742490Y518234D01*
X741394Y517780D01*
X738668Y516651D01*
X734532Y516651D01*
X730710Y518234D01*
X729130Y519814D01*
X729123Y519819D01*
X729118Y519826D01*
X728968Y519947D01*
X728819Y520069D01*
X728811Y520073D01*
X728804Y520079D01*
X728634Y520167D01*
X728463Y520257D01*
X728454Y520260D01*
X728447Y520264D01*
X728262Y520317D01*
X728077Y520372D01*
X728068Y520373D01*
X728060Y520375D01*
X727869Y520391D01*
X727676Y520409D01*
X727667Y520408D01*
X727658Y520408D01*
X727469Y520386D01*
X727276Y520365D01*
X727267Y520362D01*
X727259Y520361D01*
X727077Y520302D01*
X726892Y520244D01*
X726884Y520239D01*
X726876Y520237D01*
X726709Y520142D01*
X726540Y520049D01*
X726533Y520043D01*
X726525Y520039D01*
X726380Y519914D01*
X726233Y519788D01*
X726227Y519781D01*
X726220Y519776D01*
X726104Y519625D01*
X725983Y519472D01*
X725979Y519464D01*
X725974Y519457D01*
X725888Y519286D01*
X725801Y519113D01*
X725798Y519105D01*
X725794Y519097D01*
X725744Y518911D01*
X725693Y518726D01*
X725692Y518717D01*
X725690Y518708D01*
X725663Y518377D01*
X725663Y510323D01*
X725664Y510314D01*
X725663Y510305D01*
X725684Y510113D01*
X725703Y509922D01*
X725705Y509913D01*
X725706Y509905D01*
X725764Y509722D01*
X725821Y509537D01*
X725825Y509529D01*
X725828Y509521D01*
X725921Y509352D01*
X726013Y509183D01*
X726018Y509176D01*
X726023Y509168D01*
X726148Y509021D01*
X726270Y508874D01*
X726277Y508868D01*
X726283Y508861D01*
X726435Y508741D01*
X726584Y508621D01*
X726592Y508617D01*
X726599Y508612D01*
X726771Y508524D01*
X726941Y508436D01*
X726950Y508433D01*
X726958Y508429D01*
X727144Y508378D01*
X727328Y508325D01*
X727337Y508324D01*
X727346Y508321D01*
X727538Y508307D01*
X727730Y508292D01*
X727738Y508293D01*
X727747Y508292D01*
X727940Y508316D01*
X728129Y508339D01*
X728138Y508341D01*
X728147Y508342D01*
X728330Y508404D01*
X728512Y508463D01*
X728520Y508468D01*
X728528Y508471D01*
X728694Y508566D01*
X728863Y508661D01*
X728870Y508667D01*
X728877Y508672D01*
X729130Y508886D01*
X730710Y510466D01*
X734532Y512049D01*
X738668Y512049D01*
X742490Y510466D01*
X745416Y507540D01*
X746999Y503718D01*
X746999Y499582D01*
X745416Y495760D01*
X742490Y492834D01*
X738965Y491374D01*
X738668Y491251D01*
X734532Y491251D01*
X730710Y492834D01*
X729130Y494414D01*
X729123Y494419D01*
X729118Y494426D01*
X728968Y494547D01*
X728819Y494669D01*
X728811Y494673D01*
X728804Y494679D01*
X728634Y494767D01*
X728463Y494857D01*
X728454Y494860D01*
X728447Y494864D01*
X728262Y494917D01*
X728077Y494972D01*
X728068Y494973D01*
X728060Y494975D01*
X727869Y494991D01*
X727676Y495009D01*
X727667Y495008D01*
X727658Y495008D01*
X727469Y494986D01*
X727276Y494965D01*
X727267Y494962D01*
X727259Y494961D01*
X727077Y494902D01*
X726892Y494844D01*
X726884Y494839D01*
X726876Y494837D01*
X726709Y494742D01*
X726540Y494649D01*
X726533Y494643D01*
X726525Y494639D01*
X726380Y494514D01*
X726233Y494388D01*
X726227Y494381D01*
X726220Y494376D01*
X726104Y494225D01*
X725983Y494072D01*
X725979Y494064D01*
X725974Y494057D01*
X725888Y493886D01*
X725801Y493713D01*
X725798Y493705D01*
X725794Y493697D01*
X725744Y493511D01*
X725693Y493326D01*
X725692Y493317D01*
X725690Y493308D01*
X725663Y492977D01*
X725663Y488220D01*
X724035Y486592D01*
X719908Y482465D01*
X719891Y482444D01*
X719870Y482427D01*
X719763Y482289D01*
X719653Y482153D01*
X719640Y482130D01*
X719624Y482109D01*
X719546Y481952D01*
X719464Y481798D01*
X719456Y481772D01*
X719444Y481748D01*
X719399Y481579D01*
X719349Y481412D01*
X719347Y481385D01*
X719340Y481359D01*
X719313Y481029D01*
X719313Y160321D01*
X719315Y160295D01*
X719313Y160268D01*
X719335Y160094D01*
X719353Y159921D01*
X719360Y159895D01*
X719364Y159869D01*
X719419Y159703D01*
X719471Y159536D01*
X719484Y159512D01*
X719492Y159487D01*
X719579Y159335D01*
X719663Y159182D01*
X719680Y159161D01*
X719693Y159138D01*
X719908Y158885D01*
X744713Y134080D01*
X744713Y131262D01*
X744715Y131244D01*
X744713Y131226D01*
X744734Y131044D01*
X744753Y130861D01*
X744758Y130844D01*
X744760Y130827D01*
X744817Y130652D01*
X744871Y130476D01*
X744879Y130461D01*
X744885Y130444D01*
X744975Y130284D01*
X745063Y130122D01*
X745074Y130109D01*
X745083Y130093D01*
X745203Y129954D01*
X745320Y129813D01*
X745334Y129802D01*
X745346Y129788D01*
X745491Y129676D01*
X745634Y129561D01*
X745650Y129553D01*
X745664Y129542D01*
X745829Y129460D01*
X745991Y129375D01*
X746008Y129370D01*
X746024Y129362D01*
X746203Y129315D01*
X746378Y129264D01*
X746396Y129262D01*
X746413Y129258D01*
X746483Y129252D01*
X751531Y124204D01*
X751531Y117096D01*
X746504Y112069D01*
X739396Y112069D01*
G37*
%LPD*%
%LPC*%
G36*
X205739Y7111D02*
X205739Y7111D01*
X205739Y18542D01*
X205737Y18560D01*
X205739Y18577D01*
X205718Y18760D01*
X205699Y18942D01*
X205694Y18959D01*
X205692Y18977D01*
X205667Y19055D01*
X205706Y19192D01*
X205708Y19210D01*
X205712Y19227D01*
X205739Y19558D01*
X205739Y43942D01*
X205737Y43960D01*
X205739Y43977D01*
X205718Y44160D01*
X205699Y44342D01*
X205694Y44359D01*
X205692Y44377D01*
X205667Y44455D01*
X205706Y44592D01*
X205708Y44610D01*
X205712Y44627D01*
X205739Y44958D01*
X205739Y56135D01*
X205996Y56095D01*
X207783Y55514D01*
X209457Y54661D01*
X210978Y53556D01*
X212306Y52228D01*
X213411Y50707D01*
X214264Y49033D01*
X214751Y47533D01*
X214787Y47452D01*
X214813Y47367D01*
X214868Y47268D01*
X214913Y47165D01*
X214964Y47092D01*
X215007Y47014D01*
X215079Y46928D01*
X215144Y46835D01*
X215209Y46774D01*
X215266Y46706D01*
X215354Y46636D01*
X215436Y46558D01*
X215511Y46510D01*
X215581Y46455D01*
X215681Y46403D01*
X215777Y46343D01*
X215860Y46312D01*
X215939Y46271D01*
X216047Y46240D01*
X216153Y46200D01*
X216241Y46186D01*
X216326Y46161D01*
X216439Y46153D01*
X216550Y46134D01*
X216639Y46137D01*
X216728Y46130D01*
X216840Y46144D01*
X216953Y46148D01*
X217039Y46168D01*
X217127Y46179D01*
X217234Y46214D01*
X217344Y46241D01*
X217425Y46278D01*
X217509Y46306D01*
X217608Y46361D01*
X217710Y46409D01*
X217782Y46461D01*
X217859Y46505D01*
X217944Y46579D01*
X218036Y46646D01*
X218096Y46711D01*
X218163Y46769D01*
X218231Y46859D01*
X218308Y46942D01*
X218354Y47018D01*
X218408Y47089D01*
X218473Y47214D01*
X218517Y47287D01*
X218532Y47330D01*
X218560Y47384D01*
X219784Y50340D01*
X222710Y53266D01*
X225329Y54351D01*
X225349Y54361D01*
X225370Y54368D01*
X225527Y54457D01*
X225684Y54541D01*
X225701Y54555D01*
X225721Y54566D01*
X225857Y54683D01*
X225995Y54797D01*
X226009Y54815D01*
X226026Y54829D01*
X226135Y54971D01*
X226248Y55110D01*
X226259Y55130D01*
X226272Y55147D01*
X226352Y55308D01*
X226435Y55467D01*
X226442Y55488D01*
X226452Y55508D01*
X226498Y55682D01*
X226548Y55853D01*
X226550Y55875D01*
X226556Y55897D01*
X226583Y56227D01*
X226583Y61823D01*
X226581Y61850D01*
X226583Y61877D01*
X226561Y62050D01*
X226543Y62224D01*
X226536Y62249D01*
X226532Y62276D01*
X226477Y62442D01*
X226425Y62609D01*
X226412Y62632D01*
X226404Y62658D01*
X226317Y62809D01*
X226233Y62963D01*
X226216Y62983D01*
X226203Y63007D01*
X225988Y63260D01*
X202960Y86288D01*
X202959Y86288D01*
X150383Y138865D01*
X150383Y153560D01*
X150381Y153587D01*
X150383Y153614D01*
X150361Y153787D01*
X150343Y153961D01*
X150336Y153987D01*
X150332Y154013D01*
X150276Y154179D01*
X150225Y154346D01*
X150212Y154370D01*
X150204Y154395D01*
X150117Y154546D01*
X150033Y154700D01*
X150016Y154721D01*
X150003Y154744D01*
X149788Y154997D01*
X147899Y156886D01*
X147899Y160614D01*
X150536Y163251D01*
X154264Y163251D01*
X156901Y160614D01*
X156901Y156886D01*
X155012Y154997D01*
X154995Y154976D01*
X154974Y154959D01*
X154867Y154821D01*
X154757Y154685D01*
X154744Y154662D01*
X154728Y154640D01*
X154650Y154484D01*
X154568Y154330D01*
X154560Y154304D01*
X154548Y154280D01*
X154503Y154111D01*
X154453Y153944D01*
X154451Y153917D01*
X154444Y153891D01*
X154417Y153560D01*
X154417Y141377D01*
X154419Y141350D01*
X154417Y141323D01*
X154439Y141150D01*
X154457Y140976D01*
X154464Y140951D01*
X154468Y140924D01*
X154523Y140758D01*
X154575Y140591D01*
X154588Y140568D01*
X154596Y140542D01*
X154683Y140391D01*
X154767Y140237D01*
X154784Y140217D01*
X154797Y140193D01*
X155012Y139940D01*
X195232Y99720D01*
X195239Y99715D01*
X195244Y99708D01*
X195394Y99588D01*
X195543Y99465D01*
X195551Y99461D01*
X195558Y99456D01*
X195729Y99367D01*
X195899Y99277D01*
X195907Y99274D01*
X195915Y99270D01*
X196101Y99217D01*
X196285Y99162D01*
X196294Y99161D01*
X196302Y99159D01*
X196494Y99143D01*
X196686Y99125D01*
X196695Y99126D01*
X196704Y99126D01*
X196893Y99148D01*
X197086Y99169D01*
X197095Y99172D01*
X197103Y99173D01*
X197285Y99232D01*
X197470Y99290D01*
X197478Y99295D01*
X197486Y99297D01*
X197655Y99393D01*
X197822Y99485D01*
X197829Y99491D01*
X197837Y99495D01*
X197983Y99621D01*
X198129Y99746D01*
X198135Y99753D01*
X198142Y99759D01*
X198259Y99910D01*
X198379Y100062D01*
X198383Y100070D01*
X198388Y100077D01*
X198474Y100249D01*
X198561Y100421D01*
X198564Y100429D01*
X198568Y100437D01*
X198618Y100624D01*
X198669Y100808D01*
X198670Y100817D01*
X198672Y100826D01*
X198699Y101157D01*
X198699Y103464D01*
X201336Y106101D01*
X205064Y106101D01*
X207701Y103464D01*
X207701Y99736D01*
X205812Y97847D01*
X205795Y97826D01*
X205774Y97808D01*
X205667Y97671D01*
X205557Y97535D01*
X205544Y97512D01*
X205528Y97490D01*
X205450Y97333D01*
X205368Y97179D01*
X205360Y97154D01*
X205348Y97130D01*
X205303Y96960D01*
X205253Y96794D01*
X205251Y96767D01*
X205244Y96741D01*
X205217Y96410D01*
X205217Y90577D01*
X205219Y90550D01*
X205217Y90523D01*
X205239Y90349D01*
X205257Y90176D01*
X205264Y90150D01*
X205268Y90124D01*
X205323Y89958D01*
X205375Y89791D01*
X205388Y89768D01*
X205396Y89742D01*
X205483Y89591D01*
X205567Y89437D01*
X205584Y89417D01*
X205597Y89393D01*
X205812Y89140D01*
X230617Y64335D01*
X230617Y56227D01*
X230619Y56205D01*
X230617Y56183D01*
X230639Y56006D01*
X230657Y55827D01*
X230663Y55805D01*
X230666Y55783D01*
X230722Y55613D01*
X230775Y55442D01*
X230785Y55422D01*
X230792Y55401D01*
X230881Y55245D01*
X230967Y55088D01*
X230981Y55071D01*
X230992Y55051D01*
X231110Y54916D01*
X231224Y54779D01*
X231242Y54765D01*
X231256Y54748D01*
X231398Y54638D01*
X231538Y54526D01*
X231558Y54516D01*
X231576Y54502D01*
X231871Y54351D01*
X234490Y53266D01*
X237416Y50340D01*
X238999Y46518D01*
X238999Y42382D01*
X237416Y38560D01*
X234490Y35634D01*
X231871Y34549D01*
X231851Y34539D01*
X231830Y34532D01*
X231673Y34443D01*
X231516Y34359D01*
X231499Y34345D01*
X231479Y34334D01*
X231343Y34217D01*
X231205Y34103D01*
X231191Y34085D01*
X231174Y34071D01*
X231065Y33929D01*
X230952Y33790D01*
X230941Y33770D01*
X230928Y33753D01*
X230848Y33592D01*
X230765Y33433D01*
X230758Y33412D01*
X230748Y33392D01*
X230702Y33218D01*
X230652Y33047D01*
X230650Y33025D01*
X230644Y33003D01*
X230617Y32673D01*
X230617Y30827D01*
X230619Y30805D01*
X230617Y30783D01*
X230639Y30606D01*
X230657Y30427D01*
X230663Y30405D01*
X230666Y30383D01*
X230722Y30213D01*
X230775Y30042D01*
X230785Y30022D01*
X230792Y30001D01*
X230881Y29845D01*
X230967Y29688D01*
X230981Y29671D01*
X230992Y29651D01*
X231110Y29516D01*
X231224Y29379D01*
X231242Y29365D01*
X231256Y29348D01*
X231398Y29238D01*
X231538Y29126D01*
X231558Y29116D01*
X231576Y29102D01*
X231871Y28951D01*
X234490Y27866D01*
X237416Y24940D01*
X238999Y21118D01*
X238999Y16982D01*
X237416Y13160D01*
X234490Y10234D01*
X230668Y8651D01*
X226532Y8651D01*
X222710Y10234D01*
X219784Y13160D01*
X219047Y14941D01*
X219045Y14945D01*
X219043Y14949D01*
X218950Y15122D01*
X218856Y15296D01*
X218854Y15299D01*
X218851Y15303D01*
X218726Y15454D01*
X218600Y15606D01*
X218597Y15609D01*
X218594Y15612D01*
X218440Y15736D01*
X218287Y15860D01*
X218283Y15862D01*
X218280Y15865D01*
X218104Y15956D01*
X217931Y16047D01*
X217927Y16048D01*
X217923Y16050D01*
X217730Y16106D01*
X217544Y16160D01*
X217540Y16160D01*
X217536Y16162D01*
X217338Y16178D01*
X217143Y16195D01*
X217139Y16194D01*
X217134Y16194D01*
X216936Y16171D01*
X216743Y16149D01*
X216739Y16148D01*
X216735Y16148D01*
X216545Y16086D01*
X216360Y16026D01*
X216356Y16024D01*
X216352Y16023D01*
X216179Y15925D01*
X216008Y15830D01*
X216005Y15827D01*
X216001Y15825D01*
X215853Y15697D01*
X215703Y15568D01*
X215700Y15564D01*
X215696Y15562D01*
X215577Y15408D01*
X215454Y15251D01*
X215452Y15247D01*
X215450Y15243D01*
X215362Y15067D01*
X215274Y14891D01*
X215272Y14887D01*
X215270Y14883D01*
X215218Y14687D01*
X215167Y14503D01*
X215167Y14498D01*
X215166Y14494D01*
X215139Y14163D01*
X215139Y9317D01*
X214966Y8671D01*
X214631Y8092D01*
X214158Y7619D01*
X213579Y7284D01*
X212933Y7111D01*
X205739Y7111D01*
G37*
%LPD*%
%LPC*%
G36*
X764796Y112069D02*
X764796Y112069D01*
X759769Y117096D01*
X759769Y124242D01*
X759855Y124346D01*
X759863Y124362D01*
X759874Y124376D01*
X759957Y124539D01*
X760043Y124702D01*
X760049Y124719D01*
X760057Y124735D01*
X760106Y124912D01*
X760158Y125088D01*
X760160Y125105D01*
X760165Y125123D01*
X760178Y125306D01*
X760195Y125489D01*
X760193Y125507D01*
X760194Y125524D01*
X760171Y125707D01*
X760151Y125889D01*
X760146Y125906D01*
X760144Y125924D01*
X760085Y126098D01*
X760030Y126273D01*
X760021Y126288D01*
X760015Y126305D01*
X759924Y126465D01*
X759835Y126625D01*
X759823Y126639D01*
X759814Y126654D01*
X759600Y126907D01*
X730115Y156392D01*
X728487Y158020D01*
X728487Y470630D01*
X748570Y490713D01*
X753327Y490713D01*
X753336Y490714D01*
X753345Y490713D01*
X753537Y490734D01*
X753728Y490753D01*
X753737Y490755D01*
X753745Y490756D01*
X753928Y490814D01*
X754113Y490871D01*
X754121Y490875D01*
X754129Y490878D01*
X754298Y490971D01*
X754467Y491063D01*
X754474Y491068D01*
X754482Y491073D01*
X754629Y491198D01*
X754776Y491320D01*
X754782Y491327D01*
X754789Y491333D01*
X754909Y491485D01*
X755029Y491634D01*
X755033Y491642D01*
X755038Y491649D01*
X755126Y491821D01*
X755214Y491991D01*
X755217Y492000D01*
X755221Y492008D01*
X755272Y492194D01*
X755325Y492378D01*
X755326Y492387D01*
X755329Y492396D01*
X755343Y492588D01*
X755358Y492780D01*
X755357Y492788D01*
X755358Y492797D01*
X755334Y492989D01*
X755311Y493179D01*
X755309Y493188D01*
X755308Y493197D01*
X755247Y493378D01*
X755187Y493562D01*
X755182Y493570D01*
X755179Y493578D01*
X755084Y493744D01*
X754989Y493913D01*
X754983Y493920D01*
X754978Y493927D01*
X754764Y494180D01*
X753184Y495760D01*
X751601Y499582D01*
X751601Y503718D01*
X753184Y507540D01*
X756110Y510466D01*
X759932Y512049D01*
X764068Y512049D01*
X767890Y510466D01*
X770816Y507540D01*
X772399Y503718D01*
X772399Y499582D01*
X770816Y495760D01*
X767890Y492834D01*
X764365Y491374D01*
X764068Y491251D01*
X761286Y491251D01*
X761259Y491249D01*
X761232Y491251D01*
X761058Y491229D01*
X760885Y491211D01*
X760859Y491204D01*
X760833Y491200D01*
X760667Y491145D01*
X760500Y491093D01*
X760476Y491080D01*
X760451Y491072D01*
X760299Y490985D01*
X760146Y490901D01*
X760125Y490884D01*
X760102Y490871D01*
X759849Y490656D01*
X756380Y487187D01*
X750872Y487187D01*
X750845Y487185D01*
X750818Y487187D01*
X750644Y487165D01*
X750471Y487147D01*
X750445Y487140D01*
X750419Y487136D01*
X750253Y487081D01*
X750086Y487029D01*
X750062Y487016D01*
X750037Y487008D01*
X749885Y486921D01*
X749732Y486837D01*
X749711Y486820D01*
X749688Y486807D01*
X749435Y486592D01*
X732608Y469765D01*
X732591Y469744D01*
X732570Y469727D01*
X732463Y469589D01*
X732353Y469453D01*
X732340Y469430D01*
X732324Y469409D01*
X732246Y469252D01*
X732164Y469098D01*
X732156Y469072D01*
X732144Y469048D01*
X732099Y468879D01*
X732049Y468712D01*
X732047Y468685D01*
X732040Y468659D01*
X732013Y468328D01*
X732013Y160322D01*
X732015Y160295D01*
X732013Y160268D01*
X732035Y160094D01*
X732053Y159921D01*
X732060Y159895D01*
X732064Y159869D01*
X732119Y159703D01*
X732171Y159536D01*
X732184Y159512D01*
X732192Y159487D01*
X732279Y159335D01*
X732363Y159182D01*
X732380Y159161D01*
X732393Y159138D01*
X732608Y158885D01*
X762093Y129400D01*
X762106Y129389D01*
X762118Y129375D01*
X762262Y129261D01*
X762404Y129145D01*
X762420Y129137D01*
X762434Y129126D01*
X762598Y129042D01*
X762760Y128957D01*
X762777Y128951D01*
X762793Y128943D01*
X762970Y128894D01*
X763146Y128842D01*
X763164Y128840D01*
X763181Y128835D01*
X763364Y128822D01*
X763547Y128805D01*
X763565Y128807D01*
X763582Y128806D01*
X763764Y128829D01*
X763947Y128849D01*
X763964Y128854D01*
X763982Y128856D01*
X764155Y128915D01*
X764331Y128970D01*
X764347Y128979D01*
X764363Y128985D01*
X764522Y129076D01*
X764683Y129165D01*
X764697Y129177D01*
X764712Y129186D01*
X764766Y129231D01*
X771904Y129231D01*
X776931Y124204D01*
X776931Y117096D01*
X771904Y112069D01*
X764796Y112069D01*
G37*
%LPD*%
%LPC*%
G36*
X328336Y262199D02*
X328336Y262199D01*
X325699Y264836D01*
X325699Y268564D01*
X328749Y271614D01*
X328760Y271627D01*
X328774Y271639D01*
X328888Y271783D01*
X329004Y271925D01*
X329012Y271941D01*
X329023Y271955D01*
X329107Y272119D01*
X329192Y272281D01*
X329197Y272298D01*
X329206Y272314D01*
X329255Y272491D01*
X329307Y272667D01*
X329309Y272685D01*
X329314Y272702D01*
X329327Y272885D01*
X329344Y273068D01*
X329342Y273086D01*
X329343Y273103D01*
X329320Y273285D01*
X329300Y273468D01*
X329295Y273485D01*
X329293Y273503D01*
X329234Y273676D01*
X329179Y273852D01*
X329170Y273868D01*
X329164Y273884D01*
X329072Y274044D01*
X328984Y274204D01*
X328972Y274218D01*
X328963Y274233D01*
X328749Y274486D01*
X325699Y277536D01*
X325699Y281264D01*
X328336Y283901D01*
X332064Y283901D01*
X333953Y282012D01*
X333974Y281995D01*
X333992Y281974D01*
X334129Y281867D01*
X334265Y281757D01*
X334288Y281744D01*
X334310Y281728D01*
X334467Y281650D01*
X334621Y281568D01*
X334646Y281560D01*
X334670Y281548D01*
X334840Y281503D01*
X335006Y281453D01*
X335033Y281451D01*
X335059Y281444D01*
X335390Y281417D01*
X337385Y281417D01*
X343140Y275662D01*
X343161Y275645D01*
X343179Y275624D01*
X343317Y275517D01*
X343452Y275407D01*
X343476Y275394D01*
X343497Y275378D01*
X343654Y275300D01*
X343808Y275218D01*
X343833Y275210D01*
X343857Y275198D01*
X344027Y275153D01*
X344194Y275103D01*
X344220Y275101D01*
X344246Y275094D01*
X344577Y275067D01*
X407560Y275067D01*
X407587Y275069D01*
X407614Y275067D01*
X407788Y275089D01*
X407961Y275107D01*
X407986Y275114D01*
X408013Y275118D01*
X408179Y275173D01*
X408346Y275225D01*
X408369Y275238D01*
X408395Y275246D01*
X408546Y275333D01*
X408700Y275417D01*
X408720Y275434D01*
X408744Y275447D01*
X408997Y275662D01*
X410886Y277551D01*
X414614Y277551D01*
X417251Y274914D01*
X417251Y270748D01*
X417253Y270730D01*
X417251Y270712D01*
X417272Y270530D01*
X417291Y270347D01*
X417296Y270330D01*
X417298Y270313D01*
X417355Y270138D01*
X417409Y269962D01*
X417417Y269947D01*
X417423Y269930D01*
X417513Y269770D01*
X417601Y269608D01*
X417612Y269595D01*
X417621Y269579D01*
X417741Y269440D01*
X417858Y269299D01*
X417872Y269288D01*
X417884Y269274D01*
X418029Y269162D01*
X418172Y269047D01*
X418188Y269039D01*
X418202Y269028D01*
X418367Y268946D01*
X418529Y268861D01*
X418546Y268856D01*
X418562Y268848D01*
X418741Y268801D01*
X418916Y268750D01*
X418934Y268748D01*
X418951Y268744D01*
X419282Y268717D01*
X420260Y268717D01*
X420287Y268719D01*
X420314Y268717D01*
X420488Y268739D01*
X420661Y268757D01*
X420686Y268764D01*
X420713Y268768D01*
X420879Y268823D01*
X421046Y268875D01*
X421069Y268888D01*
X421095Y268896D01*
X421246Y268983D01*
X421400Y269067D01*
X421420Y269084D01*
X421444Y269097D01*
X421697Y269312D01*
X423586Y271201D01*
X427314Y271201D01*
X429951Y268564D01*
X429951Y264836D01*
X427314Y262199D01*
X423586Y262199D01*
X421697Y264088D01*
X421676Y264105D01*
X421658Y264126D01*
X421521Y264233D01*
X421385Y264343D01*
X421362Y264356D01*
X421340Y264372D01*
X421183Y264450D01*
X421029Y264532D01*
X421004Y264540D01*
X420980Y264552D01*
X420810Y264597D01*
X420644Y264647D01*
X420617Y264649D01*
X420591Y264656D01*
X420260Y264683D01*
X335390Y264683D01*
X335363Y264681D01*
X335336Y264683D01*
X335162Y264661D01*
X334989Y264643D01*
X334964Y264636D01*
X334937Y264632D01*
X334771Y264577D01*
X334604Y264525D01*
X334581Y264512D01*
X334555Y264504D01*
X334404Y264417D01*
X334250Y264333D01*
X334230Y264316D01*
X334206Y264303D01*
X333953Y264088D01*
X332064Y262199D01*
X328336Y262199D01*
G37*
%LPD*%
%LPC*%
G36*
X205739Y489711D02*
X205739Y489711D01*
X205739Y501142D01*
X205737Y501160D01*
X205739Y501177D01*
X205718Y501360D01*
X205699Y501542D01*
X205694Y501559D01*
X205692Y501577D01*
X205667Y501655D01*
X205706Y501792D01*
X205708Y501810D01*
X205712Y501827D01*
X205739Y502158D01*
X205739Y526542D01*
X205737Y526560D01*
X205739Y526577D01*
X205718Y526760D01*
X205699Y526942D01*
X205694Y526959D01*
X205692Y526977D01*
X205667Y527055D01*
X205706Y527192D01*
X205708Y527210D01*
X205712Y527227D01*
X205739Y527558D01*
X205739Y538735D01*
X205996Y538695D01*
X207783Y538114D01*
X209457Y537261D01*
X210978Y536156D01*
X212306Y534828D01*
X213411Y533307D01*
X214264Y531633D01*
X214751Y530133D01*
X214787Y530052D01*
X214813Y529967D01*
X214868Y529868D01*
X214913Y529765D01*
X214964Y529692D01*
X215007Y529614D01*
X215079Y529528D01*
X215144Y529435D01*
X215209Y529374D01*
X215266Y529306D01*
X215354Y529236D01*
X215436Y529158D01*
X215511Y529110D01*
X215581Y529055D01*
X215681Y529003D01*
X215777Y528943D01*
X215860Y528912D01*
X215939Y528871D01*
X216047Y528840D01*
X216153Y528800D01*
X216241Y528786D01*
X216326Y528761D01*
X216439Y528753D01*
X216550Y528734D01*
X216639Y528737D01*
X216728Y528730D01*
X216840Y528744D01*
X216953Y528748D01*
X217039Y528768D01*
X217127Y528779D01*
X217234Y528814D01*
X217344Y528841D01*
X217425Y528878D01*
X217509Y528906D01*
X217608Y528961D01*
X217710Y529009D01*
X217782Y529061D01*
X217859Y529105D01*
X217944Y529179D01*
X218036Y529246D01*
X218096Y529311D01*
X218163Y529369D01*
X218231Y529459D01*
X218308Y529542D01*
X218354Y529618D01*
X218408Y529689D01*
X218473Y529814D01*
X218517Y529887D01*
X218532Y529930D01*
X218560Y529984D01*
X219784Y532940D01*
X222710Y535866D01*
X223945Y536377D01*
X223945Y536378D01*
X226532Y537449D01*
X230668Y537449D01*
X234490Y535866D01*
X237416Y532940D01*
X238999Y529118D01*
X238999Y524982D01*
X237416Y521160D01*
X234490Y518234D01*
X233394Y517780D01*
X230668Y516651D01*
X226532Y516651D01*
X222710Y518234D01*
X219784Y521160D01*
X218560Y524116D01*
X218518Y524194D01*
X218485Y524277D01*
X218423Y524372D01*
X218370Y524471D01*
X218313Y524540D01*
X218264Y524614D01*
X218185Y524694D01*
X218113Y524781D01*
X218044Y524837D01*
X217982Y524901D01*
X217888Y524964D01*
X217800Y525035D01*
X217722Y525076D01*
X217648Y525126D01*
X217544Y525170D01*
X217444Y525222D01*
X217359Y525247D01*
X217277Y525281D01*
X217166Y525304D01*
X217058Y525335D01*
X216969Y525343D01*
X216882Y525360D01*
X216769Y525360D01*
X216656Y525370D01*
X216568Y525360D01*
X216479Y525360D01*
X216369Y525337D01*
X216256Y525325D01*
X216172Y525298D01*
X216085Y525280D01*
X215981Y525236D01*
X215873Y525202D01*
X215796Y525158D01*
X215714Y525124D01*
X215620Y525060D01*
X215522Y525005D01*
X215454Y524948D01*
X215381Y524898D01*
X215302Y524817D01*
X215216Y524743D01*
X215161Y524673D01*
X215099Y524610D01*
X215037Y524516D01*
X214967Y524426D01*
X214928Y524347D01*
X214879Y524273D01*
X214825Y524142D01*
X214787Y524067D01*
X214775Y524022D01*
X214751Y523967D01*
X214264Y522467D01*
X213411Y520793D01*
X212306Y519272D01*
X210978Y517944D01*
X210041Y517263D01*
X209915Y517151D01*
X209786Y517044D01*
X209765Y517018D01*
X209740Y516996D01*
X209639Y516861D01*
X209534Y516730D01*
X209519Y516700D01*
X209499Y516674D01*
X209426Y516522D01*
X209348Y516373D01*
X209339Y516341D01*
X209325Y516311D01*
X209284Y516148D01*
X209237Y515986D01*
X209234Y515952D01*
X209226Y515920D01*
X209218Y515752D01*
X209204Y515584D01*
X209208Y515551D01*
X209206Y515518D01*
X209231Y515352D01*
X209251Y515185D01*
X209261Y515153D01*
X209266Y515120D01*
X209324Y514962D01*
X209376Y514802D01*
X209392Y514773D01*
X209404Y514741D01*
X209491Y514598D01*
X209574Y514451D01*
X209596Y514426D01*
X209613Y514397D01*
X209727Y514274D01*
X209837Y514146D01*
X209863Y514126D01*
X209886Y514102D01*
X210023Y514002D01*
X210155Y513900D01*
X210185Y513885D01*
X210212Y513865D01*
X210365Y513795D01*
X210516Y513720D01*
X210548Y513712D01*
X210578Y513698D01*
X210742Y513660D01*
X210904Y513616D01*
X210942Y513613D01*
X210970Y513606D01*
X211056Y513603D01*
X211235Y513589D01*
X212933Y513589D01*
X213579Y513416D01*
X214158Y513081D01*
X214631Y512608D01*
X214966Y512029D01*
X215139Y511383D01*
X215139Y506537D01*
X215139Y506532D01*
X215139Y506528D01*
X215159Y506334D01*
X215179Y506136D01*
X215180Y506132D01*
X215180Y506127D01*
X215239Y505939D01*
X215297Y505751D01*
X215299Y505747D01*
X215300Y505743D01*
X215396Y505568D01*
X215489Y505397D01*
X215491Y505394D01*
X215494Y505390D01*
X215622Y505237D01*
X215746Y505088D01*
X215750Y505085D01*
X215753Y505081D01*
X215909Y504957D01*
X216060Y504835D01*
X216064Y504833D01*
X216067Y504831D01*
X216248Y504738D01*
X216417Y504650D01*
X216422Y504649D01*
X216426Y504647D01*
X216615Y504593D01*
X216804Y504538D01*
X216809Y504538D01*
X216813Y504537D01*
X217005Y504522D01*
X217206Y504506D01*
X217210Y504506D01*
X217214Y504506D01*
X217408Y504529D01*
X217605Y504553D01*
X217610Y504554D01*
X217614Y504554D01*
X217799Y504616D01*
X217988Y504677D01*
X217992Y504680D01*
X217996Y504681D01*
X218165Y504777D01*
X218339Y504875D01*
X218342Y504878D01*
X218346Y504880D01*
X218493Y505008D01*
X218643Y505138D01*
X218646Y505142D01*
X218650Y505145D01*
X218770Y505302D01*
X218890Y505457D01*
X218892Y505460D01*
X218895Y505464D01*
X219047Y505759D01*
X219784Y507540D01*
X222710Y510466D01*
X226532Y512049D01*
X230668Y512049D01*
X234490Y510466D01*
X237416Y507540D01*
X238999Y503718D01*
X238999Y499582D01*
X237416Y495760D01*
X234490Y492834D01*
X230965Y491374D01*
X230668Y491251D01*
X226532Y491251D01*
X222710Y492834D01*
X219784Y495760D01*
X219047Y497541D01*
X219045Y497545D01*
X219043Y497549D01*
X218950Y497722D01*
X218856Y497896D01*
X218854Y497899D01*
X218851Y497903D01*
X218726Y498054D01*
X218600Y498206D01*
X218597Y498209D01*
X218594Y498212D01*
X218440Y498336D01*
X218287Y498460D01*
X218283Y498462D01*
X218280Y498465D01*
X218104Y498556D01*
X217931Y498647D01*
X217927Y498648D01*
X217923Y498650D01*
X217730Y498706D01*
X217544Y498760D01*
X217540Y498760D01*
X217536Y498762D01*
X217338Y498778D01*
X217143Y498795D01*
X217139Y498794D01*
X217134Y498794D01*
X216936Y498771D01*
X216743Y498749D01*
X216739Y498748D01*
X216735Y498748D01*
X216545Y498686D01*
X216360Y498626D01*
X216356Y498624D01*
X216352Y498623D01*
X216179Y498525D01*
X216008Y498430D01*
X216005Y498427D01*
X216001Y498425D01*
X215853Y498297D01*
X215703Y498168D01*
X215700Y498164D01*
X215696Y498162D01*
X215577Y498008D01*
X215454Y497851D01*
X215452Y497847D01*
X215450Y497843D01*
X215361Y497666D01*
X215274Y497491D01*
X215272Y497487D01*
X215270Y497483D01*
X215219Y497291D01*
X215167Y497103D01*
X215167Y497098D01*
X215166Y497094D01*
X215139Y496763D01*
X215139Y491917D01*
X214966Y491271D01*
X214631Y490692D01*
X214158Y490219D01*
X213579Y489884D01*
X212933Y489711D01*
X205739Y489711D01*
G37*
%LPD*%
%LPC*%
G36*
X821475Y411735D02*
X821475Y411735D01*
X815742Y416896D01*
X812605Y423943D01*
X812605Y431657D01*
X815742Y438704D01*
X821475Y443865D01*
X828811Y446249D01*
X836483Y445443D01*
X843163Y441586D01*
X847697Y435345D01*
X849301Y427800D01*
X847697Y420255D01*
X843163Y414014D01*
X836483Y410157D01*
X828811Y409351D01*
X821475Y411735D01*
G37*
%LPD*%
%LPC*%
G36*
X821475Y169735D02*
X821475Y169735D01*
X815742Y174896D01*
X812605Y181943D01*
X812605Y189657D01*
X815742Y196704D01*
X821475Y201865D01*
X828811Y204249D01*
X836483Y203443D01*
X843163Y199586D01*
X847697Y193345D01*
X849301Y185800D01*
X847697Y178255D01*
X843163Y172014D01*
X836483Y168157D01*
X828811Y167351D01*
X821475Y169735D01*
G37*
%LPD*%
%LPC*%
G36*
X733804Y7405D02*
X733804Y7405D01*
X732017Y7986D01*
X730343Y8839D01*
X728822Y9944D01*
X727494Y11272D01*
X726389Y12793D01*
X725536Y14467D01*
X725049Y15967D01*
X725013Y16048D01*
X724987Y16133D01*
X724932Y16232D01*
X724887Y16335D01*
X724836Y16408D01*
X724793Y16486D01*
X724721Y16572D01*
X724656Y16665D01*
X724591Y16726D01*
X724534Y16794D01*
X724446Y16864D01*
X724364Y16942D01*
X724289Y16990D01*
X724219Y17045D01*
X724119Y17097D01*
X724023Y17157D01*
X723940Y17188D01*
X723861Y17229D01*
X723753Y17260D01*
X723647Y17300D01*
X723559Y17314D01*
X723474Y17339D01*
X723361Y17347D01*
X723250Y17366D01*
X723161Y17363D01*
X723072Y17370D01*
X722960Y17356D01*
X722847Y17352D01*
X722761Y17332D01*
X722673Y17321D01*
X722566Y17286D01*
X722456Y17259D01*
X722375Y17222D01*
X722291Y17194D01*
X722192Y17139D01*
X722090Y17091D01*
X722018Y17039D01*
X721941Y16995D01*
X721856Y16921D01*
X721764Y16854D01*
X721704Y16789D01*
X721637Y16731D01*
X721569Y16641D01*
X721492Y16558D01*
X721446Y16482D01*
X721392Y16411D01*
X721327Y16286D01*
X721283Y16213D01*
X721268Y16170D01*
X721240Y16116D01*
X720016Y13160D01*
X717090Y10234D01*
X713268Y8651D01*
X709132Y8651D01*
X705310Y10234D01*
X702384Y13160D01*
X700801Y16982D01*
X700801Y21118D01*
X702384Y24940D01*
X705310Y27866D01*
X709132Y29449D01*
X713268Y29449D01*
X717090Y27866D01*
X720016Y24940D01*
X721240Y21984D01*
X721282Y21906D01*
X721315Y21823D01*
X721377Y21728D01*
X721430Y21629D01*
X721487Y21560D01*
X721536Y21486D01*
X721615Y21406D01*
X721687Y21319D01*
X721756Y21263D01*
X721818Y21199D01*
X721912Y21136D01*
X722000Y21065D01*
X722078Y21024D01*
X722152Y20974D01*
X722256Y20930D01*
X722356Y20878D01*
X722441Y20853D01*
X722523Y20819D01*
X722634Y20796D01*
X722742Y20765D01*
X722831Y20757D01*
X722918Y20740D01*
X723031Y20740D01*
X723144Y20730D01*
X723232Y20740D01*
X723321Y20740D01*
X723431Y20763D01*
X723544Y20775D01*
X723628Y20802D01*
X723715Y20820D01*
X723819Y20864D01*
X723927Y20898D01*
X724004Y20942D01*
X724086Y20976D01*
X724180Y21040D01*
X724278Y21095D01*
X724346Y21152D01*
X724419Y21202D01*
X724498Y21283D01*
X724584Y21357D01*
X724639Y21427D01*
X724701Y21490D01*
X724763Y21584D01*
X724833Y21674D01*
X724872Y21753D01*
X724921Y21827D01*
X724975Y21958D01*
X725013Y22033D01*
X725025Y22078D01*
X725049Y22133D01*
X725536Y23633D01*
X726389Y25307D01*
X727494Y26828D01*
X728822Y28156D01*
X730343Y29261D01*
X731676Y29940D01*
X731719Y29968D01*
X731766Y29989D01*
X731888Y30076D01*
X732015Y30158D01*
X732051Y30193D01*
X732093Y30223D01*
X732196Y30333D01*
X732304Y30438D01*
X732333Y30480D01*
X732368Y30517D01*
X732447Y30645D01*
X732532Y30769D01*
X732553Y30816D01*
X732579Y30860D01*
X732632Y31001D01*
X732691Y31139D01*
X732701Y31189D01*
X732719Y31237D01*
X732743Y31386D01*
X732773Y31533D01*
X732774Y31584D01*
X732782Y31635D01*
X732775Y31786D01*
X732776Y31936D01*
X732767Y31986D01*
X732765Y32037D01*
X732729Y32183D01*
X732700Y32331D01*
X732681Y32379D01*
X732668Y32428D01*
X732604Y32564D01*
X732547Y32704D01*
X732519Y32746D01*
X732497Y32793D01*
X732407Y32913D01*
X732324Y33039D01*
X732288Y33075D01*
X732257Y33116D01*
X732145Y33217D01*
X732039Y33323D01*
X731996Y33351D01*
X731958Y33386D01*
X731761Y33507D01*
X731703Y33546D01*
X731691Y33551D01*
X731676Y33560D01*
X730343Y34239D01*
X728822Y35344D01*
X727494Y36672D01*
X726389Y38193D01*
X725536Y39867D01*
X725049Y41367D01*
X725013Y41448D01*
X724987Y41533D01*
X724932Y41632D01*
X724887Y41735D01*
X724836Y41808D01*
X724793Y41886D01*
X724721Y41972D01*
X724656Y42065D01*
X724591Y42126D01*
X724534Y42194D01*
X724446Y42264D01*
X724364Y42342D01*
X724289Y42390D01*
X724219Y42445D01*
X724119Y42497D01*
X724023Y42557D01*
X723940Y42588D01*
X723861Y42629D01*
X723753Y42660D01*
X723647Y42700D01*
X723559Y42714D01*
X723474Y42739D01*
X723361Y42747D01*
X723250Y42766D01*
X723161Y42763D01*
X723072Y42770D01*
X722960Y42756D01*
X722847Y42752D01*
X722761Y42732D01*
X722673Y42721D01*
X722566Y42686D01*
X722456Y42659D01*
X722375Y42622D01*
X722291Y42594D01*
X722192Y42538D01*
X722090Y42491D01*
X722018Y42439D01*
X721941Y42395D01*
X721856Y42321D01*
X721764Y42254D01*
X721704Y42189D01*
X721637Y42131D01*
X721568Y42041D01*
X721492Y41958D01*
X721446Y41882D01*
X721392Y41811D01*
X721327Y41686D01*
X721283Y41613D01*
X721268Y41570D01*
X721240Y41516D01*
X720016Y38560D01*
X717090Y35634D01*
X713972Y34343D01*
X713268Y34051D01*
X709132Y34051D01*
X705310Y35634D01*
X702384Y38560D01*
X700801Y42382D01*
X700801Y46518D01*
X702384Y50340D01*
X705310Y53266D01*
X709132Y54849D01*
X713268Y54849D01*
X717090Y53266D01*
X720016Y50340D01*
X721240Y47384D01*
X721282Y47306D01*
X721315Y47223D01*
X721377Y47129D01*
X721430Y47029D01*
X721487Y46960D01*
X721536Y46886D01*
X721615Y46806D01*
X721687Y46719D01*
X721756Y46663D01*
X721818Y46599D01*
X721912Y46536D01*
X722000Y46465D01*
X722078Y46424D01*
X722152Y46374D01*
X722256Y46330D01*
X722356Y46278D01*
X722441Y46253D01*
X722523Y46219D01*
X722634Y46196D01*
X722742Y46165D01*
X722831Y46157D01*
X722918Y46140D01*
X723031Y46140D01*
X723144Y46130D01*
X723232Y46140D01*
X723321Y46140D01*
X723432Y46163D01*
X723544Y46175D01*
X723628Y46202D01*
X723715Y46220D01*
X723819Y46264D01*
X723927Y46298D01*
X724004Y46342D01*
X724086Y46376D01*
X724180Y46440D01*
X724278Y46495D01*
X724346Y46552D01*
X724419Y46602D01*
X724498Y46683D01*
X724584Y46757D01*
X724639Y46826D01*
X724701Y46890D01*
X724763Y46985D01*
X724833Y47074D01*
X724872Y47153D01*
X724921Y47227D01*
X724975Y47358D01*
X725013Y47433D01*
X725025Y47478D01*
X725049Y47533D01*
X725536Y49033D01*
X726389Y50707D01*
X727494Y52228D01*
X728822Y53556D01*
X730343Y54661D01*
X732017Y55514D01*
X733804Y56095D01*
X734061Y56135D01*
X734061Y44958D01*
X734062Y44940D01*
X734061Y44923D01*
X734082Y44740D01*
X734101Y44558D01*
X734106Y44541D01*
X734108Y44523D01*
X734133Y44445D01*
X734094Y44308D01*
X734092Y44290D01*
X734088Y44273D01*
X734061Y43942D01*
X734061Y19558D01*
X734062Y19540D01*
X734061Y19523D01*
X734082Y19340D01*
X734101Y19158D01*
X734106Y19141D01*
X734108Y19123D01*
X734133Y19045D01*
X734094Y18908D01*
X734092Y18890D01*
X734088Y18873D01*
X734061Y18542D01*
X734061Y7365D01*
X733804Y7405D01*
G37*
%LPD*%
%LPC*%
G36*
X142494Y13874D02*
X142494Y13874D01*
X135924Y16596D01*
X130896Y21624D01*
X128174Y28194D01*
X128174Y35306D01*
X130896Y41876D01*
X135924Y46904D01*
X142494Y49626D01*
X149606Y49626D01*
X156176Y46904D01*
X161204Y41876D01*
X163926Y35306D01*
X163926Y28194D01*
X161204Y21624D01*
X156176Y16596D01*
X149606Y13874D01*
X142494Y13874D01*
G37*
%LPD*%
%LPC*%
G36*
X802894Y464724D02*
X802894Y464724D01*
X796324Y467446D01*
X791296Y472474D01*
X788574Y479044D01*
X788574Y486156D01*
X791296Y492726D01*
X796324Y497754D01*
X802894Y500476D01*
X810006Y500476D01*
X816576Y497754D01*
X821604Y492726D01*
X824326Y486156D01*
X824326Y479044D01*
X821604Y472474D01*
X816576Y467446D01*
X810006Y464724D01*
X802894Y464724D01*
G37*
%LPD*%
%LPC*%
G36*
X142494Y496474D02*
X142494Y496474D01*
X135924Y499196D01*
X130896Y504224D01*
X128174Y510794D01*
X128174Y517906D01*
X130896Y524476D01*
X135924Y529504D01*
X142494Y532226D01*
X149606Y532226D01*
X156176Y529504D01*
X161204Y524476D01*
X163926Y517906D01*
X163926Y510794D01*
X161204Y504224D01*
X156176Y499196D01*
X149606Y496474D01*
X142494Y496474D01*
G37*
%LPD*%
%LPC*%
G36*
X802894Y45624D02*
X802894Y45624D01*
X796324Y48346D01*
X791296Y53374D01*
X788574Y59944D01*
X788574Y67056D01*
X791296Y73626D01*
X796324Y78654D01*
X802894Y81376D01*
X810006Y81376D01*
X816576Y78654D01*
X821604Y73626D01*
X824326Y67056D01*
X824326Y59944D01*
X821604Y53374D01*
X816576Y48346D01*
X812193Y46530D01*
X810006Y45624D01*
X802894Y45624D01*
G37*
%LPD*%
%LPC*%
G36*
X505932Y34051D02*
X505932Y34051D01*
X502110Y35634D01*
X499184Y38560D01*
X497601Y42382D01*
X497601Y46518D01*
X499184Y50340D01*
X502110Y53266D01*
X504729Y54351D01*
X504749Y54361D01*
X504770Y54368D01*
X504927Y54457D01*
X505084Y54541D01*
X505101Y54555D01*
X505121Y54566D01*
X505257Y54683D01*
X505395Y54797D01*
X505409Y54815D01*
X505426Y54829D01*
X505535Y54971D01*
X505648Y55110D01*
X505659Y55130D01*
X505672Y55147D01*
X505752Y55308D01*
X505835Y55467D01*
X505842Y55488D01*
X505852Y55508D01*
X505898Y55682D01*
X505948Y55853D01*
X505950Y55875D01*
X505956Y55897D01*
X505983Y56227D01*
X505983Y134510D01*
X505981Y134537D01*
X505983Y134564D01*
X505961Y134738D01*
X505943Y134911D01*
X505936Y134936D01*
X505932Y134963D01*
X505877Y135129D01*
X505825Y135296D01*
X505812Y135319D01*
X505804Y135345D01*
X505717Y135496D01*
X505633Y135650D01*
X505616Y135670D01*
X505603Y135694D01*
X505388Y135947D01*
X503499Y137836D01*
X503499Y141564D01*
X506136Y144201D01*
X509864Y144201D01*
X512501Y141564D01*
X512501Y137836D01*
X510612Y135947D01*
X510595Y135926D01*
X510574Y135908D01*
X510467Y135771D01*
X510357Y135635D01*
X510344Y135612D01*
X510328Y135590D01*
X510250Y135433D01*
X510168Y135279D01*
X510160Y135254D01*
X510148Y135230D01*
X510103Y135060D01*
X510053Y134894D01*
X510051Y134867D01*
X510044Y134841D01*
X510017Y134510D01*
X510017Y56227D01*
X510019Y56205D01*
X510017Y56183D01*
X510039Y56006D01*
X510057Y55827D01*
X510063Y55805D01*
X510066Y55783D01*
X510122Y55613D01*
X510175Y55442D01*
X510185Y55422D01*
X510192Y55401D01*
X510281Y55245D01*
X510367Y55088D01*
X510381Y55071D01*
X510392Y55051D01*
X510510Y54916D01*
X510624Y54779D01*
X510642Y54765D01*
X510656Y54748D01*
X510798Y54638D01*
X510938Y54526D01*
X510958Y54516D01*
X510976Y54502D01*
X511271Y54351D01*
X513890Y53266D01*
X516816Y50340D01*
X518399Y46518D01*
X518399Y42382D01*
X516816Y38560D01*
X513890Y35634D01*
X510772Y34343D01*
X510068Y34051D01*
X505932Y34051D01*
G37*
%LPD*%
%LPC*%
G36*
X480532Y34051D02*
X480532Y34051D01*
X476710Y35634D01*
X473784Y38560D01*
X472201Y42382D01*
X472201Y46518D01*
X473784Y50340D01*
X476710Y53266D01*
X479329Y54351D01*
X479349Y54361D01*
X479370Y54368D01*
X479527Y54457D01*
X479684Y54541D01*
X479701Y54555D01*
X479721Y54566D01*
X479857Y54683D01*
X479995Y54797D01*
X480009Y54815D01*
X480026Y54829D01*
X480135Y54971D01*
X480248Y55110D01*
X480259Y55130D01*
X480272Y55147D01*
X480352Y55308D01*
X480435Y55467D01*
X480442Y55488D01*
X480452Y55508D01*
X480498Y55682D01*
X480548Y55853D01*
X480550Y55875D01*
X480556Y55897D01*
X480583Y56227D01*
X480583Y134510D01*
X480581Y134537D01*
X480583Y134564D01*
X480561Y134738D01*
X480543Y134911D01*
X480536Y134936D01*
X480532Y134963D01*
X480477Y135129D01*
X480425Y135296D01*
X480412Y135319D01*
X480404Y135345D01*
X480317Y135496D01*
X480233Y135650D01*
X480216Y135670D01*
X480203Y135694D01*
X479988Y135947D01*
X478099Y137836D01*
X478099Y141564D01*
X480736Y144201D01*
X484464Y144201D01*
X487101Y141564D01*
X487101Y137836D01*
X485212Y135947D01*
X485195Y135926D01*
X485174Y135908D01*
X485067Y135771D01*
X484957Y135635D01*
X484944Y135612D01*
X484928Y135590D01*
X484850Y135433D01*
X484768Y135279D01*
X484760Y135254D01*
X484748Y135230D01*
X484703Y135060D01*
X484653Y134894D01*
X484651Y134867D01*
X484644Y134841D01*
X484617Y134510D01*
X484617Y56227D01*
X484619Y56205D01*
X484617Y56183D01*
X484639Y56006D01*
X484657Y55827D01*
X484663Y55805D01*
X484666Y55783D01*
X484722Y55613D01*
X484775Y55442D01*
X484785Y55422D01*
X484792Y55401D01*
X484881Y55245D01*
X484967Y55088D01*
X484981Y55071D01*
X484992Y55051D01*
X485110Y54916D01*
X485224Y54779D01*
X485242Y54765D01*
X485256Y54748D01*
X485398Y54638D01*
X485538Y54526D01*
X485558Y54516D01*
X485576Y54502D01*
X485871Y54351D01*
X488490Y53266D01*
X491416Y50340D01*
X492999Y46518D01*
X492999Y42382D01*
X491416Y38560D01*
X488490Y35634D01*
X485372Y34343D01*
X484668Y34051D01*
X480532Y34051D01*
G37*
%LPD*%
%LPC*%
G36*
X739139Y21589D02*
X739139Y21589D01*
X739139Y41911D01*
X759461Y41911D01*
X759461Y21589D01*
X739139Y21589D01*
G37*
%LPD*%
%LPC*%
G36*
X429732Y8651D02*
X429732Y8651D01*
X425910Y10234D01*
X422984Y13160D01*
X421401Y16982D01*
X421401Y21118D01*
X422984Y24940D01*
X425910Y27866D01*
X429732Y29449D01*
X433868Y29449D01*
X437690Y27866D01*
X440616Y24940D01*
X442199Y21118D01*
X442199Y16982D01*
X440616Y13160D01*
X437690Y10234D01*
X433868Y8651D01*
X429732Y8651D01*
G37*
%LPD*%
%LPC*%
G36*
X607532Y8651D02*
X607532Y8651D01*
X603710Y10234D01*
X600784Y13160D01*
X599201Y16982D01*
X599201Y21118D01*
X600784Y24940D01*
X603710Y27866D01*
X607532Y29449D01*
X611668Y29449D01*
X615490Y27866D01*
X618416Y24940D01*
X619999Y21118D01*
X619999Y16982D01*
X618416Y13160D01*
X615490Y10234D01*
X611668Y8651D01*
X607532Y8651D01*
G37*
%LPD*%
%LPC*%
G36*
X632932Y8651D02*
X632932Y8651D01*
X629110Y10234D01*
X626184Y13160D01*
X624601Y16982D01*
X624601Y21118D01*
X626184Y24940D01*
X629110Y27866D01*
X632932Y29449D01*
X637068Y29449D01*
X640890Y27866D01*
X643816Y24940D01*
X645399Y21118D01*
X645399Y16982D01*
X643816Y13160D01*
X640890Y10234D01*
X637068Y8651D01*
X632932Y8651D01*
G37*
%LPD*%
%LPC*%
G36*
X658332Y8651D02*
X658332Y8651D01*
X654510Y10234D01*
X651584Y13160D01*
X650001Y16982D01*
X650001Y21118D01*
X651584Y24940D01*
X654510Y27866D01*
X658332Y29449D01*
X662468Y29449D01*
X666290Y27866D01*
X669216Y24940D01*
X670799Y21118D01*
X670799Y16982D01*
X669216Y13160D01*
X666290Y10234D01*
X662468Y8651D01*
X658332Y8651D01*
G37*
%LPD*%
%LPC*%
G36*
X683732Y8651D02*
X683732Y8651D01*
X679910Y10234D01*
X676984Y13160D01*
X675401Y16982D01*
X675401Y21118D01*
X676984Y24940D01*
X679910Y27866D01*
X683732Y29449D01*
X687868Y29449D01*
X691690Y27866D01*
X694616Y24940D01*
X696199Y21118D01*
X696199Y16982D01*
X694616Y13160D01*
X691690Y10234D01*
X687868Y8651D01*
X683732Y8651D01*
G37*
%LPD*%
%LPC*%
G36*
X378932Y8651D02*
X378932Y8651D01*
X375110Y10234D01*
X372184Y13160D01*
X370601Y16982D01*
X370601Y21118D01*
X372184Y24940D01*
X375110Y27866D01*
X378932Y29449D01*
X383068Y29449D01*
X386890Y27866D01*
X389816Y24940D01*
X391399Y21118D01*
X391399Y16982D01*
X389816Y13160D01*
X386890Y10234D01*
X383068Y8651D01*
X378932Y8651D01*
G37*
%LPD*%
%LPC*%
G36*
X404332Y8651D02*
X404332Y8651D01*
X400510Y10234D01*
X397584Y13160D01*
X396001Y16982D01*
X396001Y21118D01*
X397584Y24940D01*
X400510Y27866D01*
X404332Y29449D01*
X408468Y29449D01*
X412290Y27866D01*
X415216Y24940D01*
X416799Y21118D01*
X416799Y16982D01*
X415216Y13160D01*
X412290Y10234D01*
X408468Y8651D01*
X404332Y8651D01*
G37*
%LPD*%
%LPC*%
G36*
X531332Y8651D02*
X531332Y8651D01*
X527510Y10234D01*
X524584Y13160D01*
X523001Y16982D01*
X523001Y21118D01*
X524584Y24940D01*
X527510Y27866D01*
X531332Y29449D01*
X535468Y29449D01*
X539290Y27866D01*
X542216Y24940D01*
X543799Y21118D01*
X543799Y16982D01*
X542216Y13160D01*
X539290Y10234D01*
X535468Y8651D01*
X531332Y8651D01*
G37*
%LPD*%
%LPC*%
G36*
X505932Y8651D02*
X505932Y8651D01*
X502110Y10234D01*
X499184Y13160D01*
X497601Y16982D01*
X497601Y21118D01*
X499184Y24940D01*
X502110Y27866D01*
X505932Y29449D01*
X510068Y29449D01*
X513890Y27866D01*
X516816Y24940D01*
X518399Y21118D01*
X518399Y16982D01*
X516816Y13160D01*
X513890Y10234D01*
X510068Y8651D01*
X505932Y8651D01*
G37*
%LPD*%
%LPC*%
G36*
X455132Y8651D02*
X455132Y8651D01*
X451310Y10234D01*
X448384Y13160D01*
X446801Y16982D01*
X446801Y21118D01*
X448384Y24940D01*
X451310Y27866D01*
X455132Y29449D01*
X459268Y29449D01*
X463090Y27866D01*
X466016Y24940D01*
X467599Y21118D01*
X467599Y16982D01*
X466016Y13160D01*
X463090Y10234D01*
X459268Y8651D01*
X455132Y8651D01*
G37*
%LPD*%
%LPC*%
G36*
X480532Y8651D02*
X480532Y8651D01*
X476710Y10234D01*
X473784Y13160D01*
X472201Y16982D01*
X472201Y21118D01*
X473784Y24940D01*
X476710Y27866D01*
X480532Y29449D01*
X484668Y29449D01*
X488490Y27866D01*
X491416Y24940D01*
X492999Y21118D01*
X492999Y16982D01*
X491416Y13160D01*
X488490Y10234D01*
X484668Y8651D01*
X480532Y8651D01*
G37*
%LPD*%
%LPC*%
G36*
X302732Y8651D02*
X302732Y8651D01*
X298910Y10234D01*
X295984Y13160D01*
X294401Y16982D01*
X294401Y21118D01*
X295984Y24940D01*
X298910Y27866D01*
X302732Y29449D01*
X306868Y29449D01*
X310690Y27866D01*
X313616Y24940D01*
X315199Y21118D01*
X315199Y16982D01*
X313616Y13160D01*
X310690Y10234D01*
X306868Y8651D01*
X302732Y8651D01*
G37*
%LPD*%
%LPC*%
G36*
X277332Y8651D02*
X277332Y8651D01*
X273510Y10234D01*
X270584Y13160D01*
X269001Y16982D01*
X269001Y21118D01*
X270584Y24940D01*
X273510Y27866D01*
X277332Y29449D01*
X281468Y29449D01*
X285290Y27866D01*
X288216Y24940D01*
X289799Y21118D01*
X289799Y16982D01*
X288216Y13160D01*
X285290Y10234D01*
X281468Y8651D01*
X277332Y8651D01*
G37*
%LPD*%
%LPC*%
G36*
X505932Y516651D02*
X505932Y516651D01*
X502110Y518234D01*
X499184Y521160D01*
X497601Y524982D01*
X497601Y529118D01*
X499184Y532940D01*
X502110Y535866D01*
X503345Y536377D01*
X503345Y536378D01*
X505932Y537449D01*
X510068Y537449D01*
X513890Y535866D01*
X516816Y532940D01*
X518399Y529118D01*
X518399Y524982D01*
X516816Y521160D01*
X513890Y518234D01*
X512794Y517780D01*
X510068Y516651D01*
X505932Y516651D01*
G37*
%LPD*%
%LPC*%
G36*
X455132Y516651D02*
X455132Y516651D01*
X451310Y518234D01*
X448384Y521160D01*
X446801Y524982D01*
X446801Y529118D01*
X448384Y532940D01*
X451310Y535866D01*
X452545Y536377D01*
X452545Y536378D01*
X455132Y537449D01*
X459268Y537449D01*
X463090Y535866D01*
X466016Y532940D01*
X467599Y529118D01*
X467599Y524982D01*
X466016Y521160D01*
X463090Y518234D01*
X461994Y517780D01*
X459268Y516651D01*
X455132Y516651D01*
G37*
%LPD*%
%LPC*%
G36*
X429732Y516651D02*
X429732Y516651D01*
X425910Y518234D01*
X422984Y521160D01*
X421401Y524982D01*
X421401Y529118D01*
X422984Y532940D01*
X425910Y535866D01*
X427145Y536377D01*
X427145Y536378D01*
X429732Y537449D01*
X433868Y537449D01*
X437690Y535866D01*
X440616Y532940D01*
X442199Y529118D01*
X442199Y524982D01*
X440616Y521160D01*
X437690Y518234D01*
X436594Y517780D01*
X433868Y516651D01*
X429732Y516651D01*
G37*
%LPD*%
%LPC*%
G36*
X556732Y516651D02*
X556732Y516651D01*
X552910Y518234D01*
X549984Y521160D01*
X548401Y524982D01*
X548401Y529118D01*
X549984Y532940D01*
X552910Y535866D01*
X554145Y536377D01*
X554145Y536378D01*
X556732Y537449D01*
X560868Y537449D01*
X564690Y535866D01*
X567616Y532940D01*
X569199Y529118D01*
X569199Y524982D01*
X567616Y521160D01*
X564690Y518234D01*
X563594Y517780D01*
X560868Y516651D01*
X556732Y516651D01*
G37*
%LPD*%
%LPC*%
G36*
X404332Y516651D02*
X404332Y516651D01*
X400510Y518234D01*
X397584Y521160D01*
X396001Y524982D01*
X396001Y529118D01*
X397584Y532940D01*
X400510Y535866D01*
X401745Y536377D01*
X401745Y536378D01*
X404332Y537449D01*
X408468Y537449D01*
X412290Y535866D01*
X415216Y532940D01*
X416799Y529118D01*
X416799Y524982D01*
X415216Y521160D01*
X412290Y518234D01*
X411194Y517780D01*
X408468Y516651D01*
X404332Y516651D01*
G37*
%LPD*%
%LPC*%
G36*
X683732Y516651D02*
X683732Y516651D01*
X679910Y518234D01*
X676984Y521160D01*
X675401Y524982D01*
X675401Y529118D01*
X676984Y532940D01*
X679910Y535866D01*
X681145Y536377D01*
X681145Y536378D01*
X683732Y537449D01*
X687868Y537449D01*
X691690Y535866D01*
X694616Y532940D01*
X696199Y529118D01*
X696199Y524982D01*
X694616Y521160D01*
X691690Y518234D01*
X690594Y517780D01*
X687868Y516651D01*
X683732Y516651D01*
G37*
%LPD*%
%LPC*%
G36*
X251932Y516651D02*
X251932Y516651D01*
X248110Y518234D01*
X245184Y521160D01*
X243601Y524982D01*
X243601Y529118D01*
X245184Y532940D01*
X248110Y535866D01*
X249345Y536377D01*
X249345Y536378D01*
X251932Y537449D01*
X256068Y537449D01*
X259890Y535866D01*
X262816Y532940D01*
X264399Y529118D01*
X264399Y524982D01*
X262816Y521160D01*
X259890Y518234D01*
X258794Y517780D01*
X256068Y516651D01*
X251932Y516651D01*
G37*
%LPD*%
%LPC*%
G36*
X277332Y516651D02*
X277332Y516651D01*
X273510Y518234D01*
X270584Y521160D01*
X269001Y524982D01*
X269001Y529118D01*
X270584Y532940D01*
X273510Y535866D01*
X274745Y536377D01*
X274745Y536378D01*
X277332Y537449D01*
X281468Y537449D01*
X285290Y535866D01*
X288216Y532940D01*
X289799Y529118D01*
X289799Y524982D01*
X288216Y521160D01*
X285290Y518234D01*
X284194Y517780D01*
X281468Y516651D01*
X277332Y516651D01*
G37*
%LPD*%
%LPC*%
G36*
X302732Y516651D02*
X302732Y516651D01*
X298910Y518234D01*
X295984Y521160D01*
X294401Y524982D01*
X294401Y529118D01*
X295984Y532940D01*
X298910Y535866D01*
X300145Y536377D01*
X300145Y536378D01*
X302732Y537449D01*
X306868Y537449D01*
X310690Y535866D01*
X313616Y532940D01*
X315199Y529118D01*
X315199Y524982D01*
X313616Y521160D01*
X310690Y518234D01*
X309594Y517780D01*
X306868Y516651D01*
X302732Y516651D01*
G37*
%LPD*%
%LPC*%
G36*
X328132Y516651D02*
X328132Y516651D01*
X324310Y518234D01*
X321384Y521160D01*
X319801Y524982D01*
X319801Y529118D01*
X321384Y532940D01*
X324310Y535866D01*
X325545Y536377D01*
X325545Y536378D01*
X328132Y537449D01*
X332268Y537449D01*
X336090Y535866D01*
X339016Y532940D01*
X340599Y529118D01*
X340599Y524982D01*
X339016Y521160D01*
X336090Y518234D01*
X334994Y517780D01*
X332268Y516651D01*
X328132Y516651D01*
G37*
%LPD*%
%LPC*%
G36*
X353532Y516651D02*
X353532Y516651D01*
X349710Y518234D01*
X346784Y521160D01*
X345201Y524982D01*
X345201Y529118D01*
X346784Y532940D01*
X349710Y535866D01*
X350945Y536377D01*
X350945Y536378D01*
X353532Y537449D01*
X357668Y537449D01*
X361490Y535866D01*
X364416Y532940D01*
X365999Y529118D01*
X365999Y524982D01*
X364416Y521160D01*
X361490Y518234D01*
X360394Y517780D01*
X357668Y516651D01*
X353532Y516651D01*
G37*
%LPD*%
%LPC*%
G36*
X632932Y516651D02*
X632932Y516651D01*
X629110Y518234D01*
X626184Y521160D01*
X624601Y524982D01*
X624601Y529118D01*
X626184Y532940D01*
X629110Y535866D01*
X630345Y536377D01*
X630345Y536378D01*
X632932Y537449D01*
X637068Y537449D01*
X640890Y535866D01*
X643816Y532940D01*
X645399Y529118D01*
X645399Y524982D01*
X643816Y521160D01*
X640890Y518234D01*
X639794Y517780D01*
X637068Y516651D01*
X632932Y516651D01*
G37*
%LPD*%
%LPC*%
G36*
X607532Y516651D02*
X607532Y516651D01*
X603710Y518234D01*
X600784Y521160D01*
X599201Y524982D01*
X599201Y529118D01*
X600784Y532940D01*
X603710Y535866D01*
X604945Y536377D01*
X604945Y536378D01*
X607532Y537449D01*
X611668Y537449D01*
X615490Y535866D01*
X618416Y532940D01*
X619999Y529118D01*
X619999Y524982D01*
X618416Y521160D01*
X615490Y518234D01*
X614394Y517780D01*
X611668Y516651D01*
X607532Y516651D01*
G37*
%LPD*%
%LPC*%
G36*
X378932Y516651D02*
X378932Y516651D01*
X375110Y518234D01*
X372184Y521160D01*
X370601Y524982D01*
X370601Y529118D01*
X372184Y532940D01*
X375110Y535866D01*
X376345Y536377D01*
X376345Y536378D01*
X378932Y537449D01*
X383068Y537449D01*
X386890Y535866D01*
X389816Y532940D01*
X391399Y529118D01*
X391399Y524982D01*
X389816Y521160D01*
X386890Y518234D01*
X385794Y517780D01*
X383068Y516651D01*
X378932Y516651D01*
G37*
%LPD*%
%LPC*%
G36*
X582132Y516651D02*
X582132Y516651D01*
X578310Y518234D01*
X575384Y521160D01*
X573801Y524982D01*
X573801Y529118D01*
X575384Y532940D01*
X578310Y535866D01*
X579545Y536377D01*
X579545Y536378D01*
X582132Y537449D01*
X586268Y537449D01*
X590090Y535866D01*
X593016Y532940D01*
X594599Y529118D01*
X594599Y524982D01*
X593016Y521160D01*
X590090Y518234D01*
X588994Y517780D01*
X586268Y516651D01*
X582132Y516651D01*
G37*
%LPD*%
%LPC*%
G36*
X658332Y516651D02*
X658332Y516651D01*
X654510Y518234D01*
X651584Y521160D01*
X650001Y524982D01*
X650001Y529118D01*
X651584Y532940D01*
X654510Y535866D01*
X655745Y536377D01*
X655745Y536378D01*
X658332Y537449D01*
X662468Y537449D01*
X666290Y535866D01*
X669216Y532940D01*
X670799Y529118D01*
X670799Y524982D01*
X669216Y521160D01*
X666290Y518234D01*
X665194Y517780D01*
X662468Y516651D01*
X658332Y516651D01*
G37*
%LPD*%
%LPC*%
G36*
X531332Y516651D02*
X531332Y516651D01*
X527510Y518234D01*
X524584Y521160D01*
X523001Y524982D01*
X523001Y529118D01*
X524584Y532940D01*
X527510Y535866D01*
X528745Y536377D01*
X528745Y536378D01*
X531332Y537449D01*
X535468Y537449D01*
X539290Y535866D01*
X542216Y532940D01*
X543799Y529118D01*
X543799Y524982D01*
X542216Y521160D01*
X539290Y518234D01*
X538194Y517780D01*
X535468Y516651D01*
X531332Y516651D01*
G37*
%LPD*%
%LPC*%
G36*
X480532Y516651D02*
X480532Y516651D01*
X476710Y518234D01*
X473784Y521160D01*
X472201Y524982D01*
X472201Y529118D01*
X473784Y532940D01*
X476710Y535866D01*
X477945Y536377D01*
X477945Y536378D01*
X480532Y537449D01*
X484668Y537449D01*
X488490Y535866D01*
X491416Y532940D01*
X492999Y529118D01*
X492999Y524982D01*
X491416Y521160D01*
X488490Y518234D01*
X487394Y517780D01*
X484668Y516651D01*
X480532Y516651D01*
G37*
%LPD*%
%LPC*%
G36*
X429732Y491251D02*
X429732Y491251D01*
X425910Y492834D01*
X422984Y495760D01*
X421401Y499582D01*
X421401Y503718D01*
X422984Y507540D01*
X425910Y510466D01*
X429732Y512049D01*
X433868Y512049D01*
X437690Y510466D01*
X440616Y507540D01*
X442199Y503718D01*
X442199Y499582D01*
X440616Y495760D01*
X437690Y492834D01*
X434165Y491374D01*
X433868Y491251D01*
X429732Y491251D01*
G37*
%LPD*%
%LPC*%
G36*
X378932Y491251D02*
X378932Y491251D01*
X375110Y492834D01*
X372184Y495760D01*
X370601Y499582D01*
X370601Y503718D01*
X372184Y507540D01*
X375110Y510466D01*
X378932Y512049D01*
X383068Y512049D01*
X386890Y510466D01*
X389816Y507540D01*
X391399Y503718D01*
X391399Y499582D01*
X389816Y495760D01*
X386890Y492834D01*
X383365Y491374D01*
X383068Y491251D01*
X378932Y491251D01*
G37*
%LPD*%
%LPC*%
G36*
X632932Y491251D02*
X632932Y491251D01*
X629110Y492834D01*
X626184Y495760D01*
X624601Y499582D01*
X624601Y503718D01*
X626184Y507540D01*
X629110Y510466D01*
X632932Y512049D01*
X637068Y512049D01*
X640890Y510466D01*
X643816Y507540D01*
X645399Y503718D01*
X645399Y499582D01*
X643816Y495760D01*
X640890Y492834D01*
X637365Y491374D01*
X637068Y491251D01*
X632932Y491251D01*
G37*
%LPD*%
%LPC*%
G36*
X353532Y491251D02*
X353532Y491251D01*
X349710Y492834D01*
X346784Y495760D01*
X345201Y499582D01*
X345201Y503718D01*
X346784Y507540D01*
X349710Y510466D01*
X353532Y512049D01*
X357668Y512049D01*
X361490Y510466D01*
X364416Y507540D01*
X365999Y503718D01*
X365999Y499582D01*
X364416Y495760D01*
X361490Y492834D01*
X357965Y491374D01*
X357668Y491251D01*
X353532Y491251D01*
G37*
%LPD*%
%LPC*%
G36*
X328132Y491251D02*
X328132Y491251D01*
X324310Y492834D01*
X321384Y495760D01*
X319801Y499582D01*
X319801Y503718D01*
X321384Y507540D01*
X324310Y510466D01*
X328132Y512049D01*
X332268Y512049D01*
X336090Y510466D01*
X339016Y507540D01*
X340599Y503718D01*
X340599Y499582D01*
X339016Y495760D01*
X336090Y492834D01*
X332565Y491374D01*
X332268Y491251D01*
X328132Y491251D01*
G37*
%LPD*%
%LPC*%
G36*
X556732Y491251D02*
X556732Y491251D01*
X552910Y492834D01*
X549984Y495760D01*
X548401Y499582D01*
X548401Y503718D01*
X549984Y507540D01*
X552910Y510466D01*
X556732Y512049D01*
X560868Y512049D01*
X564690Y510466D01*
X567616Y507540D01*
X569199Y503718D01*
X569199Y499582D01*
X567616Y495760D01*
X564690Y492834D01*
X561165Y491374D01*
X560868Y491251D01*
X556732Y491251D01*
G37*
%LPD*%
%LPC*%
G36*
X277332Y491251D02*
X277332Y491251D01*
X273510Y492834D01*
X270584Y495760D01*
X269001Y499582D01*
X269001Y503718D01*
X270584Y507540D01*
X273510Y510466D01*
X277332Y512049D01*
X281468Y512049D01*
X285290Y510466D01*
X288216Y507540D01*
X289799Y503718D01*
X289799Y499582D01*
X288216Y495760D01*
X285290Y492834D01*
X281765Y491374D01*
X281468Y491251D01*
X277332Y491251D01*
G37*
%LPD*%
%LPC*%
G36*
X302732Y491251D02*
X302732Y491251D01*
X298910Y492834D01*
X295984Y495760D01*
X294401Y499582D01*
X294401Y503718D01*
X295984Y507540D01*
X298910Y510466D01*
X302732Y512049D01*
X306868Y512049D01*
X310690Y510466D01*
X313616Y507540D01*
X315199Y503718D01*
X315199Y499582D01*
X313616Y495760D01*
X310690Y492834D01*
X307165Y491374D01*
X306868Y491251D01*
X302732Y491251D01*
G37*
%LPD*%
%LPC*%
G36*
X480532Y491251D02*
X480532Y491251D01*
X476710Y492834D01*
X473784Y495760D01*
X472201Y499582D01*
X472201Y503718D01*
X473784Y507540D01*
X476710Y510466D01*
X480532Y512049D01*
X484668Y512049D01*
X488490Y510466D01*
X491416Y507540D01*
X492999Y503718D01*
X492999Y499582D01*
X491416Y495760D01*
X488490Y492834D01*
X484965Y491374D01*
X484668Y491251D01*
X480532Y491251D01*
G37*
%LPD*%
%LPC*%
G36*
X455132Y491251D02*
X455132Y491251D01*
X451310Y492834D01*
X448384Y495760D01*
X446801Y499582D01*
X446801Y503718D01*
X448384Y507540D01*
X451310Y510466D01*
X455132Y512049D01*
X459268Y512049D01*
X463090Y510466D01*
X466016Y507540D01*
X467599Y503718D01*
X467599Y499582D01*
X466016Y495760D01*
X463090Y492834D01*
X459565Y491374D01*
X459268Y491251D01*
X455132Y491251D01*
G37*
%LPD*%
%LPC*%
G36*
X251932Y491251D02*
X251932Y491251D01*
X248110Y492834D01*
X245184Y495760D01*
X243601Y499582D01*
X243601Y503718D01*
X245184Y507540D01*
X248110Y510466D01*
X251932Y512049D01*
X256068Y512049D01*
X259890Y510466D01*
X262816Y507540D01*
X264399Y503718D01*
X264399Y499582D01*
X262816Y495760D01*
X259890Y492834D01*
X256365Y491374D01*
X256068Y491251D01*
X251932Y491251D01*
G37*
%LPD*%
%LPC*%
G36*
X683732Y491251D02*
X683732Y491251D01*
X679910Y492834D01*
X676984Y495760D01*
X675401Y499582D01*
X675401Y503718D01*
X676984Y507540D01*
X679910Y510466D01*
X683732Y512049D01*
X687868Y512049D01*
X691690Y510466D01*
X694616Y507540D01*
X696199Y503718D01*
X696199Y499582D01*
X694616Y495760D01*
X691690Y492834D01*
X688165Y491374D01*
X687868Y491251D01*
X683732Y491251D01*
G37*
%LPD*%
%LPC*%
G36*
X505932Y491251D02*
X505932Y491251D01*
X502110Y492834D01*
X499184Y495760D01*
X497601Y499582D01*
X497601Y503718D01*
X499184Y507540D01*
X502110Y510466D01*
X505932Y512049D01*
X510068Y512049D01*
X513890Y510466D01*
X516816Y507540D01*
X518399Y503718D01*
X518399Y499582D01*
X516816Y495760D01*
X513890Y492834D01*
X510365Y491374D01*
X510068Y491251D01*
X505932Y491251D01*
G37*
%LPD*%
%LPC*%
G36*
X531332Y491251D02*
X531332Y491251D01*
X527510Y492834D01*
X524584Y495760D01*
X523001Y499582D01*
X523001Y503718D01*
X524584Y507540D01*
X527510Y510466D01*
X531332Y512049D01*
X535468Y512049D01*
X539290Y510466D01*
X542216Y507540D01*
X543799Y503718D01*
X543799Y499582D01*
X542216Y495760D01*
X539290Y492834D01*
X535765Y491374D01*
X535468Y491251D01*
X531332Y491251D01*
G37*
%LPD*%
%LPC*%
G36*
X404332Y491251D02*
X404332Y491251D01*
X400510Y492834D01*
X397584Y495760D01*
X396001Y499582D01*
X396001Y503718D01*
X397584Y507540D01*
X400510Y510466D01*
X404332Y512049D01*
X408468Y512049D01*
X412290Y510466D01*
X415216Y507540D01*
X416799Y503718D01*
X416799Y499582D01*
X415216Y495760D01*
X412290Y492834D01*
X408765Y491374D01*
X408468Y491251D01*
X404332Y491251D01*
G37*
%LPD*%
%LPC*%
G36*
X658332Y491251D02*
X658332Y491251D01*
X654510Y492834D01*
X651584Y495760D01*
X650001Y499582D01*
X650001Y503718D01*
X651584Y507540D01*
X654510Y510466D01*
X658332Y512049D01*
X662468Y512049D01*
X666290Y510466D01*
X669216Y507540D01*
X670799Y503718D01*
X670799Y499582D01*
X669216Y495760D01*
X666290Y492834D01*
X662765Y491374D01*
X662468Y491251D01*
X658332Y491251D01*
G37*
%LPD*%
%LPC*%
G36*
X582132Y491251D02*
X582132Y491251D01*
X578310Y492834D01*
X575384Y495760D01*
X573801Y499582D01*
X573801Y503718D01*
X575384Y507540D01*
X578310Y510466D01*
X582132Y512049D01*
X586268Y512049D01*
X590090Y510466D01*
X593016Y507540D01*
X594599Y503718D01*
X594599Y499582D01*
X593016Y495760D01*
X590090Y492834D01*
X586565Y491374D01*
X586268Y491251D01*
X582132Y491251D01*
G37*
%LPD*%
%LPC*%
G36*
X607532Y491251D02*
X607532Y491251D01*
X603710Y492834D01*
X600784Y495760D01*
X599201Y499582D01*
X599201Y503718D01*
X600784Y507540D01*
X603710Y510466D01*
X607532Y512049D01*
X611668Y512049D01*
X615490Y510466D01*
X618416Y507540D01*
X619999Y503718D01*
X619999Y499582D01*
X618416Y495760D01*
X615490Y492834D01*
X611965Y491374D01*
X611668Y491251D01*
X607532Y491251D01*
G37*
%LPD*%
%LPC*%
G36*
X353532Y34051D02*
X353532Y34051D01*
X349710Y35634D01*
X346784Y38560D01*
X345201Y42382D01*
X345201Y46518D01*
X346784Y50340D01*
X349710Y53266D01*
X353532Y54849D01*
X357668Y54849D01*
X361490Y53266D01*
X364416Y50340D01*
X365999Y46518D01*
X365999Y42382D01*
X364416Y38560D01*
X361490Y35634D01*
X358372Y34343D01*
X357668Y34051D01*
X353532Y34051D01*
G37*
%LPD*%
%LPC*%
G36*
X429732Y34051D02*
X429732Y34051D01*
X425910Y35634D01*
X422984Y38560D01*
X421401Y42382D01*
X421401Y46518D01*
X422984Y50340D01*
X425910Y53266D01*
X429732Y54849D01*
X433868Y54849D01*
X437690Y53266D01*
X440616Y50340D01*
X442199Y46518D01*
X442199Y42382D01*
X440616Y38560D01*
X437690Y35634D01*
X434572Y34343D01*
X433868Y34051D01*
X429732Y34051D01*
G37*
%LPD*%
%LPC*%
G36*
X404332Y34051D02*
X404332Y34051D01*
X400510Y35634D01*
X397584Y38560D01*
X396001Y42382D01*
X396001Y46518D01*
X397584Y50340D01*
X400510Y53266D01*
X404332Y54849D01*
X408468Y54849D01*
X412290Y53266D01*
X415216Y50340D01*
X416799Y46518D01*
X416799Y42382D01*
X415216Y38560D01*
X412290Y35634D01*
X409172Y34343D01*
X408468Y34051D01*
X404332Y34051D01*
G37*
%LPD*%
%LPC*%
G36*
X277332Y34051D02*
X277332Y34051D01*
X273510Y35634D01*
X270584Y38560D01*
X269001Y42382D01*
X269001Y46518D01*
X270584Y50340D01*
X273510Y53266D01*
X277332Y54849D01*
X281468Y54849D01*
X285290Y53266D01*
X288216Y50340D01*
X289799Y46518D01*
X289799Y42382D01*
X288216Y38560D01*
X285290Y35634D01*
X282172Y34343D01*
X281468Y34051D01*
X277332Y34051D01*
G37*
%LPD*%
%LPC*%
G36*
X632932Y34051D02*
X632932Y34051D01*
X629110Y35634D01*
X626184Y38560D01*
X624601Y42382D01*
X624601Y46518D01*
X626184Y50340D01*
X629110Y53266D01*
X632932Y54849D01*
X637068Y54849D01*
X640890Y53266D01*
X643816Y50340D01*
X645399Y46518D01*
X645399Y42382D01*
X643816Y38560D01*
X640890Y35634D01*
X637772Y34343D01*
X637068Y34051D01*
X632932Y34051D01*
G37*
%LPD*%
%LPC*%
G36*
X378932Y34051D02*
X378932Y34051D01*
X375110Y35634D01*
X372184Y38560D01*
X370601Y42382D01*
X370601Y46518D01*
X372184Y50340D01*
X375110Y53266D01*
X378932Y54849D01*
X383068Y54849D01*
X386890Y53266D01*
X389816Y50340D01*
X391399Y46518D01*
X391399Y42382D01*
X389816Y38560D01*
X386890Y35634D01*
X383772Y34343D01*
X383068Y34051D01*
X378932Y34051D01*
G37*
%LPD*%
%LPC*%
G36*
X455132Y34051D02*
X455132Y34051D01*
X451310Y35634D01*
X448384Y38560D01*
X446801Y42382D01*
X446801Y46518D01*
X448384Y50340D01*
X451310Y53266D01*
X455132Y54849D01*
X459268Y54849D01*
X463090Y53266D01*
X466016Y50340D01*
X467599Y46518D01*
X467599Y42382D01*
X466016Y38560D01*
X463090Y35634D01*
X459972Y34343D01*
X459268Y34051D01*
X455132Y34051D01*
G37*
%LPD*%
%LPC*%
G36*
X683732Y34051D02*
X683732Y34051D01*
X679910Y35634D01*
X676984Y38560D01*
X675401Y42382D01*
X675401Y46518D01*
X676984Y50340D01*
X679910Y53266D01*
X683732Y54849D01*
X687868Y54849D01*
X691690Y53266D01*
X694616Y50340D01*
X696199Y46518D01*
X696199Y42382D01*
X694616Y38560D01*
X691690Y35634D01*
X688572Y34343D01*
X687868Y34051D01*
X683732Y34051D01*
G37*
%LPD*%
%LPC*%
G36*
X658332Y34051D02*
X658332Y34051D01*
X654510Y35634D01*
X651584Y38560D01*
X650001Y42382D01*
X650001Y46518D01*
X651584Y50340D01*
X654510Y53266D01*
X658332Y54849D01*
X662468Y54849D01*
X666290Y53266D01*
X669216Y50340D01*
X670799Y46518D01*
X670799Y42382D01*
X669216Y38560D01*
X666290Y35634D01*
X663172Y34343D01*
X662468Y34051D01*
X658332Y34051D01*
G37*
%LPD*%
%LPC*%
G36*
X347261Y421799D02*
X347261Y421799D01*
X343585Y423322D01*
X340772Y426135D01*
X339249Y429811D01*
X339249Y433789D01*
X340772Y437465D01*
X343585Y440278D01*
X345107Y440909D01*
X347261Y441801D01*
X351239Y441801D01*
X354915Y440278D01*
X357728Y437465D01*
X359251Y433789D01*
X359251Y429811D01*
X357728Y426135D01*
X354915Y423322D01*
X352476Y422311D01*
X351239Y421799D01*
X347261Y421799D01*
G37*
%LPD*%
%LPC*%
G36*
X713996Y112069D02*
X713996Y112069D01*
X708969Y117096D01*
X708969Y124204D01*
X713996Y129231D01*
X721104Y129231D01*
X726131Y124204D01*
X726131Y117096D01*
X721104Y112069D01*
X713996Y112069D01*
G37*
%LPD*%
%LPC*%
G36*
X790196Y112069D02*
X790196Y112069D01*
X785169Y117096D01*
X785169Y124204D01*
X790196Y129231D01*
X797304Y129231D01*
X802331Y124204D01*
X802331Y117096D01*
X797304Y112069D01*
X790196Y112069D01*
G37*
%LPD*%
%LPC*%
G36*
X36411Y112156D02*
X36411Y112156D01*
X33289Y113449D01*
X30899Y115839D01*
X29606Y118961D01*
X29606Y122339D01*
X30899Y125461D01*
X33289Y127851D01*
X36411Y129144D01*
X39789Y129144D01*
X42911Y127851D01*
X45301Y125461D01*
X46594Y122339D01*
X46594Y118961D01*
X45301Y115839D01*
X42911Y113449D01*
X39789Y112156D01*
X36411Y112156D01*
G37*
%LPD*%
%LPC*%
G36*
X74627Y182594D02*
X74627Y182594D01*
X71722Y183798D01*
X69498Y186022D01*
X68294Y188927D01*
X68294Y192073D01*
X69498Y194978D01*
X71722Y197202D01*
X74627Y198406D01*
X77773Y198406D01*
X80678Y197202D01*
X82902Y194978D01*
X84106Y192073D01*
X84106Y188927D01*
X82902Y186022D01*
X80678Y183798D01*
X77773Y182594D01*
X74627Y182594D01*
G37*
%LPD*%
%LPC*%
G36*
X49227Y182594D02*
X49227Y182594D01*
X46322Y183798D01*
X44098Y186022D01*
X42894Y188927D01*
X42894Y192073D01*
X44098Y194978D01*
X46322Y197202D01*
X49227Y198406D01*
X52373Y198406D01*
X55278Y197202D01*
X57502Y194978D01*
X58706Y192073D01*
X58706Y188927D01*
X57502Y186022D01*
X55278Y183798D01*
X52373Y182594D01*
X49227Y182594D01*
G37*
%LPD*%
%LPC*%
G36*
X191261Y21589D02*
X191261Y21589D01*
X191261Y28783D01*
X191434Y29429D01*
X191769Y30008D01*
X192242Y30481D01*
X192821Y30816D01*
X193467Y30989D01*
X195165Y30989D01*
X195333Y31005D01*
X195500Y31017D01*
X195532Y31025D01*
X195566Y31029D01*
X195727Y31078D01*
X195889Y31122D01*
X195919Y31137D01*
X195950Y31147D01*
X196098Y31227D01*
X196249Y31302D01*
X196275Y31323D01*
X196305Y31339D01*
X196434Y31446D01*
X196566Y31550D01*
X196588Y31575D01*
X196614Y31596D01*
X196719Y31728D01*
X196829Y31855D01*
X196845Y31884D01*
X196866Y31910D01*
X196944Y32059D01*
X197026Y32206D01*
X197036Y32238D01*
X197052Y32267D01*
X197098Y32429D01*
X197150Y32589D01*
X197154Y32622D01*
X197163Y32654D01*
X197177Y32822D01*
X197196Y32989D01*
X197193Y33022D01*
X197196Y33056D01*
X197176Y33222D01*
X197162Y33390D01*
X197153Y33422D01*
X197149Y33455D01*
X197097Y33615D01*
X197050Y33777D01*
X197034Y33806D01*
X197024Y33838D01*
X196941Y33985D01*
X196864Y34134D01*
X196843Y34160D01*
X196826Y34189D01*
X196716Y34316D01*
X196610Y34447D01*
X196582Y34471D01*
X196563Y34493D01*
X196495Y34546D01*
X196359Y34663D01*
X195422Y35344D01*
X194094Y36672D01*
X192989Y38193D01*
X192136Y39867D01*
X191555Y41654D01*
X191515Y41911D01*
X200661Y41911D01*
X200661Y21589D01*
X191261Y21589D01*
G37*
%LPD*%
%LPC*%
G36*
X191261Y504189D02*
X191261Y504189D01*
X191261Y511383D01*
X191434Y512029D01*
X191769Y512608D01*
X192242Y513081D01*
X192821Y513416D01*
X193467Y513589D01*
X195165Y513589D01*
X195333Y513605D01*
X195500Y513617D01*
X195532Y513625D01*
X195566Y513629D01*
X195727Y513678D01*
X195889Y513722D01*
X195919Y513737D01*
X195950Y513747D01*
X196098Y513827D01*
X196249Y513902D01*
X196275Y513923D01*
X196305Y513939D01*
X196434Y514046D01*
X196566Y514150D01*
X196588Y514175D01*
X196614Y514196D01*
X196719Y514328D01*
X196829Y514455D01*
X196845Y514484D01*
X196866Y514510D01*
X196944Y514659D01*
X197026Y514806D01*
X197036Y514838D01*
X197052Y514867D01*
X197098Y515029D01*
X197150Y515189D01*
X197154Y515222D01*
X197163Y515254D01*
X197177Y515422D01*
X197196Y515589D01*
X197193Y515622D01*
X197196Y515656D01*
X197176Y515822D01*
X197162Y515990D01*
X197153Y516022D01*
X197149Y516055D01*
X197097Y516215D01*
X197050Y516377D01*
X197034Y516406D01*
X197024Y516438D01*
X196941Y516585D01*
X196864Y516734D01*
X196843Y516760D01*
X196826Y516789D01*
X196716Y516916D01*
X196610Y517047D01*
X196582Y517071D01*
X196563Y517093D01*
X196495Y517146D01*
X196359Y517263D01*
X195422Y517944D01*
X194094Y519272D01*
X192989Y520793D01*
X192136Y522467D01*
X191555Y524254D01*
X191515Y524511D01*
X200661Y524511D01*
X200661Y504189D01*
X191261Y504189D01*
G37*
%LPD*%
%LPC*%
G36*
X455918Y105314D02*
X455918Y105314D01*
X453549Y106296D01*
X451736Y108109D01*
X450754Y110478D01*
X450754Y113042D01*
X451736Y115411D01*
X453549Y117224D01*
X455276Y117940D01*
X455918Y118206D01*
X458482Y118206D01*
X460851Y117224D01*
X462664Y115411D01*
X463646Y113042D01*
X463646Y110478D01*
X462664Y108109D01*
X460851Y106296D01*
X458482Y105314D01*
X455918Y105314D01*
G37*
%LPD*%
%LPC*%
G36*
X405118Y95154D02*
X405118Y95154D01*
X402749Y96136D01*
X400936Y97949D01*
X399954Y100318D01*
X399954Y102882D01*
X400936Y105251D01*
X402749Y107064D01*
X405118Y108046D01*
X407682Y108046D01*
X410051Y107064D01*
X411864Y105251D01*
X412846Y102882D01*
X412846Y100318D01*
X411864Y97949D01*
X410051Y96136D01*
X407682Y95154D01*
X405118Y95154D01*
G37*
%LPD*%
%LPC*%
G36*
X455918Y84994D02*
X455918Y84994D01*
X453549Y85976D01*
X451736Y87789D01*
X450754Y90158D01*
X450754Y92722D01*
X451736Y95091D01*
X453549Y96904D01*
X455918Y97886D01*
X458482Y97886D01*
X460851Y96904D01*
X462664Y95091D01*
X463646Y92722D01*
X463646Y90158D01*
X462664Y87789D01*
X460851Y85976D01*
X458795Y85124D01*
X458482Y84994D01*
X455918Y84994D01*
G37*
%LPD*%
%LPC*%
G36*
X739139Y46989D02*
X739139Y46989D01*
X739139Y56135D01*
X739396Y56095D01*
X741183Y55514D01*
X742857Y54661D01*
X744378Y53556D01*
X745706Y52228D01*
X746811Y50707D01*
X747490Y49374D01*
X747518Y49331D01*
X747539Y49285D01*
X747626Y49162D01*
X747708Y49035D01*
X747743Y48999D01*
X747773Y48957D01*
X747883Y48854D01*
X747988Y48746D01*
X748030Y48717D01*
X748067Y48682D01*
X748195Y48603D01*
X748319Y48518D01*
X748366Y48497D01*
X748410Y48471D01*
X748551Y48418D01*
X748689Y48359D01*
X748739Y48349D01*
X748787Y48331D01*
X748936Y48308D01*
X749083Y48277D01*
X749134Y48276D01*
X749185Y48268D01*
X749336Y48275D01*
X749486Y48274D01*
X749536Y48283D01*
X749587Y48286D01*
X749734Y48322D01*
X749881Y48350D01*
X749928Y48369D01*
X749978Y48382D01*
X750114Y48446D01*
X750254Y48503D01*
X750296Y48531D01*
X750342Y48553D01*
X750463Y48643D01*
X750589Y48726D01*
X750625Y48762D01*
X750666Y48793D01*
X750767Y48905D01*
X750873Y49011D01*
X750901Y49054D01*
X750936Y49092D01*
X751057Y49289D01*
X751096Y49347D01*
X751101Y49360D01*
X751110Y49374D01*
X751789Y50707D01*
X752894Y52228D01*
X754222Y53556D01*
X755743Y54661D01*
X757417Y55514D01*
X759204Y56095D01*
X759461Y56135D01*
X759461Y46989D01*
X739139Y46989D01*
G37*
%LPD*%
%LPC*%
G36*
X764539Y21589D02*
X764539Y21589D01*
X764539Y41911D01*
X773685Y41911D01*
X773645Y41654D01*
X773064Y39867D01*
X772211Y38193D01*
X771106Y36672D01*
X769778Y35344D01*
X768257Y34239D01*
X766924Y33560D01*
X766881Y33532D01*
X766834Y33511D01*
X766712Y33424D01*
X766585Y33342D01*
X766549Y33307D01*
X766507Y33277D01*
X766404Y33167D01*
X766296Y33062D01*
X766267Y33020D01*
X766232Y32983D01*
X766153Y32855D01*
X766068Y32731D01*
X766048Y32684D01*
X766021Y32640D01*
X765968Y32499D01*
X765909Y32361D01*
X765899Y32311D01*
X765881Y32263D01*
X765858Y32114D01*
X765827Y31967D01*
X765826Y31916D01*
X765818Y31865D01*
X765825Y31714D01*
X765824Y31564D01*
X765833Y31514D01*
X765836Y31463D01*
X765872Y31316D01*
X765900Y31169D01*
X765919Y31122D01*
X765932Y31072D01*
X765996Y30935D01*
X766053Y30796D01*
X766081Y30754D01*
X766103Y30707D01*
X766193Y30586D01*
X766276Y30461D01*
X766312Y30425D01*
X766343Y30384D01*
X766455Y30283D01*
X766561Y30177D01*
X766604Y30149D01*
X766642Y30114D01*
X766838Y29993D01*
X766897Y29954D01*
X766910Y29949D01*
X766924Y29940D01*
X768257Y29261D01*
X769778Y28156D01*
X771106Y26828D01*
X772211Y25307D01*
X773064Y23633D01*
X773645Y21846D01*
X773685Y21589D01*
X764539Y21589D01*
G37*
%LPD*%
%LPC*%
G36*
X193467Y7111D02*
X193467Y7111D01*
X192821Y7284D01*
X192242Y7619D01*
X191769Y8092D01*
X191434Y8671D01*
X191261Y9317D01*
X191261Y16511D01*
X200661Y16511D01*
X200661Y7111D01*
X193467Y7111D01*
G37*
%LPD*%
%LPC*%
G36*
X193467Y489711D02*
X193467Y489711D01*
X192821Y489884D01*
X192242Y490219D01*
X191769Y490692D01*
X191434Y491271D01*
X191261Y491917D01*
X191261Y499111D01*
X200661Y499111D01*
X200661Y489711D01*
X193467Y489711D01*
G37*
%LPD*%
%LPC*%
G36*
X764539Y46989D02*
X764539Y46989D01*
X764539Y56135D01*
X764796Y56095D01*
X766583Y55514D01*
X768257Y54661D01*
X769778Y53556D01*
X771106Y52228D01*
X772211Y50707D01*
X773064Y49033D01*
X773645Y47246D01*
X773685Y46989D01*
X764539Y46989D01*
G37*
%LPD*%
%LPC*%
G36*
X191515Y46989D02*
X191515Y46989D01*
X191555Y47246D01*
X192136Y49033D01*
X192989Y50707D01*
X194094Y52228D01*
X195422Y53556D01*
X196943Y54661D01*
X198617Y55514D01*
X200404Y56095D01*
X200661Y56135D01*
X200661Y46989D01*
X191515Y46989D01*
G37*
%LPD*%
%LPC*%
G36*
X191515Y529589D02*
X191515Y529589D01*
X191555Y529846D01*
X192136Y531633D01*
X192989Y533307D01*
X194094Y534828D01*
X195422Y536156D01*
X196943Y537261D01*
X198617Y538114D01*
X200404Y538695D01*
X200661Y538735D01*
X200661Y529589D01*
X191515Y529589D01*
G37*
%LPD*%
%LPC*%
G36*
X66230Y136334D02*
X66230Y136334D01*
X66230Y144197D01*
X67429Y143807D01*
X69050Y142981D01*
X70521Y141912D01*
X71808Y140625D01*
X72877Y139154D01*
X73703Y137533D01*
X74093Y136334D01*
X66230Y136334D01*
G37*
%LPD*%
%LPC*%
G36*
X66230Y66230D02*
X66230Y66230D01*
X66230Y74093D01*
X67429Y73703D01*
X69050Y72877D01*
X70521Y71808D01*
X71808Y70521D01*
X72877Y69050D01*
X73703Y67429D01*
X74093Y66230D01*
X66230Y66230D01*
G37*
%LPD*%
%LPC*%
G36*
X51891Y66230D02*
X51891Y66230D01*
X52281Y67429D01*
X53107Y69050D01*
X54176Y70521D01*
X55463Y71808D01*
X56934Y72877D01*
X58555Y73703D01*
X59754Y74093D01*
X59754Y66230D01*
X51891Y66230D01*
G37*
%LPD*%
%LPC*%
G36*
X66230Y129858D02*
X66230Y129858D01*
X74093Y129858D01*
X73703Y128659D01*
X72877Y127038D01*
X71808Y125567D01*
X70521Y124280D01*
X69050Y123211D01*
X67429Y122385D01*
X66230Y121995D01*
X66230Y129858D01*
G37*
%LPD*%
%LPC*%
G36*
X51891Y136334D02*
X51891Y136334D01*
X52281Y137533D01*
X53107Y139154D01*
X54176Y140625D01*
X55463Y141912D01*
X56934Y142981D01*
X58555Y143807D01*
X59754Y144197D01*
X59754Y136334D01*
X51891Y136334D01*
G37*
%LPD*%
%LPC*%
G36*
X66230Y59754D02*
X66230Y59754D01*
X74093Y59754D01*
X73703Y58555D01*
X72877Y56934D01*
X71808Y55463D01*
X70521Y54176D01*
X69050Y53107D01*
X67429Y52281D01*
X66230Y51891D01*
X66230Y59754D01*
G37*
%LPD*%
%LPC*%
G36*
X58555Y52281D02*
X58555Y52281D01*
X56934Y53107D01*
X55463Y54176D01*
X54176Y55463D01*
X53107Y56934D01*
X52281Y58555D01*
X51891Y59754D01*
X59754Y59754D01*
X59754Y51891D01*
X58555Y52281D01*
G37*
%LPD*%
%LPC*%
G36*
X58555Y122385D02*
X58555Y122385D01*
X56934Y123211D01*
X55463Y124280D01*
X54176Y125567D01*
X53107Y127038D01*
X52281Y128659D01*
X51891Y129858D01*
X59754Y129858D01*
X59754Y121995D01*
X58555Y122385D01*
G37*
%LPD*%
%LPC*%
G36*
X720089Y97789D02*
X720089Y97789D01*
X720089Y105371D01*
X721742Y105371D01*
X727671Y99442D01*
X727671Y97789D01*
X720089Y97789D01*
G37*
%LPD*%
%LPC*%
G36*
X796289Y97789D02*
X796289Y97789D01*
X796289Y105371D01*
X797942Y105371D01*
X803871Y99442D01*
X803871Y97789D01*
X796289Y97789D01*
G37*
%LPD*%
%LPC*%
G36*
X770889Y97789D02*
X770889Y97789D01*
X770889Y105371D01*
X772542Y105371D01*
X778471Y99442D01*
X778471Y97789D01*
X770889Y97789D01*
G37*
%LPD*%
%LPC*%
G36*
X745489Y97789D02*
X745489Y97789D01*
X745489Y105371D01*
X747142Y105371D01*
X753071Y99442D01*
X753071Y97789D01*
X745489Y97789D01*
G37*
%LPD*%
%LPC*%
G36*
X707429Y97789D02*
X707429Y97789D01*
X707429Y99442D01*
X713358Y105371D01*
X715011Y105371D01*
X715011Y97789D01*
X707429Y97789D01*
G37*
%LPD*%
%LPC*%
G36*
X720089Y85129D02*
X720089Y85129D01*
X720089Y92711D01*
X727671Y92711D01*
X727671Y91058D01*
X721742Y85129D01*
X720089Y85129D01*
G37*
%LPD*%
%LPC*%
G36*
X758229Y97789D02*
X758229Y97789D01*
X758229Y99442D01*
X764158Y105371D01*
X765811Y105371D01*
X765811Y97789D01*
X758229Y97789D01*
G37*
%LPD*%
%LPC*%
G36*
X745489Y85129D02*
X745489Y85129D01*
X745489Y92711D01*
X753071Y92711D01*
X753071Y91058D01*
X747142Y85129D01*
X745489Y85129D01*
G37*
%LPD*%
%LPC*%
G36*
X770889Y85129D02*
X770889Y85129D01*
X770889Y92711D01*
X778471Y92711D01*
X778471Y91058D01*
X772542Y85129D01*
X770889Y85129D01*
G37*
%LPD*%
%LPC*%
G36*
X796289Y85129D02*
X796289Y85129D01*
X796289Y92711D01*
X803871Y92711D01*
X803871Y91058D01*
X797942Y85129D01*
X796289Y85129D01*
G37*
%LPD*%
%LPC*%
G36*
X783629Y97789D02*
X783629Y97789D01*
X783629Y99442D01*
X789558Y105371D01*
X791211Y105371D01*
X791211Y97789D01*
X783629Y97789D01*
G37*
%LPD*%
%LPC*%
G36*
X732829Y97789D02*
X732829Y97789D01*
X732829Y99442D01*
X738758Y105371D01*
X740411Y105371D01*
X740411Y97789D01*
X732829Y97789D01*
G37*
%LPD*%
%LPC*%
G36*
X713358Y85129D02*
X713358Y85129D01*
X707429Y91058D01*
X707429Y92711D01*
X715011Y92711D01*
X715011Y85129D01*
X713358Y85129D01*
G37*
%LPD*%
%LPC*%
G36*
X764158Y85129D02*
X764158Y85129D01*
X758229Y91058D01*
X758229Y92711D01*
X765811Y92711D01*
X765811Y85129D01*
X764158Y85129D01*
G37*
%LPD*%
%LPC*%
G36*
X738758Y85129D02*
X738758Y85129D01*
X732829Y91058D01*
X732829Y92711D01*
X740411Y92711D01*
X740411Y85129D01*
X738758Y85129D01*
G37*
%LPD*%
%LPC*%
G36*
X789558Y85129D02*
X789558Y85129D01*
X783629Y91058D01*
X783629Y92711D01*
X791211Y92711D01*
X791211Y85129D01*
X789558Y85129D01*
G37*
%LPD*%
%LPC*%
G36*
X40576Y78168D02*
X40576Y78168D01*
X40576Y85438D01*
X41952Y84991D01*
X43359Y84274D01*
X44637Y83345D01*
X45753Y82229D01*
X46682Y80951D01*
X47399Y79544D01*
X47846Y78168D01*
X40576Y78168D01*
G37*
%LPD*%
%LPC*%
G36*
X40576Y73216D02*
X40576Y73216D01*
X47846Y73216D01*
X47399Y71840D01*
X46682Y70433D01*
X45753Y69155D01*
X44637Y68039D01*
X43359Y67110D01*
X41952Y66393D01*
X40576Y65946D01*
X40576Y73216D01*
G37*
%LPD*%
%LPC*%
G36*
X28354Y78168D02*
X28354Y78168D01*
X28801Y79544D01*
X29518Y80951D01*
X30447Y82229D01*
X31563Y83345D01*
X32841Y84274D01*
X34248Y84991D01*
X35624Y85438D01*
X35624Y78168D01*
X28354Y78168D01*
G37*
%LPD*%
%LPC*%
G36*
X34248Y66393D02*
X34248Y66393D01*
X32841Y67110D01*
X31563Y68039D01*
X30447Y69155D01*
X29518Y70433D01*
X28801Y71840D01*
X28354Y73216D01*
X35624Y73216D01*
X35624Y65946D01*
X34248Y66393D01*
G37*
%LPD*%
%LPC*%
G36*
X52924Y167224D02*
X52924Y167224D01*
X52924Y174327D01*
X53012Y174313D01*
X54426Y173854D01*
X55751Y173179D01*
X56954Y172305D01*
X58005Y171254D01*
X58879Y170051D01*
X59554Y168726D01*
X60013Y167312D01*
X60027Y167224D01*
X52924Y167224D01*
G37*
%LPD*%
%LPC*%
G36*
X78324Y167224D02*
X78324Y167224D01*
X78324Y174327D01*
X78412Y174313D01*
X79826Y173854D01*
X81151Y173179D01*
X82354Y172305D01*
X83405Y171254D01*
X84279Y170051D01*
X84954Y168726D01*
X85413Y167312D01*
X85427Y167224D01*
X78324Y167224D01*
G37*
%LPD*%
%LPC*%
G36*
X52924Y162976D02*
X52924Y162976D01*
X60027Y162976D01*
X60013Y162888D01*
X59554Y161474D01*
X58879Y160149D01*
X58005Y158946D01*
X56954Y157895D01*
X55751Y157021D01*
X54426Y156346D01*
X53012Y155887D01*
X52924Y155873D01*
X52924Y162976D01*
G37*
%LPD*%
%LPC*%
G36*
X78324Y162976D02*
X78324Y162976D01*
X85427Y162976D01*
X85413Y162888D01*
X84954Y161474D01*
X84279Y160149D01*
X83405Y158946D01*
X82354Y157895D01*
X81151Y157021D01*
X79826Y156346D01*
X78412Y155887D01*
X78324Y155873D01*
X78324Y162976D01*
G37*
%LPD*%
%LPC*%
G36*
X41573Y167224D02*
X41573Y167224D01*
X41587Y167312D01*
X42046Y168726D01*
X42721Y170051D01*
X43595Y171254D01*
X44646Y172305D01*
X45849Y173179D01*
X47174Y173854D01*
X48588Y174313D01*
X48676Y174327D01*
X48676Y167224D01*
X41573Y167224D01*
G37*
%LPD*%
%LPC*%
G36*
X66973Y167224D02*
X66973Y167224D01*
X66987Y167312D01*
X67446Y168726D01*
X68121Y170051D01*
X68995Y171254D01*
X70046Y172305D01*
X71249Y173179D01*
X72574Y173854D01*
X73988Y174313D01*
X74076Y174327D01*
X74076Y167224D01*
X66973Y167224D01*
G37*
%LPD*%
%LPC*%
G36*
X73988Y155887D02*
X73988Y155887D01*
X72574Y156346D01*
X71249Y157021D01*
X70046Y157895D01*
X68995Y158946D01*
X68121Y160149D01*
X67446Y161474D01*
X66987Y162888D01*
X66973Y162976D01*
X74076Y162976D01*
X74076Y155873D01*
X73988Y155887D01*
G37*
%LPD*%
%LPC*%
G36*
X48588Y155887D02*
X48588Y155887D01*
X47174Y156346D01*
X45849Y157021D01*
X44646Y157895D01*
X43595Y158946D01*
X42721Y160149D01*
X42046Y161474D01*
X41587Y162888D01*
X41573Y162976D01*
X48676Y162976D01*
X48676Y155873D01*
X48588Y155887D01*
G37*
%LPD*%
D10*
X63500Y0D02*
X736600Y0D01*
X863600Y127000D02*
X863600Y431800D01*
X742950Y546100D02*
X57150Y546100D01*
X0Y209550D02*
X0Y63500D01*
X57150Y387350D02*
X57150Y546100D01*
X57150Y387350D02*
X203200Y387350D01*
X203200Y209550D01*
X0Y209550D01*
X742950Y546100D02*
X746066Y545912D01*
X749177Y545649D01*
X752279Y545309D01*
X755373Y544893D01*
X758456Y544402D01*
X761525Y543835D01*
X764580Y543193D01*
X767618Y542477D01*
X770638Y541686D01*
X773638Y540822D01*
X776615Y539885D01*
X779568Y538874D01*
X782496Y537792D01*
X785397Y536638D01*
X788268Y535414D01*
X791109Y534119D01*
X793916Y532756D01*
X796690Y531324D01*
X799428Y529824D01*
X802128Y528258D01*
X804789Y526626D01*
X807409Y524930D01*
X809987Y523170D01*
X812521Y521347D01*
X815009Y519462D01*
X817451Y517517D01*
X819844Y515513D01*
X822188Y513451D01*
X824480Y511332D01*
X826720Y509158D01*
X828905Y506929D01*
X831036Y504648D01*
X833109Y502315D01*
X835125Y499932D01*
X837083Y497500D01*
X838979Y495021D01*
X840815Y492496D01*
X842588Y489927D01*
X844298Y487316D01*
X845943Y484663D01*
X847523Y481971D01*
X849036Y479241D01*
X850482Y476474D01*
X851860Y473673D01*
X853169Y470839D01*
X854407Y467974D01*
X855576Y465080D01*
X856673Y462157D01*
X857698Y459209D01*
X858650Y456236D01*
X859530Y453241D01*
X860336Y450225D01*
X861067Y447191D01*
X861724Y444139D01*
X862307Y441073D01*
X862813Y437993D01*
X863245Y434901D01*
X863600Y431800D01*
X863600Y127000D02*
X863563Y123931D01*
X863452Y120864D01*
X863266Y117801D01*
X863007Y114743D01*
X862674Y111692D01*
X862267Y108650D01*
X861787Y105619D01*
X861234Y102600D01*
X860608Y99595D01*
X859910Y96607D01*
X859139Y93636D01*
X858297Y90685D01*
X857384Y87755D01*
X856401Y84848D01*
X855347Y81965D01*
X854224Y79109D01*
X853033Y76281D01*
X851773Y73482D01*
X850446Y70715D01*
X849053Y67980D01*
X847594Y65280D01*
X846070Y62616D01*
X844482Y59990D01*
X842832Y57402D01*
X841119Y54856D01*
X839345Y52351D01*
X837511Y49890D01*
X835619Y47474D01*
X833668Y45105D01*
X831661Y42783D01*
X829598Y40511D01*
X827481Y38289D01*
X825311Y36119D01*
X823089Y34002D01*
X820817Y31939D01*
X818495Y29932D01*
X816126Y27981D01*
X813710Y26089D01*
X811249Y24255D01*
X808744Y22481D01*
X806198Y20768D01*
X803610Y19118D01*
X800984Y17530D01*
X798320Y16006D01*
X795620Y14547D01*
X792885Y13154D01*
X790118Y11827D01*
X787319Y10567D01*
X784491Y9376D01*
X781635Y8253D01*
X778752Y7199D01*
X775845Y6216D01*
X772915Y5303D01*
X769964Y4461D01*
X766993Y3690D01*
X764005Y2992D01*
X761000Y2366D01*
X757981Y1813D01*
X754950Y1333D01*
X751908Y926D01*
X748857Y593D01*
X745799Y334D01*
X742736Y148D01*
X739669Y37D01*
X736600Y0D01*
X63500Y0D02*
X61888Y96D01*
X60279Y231D01*
X58674Y405D01*
X57073Y618D01*
X55478Y870D01*
X53890Y1160D01*
X52309Y1488D01*
X50736Y1855D01*
X49173Y2259D01*
X47620Y2702D01*
X46078Y3181D01*
X44548Y3698D01*
X43032Y4252D01*
X41529Y4842D01*
X40040Y5468D01*
X38568Y6130D01*
X37111Y6828D01*
X35672Y7560D01*
X34252Y8328D01*
X32850Y9129D01*
X31468Y9964D01*
X30106Y10832D01*
X28766Y11733D01*
X27448Y12666D01*
X26153Y13631D01*
X24882Y14626D01*
X23636Y15652D01*
X22414Y16708D01*
X21218Y17794D01*
X20049Y18907D01*
X18907Y20049D01*
X17794Y21218D01*
X16708Y22414D01*
X15652Y23636D01*
X14626Y24882D01*
X13631Y26153D01*
X12666Y27448D01*
X11733Y28766D01*
X10832Y30106D01*
X9964Y31468D01*
X9129Y32850D01*
X8328Y34252D01*
X7560Y35672D01*
X6828Y37111D01*
X6130Y38568D01*
X5468Y40040D01*
X4842Y41529D01*
X4252Y43032D01*
X3698Y44548D01*
X3181Y46078D01*
X2702Y47620D01*
X2259Y49173D01*
X1855Y50736D01*
X1488Y52309D01*
X1160Y53890D01*
X870Y55478D01*
X618Y57073D01*
X405Y58674D01*
X231Y60279D01*
X96Y61888D01*
X0Y63500D01*
X341250Y431800D02*
X341252Y431996D01*
X341260Y432193D01*
X341272Y432389D01*
X341289Y432584D01*
X341310Y432779D01*
X341337Y432974D01*
X341368Y433168D01*
X341404Y433361D01*
X341444Y433553D01*
X341490Y433744D01*
X341540Y433934D01*
X341594Y434122D01*
X341654Y434309D01*
X341718Y434495D01*
X341786Y434679D01*
X341859Y434861D01*
X341936Y435042D01*
X342018Y435220D01*
X342104Y435397D01*
X342195Y435571D01*
X342289Y435743D01*
X342388Y435913D01*
X342491Y436080D01*
X342598Y436245D01*
X342709Y436406D01*
X342824Y436566D01*
X342943Y436722D01*
X343066Y436875D01*
X343192Y437025D01*
X343322Y437172D01*
X343456Y437316D01*
X343593Y437457D01*
X343734Y437594D01*
X343878Y437728D01*
X344025Y437858D01*
X344175Y437984D01*
X344328Y438107D01*
X344484Y438226D01*
X344644Y438341D01*
X344805Y438452D01*
X344970Y438559D01*
X345137Y438662D01*
X345307Y438761D01*
X345479Y438855D01*
X345653Y438946D01*
X345830Y439032D01*
X346008Y439114D01*
X346189Y439191D01*
X346371Y439264D01*
X346555Y439332D01*
X346741Y439396D01*
X346928Y439456D01*
X347116Y439510D01*
X347306Y439560D01*
X347497Y439606D01*
X347689Y439646D01*
X347882Y439682D01*
X348076Y439713D01*
X348271Y439740D01*
X348466Y439761D01*
X348661Y439778D01*
X348857Y439790D01*
X349054Y439798D01*
X349250Y439800D01*
X349446Y439798D01*
X349643Y439790D01*
X349839Y439778D01*
X350034Y439761D01*
X350229Y439740D01*
X350424Y439713D01*
X350618Y439682D01*
X350811Y439646D01*
X351003Y439606D01*
X351194Y439560D01*
X351384Y439510D01*
X351572Y439456D01*
X351759Y439396D01*
X351945Y439332D01*
X352129Y439264D01*
X352311Y439191D01*
X352492Y439114D01*
X352670Y439032D01*
X352847Y438946D01*
X353021Y438855D01*
X353193Y438761D01*
X353363Y438662D01*
X353530Y438559D01*
X353695Y438452D01*
X353856Y438341D01*
X354016Y438226D01*
X354172Y438107D01*
X354325Y437984D01*
X354475Y437858D01*
X354622Y437728D01*
X354766Y437594D01*
X354907Y437457D01*
X355044Y437316D01*
X355178Y437172D01*
X355308Y437025D01*
X355434Y436875D01*
X355557Y436722D01*
X355676Y436566D01*
X355791Y436406D01*
X355902Y436245D01*
X356009Y436080D01*
X356112Y435913D01*
X356211Y435743D01*
X356305Y435571D01*
X356396Y435397D01*
X356482Y435220D01*
X356564Y435042D01*
X356641Y434861D01*
X356714Y434679D01*
X356782Y434495D01*
X356846Y434309D01*
X356906Y434122D01*
X356960Y433934D01*
X357010Y433744D01*
X357056Y433553D01*
X357096Y433361D01*
X357132Y433168D01*
X357163Y432974D01*
X357190Y432779D01*
X357211Y432584D01*
X357228Y432389D01*
X357240Y432193D01*
X357248Y431996D01*
X357250Y431800D01*
X357248Y431604D01*
X357240Y431407D01*
X357228Y431211D01*
X357211Y431016D01*
X357190Y430821D01*
X357163Y430626D01*
X357132Y430432D01*
X357096Y430239D01*
X357056Y430047D01*
X357010Y429856D01*
X356960Y429666D01*
X356906Y429478D01*
X356846Y429291D01*
X356782Y429105D01*
X356714Y428921D01*
X356641Y428739D01*
X356564Y428558D01*
X356482Y428380D01*
X356396Y428203D01*
X356305Y428029D01*
X356211Y427857D01*
X356112Y427687D01*
X356009Y427520D01*
X355902Y427355D01*
X355791Y427194D01*
X355676Y427034D01*
X355557Y426878D01*
X355434Y426725D01*
X355308Y426575D01*
X355178Y426428D01*
X355044Y426284D01*
X354907Y426143D01*
X354766Y426006D01*
X354622Y425872D01*
X354475Y425742D01*
X354325Y425616D01*
X354172Y425493D01*
X354016Y425374D01*
X353856Y425259D01*
X353695Y425148D01*
X353530Y425041D01*
X353363Y424938D01*
X353193Y424839D01*
X353021Y424745D01*
X352847Y424654D01*
X352670Y424568D01*
X352492Y424486D01*
X352311Y424409D01*
X352129Y424336D01*
X351945Y424268D01*
X351759Y424204D01*
X351572Y424144D01*
X351384Y424090D01*
X351194Y424040D01*
X351003Y423994D01*
X350811Y423954D01*
X350618Y423918D01*
X350424Y423887D01*
X350229Y423860D01*
X350034Y423839D01*
X349839Y423822D01*
X349643Y423810D01*
X349446Y423802D01*
X349250Y423800D01*
X349054Y423802D01*
X348857Y423810D01*
X348661Y423822D01*
X348466Y423839D01*
X348271Y423860D01*
X348076Y423887D01*
X347882Y423918D01*
X347689Y423954D01*
X347497Y423994D01*
X347306Y424040D01*
X347116Y424090D01*
X346928Y424144D01*
X346741Y424204D01*
X346555Y424268D01*
X346371Y424336D01*
X346189Y424409D01*
X346008Y424486D01*
X345830Y424568D01*
X345653Y424654D01*
X345479Y424745D01*
X345307Y424839D01*
X345137Y424938D01*
X344970Y425041D01*
X344805Y425148D01*
X344644Y425259D01*
X344484Y425374D01*
X344328Y425493D01*
X344175Y425616D01*
X344025Y425742D01*
X343878Y425872D01*
X343734Y426006D01*
X343593Y426143D01*
X343456Y426284D01*
X343322Y426428D01*
X343192Y426575D01*
X343066Y426725D01*
X342943Y426878D01*
X342824Y427034D01*
X342709Y427194D01*
X342598Y427355D01*
X342491Y427520D01*
X342388Y427687D01*
X342289Y427857D01*
X342195Y428029D01*
X342104Y428203D01*
X342018Y428380D01*
X341936Y428558D01*
X341859Y428739D01*
X341786Y428921D01*
X341718Y429105D01*
X341654Y429291D01*
X341594Y429478D01*
X341540Y429666D01*
X341490Y429856D01*
X341444Y430047D01*
X341404Y430239D01*
X341368Y430432D01*
X341337Y430626D01*
X341310Y430821D01*
X341289Y431016D01*
X341272Y431211D01*
X341260Y431407D01*
X341252Y431604D01*
X341250Y431800D01*
X343750Y181800D02*
X343752Y181948D01*
X343758Y182096D01*
X343768Y182244D01*
X343782Y182392D01*
X343800Y182539D01*
X343822Y182686D01*
X343848Y182832D01*
X343877Y182977D01*
X343911Y183122D01*
X343949Y183265D01*
X343990Y183408D01*
X344035Y183549D01*
X344085Y183689D01*
X344137Y183827D01*
X344194Y183965D01*
X344254Y184100D01*
X344318Y184234D01*
X344385Y184366D01*
X344456Y184496D01*
X344531Y184625D01*
X344609Y184751D01*
X344690Y184875D01*
X344774Y184997D01*
X344862Y185116D01*
X344953Y185233D01*
X345047Y185348D01*
X345145Y185460D01*
X345245Y185569D01*
X345348Y185676D01*
X345454Y185780D01*
X345562Y185881D01*
X345674Y185979D01*
X345788Y186074D01*
X345904Y186165D01*
X346023Y186254D01*
X346144Y186339D01*
X346268Y186421D01*
X346394Y186500D01*
X346521Y186575D01*
X346651Y186647D01*
X346783Y186716D01*
X346916Y186780D01*
X347051Y186841D01*
X347188Y186899D01*
X347326Y186953D01*
X347466Y187003D01*
X347607Y187049D01*
X347749Y187091D01*
X347892Y187130D01*
X348036Y187164D01*
X348182Y187195D01*
X348327Y187222D01*
X348474Y187245D01*
X348621Y187264D01*
X348769Y187279D01*
X348916Y187290D01*
X349065Y187297D01*
X349213Y187300D01*
X349361Y187299D01*
X349509Y187294D01*
X349657Y187285D01*
X349805Y187272D01*
X349953Y187255D01*
X350099Y187234D01*
X350246Y187209D01*
X350391Y187180D01*
X350536Y187148D01*
X350679Y187111D01*
X350822Y187071D01*
X350964Y187026D01*
X351104Y186978D01*
X351243Y186926D01*
X351380Y186871D01*
X351516Y186811D01*
X351651Y186748D01*
X351783Y186682D01*
X351914Y186612D01*
X352043Y186538D01*
X352169Y186461D01*
X352294Y186381D01*
X352416Y186297D01*
X352537Y186210D01*
X352654Y186120D01*
X352770Y186026D01*
X352882Y185930D01*
X352992Y185831D01*
X353100Y185728D01*
X353204Y185623D01*
X353306Y185515D01*
X353404Y185404D01*
X353500Y185291D01*
X353593Y185175D01*
X353682Y185057D01*
X353768Y184936D01*
X353851Y184813D01*
X353931Y184688D01*
X354007Y184561D01*
X354080Y184431D01*
X354149Y184300D01*
X354214Y184167D01*
X354277Y184033D01*
X354335Y183896D01*
X354390Y183758D01*
X354440Y183619D01*
X354488Y183478D01*
X354531Y183337D01*
X354571Y183194D01*
X354606Y183050D01*
X354638Y182905D01*
X354666Y182759D01*
X354690Y182613D01*
X354710Y182466D01*
X354726Y182318D01*
X354738Y182171D01*
X354746Y182022D01*
X354750Y181874D01*
X354750Y181726D01*
X354746Y181578D01*
X354738Y181429D01*
X354726Y181282D01*
X354710Y181134D01*
X354690Y180987D01*
X354666Y180841D01*
X354638Y180695D01*
X354606Y180550D01*
X354571Y180406D01*
X354531Y180263D01*
X354488Y180122D01*
X354440Y179981D01*
X354390Y179842D01*
X354335Y179704D01*
X354277Y179567D01*
X354214Y179433D01*
X354149Y179300D01*
X354080Y179169D01*
X354007Y179039D01*
X353931Y178912D01*
X353851Y178787D01*
X353768Y178664D01*
X353682Y178543D01*
X353593Y178425D01*
X353500Y178309D01*
X353404Y178196D01*
X353306Y178085D01*
X353204Y177977D01*
X353100Y177872D01*
X352992Y177769D01*
X352882Y177670D01*
X352770Y177574D01*
X352654Y177480D01*
X352537Y177390D01*
X352416Y177303D01*
X352294Y177219D01*
X352169Y177139D01*
X352043Y177062D01*
X351914Y176988D01*
X351783Y176918D01*
X351651Y176852D01*
X351516Y176789D01*
X351380Y176729D01*
X351243Y176674D01*
X351104Y176622D01*
X350964Y176574D01*
X350822Y176529D01*
X350679Y176489D01*
X350536Y176452D01*
X350391Y176420D01*
X350246Y176391D01*
X350099Y176366D01*
X349953Y176345D01*
X349805Y176328D01*
X349657Y176315D01*
X349509Y176306D01*
X349361Y176301D01*
X349213Y176300D01*
X349065Y176303D01*
X348916Y176310D01*
X348769Y176321D01*
X348621Y176336D01*
X348474Y176355D01*
X348327Y176378D01*
X348182Y176405D01*
X348036Y176436D01*
X347892Y176470D01*
X347749Y176509D01*
X347607Y176551D01*
X347466Y176597D01*
X347326Y176647D01*
X347188Y176701D01*
X347051Y176759D01*
X346916Y176820D01*
X346783Y176884D01*
X346651Y176953D01*
X346521Y177025D01*
X346394Y177100D01*
X346268Y177179D01*
X346144Y177261D01*
X346023Y177346D01*
X345904Y177435D01*
X345788Y177526D01*
X345674Y177621D01*
X345562Y177719D01*
X345454Y177820D01*
X345348Y177924D01*
X345245Y178031D01*
X345145Y178140D01*
X345047Y178252D01*
X344953Y178367D01*
X344862Y178484D01*
X344774Y178603D01*
X344690Y178725D01*
X344609Y178849D01*
X344531Y178975D01*
X344456Y179104D01*
X344385Y179234D01*
X344318Y179366D01*
X344254Y179500D01*
X344194Y179635D01*
X344137Y179773D01*
X344085Y179911D01*
X344035Y180051D01*
X343990Y180192D01*
X343949Y180335D01*
X343911Y180478D01*
X343877Y180623D01*
X343848Y180768D01*
X343822Y180914D01*
X343800Y181061D01*
X343782Y181208D01*
X343768Y181356D01*
X343758Y181504D01*
X343752Y181652D01*
X343750Y181800D01*
X818250Y427800D02*
X818254Y428107D01*
X818265Y428413D01*
X818284Y428720D01*
X818310Y429025D01*
X818344Y429330D01*
X818385Y429634D01*
X818434Y429937D01*
X818490Y430239D01*
X818554Y430539D01*
X818625Y430837D01*
X818703Y431134D01*
X818788Y431429D01*
X818881Y431721D01*
X818981Y432011D01*
X819088Y432299D01*
X819202Y432584D01*
X819322Y432866D01*
X819450Y433144D01*
X819585Y433420D01*
X819726Y433692D01*
X819874Y433961D01*
X820028Y434226D01*
X820189Y434487D01*
X820357Y434745D01*
X820530Y434998D01*
X820710Y435246D01*
X820896Y435490D01*
X821087Y435730D01*
X821285Y435965D01*
X821488Y436194D01*
X821697Y436419D01*
X821911Y436639D01*
X822131Y436853D01*
X822356Y437062D01*
X822585Y437265D01*
X822820Y437463D01*
X823060Y437654D01*
X823304Y437840D01*
X823552Y438020D01*
X823805Y438193D01*
X824063Y438361D01*
X824324Y438522D01*
X824589Y438676D01*
X824858Y438824D01*
X825130Y438965D01*
X825406Y439100D01*
X825684Y439228D01*
X825966Y439348D01*
X826251Y439462D01*
X826539Y439569D01*
X826829Y439669D01*
X827121Y439762D01*
X827416Y439847D01*
X827713Y439925D01*
X828011Y439996D01*
X828311Y440060D01*
X828613Y440116D01*
X828916Y440165D01*
X829220Y440206D01*
X829525Y440240D01*
X829830Y440266D01*
X830137Y440285D01*
X830443Y440296D01*
X830750Y440300D01*
X831057Y440296D01*
X831363Y440285D01*
X831670Y440266D01*
X831975Y440240D01*
X832280Y440206D01*
X832584Y440165D01*
X832887Y440116D01*
X833189Y440060D01*
X833489Y439996D01*
X833787Y439925D01*
X834084Y439847D01*
X834379Y439762D01*
X834671Y439669D01*
X834961Y439569D01*
X835249Y439462D01*
X835534Y439348D01*
X835816Y439228D01*
X836094Y439100D01*
X836370Y438965D01*
X836642Y438824D01*
X836911Y438676D01*
X837176Y438522D01*
X837437Y438361D01*
X837695Y438193D01*
X837948Y438020D01*
X838196Y437840D01*
X838440Y437654D01*
X838680Y437463D01*
X838915Y437265D01*
X839144Y437062D01*
X839369Y436853D01*
X839589Y436639D01*
X839803Y436419D01*
X840012Y436194D01*
X840215Y435965D01*
X840413Y435730D01*
X840604Y435490D01*
X840790Y435246D01*
X840970Y434998D01*
X841143Y434745D01*
X841311Y434487D01*
X841472Y434226D01*
X841626Y433961D01*
X841774Y433692D01*
X841915Y433420D01*
X842050Y433144D01*
X842178Y432866D01*
X842298Y432584D01*
X842412Y432299D01*
X842519Y432011D01*
X842619Y431721D01*
X842712Y431429D01*
X842797Y431134D01*
X842875Y430837D01*
X842946Y430539D01*
X843010Y430239D01*
X843066Y429937D01*
X843115Y429634D01*
X843156Y429330D01*
X843190Y429025D01*
X843216Y428720D01*
X843235Y428413D01*
X843246Y428107D01*
X843250Y427800D01*
X843246Y427493D01*
X843235Y427187D01*
X843216Y426880D01*
X843190Y426575D01*
X843156Y426270D01*
X843115Y425966D01*
X843066Y425663D01*
X843010Y425361D01*
X842946Y425061D01*
X842875Y424763D01*
X842797Y424466D01*
X842712Y424171D01*
X842619Y423879D01*
X842519Y423589D01*
X842412Y423301D01*
X842298Y423016D01*
X842178Y422734D01*
X842050Y422456D01*
X841915Y422180D01*
X841774Y421908D01*
X841626Y421639D01*
X841472Y421374D01*
X841311Y421113D01*
X841143Y420855D01*
X840970Y420602D01*
X840790Y420354D01*
X840604Y420110D01*
X840413Y419870D01*
X840215Y419635D01*
X840012Y419406D01*
X839803Y419181D01*
X839589Y418961D01*
X839369Y418747D01*
X839144Y418538D01*
X838915Y418335D01*
X838680Y418137D01*
X838440Y417946D01*
X838196Y417760D01*
X837948Y417580D01*
X837695Y417407D01*
X837437Y417239D01*
X837176Y417078D01*
X836911Y416924D01*
X836642Y416776D01*
X836370Y416635D01*
X836094Y416500D01*
X835816Y416372D01*
X835534Y416252D01*
X835249Y416138D01*
X834961Y416031D01*
X834671Y415931D01*
X834379Y415838D01*
X834084Y415753D01*
X833787Y415675D01*
X833489Y415604D01*
X833189Y415540D01*
X832887Y415484D01*
X832584Y415435D01*
X832280Y415394D01*
X831975Y415360D01*
X831670Y415334D01*
X831363Y415315D01*
X831057Y415304D01*
X830750Y415300D01*
X830443Y415304D01*
X830137Y415315D01*
X829830Y415334D01*
X829525Y415360D01*
X829220Y415394D01*
X828916Y415435D01*
X828613Y415484D01*
X828311Y415540D01*
X828011Y415604D01*
X827713Y415675D01*
X827416Y415753D01*
X827121Y415838D01*
X826829Y415931D01*
X826539Y416031D01*
X826251Y416138D01*
X825966Y416252D01*
X825684Y416372D01*
X825406Y416500D01*
X825130Y416635D01*
X824858Y416776D01*
X824589Y416924D01*
X824324Y417078D01*
X824063Y417239D01*
X823805Y417407D01*
X823552Y417580D01*
X823304Y417760D01*
X823060Y417946D01*
X822820Y418137D01*
X822585Y418335D01*
X822356Y418538D01*
X822131Y418747D01*
X821911Y418961D01*
X821697Y419181D01*
X821488Y419406D01*
X821285Y419635D01*
X821087Y419870D01*
X820896Y420110D01*
X820710Y420354D01*
X820530Y420602D01*
X820357Y420855D01*
X820189Y421113D01*
X820028Y421374D01*
X819874Y421639D01*
X819726Y421908D01*
X819585Y422180D01*
X819450Y422456D01*
X819322Y422734D01*
X819202Y423016D01*
X819088Y423301D01*
X818981Y423589D01*
X818881Y423879D01*
X818788Y424171D01*
X818703Y424466D01*
X818625Y424763D01*
X818554Y425061D01*
X818490Y425361D01*
X818434Y425663D01*
X818385Y425966D01*
X818344Y426270D01*
X818310Y426575D01*
X818284Y426880D01*
X818265Y427187D01*
X818254Y427493D01*
X818250Y427800D01*
X818250Y185800D02*
X818254Y186107D01*
X818265Y186413D01*
X818284Y186720D01*
X818310Y187025D01*
X818344Y187330D01*
X818385Y187634D01*
X818434Y187937D01*
X818490Y188239D01*
X818554Y188539D01*
X818625Y188837D01*
X818703Y189134D01*
X818788Y189429D01*
X818881Y189721D01*
X818981Y190011D01*
X819088Y190299D01*
X819202Y190584D01*
X819322Y190866D01*
X819450Y191144D01*
X819585Y191420D01*
X819726Y191692D01*
X819874Y191961D01*
X820028Y192226D01*
X820189Y192487D01*
X820357Y192745D01*
X820530Y192998D01*
X820710Y193246D01*
X820896Y193490D01*
X821087Y193730D01*
X821285Y193965D01*
X821488Y194194D01*
X821697Y194419D01*
X821911Y194639D01*
X822131Y194853D01*
X822356Y195062D01*
X822585Y195265D01*
X822820Y195463D01*
X823060Y195654D01*
X823304Y195840D01*
X823552Y196020D01*
X823805Y196193D01*
X824063Y196361D01*
X824324Y196522D01*
X824589Y196676D01*
X824858Y196824D01*
X825130Y196965D01*
X825406Y197100D01*
X825684Y197228D01*
X825966Y197348D01*
X826251Y197462D01*
X826539Y197569D01*
X826829Y197669D01*
X827121Y197762D01*
X827416Y197847D01*
X827713Y197925D01*
X828011Y197996D01*
X828311Y198060D01*
X828613Y198116D01*
X828916Y198165D01*
X829220Y198206D01*
X829525Y198240D01*
X829830Y198266D01*
X830137Y198285D01*
X830443Y198296D01*
X830750Y198300D01*
X831057Y198296D01*
X831363Y198285D01*
X831670Y198266D01*
X831975Y198240D01*
X832280Y198206D01*
X832584Y198165D01*
X832887Y198116D01*
X833189Y198060D01*
X833489Y197996D01*
X833787Y197925D01*
X834084Y197847D01*
X834379Y197762D01*
X834671Y197669D01*
X834961Y197569D01*
X835249Y197462D01*
X835534Y197348D01*
X835816Y197228D01*
X836094Y197100D01*
X836370Y196965D01*
X836642Y196824D01*
X836911Y196676D01*
X837176Y196522D01*
X837437Y196361D01*
X837695Y196193D01*
X837948Y196020D01*
X838196Y195840D01*
X838440Y195654D01*
X838680Y195463D01*
X838915Y195265D01*
X839144Y195062D01*
X839369Y194853D01*
X839589Y194639D01*
X839803Y194419D01*
X840012Y194194D01*
X840215Y193965D01*
X840413Y193730D01*
X840604Y193490D01*
X840790Y193246D01*
X840970Y192998D01*
X841143Y192745D01*
X841311Y192487D01*
X841472Y192226D01*
X841626Y191961D01*
X841774Y191692D01*
X841915Y191420D01*
X842050Y191144D01*
X842178Y190866D01*
X842298Y190584D01*
X842412Y190299D01*
X842519Y190011D01*
X842619Y189721D01*
X842712Y189429D01*
X842797Y189134D01*
X842875Y188837D01*
X842946Y188539D01*
X843010Y188239D01*
X843066Y187937D01*
X843115Y187634D01*
X843156Y187330D01*
X843190Y187025D01*
X843216Y186720D01*
X843235Y186413D01*
X843246Y186107D01*
X843250Y185800D01*
X843246Y185493D01*
X843235Y185187D01*
X843216Y184880D01*
X843190Y184575D01*
X843156Y184270D01*
X843115Y183966D01*
X843066Y183663D01*
X843010Y183361D01*
X842946Y183061D01*
X842875Y182763D01*
X842797Y182466D01*
X842712Y182171D01*
X842619Y181879D01*
X842519Y181589D01*
X842412Y181301D01*
X842298Y181016D01*
X842178Y180734D01*
X842050Y180456D01*
X841915Y180180D01*
X841774Y179908D01*
X841626Y179639D01*
X841472Y179374D01*
X841311Y179113D01*
X841143Y178855D01*
X840970Y178602D01*
X840790Y178354D01*
X840604Y178110D01*
X840413Y177870D01*
X840215Y177635D01*
X840012Y177406D01*
X839803Y177181D01*
X839589Y176961D01*
X839369Y176747D01*
X839144Y176538D01*
X838915Y176335D01*
X838680Y176137D01*
X838440Y175946D01*
X838196Y175760D01*
X837948Y175580D01*
X837695Y175407D01*
X837437Y175239D01*
X837176Y175078D01*
X836911Y174924D01*
X836642Y174776D01*
X836370Y174635D01*
X836094Y174500D01*
X835816Y174372D01*
X835534Y174252D01*
X835249Y174138D01*
X834961Y174031D01*
X834671Y173931D01*
X834379Y173838D01*
X834084Y173753D01*
X833787Y173675D01*
X833489Y173604D01*
X833189Y173540D01*
X832887Y173484D01*
X832584Y173435D01*
X832280Y173394D01*
X831975Y173360D01*
X831670Y173334D01*
X831363Y173315D01*
X831057Y173304D01*
X830750Y173300D01*
X830443Y173304D01*
X830137Y173315D01*
X829830Y173334D01*
X829525Y173360D01*
X829220Y173394D01*
X828916Y173435D01*
X828613Y173484D01*
X828311Y173540D01*
X828011Y173604D01*
X827713Y173675D01*
X827416Y173753D01*
X827121Y173838D01*
X826829Y173931D01*
X826539Y174031D01*
X826251Y174138D01*
X825966Y174252D01*
X825684Y174372D01*
X825406Y174500D01*
X825130Y174635D01*
X824858Y174776D01*
X824589Y174924D01*
X824324Y175078D01*
X824063Y175239D01*
X823805Y175407D01*
X823552Y175580D01*
X823304Y175760D01*
X823060Y175946D01*
X822820Y176137D01*
X822585Y176335D01*
X822356Y176538D01*
X822131Y176747D01*
X821911Y176961D01*
X821697Y177181D01*
X821488Y177406D01*
X821285Y177635D01*
X821087Y177870D01*
X820896Y178110D01*
X820710Y178354D01*
X820530Y178602D01*
X820357Y178855D01*
X820189Y179113D01*
X820028Y179374D01*
X819874Y179639D01*
X819726Y179908D01*
X819585Y180180D01*
X819450Y180456D01*
X819322Y180734D01*
X819202Y181016D01*
X819088Y181301D01*
X818981Y181589D01*
X818881Y181879D01*
X818788Y182171D01*
X818703Y182466D01*
X818625Y182763D01*
X818554Y183061D01*
X818490Y183361D01*
X818434Y183663D01*
X818385Y183966D01*
X818344Y184270D01*
X818310Y184575D01*
X818284Y184880D01*
X818265Y185187D01*
X818254Y185493D01*
X818250Y185800D01*
D11*
X76200Y165100D03*
X76200Y190500D03*
X50800Y165100D03*
X50800Y190500D03*
D12*
X38100Y120650D03*
X38100Y75692D03*
D13*
X62992Y133096D03*
X62992Y62992D03*
D10*
X130175Y31750D02*
X130180Y32140D01*
X130194Y32529D01*
X130218Y32918D01*
X130251Y33306D01*
X130294Y33693D01*
X130347Y34079D01*
X130409Y34464D01*
X130480Y34847D01*
X130561Y35228D01*
X130651Y35607D01*
X130750Y35984D01*
X130859Y36358D01*
X130976Y36730D01*
X131103Y37098D01*
X131239Y37463D01*
X131383Y37825D01*
X131537Y38183D01*
X131699Y38537D01*
X131870Y38888D01*
X132049Y39233D01*
X132237Y39575D01*
X132434Y39911D01*
X132638Y40243D01*
X132850Y40570D01*
X133071Y40891D01*
X133299Y41207D01*
X133535Y41517D01*
X133778Y41821D01*
X134029Y42119D01*
X134287Y42411D01*
X134553Y42696D01*
X134825Y42975D01*
X135104Y43247D01*
X135389Y43513D01*
X135681Y43771D01*
X135979Y44022D01*
X136283Y44265D01*
X136593Y44501D01*
X136909Y44729D01*
X137230Y44950D01*
X137557Y45162D01*
X137889Y45366D01*
X138225Y45563D01*
X138567Y45751D01*
X138912Y45930D01*
X139263Y46101D01*
X139617Y46263D01*
X139975Y46417D01*
X140337Y46561D01*
X140702Y46697D01*
X141070Y46824D01*
X141442Y46941D01*
X141816Y47050D01*
X142193Y47149D01*
X142572Y47239D01*
X142953Y47320D01*
X143336Y47391D01*
X143721Y47453D01*
X144107Y47506D01*
X144494Y47549D01*
X144882Y47582D01*
X145271Y47606D01*
X145660Y47620D01*
X146050Y47625D01*
X146440Y47620D01*
X146829Y47606D01*
X147218Y47582D01*
X147606Y47549D01*
X147993Y47506D01*
X148379Y47453D01*
X148764Y47391D01*
X149147Y47320D01*
X149528Y47239D01*
X149907Y47149D01*
X150284Y47050D01*
X150658Y46941D01*
X151030Y46824D01*
X151398Y46697D01*
X151763Y46561D01*
X152125Y46417D01*
X152483Y46263D01*
X152837Y46101D01*
X153188Y45930D01*
X153533Y45751D01*
X153875Y45563D01*
X154211Y45366D01*
X154543Y45162D01*
X154870Y44950D01*
X155191Y44729D01*
X155507Y44501D01*
X155817Y44265D01*
X156121Y44022D01*
X156419Y43771D01*
X156711Y43513D01*
X156996Y43247D01*
X157275Y42975D01*
X157547Y42696D01*
X157813Y42411D01*
X158071Y42119D01*
X158322Y41821D01*
X158565Y41517D01*
X158801Y41207D01*
X159029Y40891D01*
X159250Y40570D01*
X159462Y40243D01*
X159666Y39911D01*
X159863Y39575D01*
X160051Y39233D01*
X160230Y38888D01*
X160401Y38537D01*
X160563Y38183D01*
X160717Y37825D01*
X160861Y37463D01*
X160997Y37098D01*
X161124Y36730D01*
X161241Y36358D01*
X161350Y35984D01*
X161449Y35607D01*
X161539Y35228D01*
X161620Y34847D01*
X161691Y34464D01*
X161753Y34079D01*
X161806Y33693D01*
X161849Y33306D01*
X161882Y32918D01*
X161906Y32529D01*
X161920Y32140D01*
X161925Y31750D01*
X161920Y31360D01*
X161906Y30971D01*
X161882Y30582D01*
X161849Y30194D01*
X161806Y29807D01*
X161753Y29421D01*
X161691Y29036D01*
X161620Y28653D01*
X161539Y28272D01*
X161449Y27893D01*
X161350Y27516D01*
X161241Y27142D01*
X161124Y26770D01*
X160997Y26402D01*
X160861Y26037D01*
X160717Y25675D01*
X160563Y25317D01*
X160401Y24963D01*
X160230Y24612D01*
X160051Y24267D01*
X159863Y23925D01*
X159666Y23589D01*
X159462Y23257D01*
X159250Y22930D01*
X159029Y22609D01*
X158801Y22293D01*
X158565Y21983D01*
X158322Y21679D01*
X158071Y21381D01*
X157813Y21089D01*
X157547Y20804D01*
X157275Y20525D01*
X156996Y20253D01*
X156711Y19987D01*
X156419Y19729D01*
X156121Y19478D01*
X155817Y19235D01*
X155507Y18999D01*
X155191Y18771D01*
X154870Y18550D01*
X154543Y18338D01*
X154211Y18134D01*
X153875Y17937D01*
X153533Y17749D01*
X153188Y17570D01*
X152837Y17399D01*
X152483Y17237D01*
X152125Y17083D01*
X151763Y16939D01*
X151398Y16803D01*
X151030Y16676D01*
X150658Y16559D01*
X150284Y16450D01*
X149907Y16351D01*
X149528Y16261D01*
X149147Y16180D01*
X148764Y16109D01*
X148379Y16047D01*
X147993Y15994D01*
X147606Y15951D01*
X147218Y15918D01*
X146829Y15894D01*
X146440Y15880D01*
X146050Y15875D01*
X145660Y15880D01*
X145271Y15894D01*
X144882Y15918D01*
X144494Y15951D01*
X144107Y15994D01*
X143721Y16047D01*
X143336Y16109D01*
X142953Y16180D01*
X142572Y16261D01*
X142193Y16351D01*
X141816Y16450D01*
X141442Y16559D01*
X141070Y16676D01*
X140702Y16803D01*
X140337Y16939D01*
X139975Y17083D01*
X139617Y17237D01*
X139263Y17399D01*
X138912Y17570D01*
X138567Y17749D01*
X138225Y17937D01*
X137889Y18134D01*
X137557Y18338D01*
X137230Y18550D01*
X136909Y18771D01*
X136593Y18999D01*
X136283Y19235D01*
X135979Y19478D01*
X135681Y19729D01*
X135389Y19987D01*
X135104Y20253D01*
X134825Y20525D01*
X134553Y20804D01*
X134287Y21089D01*
X134029Y21381D01*
X133778Y21679D01*
X133535Y21983D01*
X133299Y22293D01*
X133071Y22609D01*
X132850Y22930D01*
X132638Y23257D01*
X132434Y23589D01*
X132237Y23925D01*
X132049Y24267D01*
X131870Y24612D01*
X131699Y24963D01*
X131537Y25317D01*
X131383Y25675D01*
X131239Y26037D01*
X131103Y26402D01*
X130976Y26770D01*
X130859Y27142D01*
X130750Y27516D01*
X130651Y27893D01*
X130561Y28272D01*
X130480Y28653D01*
X130409Y29036D01*
X130347Y29421D01*
X130294Y29807D01*
X130251Y30194D01*
X130218Y30582D01*
X130194Y30971D01*
X130180Y31360D01*
X130175Y31750D01*
X790575Y63500D02*
X790580Y63890D01*
X790594Y64279D01*
X790618Y64668D01*
X790651Y65056D01*
X790694Y65443D01*
X790747Y65829D01*
X790809Y66214D01*
X790880Y66597D01*
X790961Y66978D01*
X791051Y67357D01*
X791150Y67734D01*
X791259Y68108D01*
X791376Y68480D01*
X791503Y68848D01*
X791639Y69213D01*
X791783Y69575D01*
X791937Y69933D01*
X792099Y70287D01*
X792270Y70638D01*
X792449Y70983D01*
X792637Y71325D01*
X792834Y71661D01*
X793038Y71993D01*
X793250Y72320D01*
X793471Y72641D01*
X793699Y72957D01*
X793935Y73267D01*
X794178Y73571D01*
X794429Y73869D01*
X794687Y74161D01*
X794953Y74446D01*
X795225Y74725D01*
X795504Y74997D01*
X795789Y75263D01*
X796081Y75521D01*
X796379Y75772D01*
X796683Y76015D01*
X796993Y76251D01*
X797309Y76479D01*
X797630Y76700D01*
X797957Y76912D01*
X798289Y77116D01*
X798625Y77313D01*
X798967Y77501D01*
X799312Y77680D01*
X799663Y77851D01*
X800017Y78013D01*
X800375Y78167D01*
X800737Y78311D01*
X801102Y78447D01*
X801470Y78574D01*
X801842Y78691D01*
X802216Y78800D01*
X802593Y78899D01*
X802972Y78989D01*
X803353Y79070D01*
X803736Y79141D01*
X804121Y79203D01*
X804507Y79256D01*
X804894Y79299D01*
X805282Y79332D01*
X805671Y79356D01*
X806060Y79370D01*
X806450Y79375D01*
X806840Y79370D01*
X807229Y79356D01*
X807618Y79332D01*
X808006Y79299D01*
X808393Y79256D01*
X808779Y79203D01*
X809164Y79141D01*
X809547Y79070D01*
X809928Y78989D01*
X810307Y78899D01*
X810684Y78800D01*
X811058Y78691D01*
X811430Y78574D01*
X811798Y78447D01*
X812163Y78311D01*
X812525Y78167D01*
X812883Y78013D01*
X813237Y77851D01*
X813588Y77680D01*
X813933Y77501D01*
X814275Y77313D01*
X814611Y77116D01*
X814943Y76912D01*
X815270Y76700D01*
X815591Y76479D01*
X815907Y76251D01*
X816217Y76015D01*
X816521Y75772D01*
X816819Y75521D01*
X817111Y75263D01*
X817396Y74997D01*
X817675Y74725D01*
X817947Y74446D01*
X818213Y74161D01*
X818471Y73869D01*
X818722Y73571D01*
X818965Y73267D01*
X819201Y72957D01*
X819429Y72641D01*
X819650Y72320D01*
X819862Y71993D01*
X820066Y71661D01*
X820263Y71325D01*
X820451Y70983D01*
X820630Y70638D01*
X820801Y70287D01*
X820963Y69933D01*
X821117Y69575D01*
X821261Y69213D01*
X821397Y68848D01*
X821524Y68480D01*
X821641Y68108D01*
X821750Y67734D01*
X821849Y67357D01*
X821939Y66978D01*
X822020Y66597D01*
X822091Y66214D01*
X822153Y65829D01*
X822206Y65443D01*
X822249Y65056D01*
X822282Y64668D01*
X822306Y64279D01*
X822320Y63890D01*
X822325Y63500D01*
X822320Y63110D01*
X822306Y62721D01*
X822282Y62332D01*
X822249Y61944D01*
X822206Y61557D01*
X822153Y61171D01*
X822091Y60786D01*
X822020Y60403D01*
X821939Y60022D01*
X821849Y59643D01*
X821750Y59266D01*
X821641Y58892D01*
X821524Y58520D01*
X821397Y58152D01*
X821261Y57787D01*
X821117Y57425D01*
X820963Y57067D01*
X820801Y56713D01*
X820630Y56362D01*
X820451Y56017D01*
X820263Y55675D01*
X820066Y55339D01*
X819862Y55007D01*
X819650Y54680D01*
X819429Y54359D01*
X819201Y54043D01*
X818965Y53733D01*
X818722Y53429D01*
X818471Y53131D01*
X818213Y52839D01*
X817947Y52554D01*
X817675Y52275D01*
X817396Y52003D01*
X817111Y51737D01*
X816819Y51479D01*
X816521Y51228D01*
X816217Y50985D01*
X815907Y50749D01*
X815591Y50521D01*
X815270Y50300D01*
X814943Y50088D01*
X814611Y49884D01*
X814275Y49687D01*
X813933Y49499D01*
X813588Y49320D01*
X813237Y49149D01*
X812883Y48987D01*
X812525Y48833D01*
X812163Y48689D01*
X811798Y48553D01*
X811430Y48426D01*
X811058Y48309D01*
X810684Y48200D01*
X810307Y48101D01*
X809928Y48011D01*
X809547Y47930D01*
X809164Y47859D01*
X808779Y47797D01*
X808393Y47744D01*
X808006Y47701D01*
X807618Y47668D01*
X807229Y47644D01*
X806840Y47630D01*
X806450Y47625D01*
X806060Y47630D01*
X805671Y47644D01*
X805282Y47668D01*
X804894Y47701D01*
X804507Y47744D01*
X804121Y47797D01*
X803736Y47859D01*
X803353Y47930D01*
X802972Y48011D01*
X802593Y48101D01*
X802216Y48200D01*
X801842Y48309D01*
X801470Y48426D01*
X801102Y48553D01*
X800737Y48689D01*
X800375Y48833D01*
X800017Y48987D01*
X799663Y49149D01*
X799312Y49320D01*
X798967Y49499D01*
X798625Y49687D01*
X798289Y49884D01*
X797957Y50088D01*
X797630Y50300D01*
X797309Y50521D01*
X796993Y50749D01*
X796683Y50985D01*
X796379Y51228D01*
X796081Y51479D01*
X795789Y51737D01*
X795504Y52003D01*
X795225Y52275D01*
X794953Y52554D01*
X794687Y52839D01*
X794429Y53131D01*
X794178Y53429D01*
X793935Y53733D01*
X793699Y54043D01*
X793471Y54359D01*
X793250Y54680D01*
X793038Y55007D01*
X792834Y55339D01*
X792637Y55675D01*
X792449Y56017D01*
X792270Y56362D01*
X792099Y56713D01*
X791937Y57067D01*
X791783Y57425D01*
X791639Y57787D01*
X791503Y58152D01*
X791376Y58520D01*
X791259Y58892D01*
X791150Y59266D01*
X791051Y59643D01*
X790961Y60022D01*
X790880Y60403D01*
X790809Y60786D01*
X790747Y61171D01*
X790694Y61557D01*
X790651Y61944D01*
X790618Y62332D01*
X790594Y62721D01*
X790580Y63110D01*
X790575Y63500D01*
X790575Y482600D02*
X790580Y482990D01*
X790594Y483379D01*
X790618Y483768D01*
X790651Y484156D01*
X790694Y484543D01*
X790747Y484929D01*
X790809Y485314D01*
X790880Y485697D01*
X790961Y486078D01*
X791051Y486457D01*
X791150Y486834D01*
X791259Y487208D01*
X791376Y487580D01*
X791503Y487948D01*
X791639Y488313D01*
X791783Y488675D01*
X791937Y489033D01*
X792099Y489387D01*
X792270Y489738D01*
X792449Y490083D01*
X792637Y490425D01*
X792834Y490761D01*
X793038Y491093D01*
X793250Y491420D01*
X793471Y491741D01*
X793699Y492057D01*
X793935Y492367D01*
X794178Y492671D01*
X794429Y492969D01*
X794687Y493261D01*
X794953Y493546D01*
X795225Y493825D01*
X795504Y494097D01*
X795789Y494363D01*
X796081Y494621D01*
X796379Y494872D01*
X796683Y495115D01*
X796993Y495351D01*
X797309Y495579D01*
X797630Y495800D01*
X797957Y496012D01*
X798289Y496216D01*
X798625Y496413D01*
X798967Y496601D01*
X799312Y496780D01*
X799663Y496951D01*
X800017Y497113D01*
X800375Y497267D01*
X800737Y497411D01*
X801102Y497547D01*
X801470Y497674D01*
X801842Y497791D01*
X802216Y497900D01*
X802593Y497999D01*
X802972Y498089D01*
X803353Y498170D01*
X803736Y498241D01*
X804121Y498303D01*
X804507Y498356D01*
X804894Y498399D01*
X805282Y498432D01*
X805671Y498456D01*
X806060Y498470D01*
X806450Y498475D01*
X806840Y498470D01*
X807229Y498456D01*
X807618Y498432D01*
X808006Y498399D01*
X808393Y498356D01*
X808779Y498303D01*
X809164Y498241D01*
X809547Y498170D01*
X809928Y498089D01*
X810307Y497999D01*
X810684Y497900D01*
X811058Y497791D01*
X811430Y497674D01*
X811798Y497547D01*
X812163Y497411D01*
X812525Y497267D01*
X812883Y497113D01*
X813237Y496951D01*
X813588Y496780D01*
X813933Y496601D01*
X814275Y496413D01*
X814611Y496216D01*
X814943Y496012D01*
X815270Y495800D01*
X815591Y495579D01*
X815907Y495351D01*
X816217Y495115D01*
X816521Y494872D01*
X816819Y494621D01*
X817111Y494363D01*
X817396Y494097D01*
X817675Y493825D01*
X817947Y493546D01*
X818213Y493261D01*
X818471Y492969D01*
X818722Y492671D01*
X818965Y492367D01*
X819201Y492057D01*
X819429Y491741D01*
X819650Y491420D01*
X819862Y491093D01*
X820066Y490761D01*
X820263Y490425D01*
X820451Y490083D01*
X820630Y489738D01*
X820801Y489387D01*
X820963Y489033D01*
X821117Y488675D01*
X821261Y488313D01*
X821397Y487948D01*
X821524Y487580D01*
X821641Y487208D01*
X821750Y486834D01*
X821849Y486457D01*
X821939Y486078D01*
X822020Y485697D01*
X822091Y485314D01*
X822153Y484929D01*
X822206Y484543D01*
X822249Y484156D01*
X822282Y483768D01*
X822306Y483379D01*
X822320Y482990D01*
X822325Y482600D01*
X822320Y482210D01*
X822306Y481821D01*
X822282Y481432D01*
X822249Y481044D01*
X822206Y480657D01*
X822153Y480271D01*
X822091Y479886D01*
X822020Y479503D01*
X821939Y479122D01*
X821849Y478743D01*
X821750Y478366D01*
X821641Y477992D01*
X821524Y477620D01*
X821397Y477252D01*
X821261Y476887D01*
X821117Y476525D01*
X820963Y476167D01*
X820801Y475813D01*
X820630Y475462D01*
X820451Y475117D01*
X820263Y474775D01*
X820066Y474439D01*
X819862Y474107D01*
X819650Y473780D01*
X819429Y473459D01*
X819201Y473143D01*
X818965Y472833D01*
X818722Y472529D01*
X818471Y472231D01*
X818213Y471939D01*
X817947Y471654D01*
X817675Y471375D01*
X817396Y471103D01*
X817111Y470837D01*
X816819Y470579D01*
X816521Y470328D01*
X816217Y470085D01*
X815907Y469849D01*
X815591Y469621D01*
X815270Y469400D01*
X814943Y469188D01*
X814611Y468984D01*
X814275Y468787D01*
X813933Y468599D01*
X813588Y468420D01*
X813237Y468249D01*
X812883Y468087D01*
X812525Y467933D01*
X812163Y467789D01*
X811798Y467653D01*
X811430Y467526D01*
X811058Y467409D01*
X810684Y467300D01*
X810307Y467201D01*
X809928Y467111D01*
X809547Y467030D01*
X809164Y466959D01*
X808779Y466897D01*
X808393Y466844D01*
X808006Y466801D01*
X807618Y466768D01*
X807229Y466744D01*
X806840Y466730D01*
X806450Y466725D01*
X806060Y466730D01*
X805671Y466744D01*
X805282Y466768D01*
X804894Y466801D01*
X804507Y466844D01*
X804121Y466897D01*
X803736Y466959D01*
X803353Y467030D01*
X802972Y467111D01*
X802593Y467201D01*
X802216Y467300D01*
X801842Y467409D01*
X801470Y467526D01*
X801102Y467653D01*
X800737Y467789D01*
X800375Y467933D01*
X800017Y468087D01*
X799663Y468249D01*
X799312Y468420D01*
X798967Y468599D01*
X798625Y468787D01*
X798289Y468984D01*
X797957Y469188D01*
X797630Y469400D01*
X797309Y469621D01*
X796993Y469849D01*
X796683Y470085D01*
X796379Y470328D01*
X796081Y470579D01*
X795789Y470837D01*
X795504Y471103D01*
X795225Y471375D01*
X794953Y471654D01*
X794687Y471939D01*
X794429Y472231D01*
X794178Y472529D01*
X793935Y472833D01*
X793699Y473143D01*
X793471Y473459D01*
X793250Y473780D01*
X793038Y474107D01*
X792834Y474439D01*
X792637Y474775D01*
X792449Y475117D01*
X792270Y475462D01*
X792099Y475813D01*
X791937Y476167D01*
X791783Y476525D01*
X791639Y476887D01*
X791503Y477252D01*
X791376Y477620D01*
X791259Y477992D01*
X791150Y478366D01*
X791051Y478743D01*
X790961Y479122D01*
X790880Y479503D01*
X790809Y479886D01*
X790747Y480271D01*
X790694Y480657D01*
X790651Y481044D01*
X790618Y481432D01*
X790594Y481821D01*
X790580Y482210D01*
X790575Y482600D01*
X130175Y514350D02*
X130180Y514740D01*
X130194Y515129D01*
X130218Y515518D01*
X130251Y515906D01*
X130294Y516293D01*
X130347Y516679D01*
X130409Y517064D01*
X130480Y517447D01*
X130561Y517828D01*
X130651Y518207D01*
X130750Y518584D01*
X130859Y518958D01*
X130976Y519330D01*
X131103Y519698D01*
X131239Y520063D01*
X131383Y520425D01*
X131537Y520783D01*
X131699Y521137D01*
X131870Y521488D01*
X132049Y521833D01*
X132237Y522175D01*
X132434Y522511D01*
X132638Y522843D01*
X132850Y523170D01*
X133071Y523491D01*
X133299Y523807D01*
X133535Y524117D01*
X133778Y524421D01*
X134029Y524719D01*
X134287Y525011D01*
X134553Y525296D01*
X134825Y525575D01*
X135104Y525847D01*
X135389Y526113D01*
X135681Y526371D01*
X135979Y526622D01*
X136283Y526865D01*
X136593Y527101D01*
X136909Y527329D01*
X137230Y527550D01*
X137557Y527762D01*
X137889Y527966D01*
X138225Y528163D01*
X138567Y528351D01*
X138912Y528530D01*
X139263Y528701D01*
X139617Y528863D01*
X139975Y529017D01*
X140337Y529161D01*
X140702Y529297D01*
X141070Y529424D01*
X141442Y529541D01*
X141816Y529650D01*
X142193Y529749D01*
X142572Y529839D01*
X142953Y529920D01*
X143336Y529991D01*
X143721Y530053D01*
X144107Y530106D01*
X144494Y530149D01*
X144882Y530182D01*
X145271Y530206D01*
X145660Y530220D01*
X146050Y530225D01*
X146440Y530220D01*
X146829Y530206D01*
X147218Y530182D01*
X147606Y530149D01*
X147993Y530106D01*
X148379Y530053D01*
X148764Y529991D01*
X149147Y529920D01*
X149528Y529839D01*
X149907Y529749D01*
X150284Y529650D01*
X150658Y529541D01*
X151030Y529424D01*
X151398Y529297D01*
X151763Y529161D01*
X152125Y529017D01*
X152483Y528863D01*
X152837Y528701D01*
X153188Y528530D01*
X153533Y528351D01*
X153875Y528163D01*
X154211Y527966D01*
X154543Y527762D01*
X154870Y527550D01*
X155191Y527329D01*
X155507Y527101D01*
X155817Y526865D01*
X156121Y526622D01*
X156419Y526371D01*
X156711Y526113D01*
X156996Y525847D01*
X157275Y525575D01*
X157547Y525296D01*
X157813Y525011D01*
X158071Y524719D01*
X158322Y524421D01*
X158565Y524117D01*
X158801Y523807D01*
X159029Y523491D01*
X159250Y523170D01*
X159462Y522843D01*
X159666Y522511D01*
X159863Y522175D01*
X160051Y521833D01*
X160230Y521488D01*
X160401Y521137D01*
X160563Y520783D01*
X160717Y520425D01*
X160861Y520063D01*
X160997Y519698D01*
X161124Y519330D01*
X161241Y518958D01*
X161350Y518584D01*
X161449Y518207D01*
X161539Y517828D01*
X161620Y517447D01*
X161691Y517064D01*
X161753Y516679D01*
X161806Y516293D01*
X161849Y515906D01*
X161882Y515518D01*
X161906Y515129D01*
X161920Y514740D01*
X161925Y514350D01*
X161920Y513960D01*
X161906Y513571D01*
X161882Y513182D01*
X161849Y512794D01*
X161806Y512407D01*
X161753Y512021D01*
X161691Y511636D01*
X161620Y511253D01*
X161539Y510872D01*
X161449Y510493D01*
X161350Y510116D01*
X161241Y509742D01*
X161124Y509370D01*
X160997Y509002D01*
X160861Y508637D01*
X160717Y508275D01*
X160563Y507917D01*
X160401Y507563D01*
X160230Y507212D01*
X160051Y506867D01*
X159863Y506525D01*
X159666Y506189D01*
X159462Y505857D01*
X159250Y505530D01*
X159029Y505209D01*
X158801Y504893D01*
X158565Y504583D01*
X158322Y504279D01*
X158071Y503981D01*
X157813Y503689D01*
X157547Y503404D01*
X157275Y503125D01*
X156996Y502853D01*
X156711Y502587D01*
X156419Y502329D01*
X156121Y502078D01*
X155817Y501835D01*
X155507Y501599D01*
X155191Y501371D01*
X154870Y501150D01*
X154543Y500938D01*
X154211Y500734D01*
X153875Y500537D01*
X153533Y500349D01*
X153188Y500170D01*
X152837Y499999D01*
X152483Y499837D01*
X152125Y499683D01*
X151763Y499539D01*
X151398Y499403D01*
X151030Y499276D01*
X150658Y499159D01*
X150284Y499050D01*
X149907Y498951D01*
X149528Y498861D01*
X149147Y498780D01*
X148764Y498709D01*
X148379Y498647D01*
X147993Y498594D01*
X147606Y498551D01*
X147218Y498518D01*
X146829Y498494D01*
X146440Y498480D01*
X146050Y498475D01*
X145660Y498480D01*
X145271Y498494D01*
X144882Y498518D01*
X144494Y498551D01*
X144107Y498594D01*
X143721Y498647D01*
X143336Y498709D01*
X142953Y498780D01*
X142572Y498861D01*
X142193Y498951D01*
X141816Y499050D01*
X141442Y499159D01*
X141070Y499276D01*
X140702Y499403D01*
X140337Y499539D01*
X139975Y499683D01*
X139617Y499837D01*
X139263Y499999D01*
X138912Y500170D01*
X138567Y500349D01*
X138225Y500537D01*
X137889Y500734D01*
X137557Y500938D01*
X137230Y501150D01*
X136909Y501371D01*
X136593Y501599D01*
X136283Y501835D01*
X135979Y502078D01*
X135681Y502329D01*
X135389Y502587D01*
X135104Y502853D01*
X134825Y503125D01*
X134553Y503404D01*
X134287Y503689D01*
X134029Y503981D01*
X133778Y504279D01*
X133535Y504583D01*
X133299Y504893D01*
X133071Y505209D01*
X132850Y505530D01*
X132638Y505857D01*
X132434Y506189D01*
X132237Y506525D01*
X132049Y506867D01*
X131870Y507212D01*
X131699Y507563D01*
X131537Y507917D01*
X131383Y508275D01*
X131239Y508637D01*
X131103Y509002D01*
X130976Y509370D01*
X130859Y509742D01*
X130750Y510116D01*
X130651Y510493D01*
X130561Y510872D01*
X130480Y511253D01*
X130409Y511636D01*
X130347Y512021D01*
X130294Y512407D01*
X130251Y512794D01*
X130218Y513182D01*
X130194Y513571D01*
X130180Y513960D01*
X130175Y514350D01*
D14*
X203200Y19050D03*
D15*
X203200Y44450D03*
X228600Y19050D03*
X228600Y44450D03*
X254000Y19050D03*
X254000Y44450D03*
X279400Y19050D03*
X279400Y44450D03*
X304800Y19050D03*
X304800Y44450D03*
X330200Y19050D03*
X330200Y44450D03*
X355600Y19050D03*
X355600Y44450D03*
X381000Y19050D03*
X381000Y44450D03*
X406400Y19050D03*
X406400Y44450D03*
X431800Y19050D03*
X431800Y44450D03*
X457200Y19050D03*
X457200Y44450D03*
X482600Y19050D03*
X482600Y44450D03*
X508000Y19050D03*
X508000Y44450D03*
X533400Y19050D03*
X533400Y44450D03*
X558800Y19050D03*
X558800Y44450D03*
X584200Y19050D03*
X584200Y44450D03*
X609600Y19050D03*
X609600Y44450D03*
X635000Y19050D03*
X635000Y44450D03*
X660400Y19050D03*
X660400Y44450D03*
X685800Y19050D03*
X685800Y44450D03*
X711200Y19050D03*
X711200Y44450D03*
X736600Y19050D03*
X736600Y44450D03*
X762000Y19050D03*
X762000Y44450D03*
D14*
X203200Y501650D03*
D15*
X203200Y527050D03*
X228600Y501650D03*
X228600Y527050D03*
X254000Y501650D03*
X254000Y527050D03*
X279400Y501650D03*
X279400Y527050D03*
X304800Y501650D03*
X304800Y527050D03*
X330200Y501650D03*
X330200Y527050D03*
X355600Y501650D03*
X355600Y527050D03*
X381000Y501650D03*
X381000Y527050D03*
X406400Y501650D03*
X406400Y527050D03*
X431800Y501650D03*
X431800Y527050D03*
X457200Y501650D03*
X457200Y527050D03*
X482600Y501650D03*
X482600Y527050D03*
X508000Y501650D03*
X508000Y527050D03*
X533400Y501650D03*
X533400Y527050D03*
X558800Y501650D03*
X558800Y527050D03*
X584200Y501650D03*
X584200Y527050D03*
X609600Y501650D03*
X609600Y527050D03*
X635000Y501650D03*
X635000Y527050D03*
X660400Y501650D03*
X660400Y527050D03*
X685800Y501650D03*
X685800Y527050D03*
X711200Y501650D03*
X711200Y527050D03*
X736600Y501650D03*
X736600Y527050D03*
X762000Y501650D03*
X762000Y527050D03*
D10*
X401955Y101600D02*
X401957Y101733D01*
X401963Y101866D01*
X401973Y101998D01*
X401987Y102131D01*
X402005Y102262D01*
X402026Y102394D01*
X402052Y102524D01*
X402082Y102654D01*
X402115Y102783D01*
X402152Y102910D01*
X402194Y103037D01*
X402238Y103162D01*
X402287Y103286D01*
X402339Y103408D01*
X402395Y103529D01*
X402455Y103648D01*
X402518Y103765D01*
X402584Y103880D01*
X402654Y103993D01*
X402727Y104104D01*
X402804Y104213D01*
X402884Y104319D01*
X402967Y104423D01*
X403053Y104525D01*
X403142Y104623D01*
X403233Y104719D01*
X403328Y104813D01*
X403426Y104903D01*
X403526Y104991D01*
X403629Y105075D01*
X403734Y105157D01*
X403841Y105235D01*
X403951Y105310D01*
X404063Y105381D01*
X404178Y105449D01*
X404294Y105514D01*
X404412Y105576D01*
X404532Y105633D01*
X404653Y105687D01*
X404776Y105738D01*
X404901Y105784D01*
X405026Y105827D01*
X405154Y105867D01*
X405282Y105902D01*
X405411Y105934D01*
X405541Y105961D01*
X405672Y105985D01*
X405803Y106005D01*
X405935Y106021D01*
X406068Y106033D01*
X406201Y106041D01*
X406334Y106045D01*
X406466Y106045D01*
X406599Y106041D01*
X406732Y106033D01*
X406865Y106021D01*
X406997Y106005D01*
X407128Y105985D01*
X407259Y105961D01*
X407389Y105934D01*
X407518Y105902D01*
X407646Y105867D01*
X407774Y105827D01*
X407899Y105784D01*
X408024Y105738D01*
X408147Y105687D01*
X408268Y105633D01*
X408388Y105576D01*
X408506Y105514D01*
X408623Y105449D01*
X408737Y105381D01*
X408849Y105310D01*
X408959Y105235D01*
X409066Y105157D01*
X409171Y105075D01*
X409274Y104991D01*
X409374Y104903D01*
X409472Y104813D01*
X409567Y104719D01*
X409658Y104623D01*
X409747Y104525D01*
X409833Y104423D01*
X409916Y104319D01*
X409996Y104213D01*
X410073Y104104D01*
X410146Y103993D01*
X410216Y103880D01*
X410282Y103765D01*
X410345Y103648D01*
X410405Y103529D01*
X410461Y103408D01*
X410513Y103286D01*
X410562Y103162D01*
X410606Y103037D01*
X410648Y102910D01*
X410685Y102783D01*
X410718Y102654D01*
X410748Y102524D01*
X410774Y102394D01*
X410795Y102262D01*
X410813Y102131D01*
X410827Y101998D01*
X410837Y101866D01*
X410843Y101733D01*
X410845Y101600D01*
X410843Y101467D01*
X410837Y101334D01*
X410827Y101202D01*
X410813Y101069D01*
X410795Y100938D01*
X410774Y100806D01*
X410748Y100676D01*
X410718Y100546D01*
X410685Y100417D01*
X410648Y100290D01*
X410606Y100163D01*
X410562Y100038D01*
X410513Y99914D01*
X410461Y99792D01*
X410405Y99671D01*
X410345Y99552D01*
X410282Y99435D01*
X410216Y99320D01*
X410146Y99207D01*
X410073Y99096D01*
X409996Y98987D01*
X409916Y98881D01*
X409833Y98777D01*
X409747Y98675D01*
X409658Y98577D01*
X409567Y98481D01*
X409472Y98387D01*
X409374Y98297D01*
X409274Y98209D01*
X409171Y98125D01*
X409066Y98043D01*
X408959Y97965D01*
X408849Y97890D01*
X408737Y97819D01*
X408622Y97751D01*
X408506Y97686D01*
X408388Y97624D01*
X408268Y97567D01*
X408147Y97513D01*
X408024Y97462D01*
X407899Y97416D01*
X407774Y97373D01*
X407646Y97333D01*
X407518Y97298D01*
X407389Y97266D01*
X407259Y97239D01*
X407128Y97215D01*
X406997Y97195D01*
X406865Y97179D01*
X406732Y97167D01*
X406599Y97159D01*
X406466Y97155D01*
X406334Y97155D01*
X406201Y97159D01*
X406068Y97167D01*
X405935Y97179D01*
X405803Y97195D01*
X405672Y97215D01*
X405541Y97239D01*
X405411Y97266D01*
X405282Y97298D01*
X405154Y97333D01*
X405026Y97373D01*
X404901Y97416D01*
X404776Y97462D01*
X404653Y97513D01*
X404532Y97567D01*
X404412Y97624D01*
X404294Y97686D01*
X404177Y97751D01*
X404063Y97819D01*
X403951Y97890D01*
X403841Y97965D01*
X403734Y98043D01*
X403629Y98125D01*
X403526Y98209D01*
X403426Y98297D01*
X403328Y98387D01*
X403233Y98481D01*
X403142Y98577D01*
X403053Y98675D01*
X402967Y98777D01*
X402884Y98881D01*
X402804Y98987D01*
X402727Y99096D01*
X402654Y99207D01*
X402584Y99320D01*
X402518Y99435D01*
X402455Y99552D01*
X402395Y99671D01*
X402339Y99792D01*
X402287Y99914D01*
X402238Y100038D01*
X402194Y100163D01*
X402152Y100290D01*
X402115Y100417D01*
X402082Y100546D01*
X402052Y100676D01*
X402026Y100806D01*
X402005Y100938D01*
X401987Y101069D01*
X401973Y101202D01*
X401963Y101334D01*
X401957Y101467D01*
X401955Y101600D01*
X452755Y91440D02*
X452757Y91573D01*
X452763Y91706D01*
X452773Y91838D01*
X452787Y91971D01*
X452805Y92102D01*
X452826Y92234D01*
X452852Y92364D01*
X452882Y92494D01*
X452915Y92623D01*
X452952Y92750D01*
X452994Y92877D01*
X453038Y93002D01*
X453087Y93126D01*
X453139Y93248D01*
X453195Y93369D01*
X453255Y93488D01*
X453318Y93605D01*
X453384Y93720D01*
X453454Y93833D01*
X453527Y93944D01*
X453604Y94053D01*
X453684Y94159D01*
X453767Y94263D01*
X453853Y94365D01*
X453942Y94463D01*
X454033Y94559D01*
X454128Y94653D01*
X454226Y94743D01*
X454326Y94831D01*
X454429Y94915D01*
X454534Y94997D01*
X454641Y95075D01*
X454751Y95150D01*
X454863Y95221D01*
X454978Y95289D01*
X455094Y95354D01*
X455212Y95416D01*
X455332Y95473D01*
X455453Y95527D01*
X455576Y95578D01*
X455701Y95624D01*
X455826Y95667D01*
X455954Y95707D01*
X456082Y95742D01*
X456211Y95774D01*
X456341Y95801D01*
X456472Y95825D01*
X456603Y95845D01*
X456735Y95861D01*
X456868Y95873D01*
X457001Y95881D01*
X457134Y95885D01*
X457266Y95885D01*
X457399Y95881D01*
X457532Y95873D01*
X457665Y95861D01*
X457797Y95845D01*
X457928Y95825D01*
X458059Y95801D01*
X458189Y95774D01*
X458318Y95742D01*
X458446Y95707D01*
X458574Y95667D01*
X458699Y95624D01*
X458824Y95578D01*
X458947Y95527D01*
X459068Y95473D01*
X459188Y95416D01*
X459306Y95354D01*
X459423Y95289D01*
X459537Y95221D01*
X459649Y95150D01*
X459759Y95075D01*
X459866Y94997D01*
X459971Y94915D01*
X460074Y94831D01*
X460174Y94743D01*
X460272Y94653D01*
X460367Y94559D01*
X460458Y94463D01*
X460547Y94365D01*
X460633Y94263D01*
X460716Y94159D01*
X460796Y94053D01*
X460873Y93944D01*
X460946Y93833D01*
X461016Y93720D01*
X461082Y93605D01*
X461145Y93488D01*
X461205Y93369D01*
X461261Y93248D01*
X461313Y93126D01*
X461362Y93002D01*
X461406Y92877D01*
X461448Y92750D01*
X461485Y92623D01*
X461518Y92494D01*
X461548Y92364D01*
X461574Y92234D01*
X461595Y92102D01*
X461613Y91971D01*
X461627Y91838D01*
X461637Y91706D01*
X461643Y91573D01*
X461645Y91440D01*
X461643Y91307D01*
X461637Y91174D01*
X461627Y91042D01*
X461613Y90909D01*
X461595Y90778D01*
X461574Y90646D01*
X461548Y90516D01*
X461518Y90386D01*
X461485Y90257D01*
X461448Y90130D01*
X461406Y90003D01*
X461362Y89878D01*
X461313Y89754D01*
X461261Y89632D01*
X461205Y89511D01*
X461145Y89392D01*
X461082Y89275D01*
X461016Y89160D01*
X460946Y89047D01*
X460873Y88936D01*
X460796Y88827D01*
X460716Y88721D01*
X460633Y88617D01*
X460547Y88515D01*
X460458Y88417D01*
X460367Y88321D01*
X460272Y88227D01*
X460174Y88137D01*
X460074Y88049D01*
X459971Y87965D01*
X459866Y87883D01*
X459759Y87805D01*
X459649Y87730D01*
X459537Y87659D01*
X459422Y87591D01*
X459306Y87526D01*
X459188Y87464D01*
X459068Y87407D01*
X458947Y87353D01*
X458824Y87302D01*
X458699Y87256D01*
X458574Y87213D01*
X458446Y87173D01*
X458318Y87138D01*
X458189Y87106D01*
X458059Y87079D01*
X457928Y87055D01*
X457797Y87035D01*
X457665Y87019D01*
X457532Y87007D01*
X457399Y86999D01*
X457266Y86995D01*
X457134Y86995D01*
X457001Y86999D01*
X456868Y87007D01*
X456735Y87019D01*
X456603Y87035D01*
X456472Y87055D01*
X456341Y87079D01*
X456211Y87106D01*
X456082Y87138D01*
X455954Y87173D01*
X455826Y87213D01*
X455701Y87256D01*
X455576Y87302D01*
X455453Y87353D01*
X455332Y87407D01*
X455212Y87464D01*
X455094Y87526D01*
X454977Y87591D01*
X454863Y87659D01*
X454751Y87730D01*
X454641Y87805D01*
X454534Y87883D01*
X454429Y87965D01*
X454326Y88049D01*
X454226Y88137D01*
X454128Y88227D01*
X454033Y88321D01*
X453942Y88417D01*
X453853Y88515D01*
X453767Y88617D01*
X453684Y88721D01*
X453604Y88827D01*
X453527Y88936D01*
X453454Y89047D01*
X453384Y89160D01*
X453318Y89275D01*
X453255Y89392D01*
X453195Y89511D01*
X453139Y89632D01*
X453087Y89754D01*
X453038Y89878D01*
X452994Y90003D01*
X452952Y90130D01*
X452915Y90257D01*
X452882Y90386D01*
X452852Y90516D01*
X452826Y90646D01*
X452805Y90778D01*
X452787Y90909D01*
X452773Y91042D01*
X452763Y91174D01*
X452757Y91307D01*
X452755Y91440D01*
X452755Y111760D02*
X452757Y111893D01*
X452763Y112026D01*
X452773Y112158D01*
X452787Y112291D01*
X452805Y112422D01*
X452826Y112554D01*
X452852Y112684D01*
X452882Y112814D01*
X452915Y112943D01*
X452952Y113070D01*
X452994Y113197D01*
X453038Y113322D01*
X453087Y113446D01*
X453139Y113568D01*
X453195Y113689D01*
X453255Y113808D01*
X453318Y113925D01*
X453384Y114040D01*
X453454Y114153D01*
X453527Y114264D01*
X453604Y114373D01*
X453684Y114479D01*
X453767Y114583D01*
X453853Y114685D01*
X453942Y114783D01*
X454033Y114879D01*
X454128Y114973D01*
X454226Y115063D01*
X454326Y115151D01*
X454429Y115235D01*
X454534Y115317D01*
X454641Y115395D01*
X454751Y115470D01*
X454863Y115541D01*
X454978Y115609D01*
X455094Y115674D01*
X455212Y115736D01*
X455332Y115793D01*
X455453Y115847D01*
X455576Y115898D01*
X455701Y115944D01*
X455826Y115987D01*
X455954Y116027D01*
X456082Y116062D01*
X456211Y116094D01*
X456341Y116121D01*
X456472Y116145D01*
X456603Y116165D01*
X456735Y116181D01*
X456868Y116193D01*
X457001Y116201D01*
X457134Y116205D01*
X457266Y116205D01*
X457399Y116201D01*
X457532Y116193D01*
X457665Y116181D01*
X457797Y116165D01*
X457928Y116145D01*
X458059Y116121D01*
X458189Y116094D01*
X458318Y116062D01*
X458446Y116027D01*
X458574Y115987D01*
X458699Y115944D01*
X458824Y115898D01*
X458947Y115847D01*
X459068Y115793D01*
X459188Y115736D01*
X459306Y115674D01*
X459423Y115609D01*
X459537Y115541D01*
X459649Y115470D01*
X459759Y115395D01*
X459866Y115317D01*
X459971Y115235D01*
X460074Y115151D01*
X460174Y115063D01*
X460272Y114973D01*
X460367Y114879D01*
X460458Y114783D01*
X460547Y114685D01*
X460633Y114583D01*
X460716Y114479D01*
X460796Y114373D01*
X460873Y114264D01*
X460946Y114153D01*
X461016Y114040D01*
X461082Y113925D01*
X461145Y113808D01*
X461205Y113689D01*
X461261Y113568D01*
X461313Y113446D01*
X461362Y113322D01*
X461406Y113197D01*
X461448Y113070D01*
X461485Y112943D01*
X461518Y112814D01*
X461548Y112684D01*
X461574Y112554D01*
X461595Y112422D01*
X461613Y112291D01*
X461627Y112158D01*
X461637Y112026D01*
X461643Y111893D01*
X461645Y111760D01*
X461643Y111627D01*
X461637Y111494D01*
X461627Y111362D01*
X461613Y111229D01*
X461595Y111098D01*
X461574Y110966D01*
X461548Y110836D01*
X461518Y110706D01*
X461485Y110577D01*
X461448Y110450D01*
X461406Y110323D01*
X461362Y110198D01*
X461313Y110074D01*
X461261Y109952D01*
X461205Y109831D01*
X461145Y109712D01*
X461082Y109595D01*
X461016Y109480D01*
X460946Y109367D01*
X460873Y109256D01*
X460796Y109147D01*
X460716Y109041D01*
X460633Y108937D01*
X460547Y108835D01*
X460458Y108737D01*
X460367Y108641D01*
X460272Y108547D01*
X460174Y108457D01*
X460074Y108369D01*
X459971Y108285D01*
X459866Y108203D01*
X459759Y108125D01*
X459649Y108050D01*
X459537Y107979D01*
X459422Y107911D01*
X459306Y107846D01*
X459188Y107784D01*
X459068Y107727D01*
X458947Y107673D01*
X458824Y107622D01*
X458699Y107576D01*
X458574Y107533D01*
X458446Y107493D01*
X458318Y107458D01*
X458189Y107426D01*
X458059Y107399D01*
X457928Y107375D01*
X457797Y107355D01*
X457665Y107339D01*
X457532Y107327D01*
X457399Y107319D01*
X457266Y107315D01*
X457134Y107315D01*
X457001Y107319D01*
X456868Y107327D01*
X456735Y107339D01*
X456603Y107355D01*
X456472Y107375D01*
X456341Y107399D01*
X456211Y107426D01*
X456082Y107458D01*
X455954Y107493D01*
X455826Y107533D01*
X455701Y107576D01*
X455576Y107622D01*
X455453Y107673D01*
X455332Y107727D01*
X455212Y107784D01*
X455094Y107846D01*
X454977Y107911D01*
X454863Y107979D01*
X454751Y108050D01*
X454641Y108125D01*
X454534Y108203D01*
X454429Y108285D01*
X454326Y108369D01*
X454226Y108457D01*
X454128Y108547D01*
X454033Y108641D01*
X453942Y108737D01*
X453853Y108835D01*
X453767Y108937D01*
X453684Y109041D01*
X453604Y109147D01*
X453527Y109256D01*
X453454Y109367D01*
X453384Y109480D01*
X453318Y109595D01*
X453255Y109712D01*
X453195Y109831D01*
X453139Y109952D01*
X453087Y110074D01*
X453038Y110198D01*
X452994Y110323D01*
X452952Y110450D01*
X452915Y110577D01*
X452882Y110706D01*
X452852Y110836D01*
X452826Y110966D01*
X452805Y111098D01*
X452787Y111229D01*
X452773Y111362D01*
X452763Y111494D01*
X452757Y111627D01*
X452755Y111760D01*
D16*
X717550Y95250D03*
X717550Y120650D03*
X742950Y95250D03*
X742950Y120650D03*
X768350Y95250D03*
X768350Y120650D03*
X793750Y95250D03*
X793750Y120650D03*
D17*
X285750Y190500D03*
D18*
X317500Y190500D01*
X527050Y152400D02*
X533400Y146050D01*
X533400Y44450D01*
X355600Y152400D02*
X317500Y190500D01*
X355600Y152400D02*
X527050Y152400D01*
D17*
X603250Y76200D03*
X603250Y101600D03*
D18*
X603250Y76200D01*
D17*
X336550Y203200D03*
D18*
X342900Y203200D01*
X558800Y19050D02*
X571500Y31750D01*
X381000Y165100D02*
X342900Y203200D01*
X381000Y165100D02*
X546100Y165100D01*
X571500Y139700D01*
X571500Y31750D01*
X584200Y19050D02*
X596900Y31750D01*
X596900Y69850D01*
X577850Y88900D02*
X577850Y146050D01*
X552450Y171450D01*
X387350Y171450D01*
D17*
X330200Y215900D03*
D18*
X577850Y88900D02*
X596900Y69850D01*
X387350Y171450D02*
X342900Y215900D01*
X330200Y215900D01*
D19*
X254000Y44450D02*
X254000Y19050D01*
X254000Y44450D02*
X254000Y57150D01*
X215900Y406400D02*
X209550Y412750D01*
X209550Y419100D01*
D17*
X209550Y419100D03*
D19*
X215900Y95250D02*
X254000Y57150D01*
X215900Y95250D02*
X215900Y406400D01*
D18*
X228600Y44450D02*
X228600Y19050D01*
X228600Y44450D02*
X228600Y63500D01*
D17*
X152400Y158750D03*
D18*
X203200Y88900D02*
X228600Y63500D01*
X203200Y88900D02*
X152400Y139700D01*
X152400Y158750D01*
X203200Y101600D02*
X203200Y88900D01*
D17*
X203200Y101600D03*
X508000Y139700D03*
X425450Y266700D03*
D18*
X330200Y266700D01*
D17*
X330200Y266700D03*
D18*
X508000Y139700D02*
X508000Y44450D01*
D17*
X482600Y139700D03*
X412750Y273050D03*
D18*
X342900Y273050D01*
X336550Y279400D01*
X330200Y279400D01*
D17*
X330200Y279400D03*
D18*
X482600Y139700D02*
X482600Y44450D01*
X552450Y50800D02*
X558800Y44450D01*
X552450Y50800D02*
X552450Y146050D01*
X539750Y158750D01*
X355600Y158750D02*
X330200Y184150D01*
X330200Y196850D01*
X323850Y203200D01*
D17*
X285750Y203200D03*
D18*
X355600Y158750D02*
X539750Y158750D01*
X323850Y203200D02*
X285750Y203200D01*
X342900Y31750D02*
X355600Y19050D01*
X342900Y31750D02*
X317500Y31750D01*
X317500Y57150D01*
X311150Y63500D01*
X260350Y63500D01*
X222250Y171450D02*
X228600Y177800D01*
X228600Y184150D01*
D17*
X228600Y184150D03*
D18*
X222250Y101600D02*
X260350Y63500D01*
X222250Y101600D02*
X222250Y171450D01*
D20*
X742950Y133350D02*
X742950Y120650D01*
X742950Y133350D02*
X717550Y158750D01*
X717550Y482600D02*
X723900Y488950D01*
X723900Y520700D01*
X730250Y527050D01*
X736600Y527050D01*
X717550Y482600D02*
X717550Y158750D01*
X730250Y158750D02*
X768350Y120650D01*
X755650Y488950D02*
X749300Y488950D01*
X755650Y488950D02*
X762000Y495300D01*
X762000Y501650D01*
X730250Y469900D02*
X730250Y158750D01*
X730250Y469900D02*
X749300Y488950D01*
M02*
