M48
;GenerationSoftware,Autodesk,EAGLE,9.5.2*%
;CreationDate,2021-04-30T13:48:37Z*%
FMAT,2
ICI,OFF
METRIC,TZ,000.000
T11C0.400
T10C0.850
T9C0.889
T8C0.991
T7C1.016
T6C1.100
T5C1.295
T4C1.600
T3C2.500
T2C3.175
%
G90
M71
T2
X14605Y51435
X80645Y48260
X80645Y6350
X14605Y3175
T3
X83075Y18580
X83075Y42780
T4
X34925Y43180
T5
X6299Y6299
X6299Y13310
T6
X34925Y18180
T7
X35560Y52705
X30480Y52705
X33020Y50165
X33020Y52705
X35560Y50165
X48260Y50165
X38100Y50165
X38100Y52705
X40640Y50165
X40640Y52705
X43180Y50165
X43180Y52705
X45720Y50165
X45720Y52705
X55880Y50165
X20320Y50165
X68580Y1905
X68580Y4445
X71120Y1905
X71120Y4445
X73660Y1905
X73660Y4445
X76200Y1905
X76200Y4445
X30480Y50165
X20320Y52705
X22860Y50165
X22860Y52705
X25400Y50165
X25400Y52705
X27940Y50165
X27940Y52705
X68580Y50165
X79375Y12065
X79375Y9525
X76835Y12065
X76835Y9525
X74295Y12065
X74295Y9525
X71755Y12065
X71755Y9525
X76200Y52705
X76200Y50165
X73660Y52705
X73660Y50165
X71120Y52705
X71120Y50165
X68580Y52705
X48260Y52705
X66040Y52705
X66040Y50165
X63500Y52705
X63500Y50165
X60960Y52705
X60960Y50165
X58420Y52705
X58420Y50165
X55880Y52705
X60960Y1905
X53340Y52705
X53340Y50165
X50800Y52705
X50800Y50165
X30480Y1905
X40640Y4445
X40640Y1905
X38100Y4445
X38100Y1905
X35560Y4445
X35560Y1905
X33020Y4445
X33020Y1905
X30480Y4445
X66040Y1905
X27940Y4445
X27940Y1905
X25400Y4445
X25400Y1905
X22860Y4445
X22860Y1905
X20320Y4445
X20320Y1905
X43180Y4445
X43180Y1905
X66040Y4445
X63500Y4445
X63500Y1905
X60960Y4445
X58420Y4445
X58420Y1905
X55880Y4445
X55880Y1905
X53340Y4445
X53340Y1905
X50800Y4445
X50800Y1905
X48260Y4445
X48260Y1905
X45720Y4445
X45720Y1905
T8
X3810Y7569
X3810Y12065
T9
X40640Y10160
X45720Y9144
X45720Y11176
T10
X5080Y19050
X7620Y19050
X5080Y16510
X7620Y16510
T11
X60325Y7620
X60325Y10160
X33655Y20320
X33020Y21590
X20955Y41910
X15240Y15875
X20320Y10160
X50800Y13970
X42545Y26670
X33020Y26670
X48260Y13970
X41275Y27305
X33020Y27940
X28575Y20320
X22860Y18415
X28575Y19050
M30